<?xml version='1.0' encoding='utf-8'?>
<COLLADA xmlns="http://www.collada.org/2005/11/COLLADASchema" version="1.4.1">
  <asset>
    <created>2026-09-14T00:00:00Z</created>
    <modified>2026-09-14T00:00:00Z</modified>
    <unit name="metre" meter="1" />
    <up_axis>Z_UP</up_axis>
  </asset>
  <library_effects>
    <effect id="qmat_c90f2351a1b48e4d_effect">
      <profile_COMMON>
        <technique sid="common">
          <lambert>
            <emission>
              <color>0 0 0 1</color>
            </emission>
            <diffuse>
              <color>0.89804314 0.91765098 0.92549412 1.0</color>
            </diffuse>
          </lambert>
        </technique>
      </profile_COMMON>
    </effect>
  </library_effects>
  <library_materials>
    <material id="qmat_c90f2351a1b48e4d" name="qmat_c90f2351a1b48e4d">
      <instance_effect url="#qmat_c90f2351a1b48e4d_effect" />
    </material>
  </library_materials>
  <library_geometries>
    <geometry id="geometry" name="base_link_stl">
      <mesh>
        <source id="positions">
          <float_array id="positions_array" count="231">0.0228352249 0.0207988359 0.0582537018 0.0304692909 -0.000544916315 0.0575889684 0.0249329787 0.0183767136 0.0101909507 0.0190576371 -0.00959415827 0.0582648255 -0.0010326656 -0.0212412309 0.0583656728 0.0103877326 -0.0161353108 0.0556915514 -0.00838606525 -0.0162160639 0.0558846407 0.0111941583 0.0164116099 0.0567604192 0.0185566433 0.0090282727 0.0577766746 0.0135080004 0.00339167984 0.0550565496 0.0146425348 -0.00307166274 0.0550276488 0.000825843192 0.00505037047 0.0544089414 -0.0034588899 0.0205906667 0.0590966605 -0.0170091949 0.0109773669 0.0574518405 -0.00916987099 0.0153846303 0.0554397032 -0.0017848789 0.0117039941 0.0557638742 -0.00557114184 -0.000870633463 0.0558139719 -0.0186546259 0.023778446 0.0610929616 -0.0156875309 0.0152851967 0.06048242 -0.00823169202 0.029043911 0.0604705773 0.00223298604 0.0305000003 0.0581714287 -0.00934605114 0.0291730259 0.00972499885 -0.0265103169 0.0152207725 0.0580145903 -0.0304692909 0.00297504687 0.0578049533 -0.0227634609 0.0210240614 0.0106278621 -0.0267830547 0.0143822813 0.00230654399 -0.0193432048 -0.00973665901 0.0581826866 -0.0169145949 -0.010099601 0.0559717603 0.00394573901 -0.00442551589 0.0553985275 -0.00401442917 -0.0111216819 0.0550824031 0.00038998251 -0.0303865783 0.0583516546 -0.0133524127 -0.0277467035 0.0581473485 -0.00933705829 -0.029496273 0.00970737077 0.0264110994 0.0262535922 0.00969127938 0.0116388993 0.0284341667 0.00967824832 0.0264469106 0.0265433788 -0 0.0282320846 0.00935821328 -0 0.0104593411 0.0276523363 0.00296426704 -0.0127676073 0.0109268827 0.00977300107 0.0199216474 0.0161197558 0.00972632878 -0.00762990071 -0.0102657015 0.0097492449 0.0156620275 0.0188104548 0.0045396518 -0.00683860062 0.011161699 0.00454927376 0.00163604668 -0.000535451865 0.00516456971 0.0208693575 0.0162867084 0.00428018672 0.0132847307 -0.0278311782 0.0569751747 0.0104089016 -0.0286642257 0.0097186435 0.0247254204 -0.0184733439 0.0102191204 0.0267364662 -0.0267366134 0.0034616706 0.00881522056 -0.0266054198 0.00353133189 0.0188350976 -0.0189677421 0.00363884028 0.0124366181 -0.0273921862 -0 0.0210219137 -0.014048662 0.00974771753 0.0219548102 -0.0161105357 0.00442342414 0.0116272755 -0.011611904 0.00487343967 0.0175255351 0.0174931381 0.00337397261 0.0301776957 0.00458401814 0.0097067235 0.0299619883 -0.00527810818 0.00937864371 0.0160223935 -0.0218171589 0.00816746522 0.0283672847 -0.000272383506 0.00361190061 0.0285145584 -0.00891199149 -0 -0.00596096925 -0.00891281385 0.00463549513 -0.0158697665 0.0220875051 0.00860554352 -0.0108019365 0.0272960421 0.00269462285 -0.0172728766 0.0194106363 0.00337997591 -0.0264550392 0.0264485851 3.30107905e-05 -0.0263595637 0.0265490226 0.00970943086 -0.0160688162 -0.0164831225 0.00350534427 -0.0105187427 -0.0275592059 0.00295862369 -0.0269828625 -0.0139927948 0.00240955176 -0.0165137537 -0.0206913818 0.0073393723 -0.0264469106 -0.0265433788 -0 -0.0240625702 -0.0192697197 0.0102716712 -0.027215492 -0.0152863171 0.0579242073 -0.0264105517 -0.0262541957 0.00969158579 0.0248983223 -0.0177090783 0.0581180416 -0.0304692909 0.00206234655 -0</float_array>
          <technique_common>
            <accessor source="#positions_array" count="77" stride="3">
              <param name="X" type="float" />
              <param name="Y" type="float" />
              <param name="Z" type="float" />
            </accessor>
          </technique_common>
        </source>
        <source id="normals">
          <float_array id="normals_array" count="462">0.742003918 0.669702649 0.0304730274 0.999862492 0.00755565939 0.0147617627 0.883215547 0.31679526 0.345790535 -0.0756754726 -0.0465227515 0.996046603 -0.141779169 0.0458387807 0.988836408 0.0608822629 -0.00222853152 0.998142481 0.00723712426 0.45118764 0.892399728 -0.0906484574 0.139602706 0.986049652 0.0440562293 0.183333352 0.982063115 -0.0721981525 -0.130399644 0.988829315 -0.242353767 -0.0390681662 0.969401002 -0.204522043 -0.0701471716 0.976345301 -0.290480077 0.031607952 0.95635885 0.0878962874 -0.042405121 0.995226622 0.139921546 -0.281538516 0.949293435 0.108332351 -0.24114497 0.964423776 0.302200019 -0.468664169 0.830077767 -0.00264146831 -0.0689562559 0.997616172 0.0877983719 -0.0145323873 0.996032238 -0.0127970232 -0.0923819765 0.99564141 0.0715180412 -0.376843125 0.923511982 0.155619457 -0.0722566918 0.985170841 -0.30960983 0.950819016 0.00921807997 0.121137105 0.992494345 0.0167575832 -0.341870725 0.938500702 -0.0483822189 -0.591627538 0.806061089 0.0155688254 0.129605204 -0.0439575836 0.99059087 -0.0754480585 -0.159434304 0.984321237 0.00841013715 0.00963152759 0.999918222 -0.857096136 0.474048436 0.201653808 -0.972929895 0.215219349 0.084190391 -0.860176861 0.509857357 0.0118823024 0.229667902 0.0971978158 0.968403459 0.448685318 0.337190062 0.827637792 0.00856474414 0.0336359702 0.999397457 0.0240886994 0.0355556682 0.99907732 0.00197862694 -0.999967933 0.00775999017 -0.443665177 -0.896063924 0.0151858069 -0.278369993 -0.96028322 -0.0191378556 0.580448925 0.810475111 -0.0787979662 0.580447257 0.810476184 -0.078799367 0.677889466 0.0466573015 0.733681798 0.00823708531 0.0617661588 0.99805665 -0.183548987 -0.0190668423 -0.982825637 -0.272146523 -0.109484956 -0.956006944 -0.0829293951 -0.0686501712 -0.99418807 0.029999245 -0.00708406186 -0.999524832 -0.00117236364 -0.00174113316 -0.999997795 0.0444974676 0.0449502505 -0.997997701 0.011305471 0.0564931221 0.998338997 0.329294056 0.136111006 0.93436569 -0.0153909083 0.000147408209 0.999881566 -0.771441877 -0.630540073 0.0854202211 -0.835136414 -0.486329645 0.256964386 -0.737205088 -0.63797462 0.222524226 -0.859035134 -0.468850553 0.205518439 0.339028835 0.94064647 -0.0156110795 0.0549860708 0.00202482729 0.998485088 -0.732501984 -0.664518595 -0.147837281 0.437448591 -0.899232805 0.00436932407 0.228544503 -0.972571969 0.043257039 0.847812295 -0.469492137 0.246559322 0.61119771 -0.585891664 0.532135665 -0.147157907 0.210084975 -0.966544807 -0.473276943 0.416770935 -0.776086926 -0.526545882 0.641090453 -0.558348 -0.00814111531 0.00374508044 -0.999959826 0.373501778 0.885195017 -0.27735585 -0.28829971 -0.220955253 -0.931698501 0.060520526 0.00883600488 0.998127818 -0.0160320401 0.00567806978 -0.99985534 -0.0752797499 0.0347985812 -0.99655509 -0.82277143 0.449146897 0.348302007 -0.387045056 0.175515711 0.905201852 -0.70071727 0.644019425 0.306975931 -0.106674373 0.000725103135 0.994293749 0.0301053748 -0.00886720885 -0.999507427 -0.206871808 -0.00727481721 -0.978340983 -0.623442233 0.346477121 -0.700908959 0.487451166 -0.163705885 0.857666433 0.97759819 0.0951529518 -0.187743604 0.972711205 -0.23094362 -0.0223158654 0.988112271 -0.150655776 0.0306097623 -0.38938868 -0.89932996 -0.198952556 -0.0660541058 -0.987511158 -0.143033266 0.239132926 -0.208047792 -0.948436379 0.0516972132 -0.0123214712 -0.998586774 0.21380429 -0.0426605791 -0.975944579 0.276992708 0.184782684 0.942937136 0.0645717606 -0.130694151 -0.989317715 0.135167226 -0.142062694 -0.980585575 -0.00120086269 -0.00373807177 -0.999992311 0.174503297 -0.186899856 -0.966755927 0.18234989 -0.0690358728 -0.980807126 -0.93241781 -0.163605124 0.32222721 -0.521268308 0.845235109 -0.117715754 0.190538064 0.837714851 0.511790097 0.140058354 0.902735114 0.406759143 -0.0523883849 0.99857825 -0.00984740071 0.626239002 0.242566317 0.7409361 0.641825199 0.208831772 0.737868369 0.0685983598 0.0459592268 -0.99658519 0.0749486089 0.0970333666 -0.992455125 0.164211199 0.064368099 -0.984322846 0.767715394 0.638917685 0.0489612408 -0.0765745789 -0.983452141 -0.164189577 -0.145336211 -0.988381445 -0.044492133 -0.0103976754 -0.961619496 -0.274189383 0.894299269 -0.367221981 0.255688995 -0.982891202 -0.172839165 0.0636519119 -0.837971509 -0.390060157 0.38165009 -0.875390589 -0.483339876 0.00859193038 0.527965963 -0.289763123 0.798304021 0.178745687 -0.131380558 0.975084186 -0.6886639 0.00629091775 0.72505337 -0.999034941 -0.0436315536 0.00504988013 -0.450239569 0.772757411 -0.447359234 0.0288947541 0.0479405411 0.998432159 0.0136034796 -0.0340656675 0.999327004 0.0397394523 -0.0268245358 0.998849928 0.157862872 -0.287776828 0.944597185 0.837846935 -0.545875609 0.00568543281 0.985214531 0.16567333 -0.0436422639 -0.997560859 0.0697932988 0.00108447636 -0.0290215518 -0.00538762892 0.99956429 -0.0168100353 -0.00672262954 0.999836087 0.994625151 0.103320308 0.00676477188 0.989894032 0.140985399 -0.0152609767 0.970400393 -0.0727445185 -0.230285391 -0.72239238 -0.535416901 0.437581956 -0.596850276 -0.531661391 0.600920916 0.0794211775 0.994185746 -0.0727119297 0.145938799 0.988835394 0.0301067065 0.117881209 0.992934287 -0.0136227766 0.0458627157 0.991285384 -0.123490453 -0.492792994 -0.311616987 -0.812434554 -0.0152964154 0.16665937 0.985895872 0.106188856 0.00795395952 0.994314194 -0.437692463 0.0999175906 0.893555701 -0.767743707 0.558119357 -0.314757675 -0.893672824 0.441973358 -0.0775137618 -0.722325802 0.563616276 0.400727004 -0.892048359 0.346288532 -0.290403157 -0.527197242 0.564127982 0.63547045 0.733009458 -0.679572463 0.0296388138 -0.99930805 0.0367521755 -0.0057234359 -0.999534428 0.0289733522 0.00956149399 0.3651838 0.379036009 0.850277901 -0.0156444665 -0.0775341541 0.996866941 -0.186498657 -0.981997013 0.0300014317 0.546871364 -0.00689011859 -0.837188303 0.191073373 0.192933366 -0.962428033 0.0860636383 -0.00668859901 -0.9962672 0.0111383609 -0.251220196 -0.967865884</float_array>
          <technique_common>
            <accessor source="#normals_array" count="154" stride="3">
              <param name="X" type="float" />
              <param name="Y" type="float" />
              <param name="Z" type="float" />
            </accessor>
          </technique_common>
        </source>
        <vertices id="vertices">
          <input semantic="POSITION" source="#positions" />
        </vertices>
        <triangles material="qmat_c90f2351a1b48e4d" count="158">
          <input semantic="VERTEX" source="#vertices" offset="0" />
          <input semantic="NORMAL" source="#normals" offset="1" />
          <p>0 0 1 1 2 2 0 3 3 4 1 5 4 6 5 7 6 8 7 9 8 10 0 3 8 10 3 4 0 3 7 9 9 11 8 10 8 10 9 11 10 12 7 9 11 13 9 11 12 14 13 15 14 16 15 17 16 18 11 13 14 16 13 15 16 18 7 9 14 16 15 17 12 14 14 16 7 9 17 19 18 20 12 14 19 21 17 19 12 14 19 22 20 23 21 24 17 25 19 22 21 24 20 26 19 21 12 14 22 27 23 28 13 15 18 20 22 27 13 15 24 29 25 30 22 31 13 15 26 32 27 33 13 15 23 28 26 32 11 13 16 18 28 34 29 35 27 33 6 8 30 36 31 37 32 38 4 39 6 40 27 33 33 41 34 42 2 2 35 43 36 44 37 45 38 46 39 47 40 48 41 49 42 50 43 51 39 52 34 53 41 54 34 53 37 55 41 54 20 23 34 56 21 24 41 49 43 51 44 57 39 52 41 54 44 58 45 59 46 60 47 61 47 61 46 60 48 62 49 63 50 64 51 65 39 47 52 66 40 48 52 67 53 67 54 67 55 68 50 64 49 63 44 57 43 51 53 69 56 70 57 71 52 66 58 72 49 73 46 74 54 75 49 73 58 72 40 48 52 66 46 76 59 77 60 78 50 64 54 75 61 79 49 73 59 80 57 81 60 82 60 82 1 1 47 61 57 81 1 1 60 82 30 36 32 38 46 60 49 83 51 84 46 60 60 85 48 85 51 85 21 86 38 46 62 87 63 88 42 50 41 49 63 89 37 45 64 90 21 86 34 91 38 46 65 92 63 89 25 93 42 50 61 79 43 51 66 94 25 30 24 29 24 29 21 24 63 95 66 96 63 97 65 98 62 99 38 100 42 50 67 101 68 102 69 103 32 104 68 104 70 104 32 105 71 106 68 107 55 68 49 63 67 101 42 50 40 108 61 79 69 109 72 110 73 111 61 79 40 108 70 112 61 79 68 113 49 73 67 101 49 63 68 102 72 110 69 109 74 114 69 109 71 115 74 114 20 23 0 0 34 56 45 59 30 36 46 60 5 7 29 35 6 8 3 116 5 116 4 116 3 4 4 117 30 118 28 34 16 18 29 35 28 34 29 35 5 7 0 3 20 26 7 9 75 119 30 118 45 120 75 119 3 4 30 118 75 121 45 59 47 61 10 12 28 34 5 7 5 7 3 4 10 12 20 26 12 14 7 9 3 4 8 10 10 12 9 11 28 34 10 12 9 11 11 13 28 34 7 9 15 17 11 13 1 5 3 4 75 119 56 122 1 1 57 81 15 17 14 16 16 18 12 14 18 20 13 15 18 20 17 19 22 27 17 25 24 29 22 31 22 31 25 30 23 123 16 18 13 15 27 33 26 32 23 28 73 124 31 37 73 111 72 110 26 32 73 124 31 125 4 117 26 32 31 125 16 18 27 33 29 35 4 117 31 125 30 118 26 32 4 117 27 33 35 126 33 41 36 127 36 127 33 41 2 2 36 127 2 2 56 122 2 2 1 1 56 122 36 127 56 122 59 128 39 52 59 129 56 130 39 52 44 58 59 129 34 131 33 132 35 133 34 131 35 133 37 134 38 46 34 91 39 47 34 56 0 0 2 2 55 68 36 135 59 77 36 44 55 68 37 45 64 90 37 45 55 68 37 136 63 88 41 49 59 137 44 57 53 69 39 47 56 70 52 66 48 62 46 60 51 84 58 72 52 138 54 75 50 64 60 78 51 65 54 75 43 51 61 79 53 69 43 51 54 75 55 68 59 77 50 64 46 74 52 139 58 72 60 82 47 61 48 62 47 61 1 1 75 121 52 140 59 141 53 142 52 140 57 143 59 141 63 88 62 99 42 50 63 144 21 144 62 144 23 123 25 30 76 145 66 94 65 146 25 30 42 50 38 100 40 108 17 25 21 24 24 29 66 96 24 147 63 97 63 89 64 90 25 93 32 38 31 37 72 110 25 93 64 90 69 103 32 148 72 110 74 114 32 105 74 149 71 106 23 123 76 145 73 111 76 150 25 93 69 103 73 111 76 145 69 109 64 90 55 68 67 101 69 103 64 90 67 101 61 79 70 112 68 113 69 103 68 102 71 151 70 152 46 76 32 153 40 48 46 76 70 152</p>
        </triangles>
      </mesh>
    </geometry>
  </library_geometries>
  <library_visual_scenes>
    <visual_scene id="scene">
      <node id="base_link_stl">
        <instance_geometry url="#geometry">
          <bind_material>
            <technique_common>
              <instance_material symbol="qmat_c90f2351a1b48e4d" target="#qmat_c90f2351a1b48e4d" />
            </technique_common>
          </bind_material>
        </instance_geometry>
      </node>
    </visual_scene>
  </library_visual_scenes>
  <scene>
    <instance_visual_scene url="#scene" />
  </scene>
</COLLADA>