<?xml version='1.0' encoding='utf-8'?>
<COLLADA xmlns="http://www.collada.org/2005/11/COLLADASchema" version="1.4.1">
  <asset>
    <created>2026-09-14T00:00:00Z</created>
    <modified>2026-09-14T00:00:00Z</modified>
    <unit name="metre" meter="1" />
    <up_axis>Z_UP</up_axis>
  </asset>
  <library_effects>
    <effect id="qmat_d857164d36b11abb_effect">
      <profile_COMMON>
        <technique sid="common">
          <lambert>
            <emission>
              <color sid="emission">0 0 0 1</color>
            </emission>
            <diffuse>
              <color sid="diffuse">0.85 0.85 0.85 1</color>
            </diffuse>
            <reflectivity>
              <float sid="specular">0.5</float>
            </reflectivity>
          </lambert>
        </technique>
      </profile_COMMON>
    </effect>
  </library_effects>
  <library_materials>
    <material id="qmat_d857164d36b11abb" name="qmat_d857164d36b11abb">
      <instance_effect url="#qmat_d857164d36b11abb_effect" />
    </material>
  </library_materials>
  <library_geometries>
    <geometry id="geometry" name="FL_hip_dae">
      <mesh>
        <source id="positions">
          <float_array id="positions_array" count="600">0.0596326292 0.00329055917 0.00972125866 0.0590971857 -0.00577384094 0.0132753262 0.0596538186 0.00328049576 -0.00989069045 0.0497378595 0.0213844962 0.0186744314 0.0532336794 0.0209196284 -0.000238947279 0.00838179328 0.0213909708 0.0530255809 0.0510016344 0.00513325958 0.0167280566 0.0536637045 0.00549742999 -0.00191335217 0.0542942658 0.00330547336 0.02653265 0.0463847294 0.00549954083 0.0259822626 0.034071479 0.0207178518 0.0414247662 0.0449181013 0.01968785 0.0293620098 0.043559473 0.00332815549 0.0418407433 0.0318089537 0.00329475943 0.0516529307 0.0461361259 -0.00568606053 0.0391593911 0.0365437493 0.00538505847 0.0389632732 0.0224740002 0.00548576703 0.0489530452 0.0320939496 -0.00566383079 0.0514212735 0.0235901363 -0.00794145837 0.0474943928 0.0359038524 -0.00781719945 0.0391886234 0.0149136661 -0.00589907682 0.0590186343 0.0100960555 -0.00794031844 0.0524076857 0.0344580188 -0.0345025808 0.0403944366 0.0443988666 -0.00774720497 0.0289998129 0.0441920571 -0.0342998803 0.0289090835 0.0506855063 -0.0345174 0.0152045796 0.0215005185 -0.0343606696 0.0486180894 -0.0355017707 -0.0345946103 0.040238671 0.051207412 -0.00794487912 0.014294005 0.0528821535 -0.0339336805 -0.000332708441 -0.0109237563 0.0140981833 0.0528791584 0.00557750603 0.00541058648 0.0537658706 0.0156091722 0.00325843366 0.0586823486 0.021158345 0.019811755 0.0495996289 -0.0101730973 0.00338756805 0.0601242781 -0.0105841514 0.0142103396 0.0603219829 -0.0103009464 -0.00569031853 0.0596250407 -0.0102913659 0.00523974327 0.0530066565 -0.0134180561 -0.00565378042 0.0631209612 -0.0120716188 -0.0146127706 0.0627883822 -0.0103637483 -0.00768312672 0.0528922901 0.0072762752 -0.0343967117 0.0527975857 -0.00841420051 -0.0344485454 0.0527255982 0.0509170406 0.0211077202 -0.0159984212 0.0445926674 0.00532431947 -0.0297220089 0.0501553454 0.0054218322 -0.0183363874 0.0491231009 0.00336888619 -0.0354693867 0.0433246419 0.0212177765 -0.0306577906 0.0598521568 -0.00568668079 -0.00862922706 0.0367128402 0.00551566202 -0.0385250226 0.0335885324 0.00327930623 -0.0505337231 0.0337130837 -0.00566167291 -0.0503358617 0.0244473089 0.005387682 -0.0479240492 0.0171388481 0.003267986 -0.0583549663 0.0329303928 0.0210135002 -0.0421431512 0.0529543608 -0.00572774466 -0.0299950913 0.0509477444 -0.00779308798 -0.0146102682 0.0455646627 -0.00763448887 -0.0274765082 0.0204511303 -0.00797813665 -0.0492711551 0.0344527215 -0.0341483504 -0.0404130071 0.0217281822 -0.034456186 -0.0483661741 0.036699757 -0.00784772448 -0.037990585 0.0484287478 -0.0345832333 -0.0212743711 0.0198348369 0.0213087667 -0.0498449244 -0.0227228627 0.0213192534 -0.0485999994 -0.0085583264 -0.0343122184 -0.0526509248 0.00715787895 -0.034232378 -0.0528625064 0.00499773351 0.0200067293 -0.0537050627 0.00527975522 0.00549190585 -0.053665258 -0.0101897633 -0.0079225814 -0.0528802052 0.0140584083 -0.00579592446 -0.0592495278 -0.0110610109 0.0161121078 -0.0532228425 -0.00975636858 0.00321051152 -0.0602960922 -0.0101662818 0.00521934545 -0.0530984588 -0.0117939338 0.0145574529 -0.0627385005 -0.0230051018 0.0141881993 -0.049201645 -0.0109015517 -0.0139385313 -0.0520547926 -0.0331955366 -0.0148302447 -0.0521814711 -0.0119322529 -0.0146865919 -0.0624395981 -0.0104786279 -0.00573441805 -0.0595474727 -0.0399890319 0.0213638321 0.0511092506 -0.0272529889 0.0186692048 0.0563311018 -0.0382099077 0.0146462787 0.0510856509 -0.0252488144 0.0209394377 0.0476503707 -0.038010601 0.0141156409 0.0390502363 -0.0276959501 0.0141968392 0.0465846807 -0.036903996 0.0210611448 0.0391625911 -0.0454375967 0.0212871414 0.0291851498 -0.0455465205 0.0141200125 0.0298267324 -0.0515114516 0.0140446285 0.0188216791 -0.0425839089 0.0108756255 0.0543039739 -0.0428851247 -0.00726642739 0.0549941957 -0.0153747341 0.0153821344 0.0620472245 -0.0113001466 0.0212853737 0.0524150766 -0.0676387325 0.0258023795 0.0466670133 -0.0536826663 0.0241963752 0.0471647121 -0.0654553771 0.0256489422 0.0443734601 -0.0659368485 0.0397798121 0.0352491401 -0.0899982005 0.0391800627 0.0368393995 -0.0657318607 0.0477733947 0.0234138891 -0.0655315965 0.0523959137 0.0103134792 -0.0899768993 0.050998237 0.019704923 -0.0650722235 0.0142658157 0.047794912 -0.0650656596 0.0142485099 -0.0480393097 -0.0899927095 0.012786163 0.0520755127 -0.0682939813 0.0112649146 0.0519832969 -0.0675953925 -0.00202407525 0.0529665574 -0.0899920166 0.027891174 0.0457042791 -0.089964658 -0.00318531319 0.0535824895 -0.0899923816 -0.0195109248 0.0499302857 -0.0539855771 0.0211449154 -0.00773584843 -0.0545307472 0.0140472986 -0.000191631567 -0.0446224362 -0.0140373716 0.0302122179 -0.0516348258 -0.0343774632 0.0152372569 -0.0450081266 -0.0344060101 0.0292936526 -0.0538582392 -0.03454151 -0.00426817406 -0.0548268631 -0.0238540769 0.0474713817 -0.0263879132 -0.0183268953 0.0563332662 -0.04095852 -0.0211251881 0.049790211 -0.0440075584 -0.0143873626 0.0496114343 -0.0649462268 -0.0142456079 0.0481314026 -0.0351283401 -0.0140230153 0.0407122299 -0.0262659639 -0.0144155556 0.0545443036 -0.012036493 -0.0138326986 0.0517902784 -0.022829555 -0.0336008184 0.0485331491 -0.0267574098 -0.0142797632 0.0461361893 -0.0651949346 -0.0275450554 0.0431402177 -0.0655136704 -0.0183433965 -0.047788851 -0.0681929663 -0.0151130836 0.0508874878 -0.0688452944 -0.0269153714 0.0458522104 -0.0512425788 -0.0140825519 0.0172055755 -0.0536211282 -0.0141101135 0.00341074122 -0.052083645 -0.0140573895 -0.0140615404 -0.0580147281 -0.0311216395 0.0415988751 -0.0580149256 -0.0371938944 0.0374143831 -0.0693870261 -0.0409529358 0.0340785831 -0.0899999663 -0.0510963611 0.0171732809 -0.0899999663 -0.0382998288 0.0372080989 -0.0692277476 -0.0493110791 0.0201618411 -0.0575984009 -0.062322963 0.0106082316 -0.0682067201 -0.0619311929 0.0104996255 -0.0684031323 -0.0625532791 -0.010639919 -0.0686312765 -0.0533477776 0.00879381783 -0.0687171742 -0.0527531058 -0.00953333266 -0.0578065403 -0.0512552969 0.00964672957 -0.0579778738 -0.0483716428 0.0188903492 -0.0654596239 -0.051005289 -0.00659012748 -0.0577625558 -0.0514380075 -0.00983965397 -0.0579546615 -0.0419739932 0.0304699633 -0.0652600229 -0.0406704918 0.0310482047 -0.0652601048 -0.0483967774 0.0158893634 -0.0239450168 0.0144836437 -0.0554281622 -0.0340032801 0.0142263351 -0.0422497392 -0.0356967971 0.0210894477 -0.0404383093 -0.0263879076 0.0183268897 -0.0563332476 -0.0417163409 0.0145412581 -0.0501349941 -0.0137449075 0.00533716893 -0.0631209612 -0.042885121 0.00726642599 -0.0549941994 -0.0513819344 0.0213216133 0.0165426005 -0.0460025705 0.0206347853 -0.0287287235 -0.0410804115 0.0140470415 -0.0352694653 -0.0490247495 0.0140912468 -0.024082711 -0.0899911076 0.0311355311 -0.0436385386 -0.0705307722 0.0314610563 -0.043486394 -0.0899999663 0.0133564975 -0.0519987345 -0.0655685067 0.0504632518 -0.0164708756 -0.0701211467 0.053393852 -0.0052467538 -0.0659353659 0.0451434925 -0.0276159514 -0.0658480525 0.0370794982 -0.0372170024 -0.0899628624 0.0424151085 -0.032868471 -0.0653957501 0.0263344646 -0.0447197147 -0.0899999663 0.0509454235 -0.0174954552 -0.0682834759 0.0162215009 -0.0504299179 -0.0674646348 0.00302940561 -0.0531022176 -0.0533354878 0.0238858387 -0.0478143208 -0.040978767 0.0211265441 -0.0497772396 -0.0899983272 -0.0123608923 -0.0522205494 -0.0683170557 -0.0114623224 -0.0519932695 -0.0317610614 -0.0343227014 -0.0434883386 -0.0226549823 -0.0141613232 -0.0486498363 -0.0330226719 -0.0141180875 -0.0421232395 -0.064334549 -0.0141399736 -0.0459412448 -0.042582687 -0.0108757447 -0.0543042608 -0.027252987 -0.0186692048 -0.0563311018 -0.0393444262 -0.0212053023 -0.0514256619 -0.0553742275 -0.0244833194 -0.0467008874 -0.047066357 -0.0140245594 -0.0267590471 -0.0454228334 -0.034358643 -0.0287683643 -0.065410234 -0.0392948315 -0.0330317952 -0.0580635071 -0.0368492119 -0.035574615 -0.0576022193 -0.0386466421 -0.036198616 -0.0682569966 -0.0256314818 -0.0467475019 -0.0899982899 -0.0387576818 -0.037145555 -0.0899923295 -0.0270942803 -0.0462552495 -0.0580557548 -0.0471837558 -0.0217814296 -0.089988023 -0.0515297689 -0.0161322579 -0.0694182888 -0.0472240299 -0.0250603054 -0.0687064826 -0.0384000652 -0.0366200544 -0.0575574152 -0.0619936623 -0.0106230425 -0.0400693938 -0.014201927 -0.0351845995</float_array>
          <technique_common>
            <accessor source="#positions_array" count="200" stride="3">
              <param name="X" type="float" />
              <param name="Y" type="float" />
              <param name="Z" type="float" />
            </accessor>
          </technique_common>
        </source>
        <source id="normals">
          <float_array id="normals_array" count="1113">0.993002534 -0.0126202237 0.117416769 0.800598919 -0.57192868 0.178714737 0.81498456 0.561442256 -0.143467009 0.675526798 0.703188539 0.221786991 0.0127497269 0.999916911 0.00188772054 0.102875784 0.686082661 0.720213234 0.281354636 0.954843819 0.0954611972 0.27232796 0.960758626 0.0527287647 0.311169058 0.950336337 -0.00588974683 0.760890484 0.53237772 0.370971173 0.251636028 0.957205296 0.142959312 0.862212241 -0.020718677 0.506123245 0.955148399 0.027557306 0.294842541 0.492359072 0.642768025 0.586883068 0.752857685 0.41849947 0.50799948 0.586205065 0.574898779 0.5708372 0.530595779 -0.00939942338 0.847572863 0.638507903 -0.57048136 0.516583622 0.69317013 -0.0289207753 0.720193505 0.158687562 0.960060477 0.230439097 0.130643219 0.951882362 0.277222455 0.540034771 -0.00458367402 0.84163022 0.157857791 -0.958830357 0.236062035 0.131582871 -0.959928453 0.247433335 0.191314638 -0.958849311 0.209777802 0.0627644286 -0.962603986 0.26354152 0.0293018539 -0.960900009 0.275340945 0.675421298 -0.00327324402 0.73742485 0.456169605 0.00756541546 0.88986069 0.655971766 -0.00568555947 0.75476402 0.843349159 -0.00822480116 0.53730303 0.840331018 -0.00839701947 0.542008579 0.0891904086 -0.994322002 0.05804177 0.00537334289 -0.999956548 0.00761942472 0.0190958548 -0.999811888 0.00338833337 0.00162056519 -0.999856055 0.0168908555 -0.478831947 -0.68209964 0.552684426 0.956885636 -0.0106959157 0.290267885 0.97263211 0.0194640681 0.231533915 0.999648571 0.00293753855 -0.0263448134 0.48823002 -0.00149694935 0.872713685 0.262296051 -0.953479171 0.148587376 0.271723628 -0.958536088 0.0858771056 -0.13265951 0.0377489738 0.990442574 0.100737713 0.0179995019 0.994750202 0.1988758 0.566158533 0.799945593 0.365883082 0.454114884 0.812347949 0.342106253 0.0129043646 0.939572632 -0.34776929 0.260361016 0.900704563 -0.576021731 -0.0367964469 0.816605806 0.0106388405 -0.0550581813 0.998426497 0.0292379297 0.944921196 0.325989455 -0.0224776901 0.967434108 0.252122968 0.998307109 0.0507658385 -0.0283853821 0.998208284 0.0563511848 -0.0201181974 0.997457623 0.0712352693 0.00196304172 0.429672182 -0.0158361811 0.902846098 0.21887286 0.00701133953 0.975728214 0.409666479 0.0697190538 0.909567297 0.233048126 -0.0171984248 0.972313106 0.886308014 -0.0501951985 0.460367858 0.965208709 -0.134273514 0.224371955 -0.0017708292 -0.958131433 0.286323369 0.00355105638 -0.999987006 0.00366168353 -0.105251089 -0.678542435 0.726981699 0.0129147796 0.999909163 0.00385534181 0.830670118 0.0273050945 -0.556094944 0.952027977 0.0224214364 -0.305188447 0.941057324 0.00471356977 -0.338214278 0.307980955 0.94400835 -0.118304528 0.999525607 0.0131826177 -0.0278345216 0.664609253 0.555945635 -0.499218434 0.232068986 0.961929321 -0.144346565 -0.00518287672 0.999977589 -0.00423373235 0.251499712 -0.967501163 -0.0262562018 0.992406487 0.0046597044 -0.122913107 0.817546546 0.0328194015 -0.574926555 0.692733109 -0.00123117294 -0.721193016 0.206091091 0.953835547 -0.218458831 0.562853098 -0.0159873348 -0.826402307 0.469291836 -0.574326217 -0.670756757 0.131720155 0.955772817 -0.262960345 0.165717572 0.956182301 -0.241356686 0.240834415 0.561172783 -0.79188627 0.634281635 0.0129686678 -0.772993267 0.455662817 -0.0126871476 -0.890062034 0.736650407 -0.545604467 -0.399577141 0.975763381 0.0177887063 -0.218104035 0.261508733 -0.962721407 -0.0691425502 0.206577554 -0.969990075 -0.128238022 0.367860168 0.032243453 -0.929321945 0.670262933 -0.0123688588 -0.742020607 0.41999194 -0.0107593387 -0.907464027 0.211623356 -0.954249382 -0.211243093 0.00481050322 -0.999952197 -0.00851317495 0.00394731387 -0.999989986 -0.00210948894 0.00792740379 0.999524951 -0.0297821201 -0.291746974 0.717513919 -0.632501006 0.00312034716 -0.999992847 -0.00213481975 -0.00544287637 -0.999964833 -0.00638442207 0.0629910827 0.561200559 -0.825279355 0.372218281 0.00696607027 -0.928119063 0.121498406 -0.0116840536 -0.992522836 0.114702441 -0.957877219 -0.263276637 0.00670015858 -0.955888093 -0.293654591 0.167068467 -0.569920838 -0.804536104 -0.126466572 0.255430192 -0.958520532 0.0292484257 0.940799534 -0.337699205 0.498947144 0.243677497 -0.831668794 -0.0268964525 0.96244359 -0.270146132 -0.036413338 -0.0144011453 -0.999233067 0.497177273 0.153616145 -0.853941977 0.990003347 0.136699334 -0.0347370952 -0.438961536 0.0926185995 -0.893719494 -0.0112244207 0.999861896 0.0122555653 -0.203993186 0.968541622 -0.142526925 -0.0255623572 0.995878339 0.087022692 0.039484296 -0.996876061 0.0684042424 0.229424939 -0.78327471 0.577793121 0.112241141 -0.969228864 0.219082981 -0.0110188946 0.0364144742 -0.999276042 0.139231846 0.0162671711 -0.990126193 -0.176903352 -0.0285411272 -0.983814299 0.724582314 -0.326968223 -0.606689572 0.987619281 -0.130463809 -0.0871052667 0.45325911 -0.154771343 -0.877839386 0.00994292088 0.999949574 -0.00140138878 0.329874367 0.0906673372 -0.939660728 0.329417378 0.356021225 -0.874490201 0.216223955 0.735921681 -0.641612411 -0.441959977 0.0287530329 0.896573842 -0.685398936 0.0906509385 0.722503126 -0.502830684 0.046070978 0.863156319 0.0250237491 0.999037683 -0.0360207669 0.00516357925 0.999548852 -0.0295869671 -0.668728173 0.094616577 0.737462103 -0.833275199 0.0852016956 0.546253681 -0.826833189 0.0626021698 0.558952451 -0.94448024 0.109676756 0.309722662 -0.189852893 0.198733807 0.961488843 -0.182715356 -0.127493829 0.974864304 0.249970451 0.967548311 0.036945764 0.127711028 0.98397094 -0.124462999 0.0117361909 0.999809384 -0.0156017905 -0.0556190088 0.994330227 0.0906306207 -0.00956045836 0.999847889 0.0145881139 -0.037668936 0.997725844 0.0558941215 -0.00709776627 0.99993062 0.0094012795 0.136972249 0.576809764 0.805313051 -0.0153992753 0.505798757 0.862514019 0.798201561 0.54964757 0.24649924 0.645863056 0.563493133 0.515108168 0.0234388188 0.726591468 0.686669886 0.998518884 0.0434719585 0.0327143744 0.678476334 0.725131035 0.11770682 0.0469138399 0.885146558 0.462941259 -0.0099365022 0.943942189 0.32996124 0.00320210773 0.999898434 -0.0138886422 0.0124729546 0.999919772 -0.00220782589 0.00270412164 0.999915421 0.0127219614 0.00978641491 0.240850151 0.970512986 -0.0292289127 0.210830614 0.977085531 -0.0356721207 -0.0359032266 0.998718381 0.0112103857 0.515013039 0.85710901 -0.999998391 0.000736281741 0.00163328578 -0.999999881 0.000344602187 0.000268667034 -0.999993622 -0.0019372981 -0.002994054 -0.999994397 0.000513237435 0.00330131478 -0.999999344 0.000148272273 0.00110901019 -0.987465024 -0.0397116654 -0.152760684 -0.987821281 0.142434984 0.0626208484 -0.826950133 -0.0117714414 0.562152028 -0.963196695 -0.0012205008 0.268794864 -0.839581132 -0.00859709922 0.543166339 -0.0382444896 -0.999140263 0.0160015523 -0.032445129 -0.999398351 0.0122561632 0.00412000949 -0.999987304 -0.00289230607 -0.0443451852 -0.436969876 0.898382366 -0.26788488 -0.226599604 0.936424196 0.195685416 -0.980529249 -0.0164194368 0.126753971 -0.715346992 -0.687176943 0.259856045 0.118026048 -0.958407342 0.188887671 0.241168797 -0.951923847 -0.647911906 -0.00490197679 0.761699498 0.0110253906 -0.999650061 -0.0240464192 0.00808724575 -0.999925613 -0.00912982784 0.37220782 -0.335427731 -0.865418732 0.2035079 -0.846848488 -0.491357446 0.126192495 -0.96246177 -0.240297377 -0.401574373 -0.0141015537 0.91571784 -0.354857087 -0.515939474 0.77966845 -0.389231712 -0.0925194472 0.916481793 -0.00102315948 -0.999870062 -0.016088374 0.999640882 -0.0263662115 -0.00478726858 0.999921203 -0.0116450749 -0.00468350714 0.989215493 -0.146449134 0.00230442383 -0.0143229133 -0.288752437 0.957296669 0.0179646313 -0.534681261 0.844862819 0.00212075049 -0.999955416 -0.00919908378 0.0111334855 -0.999937952 -0.000338795042 0.00151946489 -0.999995351 -0.00264488067 0.00856271107 -0.999962926 -0.000888863346 0.112523265 0.575103581 -0.810305119 0.479615778 0.683465004 -0.550312936 0.200723961 0.528765678 -0.824691951 0.0285810884 -0.626951396 0.778533936 0.0350466073 -0.769382834 0.637825847 0.00531740021 -0.672687292 0.739907742 -0.94976294 -0.0253237393 0.311943918 -0.995838821 -0.020991059 -0.0886817053 -1 -0.00010247391 -5.07710283e-05 -1 2.34398576e-05 0.000111237088 0.0142603554 -0.0603666678 0.998074412 -0.00627140189 -0.386370599 0.922322273 -0.0404718183 -0.950312376 0.308655858 0.0671652108 -0.902348936 0.425740749 -0.0103642363 -0.999816537 0.0161078684 -0.0371930525 -0.998865485 0.0297399797 0.0253303703 -0.999677062 -0.00204430521 -0.999020398 -0.0433658101 0.00881344546 -0.999467194 -0.0324361362 0.00363189937 -0.999309063 -0.0367317721 0.00566817075 -0.0944728032 0.0843983069 0.991943479 -0.0498876311 0.138627678 0.989087224 -0.055137109 0.132293701 0.98967582 0.177706525 0.922372937 -0.342999369 0.477855027 0.852446556 -0.212107152 0.71194464 0.698439717 0.072915785 0.999813676 0.0191802848 0.00218363525 0.999817669 0.0189822 0.00207879115 0.999815822 0.0190736651 0.00212720199 0.161932945 0.801991761 -0.574966848 0.0980144143 0.774962127 -0.624361157 0.103221118 -0.843812644 0.526617169 0.0240788721 -0.980251551 0.196283311 0.133754954 -0.938344121 0.318778783 0.999994755 -7.1162227e-05 -0.00323754572 0.999993503 0.00157880224 -0.00323665235 -0.0149925351 -0.716939211 0.696974456 0.224831805 0.854585826 0.468117267 0.0115643833 0.999418676 0.0320708416 -0.650628507 0.0635116175 -0.756735623 -0.602816224 0.0612202063 -0.795527935 0.345691413 0.351873636 0.869874895 0.157451704 0.703268707 0.693269074 -0.266376585 0.229720354 -0.936094046 -0.0524993464 0.029118469 -0.998196363 -0.181510195 0.12820369 -0.974996328 0.00196019886 0.999985039 -0.0051119728 0.0115752164 0.999806106 -0.0159299225 -0.0155659029 0.999878228 0.00110622414 -0.840672851 0.0528381318 -0.538959444 -0.754728258 0.0460300185 -0.654420674 0.00213632337 0.999808311 0.0194622986 -0.91070652 0.0739049166 -0.406388581 -0.00297310576 0.563769937 -0.825926542 0.138500229 0.570670307 -0.809415281 0.00161951385 0.224710912 -0.974424124 0.723394752 0.650657058 -0.230966225 0.141987428 0.98731333 -0.0710770637 0.999676526 0.0208102893 -0.0146208676 0.693735123 0.529154062 -0.488597542 0.0372175239 0.843741 -0.535458684 0.0147352386 0.792683423 -0.609455347 0.610246837 0.401757658 -0.682780743 -0.0274066124 0.957694888 -0.286477536 0.999642432 0.023876192 0.0120383808 0.999727249 0.0223860852 -0.00665217359 -0.012845818 0.337292165 -0.941312373 -0.0666276291 0.0408939719 -0.99693954 0.191403165 -0.255095512 0.947782218 0.156404793 -0.20162046 0.966895401 0.139829159 -0.19286786 0.97121048 0.238832101 -0.0953498483 0.966368258 -0.999999344 0.000808530371 -0.000821370224 -1 -5.32247905e-05 -0.000114558941 -0.999999583 0.000796922774 -0.000458288472 -0.999999285 -7.41526383e-05 0.00121750671 -0.0433538221 -0.200277239 -0.978779554 0.0112633929 -0.185779437 -0.982526898 -0.000862951856 -0.999994218 -0.00328608276 -0.400235713 -0.0181094315 -0.916233301 -0.58055687 -0.0242890362 -0.813857377 0.0395600274 -0.99671185 0.0707143247 0.0093276538 -0.99876076 0.0488875732 0.0970048606 -0.848791182 0.519753337 -0.186677217 -0.19839415 -0.962180555 -0.282477409 -0.320488721 -0.904153466 -0.249332964 -0.331713617 -0.909834683 0.184077755 0.416410953 0.890346706 0.334164441 -0.213472232 0.918021619 -0.860455573 -0.0321715325 -0.508508801 -0.844962955 -0.0242420863 -0.534275115 -0.966708422 -0.0217879787 -0.254951268 0.203837976 0.0972892419 0.974158525 0.671780109 0.568811834 0.47451508 0.589167178 0.535420716 0.605150104 0.0168585256 -0.524360955 -0.851329207 0.0498232171 -0.724739432 -0.687219381 0.0136923548 -0.502519488 -0.864457488 0.00459358934 -0.734150767 -0.678970993 0.0144818751 -0.50549674 -0.862706959 -0.999996066 -0.00139573577 -0.00244073314 -0.99999994 -0.000229758123 -0.000175965295 0.102993198 -0.936196506 -0.336048335 0.0284790322 -0.975774288 -0.216918066 0.121514693 -0.904886723 -0.407938957 -0.0367358588 -0.960276365 -0.276622117 0.0535042547 -0.879631758 -0.472636461 0.0199569222 -0.712996483 -0.700883567 0.0515472069 -0.998552024 -0.0153877297 -0.0204952024 0.0913008973 -0.995612442 -0.0022646843 0.0739675909 -0.997258067 -0.0221497342 0.092871733 -0.995431662 0.969143331 0.197531417 0.147453383 0.959772646 0.168290019 0.224755183 0.257073879 0.873479068 0.413457721 0.999135852 0.037381161 0.0181706678 0.192449421 0.957425237 0.215174809 0.0301278327 -0.998001218 -0.0555512011 -0.184101894 0.0537306257 0.981437445 -0.033929415 0.100839436 0.994323969 0.13629584 -0.00686008763 0.990644455 -0.0805182308 -0.00316727208 0.99674809 0.281912893 -0.015909113 0.959308088 0.092860356 0.0047763749 0.995667696 -0.0479028784 0.0109557156 0.998791933 0.998183429 0.0387541801 -0.0461296588 -0.00111289683 -0.958875358 0.283825278 0.974499822 -0.224106088 0.0112511693 0.965518892 -0.259880185 -0.0153490631 0.913384199 -0.0370990932 -0.405404657 0.850307822 -0.0111904033 -0.526166677 0.190180674 -0.981698215 -0.00999387261 0.00428248104 -0.999990106 0.00120375818 0.681510925 0.0091721043 -0.731750488 0.992716312 0.080518268 -0.089616783 0.988051295 -0.128565848 -0.0850027502 -0.475169688 -0.0289192963 -0.87941879 -0.306981266 0.376522511 0.874067128 -0.243791208 0.337286562 0.909287393 0.234255329 -0.0195269398 -0.971978962 0.00247227587 0.999982238 -0.00542773819 -0.966603875 0.0921040699 0.239152357 -0.999996185 0.00269642379 0.000616244099 0.0584437512 0.998253047 -0.0086699836 0.141156182 -0.23686181 -0.961234331 0.12059316 -0.282024801 -0.951797903 -0.467516452 0.014608277 0.883863628 0.164461687 0.3134951 -0.935239613 -0.997367501 -0.0150820473 0.0709267631 -0.998824418 -0.0472846664 0.0106717199 -0.00284820888 0.194784537 0.980841935 0.139507145 0.969535887 0.201340377 0.0982858166 0.964126408 -0.246576831 0.999811888 0.0192657579 0.00222887425 0.12001539 -0.914611042 0.386112541 -0.0216891952 0.999740243 0.0070035574 0.232540146 0.966944158 0.104613855 -0.105126418 0.384480029 -0.917127907 0.00606041588 0.999978483 0.00250637461 -0.999915063 0.0102214701 -0.00808791909 0.416570187 -0.287431747 0.862468719 0.000689073117 -0.999993563 -0.00351849408 -0.625468969 0.0136532355 -0.780129611 -0.00230939547 -0.999997199 -0.000550027413 0.000321171421 -0.999983549 0.00572739029 -0.747579873 -0.0349728055 -0.663250506 0.962135196 -0.272507757 0.00594998524 -0.0410692729 0.110807531 -0.992992938 -0.999998987 -0.00136272341 -0.000340839266</float_array>
          <technique_common>
            <accessor source="#normals_array" count="371" stride="3">
              <param name="X" type="float" />
              <param name="Y" type="float" />
              <param name="Z" type="float" />
            </accessor>
          </technique_common>
        </source>
        <vertices id="vertices">
          <input semantic="POSITION" source="#positions" />
        </vertices>
        <triangles material="qmat_d857164d36b11abb" count="396">
          <input semantic="VERTEX" source="#vertices" offset="0" />
          <input semantic="NORMAL" source="#normals" offset="1" />
          <p>0 0 1 1 2 2 3 3 4 4 5 5 6 6 0 7 7 8 8 9 0 7 9 10 9 10 0 7 6 6 3 3 9 11 6 12 10 13 11 14 3 3 12 15 13 16 14 17 12 15 8 9 9 10 11 14 15 18 9 11 13 19 12 15 16 20 8 9 14 17 1 1 13 16 17 21 14 17 17 22 18 23 19 24 20 25 21 26 18 23 19 27 18 28 22 29 23 30 22 29 24 31 24 32 22 33 25 34 26 35 27 36 22 33 23 30 24 31 25 37 28 38 25 37 29 39 22 29 18 28 26 40 14 17 23 41 28 42 5 5 30 43 31 44 32 45 13 19 16 20 5 5 31 44 33 46 18 28 21 47 26 40 34 48 35 49 36 50 34 48 31 51 37 52 30 53 34 54 37 55 33 46 31 44 16 56 32 45 16 20 31 51 34 48 36 50 20 57 35 58 38 59 36 60 36 60 38 59 39 61 20 25 40 62 21 26 41 63 42 64 27 36 34 48 32 45 31 51 5 5 4 4 43 65 44 66 43 67 45 68 7 8 2 2 45 69 43 67 7 70 45 68 45 69 46 71 44 72 5 5 43 65 47 73 1 1 28 42 48 74 2 2 1 1 48 75 47 76 44 66 49 77 44 72 46 71 49 78 50 79 46 71 51 80 52 81 50 82 53 83 54 84 49 77 52 85 2 2 48 75 55 86 56 87 28 38 29 39 48 74 56 88 55 86 56 88 57 89 55 86 58 90 59 91 60 92 55 86 61 93 51 80 62 94 27 36 59 95 5 5 63 96 64 97 27 36 65 98 66 99 67 100 63 101 68 102 58 103 69 104 70 105 67 100 68 102 71 106 68 107 53 83 72 108 64 97 67 100 71 106 73 109 68 107 72 108 71 106 68 102 73 110 74 111 73 112 72 108 64 97 71 106 75 113 75 114 71 115 74 116 76 117 77 118 78 119 69 120 66 121 65 122 51 80 58 103 70 105 69 104 79 123 70 105 79 123 76 124 78 125 74 111 79 123 78 125 53 83 50 79 70 105 5 5 54 126 63 96 80 127 81 128 82 129 83 130 84 131 85 132 82 129 85 133 84 134 86 135 87 136 84 131 87 136 88 137 84 131 87 136 89 138 88 137 90 139 91 140 38 59 81 128 92 141 35 142 83 130 85 132 30 43 35 142 30 143 85 133 83 144 93 145 86 146 86 146 93 145 87 147 94 148 95 149 96 150 97 151 94 148 96 150 97 151 98 152 94 148 99 153 96 150 100 154 97 151 99 155 101 156 102 157 89 158 103 159 94 148 104 160 105 161 94 148 105 161 90 139 90 139 105 161 106 162 107 163 104 160 94 148 107 164 98 165 104 166 104 166 98 165 108 167 98 165 109 168 108 167 95 149 94 148 90 139 110 169 111 170 89 138 112 171 113 172 114 173 114 174 113 175 27 36 113 175 115 176 27 36 91 140 116 177 117 178 117 179 116 179 118 179 119 180 118 181 120 182 121 183 112 171 27 36 121 184 119 180 112 185 117 186 122 187 39 188 123 189 124 190 42 64 124 190 27 36 42 64 38 59 117 178 39 191 119 180 117 186 118 181 122 187 121 184 125 192 120 193 126 194 127 195 91 140 128 196 116 177 128 196 129 197 116 177 112 185 120 198 130 199 130 199 120 198 131 200 131 200 120 198 132 201 133 202 134 203 126 204 133 205 135 206 134 207 130 208 115 209 113 172 98 165 136 210 137 211 109 168 98 165 137 211 108 212 128 196 106 162 108 212 109 213 128 196 135 206 136 214 138 215 139 216 140 217 141 218 142 219 143 220 141 221 144 222 142 223 139 224 145 225 144 226 146 227 147 228 144 229 139 230 148 231 145 225 149 232 134 207 135 206 148 233 138 215 142 234 144 235 126 204 134 203 148 231 127 195 149 236 150 237 129 197 137 238 135 206 126 204 148 231 149 232 75 114 74 116 151 239 152 240 75 114 151 239 153 241 75 113 152 242 154 243 155 244 151 239 154 245 156 246 157 247 158 248 5 5 110 249 110 249 5 5 159 250 159 251 153 241 160 252 160 253 155 244 103 159 110 169 159 251 161 254 162 255 163 256 164 257 100 154 165 258 166 259 167 260 100 154 168 261 167 262 168 261 169 263 168 261 170 264 163 256 171 265 167 262 169 263 101 156 166 259 171 265 169 263 163 256 162 255 171 265 166 259 165 258 100 154 102 266 103 267 172 268 157 247 173 269 170 270 103 271 174 272 174 272 103 271 175 273 162 274 176 275 171 276 162 274 164 277 176 275 164 257 177 278 176 279 27 36 178 280 65 98 179 281 65 122 178 282 179 283 180 284 77 118 180 284 181 285 77 118 182 286 183 287 184 288 173 269 157 247 182 286 77 118 185 289 184 290 186 291 178 282 187 292 156 246 78 125 182 286 186 291 187 292 132 293 182 286 78 125 183 287 132 293 187 292 115 209 77 118 127 294 185 289 181 285 127 294 77 118 185 289 188 295 189 296 185 297 190 298 191 299 191 299 192 300 193 301 176 279 191 299 193 301 120 198 181 285 132 201 127 195 146 227 188 295 176 275 193 302 192 303 147 304 143 305 194 306 142 234 195 307 143 305 196 308 197 309 190 298 139 216 141 218 198 310 147 311 198 312 141 313 189 296 194 314 190 315 146 227 194 316 188 295 143 305 195 307 196 308 6 12 4 317 3 3 3 3 11 14 9 11 4 317 6 12 7 70 8 9 12 15 14 17 0 0 8 9 1 1 7 8 0 7 2 2 11 14 10 13 15 18 15 318 12 15 9 10 33 46 16 56 10 13 10 13 5 5 33 46 5 5 10 13 3 3 15 18 10 13 16 56 16 20 12 15 15 318 1 1 14 17 28 42 14 17 19 24 23 41 14 17 17 22 19 24 17 21 13 16 20 57 17 22 20 25 18 23 25 34 27 36 62 94 23 30 19 27 22 29 25 34 22 33 27 36 25 37 28 38 23 30 39 188 122 187 123 319 5 5 93 320 30 43 35 58 92 321 38 59 13 16 32 45 20 57 26 35 41 63 27 36 41 322 40 323 42 64 26 324 21 325 41 322 32 45 34 48 20 57 31 44 30 43 37 326 30 53 35 327 34 54 41 322 21 325 40 323 20 25 36 328 40 62 40 329 36 60 39 61 40 329 39 61 123 330 40 323 123 189 42 64 43 67 4 317 7 70 45 69 2 2 46 71 47 76 43 67 44 66 54 84 47 76 49 77 49 78 46 71 50 82 5 5 47 73 54 126 51 80 46 71 55 86 63 101 54 84 52 85 52 81 49 78 50 82 46 71 2 2 55 86 48 74 28 42 56 88 62 331 57 332 56 87 62 331 56 87 29 39 29 333 25 34 62 94 57 89 61 93 55 86 59 95 27 36 60 334 61 335 57 332 59 91 59 91 57 332 62 331 51 80 61 93 58 103 58 90 61 335 59 91 68 102 63 101 52 85 68 107 52 81 53 83 69 120 58 90 66 121 66 121 58 90 60 92 60 334 27 36 66 99 64 97 63 96 67 100 74 111 71 336 73 112 74 111 72 108 79 123 72 108 53 83 70 105 79 123 69 337 76 124 79 123 72 108 70 105 156 246 74 111 78 125 76 338 69 120 65 122 76 338 65 122 179 281 70 105 50 79 51 80 92 321 90 139 38 59 82 129 81 128 35 142 82 129 35 142 85 133 81 339 80 340 90 139 83 130 86 135 84 131 95 341 80 127 82 129 102 157 82 129 84 134 102 157 84 134 88 342 87 147 5 5 158 248 91 140 90 139 106 162 80 340 95 149 90 139 93 320 83 130 30 43 92 321 81 339 90 139 87 136 158 343 89 138 102 157 88 342 89 158 87 147 93 145 5 5 98 165 101 344 171 276 98 152 107 163 94 148 99 153 97 151 96 150 98 152 97 151 101 156 101 156 100 154 166 259 101 156 99 155 100 154 103 159 89 158 111 345 100 154 96 150 102 266 106 162 105 161 108 212 105 161 104 160 108 212 91 140 106 162 128 196 96 346 82 129 102 347 96 346 95 341 82 129 158 343 110 169 89 138 27 36 112 171 114 173 122 187 119 180 121 184 123 189 125 348 124 190 123 319 122 187 125 192 119 180 120 198 112 185 112 171 130 208 113 172 38 59 91 140 117 178 119 180 122 187 117 186 124 190 125 348 121 183 124 190 121 183 27 36 120 182 116 349 126 204 116 177 129 197 133 205 127 195 126 194 149 236 120 182 118 181 116 349 130 208 131 350 115 209 126 204 116 349 133 202 133 205 129 197 135 206 98 165 192 303 136 210 129 197 109 213 137 238 128 196 109 213 129 197 98 165 171 276 192 303 142 234 138 215 136 214 140 351 142 219 141 221 139 224 142 223 140 352 146 227 144 226 147 353 150 354 145 225 146 227 135 206 137 238 136 214 142 234 136 214 195 307 198 355 147 228 139 230 145 356 138 215 144 235 146 227 127 195 150 237 149 232 145 225 150 354 148 233 135 206 138 215 148 233 138 215 145 356 151 239 74 116 154 243 153 241 64 97 75 113 153 357 5 5 64 97 155 244 152 240 151 239 154 245 74 111 156 246 154 243 175 273 155 244 159 250 5 5 153 357 159 251 160 252 161 254 160 252 153 241 152 242 160 253 152 240 155 244 174 358 175 358 154 358 174 359 154 245 157 247 175 273 103 271 155 244 103 159 161 360 160 253 171 276 169 361 162 274 171 265 165 258 167 262 167 260 165 258 100 154 169 263 168 261 163 256 170 264 168 261 100 154 170 264 100 154 103 267 164 257 172 268 173 269 164 257 163 256 172 268 163 256 170 264 172 268 170 264 174 359 172 268 172 268 174 359 157 247 111 345 161 360 103 159 111 170 110 169 161 254 164 257 173 269 177 278 183 362 77 118 184 290 27 36 187 363 178 280 180 364 179 281 178 282 157 247 156 246 182 286 199 365 186 366 181 285 199 367 180 364 178 282 199 367 178 282 186 291 180 284 199 365 181 285 27 36 115 176 187 363 76 117 179 283 77 118 78 119 77 118 183 362 185 297 182 286 184 288 191 299 182 286 185 297 185 289 189 296 190 315 185 289 127 294 188 295 181 368 120 193 127 195 177 278 182 286 191 299 191 299 190 298 197 309 192 300 191 299 197 309 177 278 173 269 182 286 131 350 132 293 115 209 171 276 176 275 192 303 176 279 177 278 191 299 186 366 132 201 181 285 194 306 143 305 196 308 143 369 147 311 141 313 196 308 192 300 197 309 188 295 194 316 189 296 146 227 147 353 194 316 194 306 196 308 190 298 136 210 192 303 195 370 196 308 195 307 192 300</p>
        </triangles>
      </mesh>
    </geometry>
  </library_geometries>
  <library_visual_scenes>
    <visual_scene id="scene">
      <node id="FL_hip_dae">
        <instance_geometry url="#geometry">
          <bind_material>
            <technique_common>
              <instance_material symbol="qmat_d857164d36b11abb" target="#qmat_d857164d36b11abb" />
            </technique_common>
          </bind_material>
        </instance_geometry>
      </node>
    </visual_scene>
  </library_visual_scenes>
  <scene>
    <instance_visual_scene url="#scene" />
  </scene>
</COLLADA>