<?xml version='1.0' encoding='utf-8'?>
<COLLADA xmlns="http://www.collada.org/2005/11/COLLADASchema" version="1.4.1">
  <asset>
    <created>2026-09-14T00:00:00Z</created>
    <modified>2026-09-14T00:00:00Z</modified>
    <unit name="metre" meter="1" />
    <up_axis>Z_UP</up_axis>
  </asset>
  <library_effects>
    <effect id="qmat_76551a3993c45b27_effect">
      <profile_COMMON>
        <technique sid="common">
          <lambert>
            <emission>
              <color sid="emission">0 0 0 1</color>
            </emission>
            <diffuse>
              <color sid="diffuse">0.6500053 0.68 0.6500053 1</color>
            </diffuse>
            <reflectivity>
              <float sid="specular">0.5</float>
            </reflectivity>
          </lambert>
        </technique>
      </profile_COMMON>
    </effect>
    <effect id="qmat_d857164d36b11abb_effect">
      <profile_COMMON>
        <technique sid="common">
          <lambert>
            <emission>
              <color sid="emission">0 0 0 1</color>
            </emission>
            <diffuse>
              <color sid="diffuse">0.85 0.85 0.85 1</color>
            </diffuse>
            <reflectivity>
              <float sid="specular">0.5</float>
            </reflectivity>
          </lambert>
        </technique>
      </profile_COMMON>
    </effect>
  </library_effects>
  <library_materials>
    <material id="qmat_76551a3993c45b27" name="qmat_76551a3993c45b27">
      <instance_effect url="#qmat_76551a3993c45b27_effect" />
    </material>
    <material id="qmat_d857164d36b11abb" name="qmat_d857164d36b11abb">
      <instance_effect url="#qmat_d857164d36b11abb_effect" />
    </material>
  </library_materials>
  <library_geometries>
    <geometry id="geometry" name="FL_thigh_dae">
      <mesh>
        <source id="positions">
          <float_array id="positions_array" count="534">0.0597682856 0.0250659678 0.0103302766 0.0453196913 0.0289815143 0.00793444552 0.0529064052 0.0198397655 0.0366872884 0.037722826 0.0333993733 0.012705937 0.0173377823 0.0326938815 0.0336421803 0.0402857922 0.00596265495 0.055857338 0.0644099712 0.0043327976 0.0258442815 0.0546391606 -0.0144442134 0.0308496747 0.0617656447 0.00100396166 0.0375833325 0.0353686325 -0.0163358264 0.0511996374 0.0605661757 -0.0156223029 0.0198004991 0.0297321714 -0.00920016784 0.0549786948 0.0582747161 0.016801415 0.0100423116 0.0455070809 0.0111285746 0.0407059677 0.041317299 -0.0506345183 0.0446614623 0.0535508245 -0.0505753793 0.0291958544 0.00494577968 0.0198549833 0.0631722361 0.0384939015 0.0219938196 0.0541236922 0.017067248 0.0287384503 0.045963835 -0.0130466782 0.0128828231 0.0689939782 0.0129172467 -0.00181061891 0.0658756569 0.024237141 0.00313860923 0.066618748 0.00671274308 0.0177979339 0.0555236936 -0.00158338796 0.0251052789 0.000350521848 0.0351767316 0.0347315781 0.00366923423 -0.00938068703 0.0331310257 0.0393940844 -0.00720186997 -0.0164069626 0.0632884651 0.0625457093 0.0191882942 -0.0163096488 0.0632573962 -0.0110816108 -0.0108578932 0.0394819751 0.0302550327 -0.0182079263 0.0274601057 0.0235467218 -0.0526085123 0.0518715493 0.00706105819 -0.0375655517 0.056619972 0.0155242132 -0.0203553587 0.0492316782 0.0168178566 -0.0462719984 0.0311919078 0.0326575488 -0.0248272326 0.0698449612 0.00569418352 -0.00421543838 0.0540362671 -0.0153607642 -0.0333463214 0.0330242589 -0.0237380266 -0.052825626 0.0547323674 -0.0494520403 -0.0274709575 0.0606761463 -0.0500563011 0.00277912756 0.0310711879 0.0305033363 -0.0234014913 0.0254282057 0.0302087609 -0.0290866829 0.023909295 0.0300282575 -0.0326609462 0.0216346942 0.0323953405 -0.0308212936 0.0278171655 0.0291543528 -0.0315808915 0.0124081075 0.0307760928 -0.0448078625 -0.0226976927 0.0368311554 0.0137738949 0.0034825711 0.0357448533 -0.012036561 -0.0271026343 0.0354509763 0.0064210929 0.0253140051 0.0249064043 -0.0584215485 0.0151904486 0.0361811556 0.00627289433 -0.0169320889 0.0329933651 0.0324047841 -0.00202172133 0.0369778536 0.0106421076 -0.0176806245 -0.0504933521 0.0590820834 0.0201014187 -0.0497879386 0.0581580736 0.0336313657 -0.0760816634 0.043200843 0.00949074794 -0.0989781544 0.0557885803 0.0488642044 -0.0989947617 0.0255558118 0.0530313291 -0.0758116916 0.0277385637 0.02583603 -0.0756057128 0.057827346 -0.0206187069 -0.0761627331 0.0571128614 0.0576335602 -0.0758805498 -0.0250367057 -0.0569600947 -0.0989769772 0.00361814676 0.0532270297 -0.0989725441 -0.0133223869 0.0512058586 -0.0759938359 -0.0190541502 0.027788667 -0.0760531276 -0.0483266897 0.0340204798 -0.0989953205 -0.0432429276 -0.0162194595 0.00392017048 0.0669818595 -0.0521632805 0.0175718367 0.0430645645 -0.056359347 0.0194546375 0.0371142365 -0.0452824794 0.0152790919 0.037398763 -0.0326246694 0.0299317911 0.0327684209 -0.0576757044 0.025386285 0.0128528113 -0.06864696 0.00839618035 -0.0050576129 -0.0376927964 0.0318976529 0.000178405069 -0.0654805601 0.01702464 -0.00372864492 -0.0620097965 0.00315212412 0.0163176451 -0.0530240722 0.0182761364 0.00693596667 -0.0531474836 -0.0150860762 0.0362289362 -0.0453947261 -0.0502731912 0.0408180095 -0.0114256954 0.00791953783 0.0619814433 -0.0224254634 -0.0110312765 0.0585326403 -0.0635329932 -0.0149973752 -0.000979382778 -0.0609657913 -0.0225231107 -0.0175426789 -0.0609829947 -0.049477499 0.0074616489 -0.0462090075 -0.011347983 0.0415169001 -0.0490985215 0.00300879381 0.0481523834 -0.0397935919 0.00425995141 0.0585712045 -0.0209945459 0.0308921188 -0.0472573824 -0.0454408564 0.0288198721 -0.022481136 -0.0365688317 0.0230062045 -0.098581247 -0.0146046244 0.033728864 -0.0382976905 -0.0342256017 0.0323674455 -0.0166265406 -0.0513587743 -0.0170506444 -0.0974210873 -0.0226557124 -0.0276511088 -0.0591454729 -0.0605361462 -0.0049334215 -0.0762720704 -0.0606633537 -0.00960378721 -0.0286079571 -0.0650841072 -0.00798753183 -0.0318216868 -0.0661379546 -0.0026060713 -0.0289455745 -0.0682206303 -0.00211530738 -0.0298169889 -0.06500303 -0.00842342433 -0.00493223732 -0.0284926724 -0.075960055 0.0477733091 -0.0544342473 -0.0762797222 0.0083243968 -0.0357431769 -0.0989755541 0.0416631885 -0.0604989529 -0.0759522989 0.0180566888 -0.0339205116 -0.0508215278 -0.0508102663 -0.0558839403 -0.0516144894 -0.0241150726 -0.0478896685 -0.0758616924 -0.0329186879 0.0256719403 0.00633023819 -0.0727414787 -0.0050018467 0.0188108291 -0.135819018 0.0186612271 0.00629764143 -0.0872177482 -0.0358948708 0.0213056058 -0.140253425 0.00845864601 -0.00583694037 -0.0923021659 0.0150770722 -0.00550239719 -0.0838969126 -0.000232532606 0.0122892484 -0.132808864 0.0084698936 0.000123983235 -0.10879118 0.0342089161 -0.008318251 -0.057675682 0.0446533598 -0.00966880564 -0.0464049205 0.0102249775 -0.0206599813 -0.0768676326 0.00369676552 -0.00544019416 -0.121912859 -0.00546681974 0.0152802113 -0.120868213 0.00428073155 -0.000731759181 -0.114339888 0.00309654698 -0.00353931729 -0.108989626 0.00337080169 -0.00409143465 -0.106680125 0.00581273716 -0.00408923207 -0.109090202 0.00522342045 0.00667655189 -0.129375681 -0.0139328586 0.0213815756 -0.119491339 -0.0290971696 0.0206129067 -0.081302762 -0.027409615 0.0199439377 -0.0996432751 -0.0430141166 0.0183080137 -0.0967946574 -0.0526742376 0.0179036912 -0.126444861 -0.0553575531 0.0130837765 -0.0959021002 -0.0585793629 0.0141058145 -0.0922944695 -0.0455062725 0.018686723 -0.0847207382 -0.0588321276 -0.00584565196 -0.150238857 0.0122112818 0.015410101 -0.0752686635 -0.0312220715 0.0225238986 -0.108893678 -0.0303332228 -0.0201563947 -0.111406334 -0.0053792703 -0.0159767494 -0.122278437 -0.0270887036 0.0198905095 -0.103228487 -0.0590142682 0.00803100225 -0.152736828 -0.00536480639 -0.0988748968 -0.0546261184 0.0306274556 -0.0507002659 -0.0527369119 0.00392554002 -0.0506053604 -0.0605659969 0.0179519057 -0.0758171976 -0.0591831505 -0.0217676628 -0.0757895708 -0.0548056476 -0.0398952849 -0.0987945944 -0.0382626019 -0.00291964645 -0.0145657239 -0.234909728 0.00206552399 -0.00514264684 -0.197758257 0.000759136921 0.0110503118 -0.207845718 -0.000891540607 0.0166971106 -0.236040384 -0.0587266274 -0.00250377599 -0.250143945 -0.0487397239 -0.0165173486 -0.244558513 0.0086601926 -0.0162271392 -0.302103132 -0.00423924392 -0.0278963819 -0.249171197 0.00282781827 -0.0280533787 -0.296077341 -0.00247468171 0.0152847338 -0.255835146 -0.00540805375 -0.0158907846 -0.261511654 -0.0471261032 0.0174250361 -0.242971465 -0.0537989549 0.028453175 -0.275314003 -0.0525659695 -0.028504191 -0.277362376 -0.0527933575 -0.00561373448 -0.304503143 -0.0501363724 0.0154288597 -0.31767264 0.0251194779 0.0154346023 -0.351979882 0.00886298157 0.0225751922 -0.29856506 -0.045257397 0.0294928905 -0.316370636 -0.0541968048 0.00691891741 -0.30669409 -0.0489181839 -0.0169824567 -0.322136492 -0.0343817472 -0.0283927526 -0.334272116 -0.00916916132 -0.0161804575 -0.371475875 0.0245572254 -0.0216224194 -0.35724771 0.0200936627 0.0293787345 -0.353372842 0.00171527115 0.0172275472 -0.374430001 -0.00635829894 0.0292783529 -0.369093359 -0.00760274241 0.0297427904 -0.251955509 -0.00326520647 -0.0272181779 -0.370908409 -0.0344174616 0.017906161 -0.345939964 0.0134695033 0.0363076888 -0.00537349377</float_array>
          <technique_common>
            <accessor source="#positions_array" count="178" stride="3">
              <param name="X" type="float" />
              <param name="Y" type="float" />
              <param name="Z" type="float" />
            </accessor>
          </technique_common>
        </source>
        <source id="normals">
          <float_array id="normals_array" count="939">0.215832964 0.945535779 0.243676528 0.644665182 0.415495157 0.641693473 -0.561241508 -0.0894753486 -0.822801411 -0.950519323 -0.0347471349 -0.308716148 -0.807872295 0.35190323 -0.472764701 0.856300175 -0.0445399918 0.514554381 0.548533857 -0.21402885 0.80827117 0.94125402 -0.229798555 0.247454002 -0.483535796 0.382182866 -0.787482917 0.724836707 0.671169639 0.155380607 0.612981141 0.519792855 0.59503746 0.885660052 0.0580622032 0.460689723 0.703994811 -0.0513364971 0.708347261 0.876308918 -0.0546688996 0.478637606 -0.0570029765 -0.595294178 -0.801483274 -0.614497781 -0.652057886 -0.444086671 0.454497606 0.626977921 0.632716894 0.0865694731 0.914682448 0.394793332 -0.166215062 0.363913357 0.91648221 -0.209009305 -0.0137431193 -0.977817059 0.315405309 -0.0422928743 0.94801414 0.133948043 0.744752824 0.653759301 0.474009663 0.183001801 0.86129272 0.0121980896 0.999580026 0.0262856763 0.281175822 0.959539771 0.0149517441 -0.0939298496 0.931632936 0.351051658 -0.13944684 -0.958627224 -0.248170033 0.289925307 -0.844630659 -0.450047106 -0.394085348 -0.911132336 -0.120559789 -0.513064325 -0.852007687 -0.104153201 -0.064630881 -0.897906065 -0.43541652 -0.295414001 -0.919525206 -0.25923726 -0.127286956 -0.188160852 0.973854959 -0.796342015 -0.499785036 0.340667516 -0.989097238 0.11732538 0.0890024826 0.728864193 0.681296587 0.0677640736 0.422733188 0.893604279 -0.150890857 -0.339509159 -0.919309318 0.199007228 -0.532909095 -0.756976783 0.378145635 -0.308019727 0.884643793 -0.350041777 0.605501354 0.500923276 -0.618420482 0.202689692 0.946044922 -0.252815962 0.746095061 0.442579269 -0.497459322 0.263165087 0.945006847 -0.19418098 0.990338981 0.0630054399 -0.123527437 0.867535949 -0.138307378 -0.477757752 0.598704696 -0.132537276 -0.789928198 0.887679458 0.000452301872 -0.460461766 0.989829063 0.12186563 0.0733972192 0.99786818 -0.0579899624 0.0299376622 -0.646744788 0.445818454 0.618843317 0.527007818 0.775904775 -0.34674859 0.467684001 0.881093383 -0.0703290999 0.165436238 0.951821744 -0.258197933 -0.171013311 -0.960748374 0.218442112 -0.262675196 -0.929794073 0.257846296 -0.345836699 -0.87089622 0.349194378 -0.163282722 -0.971852243 0.169829309 -0.121338099 -0.983575106 0.133630201 0.135519162 0.954331994 0.266242296 -0.0772620812 0.984888852 -0.154998511 0.23221229 0.969284654 -0.0810232162 -0.211054057 0.975666642 -0.0594207831 0.448775291 0.849363565 -0.277816951 0.00535152247 -0.986314356 0.164788797 0.184906468 -0.947209418 -0.261923403 -0.0814983547 -0.979999483 -0.181546375 -0.23052296 -0.95743686 0.173706204 -0.181428894 0.940534353 -0.287190974 -0.00515630795 0.999848485 0.0166256651 0.211770788 -0.917633951 0.336304933 0.0971965268 -0.983606756 -0.151889905 -0.292148024 -0.0296862982 0.955912232 0.273418069 -0.00452066399 0.961884677 0.536464393 -0.0931562334 0.838765681 0.357651144 0.131223753 0.924589634 0.854425848 -0.204158887 0.477782011 0.878363729 -0.152554378 0.452994883 0.0175803676 -0.998968124 0.0418765172 0.0555492677 -0.996527016 0.062033765 0.0689497814 -0.995221853 0.0691335052 0.387320608 -0.00391867384 0.92193675 0.897159994 -0.0912722871 0.432172805 0.0113874841 -0.999190509 0.0385830626 0.917756379 -0.0479692444 -0.394236237 -0.000144884863 -1 -0.000136375078 -0.00113637082 -0.999998271 -0.00148561643 -9.54981442e-05 -1 0.000167394319 0.971697807 -0.0253117587 -0.234867394 0.932141066 0.0270028058 -0.361087024 0.475213081 -0.0109440051 -0.879802644 0.625050962 -0.0404214747 -0.779536664 0.244446263 -0.0416806638 -0.96876663 0.689508319 -0.500760853 -0.523275137 -0.742994666 0.476295322 0.470214486 -0.541333139 0.661361992 0.51919055 0.258152187 -0.889206886 -0.377714962 -0.647255361 0.756882131 0.0904986411 -0.977826059 0.193864167 0.0792012513 0.377673686 -0.922539473 -0.0792687982 0.865427256 -0.494549692 -0.0803511143 0.964179516 -0.022198651 -0.264320105 -0.542769074 0.836024582 0.0804029554 -0.872449577 0.438075364 0.216614321 -0.822217762 -0.139075905 0.551920176 -0.721467793 -0.0627463609 0.689599276 -0.247017682 0.355392039 0.901486993 -0.480261505 0.12065392 0.868787348 -0.185141817 -0.0709114075 0.980150044 -0.982837975 -0.165912643 0.0806382075 -0.965228319 -0.146022305 -0.216822118 -0.993114173 -0.0451669395 0.108093604 -0.667578697 0.14376694 0.730526984 0.71796298 0.142538384 -0.681330979 0.717128217 0.406110585 -0.566393256 0.367113292 0.372066945 -0.852522135 -0.565380812 -0.0110925809 0.82475543 -0.242648244 0.90389055 0.352283627 0.060973227 -0.993959308 0.0912533477 0.270173281 -0.95711118 0.104616307 0.225406393 -0.965670824 0.129119486 -0.348347992 0.931203246 -0.107304484 -0.0312913582 0.998892963 -0.0351236016 0.660488486 0.417262524 0.624217033 -0.296829015 0.95487839 -0.00999041088 -0.353617519 0.934008956 -0.0508130938 -0.792723179 -0.604326546 -0.0798711479 -0.547898173 -0.834394276 -0.059947852 -0.0761023164 -0.987916052 -0.135019496 -0.984932601 -0.154521838 -0.077658236 -0.999701738 -0.0130110206 -0.020668909 0.296236157 -0.625298738 -0.721973419 0.912944376 0.147451341 -0.380513757 0.816300511 0.00835979916 -0.577566981 0.672927499 0.697478235 0.246358782 0.899167001 0.407417029 0.159718886 0.0478371792 0.914869368 0.400905997 -0.985713661 -0.158662498 -0.0565224253 -0.99654299 -0.00452501653 -0.0829552934 0.995693386 0.0229327418 -0.089826569 -0.512868285 -0.750888646 0.41609177 -0.334623903 -0.83715564 0.432663053 -0.394445062 -0.355884016 0.84720701 -0.969086051 0.084687449 0.231733054 -0.995757937 0.0121592563 0.0912047178 -0.676193297 -0.00978251081 0.736659288 -0.957958579 -0.0585522577 0.280868262 -0.347123772 -0.0802250057 0.934381664 -0.0296351109 -0.999479353 0.01275652 -0.577558458 -0.0443854146 -0.815141797 -0.905483186 -0.0922515616 -0.414234012 -0.842376709 -0.122151732 -0.524862349 -0.855296791 -0.0813817158 0.511707366 -0.724654734 -0.346663505 0.595566869 0.456547529 0.882118165 -0.115895972 0.899050236 0.00312431157 -0.437834382 -0.0716794655 0.995510161 -0.0618185103 -0.792757571 0.434837997 0.427143216 -0.784146309 0.130052716 0.606795609 -0.623304188 -0.765082598 -0.161680073 -0.37758404 -0.873996079 -0.305877596 -0.351626515 -0.880301833 -0.318476707 -0.655894935 -0.658466756 0.369084507 0.726745367 -0.381500125 -0.571225703 0.8122527 -0.360033423 -0.458935112 -0.744545519 0.251681715 0.618310809 -0.691329837 0.264590651 0.672350228 -0.767756939 0.245181605 0.591975689 0.805245638 -0.383346617 -0.452354819 0.870132685 -0.256476581 -0.420819342 -0.808714092 0.232125327 0.540462196 -0.15390721 0.512691438 -0.844665647 0.665453196 -0.00313893077 -0.74643296 0.578658342 -0.715327144 -0.391741723 0.0924577266 -0.972836375 -0.212228417 0.918161869 -0.244730577 -0.311585754 0.929011047 -0.342602015 -0.139865279 0.0845683813 -0.996053278 -0.0269458927 0.686776221 0.686382294 0.239202306 0.748330474 0.650117338 0.131715283 0.807278275 0.562948465 -0.177174583 0.977274537 0.0386917703 -0.208416462 -0.540208697 0.791522503 0.285773814 0.201504558 0.957785666 0.205042809 0.913540006 0.406414479 0.0164904203 -0.21653077 -0.953554511 0.209399655 -0.263474703 0.96203351 -0.0712221861 -0.225858569 0.963463545 -0.143964782 -0.160520867 0.987028897 -0.00264891633 -0.110285535 0.993329167 -0.0336793773 -0.204018623 0.978872836 -0.0135773765 -0.545498908 0.835965276 -0.0599411987 0.0581976436 0.997611523 -0.0372059271 -0.649058521 0.76029104 -0.0260881763 -0.276165098 0.75427413 0.595653772 -0.172921717 0.548356652 0.818170547 0.0809624866 -0.93767643 0.337946713 0.450919211 -0.891590238 0.0416982062 0.209548965 -0.967788339 0.139552787 0.0821284428 -0.983683825 0.160065964 0.860227644 -0.317171574 0.399262577 0.90395391 -0.421462119 0.0723670721 0.739437103 0.387370676 0.550614893 -0.240500242 0.967972398 0.0720348135 0.283373684 -0.954922616 0.088442862 -0.942385972 -0.333338052 -0.0281856563 -0.900681853 -0.431476265 -0.0509938113 0.607035518 0.703281164 -0.370004773 0.104985707 0.989234865 -0.10194277 0.471678466 0.581924677 0.66248256 0.472287923 0.575346708 0.667772591 -0.0278480407 -0.997255564 -0.068599388 0.452187091 -0.884542465 -0.114505485 0.121643126 0.990948856 -0.0567747317 0.348297775 0.933557093 0.0846160203 -0.412426651 -0.903194368 -0.118929163 -0.181312814 -0.974236965 -0.134119406 -0.226983726 -0.935888827 -0.269426286 0.156572089 -0.973139882 0.168771982 -0.355291098 -0.93324858 -0.0530597195 0.470108002 0.75932616 0.449913651 0.61315918 -0.70769316 0.351007462 -0.944930196 0.32489565 -0.039366629 -0.00259957393 -0.999988377 -0.00405546743 -0.000536193489 -0.999999642 -0.000650221074 -0.015331124 -0.0831605271 -0.996418238 -0.33496815 -0.0200849213 -0.94201535 0.502776384 -0.00611261884 -0.864394903 0.0700536519 0.114618771 -0.990936458 0.290340275 -0.0547948554 -0.955353379 -0.342217863 -0.102342963 -0.934030414 0.0587916002 -0.995567381 -0.0734108537 -0.00280947424 -0.999812067 -0.0191825163 0.00148889574 -0.999732614 -0.0230752304 -0.718814492 -0.186356321 -0.669758976 0.709424317 -0.693134546 0.127599537 0.973565459 -0.227418721 -0.0212372411 0.972416282 0.233051449 -0.00967662595 0.805233836 0.578775227 0.128909692 -0.995864451 -0.0546543635 0.0725735873 -0.52131778 -0.83055824 0.195961237 0.916021347 -0.320783228 0.24083823 0.453341872 -0.810665965 0.370542705 0.541077018 -0.834689021 0.102615573 0.946201801 -0.275399625 0.169874012 0.789306402 -0.586031675 -0.183200255 0.482508421 0.816259503 -0.317657053 -0.547340512 0.813220918 0.197712198 -0.677205801 0.731906354 0.0755339488 -0.649502456 -0.75924772 0.0411031023 0.756581426 0.248408154 -0.604878426 0.298236072 -0.91628468 -0.267353117 -0.0145723876 -0.99937737 -0.0321330801 0.921708524 0.294988364 0.251863599 0.573816001 -0.818888307 0.0125359949 0.932296515 0.302990139 -0.197535381 -0.579025924 0.789117813 -0.204992652 -0.921998262 0.291239023 -0.255145043 -0.966064095 0.0129350536 -0.25797832 -0.979581594 -0.142443463 -0.141879201 0.170906886 0.97525847 -0.140220359 -0.816531062 -0.504242301 -0.281099021 -0.48036772 -0.796946108 -0.366229147 0.0822360516 0.996331751 -0.0236697737 0.0364201032 0.999264657 -0.0119889472 0.177602351 0.983073711 -0.0449836738 0.643434107 0.722915113 -0.251766264 0.49650225 0.490324944 -0.716286898 -0.243590742 0.674942493 -0.696502805 0.285795212 0.899239302 0.33119446 -0.711984634 -0.388528705 -0.584913075 -0.707653701 -0.408166558 -0.576737583 -0.685766101 0.514214039 -0.515081406 -0.618527889 -0.0677125379 -0.782839835 -0.152368367 -0.973584175 -0.17005223 -0.0371111743 -0.997161925 -0.0655044541 0.162037998 0.981797338 0.0990839154 -0.275763899 -0.913445771 -0.29928422 0.377044678 0.925076246 -0.045510605 -0.298520029 -0.888826907 0.347667217 -0.611426115 0.126314849 0.781154692 0.25694707 0.953584909 -0.157015935 -0.72383523 -0.352136642 -0.593348384 -0.338811159 -0.904126704 -0.260311216 0.136662021 0.990550876 0.0115105649 0.15471445 0.973255634 0.169814408 0.23938401 0.261644036 0.935006797 0.0157503355 -0.99986124 -0.00542767579 0.0204987675 -0.999785125 0.00309225661 0.0168091338 -0.99985832 -0.000873384241 -0.000941734703 -0.999999344 -0.000677085889 0.0819047689 -0.99663949 -0.00114029297 -0.132162541 -0.964773595 -0.227475226 -8.37500411e-05 -1 8.45328905e-05 -0.0721752122 -0.997326553 -0.0114233075 -0.0938104913 -0.995276809 -0.0249744598 -0.727447808 0.237964049 0.643578112 0.717105985 -0.275325179 -0.640277326 0.639522374 -0.42121461 -0.643109143 -0.801917672 0.0307503156 0.596642673 -0.710841775 0.258493662 0.654129207 -0.671496332 -0.73012805 -0.126513839 0.519208014 0.578462303 0.629129887 -0.34696269 0.936971366 -0.0412502773 -0.175226569 0.967249632 -0.183640495 0.477049559 -0.870352626 0.122106746 0.714615107 -0.69906801 0.0250845756 -0.316508174 -0.948574007 0.00547640538 -0.00543936575 -0.999963641 -0.00657033361 -0.0938519016 0.994751036 -0.0407701209 0.406279862 0.171168491 -0.897573411 0.301356852 -0.953487098 0.00680836011 0.13027221 -0.991241395 -0.0216706786</float_array>
          <technique_common>
            <accessor source="#normals_array" count="313" stride="3">
              <param name="X" type="float" />
              <param name="Y" type="float" />
              <param name="Z" type="float" />
            </accessor>
          </technique_common>
        </source>
        <vertices id="vertices">
          <input semantic="POSITION" source="#positions" />
        </vertices>
        <triangles material="qmat_76551a3993c45b27" count="200">
          <input semantic="VERTEX" source="#vertices" offset="0" />
          <input semantic="NORMAL" source="#normals" offset="1" />
          <p>0 0 1 0 2 0 3 1 4 1 1 1 5 2 6 3 7 4 8 5 9 6 10 7 16 14 2 15 5 2 17 16 18 17 19 18 16 14 5 2 20 19 17 16 19 18 21 20 18 17 24 24 25 25 4 26 25 27 24 28 4 26 24 28 1 29 2 15 18 30 0 31 21 20 26 32 9 6 20 19 5 2 11 8 2 15 1 29 27 33 1 29 24 28 27 33 24 24 0 35 29 36 29 37 30 38 27 33 27 39 31 40 32 41 29 36 0 35 33 42 29 36 33 42 34 43 24 28 29 37 27 33 40 50 34 50 41 50 42 51 30 52 43 53 40 54 44 55 30 38 43 56 45 57 41 58 46 59 47 60 45 61 46 59 45 61 48 62 47 60 49 63 45 61 50 64 51 65 52 66 40 54 41 58 42 67 43 53 44 68 42 51 41 58 45 57 42 67 42 67 45 57 30 38 50 69 29 36 34 43 47 70 48 71 43 56 48 71 45 57 43 56 16 14 20 19 67 92 68 93 16 14 67 92 16 14 51 65 25 27 19 18 25 25 69 94 71 96 52 66 51 65 72 97 73 98 69 94 48 71 71 96 74 99 71 96 68 93 75 100 75 100 68 93 76 101 86 113 81 115 85 114 87 116 78 104 26 32 46 59 71 117 47 60 88 118 89 119 90 120 72 97 74 121 91 122 72 123 91 123 92 123 71 96 75 100 74 99 72 97 92 124 89 125 82 134 98 135 99 136 98 135 96 133 97 132 99 137 100 138 73 98 75 100 100 139 98 135 82 134 96 133 98 135 100 138 96 130 82 109 73 98 100 138 82 109 30 38 108 152 31 153 27 33 30 38 31 153 30 52 33 42 49 63 30 52 49 63 43 53 109 154 49 63 110 155 45 61 49 63 109 154 45 61 109 154 111 156 108 152 112 157 113 158 114 159 115 160 112 161 114 162 112 157 108 152 116 163 113 164 110 155 37 165 117 166 116 167 108 168 37 46 110 169 108 168 36 45 37 46 37 165 116 167 110 170 31 40 117 171 37 172 115 175 113 164 119 176 113 177 112 177 119 177 121 182 112 182 115 182 125 184 110 155 115 175 30 38 126 185 114 162 109 154 110 155 125 184 30 38 114 162 108 152 89 125 88 186 111 156 92 187 91 122 88 186 88 118 90 120 126 185 45 57 88 118 126 185 89 125 111 156 130 191 72 97 130 191 73 98 89 197 133 198 127 199 132 200 75 100 95 201 99 137 134 205 97 206 98 135 97 132 95 201 139 215 136 216 126 217 90 218 136 216 128 219 90 214 139 213 126 220 136 216 90 218 129 221 130 191 140 222 73 98 109 154 149 237 150 238 140 222 151 239 134 205 111 156 109 154 158 247 165 256 174 269 171 266 165 256 176 272 162 257 173 268 172 273 176 272 8 5 17 16 21 20 2 15 6 3 5 2 35 44 0 35 8 5 0 35 17 16 8 5 19 18 18 17 25 25 2 15 16 14 18 30 18 30 16 14 4 26 24 24 18 17 3 276 18 30 4 26 3 277 18 17 17 16 0 35 21 20 19 18 26 32 8 5 21 20 9 6 0 279 3 279 1 279 24 24 3 276 0 35 2 15 27 33 6 3 34 43 33 42 30 52 29 37 40 54 30 38 33 42 0 35 35 44 27 33 32 280 28 34 33 42 35 44 36 45 35 44 8 5 10 7 41 281 34 43 44 68 44 55 40 54 42 67 44 68 34 43 30 52 177 282 34 282 40 282 29 37 177 283 40 54 50 64 52 66 29 37 25 25 50 69 177 284 52 285 25 25 177 284 25 27 51 65 50 64 29 37 52 66 177 283 43 53 41 281 44 68 47 60 43 53 49 63 177 284 50 69 34 43 16 14 68 93 51 65 4 26 16 14 25 27 51 65 68 93 71 96 71 117 25 25 52 285 69 94 25 25 71 117 87 116 69 94 78 104 19 18 69 94 87 116 68 93 67 92 86 113 72 97 48 62 74 121 72 97 46 59 48 62 69 94 71 117 72 97 71 117 46 59 72 97 19 18 87 116 26 32 86 113 67 92 81 115 81 115 67 92 20 19 75 100 76 101 100 139 76 101 68 93 86 113 78 104 73 98 82 109 91 122 74 121 45 61 74 99 92 291 45 57 47 70 71 96 48 71 89 197 74 99 75 100 92 291 74 99 89 197 72 97 89 125 130 191 82 109 99 137 97 206 98 292 100 292 99 292 83 110 82 109 97 206 33 42 108 168 110 169 110 155 49 63 33 42 91 122 45 61 111 156 30 38 45 57 126 185 108 152 113 158 116 296 117 297 33 42 36 45 108 168 33 42 117 297 116 298 117 297 36 45 31 153 108 152 117 299 36 300 108 152 116 296 119 176 121 180 115 175 115 175 110 155 113 164 114 159 125 301 115 160 119 176 125 184 121 180 149 237 125 184 119 176 125 184 114 178 121 180 88 186 91 122 111 156 45 57 92 291 88 118 73 98 134 205 99 137 75 100 98 135 95 201 133 198 89 197 132 200 90 120 89 119 131 305 73 98 140 222 134 205 89 197 75 100 132 200 95 201 97 132 134 306 148 236 149 237 119 176 109 154 125 184 149 237 130 191 158 247 140 222 158 247 130 191 111 156 174 269 158 247 150 238 158 247 174 269 159 248 159 248 174 269 165 256 174 269 164 253 171 266 165 256 171 266 173 268</p>
        </triangles>
        <triangles material="qmat_d857164d36b11abb" count="195">
          <input semantic="VERTEX" source="#vertices" offset="0" />
          <input semantic="NORMAL" source="#normals" offset="1" />
          <p>5 2 7 4 11 8 12 9 13 10 7 11 10 7 14 12 15 13 22 21 11 22 13 10 22 21 12 9 23 23 27 33 28 34 6 3 35 44 10 7 36 45 28 34 7 4 6 3 37 46 36 45 38 47 12 9 7 11 28 48 36 45 39 49 38 47 12 9 32 41 23 23 26 32 53 72 54 73 10 7 15 13 39 49 55 74 56 75 57 76 58 77 55 74 57 76 59 78 55 79 58 80 15 13 59 81 58 82 59 78 60 83 55 79 39 49 61 84 38 47 56 85 62 86 63 87 58 77 63 88 64 89 65 90 64 89 66 91 64 89 63 88 66 91 22 21 23 23 70 95 77 102 76 103 70 95 70 95 23 23 77 102 78 104 79 105 26 32 80 106 81 107 20 108 82 109 83 110 84 111 82 109 84 111 78 104 79 105 78 104 84 111 70 95 76 103 85 112 80 106 70 95 85 112 69 94 73 98 78 104 86 113 85 114 76 101 83 126 93 127 94 128 95 129 96 130 76 103 95 129 83 126 96 130 83 131 97 132 96 133 60 140 101 141 56 142 102 143 62 144 103 145 101 141 102 143 103 145 79 105 104 146 60 147 60 140 104 148 101 141 83 110 105 149 106 150 106 150 107 151 104 146 94 128 118 173 37 174 114 178 120 179 121 180 120 179 112 181 121 180 122 183 123 183 124 183 112 181 118 173 119 176 127 188 128 189 129 190 23 23 127 192 77 102 131 193 129 194 90 195 131 196 127 196 132 196 132 200 95 201 131 202 127 188 129 190 132 203 132 200 129 204 133 198 95 129 93 127 83 126 135 207 120 208 127 192 129 209 120 179 136 210 118 173 137 211 138 212 139 213 127 192 120 208 90 214 127 192 139 213 128 189 139 213 129 190 95 129 134 205 93 127 62 86 141 223 66 224 65 90 66 91 141 225 94 226 142 227 143 228 37 46 142 227 94 226 142 227 61 84 144 229 37 46 38 47 142 227 105 149 145 230 107 151 94 226 143 228 105 149 65 231 145 232 144 233 145 230 141 225 146 234 138 212 137 211 147 235 148 236 138 212 147 235 147 235 137 211 152 240 153 241 154 242 155 243 147 244 154 242 153 241 156 245 147 235 157 246 149 237 148 236 150 238 150 238 147 235 156 245 158 247 159 248 151 239 140 222 158 247 151 239 151 239 160 249 152 240 156 245 157 246 161 250 156 245 162 251 163 252 164 253 150 254 156 245 164 253 156 245 163 255 165 256 162 257 166 258 162 257 161 259 166 258 157 246 167 260 161 250 151 239 161 259 160 249 160 249 167 261 168 262 169 263 153 264 170 265 171 266 172 267 173 268 175 270 167 261 169 271 176 272 165 256 173 268 162 251 176 274 172 275 22 21 13 10 12 9 10 7 9 6 14 12 7 11 13 10 11 22 22 21 80 106 11 22 9 6 26 32 54 73 11 278 80 278 20 278 28 48 32 41 12 9 36 45 10 7 39 49 135 207 23 23 32 41 127 192 23 23 135 207 14 12 9 6 54 73 39 49 15 13 58 82 15 13 14 12 59 81 14 12 54 73 59 81 55 74 60 286 56 75 61 84 142 227 38 47 63 87 62 86 66 224 61 287 58 288 64 289 57 290 56 85 63 87 61 287 64 289 65 231 39 49 58 82 61 84 63 88 58 77 57 76 22 21 70 95 80 106 80 106 85 112 81 107 76 103 96 130 100 138 79 105 84 111 104 146 53 72 79 105 60 147 26 32 79 105 53 72 54 73 53 72 60 147 54 73 60 147 59 81 56 85 103 293 62 86 56 142 101 141 103 145 101 141 104 148 102 294 84 111 106 150 104 146 106 150 105 149 107 151 83 110 106 150 84 111 83 110 94 226 105 149 62 144 102 143 107 151 102 294 104 148 107 295 107 151 146 234 62 144 135 207 32 41 31 40 135 207 31 40 37 172 135 207 37 172 118 173 112 181 135 207 118 173 120 179 135 207 112 181 119 176 118 173 138 212 114 178 126 302 120 179 77 102 133 303 131 193 77 102 131 193 76 103 131 304 89 304 127 304 76 103 131 193 95 129 133 303 77 102 127 192 131 193 133 303 129 194 137 211 94 128 93 127 118 173 94 128 137 211 129 190 139 213 120 208 90 218 128 219 127 307 128 219 136 216 139 215 126 302 136 210 120 179 145 230 65 90 141 225 143 228 142 227 144 229 61 287 65 231 144 233 105 149 143 228 145 230 143 228 144 229 145 230 107 151 145 230 146 234 141 223 62 86 146 308 148 236 119 176 138 212 134 205 152 240 93 127 152 240 137 211 93 127 157 246 147 309 153 264 154 242 147 235 152 240 150 238 148 236 147 235 109 154 150 238 158 247 154 242 152 240 160 249 134 205 151 239 152 240 157 246 153 264 169 263 155 243 154 242 160 249 162 251 156 245 161 250 174 269 150 238 164 253 159 248 166 258 151 239 159 248 165 256 166 258 167 260 157 246 169 263 161 259 167 261 160 249 166 258 161 259 151 239 169 310 170 310 175 310 170 311 153 241 155 243 170 311 155 243 175 312 155 243 168 262 175 312 155 243 160 249 168 262 163 252 162 251 172 275 171 266 164 253 163 255 172 267 171 266 163 255 168 262 167 261 175 270</p>
        </triangles>
      </mesh>
    </geometry>
  </library_geometries>
  <library_visual_scenes>
    <visual_scene id="scene">
      <node id="FL_thigh_dae">
        <instance_geometry url="#geometry">
          <bind_material>
            <technique_common>
              <instance_material symbol="qmat_76551a3993c45b27" target="#qmat_76551a3993c45b27" />
              <instance_material symbol="qmat_d857164d36b11abb" target="#qmat_d857164d36b11abb" />
            </technique_common>
          </bind_material>
        </instance_geometry>
      </node>
    </visual_scene>
  </library_visual_scenes>
  <scene>
    <instance_visual_scene url="#scene" />
  </scene>
</COLLADA>