<?xml version='1.0' encoding='utf-8'?>
<COLLADA xmlns="http://www.collada.org/2005/11/COLLADASchema" version="1.4.1">
  <asset>
    <created>2026-09-14T00:00:00Z</created>
    <modified>2026-09-14T00:00:00Z</modified>
    <unit name="metre" meter="1" />
    <up_axis>Z_UP</up_axis>
  </asset>
  <library_effects>
    <effect id="qmat_d857164d36b11abb_effect">
      <profile_COMMON>
        <technique sid="common">
          <lambert>
            <emission>
              <color sid="emission">0 0 0 1</color>
            </emission>
            <diffuse>
              <color sid="diffuse">0.85 0.85 0.85 1</color>
            </diffuse>
            <reflectivity>
              <float sid="specular">0.5</float>
            </reflectivity>
          </lambert>
        </technique>
      </profile_COMMON>
    </effect>
  </library_effects>
  <library_materials>
    <material id="qmat_d857164d36b11abb" name="qmat_d857164d36b11abb">
      <instance_effect url="#qmat_d857164d36b11abb_effect" />
    </material>
  </library_materials>
  <library_geometries>
    <geometry id="geometry" name="FR_hip_dae">
      <mesh>
        <source id="positions">
          <float_array id="positions_array" count="600">0.0479596667 0.0344685391 0.0227076449 0.0343344584 0.0340333879 0.0403882042 0.0448865294 0.00772312284 0.0282307807 0.0344732925 0.00788576715 0.0404223129 0.0211245269 0.0343834274 0.0487178266 0.0546349138 0.00552224414 0.0260134917 0.0508772805 0.00775717385 0.0146333929 0.0599049889 0.00561588164 0.000462989236 0.0596449785 -0.00337834982 0.0102207456 0.0286147371 0.00570739014 0.0531842187 0.032001745 -0.0033951127 0.0515466854 0.0329864137 -0.00214642589 0.0508448295 0.0169459488 -0.00338355429 0.0584108382 0.0448721834 -0.0033463412 0.0408170111 0.0540721118 -0.00341583905 0.0268796571 0.0458027497 -0.00555386487 0.0275173634 0.051058054 -0.00534362998 0.0160331149 0.0534885898 -0.00561064528 0.00205690227 0.0509188548 -0.021276705 0.0153196799 0.0443058126 -0.0211261287 0.029757265 0.0532985739 -0.0209926441 -0.000607434893 0.0369432867 -0.0021700873 0.0474374518 0.0443402342 0.00551167177 0.0410796888 0.0385642312 -0.00216066069 0.0460416116 0.0378127098 -0.00216516014 0.0466887653 0.0349746011 -0.0215140842 -0.0401481912 0.0214322694 -0.00550922612 0.0495306328 0.0352926143 -0.00549840182 0.0406610817 0.0209625736 -0.0214106329 0.0492560044 0.0340276696 -0.0209851712 0.0412662849 -0.0104469126 -0.00544929132 0.0531260371 -0.0116929719 -0.0143996608 0.0627900437 -0.0107077612 -0.0141311716 0.0530874878 0.00447247457 -0.00558124576 0.0537744947 -0.0105994791 -0.0214804336 0.0526756309 0.0066624796 -0.0213492066 0.0530518629 0.00628642924 0.0344070941 0.0528455898 -0.00858518016 0.0342488997 0.0527069569 -0.010836062 0.0138117624 0.0520378649 -0.00983538944 0.00770086702 0.0528858304 -0.0213067494 0.0142121632 0.0490699559 0.00844669621 0.0057398784 0.0599693917 -0.0104695708 0.00550654717 0.0595479012 -0.00954932068 -0.00350743276 0.0600195006 -0.0118624857 0.0146300336 0.0628935471 -0.0136221023 -0.00599313946 0.0631209612 -0.0240909699 0.0344537422 0.0476810075 0.0513172597 0.00787587557 -0.0133265741 0.0546717681 0.00549167162 -0.0259460751 0.0447552055 0.0077170385 -0.0284578092 0.0342433229 0.0342667624 -0.0405297205 0.0341763981 0.00775850471 -0.040744409 0.0214636866 0.0342681408 -0.0485086218 0.0214770269 0.00765587855 -0.0487301126 0.0451499596 0.00543759158 -0.0404022597 0.0228791814 0.00568321068 -0.0560165085 0.00716300355 -0.0214705411 -0.053348273 0.0210597552 -0.0198942199 -0.0495925099 0.0597087629 -0.00341194938 -0.00928541739 0.0498039126 -0.00333771063 -0.0344506763 0.0508777089 -0.00534920301 -0.0165638644 0.0508810654 -0.0214844383 -0.0159092024 0.0441233069 -0.00557312742 -0.0305326469 0.0441417135 -0.0210146718 -0.0301682316 0.0322630592 -0.00552579574 -0.0428180471 0.0198711753 -0.00555584161 -0.0500425138 0.0332558081 -0.00340664992 -0.0507540852 -0.00970239844 -0.00323913153 -0.0608606413 -0.0108433953 -0.0142813157 -0.0529444292 -0.0115535986 -0.0150569137 -0.0623671785 -0.0104685659 -0.00548616564 -0.0530954637 0.00539043685 -0.00567805162 -0.0537510812 0.0439835191 0.0344555192 -0.0290597714 0.00742731476 0.0344073586 -0.0527712367 0.016694 -0.00341584673 -0.0584570542 0.00851252116 0.00769517897 -0.0527896546 -0.00932272244 0.00545838941 -0.0614031702 -0.0191630628 -0.0213707294 -0.0504674129 -0.0081432946 0.0344584174 -0.0528267175 -0.0103828032 0.0075803767 -0.0528624281 -0.0116066206 0.0136518804 -0.0518922321 -0.0117048221 0.0145918587 -0.062885493 -0.0133160967 0.00501145469 -0.0631209612 -0.0228987504 0.0342700928 -0.0484737083 -0.0241932292 0.0139072239 -0.0479294397 -0.036313653 0.0147869838 0.0516435876 -0.0313119888 0.0139281359 0.043425668 -0.041716069 0.0343699269 0.0335572138 -0.0517049469 0.0343610011 0.0150962407 -0.056249328 0.0243744161 0.0468466729 -0.0320414081 0.0194934867 0.054026857 -0.0429088585 0.0106912469 0.0542428382 -0.0655120313 0.0179448314 0.0480841808 -0.0478042252 0.0138946306 0.0238563493 -0.038972646 0.0140656279 0.0368054807 -0.0642617419 0.0139811253 0.045854535 -0.0575276911 0.0622590072 0.0107365074 -0.0687367171 0.0532602407 0.00895078946 -0.0576544851 0.0509646386 0.00982277468 -0.0581340529 0.0492453575 0.0164051503 -0.0651992783 0.0507733189 0.00779330498 -0.0683394372 0.0618664771 0.0103977965 -0.0684346184 0.0623446517 -0.0105011398 -0.0686220303 0.0526135899 -0.00935950968 -0.058150176 0.0368233249 0.0368318707 -0.0654294342 0.0385023057 0.0334934406 -0.0579454601 0.0459038541 0.0249357261 -0.0688691139 0.0383508094 0.0366861001 -0.0690757409 0.0483555757 0.022153737 -0.0899969786 0.0426826887 0.0325757712 -0.0654652044 0.0485955812 -0.0151805505 -0.0899999663 0.0512545444 0.0150639089 -0.0686200932 0.0251273625 0.0465580672 -0.0899993852 0.0322801545 0.0429843925 -0.0692661703 0.0167622864 0.0507514775 -0.089993909 0.0191779435 0.050111033 -0.0899628177 0.00321392249 0.0535743535 -0.05361614 0.014084165 -0.0076816408 -0.0524615049 0.0139170894 0.0126384841 -0.0899993032 -0.043612808 -0.0309034549 -0.0492086075 -0.0212673265 0.0229231324 -0.0539724566 -0.0212409422 0.000472992222 -0.0289569087 -0.0189496949 0.0553986952 -0.0462940186 -0.0141683668 0.0287433285 -0.0524282977 -0.0141572943 0.0150972931 -0.023415843 -0.015315474 0.0492992662 -0.036648117 -0.0211868938 0.0395568423 -0.0395304263 -0.0145536028 0.05056604 -0.0437826291 -0.0217973012 0.0490458831 -0.0343664773 -0.0143182045 0.0419545099 -0.0404444598 -0.00414762553 0.0560452007 -0.0538197048 -0.024256926 0.0477984585 -0.0649122298 -0.0145220226 0.0480292551 -0.065492548 -0.0260733813 0.0456571542 -0.0682105869 0.000345271779 0.0528338328 -0.0684175417 -0.0126243178 0.051887922 -0.089991942 -0.0141129289 0.0518258698 -0.0899897739 -0.0273955781 0.0460327901 -0.0653284565 -0.0144531075 -0.0475992225 -0.0540939122 -0.0141915362 -0.0100856181 -0.0899782851 -0.0393082649 0.0364091955 -0.0657861531 -0.0374199376 0.0375771262 -0.0657872856 -0.0455988608 0.0273457672 -0.0899999663 -0.051293008 0.0156042948 -0.0657052249 -0.0522370189 0.0112715904 -0.0692680925 -0.0532714278 -0.00489177182 -0.055592142 0.0237726737 -0.0475274287 -0.0650070086 0.0141630145 -0.0484432466 -0.0425721109 0.0210768282 -0.0495276228 -0.0274260584 0.0182716791 -0.0557967424 -0.0414173491 0.00504181813 -0.0556931496 -0.0431105644 0.0140264574 -0.0487339422 -0.0461329669 0.013891262 -0.0279786829 -0.0365737528 0.0139348758 -0.0395965986 -0.0453521945 0.034302976 -0.0288232379 -0.0360278413 0.0336055569 -0.0397975519 -0.0219512489 0.0140794432 -0.0554829314 -0.0690555051 0.0468510538 -0.0256398339 -0.0580080152 0.042155806 -0.0303645488 -0.0689344257 0.0378568396 -0.0372904837 -0.0579626821 0.0367887206 -0.0373639539 -0.0577442013 0.0490699597 -0.017738292 -0.0899999663 0.0519222766 -0.0130131822 -0.0899846107 0.0393112749 -0.0364063978 -0.0652654171 0.0413357168 -0.029726116 -0.0579406507 0.0457566977 -0.0228241999 -0.0579340719 0.0509286523 -0.00982098188 -0.0577035844 0.0619183406 -0.0104995137 -0.0899944752 0.0266915932 -0.0465256236 -0.0578169078 0.0311654434 -0.0402118862 -0.0653396696 0.0299764015 -0.0409983583 -0.0683722571 0.0260237623 -0.0462265685 -0.0681441203 0.0122911157 -0.051878646 -0.0899999663 -0.00129205687 -0.0538096279 -0.0652921125 -0.0265079755 -0.0448950231 -0.0378346108 -0.0157157611 -0.0514716208 -0.0246585514 -0.0138510987 -0.0493198261 -0.0476763807 -0.0141592538 -0.0263683051 -0.0487894416 -0.0213854611 -0.0236294437 -0.0521353073 -0.0237127356 -0.047956612 -0.0382380597 -0.0208584443 -0.0515391603 -0.0420980193 -0.0108000683 -0.054464478 -0.0362227745 -0.0209151581 -0.0400456935 -0.033597514 -0.0142513784 -0.0425924473 -0.0263900124 -0.0185401998 -0.0566438772 -0.0680239871 -8.0247497e-05 -0.0527738482 -0.0414262973 -0.014276715 -0.0345869809 -0.0684239417 -0.0160675552 -0.0506701693 -0.0899808109 -0.0307118725 -0.0441023856 -0.0696116239 -0.0306795724 -0.04382452 -0.0655564666 -0.050852824 -0.0147261247 -0.0899999663 -0.05069286 -0.0179169662 -0.0655620843 -0.0457129665 -0.0262659602 -0.0680412576 -0.0414913818 -0.0337745026 0.0528124645 0.0344448574 -0.000232647566 0.0146445213 0.00809840765 0.0507991761 -0.0173764788 -0.0146540664 0.0578831173 0.0506639481 0.0342873633 -0.0152430711 -0.0536806844 0.034408778 -0.000288023002 -0.051770065 0.0334606133 -0.0150686903</float_array>
          <technique_common>
            <accessor source="#positions_array" count="200" stride="3">
              <param name="X" type="float" />
              <param name="Y" type="float" />
              <param name="Z" type="float" />
            </accessor>
          </technique_common>
        </source>
        <source id="normals">
          <float_array id="normals_array" count="1095">0.906863451 0.0295870397 0.420384765 0.666117013 0.0145248482 0.745705843 0.842037499 0.000971833942 0.539418161 0.635065615 -0.0114473533 0.772373378 0.00919713266 0.999876261 0.0127602993 0.0811541528 0.992899418 0.0869755372 0.00452592736 0.999978244 0.00480180932 0.255788326 0.949407876 0.182200387 0.74601239 0.571581185 0.341702312 0.302287847 0.95061326 0.0704025701 0.800459385 0.599365115 0.00512278546 0.838659942 -0.523148239 0.151543424 0.380593747 0.594559073 0.708271027 0.523498118 -0.00319947372 0.85202086 0.609524727 0.00861245207 0.792720258 0.227840781 -0.54164046 0.809144139 0.748725593 0.0213042349 0.662537634 0.894866347 -0.0131123001 0.446141511 0.220726341 -0.95598954 0.193297446 0.249896154 -0.95637536 0.151320979 0.2625916 -0.957074463 0.122695476 0.271483243 -0.958522558 0.0867831036 0.999593616 -0.00981037971 0.0267660171 0.953837216 -0.0220194999 0.299515754 0.957471132 -0.0273441225 0.287230462 0.828485727 0.00113312528 0.560009003 0.852490664 -0.0190759804 0.5223943 0.999759555 -0.0148628522 -0.0161235724 0.646906853 -0.00580202788 0.762546957 0.640336871 -0.00660289032 0.76806581 0.601331294 0.584694862 0.544548094 0.649119198 0.0627630726 0.758092999 0.652536452 0.000153675355 0.757757366 0.652536511 0.000154030393 0.757757306 -0.00686559035 -0.999955535 0.00646589557 0.481742233 -0.687266648 -0.543680906 0.000674472889 -0.999977708 0.00664160447 0.15780513 -0.955787361 0.248129234 0.120820373 -0.954474032 0.272730112 0.197316647 -0.95449084 0.223636806 0.401152432 -0.0242388304 0.915690541 0.395195782 -0.0225737914 0.918319523 0.671671987 -0.0307061393 0.740212083 0.0258728787 -0.999642134 0.00679512275 0.644178033 -0.00931337103 0.764818847 0.0130611537 -0.999900699 0.00528682256 0.991358936 -0.131017059 0.0064817979 0.442393571 -0.152922675 0.88368696 0.994510651 -0.0303249303 0.100144833 0.096686773 -0.0248429887 0.995004773 -0.125996158 -0.699940503 0.702999532 0.127009496 -0.0318306834 0.991390646 0.0281308182 -0.941040576 0.337122023 0.000594880548 0.999969184 0.00783123914 -0.156593725 0.0115501974 0.987595558 -0.439588159 0.019015383 0.897998154 -0.0280600674 -0.023213489 0.99933666 -0.381681979 0.00128154957 0.924292803 0.0937417299 0.5619874 0.821816683 -0.0251716599 0.609920442 0.792062819 -0.00528652966 -0.586784422 0.80972594 0.986234665 0.119244769 0.11455065 0.447832614 0.153942376 0.880765438 0.922523141 -0.0711528733 0.379326075 -0.0946433246 -0.0412012599 0.994658291 0.983263731 0.144143939 0.11142268 0.971832633 0.180213824 0.151869521 -0.00159420446 0.999993026 0.0033738811 0.324296147 0.943289578 -0.0709702075 0.775877714 0.536341369 -0.332192391 0.243392199 0.956886232 -0.158521309 0.654140234 0.00644867867 -0.756345809 0.845701754 0.0029940512 -0.533647478 0.651637793 0.00449790759 -0.758516908 0.413552374 0.00778488768 -0.910447061 0.416938633 0.00878643896 -0.908892155 0.200088724 0.947394669 -0.249815598 0.605686724 0.553461432 -0.571685195 0.309781104 0.586783409 -0.748144925 0.0879443884 -0.681378603 -0.726628542 0.368555993 -0.445505589 -0.815899074 0.834743977 -0.529654503 -0.150561139 0.68478632 -0.564795077 -0.460515112 0.303840578 -0.952690721 0.00782513432 0.954504192 -0.00766427023 -0.298098922 0.955968976 -0.00970053859 -0.293307334 0.294569552 -0.949516416 -0.107923068 0.255691677 -0.951111972 -0.173227444 0.820500016 -0.0146161811 -0.571459591 0.826834381 -0.0057885088 -0.562415659 0.620643437 -0.011068766 -0.784014821 0.372749865 0.00177644321 -0.927930176 0.198582307 -0.952814221 -0.22958675 0.120632119 -0.953102112 -0.27756843 0.48210144 -0.527019978 -0.699877262 0.709944367 -0.342588156 -0.615314901 0.994091332 -0.108270213 -0.0077417288 0.460462838 -0.176920652 -0.86986953 -0.0414863415 -0.0153876059 -0.999020576 0.0995631441 -0.0148704993 -0.994920135 -0.102261789 -0.109230354 -0.988742232 -0.02318771 -0.959718585 -0.28000465 0.0304492135 -0.938679874 -0.343442827 0.00636811648 0.999970376 -0.00431785826 0.0220801737 0.999136508 -0.0351947322 0.0199182313 0.999267042 -0.0326893479 0.145670906 0.00510982098 -0.989319921 0.208265707 -0.528950572 -0.822700858 0.048981823 0.946072161 -0.320231497 0.542344153 0.317137778 -0.778001606 -0.316608548 -0.136026487 -0.938752294 -0.14257063 0.000762610813 -0.98978436 -0.0847815648 0.00838787854 -0.996364236 -0.415969759 0.0284167994 -0.908934355 0.39664498 0.215095252 -0.892416298 0.973955154 0.224896595 0.0288605634 -0.0534193628 0.0213999134 -0.998342812 -0.414989978 0.000404976279 -0.909825921 -0.435278267 0.00753201917 -0.900264442 0.199014798 0.739320457 -0.643271565 0.0351114087 0.999213278 -0.0184393637 0.00974400155 0.997499287 -0.0700015724 -0.469224572 0.0282128863 0.882628083 -0.594626844 0.0427443348 0.80286473 -0.0077114976 0.999963462 0.00368823088 -0.000731963199 0.999999523 0.000671871239 -0.00320012891 0.999989152 -0.00338102155 0.200629458 -0.410839647 -0.889358521 0.385761023 0.113469392 -0.915594399 -0.270759344 0.356229514 0.894309759 -0.0177726652 0.509284854 0.860414505 -0.180267796 0.207899287 0.961395562 0.206755668 -0.0535283908 -0.976927221 -0.769038618 0.0252585616 0.638703048 -0.880715072 -0.000613339653 0.473646075 -0.727006555 0.0223786142 0.686265767 0.0887864009 0.873715997 -0.478264928 -0.000735503505 0.999973238 0.00728271063 0.000805691408 0.999994159 -0.00332914037 -0.0651557595 -0.115527876 0.991164982 -0.0605525672 -0.121185578 0.990781248 -0.094493106 -0.0792233571 0.992368221 0.207211003 -0.919806838 -0.33319515 0.685342848 -0.722029507 -0.0947551429 0.0631445125 -0.987905622 -0.141616777 -0.0369928256 0.9990502 0.0230275765 -0.0136515768 0.999845803 0.0110432822 0.0166889504 0.999850452 -0.00453886343 -0.999250233 0.0385334454 -0.00375348236 -0.999645054 0.0265762918 0.00185119663 -0.998842418 0.0474439561 -0.0079317363 0.196372345 -0.651896298 -0.732440531 0.724524558 -0.519521773 -0.452947378 0.308503628 -0.84575367 -0.435346156 0.0642256513 0.718533397 0.692520678 0.0835686997 0.864265859 0.496045202 0.0496740974 0.89370507 0.445896506 0.00958317611 0.808946669 0.5878039 0.999969304 0.00627161888 0.00469105551 -0.0435942076 0.965663016 0.256114185 0.021747591 0.526465297 0.849918425 0.0766673461 0.697249949 0.712716341 0.026759278 0.59441942 0.803709865 -0.0146919116 0.309907645 0.950653136 0.0129479412 0.358572483 0.933412075 0.0150708808 0.0546317212 0.99839282 -0.957747638 0.00643496169 0.287537903 -0.991355598 -0.00699886074 -0.131015733 -0.977451622 0.0108195227 0.210882053 -0.999998271 -0.00119331316 -0.00142184587 -1 -0.000120408426 4.19393364e-05 -0.999999762 -7.62402487e-05 0.000672337541 -0.99999994 -0.000116122668 -0.000238307301 -0.00559206679 -0.999983728 0.00111050578 -0.00229004002 -0.999995887 0.00170961779 -0.268326908 -0.222011387 0.937396169 -0.822466552 -0.0862884074 0.562230468 -0.965837657 -0.113865644 0.232792377 -0.904809356 -0.0729998648 0.419512928 -0.339023918 -0.735187232 0.58699441 -0.499833524 -0.680418849 0.535907269 0.295831978 -0.0087259002 -0.955200136 0.33125335 -0.284173697 -0.899731338 0.179082885 0.0956299305 -0.97917527 -0.415253252 -0.762866855 0.495579392 -0.190539643 -0.0832687393 0.978141606 -0.0999821424 -0.354444236 0.929716527 0.254119396 -0.952830732 -0.165942699 0.12454012 0.16775386 -0.977930665 0.108033299 0.146411777 -0.983306885 0.148130044 0.191789925 -0.97019285 -0.0404406041 0.0255629923 0.998854876 -0.0275281146 -0.256203383 0.96623081 -0.998635232 -0.0394976921 0.0341703594 0.0151332049 -0.259579808 0.965603054 0.0258558188 -0.515182734 0.856690288 -0.00711071072 -0.480266392 0.877093852 0.00919923279 -0.999893486 -0.0113310879 0.0124040022 -0.999324858 0.0345835947 0.0236018728 -0.999719322 -0.00205755467 0.0219765417 -0.999758422 0.000389563531 -0.999999702 -7.59865288e-05 0.000734299654 -0.999934733 0.000528939185 0.0114146685 -0.999999881 -0.00048785191 0.000226627366 -0.00355681917 -0.75081712 0.660500586 0.0319928154 -0.68888092 0.724168122 0.0111736609 -0.861331403 0.507920623 -0.0408295952 -0.96242702 0.26845327 0.667183161 -0.72918427 0.152173921 0.999308109 -0.0371616036 0.00151971879 0.999229431 -0.0337978415 0.019956179 0.997078359 -0.0597196631 0.0476263948 0.168575436 -0.983659267 -0.0632203221 0.198932022 -0.349249721 0.915669501 0.205985695 -0.250427842 0.945968151 0.212043449 0.044918716 0.976227343 -0.0451628715 0.431717098 -0.900877714 -0.265618235 0.223085582 -0.937912464 -0.184860572 0.101801887 -0.977477849 0.120963693 0.780365884 0.61351192 0.327772319 0.423805594 0.844366133 0.0126289055 0.999919474 0.0012532305 0.00500069605 0.999966741 0.00644503115 -0.614598989 0.680335343 -0.399264157 -0.664139152 0.00717540691 -0.747574568 -0.859680235 -0.00426641712 -0.510814667 -0.672940373 0.0129373996 -0.739583552 -0.0245461855 0.999421418 -0.0235432237 -0.201030016 0.951886594 -0.231298238 0.0125437314 0.999656439 0.0230137166 0.018034203 0.997601151 0.0668338537 0.127131507 0.961773574 0.242547333 0.214769185 0.896351695 0.387850225 0.0489936955 0.878496826 -0.475229323 0.104556784 0.818004668 -0.565629065 0.0450035967 0.705540597 -0.707239091 0.0570183322 0.698719144 -0.713120222 0.0283046383 0.951093554 -0.307603538 -0.999999344 -0.00116635463 -2.77346644e-05 -0.999999344 0.00101901521 -0.000534804654 -1 -6.7642155e-05 1.33769026e-05 -0.0445133299 0.970619619 -0.236465856 -0.0128882183 0.753161967 -0.657708824 0.140905753 -0.843715012 0.517967701 0.170539662 -0.822891772 0.542001188 0.23291336 -0.641459584 0.730945289 0.680862546 -0.651812613 0.334015816 0.213839337 -0.888094902 0.406890929 0.179723352 -0.938166022 0.29587844 0.0726034418 0.952266753 -0.296507716 0.999762833 -0.0180704053 -0.0121552404 0.999853253 -0.0139533812 -0.00993630476 0.99966073 -0.0218421128 -0.014188014 0.179682091 -0.976287782 0.120733008 -0.99999994 0.000288335199 -0.000133827474 0.447054774 -0.473746419 0.758753181 0.168980822 -0.577817976 0.798480988 0.0187178962 0.505529821 -0.862606108 -0.0201501418 0.999768317 0.00756487763 0.00872146338 0.999955058 0.00372403068 -0.00819956232 0.468889564 -0.883218706 -0.0362369902 0.246299505 -0.968516111 -0.0290365703 -0.031683445 -0.999076068 0.145910501 0.216960832 0.965214014 0.155103311 0.195491537 0.96836257 0.208981723 -0.528580368 0.822757185 0.0826302469 -0.980806887 0.176607341 -0.964908898 -0.194174156 -0.17676875 -0.853284359 -0.0646789595 -0.517418981 -0.894949853 -0.0884466544 -0.437312216 0.222640336 0.0301668923 0.97443378 0.318199098 -0.0374041572 0.947285712 -0.185115904 -0.210515454 -0.959903836 -0.241240829 -0.35523349 -0.903112411 -0.0846099705 -0.422776401 -0.902275622 -0.483090788 -0.223871112 -0.846466184 -0.00932779815 -0.996528447 0.0827284679 0.232805416 -0.827126563 0.51153028 -0.00626768032 -0.99997741 -0.00243471586 -0.00785981212 -0.999934375 -0.00833595823 -0.0824059248 -0.992388368 -0.0915127844 -0.598826706 -0.101078868 -0.794474423 -0.672944188 -0.0633050203 -0.736979425 -0.28431797 -0.322813481 -0.902748466 0.385333478 -0.115241177 0.915553153 -0.0347650498 -0.0283463392 -0.998993456 -0.773293495 -0.0862007737 -0.628161311 0.00323556317 -0.999965787 0.00761222281 0.00772096636 -0.99994266 0.0074204863 0.0109617431 -0.999513507 -0.0291997492 -1 4.87152329e-06 3.84139894e-05 -0.0373483784 -0.309009612 -0.95032531 -0.025419496 -0.541461229 -0.84034133 0.607355416 -0.401985675 -0.685220301 0.171886355 -0.567299008 -0.805373788 -0.999994159 -0.00164215802 -0.00300732697 0.697706163 -0.685265601 -0.20884724 -0.0187278986 -0.956108451 -0.29241398 0.700617969 -0.625294983 -0.343715906 0.00225843606 -0.812439382 -0.583041251 0.331806362 -0.715550244 -0.614729524 -1 9.73768911e-05 1.7337743e-06 -0.999999046 0.00135021447 0.000208813028 0.999678552 0.00036298504 0.0253512226 0.974245727 -0.0190628488 0.224681705 0.200269312 0.953098416 0.226926491 0.976959944 -0.0235702451 -0.21211715 0.406849355 -0.00550828269 0.913478673 0.160461292 -0.987021565 0.00637145806 0.0104757389 -0.999945045 0.000436132541 0.646780789 0.12765649 0.751916468 0.646781445 0.127666175 0.751914322 -0.0113104116 0.997079253 0.075531587 0.128866196 -0.00733448612 0.991634846 -0.0203947742 -0.961642683 0.27354601 -0.0434504412 -0.00313051022 0.999050677 -0.10731072 -0.0451341867 0.993200541 0.281016678 -0.0373767167 0.958974779 0.158807382 -0.978280425 -0.133220375 0.213256672 -0.950832367 -0.224587291 0.0762294605 -0.997086585 -0.00271459273 0.0852736235 0.955541909 0.282255262 0.00669342745 -0.999120891 0.0413838625 -0.0120936157 0.955219209 0.295651853 0.956382394 0.0112964446 -0.291899204 -0.0266622491 0.999622226 -0.00667232368 0.0262259524 0.999651849 -0.00290335319 0.836459816 0.0118059125 -0.547901094 0.113740154 0.964290977 -0.239177957 0.181683734 -0.976247549 -0.118032724 0.995421767 -0.0409394279 0.0863685086 0.00492883846 0.999941468 -0.00963003375 0.156606719 0.00709650666 -0.987635553 -0.00496448204 0.970338047 -0.241701171 0.980500221 0.196353719 0.00803053007 0.0391186848 0.997381628 -0.0608240664 0.417067915 0.0798682272 -0.905359268 0.0392554961 0.996673942 -0.0714145973 0.130761459 0.936171174 0.32632032 0.176103637 0.949206352 0.260758162 0.0206950177 0.979586661 0.199954256 -0.0249134433 -0.164637536 0.98603946 -0.999790609 0.0198403895 0.00500742253 0.00782481395 0.999967813 0.00176514918 0.987383485 0.1583184 -0.00302674784 0.952530682 0.3043634 -0.00694108848 0.999547243 0.0298136324 0.00406150753 -0.737098098 0.675537586 0.0183121189 0.00435428508 -0.999759018 -0.0215157717 0.008501756 -0.999894857 -0.0117472569 0.999962926 -0.00612901757 0.00604641391 0.998775542 -0.0492774025 -0.00438272208 -0.999999583 -0.000834437553 0.000365635875 -0.812076569 0.529718578 -0.244805679 0.214094952 0.973389983 0.0817023739 0.999994814 -0.00191454298 0.00259388797 0.0418763608 0.973520339 -0.224732071 -0.0609610602 -0.115144111 -0.991476476 -0.0311852489 -0.0880036205 -0.995631874 -0.0298673697 -0.0868001282 -0.995777905 0.983223438 -0.167857632 0.0713825077 0.0396927483 0.999078035 -0.0163561758 0.999911249 -0.0105695697 -0.00811250601 -0.00229501026 -0.0615771562 -0.998099685 0.999942243 0.0102208052 0.00331511907</float_array>
          <technique_common>
            <accessor source="#normals_array" count="365" stride="3">
              <param name="X" type="float" />
              <param name="Y" type="float" />
              <param name="Z" type="float" />
            </accessor>
          </technique_common>
        </source>
        <vertices id="vertices">
          <input semantic="POSITION" source="#positions" />
        </vertices>
        <triangles material="qmat_d857164d36b11abb" count="396">
          <input semantic="VERTEX" source="#vertices" offset="0" />
          <input semantic="NORMAL" source="#normals" offset="1" />
          <p>0 0 1 1 2 2 2 2 1 1 3 3 4 4 1 5 0 6 2 7 5 8 6 9 5 8 7 10 6 9 7 10 5 8 8 11 9 12 10 13 11 14 9 12 12 15 10 13 5 8 13 16 14 17 13 18 15 19 14 20 5 8 14 17 8 11 14 20 16 21 8 11 17 22 16 23 18 24 16 23 19 25 18 24 15 26 19 25 16 23 17 22 18 24 20 27 11 14 10 13 21 28 21 28 10 13 13 29 22 30 23 31 13 16 11 14 21 28 24 32 11 14 24 32 23 33 19 34 25 35 18 36 10 37 26 38 27 39 26 40 28 41 27 42 29 43 25 35 19 34 27 42 28 41 29 44 29 43 28 45 25 35 30 46 31 47 32 48 33 49 34 50 35 51 12 15 33 52 26 38 36 53 4 4 0 6 26 40 35 51 28 41 37 54 38 55 39 56 37 54 40 57 38 55 41 58 42 59 43 60 42 61 44 62 43 63 44 62 45 64 31 47 38 65 42 61 39 66 41 58 43 60 12 15 28 45 34 50 25 35 46 67 36 53 0 6 47 68 48 69 49 70 50 71 49 72 51 73 52 74 50 71 53 75 51 76 49 70 54 77 51 76 54 77 55 78 25 35 56 79 57 80 48 69 58 81 59 82 7 10 8 11 58 81 8 11 17 83 58 81 17 22 20 27 60 84 60 84 20 27 61 85 60 86 62 87 59 82 62 88 61 85 63 89 64 90 63 89 25 35 65 91 64 90 57 80 64 92 65 93 66 94 67 95 68 96 69 97 70 98 71 99 68 100 70 101 67 95 71 102 72 103 50 104 52 105 52 74 53 75 73 106 55 78 66 94 74 107 75 108 55 78 76 109 71 99 56 79 68 100 68 100 56 79 77 110 78 111 79 112 80 113 81 114 79 115 76 109 81 114 76 109 69 97 81 114 69 97 82 116 83 117 78 111 84 118 85 119 40 120 86 121 46 122 86 123 40 57 87 124 46 67 88 125 46 67 0 6 88 125 88 125 0 6 78 126 89 127 90 128 85 119 90 129 89 130 91 131 89 127 85 119 92 132 87 133 93 134 94 135 95 136 94 137 93 138 37 54 46 122 40 57 96 139 97 140 98 141 99 142 100 143 98 144 101 145 96 146 102 147 101 148 103 149 97 150 104 151 105 152 106 153 107 154 106 155 108 156 107 154 108 156 109 157 100 143 99 142 106 153 100 143 105 152 110 158 109 157 108 156 111 159 107 154 112 160 104 161 112 160 113 162 114 163 112 160 114 163 91 131 109 157 113 162 107 154 114 163 115 164 116 165 107 154 113 162 112 160 105 152 104 151 92 132 88 166 117 167 118 168 104 151 89 127 92 132 113 169 109 170 115 171 104 161 112 160 89 130 89 130 112 160 91 131 109 170 119 172 115 171 120 173 121 174 25 35 45 64 122 175 31 47 123 176 124 177 120 178 125 179 126 180 34 50 127 181 122 182 128 183 129 184 126 180 125 179 130 185 131 186 122 175 122 187 131 187 128 187 126 180 120 173 34 50 123 176 120 178 126 180 132 188 131 189 133 190 114 163 116 165 134 191 116 165 135 192 134 191 124 177 121 193 120 178 116 165 136 194 135 192 135 192 137 195 133 196 132 197 138 198 124 199 91 131 134 191 130 185 124 199 138 198 139 200 115 171 136 201 116 202 115 171 119 172 136 201 136 201 119 172 137 203 137 195 140 204 141 205 140 204 142 206 141 205 142 206 143 207 144 208 133 209 142 210 144 208 133 209 141 211 142 210 144 208 143 207 145 212 146 213 147 214 148 215 146 216 149 217 150 218 151 219 149 220 148 215 152 221 153 222 151 219 154 223 155 224 152 225 155 224 153 226 152 225 154 223 83 227 155 228 149 217 82 116 150 218 153 222 84 229 151 219 83 117 84 118 153 226 80 230 81 231 156 232 156 232 81 231 149 220 84 229 80 230 156 232 157 233 158 234 159 235 159 235 158 234 160 236 161 237 158 234 157 233 162 238 163 239 111 240 162 241 157 233 163 242 158 243 164 244 160 245 165 246 164 244 158 243 161 247 110 248 165 246 166 249 161 237 157 233 167 250 98 251 166 252 166 253 110 248 161 247 163 239 168 254 111 240 169 255 170 256 146 213 160 236 146 216 171 257 117 258 152 221 147 259 111 240 168 254 119 172 168 260 172 261 173 262 168 260 159 235 171 257 170 256 147 214 146 213 138 263 174 264 175 265 176 266 138 198 175 265 139 267 177 268 178 269 175 265 179 270 180 271 181 272 180 273 179 274 176 275 68 100 77 110 68 276 176 276 69 276 176 266 175 265 69 277 178 278 77 279 25 35 178 278 182 280 77 279 183 281 77 110 182 282 69 97 184 283 181 272 175 265 180 271 184 284 181 272 184 283 180 273 150 218 181 272 185 285 186 286 182 282 178 269 186 287 177 288 138 198 186 287 138 198 183 289 168 254 173 290 119 172 185 285 181 272 187 291 139 267 178 269 121 193 139 200 138 198 177 288 173 262 187 291 188 292 172 261 150 218 185 285 187 291 174 293 189 294 187 291 179 274 174 293 119 172 173 290 188 295 190 296 191 297 192 298 144 208 145 212 190 296 119 299 193 300 191 297 145 212 191 297 190 296 189 294 174 293 193 300 174 293 192 298 193 300 119 172 191 301 143 302 143 207 191 297 145 212 194 303 0 0 6 304 3 305 5 8 2 7 194 303 6 304 47 306 6 304 0 0 2 2 1 1 4 307 3 3 22 30 9 12 11 14 3 305 9 12 22 30 3 305 22 30 5 8 5 8 22 30 13 16 47 68 6 9 7 10 14 20 15 19 16 21 8 11 16 21 17 83 20 308 18 36 61 309 22 30 11 14 23 31 24 310 21 311 13 16 23 31 24 310 13 16 13 18 27 39 15 19 15 26 27 42 29 44 15 26 29 44 19 25 18 36 25 35 61 309 13 18 10 37 27 39 10 37 12 15 26 38 37 312 36 53 46 67 36 313 37 54 39 56 43 63 44 62 31 47 33 52 43 60 30 314 33 49 30 315 32 316 30 46 43 63 31 47 33 49 32 316 34 50 4 307 36 313 195 317 31 318 196 319 32 320 32 316 125 179 34 50 3 3 4 307 195 317 195 321 9 12 3 305 9 12 41 58 12 15 41 58 9 12 195 321 28 45 35 322 34 50 26 40 33 49 35 51 12 15 43 60 33 52 39 323 41 58 195 321 42 59 41 58 39 323 38 65 44 62 42 61 36 313 39 56 195 317 197 324 194 303 47 306 49 72 197 324 47 306 194 325 197 326 0 6 53 75 50 71 51 73 72 327 197 324 49 72 0 6 197 326 72 103 50 71 72 327 49 72 53 328 51 76 55 78 55 78 54 77 66 94 57 80 64 90 25 35 66 94 54 77 59 82 49 70 48 69 54 77 54 77 48 69 59 82 47 68 7 10 48 69 48 69 7 10 58 81 58 81 60 86 59 82 58 81 17 83 60 86 62 88 60 84 61 85 59 82 62 87 66 94 62 87 64 92 66 94 62 88 63 89 64 90 61 309 25 35 63 329 78 126 0 6 72 103 67 95 76 109 74 107 74 107 71 102 67 95 71 99 57 80 56 79 56 79 25 35 77 279 67 95 70 330 68 96 73 331 72 103 52 105 65 93 71 102 74 107 75 108 53 328 55 78 76 109 55 78 74 107 78 126 72 103 73 331 78 111 73 106 75 332 73 106 53 75 75 332 71 99 65 91 57 80 66 94 65 93 74 107 79 333 75 108 76 109 78 111 75 332 79 112 81 114 80 334 79 115 69 97 76 109 67 95 84 118 78 111 80 113 44 62 90 129 91 131 46 122 87 133 94 135 85 119 38 335 40 120 95 136 85 119 86 121 46 122 94 135 86 123 44 62 91 131 45 64 87 133 88 166 93 134 90 128 44 336 85 119 95 136 86 121 94 137 85 119 44 337 38 335 93 134 88 166 118 168 92 132 85 119 95 136 108 156 106 155 99 338 107 154 104 161 106 155 99 338 98 339 97 340 108 156 99 338 97 340 96 139 101 341 97 140 101 148 102 342 103 149 106 153 105 152 100 143 111 159 97 340 162 241 111 159 108 156 97 340 147 259 95 136 118 343 92 344 95 345 147 346 110 158 105 152 92 344 91 131 114 163 134 191 113 162 115 164 114 163 95 136 93 138 118 343 198 347 117 167 88 166 109 170 111 240 119 172 45 64 91 131 130 185 32 320 196 319 125 179 196 319 31 318 122 182 127 181 196 319 122 182 125 179 196 319 129 184 45 64 130 185 122 175 196 319 127 348 129 184 34 50 120 173 25 35 129 184 123 176 126 180 129 184 127 348 123 349 127 348 132 197 123 349 132 188 127 181 128 183 130 185 135 192 131 186 130 185 134 191 135 192 132 188 128 183 131 189 123 349 132 197 124 199 121 193 124 177 139 267 131 186 135 192 133 196 138 350 132 351 133 209 133 196 137 195 141 205 135 192 136 194 137 195 137 203 119 172 140 352 140 352 119 172 143 302 142 206 140 204 143 207 198 347 88 125 78 126 148 215 147 214 151 219 117 167 199 353 152 225 198 347 154 223 199 353 146 354 148 354 149 354 147 259 152 221 151 219 199 353 154 223 152 225 156 232 149 220 151 219 149 217 81 114 82 116 151 219 84 229 156 232 153 226 155 224 83 117 198 347 78 126 83 227 154 223 198 347 83 227 157 233 159 235 163 242 159 235 160 236 171 257 164 355 110 158 92 344 163 242 159 235 168 260 160 245 164 244 170 256 162 241 97 340 103 356 165 246 110 248 164 244 162 241 103 356 157 233 103 356 166 249 157 233 103 357 102 358 166 359 166 253 100 143 110 248 158 360 161 247 165 246 102 147 96 146 167 361 167 250 96 362 98 251 102 358 167 363 166 359 98 144 100 143 166 253 117 167 198 347 199 353 146 213 160 245 169 255 160 245 170 256 169 255 172 261 146 216 150 218 147 346 170 364 92 344 168 260 171 257 172 261 171 257 146 216 172 261 170 364 164 355 92 344 147 259 118 343 117 258 181 272 82 116 69 97 150 218 82 116 181 272 183 281 176 275 77 110 69 277 175 265 184 284 25 35 121 174 178 278 177 268 186 286 178 269 186 286 183 281 182 282 183 289 138 198 176 266 175 265 174 264 179 270 187 291 181 272 179 274 173 262 185 285 187 291 188 292 187 291 189 294 172 261 185 285 173 262 190 296 133 209 144 208 191 297 193 300 192 298 188 292 189 294 193 300 192 298 138 350 190 296 174 293 138 350 192 298 138 350 133 209 190 296 188 292 193 300 119 299</p>
        </triangles>
      </mesh>
    </geometry>
  </library_geometries>
  <library_visual_scenes>
    <visual_scene id="scene">
      <node id="FR_hip_dae">
        <instance_geometry url="#geometry">
          <bind_material>
            <technique_common>
              <instance_material symbol="qmat_d857164d36b11abb" target="#qmat_d857164d36b11abb" />
            </technique_common>
          </bind_material>
        </instance_geometry>
      </node>
    </visual_scene>
  </library_visual_scenes>
  <scene>
    <instance_visual_scene url="#scene" />
  </scene>
</COLLADA>