<?xml version='1.0' encoding='utf-8'?>
<COLLADA xmlns="http://www.collada.org/2005/11/COLLADASchema" version="1.4.1">
  <asset>
    <created>2026-09-14T00:00:00Z</created>
    <modified>2026-09-14T00:00:00Z</modified>
    <unit name="metre" meter="1" />
    <up_axis>Z_UP</up_axis>
  </asset>
  <library_effects>
    <effect id="qmat_76551a3993c45b27_effect">
      <profile_COMMON>
        <technique sid="common">
          <lambert>
            <emission>
              <color sid="emission">0 0 0 1</color>
            </emission>
            <diffuse>
              <color sid="diffuse">0.6500053 0.68 0.6500053 1</color>
            </diffuse>
            <reflectivity>
              <float sid="specular">0.5</float>
            </reflectivity>
          </lambert>
        </technique>
      </profile_COMMON>
    </effect>
    <effect id="qmat_d857164d36b11abb_effect">
      <profile_COMMON>
        <technique sid="common">
          <lambert>
            <emission>
              <color sid="emission">0 0 0 1</color>
            </emission>
            <diffuse>
              <color sid="diffuse">0.85 0.85 0.85 1</color>
            </diffuse>
            <reflectivity>
              <float sid="specular">0.5</float>
            </reflectivity>
          </lambert>
        </technique>
      </profile_COMMON>
    </effect>
  </library_effects>
  <library_materials>
    <material id="qmat_76551a3993c45b27" name="qmat_76551a3993c45b27">
      <instance_effect url="#qmat_76551a3993c45b27_effect" />
    </material>
    <material id="qmat_d857164d36b11abb" name="qmat_d857164d36b11abb">
      <instance_effect url="#qmat_d857164d36b11abb_effect" />
    </material>
  </library_materials>
  <library_geometries>
    <geometry id="geometry" name="FR_thigh_dae">
      <mesh>
        <source id="positions">
          <float_array id="positions_array" count="540">0.0575895049 0.0758060664 0.0124483947 0.0453348234 0.0758470744 0.0422088653 0.0508030355 0.0506279469 0.0346666425 0.0611329041 0.0499522574 0.00475833379 0.024887016 0.0496807992 0.0560159199 -0.0163876582 0.0495225489 0.0589469112 0.0293252654 0.0165791791 0.0564193428 0.00648912648 0.0758799314 0.0608827807 0.0218485408 0.0761862099 0.0525766127 0.0524464697 0.0989999771 0.0182168055 0.0538215563 0.0758611411 -0.0253235009 0.0548119359 0.0506515019 -0.0272641908 0.0590631776 0.00831048191 0.0301519409 0.0487395041 -0.0153057799 0.034109585 0.0587549731 -0.0165352263 0.0073734941 0.059582293 0.0145970257 0.0250189286 0.0500659011 -0.0049169776 0.0519412085 0.0349265821 0.0102680232 0.0529701896 0.0229341425 -0.00702597434 0.0649317056 0.0577769689 -0.0191255957 0.0304855909 0.0122402329 -0.01905098 0.0645451993 -0.00305860746 -0.0250131693 0.0022956219 0.0698449612 -0.00594259659 -5.71306591e-05 0.00106011285 0.00994376466 0.0634977967 0.0288546775 -0.00828383584 0.0543909296 -0.00538946362 -0.00776477065 0.0613791756 0.00216491986 -0.0212175064 0.066043593 0.0128086368 -0.0324039273 0.0389321446 0.0188906379 -0.0277250856 0.0462402441 0.00369640416 -0.00353994151 0.0689939782 -0.0135154957 -0.0292858705 0.0456494093 0.0217970144 -0.0356780924 0.0221473221 0.0306419972 -0.0342103504 0.00753178308 0.0480300002 -0.0291704834 0.0154421199 0.000400824385 -0.0186842605 0.0548689067 0.0626042932 0.0151061881 -0.0175872836 0.0433131307 0.0499553718 -0.0432327725 0.0428939052 0.00148875837 -0.0539970882 0.0481661521 0.0153500242 -0.0404473729 0.0466203839 -0.0282364059 -0.0157363825 0.0653313771 -0.0175356511 -0.012366008 0.0630963445 -0.0204323716 -0.0196506232 0.0575014129 -0.0107475203 -0.0260510631 0.0437842011 -0.0193640795 -0.0456836745 0.0631287992 0.011982956 -0.00438694144 0.0292073209 -0.0303113349 -0.0367181152 0.0175217409 -0.0169626549 -0.0663056821 0.0132057564 -0.0344723649 -0.0219473951 0.00242450857 -0.0348084122 -0.0241111536 0.00169580115 -0.0363410674 0.0201328937 0.0302522816 -0.0310505051 -0.0237340257 0.0155431814 -0.0357469209 -0.00750201661 0.0312256534 -0.0323126614 -0.0234379433 0.0224373564 -0.0358217992 -0.00138013763 -0.0347445644 0.0757525116 0.0512407683 -0.0536145456 0.0758601725 0.0225265957 -0.0593079515 0.0507277735 0.0169221852 -0.0425319187 0.0497359969 0.0441204868 -0.016023593 0.0149353594 0.0614367388 0.0428964049 0.0989760384 -0.038377706 -0.0510143228 0.0989999771 -0.0245923549 -0.027741598 0.0761053637 0.0471887775 -0.0473912098 0.0988752544 0.0291645303 -0.0182142444 0.0758544356 -0.0554885156 -0.0498151332 0.0760453716 -0.0229092818 -0.0572004057 0.0757837892 -0.0273736771 -0.0345154591 0.0509600677 -0.0499915145 -0.0548720844 0.0499130152 -0.0255331993 -0.0560341626 0.0263474919 -0.0291724652 -0.0427567773 0.0149450451 0.0461277775 -0.0173973441 -0.000897927966 0.066296421 -0.0446758419 0.0133788111 0.0435193256 -0.0364694819 -0.00708878413 0.049820587 -0.0365558751 -0.0039296234 0.0612319484 -0.04942986 -0.00407675281 0.0484857261 -0.0623533837 0.00855890196 0.0140335662 -0.052418083 -0.0136171235 0.0293549877 -0.0599215217 0.0141564002 0.0255062245 -0.0166658908 -0.0319182388 0.0339409597 -0.0555086955 -0.0175264962 0.039228119 -0.0126173533 -0.0361526348 0.0214637797 -0.0408624262 -0.0231032558 0.046664618 -0.0613563843 -0.0190239735 0.0283895507 -0.0420329198 -0.0284316223 0.0150410431 -0.0437340438 -0.0279156175 0.0152365575 -0.0651832893 -0.0159159824 -0.00245566922 -0.036894042 -0.0304960087 0.016535392 -0.0588352308 -0.0243906714 0.00573439384 -0.0345012359 -0.0311969817 0.0271361507 -0.0191652067 -0.0366821811 -0.00192946801 -0.0416748151 -0.030299088 0.00446120789 -0.0580660477 -0.0163051784 0.00337643339 0.00643539568 -0.0302541479 -0.0461360402 -0.0188787691 -0.0320740528 -0.0429182723 0.0145963486 -0.0311344657 -0.0472257584 -0.03406642 -0.0345009528 -0.00792084727 -0.0362042114 -0.0312775411 -0.0151521387 -0.00515274936 -0.0366133079 -0.00320268632 -0.0644954741 0.0111636231 -0.0255162008 -0.0677884445 0.00296452129 -0.0323127173 -0.0652393699 0.00764292432 -0.0234050117 -0.0683083683 -0.00720245391 -0.035620708 -0.061361637 0.00552473264 -0.0898819417 -0.0514463857 0.0174582116 -0.0944843441 -0.061363589 0.00933053158 -0.0338879973 -0.0598473027 0.00457343366 -0.0770359561 -0.0682296827 0.00596747221 -0.012656671 -0.0435339883 -0.0292640254 -0.0244038217 -0.0491399802 -0.0193842687 -0.094203122 0.00872880686 0.0504323579 -0.0615370944 0.0250618923 0.023486279 -0.0577026531 -0.0130595649 0.0278046299 -0.0613305122 0.0326743871 0.0761779025 -0.0446226336 0.0254240166 0.0757919401 -0.0561565161 -0.00858727377 0.098849304 -0.0554881878 0.0387423672 0.0168817509 -0.0480018966 0.0391722359 0.0124140009 -0.0490585677 0.0389312916 0.0124210957 -0.0498050191 0.0391519889 0.0111586582 -0.0495425016 0.0410495661 0.011908887 -0.0465018377 0.0313499719 0.00208542729 -0.0664107576 0.0235770606 -0.00687736087 -0.0755007938 0.00641673151 0.00594074233 -0.107661128 0.0044725677 -0.0114918184 -0.0940734893 0.0103852749 0.00716203684 -0.092904374 0.00893553253 0.0175704304 -0.0828080475 0.00267075142 0.00579146855 -0.112244263 -0.015090554 0.0196515583 -0.119135059 0.0133742793 0.0054159197 -0.0863760784 0.0221962966 0.00583386282 -0.0750100315 0.0210934561 -0.0166288074 -0.0808515549 0.0104218498 -0.0156104369 -0.0972736105 -0.00850529876 -0.0246985424 -0.101964399 -0.00573989516 -0.019528592 -0.124821186 -0.00363366073 -0.0176432803 -0.13772729 -0.0112660555 -0.0176640321 -0.12027283 0.00219628774 -0.00465394137 -0.128703609 0.00525062205 -0.00498490548 -0.127898917 0.00289900391 6.93940383e-05 -0.200545833 -0.0485975407 -0.0193941202 -0.137882933 -0.0282520764 -0.023576349 -0.100690737 -0.0588774197 -0.00978118926 -0.0972229242 -0.0594295673 -0.00973015092 -0.136420295 -0.0339370966 -0.0216181651 -0.109714836 -0.0285697822 -0.0234364346 -0.101760574 -0.0233902428 -0.022398077 -0.113963254 -0.0285000931 -0.0185512397 -0.236124128 -0.0546753295 -0.0125501445 -0.100408174 -0.0551777557 -0.0146545935 -0.101263814 -0.055984877 -0.0137203773 -0.100239106 -0.00364987273 0.0139930686 -0.233147636 -0.054605145 -0.0146091189 -0.24627246 -0.00218855939 0.0162313432 -0.256860733 -0.00465166615 -0.0150375925 -0.259816885 -0.00322973263 0.0279704705 -0.249689743 -0.0471247174 0.0164658464 -0.242589429 -0.00285962853 -0.0157041047 -0.234386891 -0.00117934926 -0.0266492777 -0.245056733 0.00962055009 -0.0172672179 -0.300354153 -0.0573964529 0.00622388814 -0.261517197 -0.0531534255 0.0270591136 -0.273892492 0.00116187753 -0.0297469925 -0.297834903 -0.0502148047 0.0163606573 -0.317232847 -0.0391507111 0.0279690251 -0.328319043 -0.0526674017 0.00455458509 -0.304246992 0.0189140402 0.0279591624 -0.357756019 -0.0065580979 0.028579805 -0.366792738 -0.0518981181 -0.0138495732 -0.312543511 -0.0548686348 -0.0294860415 -0.281532973 -0.0375519581 -0.0281672813 -0.335005432 -0.0101910606 -0.029395476 -0.365751952 0.0237750839 0.016196236 -0.363917679 -0.0176841542 0.0163099766 -0.36530593 0.0252940599 -0.0160901584 -0.351062894 -0.010473514 -0.0154879205 -0.373229474 0.0224915929 -0.0275230352 -0.360721171 0.0272603016 0.0988914073 0.0471740328 -0.00803489517 0.0989980996 0.0551223718 0.0555359051 -0.0213520862 0.0349388979 -0.0332520567 -0.0192376692 -0.104883656</float_array>
          <technique_common>
            <accessor source="#positions_array" count="180" stride="3">
              <param name="X" type="float" />
              <param name="Y" type="float" />
              <param name="Z" type="float" />
            </accessor>
          </technique_common>
        </source>
        <source id="normals">
          <float_array id="normals_array" count="969">0.971027851 0.126917168 0.202476889 0.563182533 0.639781177 0.522977471 0.826739609 0.0404773727 0.561126769 0.993379951 0.0953001902 0.0641412288 0.367648125 0.0267450698 0.929580331 -0.222780481 0.0234254077 0.974587142 0.412845522 0.184445232 0.891929686 0.0746658519 0.634550333 0.769266427 0.396273136 0.00886238646 0.918089926 0.690594733 0.668133259 0.276905864 0.912486494 0.161235601 -0.375993937 0.904248178 0.0723532066 -0.420832783 0.872050166 -0.210564405 0.441804439 0.561707079 -0.693911254 0.450524449 0.708748937 -0.702485979 0.0647182614 0.914887249 0.133586586 0.380967051 0.673232675 -0.0568704866 0.737240493 -0.590711832 -0.139995441 -0.794645071 -0.893328846 0.012954032 -0.449216902 -0.403055549 0.0462222472 -0.914007485 -0.754447818 0.482993245 -0.444438934 -0.112719774 0.565406024 -0.81707418 -0.00097994227 -0.999450088 0.0331439823 0.996309936 -0.0791837052 0.0331124403 0.533156693 -0.112353697 0.838522851 0.0560568646 -0.095754385 0.993825316 0.40901193 -0.410110891 0.815179884 -0.136823237 -0.310396135 0.940709114 0.0451034233 -0.585294962 0.809565008 0.129198879 -0.952058613 0.277294099 0.26614061 -0.863961279 0.427481145 0.083540678 0.0820577592 0.993120074 0.193079099 0.839455664 -0.507971108 -0.284084767 0.846578002 -0.450112849 -0.502940059 0.800875723 -0.325037539 0.370813608 -0.891026378 0.261857241 -0.130102858 -0.923807561 0.360073328 0.257324249 -0.935162306 0.243424863 -0.631329 0.710551441 -0.310709476 -0.20208925 0.964454472 -0.170257077 -0.42265892 0.900595427 -0.101426445 -0.293019891 0.954289794 -0.0589092933 0.00214781729 -0.821812689 0.569753706 0.951457739 0.113477454 -0.286096156 0.677870154 0.0567970537 -0.732984424 0.79974556 0.0339395963 -0.599378943 0.753827274 0.200261161 -0.625811398 0.408979326 -0.9083125 0.0877745524 0.360034108 -0.926090002 -0.112839282 -0.895688355 0.404623687 0.184450701 0.800205886 -0.527297854 -0.285705298 0.796159387 -0.415243119 0.440117449 -0.852779984 -0.00181147223 0.522267163 -0.801069677 0.360358536 0.477942616 -0.996969283 -0.0771321058 0.010143159 0.316102028 -0.915930152 -0.247288153 0.562536597 -0.726460099 -0.394725561 0.654215336 -0.6956442 -0.296785146 0.0576143228 -0.985904515 -0.157075942 0.0613193177 -0.994643152 -0.083216317 0.304724842 0.94086659 0.148029774 -0.302761614 0.936321497 0.177869201 -0.484354764 0.842959821 -0.234135121 -0.716634631 -0.625189424 -0.309148937 -0.0910215154 -0.963808835 -0.250574559 0.0342187397 -0.996337056 -0.0783679262 0.0867472887 -0.994467497 -0.0592396408 -0.57765913 0.0449533723 0.815039337 -0.923864722 0.128933236 0.360347301 -0.971591294 0.0902717039 0.218772441 -0.704459667 0.0566582307 0.707478881 -0.197482675 0.214878663 0.956466258 0.541764557 0.648622274 -0.534584165 -0.000597922248 0.999999821 -0.000156876238 -0.0266979318 0.998979867 0.0364208855 0.118579358 0.961170256 0.249180123 -0.0179923568 0.998277962 0.0558339581 -0.034899693 0.999034643 0.0266794972 -0.0011522948 0.999998927 0.000884168374 -0.904384971 0.025201587 -0.4259727 -0.326454133 0.0695980638 -0.942647219 -0.911616385 -0.0772263706 -0.403722316 -0.036037147 0.999349892 0.00105970737 -0.0285510328 0.99952805 -0.011335317 -0.0272639524 0.999537587 -0.0134651372 -0.939061821 0.102147974 0.328220516 -0.909135461 0.0160441846 -0.416191459 -0.549157321 0.0296116304 -0.83519423 -0.927045584 -0.00211240631 -0.37494275 -0.919110954 0.299909383 -0.25551793 -0.658954322 0.189658597 0.727879643 -0.648671925 -0.0259103458 0.760626972 -0.77098304 -0.0591694973 0.634101033 -0.570974469 -0.391028851 0.721861899 -0.514424562 -0.0283266529 0.857067645 0.694427013 -0.365480453 -0.61983484 0.27869451 0.333240628 -0.900710881 0.657872558 -0.00129959697 -0.753128111 0.963644624 -0.0390835889 -0.26431331 -0.660423577 -0.629059374 0.410030484 -0.927356005 0.119666956 0.354528755 0.164309606 0.94767046 -0.27372086 0.720081449 0.46776104 -0.51252538 -0.342135608 0.850435555 -0.399628013 0.211615503 0.944353938 -0.251822412 -0.81387347 -0.471441329 0.339636713 -0.434589028 -0.717060089 0.544937789 0.415272057 0.905339897 -0.0889311135 0.262031764 0.965055525 0.00268553128 0.246285349 0.923437655 -0.294289619 0.525424004 0.841158688 0.127990976 0.297140926 0.952782154 -0.0625573546 0.728707075 0.653042436 -0.206207722 0.983736873 0.0865876377 -0.157367036 0.342029512 0.906064212 -0.249125436 0.488960892 0.852724791 0.183786899 0.404962689 0.902662277 -0.145623073 0.437411904 0.896017909 -0.0763065517 -0.371444911 -0.919360518 0.129633948 -0.356872618 -0.924658954 0.132844687 -0.261838704 -0.949217677 0.174431294 -0.703598738 -0.705387652 0.0858899057 -0.173789412 0.973622262 0.147840708 0.0245050043 0.998483598 0.0492950231 0.120405048 -0.982567668 -0.141645223 0.125380114 -0.963888764 0.234943256 -0.0594850518 -0.994101286 -0.0906869397 0.00365674752 -0.912956834 -0.408039719 0.000610288233 -0.998879731 -0.0473175384 -0.0434881672 -0.993833005 0.102003612 0.136945933 0.958090246 0.251612663 0.333802938 0.920092523 0.204952091 -0.320315391 0.946511328 -0.0389149934 -0.717372954 0.0225275308 -0.696325064 0.0710241497 0.99702549 -0.0299284533 -0.453898638 0.880739152 -0.135183617 -0.960188448 0.27684167 0.0373747088 -0.989615619 0.1267827 -0.067727752 0.122058213 0.9627105 0.241433889 -0.956717193 -0.2898646 -0.0258989781 0.984817266 0.0918933898 -0.147277012 -0.51337266 0.855770469 -0.0640736967 -0.994549632 0.0945336223 -0.0439820252 -0.979781508 0.200040713 -0.00345500745 -0.630995393 -0.773642719 0.0576343834 -0.964181304 0.256520301 0.0674670264 -0.959648252 -0.153287396 0.235750288 -0.336883187 -0.938146114 -0.0799476132 0.447190851 0.892502546 0.0588183738 0.460523337 0.881319702 0.105801165 0.113905258 0.0582595579 -0.99178195 0.596996963 0.128048196 -0.791958511 -0.250338227 0.0459936857 -0.967065334 0.0829244256 0.992893875 -0.0853539407 0.00933350809 0.999183714 -0.039303679 0.000910588773 0.999420822 -0.0340167992 -0.0883536711 0.079396084 -0.992919862 0.43437013 0.00969352666 -0.90068233 0.105639122 0.989412367 -0.0995163545 0.411287546 0.0712716356 -0.90871501 0.606644332 0.199102297 -0.769636869 -0.946952164 -0.102187574 0.304695487 -0.954540253 -0.0759276301 0.288249671 -0.966940165 0.0343675837 0.252676785 0.719448507 0.240743488 -0.651487887 0.130364493 -0.912857115 0.386907011 0.797597647 -0.595717669 -0.0946492627 0.78303957 -0.617192149 -0.0769606754 -0.784115374 -0.185110137 0.592365801 -0.792514265 -0.171503589 0.585241497 -0.821336746 -0.120964333 0.557470679 0.656663775 -0.0254049599 -0.75375545 -0.932290614 0.281252891 0.227444485 0.635234058 0.650131285 -0.416901648 0.721134663 0.664340734 -0.196509913 0.256391734 0.96227479 -0.0910523608 0.868383169 0.402257472 -0.289999306 0.899046004 0.25618431 -0.35508576 -0.717793047 0.438264102 0.541015506 -0.772638023 0.231345922 0.591193378 -0.615586877 0.644072711 0.454117924 -0.593803227 -0.385076761 0.706479728 -0.784842014 0.138190821 0.604091287 0.754332125 -0.448594272 -0.47931847 -0.841985464 -0.0486808382 0.537299454 -0.777090192 0.507461429 0.372308671 0.162449539 -0.976747036 -0.139912114 -0.487927616 0.820801556 0.297004193 0.656884789 -0.742499411 -0.131137386 0.658388615 -0.717820644 -0.226402104 0.887346327 -0.264525473 -0.377680808 0.865925193 -0.476814598 -0.151067555 -0.930986702 -0.0896371081 0.353877008 -0.926602006 0.206284985 0.314412445 0.939887464 0.265936285 -0.214218229 0.967721045 -0.176478505 -0.179920226 0.0391976684 0.997146606 -0.0645152628 0.999237001 0.0208266955 -0.0330402069 -0.397968531 -0.916316867 -0.0445475057 0.0745406374 0.988800585 0.129294381 -0.318698645 -0.947117925 -0.0374010056 -0.886534393 -0.462662637 6.43639287e-05 0.877213597 0.47179538 0.0889121741 -0.918801963 -0.391787827 -0.0480129682 0.181971341 0.970365286 0.158989534 0.164888784 0.967773378 0.190332249 0.156638533 0.910418868 0.382886201 -0.0971143916 -0.987831116 0.121484429 0.0397323184 -0.999176621 -0.00820885506 0.319952279 0.793807209 0.517204642 0.466877669 -0.516409934 0.717876077 0.315068275 -0.860531271 0.40027228 0.58542335 -0.188432708 0.788525641 -0.4799698 0.426329613 -0.766728163 0.763581157 0.633957744 0.122643411 -0.767357111 -0.63071394 0.115598604 -0.95641315 0.291670799 0.0142144719 0.977603793 -0.195677906 -0.0774659365 0.90049541 0.0218816791 -0.434314638 0.992369652 0.0131255202 0.122597776 -0.0857086256 0.93793267 0.336060077 -0.457069844 0.873757422 0.166238248 0.684485197 -0.705332041 0.18435508 0.563316822 -0.726260781 0.393978924 0.847909749 -0.494674116 0.190647691 0.981961429 -0.0310706738 0.186511084 -0.987824619 0.150509357 0.0393636376 -0.663680255 0.744968235 0.0674596727 0.435841918 -0.896035969 0.0846251771 -0.882611036 0.404259503 -0.239941806 -0.530725479 0.791564405 -0.302912951 -0.993265271 0.0580981001 -0.100243308 0.173544422 0.875125587 -0.451705098 -0.124330796 0.657430708 -0.743186891 0.73792398 -0.207611009 -0.642157257 0.71068269 0.313595831 -0.629752159 -0.692026794 -0.721248269 0.0299973264 -0.630493343 -0.667972326 -0.395336658 -0.231405571 -0.786149979 -0.573079109 0.940890253 0.252194703 0.226104796 0.936291277 0.268024951 0.226982966 0.231654912 0.357377023 -0.904774904 -0.53430891 0.346047491 -0.771210134 0.107049525 0.994248152 -0.00332059478 0.196804389 0.935909688 -0.292131931 -0.225429192 0.439680189 -0.869403839 0.70578146 -0.463870347 -0.535440803 -0.00252680923 -0.999996662 -0.000482795207 0.233767152 -0.953918278 -0.188129723 -0.00271714898 -0.999996006 -0.000784539152 -0.944845974 -0.205790564 -0.25478676 0.565285742 0.0610065497 0.822636127 0.0169015154 0.999841571 0.00558182783 -0.000632870011 0.999999285 -0.000986613566 0.00480894372 0.999956965 0.00793251768 -0.164406762 -0.0425647646 0.985473812 0.989274263 -0.145214275 0.0157876629 0.692006886 -0.595750809 0.407685399 -0.116913065 -0.232291862 -0.965594053 -0.422981262 0.897262692 0.126516789 -0.311234355 0.944833875 0.1020886 -0.0858150274 0.988338888 0.12578544 -0.376669914 0.920839071 0.100871876 0.182336316 0.94662869 0.265796185 0.677107573 -0.391089916 0.623356998 -0.794857502 -0.606080294 0.0294666886 -0.561172605 0.82257092 0.0919915512 -0.0455356687 -0.977737904 0.204829484 -0.00861516688 -0.998773456 0.0487578399 -0.478415221 0.0208199322 0.877886891 -0.836743295 0.139766261 0.529458284 -0.0200839043 0.999477148 -0.0253398456 0.46875608 -0.855158687 -0.221294835 -0.316071957 -0.937037647 0.148522645 -0.443237454 -0.764317632 0.468357831 -0.416163206 -0.81856817 0.395922184 -0.386819839 0.47443679 0.79074657 -0.370907336 -0.920201063 0.12513113 -0.164086729 -0.929041326 0.331598788 0.589269936 -0.582580149 0.559786856 0.325538307 0.941752434 -0.084422715 -0.630514622 0.750032604 -0.199755967 0.873273253 -0.469836473 0.129025072 0.425381601 -0.904995561 -0.00578612974 0.420078278 -0.907453597 -0.00789056066 0.319804639 -0.946866274 -0.0341938585 0.913824379 -0.394122243 0.0979421511 0.884973109 0.402614146 -0.23393248 -0.308402538 0.097951889 -0.946199417 -0.000577339844 0.999983788 -0.00566926505 0.34000206 0.588062882 -0.73388052 0.0991661102 -0.910680413 0.401032686 -0.732533872 -0.0530135036 0.678663135 -0.826540172 -0.111087747 0.551806867 0.765175045 0.173876807 -0.619898379 0.989766061 -0.13817355 -0.0356538557 0.939529359 -0.0116041722 -0.342271745 0.515217125 0.73103261 -0.447373062 0.834949434 0.237190217 -0.496588558 0.0202421192 0.98366338 -0.178875864 0.702014685 -0.046061825 -0.710671306 0.954721093 0.114311598 -0.274664342 -0.857113183 -0.439103633 0.269341886 -0.873968303 -0.400133818 0.275812209 -0.845801413 0.000977020012 0.533496976 0.0881553143 -0.341213435 0.935842931 -0.274127334 0.929978251 0.24493809 0.905276299 0.224860087 -0.360434085 0.60683316 -0.118635163 0.785925686 0.92064476 -0.389500529 0.0265056696 0.989382863 0.125121117 0.0739338845 -0.0598539375 -0.935691118 -0.347706199 0.143298998 -0.974959373 -0.170057625 0.524082422 0.800565124 0.290573806 -0.421883553 -0.832725048 -0.35858503 -0.114970244 -0.987470806 -0.108088836 -0.501383185 -0.826174021 -0.257004678 -0.0931109786 -0.983982682 -0.152014494 -0.327144384 -0.771108508 -0.546230853 0.154317796 0.987997413 0.00686745904 0.188726574 0.981950939 0.0124371601 0.0313578509 0.999492645 -0.00557837915 0.865466058 -0.429704279 0.257531971</float_array>
          <technique_common>
            <accessor source="#normals_array" count="323" stride="3">
              <param name="X" type="float" />
              <param name="Y" type="float" />
              <param name="Z" type="float" />
            </accessor>
          </technique_common>
        </source>
        <vertices id="vertices">
          <input semantic="POSITION" source="#positions" />
        </vertices>
        <triangles material="qmat_76551a3993c45b27" count="210">
          <input semantic="VERTEX" source="#vertices" offset="0" />
          <input semantic="NORMAL" source="#normals" offset="1" />
          <p>16 16 15 15 6 6 18 19 19 20 20 21 22 23 15 15 16 16 26 28 27 29 28 30 16 16 29 31 26 28 30 32 28 33 31 34 28 30 27 29 32 35 27 29 30 36 31 37 28 33 32 38 31 34 27 39 33 40 32 41 35 43 37 45 38 46 33 47 31 37 39 48 33 40 40 49 32 41 33 47 39 48 41 50 32 51 39 48 31 37 42 52 43 53 40 49 44 54 42 52 40 49 39 48 45 55 41 50 47 58 48 59 45 55 49 60 50 61 51 62 50 63 52 64 51 65 53 66 52 64 39 48 53 66 51 65 52 64 58 71 69 90 73 94 71 95 70 96 74 97 30 32 78 101 79 102 79 102 20 21 30 32 29 31 73 94 26 28 78 101 30 32 49 60 78 101 80 103 81 104 73 94 82 105 81 106 83 107 84 108 82 109 84 108 83 107 85 110 79 102 86 111 87 112 79 102 87 112 85 113 88 114 86 111 79 102 86 115 89 115 82 115 83 107 86 116 90 117 86 118 84 119 90 120 79 102 78 101 88 114 90 117 92 122 93 123 94 124 95 125 93 126 95 125 96 127 93 126 97 128 89 129 47 58 92 130 95 130 94 130 88 114 97 131 48 132 86 133 48 133 89 133 90 117 93 123 96 134 98 135 99 136 100 137 101 138 85 138 102 138 100 137 99 136 101 139 101 140 75 98 85 113 87 144 95 125 90 120 106 145 101 139 82 105 85 110 83 107 90 117 82 105 101 139 87 144 95 125 87 144 107 147 85 110 107 148 108 149 116 161 117 161 118 161 119 162 37 163 43 53 115 160 38 46 120 164 119 165 121 166 120 167 119 168 115 169 121 170 128 178 129 179 124 180 129 179 128 178 123 182 130 183 37 45 41 50 45 55 130 183 41 50 43 53 121 184 131 185 94 124 93 126 132 186 94 124 132 186 45 55 92 122 131 185 133 187 132 186 134 188 130 183 126 192 136 193 131 185 122 194 130 183 137 195 126 174 122 196 138 197 93 126 139 198 132 186 93 123 133 187 140 199 85 110 108 149 141 202 87 144 142 203 139 198 99 136 142 203 101 139 107 148 143 204 108 149 101 139 142 203 87 144 140 199 133 187 144 205 144 205 133 187 145 206 132 186 139 198 146 207 107 148 140 199 143 204 138 197 122 194 137 195 150 214 126 174 138 197 137 195 134 188 138 197 139 198 151 215 146 207 142 203 151 215 139 198 102 216 151 215 142 203 156 222 146 207 157 223 157 223 161 228 158 224 159 226 164 231 168 236 161 228 169 237 170 238 174 245 175 246 170 238 161 228 170 238 175 246 167 250 169 237 168 236 174 245 170 238 169 237 178 257 26 28 28 30 20 21 19 20 33 40 22 23 16 16 178 257 70 96 23 258 18 19 23 258 17 17 18 19 6 6 58 71 29 31 16 16 6 6 29 31 27 29 26 28 30 36 20 21 28 33 30 32 178 257 28 30 33 47 178 257 16 16 26 28 28 33 20 21 33 40 27 29 31 37 33 47 35 43 22 23 41 50 37 45 35 43 41 50 35 43 15 15 22 23 33 40 19 20 40 49 178 257 33 47 41 50 32 41 40 49 39 259 41 50 22 23 178 257 43 53 39 259 40 49 39 48 52 64 45 55 48 132 97 131 94 260 45 55 48 59 94 124 97 131 47 261 94 260 47 261 43 262 94 260 50 61 49 60 53 263 47 264 45 264 43 264 52 64 50 63 45 265 50 61 43 53 45 266 50 61 39 259 43 53 50 61 53 263 39 259 78 101 49 60 51 62 80 103 78 101 51 62 53 66 80 267 51 65 53 66 49 268 80 267 48 59 47 58 89 129 58 71 73 94 29 31 77 100 106 145 82 105 77 100 73 94 69 90 73 94 81 106 26 28 30 36 26 28 81 106 70 96 18 19 20 21 49 268 30 36 80 267 88 273 82 105 89 129 30 36 81 106 80 267 73 94 77 100 82 105 81 106 82 105 88 273 87 144 86 274 83 275 87 144 83 275 82 105 85 110 87 276 84 108 84 119 87 144 90 120 79 102 75 98 74 97 86 118 82 277 84 119 78 278 81 106 88 273 90 120 95 125 92 279 97 128 88 273 89 129 86 111 88 114 48 132 98 135 77 280 104 281 77 100 98 135 106 145 98 135 104 281 99 136 106 145 98 135 100 137 104 282 75 283 106 284 104 282 100 285 101 286 106 287 75 98 101 140 104 282 106 284 100 285 85 110 90 117 107 148 75 98 79 102 85 113 90 117 96 134 107 148 96 127 95 125 107 147 119 290 38 46 37 45 38 291 119 165 120 167 121 184 37 163 120 292 115 169 129 293 121 170 115 160 120 164 129 294 129 298 110 297 121 301 130 183 120 164 37 45 129 294 120 164 130 183 37 163 121 184 43 53 92 305 94 305 43 305 92 122 43 306 131 185 137 195 130 183 134 188 128 302 122 304 121 184 124 307 129 294 130 183 130 183 45 55 132 186 122 304 126 192 131 185 121 184 122 304 131 185 122 194 124 307 130 183 131 185 136 193 133 187 99 136 102 216 142 203 104 281 102 216 99 136 102 309 104 282 101 286 93 126 107 147 139 198 107 148 93 123 140 199 93 123 92 122 133 187 141 202 102 310 85 110 107 147 87 144 139 198 133 187 143 204 145 206 144 311 135 210 140 312 179 313 144 205 145 206 140 314 179 315 145 316 143 204 140 199 145 206 134 188 132 186 146 207 134 188 146 207 156 222 138 197 134 188 156 222 157 223 151 215 168 236 161 228 157 223 168 236 164 231 167 250 168 236 168 236 169 237 161 228 158 224 161 228 175 246</p>
        </triangles>
        <triangles material="qmat_d857164d36b11abb" count="184">
          <input semantic="VERTEX" source="#vertices" offset="0" />
          <input semantic="NORMAL" source="#normals" offset="1" />
          <p>0 0 1 1 2 2 0 0 2 2 3 3 4 4 5 5 6 6 7 7 5 5 4 4 8 8 0 0 9 9 9 9 0 0 10 10 10 10 3 3 11 11 12 12 13 13 14 14 3 3 2 2 15 15 2 2 6 6 15 15 17 17 12 18 18 19 13 13 21 22 14 14 17 24 23 25 24 26 23 25 25 27 24 26 4 4 6 6 2 2 34 42 21 22 13 13 11 11 35 43 36 44 3 3 15 15 35 43 14 14 46 56 42 57 14 14 21 22 46 56 54 67 55 68 56 69 54 67 57 70 5 5 5 5 58 71 6 6 9 9 59 72 60 73 54 74 8 75 61 76 7 7 54 67 5 5 54 74 61 76 55 77 9 9 60 73 62 78 60 79 63 80 64 81 55 82 64 83 65 84 60 79 64 81 55 85 65 86 66 87 67 88 56 69 67 88 68 89 5 5 69 90 58 71 70 91 71 92 72 93 23 25 72 93 25 27 71 95 74 97 75 98 71 92 76 99 72 93 57 70 77 100 69 90 56 69 77 100 57 70 74 97 20 21 79 102 34 42 91 121 21 22 68 89 103 141 104 142 68 89 104 142 77 100 104 142 105 143 91 121 75 146 91 121 76 99 109 150 110 151 111 152 112 153 113 154 63 155 114 156 112 157 63 80 112 153 10 158 113 154 10 10 11 11 36 44 113 159 36 44 109 150 59 72 112 157 114 156 109 150 115 160 110 151 66 87 109 150 111 152 60 79 114 156 63 80 119 171 42 57 46 56 110 151 119 171 46 56 122 172 123 172 124 172 125 173 126 174 127 175 125 173 128 176 124 177 123 181 121 181 110 181 46 56 135 189 123 190 126 174 123 190 136 191 123 190 135 189 136 191 46 56 21 22 108 200 105 143 141 201 91 121 46 56 108 200 135 208 108 209 140 209 135 209 135 210 143 211 133 212 147 213 148 213 149 213 152 217 150 214 153 218 154 219 150 214 152 217 154 220 155 221 150 214 158 224 156 225 157 223 151 215 157 223 146 207 159 226 151 215 102 216 155 221 154 220 160 227 162 229 160 227 163 230 160 227 164 231 159 226 165 232 166 233 163 230 164 234 153 218 167 235 165 239 152 217 171 240 166 233 171 241 172 242 158 243 173 244 174 245 163 230 172 242 162 229 171 247 162 248 172 249 2 2 1 1 4 4 9 9 176 251 8 8 8 75 1 1 0 252 7 7 1 1 8 75 1 1 7 7 4 4 9 9 177 253 176 254 176 251 177 255 8 8 10 10 0 0 3 3 59 72 9 9 10 10 112 157 59 72 10 10 44 256 12 12 14 14 12 12 17 24 13 13 18 19 12 18 19 20 13 13 17 24 24 26 19 20 12 18 40 49 24 26 34 42 13 13 24 26 25 27 34 42 36 44 35 43 38 46 42 52 119 162 43 53 115 160 36 44 38 46 11 11 3 3 35 43 12 18 44 54 40 49 44 256 14 14 42 57 54 67 56 69 57 70 177 255 61 269 8 8 177 255 62 270 61 269 62 78 177 253 9 9 54 74 7 7 8 75 62 270 55 85 61 269 62 270 60 79 55 85 65 84 64 83 63 271 65 86 67 88 56 69 55 68 65 86 56 69 23 272 70 272 72 272 5 5 57 70 69 90 71 92 75 146 76 99 74 97 70 96 20 21 25 27 72 93 34 42 34 42 72 93 76 99 34 42 76 99 91 121 75 146 104 142 91 121 56 69 68 89 77 100 63 288 113 159 109 150 113 159 10 10 36 44 109 150 36 44 115 160 63 288 109 150 66 87 66 87 111 152 68 89 60 73 59 72 114 289 65 86 63 288 66 87 67 88 66 87 68 89 110 151 115 160 119 171 123 190 110 151 46 56 126 174 124 177 123 190 122 295 125 173 123 296 125 173 110 297 129 298 125 173 129 298 123 296 126 174 125 173 124 177 111 299 125 173 127 175 111 299 110 297 125 173 123 300 128 300 121 300 128 302 125 303 122 304 136 308 135 210 133 212 103 141 68 89 127 175 104 142 103 141 105 143 103 141 102 216 105 143 105 143 102 216 141 201 68 89 111 299 127 175 91 121 141 201 108 200 21 22 91 121 108 200 108 317 179 315 140 314 135 210 179 315 143 211 179 315 135 318 144 311 179 315 108 317 143 211 150 214 127 175 126 174 103 141 155 221 102 216 102 216 155 221 159 226 103 141 127 175 155 221 127 175 150 214 155 221 153 218 138 197 156 222 150 214 138 197 153 218 153 319 156 320 158 243 159 226 155 221 160 227 164 234 152 217 153 218 165 239 154 219 152 217 171 247 152 217 162 248 153 319 158 243 174 245 160 227 162 229 164 231 152 217 164 234 162 248 160 227 165 232 163 230 160 227 154 220 165 232 167 321 153 319 174 245 159 226 168 236 151 215 166 233 165 232 171 241 174 245 173 244 175 246 175 246 173 322 158 224 163 230 166 233 172 242 167 250 174 245 169 237</p>
        </triangles>
      </mesh>
    </geometry>
  </library_geometries>
  <library_visual_scenes>
    <visual_scene id="scene">
      <node id="FR_thigh_dae">
        <instance_geometry url="#geometry">
          <bind_material>
            <technique_common>
              <instance_material symbol="qmat_76551a3993c45b27" target="#qmat_76551a3993c45b27" />
              <instance_material symbol="qmat_d857164d36b11abb" target="#qmat_d857164d36b11abb" />
            </technique_common>
          </bind_material>
        </instance_geometry>
      </node>
    </visual_scene>
  </library_visual_scenes>
  <scene>
    <instance_visual_scene url="#scene" />
  </scene>
</COLLADA>