<?xml version='1.0' encoding='utf-8'?>
<COLLADA xmlns="http://www.collada.org/2005/11/COLLADASchema" version="1.4.1">
  <asset>
    <created>2026-09-14T00:00:00Z</created>
    <modified>2026-09-14T00:00:00Z</modified>
    <unit name="metre" meter="1" />
    <up_axis>Z_UP</up_axis>
  </asset>
  <library_effects>
    <effect id="qmat_a51b34f6a238e212_effect">
      <profile_COMMON>
        <technique sid="common">
          <lambert>
            <emission>
              <color>0 0 0 1</color>
            </emission>
            <diffuse>
              <color>0.69804314 0.69804314 0.69804314 1.0</color>
            </diffuse>
          </lambert>
        </technique>
      </profile_COMMON>
    </effect>
  </library_effects>
  <library_materials>
    <material id="qmat_a51b34f6a238e212" name="qmat_a51b34f6a238e212">
      <instance_effect url="#qmat_a51b34f6a238e212_effect" />
    </material>
  </library_materials>
  <library_geometries>
    <geometry id="geometry" name="link5_stl">
      <mesh>
        <source id="positions">
          <float_array id="positions_array" count="564">-0.0191105399 0.0218391623 0.101894498 0.0233138632 0.0248267464 0.0977428034 -0.0206529647 0.0283966009 0.0880354941 0.0238139499 0.0136446562 0.106142409 0.0245198384 0.00950658321 0.0987903476 -0.0145977186 0.0131009072 0.109799914 -0.0144054582 0.00764245633 0.111332171 0.0188901182 0.0125856092 0.109240226 -0.0205391105 0.0161925629 0.106627375 0.02411348 0.00332362531 0.110971332 0.024830848 0.0162908807 0.0847304985 0.0251345187 0.00943996105 0.0894374922 -0.0209147017 0.0105364099 0.0788486898 -0.020959314 -0.0103594447 0.0797212571 -0.0194149893 0.0187357366 0.0919315144 -0.02017821 -0.0128157856 0.0986054838 -0.0195259061 0.0167864822 0.071740225 -0.0201582778 0.012947035 0.0992684811 -0.020244699 0.0082041407 0.110557906 -0.0143710468 0.0170553811 0.0996286124 -0.0142296115 -0.0179267358 0.0982362553 -0.0142889414 -0.0107352957 0.109718017 -0.0206287 0.00968080387 0.11496973 -0.0203428436 -0.0084672058 0.116342351 -0.0156396609 0.00784785114 0.117396399 -0.0202961825 -0.00831406098 0.109857805 0.0187261347 -0.0121361744 0.109848171 0.0249871481 0.00978140719 0.0696551204 0.0240957718 0.0245713927 0.0682391748 0.0240701698 0.0138545642 0.059297815 0.0142096747 0.0230150521 0.0660931095 0.0227484759 0.0128224138 0.0576851554 -0.0163351744 0.0182769187 0.0612882972 0.0251019709 -0.0107487477 0.0866127238 0.0250477921 -0.00272275554 0.0711060613 -0.000885421119 0.0300802551 0.0705475956 0.0139488243 0.0256385412 0.0704714283 0.00336184842 0.0304822437 0.0383790992 0.0250057466 -0.0126370322 0.0686917901 0.0261603519 0.00161462231 0.0627413988 0.0271566622 0.00338278082 0.0560808629 0.0220529921 0.028646145 0.0823194981 -0.0142493667 0.0218495224 0.070557721 -0.0285611805 0.00929337647 0.0540218055 -0.0207889322 0.00883330312 0.0525945872 -0.0204614978 0.0263925623 0.0715130046 -0.0207016766 0.0259184558 0.0526937917 -0.0200670976 0.0179999154 0.0652893484 -0.0124543905 0.0277080368 0.0535893217 -0.0140722105 0.0255987663 0.0703480616 -0.0192005262 0.00856337231 0.0642840564 -0.0176834874 0.018395843 0.0464095995 -0.0141044138 -0.0285972003 0.0819472224 -0.0201831181 -0.0283582248 0.088487938 0.0240542479 -0.0141419992 0.108323433 0.0248342864 -0.0123613188 0.0963501334 0.0228956416 -0.0245929416 0.0982052088 -0.0156982876 -0.00745737785 0.1174476 -0.0194149502 -0.0180298071 0.0903543383 -0.0191828124 -0.0225583334 0.100772478 -0.0204063598 -0.0158164781 0.106557295 -0.016599277 -0.0139197875 0.115019463 0.023110617 -0.0284981895 0.080646567 0.0115535092 -0.0263638832 0.0712600574 0.0143541517 -0.0227024537 0.065604277 0.00600879174 -0.0274537355 0.0525059365 0.00137758558 -0.0304771308 0.0705276728 0.0104919337 -0.027830001 0.0387299694 0.0220543388 -0.018137794 0.0610587038 0.0242334642 -0.0241352953 0.0686190426 0.0274469629 -0.00645046402 0.0566085093 0.027880311 -0.0149293328 0.0622910969 0.0225441977 -0.0131917484 0.0577545241 0.0123690488 -0.0211606976 0.0531367585 -0.0207749177 -0.008834593 0.0526248477 -0.0193759929 0.00701605203 0.0510275252 -0.0195411425 -0.0113798873 0.0678321123 -0.0187694766 -0.00794300064 0.0509818904 -0.015949484 -0.0197465513 0.0627340823 -0.0165572092 -0.0133275809 0.0591472089 -0.0288866889 -0.00966893323 0.0526750758 -0.0208511502 -0.011428779 0.0525535159 -0.0142455986 -0.0166964866 0.0678043589 -0.0196805298 -0.0269760974 0.0724125728 -0.0140691316 -0.0264892131 0.0720833167 -0.00645908713 -0.028941121 0.0506260991 -0.0183119401 -0.0194687918 0.0773005486 -0.0200489368 -0.0180011038 0.0653219968 0.0153817898 0.0236944854 0.0433987193 0.0137680313 0.0131808361 0.0439725555 -0.00422348827 0.0214556865 0.0438904949 0.0211401079 0.018495217 0.0420138873 0.0249106213 0.00696768472 0.0381062999 0.0182156656 0.00808729604 0.0558472499 0.0174619276 -0.000959274475 0.0546270087 -0.0142147057 0.0118930973 0.0572800301 0.00589892408 0.02721503 0.0380489454 0.0162789933 0.0212529935 0.0503634214 0.0254406426 0.00486649247 0.0469212346 0.0115240263 0.0154836746 0.0531404912 0.0162091199 0.0134446071 0.047101561 0.0179147534 0.0189562254 0.0383932143 0.015938323 0.0209441409 0.00480087986 0.00402588164 0.0229468588 0.0512842387 -0.00984924659 0.020753013 0.0533295572 -0.0111710038 0.0303719398 0.0701426938 0.00354309054 0.0285536665 0.0510891415 -0.00591702433 0.0229131635 0.0467641167 -0.00528328354 0.0262775309 0.0385837033 0.0187107082 -0.000863577996 0.0546267927 0.0191904753 0.000269847951 0.0468529351 -0.00878559239 0.0282945335 0.00491746934 0.00379861658 0.0275417622 0.000843453978 -0.0117851887 0.0272105578 0.000170960862 0.0164717715 0.0203631371 3.23296699e-05 0.0108566517 0.011677078 -0.000555422506 0.0234406739 0.00888818223 0.00102956465 0.022770917 -0.00618308643 0.000919463171 -0.00862531364 0.0151930386 -0.00095300714 0.00138043822 0.0112991985 -0.000904604385 0.00477298535 -0.0087343445 -0.000987039413 0.0172250718 -0.00870122481 0.0558019504 0.0150989192 -0.0163450669 0.0468081646 0.0113119595 -0.0162167326 0.0439047888 -0.000630478491 -0.0233465787 0.0467932224 0.0169138219 -0.020550888 0.00530199008 0.0169017743 -0.0201831553 0.0381086431 0.0204444174 -0.0164085962 0.047100354 0.0185564589 -6.20109422e-05 0.0385446176 0.0235219412 -0.00477190549 0.0431727916 -0.0132449353 -0.0271667019 0.0373241529 -0.01558204 -0.0288366973 0.0379301012 -0.00460018823 -0.0212323721 0.044088833 0.013411358 -0.0214030035 0.0435227752 -0.000602603541 -0.0263321809 0.0386170708 0.0174857341 -0.0171623863 0.0384047292 -0.00200644485 -0.0213972051 0.052767545 0.0247918218 -0.0136840409 0.0387032218 0.0232135169 -0.00980923418 0.0378745347 0.0249978676 -0.00195351732 0.00523291016 0.0120350309 -0.0057927249 -0.000663655286 0.00242736307 -0.015339328 -0.00081892655 0.0160678849 -0.0201144256 -7.71829873e-05 0.0218596719 -0.0123603428 -5.26083968e-05 0.00461271545 -0.0269625299 0.00034111258 -0.0206550434 0.024362212 0.0461284965 -0.0227199085 0.0166791473 0.0508203246 -0.0303694885 0.0118887918 0.0495401397 -0.0111048613 0.0290189851 0.0457969978 -0.0196756255 0.0252276398 0.0385717526 -0.0299678836 0.0137025872 0.0385999382 -0.0290792305 0.0182412621 0.0522241667 -0.0167038701 0.0288923122 0.0388345458 -0.0294363778 0.0160830468 0.0379260257 -0.0147517482 0.0267236084 0.0373413116 -0.023818234 0.0209145192 0.0053617442 -0.0305534713 0.0101683568 0.00219586468 -0.0244063847 0.0079675857 0.0475845523 -0.0238464251 -0.00906306598 0.0474270917 -0.0340405814 -0.00328486017 0.0385789163 -0.027146481 -0.00112256582 0.0502264351 -0.0330992453 0.00310422922 0.0374538489 -0.0346143395 0.00121558004 0.0523520522 -0.0142177641 -0.00793877244 0.0556493364 -0.0308695771 -0.0118300132 0.0496709459 -0.02433246 0.0190605428 0.000122427882 -0.0192538965 0.00554563245 -0.000824739458 -0.0313985087 0.00561150583 0.000657079567 -0.0150676016 -0.0283472557 0.0457644388 -0.00835304242 -0.0289310962 0.0388331674 -0.0186827593 -0.0256556831 0.038764067 -0.0146827912 -0.0211060382 0.0533589311 -0.0314463042 -0.0150391487 0.0384312198 -0.0276843719 -0.0159015208 0.0378777348 -0.020745784 -0.0258568525 0.0525019802 -0.0306744538 -0.0159594193 0.0522103682 -0.0177780557 -0.0192827322 0.0483133979 -0.0313054211 -0.00806135312 0.000678859418 -0.00345040695 -0.02904341 0.00493711978 -0.0108310692 -0.0272449832 -2.0870104e-05 -0.0179540701 -0.00403536577 -0.000696509611 -0.0236149821 -0.0204332788 0.00200196332 -0.0134713249 -0.01245932 -0.00094661233 -0.0209055152 0.0112315463 0.0526148118 0.0205411706 -0.0286189932 0.0864020959 0.0233548488 0.00441809464 0.0432519801 0.00320713874 -0.0277122781 0.0377405174 -0.0281372201 -0.0162583105 0.0385255367</float_array>
          <technique_common>
            <accessor source="#positions_array" count="188" stride="3">
              <param name="X" type="float" />
              <param name="Y" type="float" />
              <param name="Z" type="float" />
            </accessor>
          </technique_common>
        </source>
        <source id="normals">
          <float_array id="normals_array" count="990">-0.011719632 0.790624797 0.612188756 0.621997476 0.679442644 0.38920033 -0.0166399814 0.988117218 0.152798831 0.789424896 0.350086868 0.504229665 0.997271657 0.0476466529 0.0563833527 0.0285884663 0.63439256 0.772482216 0.0198985822 0.102305152 0.994554043 0.150318921 0.409309983 0.899927557 -0.0189191252 0.69811064 0.715739846 0.587164521 0.0690374225 0.806518257 0.993254006 0.114650257 0.0173732415 0.998695731 0.0374362618 0.0347189121 -0.999290824 0.0187204983 0.032670632 -0.997747064 0.067080155 -0.00100092683 -0.997233808 -0.0721626431 0.0178122483 0.663430035 -0.731131971 -0.159080341 0.855547607 0.477797627 -0.199368268 0.895783007 -0.404316396 0.184664577 0.850318789 -0.484265298 -0.206022128 -0.997399747 0.0239887889 -0.0679582059 -0.999284089 0.0308165643 0.0219475422 -0.997359276 -0.0425399728 -0.0588631295 0.37636885 -0.82602936 -0.419549674 -0.0492802076 -0.947561443 -0.315751135 0.0797367245 -0.914149225 -0.397458553 -0.999978185 -0.00424316106 -0.0050656246 -0.997570813 0.0696529448 0.000955832656 -0.999984205 -0.00427832361 -0.00364682451 -0.703106463 0.437046438 0.560920358 -0.742654204 -0.197880298 0.639771938 0.829787672 0.0210504252 -0.557682097 0.838059664 0.0129496539 -0.545424879 0.626956582 0.603927016 -0.492135793 -0.264247924 0.383585572 0.884892762 0.976579785 0.0893416703 0.19572936 0.0488076769 -0.357511848 0.932632327 -0.993494809 0.102267526 0.0500937738 0.998431802 0.0558951758 -0.00311146793 0.993975878 0.109497324 -0.00472401222 0.941583276 0.336762875 -0.00342300953 0.00850219466 0.746989846 -0.664781094 0.137018919 0.397331744 -0.90738821 -0.265512109 0.563572526 -0.782233536 0.99836421 -0.056521453 0.00861314684 0.999918342 0.00183995755 -0.0126444027 0.149411097 0.988254726 0.0320766419 0.495164156 0.868397832 0.0264144316 0.206611529 0.768390298 -0.605712831 0.996274233 -0.0556500331 -0.0658844709 0.986171126 0.0683353096 0.150985971 0.98940748 0.143104672 0.0243708678 9.56823715e-05 0.910968304 -0.412476301 -0.0460115038 0.803636968 -0.59333849 -0.100983933 0.63750267 -0.763801396 0.0218041241 0.999545395 -0.0208212379 0.652447224 -0.71780473 0.243041068 -0.047172755 -0.996806204 0.0644369796 -0.109554887 -0.258770019 0.959706128 0.00498031266 -0.670624971 0.741779864 -0.954680681 0.297546327 -0.00714242179 -0.73896426 0.673540711 0.0165748354 -0.999533892 0.0295358002 0.00772577478 0.666266799 -0.588342965 0.458193243 0.604046166 -0.795849562 -0.041854132 0.950579643 -0.191910326 0.244067028 -0.00687920209 0.814760029 -0.579757571 0.831130743 -0.55033356 -0.0797161683 0.981697917 -0.149356812 0.118160009 0.662926435 -0.734232664 -0.146393031 -0.0140802702 0.982099235 -0.187837332 -0.488632858 0.728111327 -0.480720103 0.0534110181 -0.510504723 0.858214557 0.996679544 -0.0714711621 0.0390093029 0.599109232 -0.686940134 0.411316574 -0.202799648 -0.129567042 0.970610499 0.972221196 0.135933101 -0.190547034 0.656860709 0.608629763 -0.445088625 0.988886237 -0.0481279381 -0.140668914 -0.999099791 -0.0408618413 0.0113994842 -0.999998748 -0.000624554756 0.00144441309 -0.994576573 -0.0900341645 0.0520703904 -0.99283278 -0.114446633 0.0344241448 0.996350706 -0.0650739521 0.0552325808 -0.0091468785 -0.610735834 0.791781604 -0.00791813247 -0.789651692 0.613504291 -0.999865294 0.0135499341 -0.00926408172 0.32955578 0.842278004 -0.426568627 -0.561813712 -0.538157642 0.62829268 0.79636997 0.312648743 -0.517731249 0.831283212 -0.555101037 0.0288278107 0.935080588 -0.231282011 0.268575758 0.873429954 -0.477872223 0.0935853869 0.639767826 -0.761344194 -0.105129443 -0.459479421 0.876056135 0.146302089 -0.665296555 0.726478517 0.172074169 -0.335599273 0.920894444 0.198309124 0.187256858 -0.937453985 -0.293453455 0.107913785 -0.994126558 0.00818244461 0.38474828 -0.916880786 -0.106294021 0.619184494 -0.752623618 -0.223982573 -0.714719713 -0.633451939 -0.296503693 0.995903254 -0.0665022284 -0.0612715334 0.94503969 -0.0614416562 -0.321130633 0.994245827 -0.106536649 -0.0111884223 0.429326952 -0.487570018 -0.760232747 -0.865798831 0.499710619 0.0261091329 -0.611105204 0.771278083 0.177990422 -0.999988437 -0.000801260758 -0.00473843468 -0.999984443 0.000328114431 -0.00557265943 0.894119084 -0.12723884 -0.429373235 0.93919462 0.319235235 0.12650013 0.883833885 0.140103519 -0.446327925 -0.0232707802 -0.655312777 -0.754999101 -0.722358584 -0.339631319 -0.602369189 0.136100605 -0.405977756 -0.903691709 -0.10182149 0.993269861 0.0552034117 -0.213243634 -0.9762761 0.0375776328 0.947695673 0.308097303 -0.0833605602 -0.999996066 -0.00132349925 -0.00248230621 -0.98319459 0.159283087 0.0892037824 -0.00206426042 -0.972151458 -0.234344482 -0.0281250048 -0.514200866 -0.85720849 -0.00378714618 -0.998040318 -0.0624597184 -0.137897342 0.981867254 0.130080879 0.162259072 0.95119524 0.262487382 0.984395564 -0.162864298 0.066637449 -0.924414992 -0.322249413 0.203990906 -0.906147599 -0.240590975 0.347868562 -0.913900971 -0.264484882 0.307949334 -0.864080846 -0.154407561 0.479085207 0.987861931 0.0724779963 0.137389213 -0.998018861 -0.0573888682 0.0257843938 -0.912374139 -0.40889591 0.0194313359 -0.0985376909 -0.131432563 -0.986415625 -0.0671609268 0.00719166268 -0.997716248 -0.250351459 -0.485279322 -0.837751865 0.825971007 0.517727792 -0.223001882 0.973304689 0.211052984 -0.0901920423 0.0852079913 0.222021624 -0.97131151 -0.0202072114 0.00711371051 -0.999770522 -0.647520185 0.240887478 -0.722973645 0.579725504 0.794519484 -0.180712789 0.430921733 0.778789103 -0.455844253 -0.370021492 -0.631392539 0.681489229 -0.790234506 -0.108704619 0.603085995 -0.900781095 -0.434260786 -0.00332390261 0.505574286 0.287302047 0.813542962 0.453985691 -0.017334884 0.890840352 0.722921073 0.656653941 -0.214920342 0.680033803 0.733023763 -0.0151742743 -0.170469761 0.211101964 0.9624843 -0.055468902 0.845681071 0.530798197 -0.202391624 0.9793033 -0.00164613826 -0.259147823 -0.740292549 0.620330036 0.012606401 -0.621668577 0.783178926 -0.39106676 -0.718699276 -0.574924529 0.526718438 -0.0176461469 -0.849856615 0.942921937 0.327942997 0.05789309 0.999271572 -0.0375328101 0.00689864485 -0.115661882 0.962023854 0.247249693 -0.548665285 -0.835936725 0.0132723432 -0.787655234 -0.61131984 0.0767286643 -0.942653954 -0.199793801 0.267368555 -0.986468911 0.070902124 0.147824332 -0.00655624876 -0.999976516 0.00199864642 -0.518507898 -0.841488898 0.15180923 -0.163622156 0.984969854 -0.055337362 0.265180737 0.963534772 -0.0357760116 -0.328043044 0.942996442 -0.0560846031 0.0254891589 0.0984476656 -0.994815767 0.0415605791 0.0406847 -0.998307288 0.0648064539 0.0329993069 -0.997352064 0.745466053 0.2321558 -0.624807239 0.712758183 0.701386452 -0.00572273368 0.725753188 -0.157486349 -0.669686735 -0.00436638203 0.0567817427 -0.998377085 0.0256019682 0.0362324752 -0.999015391 0.030822482 -0.0187409092 -0.999349177 0.970389664 -0.240222901 -0.0252368227 0.918521404 -0.380765021 0.106472462 0.944666028 -0.322325081 0.0609316789 -0.685839653 0.722686291 -0.0857233927 -0.908685565 0.346642822 0.232657075 -0.187957123 0.680823982 0.707920074 0.700681031 -0.711606324 -0.0515997484 0.676032007 -0.545846581 -0.495007277 -0.0370866954 0.523382545 0.851290345 -0.565573633 0.552958727 0.611852169 0.357923359 -0.43470642 -0.826390445 0.299122453 -0.375233144 -0.877340198 -0.0164768845 -0.00797251705 -0.999832451 0.994278014 -0.102787636 0.0290845241 -0.0235670581 -0.311682552 -0.949893951 -0.281955034 -0.762584269 -0.582208395 -0.242297351 0.555816352 -0.795210779 -0.448761016 0.712993085 -0.538752615 -0.178356826 0.894448698 0.410061479 -0.639461339 0.458007723 0.617509663 -0.286767155 0.00413837424 0.957991362 -0.0218464527 -0.20097746 0.979352236 -0.0232437178 -0.133807912 0.990734637 -0.0225901399 -0.165952057 0.98587507 0.746541679 -0.34470433 -0.569082141 0.766322076 -0.222605214 -0.602658629 -0.767974555 0.133037925 0.626510978 0.978424072 -0.123505019 -0.165628687 0.0805025399 0.00801467616 -0.996722162 0.0203963872 -0.0563257039 -0.998204112 0.0363248922 -0.0499668084 -0.998090088 0.88063705 -0.283692002 0.379469663 0.088971287 0.0405003093 -0.995210469 0.271987885 -0.772686362 -0.573566377 0.654796004 -0.738050878 -0.162859172 0.146759301 -0.988004863 -0.0480421484 -0.135047033 -0.987999558 -0.0749609992 0.429418445 -0.692264676 -0.579973578 -0.414629877 -0.0419366099 -0.909023285 -0.19199267 -0.177886784 -0.965139925 0.729583204 -0.305640101 -0.611794412 -0.350217402 -0.158350676 -0.923186243 0.405626386 -0.636665404 0.655838668 0.00104458036 -0.000336257217 0.999999404 -0.65716821 0.462365568 0.595271349 -0.364917427 0.800185978 -0.475959718 -0.845712066 0.530003488 -0.0621880367 -0.27230379 0.791651905 -0.546935022 -0.658204913 0.746796072 -0.0951937661 -0.955350399 0.294490188 -0.0241080504 0.19216907 -0.944200575 0.267500103 -0.000664116524 -0.31334725 0.949638367 0.532140136 -0.180130586 -0.827272534 0.549763203 0.126994312 -0.825610578 0.000807131932 -0.00253225514 0.999996483 -0.915790617 0.242820039 -0.319946796 -0.721782684 0.0164772905 -0.691923559 0.873076618 -0.485176027 -0.0483883284 -0.997141838 0.0613249801 -0.0441292785 -0.790488005 0.0240704697 0.612004399 -0.436738491 -0.164458528 -0.884427965 0.653285384 0.340449482 -0.676248729 0.988370061 0.06525857 -0.13735345 -0.131881356 0.0284192506 -0.990858018 -0.0910842568 0.014915986 -0.995731473 -0.196060553 0.153593063 -0.968488216 -0.112587936 0.157386824 -0.981098056 -0.712887943 0.68018055 -0.170719534 0.112867221 0.819179118 -0.562322438 0.294473201 0.933044314 0.206673279 0.591437995 0.806337416 0.00459647272 0.517643809 0.851468086 0.0839463025 0.532962799 0.844641089 0.0503198951 0.124168694 0.00813195296 -0.992227793 -0.165207192 -0.0903462917 -0.98211205 -0.174952239 -0.142914921 -0.974149406 -0.764410675 -0.644650519 -0.01010348 -0.888780117 -0.456781209 -0.0376947708 -0.0215342399 -0.0289986506 0.999347448 -0.0407978594 -0.0336150862 0.998601794 -0.0331537575 -0.00381202484 0.999442995 -0.0452307835 0.232437491 -0.971559048 -0.0537607595 -0.0323129334 0.998030901 0.00601361692 0.00171747897 0.99998045 0.744616091 0.656772375 -0.119150944 0.944776118 0.327649623 -0.00662222458 -0.866424084 -0.49907741 0.0152014382 0.00949691422 0.0366819501 0.999281883 0.0100985626 0.0529131442 0.998548031 -0.160391986 -0.0676591694 -0.984731793 -0.750069976 -0.212929323 -0.626143873 -0.828511059 -0.55935961 0.026197413 -0.41204229 0.642149091 -0.646425366 0.474134862 -0.487894833 0.732908428 0.336681306 -0.435678661 0.834763348 0.758257151 -0.547863424 0.35340029 0.00318049314 -0.994876206 -0.101050794 -0.296655774 -0.765664041 -0.570748568 -0.0659533963 -0.0225256532 -0.997568429 -0.870018005 -0.00513813412 0.492993176 -0.587762535 -0.649087727 -0.482928842 -0.343446344 -0.938931882 0.021248484 -0.116600677 -0.0539343953 -0.991713345 -0.999955654 -0.00568024488 -0.0075086751 -0.0975595862 -0.99513334 0.0138497073 0.973957598 0.224774987 0.0297124963 -0.713741779 -0.677908421 0.176104635 0.963351548 0.108333595 0.24539277 -0.803407073 0.593957543 0.0418508798 0.118004762 -0.0290184487 0.992588937 0.0108443694 0.036402978 0.999278367 0.171568364 -0.0619782358 0.983220696 0.778079629 -0.450157106 0.438121736 -0.828605413 0.0732527748 -0.555019915 -0.0373925455 0.0656301901 0.997143149 -0.0100219464 -0.957533181 0.28814888 0.200325474 -0.965360105 0.167181224 0.674690664 -0.724477291 -0.14115651 -0.0182508472 -0.342847258 0.939213872 -0.000469179591 -0.722367406 -0.691509306 0.354883015 -0.818168521 0.452391773 0.91236943 0.259063631 0.316966921 0.67687875 0.672637641 0.298987776 -0.505685925 0.86200279 0.0351132601 -0.998238981 -0.0435096771 0.0403212793 0.0685793087 -0.120678827 0.990319908 -0.334778547 -0.216102555 0.917182088 -0.749129355 -0.059836857 0.659715652 -0.700634241 -0.0238424968 0.713122189 -0.215825617 -0.0598058738 -0.974598646 0.210425884 0.306551188 -0.92830348 -0.235699162 -0.76250422 0.602522433 -0.996969402 0.0419574045 -0.0655106008 -0.00659694197 -0.00588513911 0.999960899 0.362012088 0.462606102 -0.809285402 0.0172694661 -0.999216259 0.0356183089 -0.595849097 -0.793809175 0.121781692 0.0677872002 -0.265120834 -0.961829424 -0.0956308171 0.991419554 0.0891180187 -0.220708996 0.975257397 -0.0126697831 -0.0243635271 -0.0753024891 0.996863067 0.749556005 0.25799346 0.609594285 -0.0517185815 -0.00465251133 0.998650849 0.0429422148 0.105439939 0.993498027 0.783262014 0.272516638 0.558780193 -0.240916222 0.970207632 0.0256238542 -0.00234818505 0.0925087184 -0.995709121 0.0378221534 -0.293475956 0.955217957 0.793507934 0.606915832 -0.0447021499 -0.822937071 -0.459702939 0.333838046 0.00154103059 0.00419810368 0.999989986 -0.667647779 -0.0150702819 -0.744324744</float_array>
          <technique_common>
            <accessor source="#normals_array" count="330" stride="3">
              <param name="X" type="float" />
              <param name="Y" type="float" />
              <param name="Z" type="float" />
            </accessor>
          </technique_common>
        </source>
        <vertices id="vertices">
          <input semantic="POSITION" source="#positions" />
        </vertices>
        <triangles material="qmat_a51b34f6a238e212" count="396">
          <input semantic="VERTEX" source="#vertices" offset="0" />
          <input semantic="NORMAL" source="#normals" offset="1" />
          <p>0 0 1 1 2 2 1 1 3 3 4 4 5 5 6 6 7 7 5 5 0 0 8 8 3 3 9 9 4 4 10 10 4 4 11 11 2 12 12 13 13 14 14 15 15 16 16 17 14 15 17 18 15 16 8 19 17 20 18 21 19 22 6 23 18 24 19 25 20 26 21 27 22 28 18 21 23 29 1 1 7 7 3 3 18 30 24 31 25 32 24 33 22 28 23 29 5 34 24 34 6 34 7 7 26 35 9 9 22 28 5 5 8 8 8 19 18 21 22 28 14 15 19 22 17 18 0 36 17 20 8 19 7 7 6 6 26 35 10 10 11 11 27 37 28 38 27 37 29 39 30 40 31 41 32 42 27 37 33 43 34 44 35 45 36 46 37 47 27 37 34 44 38 48 29 39 39 49 40 50 36 51 28 52 29 53 41 54 28 52 36 51 19 22 14 15 42 55 12 56 43 57 44 58 45 59 46 60 47 61 48 62 49 63 32 64 49 65 30 40 32 42 32 66 50 67 51 68 45 69 36 51 49 65 20 70 52 70 53 70 9 9 26 35 54 71 4 4 9 9 55 72 26 35 56 73 54 71 24 33 23 29 57 74 58 75 20 76 53 77 15 78 53 79 59 80 17 20 13 14 15 78 60 81 15 78 59 80 15 16 20 76 58 75 55 72 54 82 56 73 60 83 59 84 26 35 15 78 60 81 25 85 26 35 59 84 56 73 25 32 21 86 20 76 57 74 23 29 61 87 57 88 21 86 25 32 21 89 57 90 61 91 55 72 56 73 62 92 11 11 55 72 33 43 55 72 62 92 38 48 63 93 64 94 65 95 63 96 66 97 67 98 62 92 63 96 68 99 62 92 68 99 69 100 38 48 69 101 68 102 70 103 71 104 68 99 72 105 73 106 64 94 34 44 33 43 38 48 33 43 55 72 38 48 44 107 74 108 12 13 75 109 76 110 77 111 78 112 79 113 72 114 13 115 74 115 80 115 13 116 80 116 81 116 12 13 74 108 13 14 77 111 76 110 79 117 42 118 82 119 20 26 83 120 84 121 63 96 16 17 15 16 76 110 52 122 83 120 62 92 66 123 63 93 85 124 58 75 53 77 83 125 20 126 86 127 52 128 86 127 83 129 52 128 76 110 58 75 86 130 13 14 87 131 15 78 15 78 83 132 53 79 15 78 87 131 83 132 88 133 89 134 90 135 91 136 29 39 92 137 93 138 94 139 95 140 37 47 88 141 96 142 37 47 36 46 88 141 97 143 98 144 31 145 97 143 99 146 100 147 97 143 100 147 98 144 96 142 101 148 102 149 103 150 104 151 99 146 105 152 35 45 37 47 106 153 107 154 103 150 108 155 88 133 90 135 93 138 31 41 109 156 100 147 93 157 110 158 104 151 103 150 107 159 99 160 89 161 93 162 93 162 89 161 94 163 35 164 106 153 36 165 111 166 112 167 113 168 112 169 114 170 115 171 102 149 116 172 114 173 102 149 101 148 116 172 96 142 102 149 112 167 114 170 116 172 115 171 116 172 117 174 115 171 118 175 119 176 120 177 121 178 73 179 122 180 94 163 123 181 121 182 124 183 85 124 65 95 67 98 125 184 126 185 98 144 122 186 127 187 128 188 129 189 123 190 109 191 121 178 122 180 98 144 127 187 72 105 130 192 67 98 131 193 132 194 133 195 134 196 135 197 128 198 134 196 135 197 134 196 133 195 121 199 136 200 73 201 40 50 39 49 70 103 31 145 98 144 72 105 92 137 137 202 138 203 72 105 127 187 73 106 73 106 127 187 122 186 129 204 135 197 133 195 116 172 139 205 117 174 120 177 140 206 141 207 140 206 142 208 141 207 117 174 125 184 143 209 143 210 142 208 140 206 125 184 144 211 142 212 104 213 51 68 90 214 104 213 32 66 51 68 145 215 51 216 146 217 146 217 147 218 145 215 145 215 148 219 51 216 149 220 150 221 128 198 151 222 152 223 153 224 154 225 155 226 153 224 155 226 156 227 153 224 148 228 149 220 108 229 148 228 145 215 149 220 37 47 96 142 154 225 48 62 107 154 106 153 51 68 50 67 75 109 157 230 75 109 158 231 150 221 159 232 128 198 146 217 157 233 160 234 147 218 150 235 149 220 145 215 147 218 149 220 108 229 149 220 128 198 148 219 90 135 51 216 153 224 161 236 162 237 95 140 94 139 163 238 147 218 164 239 159 240 150 235 147 218 159 240 112 169 115 171 118 175 165 241 166 242 156 243 156 243 166 242 167 244 155 226 113 168 165 245 168 246 169 247 170 248 171 249 84 250 85 124 147 218 160 251 164 239 172 252 173 253 131 193 174 254 172 255 131 193 173 253 130 192 131 193 81 256 175 257 174 258 164 239 176 259 168 246 44 58 80 260 74 261 158 231 77 111 176 262 77 111 78 263 176 262 78 263 171 249 176 262 162 237 172 255 175 264 134 196 170 265 169 266 176 259 132 194 168 246 161 267 173 253 172 252 161 236 177 268 173 269 132 194 169 270 168 246 66 97 131 193 67 98 136 271 85 272 124 273 178 274 179 275 144 211 166 242 120 177 180 276 156 227 167 277 177 268 173 269 181 278 130 279 130 279 181 278 178 274 177 268 181 278 173 269 180 276 120 177 182 280 141 207 144 211 179 275 167 244 180 276 177 268 177 268 179 275 181 278 10 10 1 1 4 4 0 0 5 5 7 7 17 20 2 12 13 14 17 18 19 22 18 24 6 281 19 25 21 27 0 0 7 7 1 1 6 23 24 282 18 24 22 28 24 33 5 5 3 3 7 7 9 9 0 36 2 12 17 20 41 283 1 1 10 10 28 38 41 283 10 10 27 37 28 38 10 10 49 65 36 51 30 40 27 37 11 11 33 43 30 284 36 165 106 153 39 49 27 37 38 285 29 39 27 37 39 49 45 69 41 54 36 51 2 2 1 1 41 54 30 284 97 143 31 145 42 55 14 15 16 17 20 26 19 25 42 118 47 61 46 60 183 286 45 59 105 152 46 60 49 287 105 288 45 289 48 62 35 164 49 63 2 12 45 59 47 61 2 12 47 61 12 13 42 55 16 17 95 290 50 291 32 42 95 140 95 290 16 17 50 67 35 292 105 288 49 287 2 2 41 54 45 69 12 13 47 61 183 286 11 11 4 4 55 72 56 73 59 84 53 293 62 92 56 73 184 294 55 72 9 9 54 82 25 32 24 31 57 88 23 29 18 21 25 85 184 294 53 293 52 122 56 73 53 293 184 294 21 89 61 91 60 295 26 35 21 296 60 83 26 35 6 6 21 296 15 16 25 32 20 76 23 29 60 81 61 87 23 29 25 85 60 81 69 101 38 48 62 92 78 112 72 114 64 297 71 298 38 298 68 298 65 95 64 94 73 106 70 103 39 49 38 285 70 103 38 285 71 299 75 109 50 67 76 110 76 110 82 300 79 117 95 140 163 238 79 113 82 119 95 140 79 113 50 67 16 17 76 110 42 118 95 140 82 119 63 96 84 121 64 297 20 26 82 119 86 301 82 300 76 110 86 130 86 130 58 75 83 125 78 112 64 297 84 121 66 97 83 132 131 193 171 249 78 263 84 250 13 14 81 302 87 131 87 131 81 302 174 254 87 131 174 254 83 132 84 250 66 123 85 124 66 303 84 303 83 303 76 110 15 16 58 75 62 92 83 120 63 96 184 294 52 122 62 92 101 304 108 229 128 198 101 148 91 136 92 137 29 39 40 50 92 137 95 140 31 41 93 138 36 46 29 39 91 136 88 141 36 46 91 136 100 147 99 146 93 157 91 305 101 304 185 306 89 134 91 307 185 308 88 133 91 307 89 134 96 142 88 141 101 148 99 160 104 213 90 214 99 160 90 214 89 161 106 153 103 150 99 146 97 143 106 153 99 146 32 42 31 41 95 140 109 156 31 41 72 114 110 158 93 157 109 191 88 309 108 229 101 304 94 163 89 161 128 310 98 144 100 147 110 311 185 306 101 304 128 198 89 134 185 308 128 312 30 284 106 153 97 143 96 142 112 167 111 166 116 172 101 148 92 137 112 167 102 149 114 173 118 175 115 171 119 176 116 172 92 137 139 205 119 176 115 171 140 206 94 163 128 310 123 181 125 184 67 98 186 313 85 124 63 93 65 95 65 314 136 314 124 314 98 144 110 311 122 186 129 204 128 198 135 197 123 190 129 189 133 195 121 315 109 156 72 114 110 158 109 191 122 180 130 279 186 313 67 98 137 202 70 103 68 99 132 194 123 190 133 195 132 316 136 317 123 181 136 317 121 182 123 181 73 201 136 200 65 318 92 137 40 50 137 202 137 202 40 50 70 103 163 238 121 315 72 114 163 238 94 139 121 315 68 99 63 96 67 98 137 202 68 99 67 98 139 205 92 137 138 203 126 185 138 203 137 202 126 185 137 202 67 98 125 184 138 203 126 185 143 209 125 184 142 212 182 280 120 177 141 207 186 313 130 279 178 274 141 207 142 208 144 211 120 177 119 176 140 206 117 174 139 205 125 184 139 205 138 203 125 184 140 206 115 171 117 174 140 206 117 174 143 210 125 184 178 274 144 211 125 184 186 313 178 274 104 319 48 62 32 64 46 320 151 222 183 321 146 217 51 216 157 233 152 223 154 225 153 224 153 224 156 227 161 236 154 225 96 142 111 166 155 226 154 225 111 166 46 60 105 152 152 223 148 219 108 155 90 135 152 223 37 47 154 225 107 322 48 62 104 319 151 222 46 60 152 223 152 223 105 152 37 47 157 230 51 68 75 109 183 321 151 222 43 57 106 153 35 164 48 62 44 58 43 57 162 237 43 323 12 13 183 286 147 218 146 217 160 251 43 57 151 222 162 237 151 222 153 224 162 237 113 324 112 169 118 175 166 242 118 175 120 177 155 226 165 245 156 227 165 241 113 324 118 175 165 241 118 175 166 242 155 226 111 166 113 168 171 325 85 272 136 271 81 256 80 260 175 257 131 193 83 132 174 254 80 260 162 237 175 257 187 326 164 239 168 246 187 326 168 246 170 248 174 254 175 264 172 255 160 327 158 327 176 327 44 58 162 237 80 260 158 231 75 109 77 111 77 111 79 117 78 263 176 262 171 249 132 316 128 198 159 232 187 328 134 196 187 328 170 265 171 249 136 317 132 316 160 234 157 233 158 329 187 326 159 240 164 239 162 237 161 236 172 255 128 198 187 328 134 196 132 194 134 196 169 270 164 239 160 251 176 259 163 238 72 114 79 113 167 244 166 242 180 276 161 236 156 227 177 268 178 274 181 278 179 275 182 280 141 207 179 275 180 276 182 280 179 275 177 268 180 276 179 275</p>
        </triangles>
      </mesh>
    </geometry>
  </library_geometries>
  <library_visual_scenes>
    <visual_scene id="scene">
      <node id="link5_stl">
        <instance_geometry url="#geometry">
          <bind_material>
            <technique_common>
              <instance_material symbol="qmat_a51b34f6a238e212" target="#qmat_a51b34f6a238e212" />
            </technique_common>
          </bind_material>
        </instance_geometry>
      </node>
    </visual_scene>
  </library_visual_scenes>
  <scene>
    <instance_visual_scene url="#scene" />
  </scene>
</COLLADA>