<?xml version='1.0' encoding='utf-8'?>
<COLLADA xmlns="http://www.collada.org/2005/11/COLLADASchema" version="1.4.1">
  <asset>
    <created>2026-09-14T00:00:00Z</created>
    <modified>2026-09-14T00:00:00Z</modified>
    <unit name="metre" meter="1" />
    <up_axis>Z_UP</up_axis>
  </asset>
  <library_effects>
    <effect id="qmat_76668c90192cb1f5_effect">
      <profile_COMMON>
        <technique sid="common">
          <lambert>
            <emission>
              <color>0 0 0 1</color>
            </emission>
            <diffuse>
              <color>0.79216078 0.81961176 0.92941569 1.0</color>
            </diffuse>
          </lambert>
        </technique>
      </profile_COMMON>
    </effect>
  </library_effects>
  <library_materials>
    <material id="qmat_76668c90192cb1f5" name="qmat_76668c90192cb1f5">
      <instance_effect url="#qmat_76668c90192cb1f5_effect" />
    </material>
  </library_materials>
  <library_geometries>
    <geometry id="geometry" name="link2_stl">
      <mesh>
        <source id="positions">
          <float_array id="positions_array" count="867">-0.000467828126 0.0387500003 0.00451193098 -0.000144193706 0.0323831588 -0.00518604834 -0.00421946868 0.0323313251 0.00368122291 0.0258940198 0.0322411507 0.0158822779 0.00999760441 0.0322115608 0.0290333461 0.0162265897 -0.0291572604 0.0255858079 0.00371801946 0.0292638205 0.0289924908 0.0243783873 0.0292228051 0.0172450803 0.0101851895 0.0195593406 0.0285646804 0.0299999993 0.0321830958 -0.00147136475 0.028584782 0.0195051208 0.00762587134 -0.00877344143 0.0194417424 0.0291783996 -0.0396510474 0.0214424748 0.0297139473 0.000466962229 0.0387500003 -0.00450470438 0.00351836882 0.0323606916 0.00453198934 -0.0395533331 0.0322324 0.0298070982 0.000500030757 -0.029109383 0.0299999993 0.00968909916 0.0292073861 -0.0280417744 0.0263079833 0.0292101894 -0.0137548298 0.00707105128 0.0194547251 -0.0293472502 0.0234571416 0.0195161626 -0.0179098975 -0.0294500832 0.0291428305 -0.0181314889 0.0140918009 0.0323380791 -0.0267711468 -0.00819654483 0.0191287473 -0.0291428138 -0.0192047767 0.0204885751 -0.0229788199 -0.0080809053 0.0291848797 -0.0296278223 -0.00901523698 -0.0189150479 0.0294737518 -0.0392153375 -0.0267434344 0.029815698 -0.0150486063 -0.0289274845 0.0239398871 -0.00859798118 -0.0280086938 0.0183997899 0.0102828033 -0.0276965573 0.0182635467 0.00252553308 -0.0256297365 0.0050965175 -0.0126276659 -0.0253461748 0.00760812405 -0.00581707666 -0.0264457278 0.00346409832 -0.0135191027 -0.0269934852 0.00130146381 0.0173165798 -0.0278740842 0.00786594953 0.0113653112 -0.0253345128 0.0054608332 0.0198705923 -0.0281724334 -0.0045527909 0.0299999993 -0.028950626 0.00251774932 1.72390774e-05 -0.0248933993 -0.0136843752 -0.0102276364 -0.0284347013 -0.0192235131 0.009927053 -0.0278348103 -0.0178164095 -0.000563714886 -0.026227966 -0.00589277456 0.00861969683 -0.0290585831 -0.0292639285 0.0257214885 -0.0292034335 -0.0160210654 -0.0104268696 -0.0188934878 -0.0288992617 -0.0100955656 -0.028123321 -0.0296362787 -0.039565824 0.0321964696 -0.0299879033 -0.0286997966 0.023749901 0.019647561 -0.0207929481 0.028670365 0.0270008277 -0.0219472125 0.0195568223 0.0184493326 -0.0290578436 0.028917389 0.0148272933 -0.029982103 0.0177377444 0.0290215276 -0.0232151896 0.0177580062 0.0192627423 -0.0301274396 -0.0168937445 0.00692722714 -0.0233239792 -0.019004276 0.0199004672 -0.0291725434 0.0185072068 0.00816314202 -0.0291348305 0.0191938132 -0.00886044092 -0.0342223197 0.0205147751 0.0217377748 -0.0329193696 0.0136102326 -0.000535662402 -0.0304968692 0.014174181 0.0108761955 -0.0304238331 -0.0109905247 0.0177894849 -0.0392411388 0.0291085877 0.0203600731 -0.0331066437 0.00179917074 -0.021352116 -0.0331677273 0.00182475231 0.0213716161 -0.0392991118 0.0290526506 -0.020556353 -0.0403404273 0.0269008148 -0.0191183481 -0.0404863618 0.0266487952 0.0197832193 -0.0403569937 0.0209574942 0.0244759731 -0.0453879237 0.00240965188 0.00940631609 -0.0512237735 0.00174144888 0.0189726464 -0.0473063737 0.0028900872 -0.00978644844 -0.0299940761 0.0179079939 -0.0289556719 -0.0310434178 0.0128207728 -0.0174868647 -0.0301507786 -0.0161285531 -0.0167210326 -0.0246887002 0.0198756121 -0.0168656614 -0.0406752713 0.0249841884 0.0158442818 -0.0404736511 0.024886366 -0.0176383536 -0.0402830206 0.021445781 -0.0244661346 -0.0342280529 0.0195777677 -0.0216832999 -0.0511794686 0.00172680058 -0.0202271827 -0.0299174767 -0.0189942904 -0.0290730502 -0.0397025384 -0.0252654403 -0.0297628306 -0.0402671248 -0.0188642684 -0.0244398434 -0.029938804 0.0155776609 -0.00760537852 -0.0305747669 -0.0113303335 -0.00496659568 -0.040322952 -0.019071091 0.024438737 -0.0218863524 -0.0267710239 0.0212213788 -0.0300271921 -0.0190138463 0.0293137487 -0.0213815738 -0.0284636654 2.61491437e-06 -0.0294875149 -0.0292499997 0.00672199531 -0.039556101 -0.0232021846 0.0215642583 -0.0412274748 -0.0249914825 0.0175665487 -0.0395397395 -0.0232780352 -0.021530265 -0.0265074838 -0.0291631855 -0.0146787157 -0.0223188773 -0.0263851136 -0.0210341103 -0.0243919101 -0.0188093651 -0.0177199952 -0.0312949345 -0.0223398767 -0.000525056268 -0.0373620279 -0.0270342771 -0.021788802 -0.100296654 -0.0249622017 -0.0150001869 -0.0160940811 -0.0279864483 -0.0120740132 -0.0220448468 0.0177782234 -0.0210156981 -0.103723817 -0.0249000899 -0.0170458686 -0.223984838 -0.0242164731 -0.0203764234 -0.0998417139 -0.0248047505 0.0181005765 -0.101382248 0.00314686284 0.0214519836 -0.0962575525 0.0253365431 0.015376023 -0.0991988853 0.0250372272 -0.00984386541 -0.100902557 0.0176786892 0.0217575934 -0.100042053 0.0210327823 -0.0217818022 -0.0996123329 0.0271699056 -0.00927863363 -0.223652974 0.0268177558 -0.0190747548 -0.101615213 0.00345855858 -0.0214410126 -0.124968179 -0.0251716189 -0.00918467157 -0.160149604 -0.0248791669 -0.0181000736 -0.110794842 -0.0255866591 -0.000764720957 -0.223746076 -0.0191270113 -0.02448144 -0.100589037 -0.0210596677 0.0148490882 -0.103162311 -0.0250771344 0.012836244 -0.103457391 -0.0248470344 0.0165469907 -0.159971431 -0.024779493 0.0160325654 -0.136320487 -0.0253016762 0.00703118742 -0.163831443 -0.0248042885 0.0181516632 -0.122049376 -0.0252296682 0.00616008695 -0.223703504 -0.0201653186 0.0244135708 -0.103005655 -0.0250781942 -0.0125138555 -0.10858351 0.0271064453 0.00910037104 -0.112368882 0.0275754519 -0.00047541465 -0.0979152843 0.0158288777 0.013652334 -0.0985912457 0.00176063715 0.0137601076 -0.101683758 0.0209534913 0.0163242612 -0.10272792 0.0217499994 0.0128115416 -0.106009133 0.0156183746 0.0127546117 -0.107837521 0.0250098947 0.0163954925 -0.10345336 0.0180922709 0.022031704 -0.159327656 0.0214138255 0.0216227192 -0.105400749 0.00182143517 0.0138679277 -0.100408413 0.00178274442 -0.0123785799 -0.161281019 0.00178657682 0.0212053824 -0.101683758 0.0209534913 -0.01367574 -0.10272792 0.0217500012 -0.0171884596 -0.106084727 0.015828874 -0.013652334 -0.10273055 0.00180137902 -0.0213467963 -0.107656583 0.0245801099 -0.0174073093 -0.103129737 0.0182386599 -0.0220504869 -0.0979908705 0.0156183727 -0.0127546089 -0.129561916 0.027465988 0.00606873818 -0.126822621 0.0271901805 -0.0108876573 -0.156713128 0.0249757003 -0.0160960946 -0.163305148 -0.025022801 -0.0127769569 -0.157229081 -0.0252258908 0.00247826031 -0.163930416 -0.024542205 -0.0161061157 -0.160627872 -0.0211759731 -0.0149340881 -0.149002597 -0.025471054 -0.00356890447 -0.136717364 -0.0251286868 -0.00909877196 -0.163372129 -0.0211759564 0.0149340909 -0.160986513 -0.0237669069 0.0132261598 -0.223072648 -0.0248500016 0.0184994582 -0.16332306 0.0250359792 0.00898556784 -0.153257504 0.0274576396 0.00371483923 -0.223660335 0.0266728979 0.0198357403 -0.22376287 0.0208871495 0.024421867 -0.158064678 0.0156143028 0.0136766797 -0.166009143 0.0156183736 0.0127546061 -0.163591847 0.00177247508 0.0123779513 -0.163550496 0.0183595382 0.0142662851 -0.159617767 0.0234224703 0.0164491478 -0.162848905 0.0249891076 -0.00895039365 -0.223380744 0.0249849372 -0.0157979112 -0.16673331 0.0241791531 -0.0182046928 -0.166084722 0.0158288721 -0.0136523312 -0.16277729 0.0017649061 -0.0210809764 -0.160408273 0.00177674205 -0.0123782083 -0.161683768 0.0209534969 -0.0136757409 -0.162727922 0.0217500106 -0.0171884578 -0.161201134 0.0193784833 -0.0218453892 -0.161308944 0.00266124168 -0.021235127 -0.163122937 0.0179701746 -0.0220247805 -0.158103004 0.0157919712 -0.0124930516 -0.142471641 0.0271518882 -0.0105768386 -0.159120202 0.0270481762 -0.00787309743 -0.223735318 0.0218122657 -0.0243408643 -0.133294702 0.0277612824 -0.00260134204 -0.16397199 0.0211572591 0.0217216872 -0.223381951 0.0249342471 0.0161618423 -0.162388399 0.00340356235 0.0213370323 -0.230902806 0.00182792288 0.0213669762 -0.23074536 0.00184661453 -0.0214189272 -0.233994722 0.00455053337 0.0267748218 -0.233421862 -0.012867162 0.0171226095 -0.234068602 -0.0189961139 0.0290981401 -0.238106519 -0.0187683068 0.0154075101 -0.251219928 -0.0189132039 0.0284003969 -0.251283616 -0.0279764179 0.0289993808 -0.224282801 -0.0252735596 0.0298471507 -0.226638049 -0.027037181 0.0217888169 -0.240526915 -0.0279058721 0.02037788 -0.232707202 -0.0223702174 0.000434290938 -0.234128043 -0.0292499997 -0.00576231349 -0.242618516 -0.0284636803 -3.46739216e-06 -0.224347293 0.0282852966 0.029676849 -0.234043941 0.0181157552 0.029306069 -0.256094635 -0.0283357445 0.0189553071 -0.247905567 -0.0279863756 0.0120734842 -0.212892756 0.00167883374 0.0186703205 -0.218393117 0.00256705517 0.00925624929 -0.231454432 0.0290828682 0.0204415061 -0.229909405 0.0201898385 0.0216488354 -0.234571844 0.0190970581 0.00908283796 -0.231035054 0.0144536747 0.00433704583 -0.234797001 0.0189838465 -0.00877002254 -0.24211821 0.0177702066 0.0211499017 -0.234675869 0.0162625499 0.00842476916 -0.233109951 0.013478145 0.0170285217 -0.235439986 0.0284087379 0.00805800594 -0.23588334 0.0282615218 -0.00760440761 -0.258561373 0.0292951223 0.00675814692 -0.270704299 0.0194918625 0.0294503439 -0.239819124 0.020062279 0.018395815 -0.243962422 0.0265035424 0.0196714345 -0.239581347 0.0287225004 0.0248158034 -0.256664276 0.028323682 0.0277724471 -0.258719176 0.028258305 0.00377398776 -0.244337365 0.0251496639 0.028965408 -0.255256802 0.019283291 0.0289891679 -0.254909247 -0.0189143997 -0.0294468217 -0.240829229 0.017772723 -0.0194527917 -0.24237062 -0.0189681984 -0.0210336577 -0.224524081 0.0284740683 -0.0297110993 -0.224855319 -0.0267318711 -0.0298197437 -0.233832225 0.0106183607 -0.0218611509 -0.233982235 -0.0185109228 -0.0292683896 -0.233067125 -0.0107200826 -0.0175527893 -0.233981594 0.0179874487 -0.0291732457 -0.241886571 -0.0268360302 -0.0210259091 -0.235397115 -0.0176340807 -0.0100251054 -0.25580284 -0.0287938789 -0.0296679325 -0.253127456 -0.0286298245 -0.018402148 -0.233454674 0.02917004 -0.0190621931 -0.239715517 0.0289915744 -0.0245249607 -0.215697408 0.0026885923 -0.0100883879 -0.232695878 -0.010536707 -0.00478469813 -0.233432189 0.0139100747 -0.00643124571 -0.257354647 0.030252438 -0.00403316505 -0.237598032 0.0201571845 -0.0169047955 -0.245923042 0.0254129339 -0.0252679382 -0.229644179 0.0207410939 -0.021637544 -0.254935235 0.0192376003 -0.0289715528 -0.256786406 0.0280411877 -0.028933065 -0.271384567 0.0195032787 -0.0292122141 -0.244139969 0.0198246799 -0.0211724155 -0.275420845 0.028606005 0.0274495613 -0.289989829 0.0278838035 0.0127590662 -0.270576984 0.0316712074 0.0017299446 -0.26396504 0.0348160267 0.00728638098 -0.270593077 0.0294436589 0.00554544013 -0.287551314 0.0195273273 0.0176572464 -0.291825145 0.0195356514 -0.0118173743 -0.279944718 0.0270261727 0.0231156908 -0.28500098 0.0291730873 0.0214474592 -0.292291909 0.029148221 0.0110846842 -0.284747094 -0.0292358026 0.0220838692 -0.271957308 -0.0292499997 0.0292209685 -0.292046368 0.0291493833 -0.0114861466 -0.269433141 0.0293470789 -0.00673626317 -0.281133652 0.0291830301 -0.0249835178 -0.274565786 0.0275714304 -0.0256803092 -0.276040107 -0.0291649941 -0.028069986 -0.265104443 0.0283004381 -0.00633219536 -0.288291156 0.027572209 -0.0146190859 -0.248743489 0.0282314941 -0.0219451524 -0.264705598 0.0349143706 -0.0073345257 -0.29396978 -0.0290925317 0.00468243426 -0.273281753 -0.0286056064 0.018292537 -0.265544206 -0.0258008316 0.00544880005 -0.275344342 -0.0253573228 -0.00548363244 -0.264626205 -0.0260044634 -0.00549453776 -0.282482356 -0.0273524616 0.00821428373 -0.264017254 -0.0248933975 0.013684378 -0.26023528 -0.0265852958 0.00508399308 -0.252341449 -0.0266811661 -0.00187466096 -0.251730949 -0.0263838675 -0.00965101644 -0.274291724 -0.0277328137 -0.0182695966 -0.290940374 -0.0291225277 -0.0133582726 -0.28133601 -0.0279715192 -0.0078733908 0.0237645432 0.03222486 -0.0183190349 -0.0227547567 0.0290821493 -0.0282571595 -0.102383383 0.00350715197 0.0214375518 -0.23342523 -0.0113303075 0.00496654492</float_array>
          <technique_common>
            <accessor source="#positions_array" count="289" stride="3">
              <param name="X" type="float" />
              <param name="Y" type="float" />
              <param name="Z" type="float" />
            </accessor>
          </technique_common>
        </source>
        <source id="normals">
          <float_array id="normals_array" count="1695">-0.889017403 0.368585318 -0.271648467 -0.233312026 0.970809817 -0.0556223765 -0.197283909 0.976362169 -0.0882950872 0.850320876 0.00862910133 0.526193857 0.37771222 -0.00548056047 0.925906837 0.599754572 -0.0351201296 0.799412906 -0.474967569 -0.279741883 -0.834356248 -0.666687489 -0.579796135 -0.468363374 -0.557699859 -0.139371753 -0.818258166 0.00473087328 0.999987245 0.00176642206 0.00675701862 0.999976695 -0.000976130716 -0.975866079 -0.113166809 -0.186758354 0.161510751 0.732546031 -0.661279559 -0.00647041248 0.999944806 -0.0082749296 0.000180872521 1 -7.59334353e-06 0.0380740501 -0.0672947317 -0.997006416 0.0463337302 -0.077777639 -0.995893478 0.0161839277 -0.0114253564 0.999803722 0.0365902334 -0.0202825144 0.999124527 0.0159386583 -0.0215961747 0.99963969 0.963211238 0.186945185 -0.193068892 0.845037282 0.527481556 0.0876082927 0.942707956 0.32083109 -0.0914826468 0.934442818 -0.0519968122 -0.35229668 0.00147841836 0.999982715 0.00569554139 0.00248739822 0.99999404 0.00239540963 -0.00202822196 0.999996781 0.00153019337 -0.10881792 -0.0647757798 0.991948962 0.150257722 -0.0185480323 0.988472879 -0.274907082 0.0165669266 0.96132803 0.116857454 0.00540833129 0.993133962 0.00118666166 -0.999999285 -0.000180220333 -0.731913626 -0.608619809 0.306405514 -0.595136166 -0.00534647098 0.803607106 -0.571915865 0.0438790247 0.819137871 -0.798463821 0.0166719966 0.601811886 0.00495100487 -0.999987602 0.000552451995 0.158953428 0.171099782 -0.972346961 0.339785695 0.665199101 -0.664872766 0.203540117 0.00731063727 -0.979039311 0.00136428326 0.999998212 -0.00130785629 0.141997308 0.932246864 0.332795113 0.361343503 0.841909945 0.400772423 -0.0210085735 0.999473393 0.0247292854 0.0384674855 0.271058589 -0.9617939 -0.989073932 0.105915047 -0.102541208 -0.164023578 0.0268671401 0.986090481 0.0264846906 0.0333388187 0.999093115 0.00470030028 -0.992435515 -0.122676894 -0.260050505 -0.725134194 0.637615979 0.0612789206 -0.990665019 -0.121769063 -0.0717527941 -0.988215029 -0.135213137 0.0543572307 -0.996953428 -0.0559391081 0.211795628 -0.966621101 -0.144174486 0.0318631604 -0.999487996 0.00291749579 0.10346695 -0.985060692 0.137659267 -0.216487691 -0.972399294 -0.0870212913 -0.151404411 -0.987490177 -0.0440442339 -0.119744956 -0.991607785 0.0487355702 -0.091490902 -0.988757491 -0.11827106 -0.0976855606 -0.995195329 -0.00661755912 0.989371538 -0.0309795868 0.142071083 0.998075783 0.0134713706 -0.0605248101 0.00384217617 -0.994386613 0.105737805 0.0536943823 -0.996306717 0.0670062453 -0.0842405111 -0.99067378 0.107093289 0.0205544829 -0.999600887 0.019379843 0.319734752 0.000310106348 -0.947507024 0.843156695 -0.0153691163 -0.537448227 -0.0960957557 -0.99368602 0.0579110682 -0.160046339 0.0298921615 -0.986656785 0.0171751492 0.0812199563 -0.996548235 0.0272908006 0.689607441 -0.723668993 0.791998029 0.264427334 -0.550288379 0.381713331 0.429843485 -0.818247795 0.234170184 0.90768671 -0.348237157 0.170718521 -0.975929499 -0.135708317 0.0862803534 -0.93906188 -0.332743883 0.00620768825 -0.9999699 -0.00465073017 0.153762817 -0.982557714 0.104581788 0.177556157 -0.976632118 0.121092826 0.0795829371 -0.995412052 0.0531174242 -0.668505251 -0.0206797756 0.743419826 0.0329843946 -0.0967646316 0.994760573 -0.86220926 -0.00830950495 0.506484032 -0.734142661 0.013948719 0.678851962 -0.332546979 0.922689438 -0.195081174 -0.330963016 0.914807141 0.231498182 -0.89583832 0.246545807 -0.369714648 -0.892467558 0.00712270383 -0.451055288 -0.952941239 0.303090036 0.00627733395 0.999852896 -0.00178430113 -0.0170580037 0.999820471 0.0177957565 -0.00650750147 0.999598682 0.0247145407 0.0138441306 -0.286309928 -0.813989282 -0.505418658 -0.998917758 -0.0360212624 0.0294250697 -0.999052465 -0.0325816423 -0.0288540646 0.0088223666 -0.999960184 0.00135465362 -0.995374918 0.0707212463 0.0650172904 -0.993503809 0.112614252 -0.0163758844 -0.992031574 0.123801276 0.0233785044 -0.993248582 0.0126182213 0.115317017 -0.990752637 0.00337640056 0.13563861 0.0208859332 0.999732852 0.00989927258 0.0266034603 0.739358723 0.672785938 -0.0057718805 0.999625862 0.0267372597 -0.00340580824 0.997223437 -0.0743899494 -0.0954401791 0.995322227 -0.0149955694 0.00372799463 -0.0556207187 -0.998445034 0.0596760884 -0.0320996344 -0.997701526 0.695207536 -0.718319178 -0.0265338253 0.99492079 -0.100655176 0.00104951474 0.809020102 0.564958572 -0.162198365 0.434561431 0.812939942 0.387666076 0.708613515 0.489379257 0.508305788 0.609092414 -0.112401821 0.785093784 0.971268594 -0.0971741304 -0.217242986 0.593327582 -0.585745454 0.552145541 -0.996542752 0.0587380566 -0.0587569475 -0.994410574 0.0124904038 -0.104840614 -0.504329145 0.00611171452 0.863489866 -0.0077315839 0.982634127 0.185392693 0.0413216688 0.0464925244 -0.998063624 0.048948966 0.0334230736 -0.998241901 -0.724833965 -0.26719287 -0.634998977 -0.666900456 0.0572536774 0.742944002 0.930993736 -0.348435909 -0.108825818 0.980730951 0.183193311 -0.0678749532 -0.991270244 -0.0586509928 0.118081823 -0.641648889 -0.744538963 -0.184251174 -0.419844151 -0.806518137 0.416244388 -0.362796098 0.0239935722 0.931559622 0.0484529138 0.998193741 0.0355183184 -0.00468428899 0.999986351 -0.00231874478 0.070434913 0.996203065 0.0511696301 0.018981915 0.0423055701 0.998924375 0.145380408 -0.989374518 0.0016036391 0.0312441867 -0.999379635 0.0162514187 0.129078671 0.98727119 0.0929206386 0.999601245 0.0164263248 -0.0229678582 -0.300910264 -0.95220691 -0.0524883866 0.340916395 -0.930253148 0.135665238 -0.34631446 -0.854080737 -0.388088137 -0.69337523 -0.625870168 -0.357095689 -0.0541315414 -0.99706316 -0.0541740321 -0.394979566 -0.876152575 -0.27631098 0.696609557 0.716166496 -0.04290355 0.232198521 0.957989335 -0.168345749 -0.00900871772 -0.999957502 0.00197188416 -0.179581791 -0.977100313 0.114128537 -0.0457894281 -0.0949917808 0.994424403 -0.979138434 -0.19857122 -0.043097876 -0.981509626 -0.165926829 0.0954310298 -0.944603026 -0.327096105 0.0270796735 0.0191076454 -0.998626173 -0.0487925261 0.0950682163 -0.992330253 0.0790105239 -0.697260141 0.0100049088 -0.716748297 -0.251485884 0.00855235197 -0.967823207 -0.760433018 -0.0213997886 -0.649063647 0.00406898325 -0.981185794 -0.193022922 0.0431497209 -0.990803063 -0.128247529 0.0620985739 -0.993916214 0.0909632817 0.00133828237 -0.28995803 -0.957038403 -0.000799133966 0.0195422955 -0.999808729 -0.00112416304 0.0207986478 -0.999783039 0.019159222 0.985117376 -0.170811936 0.0178300962 -0.951705098 -0.306495458 -0.00137866056 -0.926524818 -0.376231134 0.0113334563 -0.995110273 0.0981175825 0.0109670712 -0.26458919 -0.964298844 0.0204018634 -0.536389053 0.843724251 0.00630424498 0.999877214 -0.0143461842 0.00319844135 0.922046006 -0.38706708 -0.00240455987 0.928383052 -0.3716169 0.0178106818 0.63158685 0.775100529 -0.0056572645 -0.999760032 -0.0211617444 0.0640654713 -0.989657044 -0.128353179 0.0139469877 -0.999902546 -0.000647864945 -0.00116307754 -0.334815323 -0.942283034 0.000545178365 0.376639903 -0.926359594 -0.70775038 0.103171237 0.698888481 -0.752312899 0.161922351 0.63859725 -0.819947302 0.273148417 0.503067017 0.00101478782 -0.969006121 -0.24703452 -0.347945035 -0.151271313 -0.925230384 -0.310100675 -0.928840518 -0.202713668 0.00215800852 -0.999723792 0.0234014187 0.0525383204 -0.990477502 0.127256021 0.000820985937 -0.999425948 0.0338688493 -0.00417611375 -0.999857783 0.0163375977 6.78984434e-05 0.335424572 0.942067087 0.0614003278 -0.538869619 0.840148509 0.00173288921 -0.31226328 0.949994028 0.0132479714 -0.99960655 -0.0247239061 0.00969331712 0.999336302 0.0351145864 0.0162877254 0.999859571 0.00393998763 0.896310568 -0.225499466 0.381808013 0.922509491 -0.119024441 0.367164046 0.923246741 -0.11769253 0.365737528 0.936045945 -0.0409521535 0.349486589 0.936716139 -0.0423449613 0.347519428 -0.525071561 0.0161951929 -0.850903988 -0.622073829 0.00618387712 0.782934129 0.995936871 -0.0381714292 0.0815643072 -0.00748200295 0.26741913 -0.963551283 0.107786432 0.0812283382 -0.990850151 0.033002086 0.124582104 -0.991660297 -0.00394563191 -0.944802463 -0.327616811 -0.00699260784 -0.237240881 -0.971425712 0.0237910394 -0.614269376 -0.788737714 0.0262080021 -0.0583807863 -0.997950315 -0.0165039506 -0.08114364 -0.996565759 -0.00787583552 0.997159958 -0.0748999342 0.00984630175 0.998103321 -0.0607685298 0.00816071965 0.998942256 0.0452527478 -0.00277135056 0.99985379 -0.0168723185 0.986962974 -0.0323226042 -0.157668427 -0.512310207 0.0135616576 0.858693361 -0.970426142 -0.0362009294 0.238668486 -0.707993627 -0.00101740879 -0.706218123 -0.67619884 0.000822901842 -0.736718714 -0.944795609 -0.208592683 -0.252686262 -0.965423822 -0.256466776 0.0467075258 -0.908499479 -0.345875114 0.234518796 -0.859462261 -0.324025393 -0.395388603 -0.9125157 -0.172914699 -0.370696068 -0.43997249 -0.0419977047 0.897028625 -0.316424668 -0.0103738811 0.948560894 -0.112688489 -0.134223446 0.984522939 -0.0123838028 0.982248127 0.187176988 0.00973513629 0.994320154 -0.105984479 0.00622781739 -0.935088217 0.354360282 -0.00740863709 -0.892711103 0.450568527 -0.00980342925 -0.998917699 -0.0454679728 -0.0127805155 -0.999777377 0.0167897772 0.0116477236 -0.949054718 0.314895898 -0.733127773 0.114207931 -0.670432866 -0.823117435 0.30384472 -0.479745805 -0.759521604 0.177719906 -0.625733614 -0.00311007258 -0.999951541 -0.00934206787 0.00351589033 -0.999841511 -0.0174524002 0.113247611 -0.190386161 -0.975155413 0.680540979 0.154468194 0.716242611 0.770647347 0.365421146 0.522082388 0.822408557 -0.256742775 0.507668436 0.0593320653 -0.956977189 0.284032404 -0.000173297274 -0.992218733 -0.124506891 -0.00824874267 0.999886155 0.0126343863 -0.0030045365 0.897984266 0.440017253 -0.000404332852 0.327433348 0.944874167 0.893835366 0.41777727 -0.16285111 0.984241426 0.174411848 0.0291421581 0.998268902 0.0585664995 0.00540437549 0.105700038 -0.395317912 -0.912442446 0.113610111 -0.165873379 -0.979580939 0.113424055 -0.174972728 -0.978018165 0.956813574 -0.274560899 -0.0955198929 0.90958339 -0.340912342 -0.23756437 0.475244254 0.00340481661 -0.879847348 -0.490704089 -0.0451979153 0.870153248 -0.843361795 -0.519227266 0.138361439 0.5936656 0.0162680224 0.804547429 -0.00121778902 -0.999789715 0.0204719473 0.00757201016 -0.93460077 0.355617851 -0.0144227715 -0.848598063 0.528841496 -0.869551301 -0.18937692 0.456088781 -0.964740813 -0.256964773 0.0569587201 -0.801034093 -0.275390416 0.531511545 0.981076717 -0.0383096002 -0.189791441 -0.362374455 0.0311925206 0.931510508 -0.180073887 -0.161184803 0.97035706 -0.970389247 -0.0314745158 0.239486977 0.924169421 -0.190020159 -0.331365705 0.978793204 -0.0610783361 -0.195533276 0.994715571 -0.0101432605 -0.102166899 0.00257419585 0.99970603 0.024108706 0.00159165543 0.999952316 0.0096359998 0.0147933261 0.995089173 0.0978706703 -0.122601435 -0.0288452934 0.9920367 -0.997399509 -0.0711251646 0.0116364602 -0.918515742 -0.153772563 -0.364256591 0.983259618 -0.085730359 0.160782024 0.795784652 -0.241042987 0.555540323 0.00244028517 0.0364648215 0.999331951 0.00402061082 0.0417156555 0.999121428 0.00615106896 -0.289457023 0.957171261 -0.0101986071 0.999543726 -0.0284320228 -0.00930217654 0.999916077 -0.00901529752 -0.000614986871 0.394554913 -0.918872178 0.0212884415 0.999649942 -0.0157083161 0.00310783135 -0.577508509 0.816378772 -0.0189858079 -0.570168257 -0.821308494 0.00535657723 -0.91394186 -0.40580985 -0.000933214615 0.0215778816 -0.999766707 0.00056681264 0.0163857564 -0.999865592 -0.00902986899 -0.188605413 0.982011437 0.00454803882 0.0184943564 0.999818623 -0.00489397207 0.0580373146 0.9983024 -0.998632669 0.00527951447 -0.0520085618 -0.958529532 0.279722542 0.0545569323 -0.703599811 0.709185123 0.0447626188 -0.595676601 0.792874277 0.128529042 0.00420706347 0.999872625 0.0153965699 -0.0526851341 0.034786243 0.998005092 -0.0151469568 0.0653749406 0.997745812 -0.0595594049 0.0262188073 0.997880399 0.0751846284 0.327623844 -0.941812038 0.0488325395 -0.998058915 0.0386501215 0.421065867 -0.905472577 0.0531315207 0.771682024 -0.634255946 0.0471834838 0.414641142 -0.909763634 0.0200712457 0.104991004 -0.993418336 0.0457923003 0.73264277 -0.65222007 -0.194534183 -0.115919463 -0.99295187 0.0246827062 0.994036436 -0.10899172 0.003512386 -0.0371521264 0.0140151111 0.999211311 -0.0244123209 -0.013168524 0.999615252 -0.0274035186 -0.99612999 -0.0835112184 -0.0384352095 -0.998850405 -0.0286462996 -0.0237485729 0.999641776 0.0123441434 0.00467238436 0.996843576 -0.0792532936 0.0278569236 0.999283016 0.0256405585 0.9973858 0.0331983641 0.0641829446 0.996303082 0.0192306284 0.0837275237 0.995550573 0.0122530563 0.0934288651 -0.123985313 -0.154608801 -0.980165184 0.568418562 0.797472835 -0.202330083 0.947569191 0.318448186 -0.0265209973 0.437131375 0.877728105 0.196238354 0.963512778 0.129323408 -0.234347031 0.999311388 -0.0256693792 -0.0267921761 -0.694019377 -0.719192386 0.0331574753 -0.0520871282 -0.994238257 0.0936865881 -0.904098153 -0.40055424 0.148871735 -0.988494277 -0.14707844 0.0353120975 0.0406815819 0.998250127 -0.0429142639 0.0572595373 0.998018205 0.0260954928 0.220826611 0.97289288 0.0686659291 0.0680904612 0.997678399 0.00122384343 0.000951904163 0.999978185 0.00653934618 -0.357414544 -0.890046835 -0.282969147 -0.869286358 -0.133430034 -0.475959778 -0.824269712 -0.357301861 -0.439220697 -0.459409863 -0.862373531 -0.212731078 0.134903267 0.990732491 -0.0158182122 -0.00939506479 0.996951163 0.0774602741 -0.000866337155 0.998722732 0.0505186133 -0.100534767 -0.99463582 -0.0243385043 -0.0667525828 -0.996665597 -0.0469226129 -0.451009929 -0.880421996 -0.146448508 -0.0561478585 -0.993632615 0.097681053 -0.0528000295 0.906586111 -0.418704838 -0.13681595 0.967688799 -0.211801231 0.115524389 0.0128057152 -0.993222117 0.718117476 0.00529535813 -0.695901811 0.706259668 0.000831296842 -0.70795238 0.99328196 0.0305298697 -0.111619391 0.987895429 -0.0370807052 -0.150624365 0.990346789 -0.0552029088 -0.127145126 -0.999537647 -0.00691867247 0.0296069942 -0.70466733 0.709509194 0.0063749738 -0.995074689 0.0978698283 0.0157442186 0.992942274 -0.0991156474 -0.0651285946 -0.0364675038 -0.0182918478 -0.999167442 -0.0291489605 0.0275924504 -0.999194145 -0.024896143 0.0393539965 -0.998915136 0.190813527 -0.980900168 -0.0377502888 0.8612988 -0.00778972544 -0.508039057 0.113524511 -0.971441448 0.208359554 0.0462904871 -0.998927474 0.00106448552 -0.0683349818 -0.991101444 0.114228733 0.0132461181 0.999242842 0.0365833044 0.116160534 0.993039966 0.0194518771 2.96437906e-06 0.997153282 -0.0754008964 -0.00718483236 0.999807775 -0.0182410665 0.00485875551 0.999987781 -0.000885421527 -0.0325447433 0.998988986 -0.0310129877 -0.993004441 0.114749059 0.0278348047 0.872103989 0.00142333843 -0.48931852 0.890917242 -0.00375404512 -0.45415023 -0.999747396 0.00195249252 0.0223904457 0.116649248 0.993086815 0.0130948722 -0.207908899 -0.963656485 -0.167749941 -0.143058538 -0.982107222 -0.122473285 -0.120807782 -0.986902654 -0.106904574 -0.710775316 0.513029158 0.481247842 -0.389411688 -0.900007904 0.195816964 -0.583707809 -0.315611243 0.748114169 -0.941455007 -0.148274571 0.302782357 0.921979964 0.208323345 0.326426685 0.808797121 0.444861293 0.384637088 0.291084081 0.0121154049 -0.956620753 -0.0364487246 -0.0131493555 -0.999248981 -0.0217730608 -0.00835801195 -0.999728024 -0.0240993928 -0.000696973759 -0.999709308 -0.00362916011 0.999933004 -0.0109929424 -0.329087496 0.836015582 0.439066499 0.00521728629 -0.997797251 -0.0661319643 0.783495247 -0.573009253 -0.240407005 0.316507399 -0.888316035 0.332742691 0.304133683 0.62729305 -0.716942191 -0.100764707 -0.19202742 0.976202846 0.021053059 0.998806536 0.0440715924 0.815199137 -0.0250445493 -0.57863903 0.923027515 -0.207614854 0.323907763 0.664908111 -0.0493173711 -0.745295286 0.00979012437 0.999617159 0.0258786697 0.000752515043 0.999832928 0.0182636548 -0.012881862 0.999912918 0.0028689201 0.658125818 0.143170476 -0.739170253 -0.495530844 0.00553266611 0.868572712 -0.691097975 0.00487062754 0.722744644 -0.708975434 -0.0120434137 0.705130279 -0.242158398 0.00573561108 0.970219791 -0.229441538 -0.000487486657 0.973322332 -0.00984526239 0.999945879 -0.00337095582 -0.0101849698 0.99965632 -0.0241557527 -0.00163257914 0.999702513 -0.0243344363 -0.540453553 0.0623085499 -0.839063525 -0.100063413 0.0222874079 -0.994731426 -0.207808644 0.0479145944 -0.976995289 -0.40867731 -0.0127786268 -0.91258949 0.268021822 -0.940942585 0.206860691 0.592382491 -0.717415929 0.36660257 -0.970973015 0.238548905 0.0174884461 -0.816935658 0.518423319 -0.252692342 -0.822391272 0.492824376 0.284247607 -0.197893366 -0.956232905 0.215538591 0.00488162087 0.973465085 -0.228783414 0.0221769605 -0.999482334 0.023308577 -0.159784287 -0.894474626 0.417593241 0.229676381 -0.294707507 -0.927575469 -0.347649038 0.795279443 0.496659636 -0.360532224 0.517019212 0.776342452 -0.292074144 0.93764621 0.188446939 -0.938200891 0.0145019619 -0.345787108 -0.98763448 -0.0147465253 0.156079009 -0.952224374 0.0129398387 0.305125147 0.00191101898 0.999998152 0.000146043385 0.00162372738 0.999998689 4.70428567e-05 0.624765933 -0.0930286273 0.775250375 0.0331415348 -0.99833107 -0.0472932905 0.0410392769 -0.998281598 -0.0418283902 0.0791067258 -0.98768276 -0.134999543 -0.00473049842 -0.99998343 -0.00327223307 0.1475088 -0.985872269 0.0793536007 -0.0412581116 -0.997391164 0.0592338741 0.175278202 -0.969415843 -0.171785995 0.187691808 0.0229868852 0.981958926 0.00128722982 -0.98376286 -0.179468468 -0.130412802 -0.991410732 -0.00985928532 -0.0459518023 0.0265055597 -0.998591959 -0.105350904 -0.993286908 -0.0477733687 -0.239652812 -0.957251608 0.161975086 0.0815684348 -0.985639632 0.147855163 0.0942293182 -0.993861973 0.0579585731 0.204475611 -0.974438846 0.0930519924 0.0380829014 -0.994190812 0.100669116 -0.888567686 -0.0167317707 -0.458440334 0.0156091321 -0.00877310988 0.999839664 0.010799244 -0.0368547477 0.999262273 0.00753367739 0.999970257 0.00166218146 0.818421423 0.0045775352 -0.574600279 0.00227173371 -0.999997258 0.000564908551 -0.0585425161 -0.991655469 -0.114857219 -0.1165426 -0.982174575 -0.147482038 -0.0311995801 -0.996228456 0.0809659585 0.999553263 -0.00377807929 -0.0296469722 0.998465598 0.0216314346 -0.0509758815 0.260848105 -0.948657215 0.178907067 -0.731357455 -0.0945462584 0.675408959 0.919443369 0.097411029 -0.380965918 0.752237856 0.349795073 -0.558374107 -0.872890174 0.00270990818 -0.487909228 0.528935969 0.496805966 0.688048422 0.0551614724 -0.995913923 -0.0715025887 0.0735952333 -0.993226647 -0.0899140835 0.0925754234 0.0469051227 0.994600296 0.00805764366 -0.99990344 0.01132139 -0.879599154 0.214988023 0.424364746 -0.953639984 0.0598786883 0.294932783 -0.072775431 -0.990651548 -0.115382969 -0.0935403705 -0.977441072 -0.189365059 -0.904296815 -0.0204443727 -0.42641452 -0.00504798256 0.999891639 -0.013830102 0.00299741165 0.901481092 0.432808042 -0.934328973 -0.182586327 0.306090862 -0.935037255 -0.150068581 0.321223795 -0.939702868 -0.0376231037 0.33991611 -0.960094392 -0.0347605944 0.277507514 0.957947671 -0.00903774798 -0.286800683 -0.895716369 -0.301182956 0.327079475 -0.928029239 -0.0108767878 0.372348577 -0.00705968961 0.998938143 -0.0455277935 -0.091969043 0.344316691 -0.934338093 -0.0277554803 0.978003681 -0.206732646 0.957000196 -0.0213144477 -0.289303094 -0.960152268 -0.0369967483 0.277017891 0.968614995 -0.143943802 -0.202645525 0.980430007 -0.00824643858 -0.196695313 0.971381485 -0.174122646 -0.161552876 -0.108938962 0.0460227877 0.992982507 0.977941751 0.0246658623 -0.207416207 0.978647411 0.163864732 -0.124087252 -0.659835756 0.193072692 0.726181567 -0.000819329405 -0.217380375 0.976086617 0.00836612843 0.0369378738 -0.999282539 0.00332972151 0.020926984 -0.999775469 -0.981693983 0.0856226385 0.170134291 -0.985204697 0.0439680927 0.165645599 -0.968434215 -0.144207984 0.203320488 -0.956674278 0.288519919 0.0391226262 0.481316477 0.00404413836 -0.876537561 -0.43604219 -0.0487267822 0.898606122 -0.971306384 -0.173987672 0.162148803 -0.0242546741 0.983911514 -0.177002311 0.115186989 0.0471019484 -0.992226481 0.95608598 -0.0316477083 -0.291372627 -0.960027218 -0.0323659927 0.278029025 0.00501419837 -0.269233823 -0.96306181 0.00810706709 -0.302940518 0.952974975 -0.984098017 0.170874208 0.0485082194 0.705942571 0.0195325967 0.707999647 0.25586623 0.012141725 0.966635942 0.914854765 -0.00912927277 0.403679788 0.874703109 0.010920953 0.484536022 0.804469228 -0.0190893803 0.593687534 0.283019364 0.94945097 -0.135804832 -0.989510477 0.0863079578 -0.115844518 -0.843349934 0.458249241 -0.280657381 -0.988429368 0.0816327035 0.127841756 -0.72285831 0.601802289 -0.339573085 0.949624777 0.0545692146 -0.308601707 0.937130868 0.090744555 -0.336973608 -0.0503237769 0.0968576744 0.99402523 -0.299572557 0.554467857 -0.776415944 0.0640888065 -0.123302937 -0.990297437 -0.855825782 0.516572595 -0.0267397054 -0.0630441159 0.997971892 -0.00880296435 0.886450052 0.194985464 -0.419746339 -0.0195674095 0.999176264 0.0355513915 -0.857176542 0.415870219 0.303809762 -0.73410356 0.564830482 0.376906425 0.23150447 0.963953197 0.131148279 -0.0762380958 -0.322714716 0.943420887 0.99560231 0.0596291386 -0.0722523183 0.992795229 0.0227033924 -0.117652662 0.99890089 -0.0366755426 0.0291867312 0.997555077 -0.0576826148 0.0394541584 -0.999316871 -0.0210247152 0.0303939003 0.973117352 0.0871612877 0.213179454 -0.419564933 0.069503203 0.90506053 -0.0600503422 -0.996121764 -0.0643072724 -0.640018344 0.66472584 0.385377765 -0.817242205 -0.507778525 -0.272536576 0.714241087 0.685613334 0.140691221 -0.0582237653 0.124249376 0.990541279 0.610328615 0.0864992589 -0.787411511 -0.166500524 -0.268314987 -0.948833287 -0.748442829 0.606773257 -0.267693013 0.833355367 0.0333575867 0.551730037 0.0175197609 0.994919002 -0.0991424769 -0.317709059 0.160773635 0.934458554 0.64794755 -0.0194836278 0.761435688 0.135775954 -0.99027878 -0.0302139334</float_array>
          <technique_common>
            <accessor source="#normals_array" count="565" stride="3">
              <param name="X" type="float" />
              <param name="Y" type="float" />
              <param name="Z" type="float" />
            </accessor>
          </technique_common>
        </source>
        <vertices id="vertices">
          <input semantic="POSITION" source="#positions" />
        </vertices>
        <triangles material="qmat_76668c90192cb1f5" count="594">
          <input semantic="VERTEX" source="#vertices" offset="0" />
          <input semantic="NORMAL" source="#normals" offset="1" />
          <p>0 0 1 1 2 2 3 3 4 4 5 5 6 6 7 7 8 8 3 9 9 10 1 1 7 7 10 11 8 8 11 12 8 13 10 14 4 15 11 12 6 16 4 17 12 18 11 19 13 20 0 21 14 22 13 20 14 22 1 23 4 24 3 9 14 25 15 26 4 24 14 25 2 27 14 27 0 27 8 28 11 29 16 30 15 26 14 25 2 2 7 7 17 31 18 32 17 33 19 34 20 35 18 32 20 35 10 11 7 7 21 36 17 31 17 37 22 38 19 39 20 40 23 41 24 42 20 40 19 43 23 41 22 38 17 37 25 44 0 0 13 45 1 1 8 28 16 30 5 5 26 46 27 47 16 30 16 48 28 49 29 50 30 51 29 50 31 52 29 50 32 53 33 54 32 53 34 55 33 54 35 56 36 57 37 58 30 51 36 57 35 56 30 51 35 56 5 59 5 59 35 56 38 60 3 3 5 5 38 61 3 3 38 61 9 62 5 59 16 48 30 51 16 48 29 50 30 51 30 51 31 52 36 57 39 63 40 64 41 65 42 66 39 63 41 65 36 57 42 66 37 58 19 39 22 38 43 67 22 38 44 68 43 67 37 58 41 65 44 69 37 58 42 66 41 65 38 60 37 58 44 69 19 39 43 67 45 70 45 70 43 67 46 71 33 54 34 55 42 66 15 26 2 2 47 72 48 73 49 74 50 75 49 76 51 77 6 78 49 74 11 12 50 75 52 79 53 80 11 81 11 29 53 82 26 46 12 18 52 83 11 19 49 76 48 73 51 77 53 82 54 84 55 85 48 73 50 75 56 86 56 86 50 75 57 87 51 88 56 86 58 89 58 89 56 86 59 90 60 91 61 92 54 93 62 94 51 77 58 89 59 90 63 95 64 96 21 36 62 94 65 97 15 98 66 99 67 100 15 98 68 101 12 102 64 103 63 104 69 105 64 103 69 105 70 106 69 105 63 104 71 107 69 105 71 107 70 106 47 72 23 108 72 109 72 110 73 111 74 112 75 113 24 42 21 114 21 114 57 87 75 113 57 87 20 40 75 113 50 75 20 40 57 87 65 115 76 116 77 117 66 99 47 118 78 119 59 90 57 87 79 120 71 107 63 104 80 121 47 72 81 122 82 123 78 119 47 118 83 124 21 125 79 120 57 87 84 126 85 127 73 111 12 102 86 128 27 129 87 130 28 49 16 131 88 132 26 133 55 134 26 46 88 135 27 47 28 49 89 136 29 50 28 49 90 137 89 136 87 130 90 137 28 49 29 50 89 136 32 53 32 53 89 136 34 55 52 83 27 47 88 135 88 132 55 134 54 138 61 92 88 139 54 93 91 140 92 141 93 142 86 128 91 140 27 129 40 64 94 143 46 144 95 145 46 144 94 143 72 110 74 112 81 146 74 112 96 147 81 146 97 148 93 142 95 149 93 150 98 150 95 150 81 122 46 71 82 123 90 137 94 143 89 136 97 151 95 145 94 143 91 140 93 142 97 148 83 124 82 152 98 153 92 141 99 154 93 142 73 111 85 127 74 112 89 136 94 143 100 155 34 55 89 136 100 155 34 55 100 155 42 66 101 156 23 157 45 70 101 156 45 70 96 158 42 66 100 155 40 64 102 159 103 160 93 142 99 154 102 159 93 142 91 140 104 161 92 141 58 162 64 163 105 164 105 165 64 103 70 106 58 162 106 166 76 167 76 167 107 168 77 117 106 166 58 162 108 169 107 168 109 170 77 117 110 171 66 172 111 173 79 120 112 174 63 104 113 175 114 176 102 159 115 177 113 175 102 159 116 178 93 142 103 160 78 179 83 124 116 178 117 180 118 181 104 182 119 183 117 184 104 161 120 185 121 186 119 183 122 187 120 185 119 183 118 188 123 189 115 177 91 140 122 187 104 161 68 190 124 191 86 192 118 188 115 177 125 193 66 172 110 171 126 194 126 194 110 171 127 195 106 196 108 197 128 198 128 198 105 199 129 200 130 201 117 184 119 183 131 202 118 181 117 180 130 203 119 203 118 203 106 204 128 205 132 206 133 207 134 208 135 209 132 206 129 210 136 211 136 212 129 213 137 214 138 215 136 212 137 214 139 216 125 216 102 216 140 217 102 217 99 217 139 218 99 219 125 220 137 214 80 121 112 174 141 221 142 222 137 223 143 224 144 225 141 221 107 226 141 227 145 228 129 213 80 121 137 214 146 229 127 195 147 230 107 168 148 231 143 232 149 233 150 234 103 160 149 233 103 160 151 235 152 236 114 237 149 238 153 239 149 233 114 176 121 186 153 239 154 240 123 189 154 240 113 175 121 186 150 234 153 239 122 187 155 241 120 185 155 242 122 243 156 244 122 187 157 245 150 234 133 207 158 246 148 231 126 194 146 229 159 247 160 248 161 249 68 190 158 250 135 251 162 252 158 253 162 254 163 255 162 252 138 256 164 257 165 258 120 185 155 241 166 259 156 260 120 185 165 261 155 242 156 244 167 262 168 263 169 264 170 265 171 266 172 267 173 268 149 268 151 268 174 269 151 235 152 270 173 271 152 236 149 238 175 272 172 273 176 274 172 275 142 276 176 277 167 278 169 279 170 265 169 279 177 280 170 265 175 272 148 281 178 282 167 278 170 265 178 282 176 283 142 284 175 285 158 246 167 262 148 231 159 247 179 286 180 287 111 173 66 172 181 288 182 289 147 230 179 286 124 191 157 245 91 290 160 248 159 247 180 287 183 291 184 292 158 246 183 291 185 293 186 294 158 246 184 292 167 262 184 292 168 263 167 262 160 248 180 287 111 173 177 295 187 296 171 297 188 298 189 299 190 300 190 300 191 301 192 302 190 303 193 304 194 305 124 306 195 306 196 306 189 299 191 301 190 300 193 307 195 308 194 309 197 310 196 311 198 312 196 311 199 313 198 312 124 314 194 309 195 308 200 315 190 303 194 305 200 315 201 316 190 303 193 307 202 317 196 311 202 317 203 318 196 311 186 319 204 320 205 321 160 322 200 323 161 324 206 325 160 325 207 325 200 323 194 309 161 324 161 324 194 309 124 314 208 326 209 327 210 328 209 327 207 329 186 330 207 329 209 327 208 326 201 331 211 332 212 333 201 331 213 334 188 298 214 335 215 336 216 337 206 338 214 335 216 337 208 326 210 328 217 339 214 340 208 341 218 342 218 342 219 343 214 340 200 344 220 345 221 346 221 347 222 348 219 343 219 343 218 342 223 349 201 331 224 350 211 332 224 351 218 352 217 339 225 353 226 354 227 355 228 356 116 357 229 358 157 245 197 310 103 160 230 359 231 360 232 361 116 357 103 362 229 358 233 363 229 364 231 365 197 310 234 366 103 160 226 354 235 367 227 355 234 366 229 368 103 160 225 353 231 365 229 364 198 312 236 369 234 366 198 312 237 370 236 369 199 313 237 370 198 312 238 371 228 372 239 373 240 374 171 375 187 376 230 359 232 361 241 377 242 378 241 379 235 367 230 359 233 380 231 360 216 337 215 336 243 381 243 381 215 336 239 373 242 382 226 383 233 384 217 339 210 328 244 385 215 336 238 371 239 373 215 386 245 387 244 385 215 386 244 385 210 388 238 389 210 328 246 390 247 391 226 354 225 353 228 392 247 393 248 394 228 392 233 363 247 393 249 395 217 339 250 396 217 339 244 385 250 396 251 397 252 398 253 399 254 400 222 400 253 400 254 401 255 401 216 401 221 346 216 337 251 402 223 349 221 347 219 343 252 398 256 403 257 404 252 398 258 405 256 403 259 406 255 407 260 408 251 409 258 405 252 398 251 410 259 411 261 412 251 410 262 413 217 414 263 415 264 416 265 417 265 418 266 419 249 420 265 418 249 420 267 421 268 422 252 398 269 423 253 424 264 425 255 426 268 422 269 423 270 427 239 373 248 428 265 417 270 427 266 429 248 430 271 431 243 431 264 431 243 432 268 433 222 434 243 381 239 373 264 416 263 435 272 436 260 437 256 438 249 395 257 439 266 440 269 440 249 440 260 437 272 436 261 412 262 441 261 442 273 443 251 410 261 412 262 413 274 444 275 445 276 446 273 443 277 447 274 444 262 441 273 443 202 317 217 414 262 413 192 448 278 449 274 444 279 450 202 317 278 449 279 450 192 448 262 413 193 304 225 353 229 364 236 451 280 452 276 446 281 453 281 453 282 454 237 370 277 447 283 455 284 456 284 456 283 455 267 457 263 435 283 458 272 436 7 7 18 32 10 11 4 17 15 459 12 18 4 4 6 460 8 28 14 25 3 9 1 1 4 4 8 28 5 5 50 75 11 12 10 14 50 75 10 14 20 40 7 7 6 78 21 36 1 1 9 10 285 461 1 1 285 461 22 38 18 32 17 33 20 35 22 38 285 462 44 68 44 68 9 62 38 61 285 462 9 62 44 68 23 157 19 39 45 70 47 72 25 44 23 108 47 72 22 38 25 44 47 72 1 1 22 38 17 31 21 36 25 463 47 72 2 2 1 1 16 30 11 29 26 46 16 464 27 129 87 465 31 52 29 50 33 54 38 60 35 56 37 58 41 65 40 64 43 466 44 69 41 65 43 466 43 466 40 64 46 144 36 57 31 52 42 66 42 66 31 52 33 54 39 63 42 66 40 64 49 74 6 16 11 12 6 78 51 77 21 36 26 46 53 82 55 85 60 91 52 467 61 92 56 468 51 77 48 73 53 80 52 79 60 469 53 82 60 470 54 84 58 89 59 90 64 96 51 77 62 94 21 36 15 98 67 100 68 101 65 115 62 471 76 116 76 116 62 471 58 472 15 98 47 118 66 99 12 102 68 101 86 128 75 113 20 40 24 42 84 473 101 156 96 158 286 474 21 114 24 42 23 475 101 476 72 110 72 110 84 126 73 111 101 476 84 126 72 110 23 41 286 474 24 42 25 477 286 474 23 41 21 36 286 478 25 463 59 90 56 86 57 87 79 120 65 115 77 117 47 72 72 109 81 122 21 125 65 115 79 120 59 90 79 120 63 95 61 92 52 467 88 139 87 465 91 140 97 148 87 479 97 151 90 480 27 129 91 140 87 465 52 83 12 18 27 47 100 155 94 143 40 64 95 145 98 481 46 144 74 112 85 127 96 147 90 480 97 151 94 143 98 481 82 482 46 144 98 153 93 142 83 124 85 483 84 473 96 158 81 122 45 70 46 71 83 124 47 118 82 152 96 147 45 484 81 146 116 178 83 124 93 142 70 106 71 107 80 121 126 194 67 485 66 172 108 169 58 162 105 164 76 167 106 166 107 168 129 213 70 106 80 121 63 104 112 174 80 121 79 120 109 170 112 174 77 117 109 170 79 120 113 175 154 240 114 176 125 193 115 177 102 159 92 141 118 188 125 193 92 141 125 193 99 154 92 141 104 161 118 188 115 177 123 189 113 175 104 161 122 187 119 183 118 188 119 183 123 189 86 192 124 191 91 290 106 166 133 207 107 168 105 165 70 106 129 213 128 198 108 197 105 199 134 486 132 487 287 488 130 489 131 489 117 489 131 490 130 490 118 490 134 486 133 491 132 487 287 488 132 487 136 492 164 493 138 215 137 214 133 494 106 204 132 206 138 215 287 495 136 212 132 206 128 205 129 210 67 485 160 248 68 190 146 229 126 194 127 195 141 221 144 225 142 222 140 496 139 496 102 496 139 218 140 497 99 219 112 498 145 499 137 500 145 228 141 227 137 501 109 502 145 499 112 498 109 502 107 503 145 499 107 226 143 504 141 227 164 493 137 214 142 276 143 232 175 285 144 505 182 289 146 229 147 230 147 230 127 195 110 171 147 230 110 171 111 173 107 168 133 207 148 231 119 183 121 186 123 189 121 186 120 185 150 234 152 270 151 235 114 176 102 159 114 176 103 160 154 240 153 239 114 176 153 239 150 234 149 233 123 189 121 186 154 240 120 185 156 260 150 234 156 244 122 187 150 234 160 248 67 485 126 194 159 247 146 229 182 289 135 209 134 208 287 506 135 209 287 506 138 507 160 248 126 194 159 247 133 207 135 209 158 246 68 190 161 249 124 191 183 508 163 509 185 510 183 508 158 511 163 509 162 252 135 251 138 256 165 258 166 512 120 185 166 259 165 513 156 260 185 510 163 509 164 514 204 320 164 493 172 275 204 320 185 515 164 493 163 255 162 254 164 516 170 265 177 280 171 266 174 517 173 517 151 517 173 271 174 518 152 236 175 272 178 282 172 273 178 282 170 265 172 267 148 281 167 278 178 282 172 275 164 493 142 276 181 288 78 179 116 178 180 287 179 286 111 173 144 505 175 285 142 284 143 232 148 231 175 285 181 288 66 172 78 179 179 286 147 230 111 173 159 247 182 289 179 286 151 235 103 160 114 176 150 234 157 245 103 160 91 140 157 245 122 187 207 519 183 291 186 294 204 320 172 275 171 375 186 319 185 515 204 320 184 292 183 291 207 519 177 295 246 520 187 296 169 264 168 263 246 520 240 374 204 320 171 375 169 264 246 520 177 295 124 191 196 311 157 245 189 299 288 521 191 301 157 245 196 311 197 310 195 308 193 307 196 311 211 522 224 523 192 448 201 331 188 298 190 300 288 524 212 525 191 526 188 298 213 334 189 299 189 299 213 334 288 521 191 526 211 522 192 448 190 303 192 448 193 304 203 318 202 317 279 450 196 311 203 318 199 313 199 313 203 318 280 452 203 318 279 450 280 452 205 321 204 320 240 374 206 338 200 344 160 527 184 528 160 529 168 530 160 529 184 528 207 531 186 319 205 321 240 374 220 345 200 344 206 338 213 334 212 333 288 521 201 331 212 333 213 334 214 532 206 533 208 326 216 337 220 345 206 338 208 326 206 533 207 329 212 525 211 522 191 526 219 343 222 348 214 340 221 346 220 345 216 337 214 340 222 348 215 386 201 316 200 315 224 534 224 351 223 535 218 352 221 536 223 535 224 351 217 339 218 352 208 326 235 537 241 377 232 361 232 361 231 360 235 537 227 538 235 537 231 360 234 539 197 310 198 312 233 363 228 392 229 364 225 540 227 538 231 360 199 313 280 452 281 453 199 313 281 453 237 370 234 366 236 369 229 368 168 530 111 541 246 542 238 371 111 543 228 372 111 544 238 544 246 544 228 356 111 545 181 546 186 319 240 374 187 376 228 356 181 546 116 357 160 529 111 541 168 530 210 328 209 327 246 390 187 547 246 548 209 327 187 547 209 327 186 330 242 549 230 359 241 377 242 549 233 380 230 359 226 354 242 378 235 367 248 428 239 373 228 372 244 385 245 387 250 396 238 389 215 550 210 328 247 551 250 396 245 387 226 383 247 552 233 384 245 387 248 430 247 551 245 387 270 427 248 430 215 386 270 427 245 387 215 386 222 348 270 427 254 553 253 424 255 426 222 348 251 397 253 399 259 406 251 402 255 407 251 402 216 337 255 407 224 523 217 414 192 448 254 554 243 554 222 554 243 381 254 555 216 337 221 347 251 397 222 348 200 315 221 556 224 534 259 411 260 437 261 412 258 405 217 557 256 403 260 408 255 407 263 415 256 438 217 339 249 395 258 405 251 409 217 557 270 427 269 423 266 429 266 419 265 418 248 558 263 415 255 407 264 416 253 399 252 398 268 422 253 424 271 559 264 425 271 560 253 399 268 422 249 420 247 391 225 353 249 395 250 396 247 561 265 417 264 416 239 373 243 432 271 562 268 433 222 348 268 422 270 427 269 423 252 398 257 404 263 435 265 418 283 458 249 563 269 423 257 404 273 443 272 564 277 447 273 443 261 442 272 564 274 444 277 447 275 445 278 449 273 443 274 444 202 317 273 443 278 449 274 444 276 446 279 450 193 307 262 441 202 317 280 452 279 450 276 446 281 453 276 446 282 454 237 370 267 457 236 369 267 421 249 420 225 353 267 421 225 353 236 451 276 446 275 445 282 454 237 370 282 454 267 457 275 445 277 447 284 456 275 445 284 456 282 454 284 456 267 457 282 454 283 458 265 418 267 421 277 447 272 564 283 455</p>
        </triangles>
      </mesh>
    </geometry>
  </library_geometries>
  <library_visual_scenes>
    <visual_scene id="scene">
      <node id="link2_stl">
        <instance_geometry url="#geometry">
          <bind_material>
            <technique_common>
              <instance_material symbol="qmat_76668c90192cb1f5" target="#qmat_76668c90192cb1f5" />
            </technique_common>
          </bind_material>
        </instance_geometry>
      </node>
    </visual_scene>
  </library_visual_scenes>
  <scene>
    <instance_visual_scene url="#scene" />
  </scene>
</COLLADA>