<?xml version='1.0' encoding='utf-8'?>
<COLLADA xmlns="http://www.collada.org/2005/11/COLLADASchema" version="1.4.1">
  <asset>
    <created>2026-09-14T00:00:00Z</created>
    <modified>2026-09-14T00:00:00Z</modified>
    <unit name="metre" meter="1" />
    <up_axis>Z_UP</up_axis>
  </asset>
  <library_effects>
    <effect id="qmat_c90f2351a1b48e4d_effect">
      <profile_COMMON>
        <technique sid="common">
          <lambert>
            <emission>
              <color>0 0 0 1</color>
            </emission>
            <diffuse>
              <color>0.89804314 0.91765098 0.92549412 1.0</color>
            </diffuse>
          </lambert>
        </technique>
      </profile_COMMON>
    </effect>
  </library_effects>
  <library_materials>
    <material id="qmat_c90f2351a1b48e4d" name="qmat_c90f2351a1b48e4d">
      <instance_effect url="#qmat_c90f2351a1b48e4d_effect" />
    </material>
  </library_materials>
  <library_geometries>
    <geometry id="geometry" name="link6_stl">
      <mesh>
        <source id="positions">
          <float_array id="positions_array" count="576">0.0711972415 0.0861603022 0.00488657923 0.0780399218 0.0753640756 0.0044785752 0.0762573779 0.0832393542 -0.00432059169 0.0704995394 0.0669081584 -0.00391585194 0.0711059868 0.0266393777 -0.00479291752 0.0701096803 0.0287261121 4.46820331e-06 0.0626625717 0.0666088238 -0.00103474944 0.0616122484 0.0814617798 -0.00495204329 0.0617771856 0.0832246318 -0.0121612158 0.0715437606 0.0860133693 -0.0122224875 0.0618134253 0.0836272985 0.00489059836 0.0764602944 0.0484410599 -0.00231696735 0.0778734237 0.0515932292 0.00389020192 0.0780485868 0.028369531 -0.00333830179 0.0763293356 -0.00541961938 -0.00377679057 0.0771015733 0.0686552078 -0.00132234406 0.0781035423 0.00562442932 -0.00439239247 0.0664382353 0.0851923078 -0.00230901246 0.066195637 0.0720138699 -0.00222306792 0.0702850819 0.0723765492 0.0049345633 0.0628067181 0.0711094141 0.00504586054 0.0673964098 0.0669905469 0.000876074715 0.0710033998 0.0265550427 0.00476844981 0.0661492869 0.0289265178 0.000844075927 0.0598559342 0.0285814516 0.00485121273 0.0625845417 0.0265894104 0.00504125701 0.058554057 0.022046404 0.00742221111 0.0618182756 0.0269026551 -0.00515512982 0.0640486851 0.0272064004 0.0287918933 0.0569979139 0.0273812227 0.0291363504 0.0603519417 0.0176102743 0.0303047895 0.0670677871 0.0166640952 0.00601594429 0.0590545349 0.00963470805 0.0139942924 0.0665830672 0.00787584763 0.00841446687 0.0577125363 0.0169195794 0.00593980355 0.0697859451 0.0102613457 0.00286939414 0.0583081171 0.010659188 -0.00460499711 0.0689188316 0.00396533404 0.0278052725 0.0602925867 0.000365289248 0.0238763094 0.0746828094 0.00069361279 0.0216636416 0.0696563497 -0.00446706032 0.0270618051 0.0589195266 0.00179701147 0.0303047895 0.0587323941 0.00590781122 0.0224094242 0.0670043528 -0.00228526047 0.0184634477 0.0581620745 -0.00502997311 0.0219449233 0.0686747655 -0.00161516829 0.00998322386 0.0678430498 -0.00712046493 0.00751346676 0.0581409186 -0.00418697996 0.0104132686 0.0596037544 0.0284234863 0.0193980429 0.0568953753 0.0223501474 0.0177915674 0.0628326759 0.019102443 0.0206972137 0.0568436943 0.0128258858 0.0255830884 0.00753596611 0.0166142117 0.023263555 0.00422112364 0.0219620094 0.0181443244 0.0583921 0.0214477591 -0.0074526635 0.0566344522 0.00303163729 0.0284798853 0.0706981644 0.00409550499 0.0195783582 0.0839487016 0.00488512358 0.0125077516 0.0779536143 0.00514269015 0.0111248987 0.0780987069 0.00537763117 0.00400539953 0.0780942217 -0.00561978994 0.00437913323 0.0762747601 -0.0848880559 0.00373569364 0.0734052062 -0.00633239048 0.00469421083 0.0780689865 0.0289404653 0.00323099876 0.0762958229 0.0116772074 0.000682540005 0.0745296776 0.030814128 0.000241054746 0.0695796832 0.00456400961 -0.0270784218 0.069598332 -0.00474854605 -0.0268543921 0.0594943315 -0.000560548389 -0.0290695 0.0603351444 7.6935059e-05 -0.0237440392 0.0596855842 0.00691010617 -0.0151578477 0.0668994039 0.00295650563 -0.0182656981 0.058773946 0.00355046662 -0.020057125 0.0655994266 0.00342229009 -0.0127988653 0.0746660009 -0.000816464133 -0.0216805767 0.0699727833 0.00774114998 -0.00502271391 0.0681629106 -0.00108412688 -0.00939436071 0.0584713891 0.0277340226 -0.0076745688 0.0588193275 0.0174984112 -0.022969801 0.00410251971 0.0227566641 -0.017014116 0.0577301532 0.0127316788 -0.0175149571 0.0838398114 0.00485404674 -0.0127086453 0.0718367174 0.00258519081 -0.0136214672 0.0039571696 0.0113206822 0.0152746253 0.000281010085 0.00932098739 0.013518814 0.00607703393 0.00436171191 0.018176876 0.00267005875 -0.0046223402 0.0174285304 0.00337150274 -0.00399610121 0.0279311277 0.00256782933 0.0169547349 0.00461234106 -0 0.00991068594 0.00354257505 0.00608813018 0.00526051456 0.0280473419 0.00993806962 0.0134377461 -6.23010856e-05 0.00582563085 0.0178347696 0.0167050175 0.01090426 0.0243300069 0.0146728689 0.00860417355 0.0277308412 0.00745852245 -0 0.0151223866 -0.00518573681 0.00183039519 0.00708189094 -0.0154288933 0.00868648477 0.0270462744 -0.00968154613 0.00744736474 0.019593386 -0.0205433276 0.00202158908 0.0121600889 -0.0258521624 0.0104200933 0.00143990864 -0.0285320077 0.00820756983 -0.00591268437 -0.0279287249 0.00877094828 0.0182264149 0.00195592968 0.00373218022 0.0260466039 -0.0103531759 0.00858140923 0.0193035472 -0.010296802 0.00325407786 0.0169690344 -0.00582216913 0.0117282066 0.00967453327 0.00332006812 0.0102033895 0.00207993714 -0.00941447075 0.011680102 -0.00971071422 -0.00327672926 8.92377284e-05 -0.00204300345 -0.0108622182 0.0664382353 -0.0851923004 0.00230901223 0.0703876689 -0.086187385 -0.00491970545 0.0618103668 -0.0836249068 -0.00487434166 0.0698845387 -0.073114112 -0.00496993866 0.0629631802 -0.0666170791 -4.85011842e-05 0.0706720352 -0.0668230727 -0.0048974636 0.0628444031 -0.0706224442 -0.00506000407 0.0620390661 -0.0311483797 -0.00488055451 0.0697336271 -0.0285351649 6.61283339e-05 0.0704548657 -0.0665120631 -4.04787424e-05 0.0776878074 -0.0846019909 -0.00378679601 0.0780504942 -0.0705678612 0.0035124498 0.0761711895 -0.0695513114 -0.00106588623 0.0781411231 -0.0459685549 -0.00348360045 0.0712224245 -0.0270610359 -0.00479556248 0.0620144308 -0.0835148841 0.0121746417 0.0715385005 -0.0857693478 0.012269238 0.0616203584 -0.0816154554 0.00498659816 0.066195637 -0.0720138699 0.00222306768 0.0717041567 -0.0815796778 0.00490991259 0.0618103929 -0.030246662 0.00208857819 0.0709856823 -0.0270655677 0.00346061704 0.0704334006 -0.0665694475 0.00245321076 0.0770064145 -0.0526008978 0.00155951933 0.0837125629 -0.00488362741 0.0130682951 0.0837744027 -0.00491613708 -0.0126273008 0.0718218386 -0.00247152569 0.0135592474 0.0749120042 -0.0115652597 -0.000606934656 0.0780436248 -0.0316300169 -0.00333881215 0.0749832913 -0.0291363392 0.000552368991 0.0580688827 -0.027926648 0.00699811988 0.00868764147 -0.0285735242 0.000614498102 0.0583888106 -0.0277825557 -0.00772461528 0.0607700571 -0.0282115676 0.0196023248 0.0569823906 -0.0275178477 0.0287580248 0.0575366244 -0.0135136526 0.0115161818 0.0585842468 -0.0200029183 0.0104864994 0.0576696917 -0.0170766804 -8.91364907e-05 0.0669774562 -0.0137738399 0.0115648527 0.0656398982 -0.0139336996 0.0019620338 0.0704686418 -0.00902922917 0.00127045985 0.0610625446 -0.0183673892 0.020449467 0.0640954897 -0.0279302653 0.0261365324 0.0616055876 -0.0245192088 0.0049078227 0.0576771982 -0.0123579036 0.0173611324 0.061116714 -0.0182719566 0.0303047895 0.05694988 -0.0146882227 0.0253192578 0.0632699654 -0.0250683576 -0.00503634708 0.057738103 -0.00324117951 -0.0198781881 0.058958251 -0.0170293655 -0.0232359581 0.0580516271 -0.0202986058 -0.00979548879 0.0690134913 -0.00813542958 -0.00596604357 0.00514628459 -0.0219519269 -0.0181439091 0.0697391033 -0.00345908082 -0.0182745792 0.0580663793 -0.00745954458 -0.00805360638 0.0779536143 -0.00514269108 -0.0111249005 0.00826703198 -0.00543570798 0.0279135276 0.00750764133 7.40398609e-05 0.0216367021 0.00855944399 -0.0103280423 0.0159829501 0.000131460925 -0.0053379382 0.00897070579 2.27455585e-05 -0.00988253392 -0.000477240188 0.00607515546 -0.0164331924 0.0235390943 0.00185457314 -0.0156009523 0.0081313327 0.00516288728 -0.0181478504 0.0174821708 0.00424103392 -0.0233999789 0.0166194048 0.000323310058 -0.0138432914 0.00116494251 0.00993806403 -0.0134377489 6.22515945e-05 0.00139151071 -0.0168089978 -0.00440233294 0.00866711605 -0.0181981381 0.00153871148 0.00550588081 -0.0268311054 0.00935836602 0.00892401114 -0.0248064622 0.0135655878 0.00601784047 -0.0168484431 -0.0230130125 0.00240202644 -0.0117290467 -0.0138932792 0.000668228371 -0.00518331723 -0.0161092412 0.00424917275 0.00040116132 -0.0248697102 0.00853637327 -0.0261628777 -0.0101430295 0.00366951828 -0.0259352978 -0.0109259551 0.00400525285 -0.0183550157 -0.0159977153 0.00110166171 -0.00599841634 -0.0278507248 0.010062783 -0.00188512867 0.00945127755 0.00404931372 0.0250729546 0.0104362238 0.062395595 -0.0666677281 0.00280761812</float_array>
          <technique_common>
            <accessor source="#positions_array" count="192" stride="3">
              <param name="X" type="float" />
              <param name="Y" type="float" />
              <param name="Z" type="float" />
            </accessor>
          </technique_common>
        </source>
        <source id="normals">
          <float_array id="normals_array" count="1188">0.266545594 0.958337665 0.102676287 0.985848248 0.161134973 -0.0462466702 0.768102109 0.638058007 0.0538618676 -0.265948683 0.017247906 -0.963832855 -0.979948401 -0.0104241334 -0.198978499 -0.367676854 0.408526331 -0.835416079 0.0503254645 -0.544923067 -0.836974442 0.487779021 -0.0475028194 -0.871673763 0.115398727 -0.700615346 -0.704145789 0.167580768 -0.936598897 -0.307732373 0.242993146 -0.860821426 -0.447147429 -0.78513509 0.619058073 -0.0181648843 -0.408491611 0.912630677 -0.015487262 0.967650115 0.0522449538 -0.24682723 0.953471005 0.000916008314 -0.301483274 0.778889298 -0.181024224 0.60046792 0.0643013492 -0.00606864877 -0.997912049 -0.169572443 0.0667339191 -0.983255684 0.158459887 -0.00547686638 -0.987350225 0.986024499 0.0115394183 -0.166200295 0.986365378 0.0236125849 -0.162867218 -0.847663999 0.0443718806 0.528674603 -0.868534982 0.0192175433 0.495255172 -0.300026119 -0.116046414 0.946846128 0.798578143 0.0707812458 0.597714841 0.315129369 -0.113697998 0.942213476 0.862797678 0.0406829603 0.503909767 0.906913579 -0.0139485896 0.421085685 -0.0959853753 -0.192364037 0.976618111 -0.450367808 0.154284626 0.879411817 0.756212771 -0.00525237853 0.654304743 0.0155315986 0.116681777 0.993047893 0.328655809 0.14825657 0.932740748 -0.0536398478 0.998513579 -0.00966173038 -0.00436934317 -0.999951124 -0.00886657462 0.422755957 -0.904629111 -0.0540700071 -0.0171676613 -0.999653459 -0.0199551731 0.971368968 -0.214979261 -0.101125136 0.623247445 -0.733871996 -0.27017498 0.176166907 0.329789191 0.927471995 0.0517078079 0.136058629 0.989350498 -0.0916482955 0.110710256 0.989618003 -0.202831298 0.0473350026 0.978068948 0.528055012 0.409096897 0.744175792 0.920375109 0.080149889 0.382734507 0.646397889 0.120642781 0.753402293 0.0148374159 0.74279815 0.669350982 0.241936818 0.732267022 -0.636593759 0.22206299 0.815870821 -0.533894002 0.787118077 0.561757982 -0.254701912 0.240538225 -0.744750679 0.62248522 0.102191433 -0.834978282 0.540710807 0.634276509 -0.00977475755 0.773044527 0.372095019 0.11376483 -0.921196461 -0.0917287096 0.131916672 0.987007499 0.155940369 0.788907468 0.59439683 0.0206744485 0.952491581 0.303862363 -0.302552134 0.148016691 -0.941569567 -0.418284714 0.29833585 -0.857924044 -0.381537765 0.0590687022 -0.922464013 0.990631938 -0.125261471 -0.0543869734 0.687433779 -0.103549935 0.718827009 0.745293438 0.0930870399 0.660206437 0.74690026 -0.0184139311 0.664681017 -0.723565519 0.688883185 0.0435079522 -0.286545962 0.957718372 0.0258259345 -0.902585268 0.42196241 -0.0853673071 -0.984820545 0.161796913 -0.0628508031 0.982316494 -0.112121396 -0.149943545 0.955306411 -0.258383483 0.143623412 0.992422104 -0.119867206 -0.0270217732 0.993451357 -0.0899895877 -0.0704004765 -0.543281198 -0.0054244292 0.839533269 -0.999813139 0.0138784051 -0.0134570859 0.945094883 0.197743773 -0.260178924 0.0068180738 0.466705263 0.884386599 0.00997346081 0.794006824 0.607827008 -0.00519867614 0.565156758 0.824967146 -0.0513560697 0.820804298 0.568896174 0.988527656 -0.133966804 -0.069756642 0.990110338 -0.0961222202 -0.102186501 -0.999681652 0.0154595785 -0.019939322 0.993376672 0.0527362153 -0.102086611 0.0148636056 0.999427259 0.0304018948 0.0302762818 0.998038709 0.0547909513 0.0227390118 0.995955467 0.0869232193 0.0401583761 0.998736143 0.0302218925 -0.999975085 0.000167257647 -0.00705767982 -0.968910098 0.090715982 0.230182067 -0.869985938 0.265197903 -0.415685594 -0.88143748 0.0164003074 0.472015858 -0.398071766 0.0916104689 0.912768543 0.344516277 0.0747749507 0.935797632 0.0519364104 -0.00520145707 0.998636842 0.487275571 0.402182639 0.775120378 0.176456079 -0.00650652032 0.984287024 0.984290242 0.141891792 -0.105068795 0.969559312 0.187280655 -0.157736197 0.99971807 -0.0224134307 0.00783638749 0.94793576 0.316998303 -0.0304939523 0.702325284 0.46071893 -0.542657554 0.610144556 -0.231263548 0.757786751 0.20493117 -0.0231291447 -0.978503048 0.329142302 0.0233686771 0.943991125 0.75994873 0.601204574 -0.247044429 0.330785543 0.941415966 0.0657032505 0.687444389 0.686065435 -0.238189995 0.69136256 0.69780767 -0.187302515 0.270912111 -0.54198879 -0.795521736 0.620909572 -0.00177908922 -0.783880174 0.0635180995 -0.67625159 -0.73392731 0.37560299 0.428360671 -0.821845174 0.869880855 -0.273426592 -0.410542548 0.863968313 -0.028642986 -0.502730906 0.0413206778 0.9193331 -0.391304553 0.470585436 0.362335891 -0.804525971 0.0656191483 0.962659836 -0.262640774 0.0172436126 0.603198171 -0.797404885 -0.0418387391 0.773998022 -0.631804228 0.993142366 -0.0455377661 0.107677855 0.997386634 0.045664873 0.0559876598 0.997173846 0.0122352587 0.0741260126 0.0276967343 0.997512221 -0.0648248419 -0.102374703 0.993971586 -0.0392411612 -0.16646789 0.983428776 0.0718074739 0.982147515 0.120433085 0.14450641 -0.170849249 0.985233128 -0.0112330327 -0.817877591 0.251259714 0.517633855 -0.841369987 0.286917686 0.458011746 -0.881991565 0.179795012 0.435619771 -0.873833477 -0.278862536 0.398309916 -0.948693693 0.316102624 0.0077101239 -0.759558499 0.560684264 -0.329702944 -0.93951875 0.245808989 -0.238500401 -0.975362062 -0.0188186914 0.219806135 -0.97780025 0.208772257 -0.0179115329 -0.414097726 0.282370269 -0.865326583 -0.958518386 -0.133482888 0.251842827 -0.94344914 -0.278538704 0.179777443 -0.045576781 0.876844227 0.478609443 -0.0103701074 0.196487516 0.980451465 0.0102455793 0.0604277849 0.99812001 0.0262585282 0.988957286 0.145856142 -0.0616551004 0.960922778 0.26986298 -0.117926493 0.852597475 0.509088278 -0.824220836 0.492845863 -0.278860152 -0.990696609 0.125707194 -0.0521339737 -0.995477557 -0.0133499885 -0.0940545723 -0.000150847671 0.947139204 -0.320822835 -0.0578502119 0.668095827 -0.741822958 -0.0504972488 0.343201458 -0.937903404 -0.187242717 0.055678729 -0.980734468 0.014166656 -0.00901824608 -0.999858975 -0.113475963 -0.0612955131 -0.991648138 -0.842223108 0.321346521 -0.432893276 -0.705757856 0.410636842 0.577306926 -0.759548128 0.618714273 -0.20069702 0.553852499 0.392159343 -0.734478354 0.118653268 0.0770528764 -0.989941537 0.612460434 0.434928715 -0.660097897 -0.757306933 0.652496815 0.0270932149 -0.997665167 0.0199421607 -0.0653186291 -0.994692326 0.102648973 -0.00709709618 -0.839052975 -0.0317711085 0.543121219 0.789925873 0.566099942 -0.235686213 -0.999795318 0.00869677123 -0.0182655621 -0.794937074 0.198818311 0.573189616 -0.63480407 0.743540287 0.210170493 0.0864329487 -0.80170238 0.591441095 0.150457621 -0.819228351 0.553378165 0.275367498 -0.83980453 0.467868656 0.286282599 0.957830429 0.024559794 -0.232998475 -0.00588124944 -0.972459316 -0.862548649 -0.0351353846 -0.504752696 -0.883253634 -0.0299814846 -0.467936039 -0.248675033 0.866829753 -0.432165444 -0.109154515 0.684684217 -0.720619798 -0.230197236 0.509727776 -0.828967333 0.62814194 -0.30851227 -0.714323342 0.803010523 0.0084014805 -0.595905602 0.998983622 0.020562619 -0.040111661 -0.962028146 0.0117732473 -0.272696227 -0.997751474 -0.0160174444 -0.0650806502 -0.998877525 -0.0188484862 -0.0434556976 0.204036206 -0.978929222 0.00817686133 -0.0536449254 -0.998468697 0.0135098761 0.211836144 -0.977301657 0.00262911944 0.867476165 -0.00166766555 0.497475892 0.998643577 -0.00386754679 0.0519232787 0.983471215 -0.0220237095 0.179720253 0.209457755 -0.00339696021 -0.977811813 0.154843628 0.00258887443 -0.987935603 -0.383934319 -0.92287451 0.0299509484 -0.11182034 -0.993224561 0.0316418745 -0.995517969 -0.094572641 9.02082393e-05 -0.796483874 -0.604643226 -0.00447166199 -0.333219439 -0.942470312 -0.0267309528 0.0867318958 0.927808225 0.362835377 0.255799592 0.460309118 0.850107074 0.0375184491 0.65829283 0.751826346 -0.750108659 -0.658466101 0.0613133386 0.99039185 -0.054679025 0.127020448 -0.112601757 -0.17130442 0.978762329 -0.480756879 0.0561957508 0.875051379 0.997846425 0.0386385247 -0.0530052856 0.999688029 -0.0236318931 0.00808527507 -0.118664302 -0.992287874 0.0358260982 0.299914926 -0.950623035 -0.0797926858 -0.00238640443 -0.998991251 -0.0448414609 -0.687717676 0.408683747 -0.600018322 0.990100563 0.0568335056 -0.128338739 0.697989941 0.202462226 -0.6868909 -0.230084002 0.185881138 -0.955253661 0.785744429 -0.000902634696 0.618550599 0.764568567 -0.062681824 0.6414873 0.729204535 -0.147708997 0.668163776 -0.0979223996 -0.962988257 0.251127183 -0.0136711262 -0.999871314 0.00839380547 -0.173059851 -0.95366931 -0.246099904 -0.888641179 -0.458228528 -0.0185329299 -0.124620646 -0.99192369 0.0236024279 -0.0707855523 -0.996420443 0.0462142862 -0.154750228 -0.987894237 0.0108327596 0.995160282 0.0907596573 -0.0376662835 0.986755252 0.149627015 -0.0626562387 0.947865307 -0.270828456 -0.167938292 -0.0156325158 -0.932010531 0.362093955 -0.0800945312 -0.95517534 0.284999847 -0.0559074543 -0.971741319 -0.229332015 0.097465612 0.672491014 0.733659565 0.291220486 0.54138124 0.788731217 0.791993737 -0.57014358 0.218362466 0.600391209 -0.797947943 0.0530048497 0.569954813 -0.792307794 -0.217715174 0.62799108 -0.755670607 0.185981527 0.300275713 0.0516054817 0.952455461 0.209963977 0.30510971 0.928882778 -0.00187975261 0.117555313 0.993064582 0.959219456 0.19401145 -0.205566466 0.955391884 0.152651221 -0.252831966 0.941939473 0.00988890231 -0.335637003 0.798079073 0.27398935 0.536656022 0.89064002 -0.22026515 0.397798419 0.112561062 -0.227172136 0.967327654 0.963385105 0.146042645 -0.224857107 -0.648355246 -0.19852677 0.734998405 -0.161159351 -0.0923185349 0.982601106 -0.999958634 -0.00463124644 -0.0078256242 0.978517115 0.107130259 -0.176145792 0.972571075 0.228730008 -0.0422852039 0.334324092 -0.112198845 -0.93575573 0.0226893518 -0.0301988851 -0.999286354 0.306271344 -0.0862962306 -0.94802469 0.531588495 -0.604662061 -0.593125105 0.403169423 -0.902706504 -0.15025118 0.747141123 -0.664411664 0.0183642004 0.992005348 0.0609137826 0.110521004 0.979384661 0.038370803 0.198326394 0.989019752 0.138547644 -0.0514241047 0.0157486759 -0.600641251 -0.799363494 0.252662867 0.967552304 -0.00200876431 0.473031402 0.880350351 0.0349937715 0.353048116 -0.37439388 -0.857430041 0.718098402 -0.126272544 -0.684390187 0.00419402122 -0.80615145 -0.591694355 -0.0868776217 -0.983853877 0.156472921 -0.158215672 -0.987351477 0.0102373278 0.91312027 0.404098064 0.0540015996 0.731223583 -0.534958303 -0.423239499 0.415948302 0.012010389 -0.90930897 0.260359347 0.00465218164 -0.965500593 -0.680339992 -0.323096991 0.657834172 -0.663130939 -0.298341274 0.68647635 -0.910151303 -0.182952613 0.37168929 0.923234999 -0.00888458546 -0.384133101 0.294356704 0.599720359 -0.744103253 0.922596455 -0.0127791613 -0.385554731 0.929895639 -0.00621149782 0.36777097 0.91646558 0.00483062677 0.400084376 0.22162649 0.745983243 0.628005326 -0.751452625 -0.654317498 0.0847791061 -0.896724939 -0.11512325 0.427353501 -0.198222816 0.848888099 -0.489996582 -0.00931208301 0.999701679 0.0225806236 -0.959314406 0.274901807 0.0643802583 -0.932448447 -0.340561479 0.120655395 -0.980972648 -0.119401671 0.153088048 -0.96271652 0.199064717 -0.183166862 -0.0920179933 0.871405303 -0.481856346 -0.81346947 -0.57707262 -0.0724882558 -0.955525517 -0.136018395 -0.261667639 -0.986966252 0.0123403389 -0.160453439 0.0259562433 -0.88473165 0.46537742 -0.00241023977 -0.941158891 0.337955892 -0.984610915 -0.104188085 0.140307441 -0.959750116 -0.236648276 0.151252344 -0.96850425 -0.128520444 0.213265106 -0.102237374 0.617213249 0.780125201 -0.89511615 -0.133228287 -0.425461352 -0.938297093 -0.0497900993 -0.34222725 -0.921941161 -0.226650715 -0.314092308 -0.971965671 -0.120148845 -0.202106312 0.0340906829 0.074162297 -0.996663332 -0.491848111 -0.784273148 0.378154814 -0.639945507 -0.531708121 0.554757774 -0.154351667 -0.599764109 0.785148799 -0.00149559323 -0.921337664 -0.388760388 0.0357173793 -0.878038347 -0.477255613 -0.978177249 -0.146824509 -0.147009626 -0.945514083 -0.128964826 -0.298950195 -0.946693122 -0.122557551 -0.297912359 0.187464133 0.337499231 -0.922470331 -0.633410156 0.0431904607 0.772609949 -0.99849391 0.0542023256 0.00848323945 -0.984681666 0.0303240921 -0.171704426 0.970069706 0.00456693582 -0.242783636 -0.0590281561 0.0460707657 -0.997192621 -0.125631452 0.0197114181 -0.991881132 -0.010427678 -0.0488125272 0.998753548 0.260354012 -0.964580417 -0.0424312279 -0.166237324 0.985055387 0.0450672358 -0.411446214 0.459948301 0.786866903 -0.979583025 0.0349767543 -0.197973937 0.0197102129 0.866306961 0.499123037 0.993374527 -0.0423419885 -0.10683737 -0.997266054 0.0713020042 -0.0194012951 0.0195005871 0.447626859 -0.894007802 -0.502981901 0.385468662 -0.773578167 0.981730223 -0.189689294 0.0149591174 0.308874011 0.94602555 -0.0981451496 0.0302075464 0.992980123 0.114359178 -0.346781045 0.842582464 -0.412065178 -0.648796201 -0.0755962655 -0.757197917 -0.997257948 0.0603209399 -0.0428712666 0.0518652126 -0.411543995 -0.909912944 -0.0261564497 -0.4654634 -0.88468051 0.0874168128 -0.385537893 -0.91854167 0.875549734 -0.262051433 0.405883819 -0.978476524 -0.198622659 -0.0559702739 -0.902818263 0.346980453 -0.254015297 -0.167360812 0.888795376 0.426653445 -0.0111898445 -0.189532965 0.98181057 -0.284722775 -0.926029086 0.247796446 -0.993348658 0.0242506247 -0.11256256 -0.20795244 0.445583284 0.870753288 -0.993295908 0.112895228 0.0248583518 -0.00338004949 -0.769547224 0.638580918 -0.997657776 0.0550160371 -0.0406474695 0.186033845 -0.00682246778 -0.982519627 0.862494648 -0.0423126444 -0.504294217 0.808142841 -0.0726146251 -0.58449322 0.909367979 0.0140292943 -0.415756077 -0.0139180105 0.997819662 -0.0645151958 -0.185129523 0.000690461893 -0.982713878 0.00103121682 0.00282672327 -0.99999547 -0.95725733 0.0139907012 -0.288899034 0.154542178 0.00277619855 -0.987982273 0.858885288 -0.0132019864 0.511997759 0.51161015 0.0669076145 0.856608689 0.32447505 0.818859935 0.473481148 -0.890840828 -0.0193584561 -0.45390287 0.964075983 -0.115820535 0.23904635 0.22838439 -0.0131441504 0.973482311 -0.784461141 0.0024445171 0.620173097 -0.203985751 -0.976303458 -0.072258696 0.463808447 -0.885807335 -0.0150681818 -0.998645604 -0.0158158056 -0.0495661534 0.323567122 -0.858209193 0.39847365 -0.913532376 -0.0133584896 0.406546682 -0.998535872 -0.0492602475 0.0223515369 0.0208603684 -0.535943508 0.843996108 -0.00909616053 -0.571734905 0.820388019 0.0208659302 -0.820145011 0.571775138 -0.0278493129 -0.955679119 0.293090105 0.315752596 -0.292208374 0.902726173 -0.0353743471 -0.997514009 0.0609464683 0.977224827 -0.0202821735 0.211234972 0.242839694 0.97003746 0.00749554345 -0.302159816 -0.898064971 -0.319654167 0.143069521 0.715441465 -0.683867395 -0.666200817 -0.295823693 0.684590936 -0.977565169 -0.102724858 0.183885574 0.701765537 -0.203912646 0.682601511 0.858282447 0.0646426305 0.509090006 0.00660459837 -0.99225539 -0.124038644 -0.281057507 -0.956691504 0.0758158118 -0.768159449 0.49724704 -0.403331637 0.159696355 -0.329834402 -0.930433393 -0.0889138207 -0.387231916 -0.917685032 -0.0054087718 -0.571364045 -0.820678949 0.0127998274 -0.997484565 0.0697183982 -0.229205072 -0.513787627 0.826732874 -0.965512931 -0.1329059 -0.22387673 -0.95149219 -0.141913369 -0.272989452 0.954693198 0.149223372 0.25747475 -0.985170126 -0.133850083 -0.107350037</float_array>
          <technique_common>
            <accessor source="#normals_array" count="396" stride="3">
              <param name="X" type="float" />
              <param name="Y" type="float" />
              <param name="Z" type="float" />
            </accessor>
          </technique_common>
        </source>
        <vertices id="vertices">
          <input semantic="POSITION" source="#positions" />
        </vertices>
        <triangles material="qmat_c90f2351a1b48e4d" count="396">
          <input semantic="VERTEX" source="#vertices" offset="0" />
          <input semantic="NORMAL" source="#normals" offset="1" />
          <p>0 0 1 1 2 2 3 3 4 4 5 5 2 6 3 3 6 7 7 8 2 6 6 7 2 6 8 9 9 10 10 11 0 0 8 12 11 13 12 14 13 15 2 16 14 17 4 18 15 19 12 14 11 13 2 2 15 19 16 20 17 21 18 22 19 23 10 24 20 25 17 26 17 26 20 25 18 27 19 23 21 28 22 29 21 28 20 25 23 30 20 25 24 31 25 32 2 2 1 1 15 19 9 33 0 0 2 2 22 34 25 35 4 36 25 35 26 37 27 38 24 31 26 39 25 32 28 40 29 41 30 42 31 43 32 44 33 45 32 44 31 43 34 46 34 47 35 48 36 49 37 50 38 51 39 52 37 53 40 53 38 53 41 54 37 55 42 56 42 57 43 58 44 59 35 60 45 61 46 62 33 45 47 63 45 61 29 64 48 65 24 66 29 64 24 66 49 67 50 68 30 69 42 70 30 69 41 71 42 70 30 42 29 41 41 72 29 64 49 67 51 73 48 74 50 68 26 37 51 75 49 76 52 77 52 77 49 76 53 78 54 79 26 37 34 80 54 79 34 80 36 49 29 64 51 73 55 81 42 70 44 82 32 44 32 44 44 82 47 63 56 83 57 84 58 85 58 85 57 84 59 86 59 87 60 88 58 89 59 87 61 90 60 88 35 91 46 62 62 92 1 93 61 94 59 95 63 96 59 97 64 98 63 96 13 99 65 100 12 14 59 97 63 96 13 15 12 14 65 101 12 14 1 1 59 97 66 102 67 102 68 102 66 103 69 103 67 103 70 104 71 105 72 106 70 104 73 107 71 105 66 108 74 109 69 110 36 49 73 107 70 104 75 111 76 112 73 107 77 113 27 38 54 79 5 5 4 114 27 115 77 116 78 117 79 118 78 119 54 79 80 120 36 49 70 104 80 120 78 119 72 106 68 121 4 18 14 17 75 111 59 86 57 84 16 122 16 122 81 123 82 124 59 97 16 125 64 98 82 124 81 123 66 126 83 127 84 128 85 129 85 129 86 130 87 131 88 132 89 133 84 128 52 134 85 129 90 135 88 132 91 136 89 133 88 132 84 128 83 127 92 137 88 132 83 127 53 138 88 132 92 137 53 138 92 137 52 134 53 78 49 76 93 139 51 75 90 140 55 141 93 139 24 142 94 143 89 144 91 144 95 144 95 145 96 146 89 147 94 143 77 116 97 148 98 149 78 117 99 150 100 151 68 152 101 153 99 150 68 152 100 151 94 154 97 155 102 156 103 157 97 158 104 159 102 156 105 160 88 132 97 155 105 160 102 156 103 161 79 162 105 160 97 163 79 163 104 163 79 164 103 157 104 159 79 118 98 149 99 150 105 160 79 162 96 146 105 160 96 146 95 145 106 165 107 166 108 167 106 168 109 169 107 170 110 171 111 171 112 171 113 172 111 173 110 174 114 175 115 176 116 177 116 177 115 176 113 172 117 178 114 179 116 180 118 181 115 182 119 183 61 184 111 185 120 186 115 176 111 173 113 172 121 187 122 188 123 189 124 190 14 17 111 191 125 192 111 185 126 193 127 194 112 195 125 192 113 196 128 196 116 196 125 197 129 198 127 199 130 200 112 195 127 194 122 188 121 187 120 201 131 202 132 203 129 198 62 92 129 198 61 94 133 204 60 205 121 187 123 189 60 205 133 204 134 206 60 207 135 208 58 89 60 88 136 209 137 210 60 207 138 211 139 212 60 212 123 212 123 213 138 214 139 215 140 216 141 217 142 218 140 216 117 219 130 200 143 220 144 221 140 222 145 223 146 224 147 225 40 226 44 227 43 228 39 52 38 229 40 230 46 231 148 232 149 233 46 231 149 233 150 234 45 61 47 63 46 235 46 235 47 63 148 236 145 237 148 236 47 63 151 238 152 239 143 240 148 232 147 225 149 233 153 241 140 242 130 243 154 244 151 238 146 224 41 72 144 245 155 246 29 41 156 247 144 245 44 82 151 238 154 244 44 82 41 248 155 249 157 250 124 251 117 252 118 253 117 178 124 254 158 255 159 256 68 257 158 255 160 258 159 256 68 152 159 259 101 153 153 241 131 260 157 261 150 234 149 233 161 262 160 258 142 263 159 256 146 224 153 241 160 258 158 255 147 225 160 258 147 225 146 224 160 258 142 218 162 264 159 259 163 265 158 255 67 266 76 112 158 255 163 265 71 105 76 112 163 267 149 233 164 268 161 262 161 262 14 17 124 190 14 17 138 269 123 270 82 271 163 272 165 273 163 265 67 266 135 208 74 109 135 274 67 275 66 108 81 276 74 109 75 111 14 17 161 262 57 277 134 278 135 274 81 276 57 277 135 274 87 279 166 279 167 279 166 280 86 130 168 281 169 282 108 167 170 283 171 284 172 285 173 286 171 284 173 286 174 287 175 288 176 288 177 288 172 285 178 289 179 290 178 289 141 291 179 290 140 216 180 292 179 293 170 294 175 295 172 285 86 130 169 296 172 285 84 128 169 296 86 130 107 166 109 297 108 167 170 283 108 167 109 297 101 298 181 299 182 300 183 301 101 298 182 300 184 302 100 151 101 153 178 289 177 303 185 304 177 303 186 305 185 304 162 264 185 306 186 307 177 308 183 301 182 300 187 309 181 299 162 310 182 300 181 299 187 309 178 289 185 304 141 291 99 150 184 302 188 311 1 93 0 312 61 94 10 11 7 313 27 314 7 315 6 7 27 115 6 7 3 3 5 5 15 19 1 1 12 14 61 94 0 312 62 92 0 312 19 23 22 29 10 11 8 12 7 313 2 6 7 8 8 9 0 0 9 33 8 12 16 316 11 316 13 316 3 3 2 6 4 317 16 318 15 318 11 318 0 319 10 319 17 319 0 312 17 21 19 23 18 320 20 320 19 320 19 23 20 25 21 28 22 29 21 28 23 321 23 30 20 25 25 32 20 25 10 24 24 31 24 322 10 11 27 314 25 323 22 29 23 321 62 92 22 29 35 91 50 68 28 324 30 69 22 29 4 325 35 91 35 91 31 43 33 45 34 47 31 326 35 48 42 56 37 55 56 83 43 58 56 327 136 209 42 57 56 327 43 58 35 91 33 45 45 61 33 45 32 44 47 63 24 328 48 74 26 37 24 142 27 329 77 116 26 37 50 68 42 70 26 37 42 70 32 44 34 80 26 37 32 44 57 277 39 52 134 278 57 277 37 50 39 52 37 55 57 84 56 83 56 327 58 89 136 209 48 74 28 324 50 68 29 64 28 330 48 65 65 100 12 14 63 96 62 92 0 312 22 29 72 106 66 126 68 331 72 106 71 105 66 126 36 49 75 111 73 107 36 49 35 48 75 111 27 38 26 37 54 79 27 115 6 7 5 5 4 36 25 35 27 38 54 79 36 49 80 120 78 119 77 113 54 79 16 125 63 96 64 98 78 119 80 120 72 106 80 120 70 104 72 106 99 150 78 117 68 152 16 125 13 99 63 96 14 17 2 16 16 332 16 122 57 84 81 123 16 332 82 271 165 273 71 105 82 124 66 126 35 91 4 325 75 333 24 142 93 139 49 76 89 334 106 335 189 336 85 129 84 128 86 130 84 128 89 133 169 296 52 134 83 127 85 129 90 135 85 129 87 131 167 337 90 337 87 337 90 338 167 338 166 338 53 138 190 339 88 132 88 132 94 154 102 156 190 339 94 154 88 132 52 134 92 137 83 127 190 340 53 78 93 139 190 340 93 139 94 143 51 75 52 77 90 140 55 141 90 140 166 341 91 342 88 342 95 342 97 148 77 116 79 118 109 343 96 146 183 301 89 147 96 146 109 343 94 143 24 142 77 116 79 118 78 117 98 149 97 155 103 344 105 160 95 145 88 132 105 160 79 162 99 345 96 146 106 168 89 346 109 169 96 146 99 345 183 301 99 150 100 151 184 302 183 301 99 345 188 347 116 348 110 349 112 350 116 348 128 351 110 349 114 175 119 352 115 176 112 350 117 353 116 348 114 179 118 253 119 354 130 200 117 219 112 195 118 181 124 355 115 182 120 201 123 189 122 188 14 17 123 270 120 356 115 357 124 357 111 357 111 191 14 17 120 356 123 189 133 204 121 187 111 185 125 192 112 195 129 198 191 358 127 199 125 197 126 359 129 198 128 360 113 172 110 174 132 203 191 358 129 198 191 358 130 243 127 199 132 203 130 243 191 358 131 202 130 243 132 203 111 185 61 184 126 193 61 94 129 198 126 359 120 201 121 187 61 361 121 187 60 362 61 361 62 92 131 363 129 198 134 278 39 52 40 230 134 206 40 226 136 364 40 226 43 228 136 364 135 208 60 207 14 365 134 206 136 364 60 207 60 207 137 210 14 365 140 216 142 218 117 219 140 242 146 224 143 240 37 55 41 54 40 226 156 247 140 366 144 245 153 241 146 224 140 242 40 226 41 54 44 227 62 367 46 231 150 234 151 238 155 249 152 239 62 92 150 368 131 363 131 363 150 368 124 369 156 370 171 371 174 372 148 232 145 373 147 225 155 246 144 245 152 374 152 375 144 221 143 220 131 202 153 241 130 243 140 216 156 370 180 292 145 223 154 244 146 224 146 224 151 238 143 240 47 63 154 244 145 223 47 63 44 82 154 244 29 376 55 376 156 376 41 72 29 41 144 245 44 82 155 249 151 238 142 263 157 250 117 252 131 260 124 377 157 261 142 263 160 258 157 250 160 258 153 241 157 261 117 178 118 253 114 179 71 105 73 107 76 112 158 255 164 268 147 225 164 268 149 233 147 225 67 266 158 255 68 378 76 112 164 268 158 255 69 379 74 109 67 275 82 271 71 380 163 272 164 268 76 112 161 262 150 368 161 381 124 369 76 112 75 111 161 262 138 214 60 382 139 215 14 365 137 210 138 383 74 109 81 276 135 274 135 208 165 384 163 265 16 332 165 273 14 17 135 208 14 365 165 384 140 216 179 293 141 217 166 280 168 281 171 284 168 281 86 130 172 285 166 280 87 385 86 130 171 284 168 281 172 285 189 386 106 165 108 167 89 334 189 336 169 387 169 282 189 386 108 167 180 292 174 372 179 293 173 286 172 285 179 290 174 287 173 286 179 290 172 285 177 303 178 289 176 388 175 388 170 388 156 370 174 372 180 292 172 285 175 295 177 303 169 296 170 294 172 285 55 141 166 341 156 370 156 370 166 341 171 371 159 259 181 389 101 153 142 218 185 306 162 264 101 390 183 390 188 390 188 311 184 302 101 153 176 391 170 391 177 391 177 308 182 300 186 392 186 392 182 300 162 393 182 394 187 394 162 394 142 218 141 217 185 306 109 343 183 301 177 308 170 395 109 343 177 308 159 259 162 264 181 389</p>
        </triangles>
      </mesh>
    </geometry>
  </library_geometries>
  <library_visual_scenes>
    <visual_scene id="scene">
      <node id="link6_stl">
        <instance_geometry url="#geometry">
          <bind_material>
            <technique_common>
              <instance_material symbol="qmat_c90f2351a1b48e4d" target="#qmat_c90f2351a1b48e4d" />
            </technique_common>
          </bind_material>
        </instance_geometry>
      </node>
    </visual_scene>
  </library_visual_scenes>
  <scene>
    <instance_visual_scene url="#scene" />
  </scene>
</COLLADA>