<?xml version='1.0' encoding='utf-8'?>
<COLLADA xmlns="http://www.collada.org/2005/11/COLLADASchema" version="1.4.1">
  <asset>
    <created>2026-09-14T00:00:00Z</created>
    <modified>2026-09-14T00:00:00Z</modified>
    <unit name="metre" meter="1" />
    <up_axis>Z_UP</up_axis>
  </asset>
  <library_effects>
    <effect id="qmat_634f1a590715cf44_effect">
      <profile_COMMON>
        <technique sid="common">
          <lambert>
            <emission>
              <color>0 0 0 1</color>
            </emission>
            <diffuse>
              <color>0.5647098 0.5647098 0.5647098 1.0</color>
            </diffuse>
          </lambert>
        </technique>
      </profile_COMMON>
    </effect>
  </library_effects>
  <library_materials>
    <material id="qmat_634f1a590715cf44" name="qmat_634f1a590715cf44">
      <instance_effect url="#qmat_634f1a590715cf44_effect" />
    </material>
  </library_materials>
  <library_geometries>
    <geometry id="geometry" name="link1_stl">
      <mesh>
        <source id="positions">
          <float_array id="positions_array" count="165">0.036175441 0.0411884785 0.0563614927 0.0122839659 0.0388472453 0.0535469726 0.0290709827 0.0391075052 0.0512940735 0.0375000015 0.0382518731 0.0446161442 0.0193575788 0.0394818597 0.0364392735 -0.00376928737 0.0408191755 0.0406564325 0.02286008 0.0396947078 0.0184541158 0.0128826397 0.0411013104 0.063949272 0.0202084519 0.0416744649 0.0131747965 0.00861821324 -0.00800420158 0.0112565663 0.0010388298 0.00993904937 0.0109426053 0.0076617687 0.00562086282 5.64700131e-05 0.0137726273 0.0214800276 0.0103086922 0.00270879758 0.019216964 0.00684005208 0.0170534216 -0.00739959581 0.00729049183 0.0115184141 0.0150292506 -0 0.0137896826 0.0415192768 0.00731603429 0.012756967 0.0300183892 0.0160891004 0.0188802835 -0.0295357406 0.0126384189 -0.0181705393 0.0151835969 0.0175893735 -0.0176028498 -0.0302904267 0.0169761851 -0.012137332 -0.00296199392 0.0110120233 -0.0162903294 0.0394335128 0.0171513464 -0.0178764537 0.0417499989 0.00729374588 -0.0117227631 0.0269770343 0.0109527195 -4.89391168e-05 0.0146862818 0.0107217152 -0.000857305015 0.0131834187 0.000737608527 -0.010738668 0.00801578443 -0 0.00524879852 -0.0274044033 0.0526625477 -0.0189999994 -0.0382499993 0.00975453202 0.00816504564 -0.0376591943 0.0577297844 0.0128900101 -0.0273574833 0.0635429397 0.0214333665 -0.0312581584 0.0569934435 0.0113083692 -0.03397936 0.0501785949 0.00934537407 -0.0299045183 0.0324106179 0.00732051861 -0.0265463497 0.0421959125 0.0189138576 -0.0321094431 0.0375005603 0.0336536169 -0.0376424901 0.0552247539 0.0197609384 -0.0380840003 0.0333278812 0.0359658487 -0.0376706272 0.0403539911 0.032912448 -0.0275473073 0.0600018837 0.0210520048 -0.037995331 0.0644999072 0.0297253188 -0.0321752541 0.048412215 0.0363202021 -0.0274115987 0.0401440524 0.0300613306 -0.0299762785 0.0320146345 -0.0117452322 -0.021949688 0.00993378554 0.0124427611 -0.0378517061 0.00534878625 1.95816174e-05 -0.012315358 0.010786362 0.00394917559 -0.0177420881 0.00257816329 -0.0158225894 -0.00458047865 -0 0.0121483253 -0.00487285992 -0 -0.00320422021 -0.0191060621 0.00568071008 -0.00832823198 -0.0377976373 0.00496587763 -0.0187404603 0.00308899931 0.00651324354 0.00802810024 -0.0379112251 0.0422200933</float_array>
          <technique_common>
            <accessor source="#positions_array" count="55" stride="3">
              <param name="X" type="float" />
              <param name="Y" type="float" />
              <param name="Z" type="float" />
            </accessor>
          </technique_common>
        </source>
        <source id="normals">
          <float_array id="normals_array" count="396">0.0834522471 -0.962665915 0.257507443 -0.101415947 -0.987364769 0.121760465 0.0261214711 -0.984685659 0.17237106 -0.0169937015 -0.996136308 0.0861608833 -0.0522188507 -0.998270035 -0.027021328 -0.0564949065 -0.998112679 0.0240720753 -0.0375017114 -0.99928838 0.00404067757 -0.0429613441 0.999076009 -0.00122518383 -0.0111281015 0.999891222 0.00968142133 0.445481837 0.827220678 -0.342420638 -0.853708684 -0.365136802 -0.371290445 -0.852301717 -0.36654827 -0.37312752 -0.547086 -0.0912800804 -0.832084656 -0.342915326 0.424388349 0.838035583 -0.311474681 0.391232938 0.865979373 0.0245150086 0.0278407056 0.999311745 0.673125982 0.373572856 0.638235629 0.354924232 0.031797085 -0.934354186 0.780246079 -0.0988697335 -0.617609024 0.0168271363 0.0126350988 -0.999778569 0.697619677 0.0409182161 -0.715298831 0.383260667 -0.014104669 0.923532546 0.331671089 -0.0205469858 0.943171322 -0.0451059341 0.797846019 0.601171494 0.809202313 -0.285498738 -0.513499796 0.647837102 -0.546768188 -0.530425906 0.733115077 -0.0149192223 0.679940999 0.32848534 0.756354392 0.565707922 0.482754797 -0.0173592065 0.875583529 -0.0392216705 0.998842716 0.0278374478 -0.03431274 0.993794024 0.105811484 0.000472074054 0.0205616187 -0.999788463 0.0645508021 -0.467211813 0.88178587 0.323834568 -0.211415976 0.922190011 0.129132986 -0.11384698 0.985070348 0.158371881 -0.934836268 0.317804158 0.141205758 -0.64747864 0.74888742 0.10590589 -0.336089998 0.935856521 -0.622243345 0.70522058 0.339819193 0.0205461513 0.0147959292 0.999679446 0.00478724018 -0.998401999 0.0563074276 -0.0311649311 -0.206484795 0.977953374 0.200249955 -0.329214871 0.922777057 -0.0693397671 -0.377651185 0.92334801 -0.98110646 0.0792577565 0.176488772 -0.988906801 0.0630655363 0.134484321 -0.998181939 0.0244725645 0.0550807491 0.154028535 -0.978818834 0.134866342 0.315921456 -0.597943246 0.736652911 0.140542164 0.244724289 -0.959352851 0.220873922 0.331425637 -0.91726321 0.0172273256 0.108924136 -0.993900776 -0.851307213 -0.00236882828 0.524662197 -0.922791302 -0.143513605 0.357575238 -0.748189867 -0.0718579143 0.659581959 0.18580769 0.844934642 -0.501558542 -0.0914623365 0.904239237 -0.417116284 0.37347424 0.921750665 -0.104368098 0.0501470044 0.992400348 -0.112368904 0.117091574 0.992385685 0.0382129997 -0.980432093 -0.0207370985 -0.195762321 -0.0125252595 0.97309649 0.230057269 0.00687174639 -0.999976337 0.000353739539 0.0139765907 -0.999902308 -0.000159804433 0.0254299659 -0.999676585 0.000163261255 0.732508719 -0.0862509012 0.675271571 0.0837107748 -0.0563568287 0.99489516 0.896440387 -0.134068072 0.422398418 -0.423731625 -0.0249631722 0.905443728 -0.366605043 0.927380502 -0.0746065453 -0.545675099 0.836688459 0.046809867 -0.153080821 0.979884267 0.128035337 -0.325993329 0.88030386 -0.344664365 0.702597201 0.69861728 -0.135244429 -0.229999587 -0.0472354181 0.972043753 0.359706163 0.205327645 0.910193384 0.824687064 -0.00655070785 -0.565551341 0.974165738 -0.0172718558 -0.225172833 0.448634803 -0.0742829442 -0.890622735 0.829639673 -0.149747044 -0.537841797 0.0888646767 -0.28121084 0.955522656 0.322452486 -0.711258054 0.624608994 0.1828655 -0.459520817 0.869138002 0.163258359 -0.672400653 -0.721958458 0.205663666 -0.626805127 -0.751543581 -0.00855612662 -0.818530202 -0.574399829 -0.909309089 -0.180544615 0.374914199 0.58538866 -0.765717268 -0.266452909 0.769945264 -0.498140454 -0.398798704 0.898494601 -0.362637281 -0.247389674 0.242266908 0.523900449 0.816599667 0.0633670837 0.984764934 0.161933973 0.0100615863 0.962550163 0.270916849 0.161900297 0.985446692 -0.0517988242 -0.218969986 -0.224327073 -0.949594378 -0.238118902 0.102213919 -0.965842485 -0.249185339 -0.532755971 -0.808750749 0.028186094 -0.270987153 -0.962170184 0.123431928 0.991753995 -0.0344747975 0.483079195 0.858471394 -0.172224626 -0.041537676 -0.975977719 0.213874146 -0.712635756 0.47536695 -0.515923023 -0.607127488 0.705030739 -0.36650756 -0.704421461 0.284308463 -0.650353074 0.0069342372 0.973706722 0.227699682 0.969808042 0.217045575 -0.11119169 -0.293389469 0.729514956 -0.617843509 -0.215618432 0.684260428 -0.696632147 0.203910977 -0.977831304 -0.0476058051 -0.659508765 0.266123384 -0.703012466 -0.324061632 0.210875899 -0.922233939 0.31214568 0.42801705 -0.848154724 -0.124036632 -0.945918739 0.299754411 5.74238438e-05 0.020182969 -0.999796331 -0.999205709 0.0124030337 0.0378704779 -0.00337662362 -0.999861062 0.0163218249 -0.000898947648 -0.99999547 0.00286713964 0.0153799243 -0.999709964 -0.018532373 0.844719052 0.530364633 0.0718545094 0.978284121 -0.0379598662 -0.203762755 -0.00355524872 -0.99907577 -0.0428363308 0.00297252298 -0.999954343 -0.00907925982 0.306634396 -0.395503014 -0.865767121 -0.913747966 0.147571579 -0.378533125 0.0180007797 -0.999448121 -0.0279188491 -0.447044939 0.705005586 -0.550561488 -0.733246684 0.350423038 -0.582711816 0.380346179 -0.390254438 -0.838473737 0.232845142 0.947938442 -0.217246085 -0.302985817 0.0474499874 -0.951813042 -0.774792016 -0.553784013 0.304992765 -0.161490485 -0.0761338994 -0.983933151</float_array>
          <technique_common>
            <accessor source="#normals_array" count="132" stride="3">
              <param name="X" type="float" />
              <param name="Y" type="float" />
              <param name="Z" type="float" />
            </accessor>
          </technique_common>
        </source>
        <vertices id="vertices">
          <input semantic="POSITION" source="#positions" />
        </vertices>
        <triangles material="qmat_634f1a590715cf44" count="118">
          <input semantic="VERTEX" source="#vertices" offset="0" />
          <input semantic="NORMAL" source="#normals" offset="1" />
          <p>0 0 1 1 2 2 0 0 2 2 3 3 2 2 4 4 3 3 4 4 5 5 6 6 1 1 5 5 4 4 5 7 7 8 8 9 9 10 10 11 11 12 12 13 10 14 9 15 13 16 14 16 15 16 16 17 14 18 13 19 16 17 8 20 14 18 8 21 17 22 18 23 6 24 17 25 8 9 19 26 20 27 21 28 5 7 16 29 22 30 16 17 13 19 23 31 12 32 24 33 25 34 15 35 26 36 27 37 26 38 10 14 12 13 24 33 10 39 25 34 8 9 16 29 5 7 5 5 22 40 6 6 6 41 22 42 17 43 22 44 23 45 19 46 24 33 22 42 19 26 25 47 26 36 15 35 25 34 11 48 12 32 26 49 11 50 27 51 28 52 29 53 30 54 31 55 32 56 33 57 28 58 34 59 20 27 35 60 34 60 28 60 34 59 33 57 36 61 37 62 38 63 39 64 40 65 41 66 37 67 31 68 28 52 30 54 31 68 30 54 41 66 42 69 43 70 44 71 40 72 42 69 32 56 42 69 40 72 43 70 28 73 31 55 33 57 9 74 45 75 18 23 44 76 39 77 46 78 34 59 44 71 18 23 36 61 44 71 34 59 14 18 18 79 46 78 47 80 48 81 9 82 47 83 49 84 50 85 19 46 29 53 20 86 21 28 45 75 47 80 27 87 21 88 49 89 49 90 45 90 48 90 9 91 50 92 49 93 20 27 18 23 45 75 51 94 46 78 52 95 21 28 20 27 45 75 49 96 48 97 51 94 8 9 0 98 3 99 3 3 4 4 6 6 0 0 7 100 1 1 2 2 1 1 4 4 7 8 0 98 8 9 1 1 7 100 5 5 6 24 8 9 3 99 53 101 27 102 49 103 22 30 16 29 23 104 26 105 25 105 10 105 13 106 15 107 27 102 53 101 13 106 27 102 27 87 10 108 21 88 10 39 24 33 21 28 17 43 24 33 12 32 17 43 22 42 24 33 24 33 19 26 21 28 25 109 15 110 11 12 26 49 12 111 11 50 11 112 10 108 27 87 23 31 13 19 53 113 19 46 23 45 53 114 28 52 20 86 29 53 33 57 42 69 36 61 33 57 32 56 42 69 32 56 31 55 40 72 54 115 30 116 29 117 35 118 28 73 33 57 34 59 35 118 33 57 44 76 43 119 39 77 44 71 36 61 42 69 40 65 31 68 41 66 43 119 40 65 39 77 40 65 37 67 39 77 41 120 30 116 37 62 37 62 30 116 54 115 37 62 54 115 38 63 39 64 38 63 46 121 9 10 11 12 50 122 48 97 14 18 46 78 18 79 44 76 46 78 11 12 15 110 50 122 17 123 12 123 9 123 17 22 9 74 18 23 15 110 14 18 50 122 50 122 14 18 48 97 14 18 8 20 18 79 51 94 48 97 46 78 38 63 54 115 29 117 38 63 29 117 52 124 20 27 34 59 18 23 38 63 52 124 46 121 45 125 9 125 48 125 47 126 50 126 48 126 19 46 53 114 29 53 49 84 47 83 45 127 21 128 9 91 49 93 9 82 21 28 47 80 29 129 51 94 52 95 51 130 53 130 49 130 29 129 53 131 51 94</p>
        </triangles>
      </mesh>
    </geometry>
  </library_geometries>
  <library_visual_scenes>
    <visual_scene id="scene">
      <node id="link1_stl">
        <instance_geometry url="#geometry">
          <bind_material>
            <technique_common>
              <instance_material symbol="qmat_634f1a590715cf44" target="#qmat_634f1a590715cf44" />
            </technique_common>
          </bind_material>
        </instance_geometry>
      </node>
    </visual_scene>
  </library_visual_scenes>
  <scene>
    <instance_visual_scene url="#scene" />
  </scene>
</COLLADA>