<?xml version='1.0' encoding='utf-8'?>
<COLLADA xmlns="http://www.collada.org/2005/11/COLLADASchema" version="1.4.1">
  <asset>
    <created>2026-09-14T00:00:00Z</created>
    <modified>2026-09-14T00:00:00Z</modified>
    <unit name="metre" meter="1" />
    <up_axis>Z_UP</up_axis>
  </asset>
  <library_effects>
    <effect id="qmat_45af129ec809a57d_effect">
      <profile_COMMON>
        <technique sid="common">
          <lambert>
            <emission>
              <color>0 0 0 1</color>
            </emission>
            <diffuse>
              <color>1.0 1.0 1.0 1.0</color>
            </diffuse>
          </lambert>
        </technique>
      </profile_COMMON>
    </effect>
  </library_effects>
  <library_materials>
    <material id="qmat_45af129ec809a57d" name="qmat_45af129ec809a57d">
      <instance_effect url="#qmat_45af129ec809a57d_effect" />
    </material>
  </library_materials>
  <library_geometries>
    <geometry id="geometry" name="link8_stl">
      <mesh>
        <source id="positions">
          <float_array id="positions_array" count="153">0.0441587605 0.0200873408 0.00491169002 0.051686462 0.0212182105 -0.00628971448 0.069112502 0.0229916032 -0.00459570996 0.0453176983 0.0150786294 0.00518789841 0.0710000023 0.0240999814 0.00520212995 0.0162440781 0.0188157987 0.0156146698 0.0167143568 0.00356772426 0.0155044785 0.0135354241 0.0153179197 0.0110485042 0.021770943 0.00521707162 0.00941917859 0.0562186502 0.0248938184 -0.010038319 0.0284037087 0.0206550956 -0.0201820042 0.0282150079 0.0175689701 -0.014962309 0.0232041888 0.00631893659 -0.0221417639 -0.0171448756 0.0716425702 0.00834145118 -0.0157304481 0.0759856477 0.0165779516 -0.0175621118 0.0591208152 0.00824805535 -0.0184975471 0.0211601499 0.016643852 -0.0157658402 0.0170519333 0.0177107248 -0.0184919201 0.0762436166 0.0166766681 -0.0166289136 0.03701308 0.00840227026 -0.0168625508 0.0480775349 0.00854732841 -0.00808079075 0.0164230205 0.000618843827 -0.0110655585 -0.0123533094 -0.00337974471 -0.00815305486 -0.0124165062 0.00461117737 -0.00504407147 0.0163893383 -0.0126251942 -0.00480431179 -0.00948833674 -0.0302563701 -0.00521957921 -0.0123521667 -0.0127468649 -0.0124406507 0.0154205589 -0.0117811179 -0.0124806836 -0.0123270247 -0.0118997833 -0.0120597621 0.0164444987 -0.00387154031 -0.00429657288 0.0157699324 -0.0302563701 -0.00216658716 0.0162765495 0.0307436306 0.000373125571 0.013308567 -0.0248990189 0.000193196232 0.0132700093 0.0234928709 -0.000461545715 0.00744884787 -0.00777655095 -0.000129801381 -0.0105603784 -0.0257098507 0.0338856392 0.0110663101 -0.0129709477 -0.00154946884 -0.0124623198 0.0253944937 -0.0176480077 0.0277969427 0.00838998519 -0.0176805016 0.018055778 0.00898256153 -0.0171724092 0.0145525523 0.0235014409 -0.00511317747 0.0164258797 0.0247371867 0.000542166934 -0.00470499415 0.0238171872 -0.00248549879 -0.00703814579 0.0307436306 -0.000502990792 -0.00297845225 0.00728356419 -0.0184743479 -0.000290314929 0.0184933078 -0.0184779298 -0.0124482419 0.00830911286 -0.0177578498 -0.0124106985 0.0239496306 -0.0132349748 -0.0119755296 0.00656310236 -0.0132135106 0.0162171628 0.00643996103 -0.000363372499 -0.00297707459 -0.00772498362</float_array>
          <technique_common>
            <accessor source="#positions_array" count="51" stride="3">
              <param name="X" type="float" />
              <param name="Y" type="float" />
              <param name="Z" type="float" />
            </accessor>
          </technique_common>
        </source>
        <source id="normals">
          <float_array id="normals_array" count="342">0.143246889 -0.989676714 -0.0045085228 0.0396286696 -0.87848419 0.476125091 0.100859061 -0.947590113 0.303150862 -0.257694274 -0.1125471 -0.959649324 -0.339767814 -0.129984528 -0.931483686 -0.254589766 -0.0986303985 -0.962006271 0.331320018 -0.943248868 0.0225528795 0.332954913 -0.93730545 -0.102953911 0.331089914 -0.942625701 0.0428515412 0.408724248 0.000657928293 0.912657678 0.461816907 0.00783371646 0.886940718 0.186939001 -0.00133365358 0.982370615 -0.433367252 -0.117023133 -0.89358741 -0.303176731 -0.094228372 -0.948264122 -0.13630797 0.990603864 0.011139743 -0.0590298921 0.996995926 0.0501454771 -0.149235904 0.988801599 0.000113102811 0.15263994 -0.988281369 0.000991946203 0.335613996 0.00218243804 -0.941997051 0.360276103 -0.0737365335 -0.929926932 0.507742465 -0.431621909 -0.745587051 0.987735808 -0.0317722 -0.152867585 0.984725535 -0.00998929981 -0.173826858 0.956211686 0.0393911898 -0.290012985 0.0237881858 1.03909463e-06 0.999716997 -0.332744479 0.0179273635 0.942846596 -0.339758724 0.0182783641 0.940334976 -0.988398194 0.00791137107 -0.151678488 -0.982789576 0.0159053672 -0.184042588 -0.993011892 -0.0974143371 -0.0666174218 0.990106285 0.00480364123 -0.140237004 0.532852232 0.831089437 0.159244493 0.996349275 0.00329890894 -0.0853067711 -0.99787432 -0.0560737476 0.0332052931 -0.960187972 0.00608705496 0.279288381 -0.912359297 0.0192487296 -0.408937633 -0.999273539 0.0146986926 -0.0351623297 -0.999497533 0.0109950099 -0.0297294203 -0.999723196 0.00620078761 -0.0226959269 -0.114292741 0.00482816435 -0.993435383 -0.114013627 0.00490183942 -0.993467093 -0.115550801 0.0044960333 -0.993291378 -0.115858056 0.00441491185 -0.993255973 -0.918608069 -0.0105642136 0.395028681 -0.989231884 -0.025730243 0.144077167 0.0018421862 0.999898255 -0.0141452812 0.186859667 0.982135653 -0.0222031195 -0.0819510296 0.995297134 -0.0516496897 0.283813536 0.00255930843 -0.958876073 -0.0729991272 0.997322679 -0.00431690644 0.998437941 -0.0448468775 0.0333233252 0.999774218 0.00143314176 -0.0212008003 0.998254776 -0.0587100685 0.00636930298 -0.336569399 -0.0224342663 0.941391408 -0.336695224 -0.024881335 0.941284895 -0.0241219625 -0.648488402 0.760842264 0.0201074164 -0.999760926 -0.00859264378 0.0487277284 -0.998473287 -0.0260144621 0.275695384 -0.863326609 -0.422680974 0.297397912 -0.574394643 -0.762643635 -0.00686777849 -0.999966681 -0.00440817839 0.334642202 -0.941423416 0.0416713655 0.953076243 -0.0850734711 -0.290530771 0.820845306 0.55930078 -0.115739301 -0.0225219615 0.545549214 0.837776124 -0.00428415835 0.928384781 0.371595651 -0.602226257 -0.11315833 -0.790264964 -0.679662645 -0.0264212769 -0.733048797 -0.952981651 -0.016180696 -0.302595615 -0.998442948 -0.00136374147 0.055765748 0.152084082 -0.988367558 0.000195236338 0.151509792 -0.988455713 -0.000224198811 0.151370257 -0.988477111 -0.000171988708 -0.116729103 0.993162096 -0.00182946038 0.864800572 -0.447779596 0.22718592 0.860777795 -0.508140683 -0.0292338245 0.500540614 -0.849186182 0.168350562 0.413806319 -0.905014038 0.0985594541 0.972292364 -0.198333874 0.123738728 0.995899975 -0.0867252722 -0.0257293638 0.999477804 -0.0176961087 0.0270372927 -0.99699676 0.0198721644 0.0748501718 -0.82621026 0.0113525344 -0.563247502 -0.996351838 -0.0217496846 0.0825226828 0.629034221 -0.000798187335 0.777377188 -0.347916961 0.0111162271 -0.937459469 0.000658566132 -0.999971151 -0.00756637333 0.0892297551 -0.996009588 -0.00171712262 -0.0453839041 -0.99829185 -0.0367924497 -0.927676976 -0.00833132118 0.373290837 -0.991182208 -0.123374201 -0.0483392328 -0.993990123 -0.109139316 0.00849740952 -0.0928335488 0.0160763506 0.995551825 -0.599030375 -0.0390055925 -0.79977572 0.0324183814 0.999261916 0.0206070077 0.205597788 0.967223465 -0.149024472 -0.338406682 -0.00694466243 0.940974355 0.360782593 -0.175384656 -0.916010976 0.0650730282 0.878031909 -0.474157631 -0.983482897 0.0340960883 -0.17776075 -0.998750865 -0.0486727506 -0.0112987487 -0.996087492 0.0794961303 -0.0386018865 -0.992761731 -0.0234324355 -0.117792316 0.0356688239 -0.000599017774 0.999363482 -0.998870969 0.0200792234 -0.0430539511 -0.998849452 0.00123609335 0.0479399376 0.156750247 0.978475869 -0.134217709 0.999915779 0.00914421026 0.00920711178 -0.00374976336 -0.999989927 -0.00246230629 0.0936778709 0.995599806 -0.00233168271 0.702133775 0.575693667 0.41902864 0.635579109 -0.00869381521 0.771986783 -0.897599101 0.0122778574 0.440641761 -0.088717401 0.0184801258 0.995885372</float_array>
          <technique_common>
            <accessor source="#normals_array" count="114" stride="3">
              <param name="X" type="float" />
              <param name="Y" type="float" />
              <param name="Z" type="float" />
            </accessor>
          </technique_common>
        </source>
        <vertices id="vertices">
          <input semantic="POSITION" source="#positions" />
        </vertices>
        <triangles material="qmat_45af129ec809a57d" count="98">
          <input semantic="VERTEX" source="#vertices" offset="0" />
          <input semantic="NORMAL" source="#normals" offset="1" />
          <p>0 0 1 1 2 2 0 3 2 4 3 5 4 6 3 7 2 8 5 9 6 10 4 11 7 12 3 5 8 13 5 14 9 15 10 16 0 0 11 17 1 1 10 18 2 19 12 20 13 21 14 22 15 23 14 24 16 25 17 26 18 27 19 28 16 29 20 30 17 31 19 32 15 23 14 22 20 30 21 33 22 34 23 35 24 36 25 37 26 38 27 39 24 40 26 41 27 39 26 41 28 42 29 43 28 44 22 34 21 45 24 46 27 47 10 18 12 20 30 48 21 45 31 49 24 46 32 50 33 51 34 52 32 53 35 54 36 55 37 56 23 57 35 58 36 55 35 58 12 20 35 58 25 59 12 20 23 57 22 60 26 61 19 32 17 31 38 62 38 62 17 31 39 63 40 64 41 65 17 31 7 12 42 66 33 67 16 29 39 68 40 69 7 70 33 71 32 72 41 65 31 49 21 45 5 14 30 73 31 49 7 70 32 72 11 17 43 74 42 75 6 76 6 76 42 75 8 77 7 12 8 13 42 66 42 75 37 78 44 79 44 79 37 78 35 80 45 81 46 82 47 83 5 9 43 84 6 10 39 68 48 85 46 82 47 86 46 87 48 88 41 89 37 90 43 91 41 65 40 64 37 92 40 69 45 81 47 83 49 93 23 35 48 85 33 51 42 75 34 52 34 52 42 75 44 79 9 15 4 94 2 95 5 14 4 94 9 15 4 6 6 76 3 7 7 12 0 3 3 5 0 0 7 70 11 17 3 7 6 76 8 77 2 2 1 1 36 55 1 1 11 96 36 55 10 18 9 97 2 19 2 2 36 55 12 20 18 98 14 98 13 98 18 27 13 99 15 100 16 29 19 28 38 101 18 27 20 102 19 28 20 30 14 22 17 31 14 24 18 103 16 25 18 27 15 100 20 102 21 33 29 43 22 34 24 36 30 104 25 37 29 43 27 105 28 44 29 106 21 45 27 47 11 96 32 53 36 55 24 46 31 49 30 73 34 52 44 79 50 107 35 80 34 52 50 107 32 50 34 52 35 80 25 59 30 48 12 20 35 58 23 57 26 61 26 61 22 60 28 108 35 58 26 61 25 59 39 63 17 31 49 109 17 31 16 110 40 64 17 31 41 65 49 109 49 109 41 65 21 45 40 69 39 68 45 81 16 29 38 101 39 68 30 73 5 14 10 16 31 111 43 84 5 9 23 57 47 86 48 88 37 56 47 86 23 57 42 75 43 74 37 78 50 107 44 79 35 80 39 68 49 93 48 85 31 112 41 89 43 91 37 92 40 64 47 113 45 81 39 68 46 82 49 93 21 33 23 35</p>
        </triangles>
      </mesh>
    </geometry>
  </library_geometries>
  <library_visual_scenes>
    <visual_scene id="scene">
      <node id="link8_stl">
        <instance_geometry url="#geometry">
          <bind_material>
            <technique_common>
              <instance_material symbol="qmat_45af129ec809a57d" target="#qmat_45af129ec809a57d" />
            </technique_common>
          </bind_material>
        </instance_geometry>
      </node>
    </visual_scene>
  </library_visual_scenes>
  <scene>
    <instance_visual_scene url="#scene" />
  </scene>
</COLLADA>