<?xml version='1.0' encoding='utf-8'?>
<COLLADA xmlns="http://www.collada.org/2005/11/COLLADASchema" version="1.4.1">
  <asset>
    <created>2026-09-14T00:00:00Z</created>
    <modified>2026-09-14T00:00:00Z</modified>
    <unit name="metre" meter="1" />
    <up_axis>Z_UP</up_axis>
  </asset>
  <library_effects>
    <effect id="qmat_76668c90192cb1f5_effect">
      <profile_COMMON>
        <technique sid="common">
          <lambert>
            <emission>
              <color>0 0 0 1</color>
            </emission>
            <diffuse>
              <color>0.79216078 0.81961176 0.92941569 1.0</color>
            </diffuse>
          </lambert>
        </technique>
      </profile_COMMON>
    </effect>
  </library_effects>
  <library_materials>
    <material id="qmat_76668c90192cb1f5" name="qmat_76668c90192cb1f5">
      <instance_effect url="#qmat_76668c90192cb1f5_effect" />
    </material>
  </library_materials>
  <library_geometries>
    <geometry id="geometry" name="link4_stl">
      <mesh>
        <source id="positions">
          <float_array id="positions_array" count="345">0.0426955521 0.0150720878 -0.0863445848 0.0795520172 -0.00214577559 -0.0864625871 0.039279867 -0.00675257389 -0.0864249021 0.0627817586 0.0295562521 -0.0456010252 0.0800418779 0.0289752036 -0.0456111059 0.0597173534 0.0303554758 -0.0862928256 0.0535525419 0.0264996085 -0.045584131 0.0440884121 0.0146703571 -0.0844972134 0.0624804124 0.0286844 -0.0844492614 0.0460621305 0.0179300085 -0.0459222235 0.0426107645 0.015471641 -0.0531865992 0.0432324782 -0.0136317005 -0.084478721 0.0833186656 0.0271027237 -0.0843837634 0.0963942856 0.0183141641 -0.0460359342 0.0999594778 -0.000345162145 -0.0456406474 0.100970246 -0.00641675061 -0.0457823314 0.0954752117 0.0165970381 -0.045709908 0.0813060105 0.0292157307 -0.0863436386 0.0962959751 0.0138995983 -0.084430851 0.0828239322 0.00119316403 -0.0853551701 0.0997576043 -0.00473118294 -0.084495455 0.0954186171 0.018785093 -0.0864789635 0.0987377986 -0.0134110656 -0.0864005238 0.071983397 -0.0313898437 -0.0454623327 0.0561513379 -0.0271126833 -0.0456786491 0.0554615743 -0.0282026492 -0.0864054635 0.0675559193 -0.0296255685 -0.0457706191 0.0741825476 -0.0298592746 -0.0844222829 0.0563849397 -0.0260289442 -0.0844461396 0.0819260553 -0.0295253638 -0.0864397511 0.0438441522 -0.0139040267 -0.0457888097 0.0462582335 -0.0198130086 -0.0475355498 0.0400330164 -0.00917144492 -0.0531211682 0.0410372317 -0.0222123731 -0.0529800132 0.0411451161 -0.0185843632 -0.0449087583 0.0950249732 -0.0167524461 -0.0457613356 0.0833029002 -0.0265635364 -0.045660805 0.0914096013 -0.0233299211 -0.0456730202 0.0847831517 -0.000165070247 -0.0847822875 0.101140335 0.00465756375 -0.0854314417 0.0907980204 -0.0214041714 -0.0844708756 0.0418758988 -0.0216594022 -0.0164541416 0.0320091508 -0.0221665874 -0.0528941415 0.0407053456 0.00226144772 -0.0456392244 0.0411861874 0.0189249255 -0.0450110175 0.0355049968 0.0182630736 -0.0454919897 0.0409496948 0.0225120559 -0.0528622195 0.0320679061 0.0222729314 -0.0528191328 0.0320201851 0.0225410424 -0.0196538586 -0.00734448712 0.0369799659 0.0167376604 -0.017345272 0.027191801 0.00506908353 -0.00256390474 0.0273351315 0.0174434446 -0.0111878626 0.0336639062 0.0106425267 -0.00829211343 0.0368586332 0.000644165848 -0.00614539767 0.0332512222 -0.0011396897 0.00453470135 0.032210771 -0.00595204439 0.0061433767 0.0367326438 -0.0114612579 0.0319756083 0.0369859524 -0.0188492201 -0.010472266 0.0370358452 -0.0145205623 0.00281897141 0.0349498652 0.00526000699 0.00443431968 0.027259998 0.0069344705 0.0128889345 0.0331340432 0.00784880202 0.0117022553 0.027117284 0.0129691558 0.0029892982 0.0270461105 -0.0175126102 0.0145935053 0.0277267527 -0.00738014188 0.00676151318 0.0365273319 0.0122241564 -0.0175000001 0.0369724743 0.0016052376 -0.00963465963 0.0283092204 0.0026839925 -0.0136836618 0.0359996893 -0.0028983138 -0.0140422247 0.027194351 -0.00891713705 -0.00431317696 0.0332865641 -0.0148783671 0.0143607445 0.0319912061 0.0122270444 0.0412538275 0.0367096551 0.00658426993 0.0414768085 0.0365997441 -0.0166837648 0.0364182517 0.0370387957 0.0173403267 0.0411686637 0.0240641925 0.00571943074 0.040862374 0.0259626489 -0.00572892092 0.0340840854 0.0345462486 -0.0123793278 0.0341287144 0.0236273091 -0.00597600313 0.0319784544 0.0319325849 0.0175000001 0.0159725584 0.0319718681 -0.00924501754 0.0317015201 0.0319519565 -0.0176197141 0.0364908017 0.0335285552 0.0112064639 0.0363822915 -0.032307215 0.00917152688 0.00433072867 0.0343208313 -0.0175572243 0.0416013189 0.0200580098 -0.0188917778 0.0346613117 0.0177418198 -0.0342110917 0.00583516993 -0.0374305882 0.00536581874 -0.0020641482 -0.0361270197 -0.00794994179 0.0407038741 -0.037443094 -0.0153048225 -0.00699148746 -0.0351356901 -0.014582403 -0.01132832 -0.0374500006 -0.0125208097 0.00543569494 -0.035624925 -0.00636973372 0.00700533437 -0.0353317261 0.00478540175 -0.00681974972 -0.0342166796 0.00551607087 -0.0156022152 -0.0351997688 0.000945780717 -0.0078826556 -0.0339360572 0.0138054918 -0.00670097955 -0.0374270715 0.00265556993 -0.00954998285 -0.0373308361 0.0147284614 0.03645375 -0.0372701846 0.0161774382 0.0401935317 -0.0373559147 0.00600182591 0.0319700278 -0.0357066244 0.0148931416 0.0340882279 -0.0256267916 -0.00601273263 0.0410119444 -0.0271087438 -0.00591022335 0.0334277414 -0.0362882502 -0.00608209614 0.0339969322 -0.0267488603 0.010457946 0.0320041403 -0.032317128 -0.0152152916 0.0411708429 -0.0258471072 0.00587577885 0.0320866965 -0.0224748272 -0.0172952823 0.0352804251 -0.0334307626 -0.0142630571 0.040162798 -0.0351266265 -0.0148181962 0.0346723609 0.0177975353 -0.0143771581 0.0350632854 -0.0178651568 -0.0146211376 0.0351177417 -0.0179593246 -0.0375003405 0.0342262387 0.0270762555 0.00584316486</float_array>
          <technique_common>
            <accessor source="#positions_array" count="115" stride="3">
              <param name="X" type="float" />
              <param name="Y" type="float" />
              <param name="Z" type="float" />
            </accessor>
          </technique_common>
        </source>
        <source id="normals">
          <float_array id="normals_array" count="840">-0.00123128504 0.0042181015 -0.999990344 -0.0733289868 0.404183358 -0.911733866 -0.00110793964 0.00150876376 -0.999998271 -0.134662837 0.990449429 0.0295944102 0.297552109 0.954524457 0.0185971502 -0.326494217 0.945199072 -0.000484178629 -0.54822576 0.83601743 0.0228777211 0.279148489 -0.959547043 0.0366816893 0.879902124 -0.473304331 0.0418951437 0.287237942 -0.957665503 0.0192643348 0.786346555 -0.617669821 0.0119601376 -0.469990849 0.879534364 -0.0743502453 -0.787831008 0.614608109 -0.0397390276 -0.00310727721 0.000717297196 0.999994934 -0.00317742513 0.000749509432 0.999994695 0.0159500614 -0.0393036194 0.999100029 -0.328798592 -0.944232047 0.0178128704 -0.419237912 -0.9075194 0.0254581124 0.864739835 0.155102268 -0.477669716 0.144037202 0.10963618 0.983480155 0.1832335 0.087831445 0.979137957 0.225762889 0.0637299567 0.97209549 0.825128615 0.564213037 0.0287471619 0.33548066 0.942032397 0.00526037952 -0.845523536 -0.533844233 0.0100151729 -0.000705505197 -0.00163703423 0.999998391 -0.012536454 -0.0242361668 0.99962765 0.0688433126 -0.110637732 0.991473615 -0.0294199828 0.011325418 0.999502957 0.0183117557 -0.00987175759 -0.999783576 0.00140300114 -0.00229169521 -0.999996364 0.482456416 -0.39534387 -0.781625926 -0.00214670738 0.0046224934 -0.999987006 0.0575850122 -0.998084903 0.0225948486 -0.441517681 -0.892829001 0.0889863074 -0.466822177 -0.883350551 -0.0420580097 0.0681316406 0.796035647 0.60140276 -0.129086912 0.991373479 0.0226971116 0.466869712 0.883877158 0.0281749833 0.351289332 -0.935399354 -0.0402966179 -0.000988360029 -0.00127824664 -0.999998689 0.522475123 -0.0658101588 0.850111067 -0.458095968 -0.705172896 0.541183233 0.484964669 0.873964071 0.0315611474 0.0898075625 0.00678228866 -0.995936036 0.7105093 0.0471127704 -0.70210886 0.357698262 0.0174382776 -0.933674395 0.519402444 -0.443169922 0.730630875 -0.00848688837 -0.912017882 0.410062701 -0.96383363 -0.266493529 0.00244110054 -0.973980963 -0.225664452 -0.0208969843 0.0341795273 -0.0176288653 0.999260247 -0.335898966 0.196248397 0.921226621 0.0327209346 -0.0167896561 0.999323487 -0.434511662 0.900406182 -0.0216414984 -0.00830035098 0.0204385351 0.999756634 -0.172039419 0.43659097 0.883057594 -0.99998045 -0.00293238973 0.00552647235 -0.989881396 0.141180113 0.0142480023 -0.834052324 0.551466227 -0.0155456746 -0.596249402 -0.680220842 0.426363975 0.231037199 0.0214486904 -0.972708464 0.00121770753 0.00846096408 0.999963462 0.000267797848 0.00335632474 0.999994338 -0.00380396727 0.011046011 0.999931753 0.0318129845 0.0486791097 -0.998307705 0.00028204493 -0.000809590274 -0.999999642 -0.305572569 0.93931371 -0.155933306 0.128002122 0.42295298 -0.897065341 0.0691572577 -0.997593999 -0.00484058633 0.00985782035 -0.999888122 0.0112475539 -0.00492578512 -0.999871552 0.015250206 0.997841239 -0.065568462 0.00369901652 0.89012742 0.455582142 -0.0108658839 0.917149007 0.396728605 0.0380006433 0.0744379982 -0.853755116 0.515326262 0.597610772 -0.546233237 0.586933196 0.0375624113 -0.0944263488 0.994822979 0.997077405 0.0762470663 0.00480322726 0.971373141 0.225773767 0.0738946125 0.982020557 0.181129634 0.0531764664 0.00685465056 -0.00697301654 0.999952197 -0.0231728368 0.017445704 -0.999579251 -0.0265466552 0.0128543144 -0.999564946 0.203546733 0.97758162 0.053879045 0.0228909757 0.99972403 0.00528260879 -0.0269517358 0.999603748 -0.00811965391 -0.0171114821 -0.00690163579 -0.999829769 -0.479003906 -0.060547214 0.87572217 -0.950833261 -0.0125014139 0.309450775 -0.263757974 -0.0615685731 0.962621987 0.640825629 0.0500210635 -0.766055048 0.140668228 0.908861339 0.392662019 0.383586586 -0.215765595 0.897945762 0.532342434 0.506469727 0.678306699 -0.0297652446 0.994590163 0.0995209366 -0.000990526518 0.865469158 -0.500961244 -0.491168052 0.572285891 -0.656690836 -0.175124586 -0.713606715 -0.678304434 -0.176120281 -0.709980369 -0.681842685 -0.392022878 -0.692266881 -0.605875134 0.396760076 -0.446199626 -0.802176595 0.299314559 -0.87471199 -0.381168842 0.256569624 -0.965693831 0.0400935784 -0.302301764 -0.915745497 0.264620095 -0.430775851 -0.801125765 0.41548726 -0.341814876 -0.875533104 0.341473877 -0.975336552 0.127261862 -0.180341572 -0.192362741 0.974841893 -0.112604752 -0.0461766943 0.995510936 -0.0826175436 0.611232936 0.701513469 0.366433024 0.648725092 0.640209079 0.411446422 0.336732864 0.914852381 0.222836539 -0.812188804 -0.0874204934 0.576807559 -0.824677527 -0.0651772022 0.561835349 -0.918308496 0.222349584 0.327521205 0.954934955 -0.19301571 0.225486413 0.466851592 -0.882967412 0.0491741784 -0.0526215136 -0.978226662 0.200757459 0.728356183 -0.621763706 0.287935942 0.621869326 -0.782818198 -0.021776583 0.107813127 -0.158566579 -0.981444359 -0.829312325 -0.0907170698 -0.551372409 -0.996372819 0.0685825199 0.0503744893 0.82468915 -0.359606236 0.436544597 0.6293419 -0.230262399 0.742231786 0.870768547 -0.416550964 -0.261242032 0.0587109327 0.998266399 -0.00415289076 0.0434073694 0.999036729 -0.00643816451 0.00486906152 0.999965131 -0.00678595528 0.999634266 -0.0252181161 -0.00976907834 0.999608755 -0.00484796008 -0.0275475141 0.99945879 -0.0327400826 -0.00319826603 -0.0987435952 -0.657025576 -0.747373462 0.0709469169 -0.575307727 -0.814854324 0.202600822 -0.494763047 -0.845081329 0.0223856345 -0.996210933 -0.0840395689 -0.0428876691 -0.99607259 -0.0774601772 -0.031527061 -0.775738537 -0.630266428 0.0199028049 0.0175046008 0.99964869 0.0189834367 0.0103426129 0.99976629 -0.286997885 -0.928444684 0.235844612 0.916903198 -0.356525749 0.179382101 0.959824443 -0.239128828 0.146814436 0.873401284 0.111593857 0.47404328 0.0469765924 0.109162189 -0.992913306 0.181778491 0.10582234 -0.977628887 0.145992845 0.0854934528 -0.985584557 0.0934931263 0.0556617342 -0.994062781 0.297363281 -0.954715788 0.00963495299 0.231717348 -0.972543657 0.0215855222 0.245477587 0.967209637 0.0651630238 0.522604764 -0.108936593 0.845586836 0.726222038 -0.0798572376 0.682806194 0.550637245 -0.0874535367 0.830150902 -0.206944942 -0.696077406 -0.68749547 -0.0119452225 -0.999834895 -0.0136927525 0.089096792 -0.99052465 0.104511581 0.043839097 -0.712659955 -0.70013845 -0.0410211012 -0.597111821 -0.80110842 -0.017915763 -0.988063633 -0.153000966 -0.0558093525 0.986999154 0.150724962 -0.0108916853 0.999865055 0.0123004746 -0.119843878 0.992711723 -0.0126830172 -0.140238181 0.987641096 0.0699883327 -0.708278358 0.52529645 0.471598774 -0.0149231097 0.997606575 -0.0675164163 -0.0318089016 0.987962127 -0.151390359 -0.159784317 0.986088872 -0.0458006188 -0.128643155 0.989407957 -0.0672521815 -0.557318985 0.771909833 -0.305860698 -0.26186043 0.786406994 0.559457898 0.13940531 0.586225092 -0.798064053 -0.0367288403 -0.0981284156 -0.994495749 0.158916548 0.660066187 -0.734205782 -0.0751581863 -0.997090638 0.0127069829 0.335973978 -0.933329701 0.126559049 -0.391184777 -0.919837594 0.0295519661 -0.220468402 0.12247511 0.967674315 0.00182960997 -0.99995172 0.00965317152 0.00205579656 -0.999977708 0.00634879386 0.0295180343 0.998833001 -0.0382272191 0.837615311 -0.0275485087 -0.545565486 -0.367452383 0.319943935 -0.873278081 0.117632374 0.980923831 -0.154761344 -0.0297740642 0.998953342 -0.0347242989 0.105084553 0.994193137 0.0231774077 0.207862556 0.975817323 0.0676295236 -0.421832383 0.0287058018 -0.906219304 -0.898439646 -0.411431938 -0.153394908 -0.851647735 -0.516042829 -0.0916291848 -0.999127686 -0.0413565002 -0.00578775862 -0.187962517 0.976861894 -0.102034204 0.892337739 -0.050488431 0.448535651 0.945025265 0.0884913355 0.31479606 0.999755323 -0.00290454249 -0.0219297037 0.972168326 0.19573836 0.128744915 -0.99998349 -0.00574373966 0.000276812119 -0.999999762 -0.000646955043 6.29803617e-05 -0.999984384 0.00146107352 -0.00539512979 -0.203336239 -0.9090994 -0.363583088 -0.0136446599 0.153226569 0.988096893 0.144431278 -0.0276811235 0.989127576 0.0472218394 -0.10317757 0.99354136 0.0547569804 -0.158076823 -0.985907376 0.0934132934 0.0761068165 -0.992714286 -0.0125237554 -0.0794667602 -0.996758819 -0.0301314164 0.596902549 0.801747739 0.947574914 -0.0111968182 0.319337428 0.998677492 0.0139668938 0.0494797081 0.0957727507 -0.132032067 -0.986607909 0.992901862 0.118406609 0.0112126004 0.974576831 0.222927809 0.0224311668 0.448062211 0.891350627 0.0688061565 0.964296162 0.264429241 -0.0144954287 0.098449178 0.995134592 -0.00386161753 0.551165164 0.830960155 0.0756450444 0.999485135 0.0220765602 -0.0232833046 0.0209263936 -0.0576697066 0.998116374 0.119221568 0.921900272 -0.36862731 -0.880152345 0.474624425 -0.00796984974 0.991198003 0.131983146 -0.0103408629 0.984480321 -0.1716654 0.0364616401 0.784498274 0.620020449 -0.0117059574 0.109429531 0.128571227 0.985644281 -0.893140972 -0.44960621 0.0123894289 0.0840160623 0.318092257 0.944329739 -0.00179708109 0.0105416887 -0.999942839 -0.0220091511 0.122029878 0.992282391 0.665127277 -0.746186435 0.0284883417 -0.697061062 0.716412306 0.0293125231 0.891589224 -0.45177421 -0.0311240666 0.197841242 -0.47775209 0.855927467 -7.25804857e-05 0.00589007419 0.999982655 0.083759509 -0.996447027 -0.00881032739 0.929678738 0.0228567105 0.367661595 -0.00604692753 0.044600565 -0.998986602 0.999325037 0.00950684492 0.0354843736 0.0115046715 0.999900043 -0.00821532588 0.0585981756 0.995532274 -0.074038893 0.192943797 0.950356424 -0.244121656 0.394780427 0.585186183 -0.708311796 -0.223219961 -0.954246521 0.198963284 -0.0164648481 -0.999857187 -0.00381573942 0.298961699 -0.0177965742 0.954099178 0.120785125 -0.90241462 -0.413592577 0.0707214251 -0.966422558 -0.247034252 0.818219364 -0.377017736 -0.434021562 0.288343847 -0.767437398 0.572623491 -0.104008704 -0.215336874 -0.970985174 -0.418091178 -0.500955701 0.75778836 -0.144707978 -0.630015671 -0.762980938 0.446488529 0.150115162 0.882107377 -0.987412333 0.077325888 -0.137976587 -0.993823051 -0.00975731388 -0.110546373 -0.999957561 -0.00726618385 -0.00566589413 0.973806918 -0.133703366 0.183911547 0.999775529 -0.00888927188 -0.0192314964 0.587309003 -0.488627493 0.645221889 0.0715182498 -0.988110125 0.136100948 -0.164541408 -0.986370027 0.000562580943 0.307354957 -0.914174974 0.264229059 -0.0117868884 -0.0681481212 0.997605562 -0.39620024 -0.907446444 -0.139879644 -0.999998093 0.00132480031 -0.00144958869 -0.982069075 0.00746304868 -0.188373789 0.999449372 0.0284239873 -0.0171180684 0.311616957 -0.950204551 0.00249563064 0.225355223 0.130570963 -0.965487599 0.998818159 -0.0476054139 0.00979668926 0.891002417 -0.283203095 0.354838908 -0.0698202178 -0.22953546 -0.97079277 -0.489659667 0.450839072 0.74630928 -0.139700815 0.35054335 0.926068604 0.995888293 -0.0901301801 -0.00911089312 -0.425958604 0.879693747 -0.211419404 0.534922719 0.0341786109 0.844209373 0.975322127 0.0110542197 0.220509723 0.254375398 0.064133212 0.964976728 0.299057782 0.0774921998 0.951083302</float_array>
          <technique_common>
            <accessor source="#normals_array" count="280" stride="3">
              <param name="X" type="float" />
              <param name="Y" type="float" />
              <param name="Z" type="float" />
            </accessor>
          </technique_common>
        </source>
        <vertices id="vertices">
          <input semantic="POSITION" source="#positions" />
        </vertices>
        <triangles material="qmat_76668c90192cb1f5" count="246">
          <input semantic="VERTEX" source="#vertices" offset="0" />
          <input semantic="NORMAL" source="#normals" offset="1" />
          <p>0 0 1 1 2 2 3 3 4 4 5 5 6 6 3 3 5 5 3 7 7 8 8 9 3 7 9 10 7 8 9 11 6 6 10 12 8 13 7 14 11 15 4 16 3 7 12 17 13 18 14 18 15 18 13 19 16 20 14 21 4 4 13 22 17 23 16 24 4 16 12 17 12 25 11 15 18 26 18 26 19 27 20 28 21 29 22 30 19 31 18 26 11 15 19 27 21 29 19 31 1 1 4 4 17 23 5 5 5 32 21 29 1 1 23 33 24 34 25 35 26 36 27 37 28 38 23 33 25 35 29 39 2 2 1 1 25 40 30 41 31 42 24 34 26 36 28 38 24 43 24 34 31 42 25 35 32 44 31 45 33 46 31 42 34 47 33 48 32 49 2 50 31 42 31 42 2 50 25 35 14 51 35 52 15 53 26 36 36 54 27 37 15 53 35 52 37 55 35 52 36 56 37 55 14 57 20 58 35 59 19 60 22 60 38 60 21 29 39 61 22 30 11 62 28 63 40 64 1 1 22 65 29 66 1 1 11 67 38 68 41 69 42 70 33 71 43 72 30 73 11 74 44 75 45 76 9 77 44 78 10 79 46 80 9 77 45 76 43 81 43 81 45 76 30 41 47 82 10 83 32 44 48 84 46 85 47 86 47 82 32 44 42 87 49 88 50 89 51 90 52 91 51 91 50 91 53 92 54 93 55 94 56 95 57 96 58 97 53 92 56 95 58 97 59 98 60 99 51 100 61 101 62 102 60 99 52 103 59 98 51 100 55 104 63 105 64 106 56 95 55 107 59 108 59 108 65 109 56 95 66 110 67 111 68 112 53 113 69 114 67 115 68 116 50 116 69 116 54 117 70 118 55 104 54 117 67 119 69 120 54 117 69 120 70 118 58 97 63 121 69 122 66 110 68 112 58 97 66 123 69 122 50 89 71 124 62 125 64 126 72 127 73 128 74 129 72 130 75 131 76 132 77 133 76 134 78 135 79 136 80 137 81 138 74 139 51 90 79 140 61 141 55 104 64 106 82 142 74 143 83 144 57 96 81 138 84 145 57 146 85 147 48 148 80 137 84 145 81 138 85 149 86 150 44 75 48 84 85 151 46 85 73 152 77 153 85 154 76 134 77 133 73 155 74 129 73 128 57 96 87 156 88 157 89 158 90 159 89 158 91 160 88 161 92 162 90 163 93 164 88 161 87 165 94 166 88 167 95 168 95 169 90 163 91 170 96 171 93 164 94 166 94 172 87 173 97 174 98 175 97 176 87 156 95 177 91 160 98 175 74 139 79 140 99 178 99 179 87 156 100 180 93 164 101 181 92 162 102 182 103 183 104 184 105 185 103 186 102 187 82 188 83 188 105 188 106 189 104 190 101 191 105 185 107 192 103 186 107 193 83 144 100 194 77 153 105 195 102 182 99 196 100 194 83 144 79 197 42 198 108 199 104 190 106 189 109 200 90 201 110 202 109 203 108 204 110 205 106 206 106 207 90 201 109 203 111 208 77 153 112 209 108 204 41 210 110 205 110 211 100 194 89 212 112 213 34 214 113 215 34 214 41 216 33 217 41 216 34 214 112 213 12 25 8 13 11 15 7 8 9 10 43 72 3 218 6 218 9 218 44 219 9 11 10 12 6 6 5 5 10 12 0 220 10 12 5 5 0 0 5 32 1 1 39 221 13 22 15 222 21 223 13 22 39 221 13 19 4 224 16 20 17 23 13 22 21 223 16 24 18 225 20 58 14 57 16 24 20 58 16 24 12 17 18 225 20 28 19 27 38 226 12 17 3 7 8 9 5 32 17 227 21 29 1 1 29 66 25 40 26 36 24 43 23 228 11 74 30 73 24 43 11 74 24 43 28 38 30 41 34 47 31 42 37 55 36 56 23 228 36 56 26 36 23 228 37 229 23 33 29 39 1 1 38 68 22 65 35 59 40 230 36 54 35 59 20 58 40 230 22 231 37 229 29 39 20 28 38 226 40 64 22 231 15 222 37 229 39 221 15 222 22 231 19 27 11 15 1 232 40 64 28 63 27 233 38 226 11 62 40 64 27 37 36 54 40 230 41 69 108 234 42 70 42 87 32 44 33 46 30 41 45 76 113 235 113 235 34 47 30 41 44 75 86 150 45 76 47 82 46 236 10 83 10 12 2 50 32 49 7 8 43 72 11 74 10 12 0 220 2 50 45 76 86 237 113 235 59 98 52 103 54 117 56 95 53 92 55 94 58 97 57 96 84 145 66 238 49 239 53 240 53 240 49 239 59 108 49 239 65 109 59 108 53 240 59 108 54 241 59 98 61 101 60 99 61 141 59 242 55 104 62 102 51 243 60 99 71 124 51 244 62 125 79 136 51 245 71 246 55 104 70 118 63 105 84 145 80 247 63 121 54 117 52 103 67 119 52 103 50 248 67 119 66 249 53 249 67 249 49 88 66 123 50 89 53 113 68 250 69 114 68 251 67 251 50 251 68 112 53 92 58 97 58 97 84 145 63 121 49 239 74 129 65 109 63 252 70 252 69 252 66 123 58 97 69 122 79 136 71 246 80 137 65 109 74 129 56 95 80 247 71 124 64 126 62 253 61 253 64 253 79 197 81 254 48 255 114 256 82 142 105 195 74 139 49 88 51 90 78 257 114 256 105 195 77 153 78 257 105 195 72 258 74 143 82 142 76 259 114 260 78 261 72 258 114 256 75 262 75 263 114 260 76 259 72 258 82 142 114 256 79 197 48 255 42 198 48 255 47 264 42 198 56 95 74 129 57 96 81 254 57 265 48 255 63 121 80 247 64 126 46 80 85 266 44 78 85 149 111 267 86 150 57 146 73 268 85 147 85 154 77 153 111 208 73 269 72 130 76 132 89 158 88 157 91 160 93 164 92 162 88 161 88 157 94 270 97 176 95 169 88 161 90 163 88 157 97 176 91 160 96 171 101 181 93 164 94 172 93 271 87 173 95 168 96 171 94 166 99 179 98 175 87 156 96 171 95 168 98 272 97 176 98 175 91 160 99 178 79 140 101 273 101 273 98 272 99 178 92 162 101 181 104 184 103 274 107 193 100 194 104 184 103 183 110 275 83 144 74 143 99 196 100 180 87 156 89 158 101 273 96 171 98 272 107 193 105 276 83 144 101 191 79 197 106 189 112 209 77 153 109 277 77 153 102 182 104 184 109 277 77 153 104 184 104 184 110 275 90 163 113 235 111 208 112 209 79 197 108 199 106 189 86 237 111 208 113 235 92 162 104 184 90 163 90 159 106 206 89 158 106 206 110 205 89 158 110 211 103 274 100 194 110 202 112 278 109 203 41 279 112 278 110 202</p>
        </triangles>
      </mesh>
    </geometry>
  </library_geometries>
  <library_visual_scenes>
    <visual_scene id="scene">
      <node id="link4_stl">
        <instance_geometry url="#geometry">
          <bind_material>
            <technique_common>
              <instance_material symbol="qmat_76668c90192cb1f5" target="#qmat_76668c90192cb1f5" />
            </technique_common>
          </bind_material>
        </instance_geometry>
      </node>
    </visual_scene>
  </library_visual_scenes>
  <scene>
    <instance_visual_scene url="#scene" />
  </scene>
</COLLADA>