<?xml version='1.0' encoding='utf-8'?>
<COLLADA xmlns="http://www.collada.org/2005/11/COLLADASchema" version="1.4.1">
  <asset>
    <created>2026-09-14T00:00:00Z</created>
    <modified>2026-09-14T00:00:00Z</modified>
    <unit name="metre" meter="1" />
    <up_axis>Z_UP</up_axis>
  </asset>
  <library_effects>
    <effect id="qmat_c90f2351a1b48e4d_effect">
      <profile_COMMON>
        <technique sid="common">
          <lambert>
            <emission>
              <color>0 0 0 1</color>
            </emission>
            <diffuse>
              <color>0.89804314 0.91765098 0.92549412 1.0</color>
            </diffuse>
          </lambert>
        </technique>
      </profile_COMMON>
    </effect>
  </library_effects>
  <library_materials>
    <material id="qmat_c90f2351a1b48e4d" name="qmat_c90f2351a1b48e4d">
      <instance_effect url="#qmat_c90f2351a1b48e4d_effect" />
    </material>
  </library_materials>
  <library_geometries>
    <geometry id="geometry" name="link3_stl">
      <mesh>
        <source id="positions">
          <float_array id="positions_array" count="849">0.256953806 0.0293366704 -0.0316389836 0.259073853 0.0273723062 -0.0466566198 0.241975993 0.0269507393 -0.0424597152 0.242789179 0.0263676532 -0.0587898754 0.254212141 -0.0195091013 -0.0315399207 0.270006329 -0.0307712257 -0.0415919796 0.265526891 0.0280380398 -0.0623344332 0.253127605 0.0252909455 -0.0649866536 0.252186447 -0.0307631586 -0.0307591055 0.25325051 -0.0299879853 -0.0495178327 0.272057652 -0.0308057554 -0.07504832 0.268217474 -0.0291976929 -0.0396538675 0.234571338 -0.0192870796 -0.0308451876 0.226140842 -0.0197413601 -0.0853220075 0.269392073 -0.0195629336 -0.077282913 0.272161365 -0.0195801146 -0.0471155047 0.229798123 -0.0290049277 -0.0306604281 0.275003403 0.028884856 -0.0560688749 0.23510386 0.0289683696 -0.0834197626 0.230839327 0.025499735 -0.0680786669 0.232659668 0.0190117415 -0.0888554305 0.261309057 0.0292266514 -0.0865556598 0.240843669 -0.0193179268 -0.0900000036 0.254908949 0.0276887827 -0.0777207613 0.268589228 -0.0292151496 -0.0791144222 0.25340116 -0.0306279697 -0.0890994668 0.252814233 -0.0304847099 -0.0690444037 0.231633499 -0.0299473535 -0.0623365007 0.223832741 0.0281041209 -0.057362739 0.213001743 0.0132281296 -0.0572481602 0.211912081 -0.00020773217 -0.0813598856 0.21183975 -0.000222421731 -0.0387164354 0.205064431 0.0190102141 -0.0306002144 0.204499528 -0.0259909704 -0.0373085625 0.205174506 -0.0295231715 -0.0300130025 0.204279199 0.0249588452 -0.0415377803 0.205275744 0.0208109114 -0.0356253125 0.204380006 0.0248823762 -0.0784146041 0.212707445 0.0185004063 -0.0383782126 0.204938903 0.0218713339 -0.0402989388 0.213216662 0.0189635716 -0.077258639 0.229045957 0.0277270135 -0.0318755955 0.205599695 0.0269479025 -0.0301058367 0.216208547 0.024241738 -0.0404047072 0.213916346 0.0263637938 -0.0548419952 0.233018458 0.0188521948 -0.0314609595 0.215456188 0.0181496833 -0.0319416299 0.215802282 0.0177617166 -0.0489359088 0.214883506 0.0181434806 -0.0872943178 0.20524554 0.0259985551 -0.0897464827 0.222449213 0.0263949614 -0.080910936 0.205229685 0.0217297152 -0.0841291174 0.205674142 -0.030043602 -0.0900000036 0.204295963 -0.0254373048 -0.0827763379 0.217342511 -0.0198330991 -0.045407474 0.21655573 -0.0289203096 -0.0378934592 0.214906052 -0.0174423102 -0.0313601308 0.216876954 -0.0172732417 -0.0483510047 0.216042787 -0.0293446369 -0.0577359684 0.205725044 -0.030766923 -0.0389909893 0.211990386 -0.0297688097 -0.0398273766 0.21180968 -0.00177840597 -0.0386621915 0.212883562 -0.0257290974 -0.0801229551 0.211678937 -0.0176481809 -0.0386097282 0.221703038 -0.0291780289 -0.0885770321 0.215986818 -0.0196037982 -0.069812797 0.215706408 -0.0170251634 -0.0723968521 0.237281591 -0.0307942536 -0.0704067722 0.215027928 -0.0179574005 -0.0891466588 0.197139591 -0.00300279097 -0.060578011 0.211861432 -0.00196237559 -0.0813976973 0.20405075 -0.0241328105 -0.0814099014 0.203782171 -0.0242123548 -0.0401779339 0.160897836 0.0126998443 -0.0455390327 0.148217693 0.0131621808 -0.0488608629 0.177158698 0.0109941084 -0.0504539572 0.142950997 -0.000245802803 -0.0411454476 0.174741477 0.0199488513 -0.0498461835 0.160764068 0.0173985902 -0.0380018838 0.174620509 0.0230054967 -0.0477651916 0.17769064 0.0230462626 -0.0714352503 0.204919055 0.0218651537 -0.0812302679 0.173511311 0.023623595 -0.0680775046 0.141805023 0.0249131098 -0.0737215504 0.161664277 0.0163488891 -0.0820265561 0.176547259 0.0179968812 -0.0703178942 0.160972744 0.0130056664 -0.0752922744 0.14317812 -0.000232580176 -0.0804651976 0.160697803 -0.0204482693 -0.0385037549 0.177589551 -0.0249674246 -0.0711402521 0.177349404 -0.0249489564 -0.0485266969 0.0525086969 -0.0255153533 -0.0682652667 0.173625723 -0.0267777778 -0.0511921346 0.0524713993 -0.0257931128 -0.0515693724 0.177319482 -0.0129051916 -0.0496987887 0.143073469 -0.0017726724 -0.0403884538 0.161054432 -0.0141365584 -0.0757111385 0.161938846 -0.0211842228 -0.0812777877 0.176160455 -0.0202356912 -0.0699486881 0.173653543 -0.0267958827 -0.0688403696 0.144321218 0.0246308614 -0.0785370469 0.0823413134 0.0251407064 -0.0747787133 0.155580088 0.0238338169 -0.0762785971 0.144657105 0.0170621499 -0.0814460069 0.1447725 0.0128225703 -0.0709168091 0.0486500002 0.0201397948 -0.0697800815 0.146357059 0.0193859898 -0.0402282663 0.138596341 0.0113293901 -0.0480117798 0.142362058 0.0251080841 -0.0453088284 0.173138738 0.0232311692 -0.0520843118 0.082351394 0.0249519013 -0.0441997573 0.142996907 0.0115461191 -0.0383282639 0.0829618871 -0.000247583084 -0.0412992164 0.148937419 -0.0142375436 -0.0477823764 0.148681462 -0.0227672458 -0.0409056805 0.174957901 -0.0219812952 -0.0498971157 0.138380244 -0.0136065334 -0.0481447875 0.137457281 -0.0262094308 -0.0453898013 0.142825961 -0.018222129 -0.0380767286 0.0830155537 -0.00175779767 -0.0795789883 0.143125072 -0.00174859189 -0.0787189901 0.147636682 -0.0154122887 -0.0720815137 0.144915357 -0.0205078907 -0.0818463936 0.155413836 -0.0257456098 -0.0755282715 0.0512916856 -0.021530237 -0.0704074651 0.0864385739 -0.0143853314 -0.0713684112 0.138132215 -0.0131247789 -0.0720615536 0.021013163 -0.0268763974 -0.0788378268 0.137195751 0.024737196 -0.0458465256 0.0847240388 0.0183571838 -0.0381649844 0.0811545476 0.0122947833 -0.0482308418 0.0520352721 0.0237451456 -0.0519518368 0.0495856367 0.0194124188 -0.0506070331 0.088741906 0.0230691377 -0.0467286184 0.0211669188 0.0232079457 -0.0834270045 0.0813951045 0.0122858845 -0.0721145198 0.138077751 0.0124737415 -0.0734510571 0.0888661295 0.0234955344 -0.0733231679 0.0842836052 0.0178820081 -0.0819181278 0.141418323 0.0190959908 -0.0819201395 0.0831727982 -0.000216178087 -0.0799659491 0.137279093 -0.0262284335 -0.0738373548 0.0887548178 -0.0260444693 -0.0746135861 0.142851457 -0.0131423036 -0.0822116286 0.0844546482 -0.00228227861 -0.0385423824 0.0847796276 -0.0211143233 -0.0379448012 0.0210587047 -0.0248399656 -0.0358163118 0.0872557536 -0.0195675697 -0.0466583967 0.0788929909 -0.0139288045 -0.0486144312 0.0831439346 -0.00172193698 -0.0444020219 0.0596629307 0.0109369522 -0.0717762634 0.0680690259 0.0160388723 -0.0752228871 0.0641784817 0.0142579274 -0.0815653726 0.0519348718 0.0240775254 -0.0682089329 0.0609300695 0.0224547368 -0.0784017816 0.0189943742 0.0211191531 -0.0815804526 0.0141859874 -0.000217312161 -0.0388112999 0.0825400576 0.0155386766 -0.0381236635 0.0652265474 0.0163176283 -0.0383808464 0.0660796538 0.0128086824 -0.0451272763 0.0579127781 0.023098316 -0.0442216843 0.0284706149 0.000180624251 -0.060064178 0.0492908061 -0.0204098169 -0.0503244922 0.0635616183 -0.0196962338 -0.0381731726 0.0656164289 -0.0142861251 -0.045180928 0.0526662283 -0.0246561896 -0.0477596857 0.0819226652 -0.0107962033 -0.0383091867 0.0141618215 -0.00184789218 -0.0387413763 0.019417474 -0.0237091966 -0.0385936312 0.0840905234 -0.0180183146 -0.081882678 0.0789606348 -0.0211808197 -0.0776522011 0.0672731251 -0.0149611793 -0.0749188364 0.0643864498 -0.0210561845 -0.0816280469 0.0099808732 0.0391721167 0.00308132847 0.0100814151 0.0276343822 0.00179631729 -0.00301278918 0.0273025595 0.0097737452 0.0150067676 0.0392266065 0.0120843565 -0.00355748157 0.027300965 0.0185982604 0.0181107558 0.0275662933 0.00551605085 0.027349541 0.0412380695 0.0105129769 -0.000135293609 0.0412133038 0.0280000009 0.0156182721 0.0354772396 0.0230224226 0.00715868315 0.0406308435 0.0115825292 0.0132930372 0.0403573513 -0.00349996658 0.00439568609 0.0272914805 -0.0094259819 -0.00910354964 0.0391122662 0.0169548839 -0.00209876779 0.0412500016 0.00228202878 -0.00860054605 0.0404487066 0.00981294271 -0.0101587847 0.0276522078 -0.00170028885 -0.0169468615 0.0391833074 -0.0116133345 -0.0132779293 0.0273179337 -0.0143668409 -0.0178796072 0.0275172237 0.00295057567 -0.00390151562 0.034487132 0.0273762029 -0.0240930468 0.0348815098 0.0143587384 0.0147746401 0.0392315872 -0.0126929116 0.0107111502 0.0272993855 -0.0156698618 0.00673316279 0.0407279767 -0.0120739685 0.0276239365 0.0380071066 -0.0316812806 0.0194612835 0.0412061363 -0.0347417407 -0.00716290344 0.0407845862 -0.0115830712 0.000398095028 0.0412500016 -0.0849860534 -0.0198777318 0.0391169824 -0.0220239516 -0.00284612458 0.0391697586 -0.0101103308 -0.0280020703 0.0412427522 0.00512381503 -0.0268107038 0.0311938711 -0.00794409215 -0.0172338169 0.0311072264 -0.0306518357 0.0261594541 -0.033142589 0.0105051678 0.0127124181 -0.0432321988 0.0260559674 0.0271405037 -0.0432422422 0.0064750989 0.01067896 -0.0376566947 0.0253861006 0.0236580167 -0.0409540124 0.00468823826 0.00293999561 -0.0407098308 0.0133746602 0.0151365623 -0.0331567787 0.0125096627 0.0100813163 -0.0361715332 0.00489724427 -0.00591544807 -0.034557268 0.0198266059 0.0077189235 -0.0303350464 0.00804320723 0.00369082973 -0.0389856063 0.0186239947 0.0042390381 -0.0353544503 -0.0110527473 -0.0084984703 -0.03054123 0.00635162415 -0.00574821047 -0.0366470441 0.0103223231 0.0114414645 -0.0411824994 -0.000101259604 -0.0131519996 -0.0410703346 0.00152157294 -0.024915617 -0.0329065323 0.0130203627 -0.0280020703 -0.0431837514 -0.00394843379 -0.0187500529 -0.0432214364 0.0223013218 -0.0267443899 -0.0331422128 -0.0071876985 -0.0220345967 -0.0412821546 0.0121812969 -0.0189507399 -0.0325251259 0.00549059222 -0.00811889675 -0.0367810614 0.026338676 -0.0151711795 -0.0369368494 -0.00748210866 0.0258303732 -0.0411963128 -0.031114202 0.0265527051 -0.0294996016 -0.0318663269 0.0226535015 -0.0432499982 -0.0340455435 0.0185875334 -0.0321101509 -0.00917811785 -0.000594125828 -0.0306729842 -0.010494913 0.0154548734 -0.0381690189 -0.00333402422 0.00352217047 -0.0325931348 -0.0198155474 -0.0155045157 -0.0326593705 -0.0145793334 0.0102421828 -0.0411981009 -0.0331796519 0.0152957486 -0.0432417654 -0.0333790518 -0.0180445686 -0.0296454038 -0.0312736779 -0.0221330542 -0.0411495231 -0.0161485039 -0.00836137962 -0.0432317331 0.00941656437 -0.0107034622 -0.0432123914 -0.054037258 0.0223491825 0.0176962316 -0.034767136 0.0110900402 -0.000262764253 -0.0311022494 0.0141866039 -0.000182666772 -0.0813555941 0.0195358805 0.0215074122 -0.0386948064 0.0210315026 0.0249488279 -0.0408676118 0.019320786 0.0405521616 -0.0883989111 0.0182741806 0.0392321907 -0.0834377185 0.0139251277 0.0133262947 -0.0666248128 0.0123869879 0.0172570515 -0.04035189 -0.00398705574 0.03918387 -0.0679463148 -0.017146714 0.0189534817 -0.0343612731 -0.00100665563 0.0189877972 -0.0785342157 0.0101594757 0.019668581 -0.0889297724 0.0200638194 -0.0422686674 -0.0884374678 0.0141047826 -0.00189352245 -0.0810749978 0.0194257982 -0.0229659043 -0.0815309286 0.0181730539 -0.0412362516 -0.0815244317 0.0189334322 -0.0410096496 -0.0387955792 0.0484957583 -0.0247386936 -0.0710667148 0.0291260201 -0.00286256219 -0.0605805144 0.0105809821 -0.0196065065 -0.0888986215 0.0125301201 -0.0193913318 -0.0806603283 0.0120715601 -0.0181544926 -0.0414051861 0.0150597831 -0.0196411181 -0.0343233049 0.013931484 -0.0432475209 -0.0355792604 -0.00767034246 -0.0411388464 -0.0568914711 -0.00173248828 -0.0208290108 -0.0790301487 0.0121036898 0.0104491627 -0.0791691095 0.00436927704 -0.0411837325 -0.0861397088 0.00659554545 -0.0432499982 -0.0889372304 0.216945797 0.0164364204 -0.071425572 0.196464807 0.000125549806 -0.0600625873 0.163468048 -0.0154396053 -0.0449327417 0.0211707372 -0.0213174429 -0.0844719335 0.0811048597 0.0188901369 -0.0814451128 0.0735953078 -0.0264614206 -0.0454633832 -0.00657992251 0.0392103978 0.00743466709 0.0260435436 0.0353369527 0.00805138424 0.0161489714 0.0392030403 -0.0353453122</float_array>
          <technique_common>
            <accessor source="#positions_array" count="283" stride="3">
              <param name="X" type="float" />
              <param name="Y" type="float" />
              <param name="Z" type="float" />
            </accessor>
          </technique_common>
        </source>
        <source id="normals">
          <float_array id="normals_array" count="1929">-0.086284861 0.986076951 -0.142151982 -0.105527446 0.990961492 -0.0828207582 -0.0217907894 0.997024238 -0.0739450082 0.0097140586 0.999869585 -0.0129034454 0.438295722 0.0421963185 0.897839844 0.371747345 -0.0207194909 0.928102672 0.849705637 -0.0328964107 0.526230097 -0.129503772 0.991122127 0.0300954282 -0.0317534283 0.999108315 -0.0278257616 -0.0370614789 -0.999105096 -0.0203817952 -0.0075127068 -0.999563515 -0.0285707377 -0.0155905932 -0.999675214 -0.020158736 -0.0211833492 -0.999725461 0.0100105582 -0.539792776 -0.0783754662 -0.838141382 -0.65610826 0.566768527 -0.498292476 -0.487012595 0.0270910822 -0.872974694 -0.348500192 -0.00388243329 0.937300682 0.339530528 -0.813471258 0.472211272 0.00531261228 -0.999965489 -0.00638835551 0.00145066483 -0.999995887 0.002472942 -0.00508095231 -0.999962807 0.00697035575 0.00074578973 -0.999965906 0.00822336599 0.0755654797 0.94422096 0.320525527 0.028685879 0.550074339 0.83462286 -0.0246537216 0.999176919 -0.0322127119 0.99206847 0.0618330501 0.109438516 0.905062795 -0.0357753485 -0.423770607 -0.0491684563 0.992678821 0.110323198 0.317475826 0.931631565 0.176838115 -0.153145105 0.0694712549 -0.985758781 0.539399981 0.121104822 -0.833295405 -0.147094652 -0.0130822295 -0.989035904 -0.0444111899 0.990649879 0.128997773 -0.0716612712 0.990151703 0.12026754 -0.84823519 -0.0297843944 0.528781533 -0.444817632 -0.332192719 0.831736326 -0.660534441 0.567918062 0.491083801 0.413615197 -0.0159579646 -0.910311937 -0.000210358878 -0.999750733 0.0223243348 -0.00559708755 -0.99998343 -0.00135554594 0.0306342002 0.984599411 0.17212081 0.0291681103 0.99956584 -0.00415906683 -0.460741282 -0.450680643 0.764594316 -0.0162027013 0.998538613 -0.0515572652 -0.95746088 0.164313629 -0.237212405 0.0658353493 -0.990920782 0.117224805 -0.0541868918 0.997771561 0.0389324315 -0.999228239 0.0382226706 -0.00905068964 -0.684723139 0.0139864339 0.728669047 -0.997947812 0.061460048 -0.0179661233 -0.999067545 0.0371452197 -0.0220054109 -0.989475429 -0.141915336 0.0282554477 -0.995012462 -0.0860974789 0.0503729433 0.971625924 0.236512914 0.00216555502 0.971081972 0.238734454 0.00238825614 0.967458904 0.252999455 0.00382101326 -0.649267673 -0.429017693 -0.628008962 -0.137275934 -0.875182688 -0.463907957 -0.788440943 -0.495135814 0.364967644 0.0196920056 0.0406758972 0.998978317 0.07731653 -0.0671684369 0.99474144 0.0951933414 -0.0432820916 0.994517386 -0.594675779 0.674032629 -0.438224465 -0.0707375258 0.992601633 -0.0986822993 -0.268863678 0.962873161 -0.0242412295 -0.313786238 0.948749065 0.0375952609 -0.1785312 -0.114543058 0.977244318 0.0606705658 -0.742509127 0.667082608 -0.708833873 -0.0147420866 0.705221415 -0.836436689 0.501097322 -0.221980035 0.107275106 -0.449591279 -0.886769295 0.144541875 0.0239735227 -0.989208221 -0.202868253 0.974841118 0.0923538134 -0.285560429 0.805087745 0.519893229 -0.999767721 -0.00624316977 -0.0206295066 -0.988588512 -0.0997860655 -0.112851463 -0.984453917 -0.149883494 -0.0915717036 0.874644816 -0.314780802 -0.368659079 0.558018804 -0.405918449 -0.723771572 0.66795814 -0.507733762 -0.544094086 0.0928417221 0.995466232 0.0206748787 0.0234887805 0.99937582 -0.0263867434 0.0360059477 0.999311924 -0.0088995574 0.0116742365 0.0476742052 0.998794734 0.0528749861 0.0557818003 0.997041941 -0.16758506 -0.985834777 0.006709571 0.61803019 -0.317237645 -0.719304442 -0.969005644 -0.246874884 -0.0089913737 -0.876976252 0.23793219 -0.417493582 -0.905047297 0.377532005 -0.195854366 -0.624810874 0.23229228 -0.745420456 -0.999744713 -0.00880477298 -0.020808246 -0.999482572 -0.0311857443 -0.0078726206 -0.999499023 0.00813333038 -0.0305865295 0.998859167 -0.0016013321 0.0477256924 0.995929182 0.0186720919 0.0881841257 0.992781579 0.0323809758 0.115482628 0.994146883 -0.105462722 -0.023444172 0.0592866912 0.063797757 0.996200264 0.0180158857 -0.0590736456 -0.998091042 0.0758062303 0.553678453 -0.829272926 0.042163834 0.0280077662 -0.998718083 0.636769056 -0.751273692 0.173531055 0.704646707 -0.365455866 0.608206451 -0.640866816 -0.0484090112 -0.766124189 0.173338771 -0.969174743 0.175082877 -0.00631140359 -0.998484313 0.0546737537 -0.0176109206 -0.999734879 0.014832221 -0.348838091 -0.937123358 0.0105729317 0.0416761674 0.0480157323 -0.99797672 0.994232476 -0.0212641899 -0.105117425 0.997890949 -0.00409282139 -0.0647833422 0.999148309 0.00609132415 -0.0408112407 0.0135230916 -0.99950403 0.028439654 0.000790396472 -0.999763072 0.0217528939 0.027721988 -0.999155521 -0.0303279273 0.958129525 0.225027353 0.177060783 0.246343002 0.965206087 0.0877060294 0.156994522 0.978214443 0.135828018 0.180620387 0.975790322 0.123327002 0.25809142 0.962701797 0.0812037215 0.188831002 0.696150541 -0.692616224 0.560412765 0.828196824 0.00524814194 0.0683573484 0.996043622 0.0567831621 -0.011974561 -0.999827981 -0.0141658783 0.0884727165 -0.889755726 0.44778049 -0.158773825 -0.859133244 0.486498684 -0.0675854534 -0.990454257 0.120135449 0.0352276564 0.0164184943 -0.999244452 0.0714533105 0.0813480318 -0.994121194 -0.0458642542 0.0232525058 -0.998677015 -0.0508523919 0.0539577827 -0.997247517 -0.144027233 0.347795337 -0.926441848 0.184230521 -0.700315237 -0.689650416 0.445040584 -0.886504352 0.126684099 0.39649272 -0.917888105 -0.0165803954 -0.142656162 -0.98799032 0.0593663156 -0.00965482648 0.996682167 0.0808174312 -0.0311301816 0.999307394 0.0203863587 0.00129154103 0.996336579 0.0855085477 -0.0168968085 0.953960001 0.299457431 0.444732755 -0.888765275 -0.110946365 0.772413194 -0.298912913 -0.560382843 0.53608954 -0.729293704 -0.425133735 -0.014723097 -0.0489888564 0.998690784 0.0121893119 0.061564967 0.998028636 -0.171318591 -0.0477558039 0.984057605 -0.210228607 0.0754998401 -0.974732637 0.0740326941 0.124328911 -0.989475369 0.380160987 0.918951392 -0.104909517 0.026787769 0.984785259 -0.171698526 0.00827826932 -0.998083949 0.0613180809 0.00283320155 -0.999552369 0.0297836382 -0.000106631313 -0.999775708 0.0211770479 0.803825319 0.271592557 0.529246926 0.0356434025 0.661272109 0.749298811 0.879704416 0.0482224002 0.473069429 0.0855280533 -0.0198143162 -0.996138692 0.00415388076 -0.0198566075 -0.999794185 0.530730724 0.531708181 -0.66000855 0.46533215 0.773900092 -0.429586619 -0.0218490958 -0.0111898938 0.999698639 0.0148349637 0.101877071 0.994686365 -0.057358548 0.0196581259 0.998160064 0.758012354 0.365054309 -0.540511429 0.0104276538 -0.99930954 -0.0356603265 -0.00109022041 0.99825263 -0.0590801574 -0.00197202107 0.99994874 -0.00993091334 0.00158478541 -0.608254731 0.793740332 0.0270645097 -0.158065438 0.987057686 0.848424911 -0.487720311 -0.205679446 0.601708472 -0.738603234 -0.303993732 0.900913596 -0.399077713 -0.170562699 -0.0143996682 -0.996566117 0.0815387517 0.0087358607 -0.934714079 0.355293274 0.00873586256 -0.967725933 0.251853615 -0.00434032781 -0.0886391625 0.996054351 0.134231389 -0.877571881 0.46027109 -0.504844129 -0.324292928 -0.799979031 -0.840152919 -0.446462452 -0.307919443 -0.606789827 -0.366444737 -0.705354035 0.155280545 0.0192027204 -0.987683773 0.00438174559 -0.301452845 -0.953471005 0.0199337881 -0.504526198 -0.863166213 0.00164827285 0.995468318 -0.0950795636 -0.011737722 0.99668318 -0.0805286765 -0.182084411 -0.823168755 0.537808955 -0.00269558374 0.99772042 -0.0674293563 -0.660883844 -0.16762118 0.731529653 -0.905455351 -0.0952875465 0.41360721 -0.902462184 -0.122901306 0.412864774 -0.00276390649 0.999993563 0.00228686957 -0.00265795505 0.999995232 -0.00156632345 0.000319605606 0.999999702 0.000727256644 -0.157684237 0.733737946 0.66088146 -0.266852856 0.609717906 0.746346831 0.914927542 0.236329019 0.327194422 0.181969196 0.0727656037 -0.980608165 -0.0691739395 0.0397807509 -0.996811152 -0.0555115007 0.0785102323 -0.995366573 0.0486633591 0.434446216 -0.899382234 -0.627344668 0.180875957 0.757444799 -0.408268124 0.870076358 0.276195973 -0.886315465 0.121213451 0.446936399 0.00824328419 -0.999953032 -0.00509710889 -0.00390895782 -0.999991775 -0.0010638379 0.060722027 0.530212581 -0.845687568 0.0247602183 0.331601888 -0.943094432 -0.89927268 0.0741115063 0.43106389 0.931049109 0.14469859 -0.334977508 0.632172406 0.35534066 -0.688542724 0.793175578 0.420525789 -0.440488935 0.00282313721 -0.127841473 0.991790593 -0.0295689628 0.092484124 0.995275021 -0.15736632 0.433738381 -0.887190461 0.00991501287 0.777854741 0.628365874 0.0621055141 0.661113322 0.747711241 0.0885154307 0.791085482 0.605267584 0.0468962714 0.499248892 0.865188599 -0.476257324 0.818306863 -0.321796179 -0.00834348146 0.997352362 0.0722401738 -0.0106444685 0.996230543 0.0860891789 -0.0161168203 0.218294322 0.97574991 -0.0921058953 0.563497543 0.820967138 -0.513636827 0.23657456 -0.824748278 -0.745247543 0.353192329 -0.565562785 0.113568589 0.464211524 0.87841326 0.0467303619 0.185599208 0.981513739 -0.00111442932 -0.93598032 -0.352050602 0.0258877613 -0.703095436 -0.710624158 -0.0536463 -0.556801438 -0.828911483 -0.0233864114 -0.0772515833 -0.996737301 0.547129929 -0.443057269 -0.710175395 -0.0154882949 -0.714020908 -0.69995302 0.951348424 -0.240637138 -0.192431748 0.948650122 -0.0369265415 -0.314164579 0.0121503957 0.998806834 -0.0472994 -0.0780867785 -0.609675765 -0.788795233 0.351572245 -0.880035937 -0.319270641 -0.315715432 -0.18043752 0.931539595 -0.0118782148 -0.136325493 0.990592897 -0.0136225652 -0.128660873 0.991595089 0.00490309438 0.880803823 -0.473455966 -0.0109936157 0.700156808 -0.7139045 -0.224969774 -0.688842297 0.689118922 0.00613005739 -0.992700696 0.120448351 -0.098654218 -0.916863799 0.386817962 0.345301092 -0.859367549 0.377166569 0.959360361 -0.242552549 0.144208074 0.571165085 -0.438408405 0.693951428 0.000439140596 0.0813690722 0.996683955 0.000510521582 -0.0223635547 0.99974978 0.00150305999 -0.273545593 0.961857855 0.00149968662 0.999998748 0.000480373594 0.721164584 0.24420023 -0.648296118 -0.331613749 0.163502514 -0.929138958 0.402013123 0.318776816 -0.858351231 -0.0137222167 0.0781165883 0.996849775 -0.044664178 0.639328599 0.767635345 -0.0113814566 0.542414188 0.840034127 -0.00589694781 -0.0507693738 -0.998692989 -0.0318066813 0.221718535 -0.974591851 0.623188972 0.606528163 -0.493719608 0.00532637211 0.427465111 0.904016137 0.00556212896 -0.0266275648 0.999629974 0.00790290348 -0.0360719711 0.999317944 0.35331741 0.602404594 0.715734243 -0.00920054782 0.315511256 0.948877215 -0.0069284169 -0.998832226 0.0478144698 -3.50176706e-05 -0.99999541 -0.00302720396 -0.0110183666 -0.97252357 -0.232543513 0.0265631508 -0.181443185 0.983042598 0.204747111 -0.893266439 -0.400192052 0.324289858 -0.834831715 -0.444850624 0.392116576 -0.919744611 0.0177320596 -0.00703089125 0.999925613 0.00996535923 -0.572429121 -0.546458423 -0.611316621 -0.872133315 -0.168320373 -0.459403664 -0.659000576 -0.319253951 -0.681025088 -0.114683002 -0.978856266 -0.169375822 0.00838822685 -0.99996227 0.00226992322 -0.0579134859 -0.379355311 0.923436821 -0.00515502039 -0.0317531899 0.999482453 -0.0288643781 -0.0331796668 0.999032497 -0.00476955436 0.999942958 0.00955873262 -0.047326453 -0.949188471 0.311129361 -0.406122148 -0.844662845 0.348725528 -0.27091229 -0.961608827 0.0437608659 -0.986472011 -0.0572588779 0.153604493 -0.541482627 -0.489904165 0.683220685 -0.431816936 -0.413289994 0.801701665 -0.00440128567 -0.157241091 -0.987550437 -0.0272926819 0.161457434 -0.98650223 0.055108048 0.0159613211 -0.998352826 -0.000625028915 0.999970555 0.00764933834 0.995653212 0.060363438 -0.0709286928 0.346619129 0.195850849 -0.917331815 -0.0119383167 0.305844843 -0.952006519 -0.0873327553 0.607258618 -0.789689779 -0.284455389 0.500996232 -0.817366421 -0.599259257 0.623488367 0.502146006 -0.236885801 0.954324365 0.182071716 -0.11153844 -0.197352141 -0.973966777 0.541814864 -0.607896626 -0.580429435 -0.373434156 0.243770882 0.895054579 -0.155282602 0.844496489 -0.512555361 0.22769025 0.332689255 -0.915136635 0.963340104 0.0990108922 -0.249344558 0.944267511 0.182523608 -0.273941517 -0.338868529 0.0836885348 0.937104225 -0.436721504 0.178637564 0.881681919 -0.736112952 0.217269287 0.64103961 -0.0619938895 0.731117904 -0.679428756 0.148757741 0.618589461 -0.771503866 -0.183834642 0.856052935 -0.483092308 -0.0801199973 -0.0171427634 0.996637821 0.129465133 0.592654705 -0.794983745 -0.138956234 0.767683089 0.625582755 -0.412946075 -0.0603294782 -0.908755124 -0.519830465 0.0900835916 -0.849506438 -0.358577728 -0.128767133 -0.924576163 0.738846302 -0.0254640337 0.673392713 -0.112289913 -0.0611200258 0.99179399 0.962119222 -0.0437413193 0.269097149 0.777038157 0.531554163 0.337137789 -0.0114778765 0.619213104 0.785139084 0.488290846 0.414878994 0.767754853 0.132283479 0.971987486 -0.19427152 0.336195409 0.613597155 -0.714472711 0.432415873 0.602423549 -0.670896649 0.829871893 -0.379677087 -0.408849597 -0.161451742 -0.931605577 -0.325644523 0.206076935 -0.906051457 -0.369598478 -0.279184073 -0.935597658 -0.216132447 0.351638287 0.282731205 0.892420053 -0.8021698 -0.342420012 0.489154547 -0.998181462 0.00479159039 -0.0600904264 -0.940425813 -0.23342447 -0.247208923 -0.962958395 0.119349256 0.241799369 -0.0992819816 0.989105344 -0.108691044 -0.240368187 0.95563513 -0.170248866 -0.857039571 0.514737606 -0.0229872391 0.000547233445 -0.999999821 -0.00014690496 -0.0139593724 -0.99990201 -0.00104187091 -0.000450635096 -0.999995708 -0.00289069465 0.0540211983 -0.902413964 -0.427470118 0.376371205 -0.912815988 -0.158466488 -0.521768749 0.0756865516 0.849722862 -0.701315045 0.383211613 0.601087451 -0.297276825 0.0782041028 0.951583207 -0.592640698 -0.686422288 0.421427876 -0.764485598 -0.261096537 0.589398324 -0.889815688 -0.0581620112 0.452598363 -0.0464500822 0.224174723 -0.973441362 -0.0332943536 0.252593726 -0.966999412 -0.0375876352 0.243355826 -0.969208479 -0.212478101 0.960070312 0.181983754 -0.00190289831 0.999956846 0.00909389742 -0.0528635159 0.210199729 -0.976228237 0.386023194 0.919984102 -0.0679359138 0.0896661878 0.995886564 -0.0130345244 -0.129975468 0.99010849 0.052834861 0.969179451 -0.0842125341 -0.231515616 0.918869138 -0.233583957 -0.317990631 0.0101879705 -0.999907255 0.0090387566 0.00163119368 -0.999973118 0.00714728562 0.00584966596 -0.999972105 0.00465072505 0.0237271246 0.999699354 -0.00618632277 0.187989146 -0.981026113 -0.0474118441 0.63305366 -0.745824695 0.207336858 -0.134028748 -0.990473568 -0.0315977037 0.229544476 -0.585655749 0.777378082 0.975380957 -0.0424686782 0.216398805 0.450046092 0.322358936 0.832792461 0.0130684571 -0.999646306 0.0231627543 0.00222988008 -0.999780238 0.0208451506 0.449590534 0.469358921 0.759980619 -0.7908898 0.588890493 0.166437075 -0.681330621 -0.0035622078 -0.731967092 -0.965013385 0.137590021 -0.223199695 -0.901462972 -0.265266031 -0.342050254 0.816174448 -0.572259843 0.079861708 0.940325081 -0.0690538883 0.333197087 0.92422688 -0.011714031 0.381663978 0.362628788 -0.548534095 0.753399432 0.971180797 -0.0456777588 0.233925983 -0.117047764 0.952376485 -0.281565011 -0.696034253 0.687747896 -0.206250072 -0.0115488507 0.989703476 -0.142666057 0.156427026 -0.939425349 0.304976374 -0.0146640223 -0.985234976 0.17057851 -0.264509887 -0.775929093 0.572685421 0.196268171 0.865114748 0.461579114 0.388512343 0.865630567 0.315819353 0.132094696 0.966776252 0.218848437 0.526268005 -0.827310264 0.196468174 0.0334524885 -0.983733535 -0.17649141 -0.787118614 -0.545988202 0.286951512 -0.272090107 -0.954545557 -0.121695116 -0.686051905 -0.69484365 0.215696752 -0.242290393 -0.603271902 -0.759841025 -0.399681926 -0.910201848 -0.108567633 -0.282698125 0.935953796 -0.209933966 -0.00776785333 0.999950767 -0.00617844472 -0.912737489 -0.0522455163 0.405192107 -0.999031484 0.0245859623 -0.0364921764 -0.520770073 -0.551267743 0.651845336 0.915992737 0.392717481 0.0820384547 0.85670644 0.334058821 -0.393012404 0.626618683 0.690811157 -0.360733926 0.7479738 0.216082409 0.627569556 -0.207462698 -0.186762527 0.960249424 0.525167823 -0.808758438 -0.264780223 0.773468256 -0.492161125 -0.399404913 0.676284254 -0.652938187 -0.341044515 -0.621712625 -0.765351534 -0.166464448 0.289076 0.941454291 0.173490375 0.226407111 0.958078682 0.175570741 0.108683668 0.96591866 0.234923288 -0.173489019 0.982248008 0.0713472441 -0.422754347 -0.738693357 0.524986565 -0.808608115 0.481820136 -0.337642193 -0.995353401 0.0956983939 -0.010648285 0.795313239 -0.097608313 -0.598288774 0.9792642 -0.0806582719 -0.185838357 0.297091126 0.954846382 -0.00228836294 0.023962779 0.993908763 -0.107569121 0.140675306 -0.908763349 -0.392886221 0.022907678 -0.936396956 -0.350194216 0.383497655 -0.736171424 -0.557656825 -0.405254424 0.865391374 -0.294731498 0.0042505716 0.999679565 -0.0249531232 -0.645032883 -0.701925874 0.302047342 0.0249382034 0.981247127 -0.191133812 -0.288020462 -0.830377281 -0.476988226 -0.00262120995 0.999994278 -0.00213334034 -0.982626855 0.0718815103 -0.171106562 0.175490156 0.0641170591 0.982391059 -0.109219193 0.990544438 -0.0830233246 -0.00074939843 -0.999999702 -3.45336193e-05 -0.00126184907 -0.999999046 -0.000522652059 -0.00156951963 -0.99999845 0.000768994971 -0.451931387 -0.773243487 -0.444806248 -0.973895311 0.0512297973 -0.221141085 0.935356259 0.107586712 0.33694768 0.936348736 0.225610673 0.268981218 -0.522977889 0.852326453 0.0058079036 -0.00079721841 -0.999999046 -0.00112323894 -0.936827719 -0.0106166136 -0.349629998 0.59694463 -0.216605052 0.772489071 -0.679865003 0.0564140156 0.731164217 -0.0383248776 0.003604247 0.999258816 -0.00963329896 0.99989742 -0.0105982432 0.0998906717 -0.262298644 -0.959802747 -0.0504633747 -0.890188754 -0.452788562 -0.000540873036 0.924378037 0.381477267 0.875720978 0.0948014185 -0.473418921 0.366459846 0.0460188389 -0.929295123 0.887290776 0.109476529 -0.448028952 0.993150473 0.110753126 -0.0372273475 -0.159562126 0.0838187933 0.983623087 0.629076838 0.117297895 -0.768442273 0.978884459 0.0470860489 -0.198917285 0.034640491 0.999324501 -0.0122706704 -0.973242223 -0.043395672 0.22564669 -0.816773534 0.381553322 0.432779402 -0.988314211 -0.149196014 -0.0312342253 0.983988345 0.173927099 0.0389395617 0.987527847 0.153540745 0.0348428935 0.996386707 0.0796642601 0.0294469856 0.609879732 -0.704710841 0.362531751 0.943123937 -0.0763491243 0.32355535 0.785303891 -0.192580357 0.588396668 -0.176537111 -0.0253092423 -0.983968556 -0.851664782 -0.0955977514 -0.515294194 0.584041178 -0.359276354 0.727884889 0.987510085 -0.106997773 0.115651585 -0.607678175 0.474482 0.636862636 0.885644495 0.46403119 -0.0175751373 0.802168369 0.0174537282 -0.596842706 0.693511128 -0.015999971 -0.72026819 0.0238354243 -0.0284339301 0.999311447 0.0775869787 -0.00933523104 0.996941864 -0.9991799 0.0382249802 0.0133570181 -0.99827534 0.0584873259 0.00505848881 -0.999459028 0.0277574193 0.0176385976 -0.997657001 0.0684069693 0.00099076936 -0.246830508 0.968928158 -0.0159020536 0.0332638696 0.996520936 0.0764168426 -0.0152683901 -0.999883056 0.000886211696 -0.0251352638 -0.999268353 -0.0288257152 -0.159127727 0.0322736874 -0.986730337 0.128204703 0.00577754015 0.991730869 -0.494870156 -0.0216973294 -0.868696034 -0.173030749 -0.0440787561 0.983929574 0.00018453582 0.999996841 -0.00250164303 0.00310676335 0.999995172 0.000205768345 -0.0015151999 -0.999998808 0.000277258281 -0.003558164 -0.9999879 0.00339676556 -0.942960739 0.0435341038 -0.330045164 -0.827740371 -0.0175792221 -0.560835838 0.83372128 0.0444871336 0.550390542 0.932153225 0.106617227 0.346010357 -0.376010418 -0.215783224 -0.901140273 -0.677653968 -0.198915169 -0.707967401 -0.994519114 -0.065161854 0.081765756 -0.98292172 -0.0985095054 0.155437484 -0.696733534 -0.102450825 0.709976196 0.43330276 0.153250277 0.888123333 -0.51221472 0.110583536 0.851708472 0.00102047028 0.999999344 -0.00051157322 0.0455464236 -0.998872519 -0.0133857904 -0.122161619 0.992477536 -0.0080533158 0.519141912 -0.0341915488 0.854003906 -0.00672601908 0.480437726 -0.877003074 0.9996714 -0.0151127307 0.0207036734 0.0393129438 -0.998948097 0.0236057565 0.0386786014 -0.992972732 -0.111844085 -0.745341182 0.0469111614 -0.665030777 -0.330878556 0.897546947 0.291425526 0.967288494 0.253648996 0.0038863665 0.00543604279 0.999985099 0.000475692068 0.0084422091 0.999912143 0.0102192936 0.00854726229 0.999918818 -0.00944829453 -0.703834772 -0.00973186828 0.710297048 -0.0239699502 -0.990454257 0.135741621 -0.999073625 -0.043021854 -0.00102465274 0.0506443828 0.997057557 -0.0575444885 -0.999934018 -0.00760817202 -0.00860421732 0.762804985 -0.630205274 0.144809753 -0.135650933 0.0472454205 0.989629567 0.990667641 -0.0328541771 -0.132280827 -0.964265227 0.204016984 0.16902566 -0.964695752 -0.256286651 -0.0606572777 0.805879653 -0.00323831988 0.59207052 0.0109232813 0.834441066 0.550988913 -0.966955721 0.252387047 -0.0360195488 0.0233016741 -0.999641538 0.0131853027 0.00371190673 -0.980938137 0.194284841 -0.252596378 -0.211796597 -0.944106579 -0.271467566 -0.546355188 0.792339146 -0.563548088 -0.485328972 -0.6684829 -0.54905349 -0.539450049 -0.638383806 -0.890432417 -0.114232302 -0.440546364 0.995072484 -0.0877157599 -0.0462245159 0.92834121 -0.176351398 0.327235043 0.0145920189 0.173770458 -0.98467809 0.00248614745 0.232358664 -0.972626984 -0.0299687721 -0.138662755 -0.989886105 -0.00605336623 -0.375559181 -0.926778615 0.00701078633 0.477676511 -0.878507793 -0.656527817 0.15265052 -0.738694191 -0.898347855 0.135337353 -0.417917401 -0.0136339879 -0.292753458 0.956090748 0.0131063629 -0.159384608 0.987129569 -0.896506727 0.149382532 -0.417085737 -0.00134875823 0.338475108 0.940974355 -0.0231687911 -0.0918953568 -0.995499074 -0.0382766835 -0.159456134 -0.986462712 0.00830149837 0.106736518 0.994252682 0.963356674 -0.030381538 0.266497463 0.00451475522 -0.999262571 -0.0381300338 -0.0137950238 0.231862411 0.972650766 0.00561584951 -0.9953233 -0.0964362547 -0.0273916721 0.0742102638 0.996866345 -0.0241084863 0.0784918219 0.996623218 -0.992655516 -0.111137807 -0.0477856956 -0.0661060587 -0.765163124 -0.640433729 0.00651298091 -0.91417557 -0.405266106 -0.00322391209 0.0256839097 0.999664903 -0.0353619047 0.196177289 -0.979930639 0.523200095 0.324590534 0.787973762 0.703200102 0.44802326 0.552073181 0.450010866 0.27519843 0.849562287 -0.930788875 0.320234418 0.176300734 -0.944829583 0.260500252 0.198586598 -0.918021977 0.363017797 0.159542099 0.976037741 0.00994645432 -0.217373788 -0.899296939 0.414907485 0.138263613 -0.253327996 0.510059834 -0.821987748 0.244499877 0.137963101 0.959784329 -0.0810341388 0.994682252 -0.0635661483 -0.724570751 0.193374485 0.66151607 -0.24622874 -0.257312626 -0.934431195 0.00840891618 -0.999760449 -0.0202087257 0.0061259158 -0.99948442 -0.031517759 0.919512272 -0.306269735 0.246365711 -0.327551365 -0.940868795 -0.0864641145 -0.794332743 -0.520256698 -0.313637495 0.412578672 0.178029865 -0.893355608 0.77278465 -0.617344797 -0.147272632 0.841279387 0.149993256 -0.519375622 0.800366282 -0.597865403 0.0443928726 -0.132962421 -0.990777791 -0.0260835551 -0.0307314917 -0.999527335 -0.000859913183 0.973981261 -0.22539705 0.0235934183 0.0290505812 -0.999393106 0.0192204621 0.321960121 0.227827892 0.91893208 0.738566101 0.657453358 0.149248973 -0.242634133 -0.717342019 0.653107226 0.0836382285 0.498836488 -0.86265105 -0.735062063 0.368305206 -0.569240689 -0.962998927 0.211706385 -0.166773573 0.151964337 0.888976216 -0.432004839 -0.705165744 -0.563092649 -0.43089211 -0.433350652 -0.60452354 0.66839999 0.749580264 0.56348592 0.347293913 -0.99810636 0.0613821447 -0.00398600707 0.310552478 0.950475216 0.0124109127 0.326612681 -0.738194942 -0.590247691 -0.00109066232 -0.999999344 0.000312367134 0.358060658 -0.917233229 -0.174573198 0.783049941 -0.479728162 -0.395845592 0.214205503 0.0204525907 -0.976574481 -0.982729793 -0.179851949 -0.0435359478 0.104221731 0.204190373 -0.973367393 -0.448212445 0.152159929 0.880881906 0.369041562 -0.764917612 0.527929366 -0.439385861 0.896584988 0.0554562137 -0.950811565 0.0567391701 -0.30452922 -0.995782733 0.0707359612 0.058422301 -0.989493906 -0.0843754113 0.117399238 0.953712583 -0.213010207 0.21227105 -0.401360393 0.860938132 0.312562644 0.0126903038 -0.99991256 -0.00371214678 0.0734460056 -0.99706775 -0.0214858782 0.971826434 -0.00675139576 -0.235600859 0.998369396 -0.0565009341 -0.00813710783 0.121193282 -0.00795694347 0.992597044 0.585009992 0.00225603883 -0.811022937 0.438450575 -0.0315529443 -0.898201287 0.180301189 -0.037522573 -0.982895494 -0.0901857466 -0.0407149643 -0.995092392 -0.815789461 -0.559104085 0.147953421 -0.0795975924 -0.000929901435 0.996826649 -0.131023094 0.0716724172 0.988785148 -0.0248162337 0.999680221 -0.00486001046 0.849827409 -0.0125846984 -0.526910782 0.991436481 -0.129646495 0.0156663544 0.995075822 -0.0990792513 0.0027320052 0.995971739 -0.0896590874 -0.00124529831 -0.492138803 -0.0308681913 -0.869969308 0.00379541097 0.999992788 2.76270748e-05</float_array>
          <technique_common>
            <accessor source="#normals_array" count="643" stride="3">
              <param name="X" type="float" />
              <param name="Y" type="float" />
              <param name="Z" type="float" />
            </accessor>
          </technique_common>
        </source>
        <vertices id="vertices">
          <input semantic="POSITION" source="#positions" />
        </vertices>
        <triangles material="qmat_c90f2351a1b48e4d" count="594">
          <input semantic="VERTEX" source="#vertices" offset="0" />
          <input semantic="NORMAL" source="#normals" offset="1" />
          <p>0 0 1 1 2 2 2 2 1 1 3 3 0 4 4 5 5 6 3 3 6 7 7 8 5 9 8 10 9 11 5 9 9 11 10 12 4 13 11 14 8 15 4 5 0 4 12 16 13 17 14 18 15 19 4 20 12 21 13 17 8 22 11 14 16 23 16 23 11 14 9 24 17 25 5 6 10 26 3 3 18 27 19 28 20 29 21 30 22 31 7 8 6 7 23 32 6 7 21 33 23 32 3 3 23 32 18 27 14 34 22 35 24 36 21 30 25 37 22 31 26 38 25 39 10 12 26 40 24 36 27 41 21 30 10 26 25 37 22 35 25 42 24 36 27 41 24 36 25 43 15 44 24 36 11 14 14 18 13 17 22 45 2 2 3 3 28 46 29 47 30 48 31 49 32 50 33 51 34 52 35 53 36 54 37 55 38 56 39 57 40 58 41 59 42 60 32 61 42 62 41 63 43 64 41 63 2 2 44 65 41 59 32 61 45 66 32 61 46 67 45 66 47 68 12 16 45 66 42 62 36 69 32 50 48 70 49 71 20 29 50 72 18 27 49 73 28 46 18 27 50 72 51 74 52 75 53 76 28 46 3 3 19 28 54 77 16 78 55 79 56 80 12 80 57 80 55 81 27 41 58 82 12 83 34 84 16 23 12 21 54 85 13 17 16 78 54 77 12 86 33 51 59 87 34 52 54 88 58 89 60 90 61 91 62 92 63 93 47 94 56 95 57 96 54 77 55 79 58 97 46 67 32 61 56 98 22 99 64 100 52 101 25 43 52 101 64 100 65 102 64 103 13 17 20 29 22 31 66 104 27 105 59 106 67 107 22 45 13 17 64 103 54 85 63 108 65 102 49 71 68 109 52 101 48 110 66 111 68 112 61 113 69 114 70 115 65 102 58 116 64 103 58 117 62 118 71 119 60 120 58 117 71 119 72 121 60 122 71 123 59 106 52 124 25 39 59 87 53 76 52 75 73 125 74 126 75 127 38 56 31 128 76 129 77 130 75 131 74 132 39 57 38 56 78 133 79 134 80 135 81 136 79 134 78 133 73 125 39 57 79 134 81 136 82 137 37 138 83 139 35 140 37 138 82 137 80 135 84 141 81 136 80 135 85 142 86 143 84 144 87 145 81 146 63 147 72 121 88 148 72 121 71 123 89 149 90 150 72 121 89 149 91 151 92 152 93 153 94 154 88 155 90 156 88 148 95 157 61 158 94 154 90 156 89 149 88 148 72 121 90 150 96 159 89 149 97 160 70 161 97 162 71 163 98 164 94 154 89 149 92 152 91 151 99 165 83 139 100 166 101 167 102 168 103 169 84 144 103 170 102 171 104 172 77 173 105 174 85 175 85 175 104 176 86 177 102 178 84 179 86 180 106 181 78 133 76 129 107 182 74 132 76 183 108 184 35 140 109 185 106 186 74 126 73 125 77 130 74 132 107 182 35 140 108 184 110 187 107 188 76 189 111 190 76 191 87 192 112 193 88 155 113 194 114 195 95 196 114 196 113 196 95 157 88 148 114 197 94 198 115 199 113 200 116 201 117 202 118 203 119 204 120 205 61 113 95 206 113 200 116 207 95 208 116 201 118 203 120 209 121 210 122 211 120 212 122 213 97 162 121 210 123 214 122 211 97 162 122 213 123 215 98 216 96 217 121 218 124 219 115 220 98 221 121 218 125 222 98 216 124 223 98 216 125 222 96 224 97 225 123 214 120 226 126 227 121 218 99 165 127 228 53 229 128 230 111 231 129 232 77 130 107 182 130 233 130 234 129 232 112 235 108 184 109 185 131 236 132 237 77 130 130 233 129 232 133 238 128 230 128 239 130 240 107 188 133 241 130 240 128 239 101 167 37 242 134 243 104 244 135 245 136 246 137 247 135 248 138 249 87 250 139 251 138 249 137 247 138 249 139 251 85 175 135 252 104 176 112 193 87 192 140 253 125 254 141 255 142 256 143 257 142 258 141 259 144 260 118 261 145 262 36 263 146 264 33 265 116 201 147 266 117 202 147 266 116 201 148 267 146 268 93 153 92 152 145 262 117 202 147 266 95 269 149 270 119 204 135 252 105 174 150 271 151 272 150 273 152 274 153 275 101 167 134 243 154 276 152 277 150 278 105 279 155 280 154 276 154 281 155 282 152 283 153 275 131 236 109 185 156 284 112 193 140 253 157 285 158 286 130 233 130 233 158 286 159 287 110 187 108 184 131 236 130 288 112 288 157 288 160 289 159 287 158 286 160 289 132 290 159 287 158 291 157 292 156 293 156 284 140 253 161 294 149 295 145 262 147 266 149 296 147 296 148 296 148 297 115 199 162 298 163 299 164 300 165 301 149 270 166 302 167 303 164 300 162 304 165 301 164 305 148 297 162 298 163 299 165 301 168 306 93 153 127 228 91 151 119 307 125 254 169 308 119 309 170 310 125 311 171 312 170 313 172 314 119 309 172 315 170 310 125 316 170 313 171 312 125 222 171 317 124 223 173 318 174 319 175 320 176 321 177 322 178 323 179 324 180 325 181 326 180 325 179 324 182 327 182 327 178 328 174 329 183 330 174 330 184 330 181 331 185 332 176 333 186 334 174 334 183 334 187 335 188 335 175 335 189 336 190 337 191 338 187 339 182 327 186 340 186 340 188 341 187 339 177 342 191 343 175 344 192 345 193 346 185 332 185 347 191 338 177 322 180 325 193 348 192 349 173 350 184 351 174 352 189 353 194 354 195 355 182 327 179 324 183 356 183 356 179 324 196 357 189 353 195 355 190 358 179 324 197 359 198 360 186 340 183 356 196 357 186 340 196 357 199 361 194 362 178 323 195 363 178 364 184 365 195 366 199 361 198 360 200 367 189 368 201 369 194 370 202 371 188 372 184 373 188 374 190 375 184 365 184 365 190 375 195 366 199 376 191 376 188 376 203 377 200 378 204 379 200 378 205 380 204 379 201 369 204 381 205 382 201 369 193 346 204 381 206 383 207 384 208 385 209 386 210 387 211 388 212 389 213 390 210 391 214 392 212 393 215 394 212 389 216 395 211 396 215 397 217 398 213 399 218 400 213 390 219 401 211 388 210 387 220 402 211 388 220 402 221 403 222 404 223 405 224 406 225 407 222 408 226 409 226 410 221 410 227 410 228 411 222 404 224 406 219 412 221 413 229 414 211 388 221 403 226 409 214 415 219 401 211 396 228 416 216 417 214 392 228 411 224 406 207 384 214 392 218 418 227 419 214 415 227 420 219 401 206 421 230 422 210 387 231 423 208 385 232 424 215 394 233 425 234 426 235 427 236 428 233 429 235 430 230 431 220 402 235 427 217 398 236 428 215 397 234 432 217 398 234 426 233 425 236 433 217 398 237 434 236 428 221 403 230 431 238 435 222 404 225 436 223 405 234 437 229 437 217 437 227 419 234 426 237 438 234 426 236 433 237 438 208 439 223 440 239 441 237 434 229 442 226 443 240 444 225 407 241 445 226 446 229 446 241 446 208 439 242 447 223 440 225 436 243 448 223 405 244 449 245 450 231 451 156 284 161 294 246 452 158 291 247 453 160 454 110 187 131 236 248 455 198 456 197 457 244 458 198 456 244 458 248 459 197 460 245 450 244 449 249 461 248 459 134 462 200 367 198 360 249 463 250 464 155 465 247 466 251 467 252 468 156 469 253 470 254 471 255 472 194 370 201 369 253 470 200 378 256 473 255 474 200 378 249 461 256 473 253 470 255 472 256 475 251 467 156 469 246 476 250 464 256 477 155 465 252 468 251 467 256 478 146 479 232 424 257 480 258 481 259 482 172 315 168 483 260 484 261 485 168 483 259 486 260 484 168 306 262 487 259 488 263 489 258 490 119 204 167 303 258 490 263 489 256 473 257 480 264 491 258 481 265 492 259 482 167 303 168 306 266 493 267 494 268 494 232 494 146 268 127 228 93 153 146 479 231 423 232 424 241 495 238 435 269 496 239 441 243 497 268 498 240 499 270 500 243 448 223 440 243 497 239 441 270 501 240 444 269 502 266 493 261 503 238 504 271 505 265 506 266 493 271 505 264 507 265 506 270 501 272 508 264 507 265 506 264 507 260 509 238 435 260 510 269 496 268 498 243 497 273 511 17 25 0 4 5 6 1 1 0 0 17 512 1 1 17 512 6 7 0 4 41 59 45 66 41 63 0 0 2 2 3 3 1 1 6 7 0 4 45 66 12 16 4 13 15 44 11 14 15 19 4 20 13 17 5 6 4 5 8 513 8 10 59 106 9 11 21 30 17 25 10 26 6 7 17 512 21 33 18 514 21 30 20 29 3 3 7 8 23 32 18 27 23 32 21 33 9 24 11 14 24 36 10 12 9 11 26 38 26 40 9 24 24 36 15 44 14 34 24 36 26 38 27 105 67 107 26 38 67 107 25 39 64 100 27 41 25 43 44 65 2 2 28 46 47 94 46 515 56 95 32 50 36 69 33 51 41 63 44 65 43 64 29 47 38 56 40 58 38 56 29 47 31 49 36 69 43 64 44 65 45 66 46 67 47 516 42 62 43 64 36 69 20 29 274 517 48 70 66 104 274 518 20 29 51 519 50 72 49 73 44 65 28 46 50 72 36 69 44 65 51 519 40 58 39 57 81 136 37 55 36 54 51 520 51 519 44 65 50 72 49 71 18 514 20 29 18 27 28 46 19 28 29 47 40 58 30 48 275 521 31 522 30 523 40 58 81 146 30 48 275 521 30 523 87 192 49 71 48 70 68 109 12 16 47 68 57 524 9 11 59 106 27 105 55 81 9 24 27 41 55 81 16 23 9 24 16 23 34 84 8 22 12 83 56 98 34 84 8 10 34 525 59 106 72 121 63 147 60 90 63 147 54 88 60 90 56 98 32 61 34 84 61 91 70 526 62 92 68 109 22 99 52 101 67 107 59 106 25 39 58 82 27 41 64 100 66 527 22 527 68 527 13 17 54 85 65 102 52 75 51 74 49 528 65 529 63 529 62 529 62 530 70 161 71 163 48 110 274 531 66 111 65 532 62 532 58 532 59 87 33 51 53 76 78 133 38 56 76 129 39 57 78 133 79 134 76 191 31 522 275 521 77 533 85 533 75 533 75 534 79 134 73 125 80 135 79 134 75 534 83 139 37 138 100 166 109 185 35 140 82 137 80 135 75 534 85 142 80 135 86 143 84 141 87 145 30 48 81 146 76 191 275 521 87 192 88 148 61 158 63 147 69 114 61 113 120 205 113 194 276 535 94 154 94 154 276 535 88 155 94 536 98 536 115 536 33 537 92 152 99 165 96 159 98 164 89 149 89 149 71 123 97 160 70 161 120 212 97 162 33 537 99 165 53 229 69 114 120 205 70 115 101 538 100 538 37 538 104 539 102 178 86 180 104 244 136 246 87 540 136 541 139 542 87 543 101 167 82 137 83 139 103 170 104 172 87 544 84 144 103 169 87 145 35 140 248 455 36 263 74 545 106 545 76 545 78 133 106 186 73 125 111 190 128 239 107 188 112 546 111 231 76 547 116 207 113 200 115 199 33 537 146 268 92 152 61 113 95 269 119 204 113 194 88 155 276 535 118 261 144 260 95 548 121 210 96 224 123 214 277 549 51 550 53 229 126 551 143 552 141 255 121 218 126 227 125 222 120 553 119 554 143 257 120 555 143 552 126 551 133 238 129 232 130 234 36 263 244 556 146 264 129 232 111 231 112 546 134 243 37 242 51 550 134 243 51 550 277 549 135 557 137 558 136 541 140 559 87 250 138 249 153 275 82 137 101 167 138 249 135 248 140 560 77 173 132 561 105 174 136 541 137 558 139 542 143 257 119 554 169 562 99 165 91 151 127 228 125 254 126 551 141 255 143 257 169 562 142 258 148 297 116 207 115 199 145 262 118 261 117 202 95 269 144 563 149 270 278 564 152 283 140 565 135 566 278 566 140 566 135 567 150 273 151 272 248 455 153 275 134 243 278 568 151 272 152 274 151 272 278 568 135 567 105 279 154 276 150 278 85 175 105 174 135 252 161 294 140 253 246 452 82 137 153 275 109 185 246 569 140 565 152 283 156 293 157 292 112 570 248 455 131 236 153 275 248 455 35 140 110 187 159 287 132 237 130 233 164 571 163 572 279 573 166 574 149 575 148 576 149 295 144 577 145 262 166 574 148 576 279 578 163 299 166 302 279 579 148 580 164 571 279 573 162 581 115 220 124 219 166 302 168 306 167 303 168 306 166 302 163 299 169 308 125 254 142 256 119 309 258 481 172 315 53 229 127 228 277 549 124 219 171 312 172 314 262 487 124 219 172 314 259 488 262 487 172 314 178 582 183 582 184 582 280 583 173 318 175 320 178 584 175 344 174 585 178 584 177 342 175 344 176 321 185 347 177 322 281 586 179 324 181 326 281 587 181 331 176 333 281 587 176 333 194 370 182 588 183 588 178 588 186 340 182 327 174 329 194 362 176 321 178 323 181 326 180 325 192 349 191 589 187 589 175 589 193 348 203 377 204 379 181 331 192 345 185 332 180 325 182 327 187 339 173 350 280 590 202 371 188 372 280 590 175 591 203 377 180 325 187 339 180 325 203 377 193 348 189 368 193 346 201 369 185 332 193 346 189 368 203 377 187 339 199 361 185 347 189 336 191 338 199 592 187 592 191 592 173 350 202 371 184 351 196 357 179 324 198 360 197 593 194 370 282 594 281 587 194 370 197 593 197 595 179 324 281 586 199 361 196 357 198 360 202 371 280 590 188 372 186 340 199 361 188 341 203 377 199 361 200 367 188 374 191 596 190 375 206 383 209 597 207 384 233 425 212 393 210 598 215 394 212 393 233 425 209 386 206 421 210 387 210 391 213 390 220 599 207 384 242 447 208 439 209 597 228 411 207 384 212 393 214 392 216 417 213 390 212 389 211 396 218 600 215 600 213 600 211 388 216 417 209 386 228 416 209 386 216 417 211 396 219 401 213 390 213 601 235 430 220 402 225 407 226 409 241 445 242 447 224 406 223 440 227 602 237 434 226 443 222 408 228 603 226 409 226 409 228 603 211 388 228 604 214 415 211 396 207 384 224 406 242 447 219 401 227 420 221 605 234 426 218 418 219 606 214 392 215 394 218 418 231 423 206 383 208 385 206 421 231 607 230 422 235 430 210 608 230 431 233 429 210 609 235 427 235 427 213 399 217 398 221 403 220 402 230 431 232 610 208 439 239 441 221 403 238 435 241 495 234 611 219 412 229 414 218 418 234 426 227 419 217 398 229 442 237 434 229 414 221 413 241 612 252 613 247 453 156 293 247 453 158 291 156 293 282 614 250 464 247 466 252 613 282 615 247 453 36 263 248 455 244 556 197 460 282 616 245 450 152 283 155 282 246 569 160 454 247 453 155 280 256 473 249 461 257 480 249 461 198 456 248 459 250 617 282 594 253 470 132 618 160 618 105 618 105 279 160 454 155 280 249 461 134 462 257 480 253 470 201 369 205 382 205 380 200 378 254 619 253 470 205 382 254 471 282 594 194 370 253 470 245 450 282 616 252 620 245 450 252 620 266 493 254 619 200 378 255 474 271 505 256 621 264 507 252 620 256 621 271 505 250 617 253 470 256 475 155 622 251 467 246 476 256 477 251 623 155 465 232 624 268 498 273 511 232 624 273 511 257 625 149 270 263 489 119 204 257 480 277 626 127 627 259 482 265 492 260 628 127 627 146 479 257 480 162 581 124 219 262 487 257 480 134 462 277 626 168 306 165 301 262 487 146 479 244 629 231 423 149 270 167 303 263 489 239 630 267 631 232 632 165 633 162 633 262 633 231 451 245 450 238 634 231 451 238 634 230 635 245 450 266 493 238 504 238 435 261 636 260 510 269 502 240 444 241 445 268 637 267 631 239 630 225 436 240 499 243 448 266 493 168 306 261 503 167 303 266 638 265 639 258 640 167 303 265 639 252 620 271 505 266 493 243 448 270 500 273 641 270 500 264 491 273 641 264 491 257 480 273 641 260 509 264 507 272 508 272 508 270 501 269 502 269 496 260 510 272 642</p>
        </triangles>
      </mesh>
    </geometry>
  </library_geometries>
  <library_visual_scenes>
    <visual_scene id="scene">
      <node id="link3_stl">
        <instance_geometry url="#geometry">
          <bind_material>
            <technique_common>
              <instance_material symbol="qmat_c90f2351a1b48e4d" target="#qmat_c90f2351a1b48e4d" />
            </technique_common>
          </bind_material>
        </instance_geometry>
      </node>
    </visual_scene>
  </library_visual_scenes>
  <scene>
    <instance_visual_scene url="#scene" />
  </scene>
</COLLADA>