<?xml version='1.0' encoding='utf-8'?>
<COLLADA xmlns="http://www.collada.org/2005/11/COLLADASchema" version="1.4.1">
  <asset>
    <created>2026-09-14T00:00:00Z</created>
    <modified>2026-09-14T00:00:00Z</modified>
    <unit name="metre" meter="1" />
    <up_axis>Z_UP</up_axis>
  </asset>
  <library_effects>
    <effect id="qmat_45af129ec809a57d_effect">
      <profile_COMMON>
        <technique sid="common">
          <lambert>
            <emission>
              <color>0 0 0 1</color>
            </emission>
            <diffuse>
              <color>1.0 1.0 1.0 1.0</color>
            </diffuse>
          </lambert>
        </technique>
      </profile_COMMON>
    </effect>
  </library_effects>
  <library_materials>
    <material id="qmat_45af129ec809a57d" name="qmat_45af129ec809a57d">
      <instance_effect url="#qmat_45af129ec809a57d_effect" />
    </material>
  </library_materials>
  <library_geometries>
    <geometry id="geometry" name="link7_stl">
      <mesh>
        <source id="positions">
          <float_array id="positions_array" count="153">0.0373558812 -0.0125744762 0.011639161 0.0698247701 -0.0248603374 0.00568933785 0.0631625056 -0.0219177362 0.00144242379 0.0181503296 -0.0190846901 0.0150722442 0.0141740674 -0.00193766435 0.0109600993 0.0144602899 -0.0154800648 0.0106865782 0.0436192602 -0.0230236892 -0.0146587398 0.0162881464 -0.00255536218 0.0155655555 0.0710000023 -0.0238865614 -0.00457344204 0.036368046 -0.0121592199 -0.0173237808 0.0357839502 -0.0186804961 -0.0119633749 0.0355905443 -0.0118598212 -0.0123999752 0.0170707442 -0.0158357527 -0.0190197844 -0.0157417692 -0.0172688104 -0.0163841136 -0.0157208852 -0.0648230165 -0.00851752143 -0.0177482832 -0.0763581917 -0.0164936669 -0.0173308291 -0.0570828579 -0.00769277522 -0.016975157 -0.0731643811 -0.00816284586 -0.0168461204 -0.0435071625 -0.00799279194 -0.0170656778 -0.0295454375 -0.00763617922 -0.0186000001 -0.0230861139 -0.0154789593 -0.000330916519 0.0109115308 0.0263398103 0.00183072686 0.00426556403 0.0299534984 -0.00524558593 0.0122265806 0.0132191358 -0.0124617983 -0.0162854977 0.012933719 -0.00507585844 -0.0163025334 0.0131431054 -0.00498580048 0.0108391885 0.0299954265 0.00171646941 -0.0165208373 0.0300893653 -0.0125472629 0.01237881 0.0131393075 -0.0108944383 0.012404223 0.00422213878 9.9995872e-05 -0.0132652707 0.0242310688 -0.00988979079 -0.0166008621 0.00400421955 -0.00489696208 -0.0163532887 0.0306778662 0.00130651414 0.00421445165 -0.0246293582 -0.0043456885 0.00732178008 -0.0302563701 -0.00327184447 -0.0160441659 -0.0302563701 0.000157380549 -0.0131739955 -0.0250451639 -0.00913931057 -0.0164942276 -0.00326202367 -0.0131952642 0.0124518098 -0.00572594162 -0.0139540406 -0.0168988761 -0.00954898912 -0.0178258456 -0.0156187126 -0.023541959 -0.00501404237 -0.0164000764 -0.0244238321 -0.0184288695 -0.0145401349 -0.00871778466 -0.000555851904 0.0124195656 -0.0256817695 -0.000336607685 0.00302339625 0.00727305189 -0.000430892425 0.00398602337 -0.00701170834 -0.0184802897 0.0121939937 -0.00845089648 -0.0177628268 0.0122831194 -0.0235288516 -0.000569449272 -0.00621983595 -0.00754640391 -0.00800922699 0.0124518098 -0.00433783932 0.0555069223 -0.02049754 -0.00518588023</float_array>
          <technique_common>
            <accessor source="#positions_array" count="51" stride="3">
              <param name="X" type="float" />
              <param name="Y" type="float" />
              <param name="Z" type="float" />
            </accessor>
          </technique_common>
        </source>
        <source id="normals">
          <float_array id="normals_array" count="378">0.403009385 0.897492588 0.179138079 0.344728559 0.932754934 0.105500817 0.335329145 0.937947392 0.088368617 0.178219959 -0.00687751919 0.983966649 0.409583867 0.0193731114 0.912066758 0.177985817 -0.00616207579 0.984013736 -0.536944449 0.0225007851 -0.843317509 -0.184420988 0.0159505811 -0.982717931 -0.429051727 0.00917484425 -0.90323329 -0.0448816717 -0.998469293 -0.0323220491 -0.148685604 -0.988877833 0.00364317256 -0.110182315 -0.993800402 0.0148531217 0.463621706 0.885962486 0.0111958655 0.400438637 0.91427815 -0.0611909032 0.312696606 0.944764555 0.0981876552 0.295552522 0.952508926 0.0733176768 0.00328171463 -0.99555856 -0.0940871388 0.148737416 0.988874555 -0.00208104867 0.0997593999 0.99434638 0.0363773592 0.131830797 0.991261423 -0.00462992303 -0.334893227 0.040715348 0.94137603 -0.337275922 0.00470960187 0.941394031 -0.331698298 0.0508936867 0.942011714 0.958582282 -0.132052958 -0.252352983 0.883807778 -0.0395251326 0.466177613 0.988659978 -0.0913465694 -0.119194023 -0.999552369 0.0272676516 -0.0123079661 -0.995068312 -0.0150659662 0.0980413854 -0.994484723 -0.0249727406 0.101865053 -0.98632592 -0.0153746754 0.164087743 -0.968761325 0.0612502098 0.240312219 -0.325475365 0.0128051657 -0.945463777 0.440656871 0.818617702 0.368356675 0.506231546 0.251523346 0.824903429 -0.0138257444 -0.00651000906 0.999883235 -0.0255972687 -0.00352854421 0.999666095 -0.0283443499 -0.00283255801 0.999594212 0.264856696 0.662854791 0.700338781 0.422611088 0.0244135167 0.905982256 0.0207703393 0.99976182 0.00669910572 0.538486898 0.0172558129 0.842457175 -0.698893964 0.0312153175 -0.71454376 -0.979221463 -0.0264149122 -0.201066226 -0.979588807 0.00791397132 -0.200856104 -0.960940599 -0.000880237145 -0.276753277 -0.100840025 -0.994101644 0.0399146788 -0.00327898958 -0.99940443 0.0343516134 0.0569065064 -0.998376071 0.00261533214 -0.999898851 -0.00495819189 0.0133288801 -0.999921203 -0.00405915687 0.011881046 -0.999943495 -0.00301103131 0.0101930927 -0.0255605262 -0.99966979 -0.00263293809 -0.0698445663 -0.997557819 0.0004087704 0.152623996 0.988282859 0.00169620232 0.405589879 0.909439206 0.0917451531 0.410125703 0.91194874 0.0121016633 0.404770076 0.909406662 0.0956069678 -0.335922122 -0.000596239057 0.941889584 0.407344669 0.913232207 0.00879246369 0.308873415 0.0141951051 -0.950997233 0.318383157 -0.0134135149 -0.947867215 0.309348345 0.00904516131 -0.9509058 0.154348642 0.988014698 0.0018436067 -0.335638165 -0.000344613509 0.941990912 0.336753458 -0.00620906707 -0.941572368 0.037098255 -0.999111414 -0.0200030115 -0.0806813464 -0.996718943 0.00647222204 -0.37597546 0.00473947264 0.926617503 -0.351991832 -0.326883107 0.87706852 -0.747222245 -0.048281908 0.662818015 0.942986608 -0.236865178 -0.233818531 0.866094649 -0.368988991 -0.337234676 -0.0246836133 -0.99916482 -0.0325628221 0.325164795 -0.943803191 0.0591892004 0.820399344 -0.456635296 -0.344135374 -0.658533573 -0.225760013 0.717889965 -0.99886632 0.0193720963 -0.0434839502 -0.997475803 0.0552562214 -0.044596076 -0.933759689 0.164274514 0.317972869 -0.83784157 0.152487978 0.524184048 -0.881093144 0.136182755 0.452911854 -0.985219002 -0.0142142884 -0.170708582 0.960107565 0.107876487 -0.257984787 0.999868512 0.0153307635 -0.00528847845 0.9999246 -0.00459057884 -0.0113868983 -0.0505240038 0.998716712 0.00349933608 -0.0168708526 0.999856412 -0.00159872312 -0.0159855541 0.999857783 -0.0053728316 -0.998867869 0.00227838545 -0.0475162454 -0.860240042 -0.00524447951 0.509862304 0.99966079 0.024426762 -0.00903717149 0.999258995 0.0361804217 0.0131303808 -0.958088815 -0.0200380627 -0.285769671 -0.994150996 0.0350155495 -0.10216514 0.989926279 0.141389787 -0.00741080055 0.724265516 0.0764970258 -0.685264647 0.345648855 0.000515027437 -0.938363791 -0.605766535 -0.540540874 0.583834291 0.395847201 0.918292165 0.00666951202 -0.320307434 0.0514664389 0.945914567 0.030182166 0.983934641 0.175959349 0.987786949 -0.146245301 0.0537521802 0.794906139 0.0862080604 0.600576699 0.998865545 -0.0302904882 0.036743667 0.994176209 -0.0344501585 0.102111712 0.0892430842 0.0252800025 0.995688975 -0.705834925 0.0490570627 -0.706675589 -0.967486978 -0.0316254273 -0.250935793 -0.0110821128 -0.00720469793 0.99991262 -0.999869764 -0.0059884456 0.0149880135 0.0146987373 0.999836683 0.0105127972 0.306574911 0.951408982 -0.0288574174 0.0551899895 0.998364329 0.0149232727 0.999850094 0.0158906337 -0.00687257759 -0.875001729 0.275501162 0.398084313 0.998308778 -0.0262192115 0.0518855602 0.299234927 -0.939145029 -0.168715879 -0.956502616 -0.0439586118 -0.288392842 0.154763386 0.987949491 0.00201030122 0.0149195353 0.999886453 0.00211009872 -0.258286566 0.0459482968 0.964975059 -0.177040711 -0.608471155 0.773575723 -0.0888246521 -0.0212875549 -0.995819747 -0.109023146 -0.00870760158 -0.994001091 -0.0706123039 -0.0325932242 -0.99697119 -0.124156758 0.000746556558 -0.992262363</float_array>
          <technique_common>
            <accessor source="#normals_array" count="126" stride="3">
              <param name="X" type="float" />
              <param name="Y" type="float" />
              <param name="Z" type="float" />
            </accessor>
          </technique_common>
        </source>
        <vertices id="vertices">
          <input semantic="POSITION" source="#positions" />
        </vertices>
        <triangles material="qmat_45af129ec809a57d" count="98">
          <input semantic="VERTEX" source="#vertices" offset="0" />
          <input semantic="NORMAL" source="#normals" offset="1" />
          <p>0 0 1 1 2 2 0 3 3 4 1 5 4 6 2 7 5 8 1 9 3 10 6 11 0 0 2 2 4 12 7 13 0 0 4 12 2 2 8 14 9 15 1 9 6 11 8 16 5 17 2 18 10 19 11 20 12 21 10 22 13 23 14 24 15 25 16 26 15 27 17 28 18 29 15 27 16 26 19 30 15 27 18 29 20 31 13 31 15 31 21 32 22 33 4 12 22 33 7 13 4 12 23 34 24 35 25 36 22 33 26 37 27 38 21 32 26 37 22 33 28 39 23 39 29 39 7 40 27 38 3 4 4 6 5 8 30 41 28 42 31 43 24 44 25 45 24 46 31 47 26 48 25 49 32 50 32 51 25 45 27 52 5 17 10 19 12 53 33 54 9 55 34 56 33 57 12 21 11 20 33 54 11 58 9 55 34 59 9 60 35 61 30 62 5 17 12 53 33 57 36 63 12 21 9 60 6 64 35 61 27 52 37 65 35 66 38 67 39 68 37 69 39 70 13 23 40 71 37 65 40 72 41 73 40 71 13 23 20 74 42 75 40 76 20 77 20 78 15 27 19 30 43 79 34 80 41 81 43 82 44 83 45 84 46 85 38 86 47 87 38 67 42 75 39 68 47 88 40 76 46 89 45 84 30 90 48 91 45 84 48 91 43 82 49 92 37 93 31 43 43 82 48 91 33 94 43 82 33 94 34 95 2 2 1 1 8 14 9 60 8 96 6 64 50 97 2 97 9 97 11 58 50 98 9 55 50 99 11 20 10 22 10 19 2 18 50 100 15 25 14 24 17 101 14 24 16 102 17 101 13 23 16 102 14 24 13 23 18 103 16 102 13 23 19 104 18 103 27 38 26 37 32 105 45 84 44 83 30 90 21 106 4 6 30 41 0 3 7 40 3 4 28 42 29 107 31 43 29 107 49 92 31 43 23 34 28 108 24 35 26 48 23 109 25 49 29 110 23 111 49 112 23 111 21 32 49 112 26 37 21 32 23 111 7 40 22 33 27 38 44 83 21 113 30 90 3 10 27 52 6 11 27 52 25 45 37 65 25 45 31 47 37 65 6 11 27 52 35 66 39 114 20 78 19 30 42 75 46 89 40 76 36 115 48 91 30 90 33 94 48 91 36 115 37 65 39 116 40 72 41 81 34 80 35 117 30 62 12 53 36 118 35 66 37 65 41 73 49 112 21 32 43 119 38 86 49 112 43 119 49 120 38 67 37 69 39 68 42 75 20 121 13 23 39 70 19 104 40 122 43 123 41 124 43 82 21 113 44 83 47 125 43 123 40 122 47 87 38 86 43 119 38 67 46 89 42 75</p>
        </triangles>
      </mesh>
    </geometry>
  </library_geometries>
  <library_visual_scenes>
    <visual_scene id="scene">
      <node id="link7_stl">
        <instance_geometry url="#geometry">
          <bind_material>
            <technique_common>
              <instance_material symbol="qmat_45af129ec809a57d" target="#qmat_45af129ec809a57d" />
            </technique_common>
          </bind_material>
        </instance_geometry>
      </node>
    </visual_scene>
  </library_visual_scenes>
  <scene>
    <instance_visual_scene url="#scene" />
  </scene>
</COLLADA>