<?xml version='1.0' encoding='utf-8'?>
<COLLADA xmlns="http://www.collada.org/2005/11/COLLADASchema" version="1.4.1">
  <asset>
    <created>2026-09-14T00:00:00Z</created>
    <modified>2026-09-14T00:00:00Z</modified>
    <unit name="metre" meter="1" />
    <up_axis>Z_UP</up_axis>
  </asset>
  <library_effects>
    <effect id="qmat_6286805a07da3ff8_effect">
      <profile_COMMON>
        <technique sid="common">
          <lambert>
            <emission>
              <color sid="emission">0 0 0 1</color>
            </emission>
            <diffuse>
              <color sid="diffuse">0.07323546 0.07323546 0.07323546 1</color>
            </diffuse>
            <reflectivity>
              <float sid="specular">0.5</float>
            </reflectivity>
          </lambert>
        </technique>
      </profile_COMMON>
    </effect>
    <effect id="qmat_c9293097d13fc8af_effect">
      <profile_COMMON>
        <technique sid="common">
          <lambert>
            <emission>
              <color sid="emission">0 0 0 1</color>
            </emission>
            <diffuse>
              <color sid="diffuse">0.74876 0.74876 0.74876 1</color>
            </diffuse>
            <reflectivity>
              <float sid="specular">0.5</float>
            </reflectivity>
          </lambert>
        </technique>
      </profile_COMMON>
    </effect>
  </library_effects>
  <library_materials>
    <material id="qmat_6286805a07da3ff8" name="qmat_6286805a07da3ff8">
      <instance_effect url="#qmat_6286805a07da3ff8_effect" />
    </material>
    <material id="qmat_c9293097d13fc8af" name="qmat_c9293097d13fc8af">
      <instance_effect url="#qmat_c9293097d13fc8af_effect" />
    </material>
  </library_materials>
  <library_geometries>
    <geometry id="geometry" name="RL_calf_dae">
      <mesh>
        <source id="positions">
          <float_array id="positions_array" count="627">-0.0111201527 -0.00723455101 0.0458678976 0.017216742 -0.00645717327 0.0489925221 -0.0152604189 -0.00605186587 0.0324073769 0.0157849025 -0.00650550844 0.00210684608 -0.000469782302 -0.00474157836 0.0178360343 0.0158641879 0.014404254 0.0508740023 -0.00154985709 0.00670753373 0.0544709489 0.0172134545 0.00663729478 0.0489149801 0.00111012848 -0.00649890909 0.0544709489 -0.00604543788 -0.0148601057 0.0510366 0.0120938094 -0.0148741435 0.0531904884 0.0166580956 -0.0136776036 0.0452938452 0.0150394281 -0.015206432 0.00752916466 -0.0154059725 0.0063860938 0.0322669894 -0.0061846571 0.0150549887 0.0519389026 0.0146079371 0.0152716916 0.00529745407 -0.0191342216 0.0150158228 0.0172158442 0.00200200104 0.00613955921 0.0160377882 -0.0243513379 0.014484698 0.00269384752 -0.0251420103 -0.0100013632 -0.00458533783 -0.023790231 -0.0104613444 0.00793930702 0.00913800485 -0.00516416831 0.00417353399 -0.0208862368 -0.0150029082 0.00881618448 0.00966966245 0.00584521145 0.00293625402 0.0155880982 0.0130102243 -0.00836772937 0.0158234816 0.00713151041 -0.0128559284 -0.0117142694 0.0150983986 -0.0191519298 -0.0205828976 -0.0146665629 -0.0138736423 0.0135124112 -0.0153243914 -0.0105413478 -0.00478887139 -0.0154331597 -0.0302468985 0.0165672861 -0.0148530528 -0.0196241681 -0.0155060422 -0.0153347775 -0.0249671284 -0.0202476308 0.0143992333 -0.0148553951 0.0126111703 0.0151886027 -0.0134781124 0.0173619464 -0.00455292407 -0.0212862622 0.0206472781 0.0134823238 -0.039329391 0.010198825 0.0151956398 -0.0548463948 0.00665530935 0.021666456 -0.051735159 0.0292368252 0.0144176213 -0.0764662176 0.0200384688 -0.0148093244 -0.0373294726 0.00386429555 -0.0150762238 -0.04463486 0.023411233 -0.0147117879 -0.0533085279 -0.0061452901 0.0210748184 -0.0460703596 0.000340595463 0.00121293729 -0.0666503608 -0.00629059179 -0.0205027927 -0.0463029519 0.00894388836 -0.0213518441 -0.0550478995 0.00387177616 -0.0204320066 -0.0731688142 0.0287201777 -0.0145202223 -0.0755944327 0.0149991941 -0.0150873726 -0.0642729551 0.0215605069 -0.0204447247 -0.0806789845 0.0213873331 0.0206597857 -0.0804861113 0.0263466798 0.0154835787 -0.0876060426 0.0148851788 -0.018190179 -0.105874918 0.0349392705 0.0180426817 -0.11222554 0.0132752284 0.0195877608 -0.095827885 0.0303063635 -0.0187118314 -0.100736678 0.0241091643 -0.0152174411 -0.0831051841 0.0355758704 -0.0139512308 -0.105096206 0.0385161117 -0.000122112018 -0.112533256 0.0390342362 0.0143345706 -0.119944297 0.0388887413 -0.0167275723 -0.122100376 0.0222041626 0.0115068937 -0.137883857 0.0110269589 0.0168970134 -0.0944967419 0.0276056323 0.013999044 -0.155886829 0.0453647114 0.0135828415 -0.159655884 0.0465676002 -0.00784987397 -0.161547661 0.0277887229 -0.00729497895 -0.171027228 0.0231557917 -0.0150215039 -0.138475895 0.0141982688 9.98270298e-06 -0.108340144 0.030136019 -0.012915642 -0.169708878 0.0444797501 -0.0135821039 -0.160670102 0.0340327211 0.0114866784 -0.200262517 0.0324165784 -0.0108326487 -0.207165644 0.0488744564 -0.0111571383 -0.220257506 0.0511716567 -0.00794409681 -0.218058079 0.0310258213 0.00823895726 -0.20238249 0.0498783514 0.00789704639 -0.191979542 0.0502581336 0.0110692335 -0.217073992 0.048297286 0.0135369925 -0.254132628 0.0319138654 0.0117222536 -0.236991495 0.0503190011 0.0115233772 -0.270623058 0.0251204502 0.0142986178 -0.264308751 0.0309409723 -0.00605793623 -0.23425357 0.0249696933 -0.0112562319 -0.262851804 0.0272626765 -0.0152750425 -0.266416788 0.0331745706 -0.0120739564 -0.236956611 0.0234994031 -0.00124655012 -0.265118778 0.0306987632 0.0196145419 -0.290020674 0.0109818969 0.0185795315 -0.290326118 0.017165076 -0.0145622157 -0.278229445 0.0249847863 -0.0192574989 -0.289045662 0.0461750925 -0.0185685046 -0.285761237 0.0352130681 -0.0202713534 -0.293805391 0.0157947894 0.0140335038 -0.279311329 0.00674850447 -0.000231850747 -0.292474866 0.0488979071 6.84450279e-05 -0.29121387 0.0498755686 -0.013191008 -0.257770538 0.0429523662 -0.0217312947 -0.330175579 0.0421954766 0.0228971131 -0.331686944 0.0448010862 0.020140931 -0.293233633 0.0381090678 0.0216188487 -0.299513221 0.0347134508 -0.0260625202 -0.330836833 0.037122488 -0.0235121418 -0.311860263 0.0357497446 0.0269225929 -0.328394294 0.0382772014 -0.0223839711 -0.303435951 0.0395007133 -0.0260421392 -0.324634999 -0.00882619154 0.0210511275 -0.311291575 0.00339973345 0.0237734281 -0.309359103 -0.00606960896 0.0259977579 -0.316348612 -0.0246305205 0.000104712017 -0.325040936 0.0163153354 -0.020125581 -0.29473561 0.00313735614 -0.0242009256 -0.309486508 0.00657632062 -0.0171987228 -0.29458335 -0.011390307 0.0269307606 -0.324775845 0.0267657507 0.0236556474 -0.369400591 0.0286865309 -0.00015374794 -0.370000005 0.0220357142 0.0169179179 -0.367064476 0.0369530842 0.000129575303 -0.355401576 0.0329850763 0.026433723 -0.337075442 0.0223383531 0.0273462702 -0.356492549 0.0148921292 0.0275073685 -0.351863027 0.0194303486 -0.0272780657 -0.35561794 0.0274602305 0.0271588694 -0.353506982 0.0350823812 0.0244832654 -0.354279131 0.0427512899 -0.00107057067 -0.336562812 0.0157129932 0.0275899693 -0.364542574 -0.0101370122 0.0274604429 -0.330660701 0.0229564309 0.0189309344 -0.362074286 0.0345926248 -0.0240451358 -0.355570316 0.0267521143 -0.0236078873 -0.369301498 0.0269378815 -0.0272277594 -0.355018705 0.0225554947 -0.0150244907 -0.367471874 0.0226889942 -0.0182861798 -0.361780047 0.0161069743 -0.0201024599 -0.364499241 0.0158170927 -0.0274099708 -0.364798248 -0.00264341687 -0.0213237572 -0.370000005 0.00284527405 -0.027308356 -0.369804114 -0.0209170543 0.0152586214 -0.331050158 -0.0171222296 -0.0166646522 -0.328379542 -0.0212513804 -0.0132524101 -0.330679059 -0.0169296805 0.016878305 -0.328555822 -0.00592319295 0.0198163781 -0.337974608 -0.0236201473 0.0251662713 -0.327252388 -0.0189618431 0.0275447909 -0.356593192 -0.00390286953 0.0214997195 -0.370000005 -0.0197302159 0.0214592889 -0.352988422 -0.00211191596 0.0274259634 -0.370000005 -0.0171268713 0.0203026999 -0.33660996 0.00814128481 0.0196579285 -0.349771976 -0.0170205105 0.0274088904 -0.337398499 -0.011697378 -0.0272295419 -0.325586408 -0.0207721386 -0.0263658781 -0.327991813 -0.0168296285 -0.0273386445 -0.337522417 -0.017041279 -0.020116996 -0.336779326 -0.0238865707 -0.0228718426 -0.326977581 0.00137485191 -0.0195766743 -0.344108045 -0.00681736413 -0.027315855 -0.333641678 -0.0151273208 -0.027369881 -0.362881958 -0.0193822794 -0.0212874711 -0.355793327 -0.0198138002 -0.0267583784 -0.351228267 0.0193630401 0.019739626 -0.291574568 -0.00666692667 0.025880402 -0.382238597 -0.0029583259 -0.00560231367 -0.384496152 -0.00725659914 0.00789046381 -0.383418947 0.0187389515 0.0261896625 -0.376075834 0.0260054432 0.0249917153 -0.369367719 0.0275633316 0.00762987183 -0.371811926 0.0220204722 -0.00536817359 -0.367069006 0.0250678342 0.00144061539 -0.363168061 0.0156134665 0.02737193 -0.364735186 0.00228638202 0.0275273807 -0.369977325 0.0113633871 0.0145420525 -0.382441491 0.0112398369 0.00480173575 -0.382663935 0.0232318304 -0.00274966983 -0.376260161 0.0161735397 -0.00653429702 -0.3805134 -0.0138927186 0.0275150612 -0.365870565 0.0284051076 -0.0149424644 -0.370260656 0.0194535833 -0.0266950168 -0.374805421 0.0152022997 -0.0274099708 -0.364970922 0.00366079458 -0.0225074384 -0.383418441 0.00710526807 -0.00972817745 -0.383717626 -0.00152865693 -0.0274033248 -0.352083355 -0.0134922769 -0.027381748 -0.364745051 -0.0280480869 0.0263239611 -0.366304815 -0.017350588 0.0275899693 -0.337396055 -0.0199712943 0.0275899693 -0.352223247 -0.0203262344 0.0071174819 -0.329781294 -0.0172712747 -0.027227154 -0.337896407 -0.0253106002 0.0141097168 -0.3259345 -0.0342264771 0.0149314385 -0.351760924 -0.0338031314 0.00169204304 -0.355410099 -0.0341087393 0.00505127711 -0.345830709 -0.0199030619 -0.0272570141 -0.351771653 -0.0313960612 0.0237742979 -0.33932367 -0.0305510126 0.0050664763 -0.335101634 -0.0304022916 -0.0124501791 -0.333915859 -0.0221560914 -0.00804715045 -0.327693105 -0.0239314679 -0.0250221975 -0.328484118 -0.0311989076 -0.0266463477 -0.357269973 -0.0336634666 -0.00473538879 -0.343184829 -0.0294330344 0.0076989783 -0.36754629 -0.0186530575 -0.0131765958 -0.378536731 -0.0163617674 -0.0261971764 -0.377752841 -0.0244295429 -0.00330410386 -0.37457782 -0.012771911 -0.00486996071 -0.382064462 -0.0298591163 -0.0136120683 -0.366728365 -0.0342236273 -0.0140786301 -0.349888057 -0.0319734178 -0.00447779568 -0.362404019 -0.0186097994 0.00719496515 -0.378816575</float_array>
          <technique_common>
            <accessor source="#positions_array" count="209" stride="3">
              <param name="X" type="float" />
              <param name="Y" type="float" />
              <param name="Z" type="float" />
            </accessor>
          </technique_common>
        </source>
        <source id="normals">
          <float_array id="normals_array" count="924">-0.0348448195 0.997080743 0.0679394901 -0.00489819003 0.999972403 0.00559043186 -0.00694919098 0.999252498 0.0380276255 0.700856924 0.0184446648 0.713063419 0.697540283 0.0633769929 0.713737309 0.722718477 0.00536700245 0.691121638 0.228892297 -0.0639291182 0.971350312 -0.26530987 0.0420932323 0.963243902 0.278142661 -0.189206913 0.941720426 -0.148644939 -0.0578105114 0.987199366 -0.466520071 -0.635245204 0.615485609 0.363807738 -0.596464574 0.715453625 0.79711628 -0.592724919 0.115250967 0.663021266 -0.748589754 0.00401386619 0.868349791 -0.0419227257 0.494177282 0.00045847107 -0.999899209 0.0141891092 0.000117380456 -0.999889612 0.0148573071 0.0127409212 -0.999832273 0.0131554557 0.0149197895 0.999824882 0.0112965629 0.509403527 0.86046654 -0.0102628283 -0.0179346576 0.999838591 -0.00105613389 0.695132077 0.000761986128 0.718881607 0.774773896 -0.0442834385 0.630685627 -0.99549365 0.072412841 0.0612275265 -0.952170074 -0.283554763 -0.113880679 -0.944198966 -0.25740543 0.205501169 -0.932994366 0.0868114009 0.349263996 -0.945433855 0.087762475 0.313771605 0.23660329 0.961951554 0.136631235 0.227768689 0.968122602 0.104211792 0.233511463 0.964261591 0.125187859 -0.520288229 -0.844984174 0.123700745 -0.851893365 -0.218978435 0.475737453 -0.00444999849 -0.999842227 0.0171957463 0.137469977 -0.990490735 -0.00549153564 0.899759233 0.436385095 -0.00115911767 0.985965073 0.166685164 -0.00943167694 0.977043152 -0.0632053018 0.203449771 0.59907335 0.800660431 0.00735070184 -0.00313655054 0.996685207 0.0812939927 -0.6529513 -0.718165278 -0.240609974 0.0632877424 -0.99798131 -0.00529221678 0.0917593166 -0.98670882 0.134111658 0.0441351123 -0.998813391 -0.0205900986 -0.23449558 -0.970691979 0.0526198484 -0.0718400106 0.997324288 -0.0135398582 -0.0660337806 0.997331262 0.0311433915 -0.942779362 0.0623680428 -0.327532172 0.244546324 0.969241858 0.0277012307 0.225528851 0.96948272 0.0961251557 0.981135666 -0.0376660489 0.189615697 0.991536558 -0.0577334054 0.116284609 0.913876116 -0.0168019999 0.40564537 0.905438662 0.368453801 0.210766703 0.403050125 0.826137662 0.393760294 0.547171533 0.787688553 0.283107877 0.506253541 0.804921925 0.309528798 0.709532857 0.680912137 0.181443512 0.0167818405 -0.999858975 -0.000625664659 0.0229157787 -0.999737322 0.000427206047 0.0278217401 -0.999594986 0.00598661834 -0.625752032 0.764358759 -0.155531645 -0.937530339 0.000712935522 -0.347902864 -0.594310343 -0.797979414 -0.100120462 0.542832136 -0.772934616 0.328489423 0.851111174 -0.147236109 0.503915906 -0.0344236977 -0.998083055 -0.0514320657 0.977107406 -0.0629115254 0.203231946 0.964320481 -0.137974575 0.225940302 0.970369279 -0.0969863087 0.221307874 0.87616545 -0.20624572 0.435656697 0.881300688 -0.239962876 0.40709576 0.548508584 0.803490222 0.231390923 0.600835919 0.765101373 0.231551468 -0.0247252937 -0.996975362 -0.0736802593 -0.00963772181 -0.995857894 -0.090410836 0.572752118 0.80599159 0.14944081 -0.44226256 0.873748124 -0.202405751 0.456053942 -0.877176821 0.150251746 0.604874015 -0.756248713 0.249429867 0.896814406 -0.365228266 0.249664292 0.0840537846 -0.996083379 0.0274382792 0.979840815 -0.00832645129 0.199606359 0.922088683 0.349344224 0.166466504 0.670414627 -0.738408506 0.0727815256 -0.962206244 0.128386304 -0.240158588 -0.899712861 0.301713407 -0.315413624 -0.615992546 0.765106559 -0.187523723 0.697942734 0.714095354 0.0542564318 0.982239366 -0.146013334 0.117838673 -0.976038694 -0.170288876 -0.13546294 -0.668466985 -0.715512872 -0.202961162 -0.960395873 -0.0173189268 -0.278100461 -0.516669214 -0.846336007 -0.129492536 0.581931531 -0.812992632 0.0199669208 -0.366785675 0.928561568 -0.0569355376 -0.687248945 -0.725635231 -0.0337984115 0.457045197 -0.888432264 0.0424009934 0.957559168 -0.286641926 0.0302786063 -0.940673947 0.336670786 -0.0422525741 0.983342469 0.166571274 0.0727432296 0.705893457 0.70815748 0.0150803206 0.402944565 0.912609875 0.0691291392 -0.65483433 0.744397581 0.130630478 0.957386076 0.288264543 -0.0177613981 -0.597400606 0.718477607 0.356233597 -0.981477737 -0.15982683 0.105626136 -0.863799512 -0.379699111 0.331178099 -0.296107441 -0.914595068 0.275383919 -0.504601777 -0.854076862 0.126213223 -0.920513749 0.00452383002 0.390683979 -0.0251584575 0.980190694 0.196451798 -0.519937515 0.687633514 0.506779253 -0.738410294 -0.425188929 0.523416281 -0.00716432603 -0.983829319 0.178965241 0.535824478 -0.839437604 0.0907561854 -0.00234304834 -0.977665842 0.210152343 -0.841984689 0.200444773 0.500882924 -0.794111609 0.0125910146 0.607641518 0.995127499 -0.0210144445 -0.0963309184 0.723181665 -0.688909948 0.0491062403 0.899602652 -0.403636873 -0.166710407 0.844827235 0.515895247 -0.141841471 0.513497055 0.853214025 0.0913598612 -0.402271211 -0.0347109698 -0.914862275 -0.776121199 0.0271801427 -0.629997671 0.0765583888 0.0281875767 -0.99666661 -0.972421229 -0.00715056108 -0.233121812 -0.975911021 0.00175099389 0.218161896 -0.991214454 -0.0143046007 0.131488591 0.0370616987 0.980823219 0.191343129 0.481956571 0.875947356 -0.0208335873 -0.998795688 0.000556993647 -0.0490596704 0.051582668 -0.982065678 0.181345761 -0.192672148 -0.968784213 0.155995429 0.33902806 -0.939586878 0.0472916812 -0.62163949 0.458820343 0.634860814 0.0436449461 0.970926821 0.235363916 -0.13990587 0.962403953 0.232819527 -0.977972329 0.00400874764 0.208695978 0.731910348 -0.00268687122 -0.68139565 0.667080522 0.00887629855 -0.744932711 0.738136649 0.00126682641 -0.674650013 -0.678835034 -0.446386158 0.583028615 -0.278421789 -0.85545516 0.436666608 0.971323371 -0.00511901127 -0.237707093 0.162939861 -0.98102814 0.105044462 -0.417611927 -0.021777004 -0.908364475 -0.396151721 0.00344480085 -0.918178618 -0.419159621 -0.0154187074 -0.907781601 0.667560399 0.625473917 -0.403912693 0.918829978 0.00283856783 -0.394643366 0.869504571 -0.00117839337 -0.493923515 -0.980062246 0.00636102445 0.198588714 -0.947491169 -0.0790829062 0.309848875 0.0248469003 -0.0175435804 0.999537349 0.592144787 -0.00743869971 0.805797279 0.310671628 0.0100172516 0.950464487 0.289360374 0.910002112 -0.296928883 0.730615854 0.601845741 -0.322462708 0.175092131 0.975321054 -0.13450484 -0.776271999 -0.0119287325 0.630285203 0.973599315 0.00174651109 -0.22825703 0.0104716951 0.999919295 0.00719145825 0.0904073268 0.993986428 -0.0617861971 -0.0836910233 0.995152593 0.0516445786 -0.763950348 -0.537110984 0.357619435 -0.939860165 -0.219287574 0.261869967 -0.960931897 -0.241495401 -0.135240018 0.752025962 -0.570094526 -0.330831051 0.815666854 -0.328503042 -0.476207256 0.354302466 -0.918982327 -0.173035324 -0.399156749 0.000397294527 -0.916882634 -0.61583215 0.0131432945 0.787767768 -0.935371041 0.292215943 0.199225634 -0.78352809 0.583571792 -0.213372245 -0.118058316 0.0508671217 -0.991702974 -0.401748627 0.0145152565 -0.91563493 0.0343529731 0.0394989811 -0.998628914 -0.202980518 0.979181409 0.00162084773 -0.207974777 0.536513269 -0.817863047 0.115389504 0.0291049201 -0.992893815 0.135618463 -0.981391847 -0.135932669 0.0580443032 -0.996685445 -0.0570000224 0.228247032 -0.943053365 -0.24197872 0.59308064 -0.36531058 -0.717498124 0.068121843 0.521767199 -0.850363672 0.613979459 0.235178992 -0.753471971 0.0212633237 -0.485432118 -0.874015749 -0.452456415 -0.689539194 -0.565525293 -0.210570127 0.940429389 0.266932189 -0.830454826 0.549331784 0.0926249549 -0.884500444 -0.098284021 -0.45606938 -0.248548999 -0.554435134 -0.794245005 -0.794411957 -0.585399151 -0.16191791 -0.0991498008 0.0299636722 -0.994621277 0.280943155 -0.0458576493 -0.958628178 0.0208997373 -0.967567027 -0.251748443 -0.0674598739 -0.996499181 -0.0493818708 -0.0509794019 0.99753052 0.0483109988 -0.000729250547 0.999996603 0.00250242371 0.99739778 0.0175854508 -0.069917053 -0.127092376 -0.969126642 0.211284235 -0.528331578 -0.835172117 0.152817741 -0.585508943 -0.807988226 -0.0658351853 -0.817400873 0.00237939437 -0.576064348 -0.949685216 0.0178249571 -0.312698305 -0.936528802 -0.331714153 0.113488026 -0.450459212 0.705611527 -0.546990693 0.00594244478 0.963728309 -0.266819149 0.753764153 0.0111418813 0.65705055 0.000655292068 -0.999988794 0.00468377769 -0.582707703 -0.545384347 -0.602501214 0.00192905811 -0.999958277 0.00892739184 0.000290052587 -0.999998331 0.00179601763 -0.758931994 0.587745547 -0.280316621 -0.819608152 -0.572741449 -0.0144790411 -0.0213143416 0.998255551 -0.0550592579 0.0132111097 0.999911726 -0.00143426901 -0.635460317 -0.0277840048 0.771633506 -0.927568138 0.175034821 0.330121368 0.997353077 -0.0643206835 0.0339066498 0.901380539 -0.0197709855 0.432576269 0.175426066 -0.984421611 -0.0118235946 0.0324674733 0.974272013 0.223024353 0.0410273001 -0.99908334 0.012214697 -0.94078511 -0.0526262112 -0.334893882 -0.955062628 -0.0714448467 -0.287664831 0.496118575 -0.0201874338 -0.868020058 -0.0629678667 0.905806124 0.418987274 -0.115006737 -0.989092827 0.0920260474 -0.410503596 -0.0278279763 -0.911434233 -0.0830695555 -0.995691836 -0.0411979221 -0.641374469 -0.00310135609 -0.767221749 -0.816051722 -0.00109254394 -0.577977836 -0.985802293 0.0173438471 -0.167012006 -0.95085007 -0.00692969514 -0.309574097 0.852226973 -0.00395484967 0.523157239 0.279286504 -0.0398471765 -0.959380686 -0.00468413206 0.999880254 -0.0147490557 -0.156603053 0.654087722 -0.740030229 -0.0965580866 -0.0342558734 -0.994737685 -0.214111581 0.0612418465 -0.97488749 0.394679517 0.698933005 -0.596423328 0.683648109 0.161539063 -0.71170944 0.780355632 0.0858981311 -0.619408309 0.459758133 0.00688957283 0.888017476 0.195082232 -0.161923692 0.967328072 0.699313402 -0.037742272 0.713818133 -0.916916966 0.398543149 0.0206540655 0.106108524 0.99158746 -0.0741300136 0.203560323 0.977988005 -0.0458545722 -0.110003158 0.8665362 -0.486841202 -0.012599567 0.00526357861 0.999906778 0.294355214 0.123957835 -0.947623074 0.303521127 0.0462574139 -0.951701224 0.612633884 -0.00180666952 -0.790364802 0.462011904 -0.0701897442 -0.884091854 -0.0624555796 0.99237591 -0.106251583 0.947599053 0.0569417514 0.314346492 0.753952682 -0.0957346559 -0.649915516 -0.190492213 -0.422438413 0.886148155 0.43667683 -0.263098627 0.860286236 0.531674027 -0.745477021 -0.401978523 0.175609753 -0.789775014 0.587721586 0.0811463445 -0.486014038 -0.8701756 0.2197745 -0.0464907214 -0.974442303 -0.0547099039 0.0246076621 0.998199046 -0.0203313455 -0.99916935 -0.0353166312 0.549432337 0.0553164333 0.833705127 -0.638586283 0.670735717 -0.377254665 -0.285884947 0.896429658 0.338649809 -0.186334148 0.98231107 0.0185614936 0.996796906 0.0305230282 0.0739204362 0.809725404 0.0331134275 0.585873902 0.986242831 -0.0386517607 0.160720766 0.703379512 0.115548015 0.701360106 -0.982937813 0.163236946 -0.084775582 -0.984931409 0.00314358599 -0.172916993 -0.989716411 0.00902682543 0.142758459 0.640684187 0.0155523857 0.767647028 0.992555797 0.00364616257 0.121736035 0.991297185 0.00706162909 0.131453604 -0.720968306 0.614109874 0.321051002 -0.915858984 0.0329918601 0.400142312 -0.84981662 -0.145697787 0.506541073 -0.755217016 0.226476848 0.615106106 -0.57174319 -0.0827954337 0.816244185 0.00430268748 0.999988973 -0.00189160125 0.00509278197 0.999982178 -0.00310775521 0.00788502768 0.999958515 -0.00456178188 -0.723829627 -0.552327812 0.413527042 -0.688866735 -0.71134311 -0.139476314 -0.112877257 -0.992278576 0.0513993837 -0.979976058 -0.0158689059 0.198482066 -0.854838669 0.0667094365 -0.514587879 -0.535377026 -0.114233427 -0.836852551 -0.361219406 -0.695568442 -0.62105161 -0.71135354 -0.0125575857 -0.702722192 -0.363756716 -0.0704102293 -0.928829074 -0.861301661 -0.134769142 -0.489894658 -0.9852705 -0.167576388 0.0340613723 -0.951547742 -0.0653478131 -0.300477266 0.000989611843 0.999999225 0.000768894039 0.841757953 -0.0434352793 0.538104892 0.00790051091 0.999962151 -0.00365067436 0.798793852 -0.111095771 0.591258109 -0.556566417 0.0939634815 -0.825472414</float_array>
          <technique_common>
            <accessor source="#normals_array" count="308" stride="3">
              <param name="X" type="float" />
              <param name="Y" type="float" />
              <param name="Z" type="float" />
            </accessor>
          </technique_common>
        </source>
        <vertices id="vertices">
          <input semantic="POSITION" source="#positions" />
        </vertices>
        <triangles material="qmat_6286805a07da3ff8" count="92">
          <input semantic="VERTEX" source="#vertices" offset="0" />
          <input semantic="NORMAL" source="#normals" offset="1" />
          <p>161 240 162 241 163 242 164 243 165 244 166 245 165 246 167 247 166 248 168 249 166 249 167 249 169 250 165 251 164 243 169 250 164 243 170 252 165 246 169 253 167 247 164 243 166 245 171 254 172 255 173 256 174 257 175 258 164 243 161 240 171 254 172 255 161 240 161 240 172 255 162 241 166 245 168 259 176 260 168 261 167 247 176 262 173 256 176 260 177 263 167 247 178 264 176 262 174 257 177 263 179 265 180 266 174 257 179 265 169 253 170 267 178 264 178 264 181 268 177 263 170 267 182 269 178 264 172 255 180 266 162 241 183 270 184 271 185 272 184 273 186 274 187 275 184 273 188 276 186 274 189 277 190 278 191 279 175 280 185 281 192 282 193 283 191 279 194 284 194 284 195 285 188 286 183 270 189 277 193 283 188 286 195 285 196 287 181 288 182 289 192 290 197 291 198 292 187 293 187 293 198 292 181 268 191 279 190 278 199 294 184 273 187 275 185 281 196 287 195 285 197 291 195 285 198 292 197 291 189 277 183 270 200 295 185 272 175 258 183 270 175 258 161 240 183 270 201 296 162 241 202 297 203 298 204 299 201 296 181 268 198 292 202 297 181 268 202 297 177 263 190 278 205 300 206 301 200 295 203 298 207 302 203 298 205 300 207 302 203 298 201 296 205 300 162 241 179 265 202 297 205 300 202 297 198 292 163 242 162 241 204 299 204 299 162 241 201 296 167 247 169 253 178 264 171 254 166 245 172 255 172 255 166 245 173 256 175 258 170 252 164 243 161 240 164 243 171 254 174 257 173 256 177 263 176 262 178 264 177 263 180 266 172 255 174 257 182 289 181 288 178 303 177 263 202 297 179 265 173 256 166 245 176 260 188 286 184 271 193 283 188 286 193 283 194 284 187 275 186 274 196 304 186 274 188 276 196 304 193 283 189 277 191 279 193 283 184 271 183 270 192 290 187 305 181 288 195 285 194 284 199 294 185 281 187 275 192 282 194 284 191 279 199 294 195 285 199 294 206 301 199 294 190 278 206 301 195 285 206 301 198 292 187 275 196 304 197 306 190 278 200 295 207 302 189 277 200 295 190 278 208 307 163 242 204 299 183 270 208 307 200 295 200 295 208 307 203 298 208 307 161 240 163 242 208 307 183 270 161 240 182 269 175 280 192 282 205 300 201 296 202 297 203 298 208 307 204 299 190 278 207 302 205 300 206 301 205 300 198 292 170 267 175 280 182 269 162 241 180 266 179 265</p>
        </triangles>
        <triangles material="qmat_c9293097d13fc8af" count="322">
          <input semantic="VERTEX" source="#vertices" offset="0" />
          <input semantic="NORMAL" source="#normals" offset="1" />
          <p>0 0 1 1 2 2 2 3 3 4 4 5 5 6 6 7 7 8 8 9 9 10 10 11 11 12 10 11 12 13 1 14 11 12 12 13 6 15 13 16 7 17 1 14 10 11 11 12 14 18 15 19 16 20 13 21 4 5 17 22 18 23 19 24 20 25 13 26 20 25 2 27 4 28 3 29 21 30 20 25 19 24 22 31 2 27 20 25 0 32 7 17 17 33 23 34 24 35 7 36 25 37 15 19 5 38 24 35 16 20 15 19 26 39 22 31 27 40 28 41 28 41 29 42 30 43 28 41 31 44 29 42 19 24 31 44 27 40 18 45 26 39 32 46 18 23 32 47 19 24 22 31 19 24 27 40 15 19 33 48 26 39 21 30 3 29 34 49 34 50 12 13 30 51 25 37 23 52 34 50 24 35 25 37 35 53 35 53 25 37 34 50 26 54 36 55 37 56 26 39 33 48 36 55 33 48 38 57 36 55 33 48 35 53 38 57 39 58 40 59 41 60 32 47 42 61 43 62 31 44 44 63 29 42 29 42 44 63 45 64 19 24 43 62 44 63 30 43 40 59 39 58 40 65 29 42 45 64 44 63 46 66 45 64 34 50 39 67 41 68 34 50 41 68 47 69 48 70 45 64 49 71 37 56 36 55 50 72 50 72 36 55 51 73 36 55 38 57 51 73 45 64 46 66 49 74 38 57 35 53 34 50 46 66 52 75 49 74 50 72 53 76 54 77 49 74 52 75 55 78 56 79 49 71 55 78 57 80 56 79 55 78 47 81 56 79 57 80 58 82 47 69 57 80 53 76 51 73 59 83 57 80 55 78 60 84 54 77 61 85 62 86 54 77 53 76 63 87 58 82 57 80 60 84 59 83 58 82 64 88 64 88 58 82 65 89 61 85 66 90 67 91 61 85 67 91 68 92 65 89 58 82 60 84 53 76 64 88 63 87 67 91 69 93 70 94 60 84 52 75 67 91 60 84 67 91 70 94 63 87 64 88 71 95 69 93 72 96 70 94 70 94 72 96 73 97 70 94 73 97 74 98 63 87 75 99 66 90 64 88 76 100 77 101 76 100 65 89 74 98 64 88 77 101 71 95 77 101 78 102 79 103 78 102 77 101 80 104 79 103 78 102 81 105 75 99 71 95 79 103 79 103 82 106 75 99 83 107 84 108 85 109 79 103 81 105 82 106 81 105 86 110 82 106 81 105 87 111 88 112 83 107 89 113 84 108 84 108 90 114 91 115 91 115 90 114 92 116 93 117 94 118 86 110 95 119 96 120 97 121 78 102 87 111 81 105 80 104 96 120 95 119 98 122 80 104 95 119 99 123 80 104 98 122 87 124 92 125 90 126 100 127 101 128 102 129 100 130 99 123 103 131 99 123 98 122 103 131 87 124 100 127 92 125 100 127 104 132 92 125 100 127 102 129 104 132 104 133 102 134 105 135 91 115 104 133 105 135 88 112 106 136 94 118 88 112 107 137 108 138 106 136 109 139 94 118 88 112 108 138 106 136 107 140 110 141 111 142 89 113 112 143 111 144 113 145 107 140 111 142 84 108 111 144 110 146 94 118 112 143 86 110 114 147 115 148 116 149 114 150 117 151 115 152 103 153 118 154 101 128 119 155 120 156 121 157 122 158 123 159 119 160 118 154 103 153 122 161 123 159 124 162 117 151 98 122 124 162 123 159 120 163 119 160 125 164 120 163 125 164 126 165 125 166 116 167 127 168 117 151 124 162 97 121 128 169 97 121 105 135 115 152 128 169 129 170 105 135 130 171 128 169 116 149 115 148 131 172 119 155 121 157 130 173 127 168 131 174 132 175 133 176 129 177 134 178 131 174 133 179 132 175 135 180 133 176 136 181 130 182 134 183 129 184 137 185 138 186 139 187 137 185 140 188 138 186 141 189 132 175 140 188 108 138 107 137 113 190 106 136 113 190 142 191 143 192 144 193 145 194 146 195 125 196 144 193 141 189 147 197 148 198 126 165 125 164 149 199 149 199 125 164 143 200 113 145 111 142 150 201 150 202 151 203 152 204 139 205 153 206 154 207 138 186 155 208 153 209 112 143 154 207 151 203 132 175 155 208 138 186 120 156 156 210 121 157 111 144 151 203 150 202 156 211 157 212 121 213 156 211 152 204 157 212 121 213 157 212 136 214 158 215 153 209 135 180 155 208 135 180 153 209 155 208 133 179 135 180 153 206 158 215 159 216 152 204 159 216 157 212 158 215 157 212 159 216 0 0 8 217 1 1 2 2 1 1 3 218 24 35 5 38 7 36 10 11 9 10 22 31 14 18 5 38 15 19 9 10 0 32 22 31 5 6 14 219 6 7 8 9 0 32 9 10 14 219 16 220 13 26 4 5 13 21 2 3 7 17 13 16 17 33 6 7 14 219 13 26 1 14 8 9 10 11 10 11 22 31 12 13 3 221 1 14 12 13 13 26 18 23 20 25 16 220 18 23 13 26 23 52 17 22 21 222 21 222 17 22 4 5 0 32 20 25 22 31 25 223 7 17 23 34 34 50 23 52 21 222 28 41 27 40 31 44 18 45 16 20 26 39 33 48 15 19 24 35 33 48 24 35 35 53 32 46 26 39 42 224 12 13 22 31 28 41 34 50 3 221 12 13 30 43 12 13 28 41 34 50 30 51 39 67 31 44 19 24 44 63 32 47 43 62 19 24 42 61 26 54 37 56 30 43 29 42 40 59 42 61 62 86 43 62 47 81 41 60 48 225 48 70 40 65 45 64 58 82 34 50 47 69 41 60 40 59 48 225 42 61 37 56 54 77 47 81 48 225 56 79 56 79 48 70 49 71 44 63 43 62 46 226 37 56 50 72 54 77 58 82 38 57 34 50 59 83 38 57 58 82 43 62 62 86 68 92 42 61 54 77 62 86 53 76 50 72 51 73 51 73 38 57 59 83 43 62 68 92 52 227 46 226 43 62 52 227 62 86 61 85 68 92 52 75 60 84 55 78 52 227 68 92 67 91 65 89 60 84 70 94 64 88 53 76 59 83 54 77 63 87 61 85 67 91 66 90 69 93 76 100 64 88 65 89 61 85 63 87 66 90 66 90 75 99 72 96 66 90 72 96 69 93 74 98 65 89 70 94 63 87 71 95 75 99 71 95 77 101 79 103 80 104 77 101 74 98 75 99 82 106 72 96 72 96 82 106 85 109 85 109 82 106 83 107 82 106 86 110 83 107 74 98 77 101 76 100 96 120 72 96 85 109 96 120 85 109 84 108 73 97 72 96 96 120 80 104 74 98 96 120 96 120 74 98 73 97 80 104 99 123 78 102 83 107 86 110 89 113 97 121 96 120 91 115 96 120 84 108 91 115 87 111 78 102 99 123 160 228 87 124 90 126 81 105 93 117 86 110 90 114 84 108 110 146 88 112 87 111 160 229 93 117 81 105 88 112 87 111 99 123 100 130 105 135 102 134 101 230 110 141 160 228 90 126 91 115 92 116 104 133 97 121 91 115 105 135 88 112 160 229 107 137 93 117 88 112 94 118 160 228 110 141 107 140 111 144 112 143 151 203 84 108 89 113 111 144 86 110 112 143 89 113 94 118 109 139 154 207 112 143 94 118 154 207 114 150 123 159 117 151 127 168 116 167 131 174 103 131 98 122 123 159 125 164 123 159 114 150 125 164 119 160 123 159 118 154 122 161 130 173 122 158 103 131 123 159 100 127 103 153 101 128 101 128 118 154 130 173 124 162 98 122 95 119 125 231 114 147 116 149 127 232 148 198 144 193 148 233 127 168 132 175 124 162 95 119 97 121 122 161 119 155 130 173 131 172 115 148 129 177 105 135 101 230 130 171 128 169 130 171 129 170 117 151 97 121 128 169 115 152 117 151 128 169 155 208 132 175 133 179 133 176 131 172 129 177 136 181 133 176 134 178 130 182 121 213 134 183 134 183 121 213 136 214 142 191 137 234 139 205 149 235 145 194 147 236 142 191 147 236 137 234 147 197 140 188 137 185 141 189 140 188 147 197 126 237 113 145 150 201 106 136 108 138 113 190 142 191 113 190 126 165 142 191 126 165 149 199 142 191 149 235 147 236 120 156 126 237 156 210 109 139 106 136 142 191 143 192 146 195 144 193 141 189 148 233 132 175 149 235 143 192 145 194 148 198 147 197 144 193 147 197 145 194 144 193 144 193 125 196 127 238 143 200 125 164 146 239 153 206 159 216 152 204 154 207 152 204 151 203 109 139 142 191 154 207 142 191 139 205 154 207 154 207 153 206 152 204 156 210 126 237 150 201 139 187 138 186 153 209 138 186 140 188 132 175 156 211 150 202 152 204 135 180 136 181 157 212 158 215 135 180 157 212</p>
        </triangles>
      </mesh>
    </geometry>
  </library_geometries>
  <library_visual_scenes>
    <visual_scene id="scene">
      <node id="RL_calf_dae">
        <instance_geometry url="#geometry">
          <bind_material>
            <technique_common>
              <instance_material symbol="qmat_6286805a07da3ff8" target="#qmat_6286805a07da3ff8" />
              <instance_material symbol="qmat_c9293097d13fc8af" target="#qmat_c9293097d13fc8af" />
            </technique_common>
          </bind_material>
        </instance_geometry>
      </node>
    </visual_scene>
  </library_visual_scenes>
  <scene>
    <instance_visual_scene url="#scene" />
  </scene>
</COLLADA>