<?xml version='1.0' encoding='utf-8'?>
<COLLADA xmlns="http://www.collada.org/2005/11/COLLADASchema" version="1.4.1">
  <asset>
    <created>2026-09-14T00:00:00Z</created>
    <modified>2026-09-14T00:00:00Z</modified>
    <unit name="metre" meter="1" />
    <up_axis>Z_UP</up_axis>
  </asset>
  <library_effects>
    <effect id="qmat_d857164d36b11abb_effect">
      <profile_COMMON>
        <technique sid="common">
          <lambert>
            <emission>
              <color sid="emission">0 0 0 1</color>
            </emission>
            <diffuse>
              <color sid="diffuse">0.85 0.85 0.85 1</color>
            </diffuse>
            <reflectivity>
              <float sid="specular">0.5</float>
            </reflectivity>
          </lambert>
        </technique>
      </profile_COMMON>
    </effect>
  </library_effects>
  <library_materials>
    <material id="qmat_d857164d36b11abb" name="qmat_d857164d36b11abb">
      <instance_effect url="#qmat_d857164d36b11abb_effect" />
    </material>
  </library_materials>
  <library_geometries>
    <geometry id="geometry" name="RL_hip_dae">
      <mesh>
        <source id="positions">
          <float_array id="positions_array" count="600">0.0540403053 0.0208668374 0.00792136602 0.0455737859 0.0209294092 0.0292695481 0.0475827754 0.0140271662 0.0262243934 0.0263898671 0.0183272827 0.0563324019 0.0533338115 0.0238854885 0.0478147008 0.040979106 0.021126641 0.0497771539 0.0387646854 0.0140125416 0.0379605442 0.0346185789 0.0210089833 0.0413799025 -0.0450566597 0.0213921964 -0.0283600409 0.0137451114 0.00526675442 0.0631209612 0.0420594439 0.00587547338 0.0554478355 0.041724164 0.0145057598 0.0501195379 0.023933094 0.0144318501 0.0553981215 0.0245239716 0.0142906783 0.0484256372 0.0204586107 0.0201160237 0.0500307158 0.0117894206 0.0146287568 0.0627345368 0.0104865646 0.0138851553 0.0528276451 0.00726227229 0.0213372372 0.053116709 0.0657565817 0.0522966757 0.0108102579 0.0899999663 0.050767377 0.0175854564 0.0695003122 0.0532317273 -0.00507627148 0.0899862498 0.027424138 0.0460230969 0.0685300753 0.0136389229 0.0514556617 0.0899910927 0.0135108894 0.0521176867 0.0899754465 0.0387537256 0.0371269286 0.0899999663 0.0512558706 -0.0150589831 0.0683999732 0.0257224608 0.0464074723 0.0654795691 0.0268168915 0.0442041419 0.0657820106 0.038347654 0.0362593196 0.0655098334 0.0511979237 -0.0171289127 0.0658771768 0.046195209 0.0262643564 0.0679281801 -0.000394782721 0.0528168306 0.0899972767 -0.00352643523 0.0535219312 0.0899999663 -0.0521356538 0.0118455011 0.0653761923 0.0152538763 -0.0478984825 0.0649452507 0.0142708635 0.0480590425 0.0630901307 0.0140417404 -0.0459326282 0.0526266508 0.0140737128 0.0148960957 0.0535959937 0.0140608596 -0.0111738173 0.024309231 -0.0141726192 0.0478021204 0.0232678112 -0.0344030932 0.0479296483 0.0356341787 -0.0343659669 0.0401641279 0.0119318357 -0.0146867763 0.0624397658 0.0425826274 -0.0108755352 0.0543040894 0.038489569 -0.0141472807 0.0371454172 0.0272529125 -0.018669121 0.0563309938 0.0331945606 -0.0148302242 0.0521816276 0.0108987689 -0.0139375171 0.0520283766 0.00860495586 -0.0342890136 0.0527154468 0.0393443853 -0.0212052912 0.0514255315 0.0472542681 -0.0140452404 0.0264894348 0.049838841 -0.0344237834 0.0201413836 0.0643206015 -0.0140952617 0.0458855741 0.0553949066 -0.0245183147 0.046710737 0.0396895595 -0.0345955379 -0.036484573 0.0538469702 -0.0345086344 -0.000205594319 0.0520321913 -0.0140644293 0.0142254625 0.068455413 -0.0163827725 0.0505911894 0.0899999663 -0.0263241194 0.0465477183 0.0655092299 -0.0201459192 0.0474768206 0.0649101064 -0.0142050134 -0.0481364504 0.0687360689 -0.0288532432 0.0445285328 0.0576034226 -0.0386517532 0.0362021476 0.0690293983 -0.0410233773 0.0341849551 0.0580634773 -0.0368490964 0.0355746932 0.0654383823 -0.047889486 0.0185740832 0.0651933551 -0.0364813209 0.0357261188 0.0899976939 -0.047173012 -0.0255053062 0.0575874299 -0.0620842725 0.0106038032 0.0576139465 -0.0625748858 -0.0105586359 0.0683958307 -0.0623624399 -0.0102731241 0.0577158257 -0.0514391437 0.00985852815 0.0683782101 -0.0618042089 0.0107243415 0.0580788404 -0.048674047 0.0193752907 0.0578157753 -0.0447845161 0.0248895343 0.0652765706 -0.0502172485 -0.0108315926 0.0899550542 -0.0424231514 0.0328108519 0.0691080838 -0.0485069938 0.0219664369 0.0688644275 -0.0528970659 0.00901923981 0.047161974 0.0140550835 -0.027259035 0.0384870805 0.0140951816 -0.0380517058 0.051163312 0.0211579781 -0.0170853976 0.035348963 0.0207893755 -0.0408813283 0.0425813943 0.0108756591 -0.0543043762 0.0420050323 -0.00583826844 -0.0554593354 0.0134178447 -0.00565351266 -0.0631209612 0.0448760949 0.021135306 -0.0298766773 0.0226647444 0.0212313514 -0.0486561768 0.0399886705 0.0213637687 -0.0511092544 0.0272525977 0.0186690204 -0.0563311242 0.032054659 0.0148050375 -0.0525926724 0.0118133193 0.0146799022 -0.0628213137 0.0106114652 0.0139957033 -0.0525449514 0.0899983346 0.0433334447 -0.0313597955 0.0899647921 0.0318822972 -0.0432272665 0.0690607652 0.0413588248 -0.033901833 0.0654672384 0.0259784292 -0.0442669839 0.068793349 0.0279665329 -0.0454704463 0.0536814518 0.0241961088 -0.0471648723 0.0899918377 0.0185510255 -0.0503737889 0.0690624341 0.0169453137 -0.0506387278 0.0656180531 0.0349978916 -0.0396005735 0.0692490861 0.0485289544 -0.0219988171 0.089903228 0.00318776653 -0.0535818189 0.0685278401 -0.012329651 -0.0519555733 0.0680505261 0.000782180286 -0.0527236387 0.0899889469 -0.0227144621 -0.0492902175 0.0227097552 -0.014228181 -0.0486329906 0.0231070612 -0.0344421938 -0.0482907593 0.00794367492 -0.0342909358 -0.0528507382 0.0516009815 -0.0343912095 -0.0152254086 0.0324620903 -0.0141304359 -0.0424371175 0.0464950502 -0.0140401088 -0.027077999 0.0395852327 -0.0142402323 -0.0357394405 0.0417323746 -0.01447469 -0.050105866 0.0441017188 -0.0217678435 -0.0498658977 0.0263901427 -0.0183273349 -0.0563322976 0.0239215754 -0.014385622 -0.0553715676 0.0120715825 -0.0146129066 -0.0627883971 0.0684691295 -0.026016539 -0.0462813377 0.0562307984 -0.0253095105 -0.0458295941 0.0578493625 -0.033113312 -0.0386392176 0.0653140545 -0.0276190806 -0.0430426709 0.0530945174 -0.0141126113 -0.00895909313 0.0899868533 -0.0380782932 -0.0377615541 0.0899897888 -0.0525234342 -0.0109626967 0.0685777143 -0.052647125 -0.00943034049 0.0688471049 -0.0476827659 -0.0238570012 0.0579768606 -0.0386363529 -0.0357921459 0.0652514622 -0.0408160463 -0.0308573097 0.0579865351 -0.0484550111 -0.0189970378 0.0578362495 -0.0446851887 -0.0269517452 0.068997629 -0.0391631946 -0.0360624976 0.0578065328 -0.0512553714 -0.00964671932 0.0104786269 -0.00573440734 0.0595474429 -0.0104084276 -0.00810453296 0.0520855747 0.0102937045 -0.00792979728 0.0528805815 -0.00712298881 -0.0344925523 0.0528329648 -0.0171388146 0.00326800323 0.0583549738 -0.0111923423 0.00529058604 0.0527634695 -0.0247999933 0.00540696178 0.0478161611 -0.0360881053 0.0210487004 0.0395389237 -0.0103939995 0.0212428514 0.0524720699 -0.0240519084 0.0200529434 0.0481500365 0.00880924426 0.00546244858 0.0537530743 0.00975811854 0.00321102096 0.0602955036 -0.0242659803 -0.00788146909 0.0471471585 -0.0214483403 -0.0344960019 0.048642423 -0.0337109193 -0.00566167012 0.0503374115 -0.0335907415 0.00327792089 0.0505323559 -0.0140578337 -0.00579591002 0.0592497438 -0.0373237096 0.00531795574 0.0386991575 -0.0455143824 0.0211751815 0.0277866572 -0.046357356 0.00532625848 0.0268110353 -0.0527241416 0.0212308802 0.00763744069 -0.0465548262 0.00324594695 0.0386958234 -0.0512124449 0.00528399926 0.0154926917 -0.0549574308 0.00327410782 0.0253379978 -0.0596648529 0.00325371954 0.00999727659 -0.0596091151 -0.00564325089 -0.0101811355 -0.0598507188 -0.00568698067 0.00863527413 -0.0529548116 -0.00572775025 0.0299965199 -0.0352188908 -0.00767522864 0.0398627743 -0.045529969 -0.00762692979 0.0275712702 -0.0430828184 -0.0343305133 0.0312602147 -0.0509286225 -0.00779381348 0.0146712568 -0.0507141314 -0.0344390236 0.0146373818 -0.0529656485 -0.00795001443 -0.00342650153 -0.0527540073 -0.0343796425 -0.000980626792 0.0111111496 -0.0135768689 -0.0520063899 0.0103674997 -0.00768876169 -0.0528740659 -0.0149150612 -0.00589913968 -0.0590185151 0.0103010358 -0.00569032645 -0.05962497 -0.0128104389 0.00324443961 -0.0598064847 -0.0267647542 0.00537326559 -0.0465159006 -0.0131429853 0.00526856631 -0.0523376204 -0.0232822616 0.0208378304 -0.0481702201 -0.00978920422 0.0210432783 -0.0529403053 0.00981869269 0.00526209455 -0.0537958108 -0.0256377365 -0.00796471164 -0.0465110838 -0.00975240767 -0.00798689388 -0.0523565374 -0.0217136722 -0.0343036726 -0.0485678576 -0.00710961176 -0.0343204215 -0.0528028123 0.00782751106 0.0210531913 -0.053138122 0.0259039961 0.01415696 -0.0476040319 0.0104351928 0.0032929983 -0.0595949478 -0.0363802612 0.0197641142 -0.0394597165 -0.042803295 0.00547162537 -0.0322525017 -0.0513666607 0.0213038325 -0.0141560165 -0.0505386963 0.00552038755 -0.0170655549 -0.0499761701 0.00326401182 -0.0347328596 -0.0333218463 0.00323867123 -0.0506970361 -0.0534679741 0.00546555594 0.000594569719 -0.0596754402 0.00326086301 -0.00955962297 -0.0408539474 -0.00550676463 -0.0451695584 -0.0535105392 -0.00562434876 -0.0279628579 -0.0366242081 -0.00783131551 -0.0388420299 -0.0401415154 -0.0344956554 -0.0341355056 -0.0449911766 -0.00786684081 -0.0280910786 -0.0502111949 -0.0343314521 -0.0162374098</float_array>
          <technique_common>
            <accessor source="#positions_array" count="200" stride="3">
              <param name="X" type="float" />
              <param name="Y" type="float" />
              <param name="Z" type="float" />
            </accessor>
          </technique_common>
        </source>
        <source id="normals">
          <float_array id="normals_array" count="1092">0.993320525 -0.0375465155 0.109108165 0.841897845 0.0424702354 0.537963092 0.887086928 0.0724747553 0.455877453 -0.232538655 0.966945291 -0.104607053 0.712216496 0.0411245897 0.700754225 0.459617436 0.683760822 0.566765308 0.00573127624 0.999983072 -0.000982931699 -0.61986959 0.689051211 -0.37545982 0.00369674619 0.999983549 0.00438291533 0.2694695 0.224237576 0.93653816 0.0512002893 0.0290207993 0.998266637 0.186467439 0.109640464 0.976324141 -0.345108181 0.353229642 -0.869556844 -0.227004394 0.0831698924 -0.970335901 -0.2259202 0.856906354 -0.463326603 -0.0215394255 0.999524534 -0.0220625177 0.319101602 0.510017753 0.798784077 0.466071248 0.0433103591 0.883686483 -0.00686732586 0.99957031 -0.0284952279 -0.0305898748 0.998984575 -0.0330772847 -0.00871202536 0.999224007 -0.0384120978 -0.116996221 0.968536973 -0.219654441 -0.0295340344 0.997894824 -0.0577378385 0.0709381551 0.698318064 0.712263763 -0.0102303633 0.999904096 -0.00933353975 -0.663251698 0.734758794 0.142220587 0.0338502936 0.953828037 0.298439741 -0.118927985 0.99088335 -0.063295573 -0.0287141073 0.516022921 0.856093347 0.0195567589 0.259692073 0.965493441 -0.0251335111 0.246330485 0.968859971 0.999997795 -0.00209078752 -3.13035998e-05 0.999998987 0.00120620977 0.000759032962 1 -9.24534907e-05 4.02138903e-05 0.999999583 0.000740578456 0.000513167528 -0.0622831769 0.54294467 0.83745563 -0.680013835 0.548837245 0.48616752 0.0854024813 0.37956962 0.921212971 -0.677950025 0.525378287 0.514160872 -0.581664979 0.77555728 -0.245309398 -0.998735785 0.0436206758 0.0249818712 -0.0213274155 0.865540802 0.500384152 -0.0146647627 0.734150112 0.678828776 0.0393663011 -0.0194352511 0.999035835 0.99999994 0.000221680064 0.000110580579 0.999999881 0.000309454423 -0.000295473845 0.999999702 -0.000680253317 0.000396682706 -0.721621037 0.670493305 0.172342315 -0.595773399 0.803076327 -0.0110666743 -0.211186618 -0.278855324 -0.936824381 -0.168064281 -0.215704516 -0.961886644 -0.146619841 -0.201681584 -0.968414783 -0.201774165 0.963816822 0.174196079 -0.013113684 0.999913454 -0.001073236 -0.00566023914 0.999982178 -0.00189219695 -0.00595369842 -0.0896941423 0.995951533 -0.238709018 -0.093477957 -0.966581523 0.939625442 0.129631653 0.316701174 0.97676146 0.13505055 -0.166428402 0.447778046 0.00377762853 0.894136786 0.420843542 -0.0159466118 0.906993091 0.675124884 -0.0216073301 0.737387002 -0.453342855 -0.154860869 0.877780378 0.189799964 -0.206127897 0.959941268 0.702644765 0.00699871453 0.711506367 0.282485634 -0.320494533 0.904148817 -0.222354665 -0.767711043 -0.600980937 -0.0394464619 -0.996894717 -0.0681537464 -0.0272948258 -0.997316837 -0.0679274425 0.15987283 -0.00761819258 0.987108231 0.248647407 -0.331556469 0.910079539 0.858228922 -0.0275144596 0.512529075 0.921007395 -0.0503474846 0.386277795 -0.111314371 -0.809089661 -0.577046812 0.00271825073 -0.999994159 -0.0020817793 -0.171523482 0.446449071 -0.87821579 -0.333685517 -0.212981835 -0.918309689 -0.000271849247 -0.999995232 0.00308186468 0.000868736999 -0.999997795 -0.0019156147 0.000609047594 -0.999997497 0.00215797382 0.975612342 0.00484338962 0.219447345 0.0210609399 -0.308776379 0.950901449 0.0120880697 -0.489924461 0.871681094 -0.994433761 -0.105186313 -0.00610591006 -0.980932415 -0.194258794 -0.00592355523 -0.999298215 -0.0372493938 0.00394721422 -0.0180180743 -0.55428946 0.832128942 -0.0550426729 -0.728530109 0.682798743 -0.0288790073 -0.765051842 0.643320799 -0.169238731 0.210940108 -0.962737024 -0.61086601 0.524702251 -0.592899799 0.0232254341 -0.478782564 0.87762624 -0.723133624 0.639126241 -0.261907339 -0.99704653 0.0566125251 -0.0518964007 0.999796867 -0.00673713069 0.0189969093 0.999999881 -0.000304735848 -0.000300066953 -0.000257845037 -0.999997199 -0.00235217181 -0.00622662622 -0.999979556 0.0014429118 0.999999821 -0.000488078804 0.000363179366 0.0236630123 -0.999393046 0.0255667567 0.0190808121 -0.999548852 0.0231962167 0.0210399851 -0.999485493 0.0242098123 0.0364967026 0.120411642 0.992052913 -0.0129588163 0.0699897036 0.997463524 0.0443417095 0.128371507 0.990734339 -0.1421168 0.889376044 -0.434526294 -0.279439449 0.954163313 -0.107172385 -0.113398924 0.817573607 -0.564547658 -0.714392483 0.686972558 0.133086875 -0.985299051 -0.157255486 0.0667572021 -0.96364063 0.166500852 -0.208983779 -0.999904215 0.01362452 -0.00244149216 -0.99987191 0.0156132299 -0.00352672464 -0.999927402 0.0119542181 -0.00153003389 0.0139820827 -0.790132701 0.612776279 -0.0426405817 -0.905097485 0.423060685 0.0243699718 -0.976422966 0.214486003 -0.0755544901 -0.921479344 0.381008267 -0.0357653871 0.703484774 -0.709809899 -0.0206022449 -0.979728878 0.199265957 0.00124529679 0.999999166 0.000347710098 0.0028740128 0.999993443 0.00219112705 0.943941176 0.0944096446 -0.316325635 0.860417664 0.0718821883 -0.50449419 0.649797738 0.0137185613 -0.759983361 0.727061808 0.0514366254 -0.684642494 0.187010959 0.205583572 -0.960605145 0.183235362 -0.118173487 -0.975940466 -0.226663798 -0.028576199 -0.973553777 0.00887893327 0.99992156 -0.00883697905 0.00724830339 0.999918759 -0.0104846992 -0.322359592 0.17974776 0.92939496 -0.428929508 0.293507725 0.854325831 -0.229489043 0.775796592 0.5877707 -0.112626329 0.97097683 0.210995942 -0.0374882743 0.997127175 0.0658185035 0.0389520749 0.970462143 -0.238088235 0.013694169 0.818122625 -0.57488066 -0.00948769134 0.595766008 -0.803102016 -0.202286333 0.764594972 -0.611943424 -0.258451909 0.481400877 0.8375296 -0.258372128 0.77850467 0.571991563 -0.246261388 0.0330239683 0.968640685 0.999923944 0.00734052481 -0.00990946963 0.999999881 0.000106049825 -0.000480375718 0.999996424 0.000282771041 -0.00266027148 -0.0148772942 0.348543167 -0.937174618 0.021191081 0.300182313 -0.953646421 -0.67486763 0.486518979 -0.554845035 -0.123879835 0.501444578 -0.856275141 -0.955273151 0.143019587 -0.258840919 0.00166930933 0.899603844 -0.436703682 -0.00520114461 0.0344850793 -0.999391675 0.0226412676 -0.230621457 -0.972780108 0.0359457619 0.0329001434 -0.99881202 0.999998629 -0.000125590828 -0.00164697343 0.0221189205 0.457907557 -0.888724625 0.409724861 -0.00517340517 -0.91219449 0.434888184 -0.0170821305 -0.900322437 0.141371697 -0.00522517459 -0.989942789 0.0423893258 -0.999000967 -0.0141494833 0.605198026 0.000111120622 -0.796074927 0.737842083 -0.0256351512 -0.674486339 -0.00204793341 -0.999979675 0.00603981595 -0.00117844844 -0.999881148 0.0153731257 0.00234617339 -0.999950111 0.00970983505 -0.0181629229 -0.999619544 0.0207576528 -0.162375852 -0.7469908 0.644700587 -0.202312246 0.0453794822 0.9782691 -0.177107453 0.278983891 0.943822503 0.146681756 -0.345934272 -0.926722169 0.280993849 -0.2342664 -0.93067807 -0.340646774 -0.375302285 0.862037122 0.87129426 -0.00179786154 -0.490757674 0.9489609 -0.0221699663 -0.31461364 -0.232014552 -0.857254028 0.459657311 -0.0280531961 -0.999438822 0.0183061548 0.389235497 -0.0925064608 -0.916481495 -0.030049745 -0.52068615 -0.853219151 -0.0679230019 -0.771634638 -0.632429063 -0.439770818 0.447690129 0.7785725 -0.126295209 0.5341084 0.835929275 -0.186898589 0.432463706 0.882068038 0.987199068 0.0299600102 -0.156653896 0.999995887 -0.00180509582 -0.00222392101 -0.00807670318 -0.409476459 -0.912284911 -0.0164981689 -0.705678046 -0.708340585 -0.00171994918 -0.985270202 -0.170995981 -0.0303627159 -0.977765977 -0.207489386 -0.0511832945 -0.891724765 -0.449674606 -0.00935826264 -0.879056633 -0.476625532 -0.160997406 0.687825978 0.707796037 -0.215306029 0.794785023 0.567415297 -0.999983788 0.0053763953 0.00187181518 -0.10606195 -0.929791033 -0.35247618 -0.0844621509 -0.853225172 -0.514658093 -0.210178882 0.898744524 0.384815753 -0.0390962511 -0.727023602 -0.685498476 0.0303203482 0.0797518641 -0.996353507 0.0275876969 0.0827509016 -0.996188343 0.0276823193 0.0826470777 -0.996194363 -0.115986049 0.984526813 0.131355256 -0.999839067 0.0173710193 -0.00448596571 -0.386633486 0.173016205 0.905858696 -0.725306809 -0.327732146 0.605410397 -0.989344299 -0.122622341 0.0784962475 -0.0516099855 -0.956445873 0.287311256 -0.00399853569 -0.949786127 0.312874377 0.00633965246 -0.999963939 0.00564532541 0.00487773214 -0.999981225 0.00370937423 0.0602730475 0.00599151291 0.998163939 -0.137315512 -0.00040809199 0.990527272 -0.237331882 0.560790718 0.793213308 -0.0439616553 0.95350498 0.298153609 -0.136700869 0.954252899 0.265921533 -0.503766775 0.676499724 0.537184536 -0.137554616 0.684175551 0.716227949 -0.390497118 0.491736889 0.778271675 -0.465453982 0.0136067579 0.884967446 -0.974065721 0.165271297 0.154536083 -0.484526813 0.189601466 0.853981912 0.00306428852 0.0346775278 0.99939388 -0.201878279 0.0279866699 0.979010701 -0.457390845 0.0015376925 0.889264464 -0.446579248 -0.0235645026 0.894433737 -0.191762581 0.0160796847 0.981309593 -0.460684717 -0.578501225 0.673131406 -0.131363869 -0.952717066 0.273995847 -0.550315678 -0.0163540393 0.834796488 -0.17882821 -0.560489476 0.808623552 -0.704570055 0.0194902774 0.709366679 -0.862436652 0.0280418433 0.505387664 -0.864015758 0.0211730078 0.503019333 0.00706974557 0.999967337 0.00392270135 -0.00325159519 0.999987543 0.00378866261 -0.167577267 0.955977559 0.240883321 -0.204976007 0.955873907 0.210451663 -0.634054601 0.541358352 0.552182913 -0.957054973 0.0284663029 0.288505584 -0.7534554 0.575089335 0.318711817 -0.271457314 0.959008873 0.081319496 -0.285434574 0.95711416 0.0495938361 -0.987310946 -0.00741283549 0.158625811 -0.984890103 0.00868238602 -0.172962606 -0.811380744 -0.574160576 0.109548435 -0.708943784 -0.574656725 0.408862323 -0.20397447 -0.956770122 0.207329109 -0.203906015 -0.969630599 0.135051116 -0.79840368 -0.0286827944 0.601438999 -0.965821981 -0.0154129937 0.258747578 -0.961942732 -0.0042922413 0.273217469 -0.659916282 -0.0173045918 0.75113982 -0.266811877 -0.960529387 0.0787067413 -0.287628412 -0.95745939 -0.0232669394 -0.000602314423 -0.999997854 0.00199659681 -0.00367885944 -0.999987125 -0.00349806319 -0.996445537 0.0119915754 -0.0833815783 -0.999923229 -0.00881345384 -0.00871243421 -0.0451002419 -0.996675968 0.0678453594 -0.134999737 -0.960049629 0.245111674 0.00201838533 -0.957843006 -0.28728497 -0.207316399 -0.583345115 -0.78532052 0.00156721636 -0.597739518 -0.80168885 -0.449946761 0.121617489 -0.884735584 -0.891678989 -0.0609827638 -0.448541701 -0.962063015 -0.0881794617 -0.258184403 -0.18590875 -0.0307686627 -0.982085168 -0.14490141 0.956147611 -0.254529685 -0.0680110902 0.962180197 -0.263787359 -0.0544188023 0.960746527 -0.272038043 -0.332816333 0.649087608 -0.684045792 -0.183015525 0.00433493964 -0.983100474 -0.510944486 -0.00500851637 -0.859599113 0.029359987 0.0215366334 -0.999336839 -0.253143907 0.0168639384 -0.96728164 -0.00239467528 0.950696707 -0.310112923 -0.475134701 -0.0020760328 -0.879910588 -0.185747609 0.0126713011 -0.982515812 -0.443551779 -0.0212400239 -0.895997047 -0.00268197432 -0.999954402 -0.00916717574 0.00108684564 -0.999784827 -0.0207164362 0.147205129 0.0397624671 -0.988306403 0.459142566 0.0474552847 -0.8870942 0.37409696 0.0698455721 -0.924755692 -0.0019808982 -0.999898851 -0.0140857017 -0.00417656265 0.999736011 -0.0225922316 -0.00458933925 0.999773622 -0.0207763556 -0.988307238 0.0948934779 -0.119348414 -0.961625397 0.0444020629 -0.270749062 -0.983806849 0.109612651 -0.141806722 0.000946970307 0.946932793 -0.321430236 -0.596627057 0.454089314 -0.66169405 -0.800854564 -0.0197616164 -0.598532736 -0.00752322515 0.999967575 0.00287865894 -0.312159091 0.943497837 -0.111213781 -0.225700825 0.956517041 -0.184754774 -0.694482088 0.545568883 -0.469094038 -0.446673959 0.541247487 -0.712413847 -0.988958538 0.049427405 0.139706597 -0.968652427 0.0250231344 -0.247156352 -0.999838114 0.0148322079 -0.0101855397 -0.948695481 -0.00661532255 -0.316121906 -0.306965351 0.951717079 0.00261957408 -0.813618839 0.565628707 -0.134493873 -0.562980056 -0.540106773 -0.625570297 -0.747621477 -0.563961565 -0.350727111 -0.269483447 -0.960934281 -0.0631185323 -0.163851589 -0.944522917 -0.284656167 -0.683917165 -0.0234645121 -0.729182184 -0.760119617 -0.0457403138 -0.648171306 -0.253562421 -0.954231501 -0.15858233 -0.214008212 -0.954093456 -0.209537834 -0.00295462506 -0.999995649 -7.62147756e-05 -0.00116157939 -0.999994695 0.00304467767 -0.876238406 0.00494224997 -0.481852561 -0.945444763 -0.0108302524 -0.325602412 0.00169692526 0.999978781 0.00629154732 0.00404761126 -0.999986649 0.00320933596 -0.00396484975 -0.999991 0.00150856923 -0.112205729 -0.969246626 -0.219022527 -0.416573226 -0.287457854 -0.862458527 0.520649433 -0.0298768841 0.853247643 0.9999547 -0.00763814012 0.00567948911 0.0256392621 -0.999317586 0.0265890341 0.0974591076 0.181986958 0.978459239 0.999821723 -0.0188334472 0.00133974815 0.999586344 -0.0285921972 -0.00309595792 0.998923779 -0.0451483652 -0.0106239393 0.998206139 -0.0576112606 -0.0162929073 -0.0785865858 -0.94946605 0.303872347 -0.981810927 -0.174024239 0.0759133995 0.243791223 0.337275386 -0.909291565 0.812045038 0.0471144542 -0.581689835 -0.0231022742 0.996668398 0.0782201737 0.113574527 0.985080957 -0.12929149 0.375492156 0.034182664 -0.926195025 0.290391088 0.338396847 -0.895075738 0.999706149 -0.00070645113 -0.0242306255 -0.12810865 -0.317108214 0.939697087 0.73570478 0.0285420623 -0.676700711 -0.00524582854 -0.999985874 0.000882760622 -0.0547422804 -0.722074389 -0.689646184 -0.89416492 0.188670844 0.406044811 -0.9998492 -0.0169959646 0.00355901313 0.999996603 -0.00256769173 -0.000402500125 -0.205794647 0.862007439 0.463240445 0.0246813577 0.0859384984 -0.995994687 -0.117081665 -0.950749338 -0.286997527 -0.992030025 -0.108902164 0.0633778721 -0.0030421461 -0.999994874 -0.00101559493 -0.972091436 0.205932811 0.112382844 -0.0219680648 0.944872558 0.326700479 0.238424256 0.0487139337 0.969938576 -0.245100558 0.958574891 0.145120233 -0.00200705021 -0.999996901 0.00145987573 -0.861718595 -0.00888735428 0.507308662 0.459134579 -0.034023568 -0.887714982 -0.010506873 -0.999943256 0.00176967063 -0.985937536 -0.155688271 -0.0607313067 -0.987895489 -0.135812819 -0.0749489069 -0.028484229 -0.959939539 -0.278755665 -0.138261124 -0.00256162719 -0.990392506 0.0700505301 0.000187324375 -0.997543454 0.00909241103 0.00320603326 -0.999953508</float_array>
          <technique_common>
            <accessor source="#normals_array" count="364" stride="3">
              <param name="X" type="float" />
              <param name="Y" type="float" />
              <param name="Z" type="float" />
            </accessor>
          </technique_common>
        </source>
        <vertices id="vertices">
          <input semantic="POSITION" source="#positions" />
        </vertices>
        <triangles material="qmat_d857164d36b11abb" count="396">
          <input semantic="VERTEX" source="#vertices" offset="0" />
          <input semantic="NORMAL" source="#normals" offset="1" />
          <p>0 0 1 1 2 2 3 3 4 3 5 3 1 1 6 4 2 2 7 5 1 6 8 7 1 6 0 8 8 7 3 9 9 10 10 11 3 12 11 13 12 14 12 14 11 13 13 15 7 5 14 16 13 17 13 17 6 4 7 5 11 18 6 19 13 20 3 12 12 14 15 21 15 21 12 14 16 22 7 5 8 7 17 23 11 18 2 24 6 19 18 25 19 26 20 27 21 28 22 29 23 30 19 31 24 32 25 33 24 32 21 34 25 33 26 35 27 36 4 37 28 38 27 36 26 35 18 25 29 39 27 36 30 40 18 25 27 36 30 40 27 36 28 38 18 25 20 27 29 39 30 41 19 26 18 25 24 42 28 38 26 35 23 30 22 29 31 43 23 44 32 45 33 46 25 33 23 44 33 46 27 36 34 47 35 48 27 49 35 50 4 51 34 47 36 52 35 48 37 53 35 48 38 54 10 11 31 43 22 29 23 30 31 43 32 55 4 51 35 50 5 56 0 0 37 57 38 58 39 59 40 60 41 61 9 10 42 62 43 63 44 64 39 59 41 61 43 63 42 62 45 65 46 66 47 67 39 68 39 59 48 69 40 60 43 63 45 65 49 70 50 71 41 61 51 72 52 73 39 68 44 74 44 64 41 61 50 71 46 66 53 75 49 76 10 11 43 63 31 43 51 77 54 78 55 79 50 71 51 72 56 80 32 55 57 81 58 82 59 83 52 84 60 85 61 86 62 87 63 88 53 75 59 89 64 90 53 91 62 87 61 86 59 83 65 92 66 93 56 80 51 72 55 94 25 33 33 46 67 95 52 73 50 96 56 97 32 45 58 98 33 46 46 66 59 89 53 75 68 99 69 100 70 101 71 102 68 103 72 104 73 105 65 92 71 106 74 107 65 92 73 105 59 83 75 108 65 92 64 90 74 109 62 110 71 111 69 112 68 113 76 114 77 115 33 116 62 87 73 117 77 115 64 90 66 118 74 107 63 88 62 87 77 115 77 115 78 119 33 116 79 120 36 52 80 121 81 122 38 58 79 123 82 124 79 123 80 125 83 126 84 127 85 128 8 7 86 129 87 130 88 131 89 132 90 133 89 132 91 134 90 133 92 135 90 133 91 134 19 26 25 136 20 27 93 137 94 138 95 139 96 140 97 141 98 142 94 143 93 144 99 145 94 138 99 146 100 147 101 148 97 149 96 150 29 39 101 148 96 150 29 39 95 139 101 148 20 27 25 136 102 151 93 137 95 139 102 151 95 139 94 138 97 149 100 147 99 146 103 152 97 149 94 138 100 147 103 152 104 153 105 154 100 147 103 152 105 154 99 145 25 33 106 155 93 144 25 33 99 145 97 149 100 147 83 126 38 54 36 52 79 120 83 126 100 147 105 154 98 156 97 149 83 126 107 157 108 158 109 159 55 79 54 78 110 160 108 158 111 161 54 162 112 163 113 164 60 165 113 164 111 166 114 167 114 167 115 168 60 169 84 127 115 170 116 171 114 167 116 172 115 168 112 173 110 174 54 162 111 166 117 175 114 167 111 166 107 176 117 175 85 128 116 171 118 177 115 170 119 178 120 179 121 180 122 181 120 182 123 183 55 94 110 174 84 127 119 178 115 170 104 153 119 178 84 127 106 155 67 95 124 184 104 153 106 185 119 178 106 185 124 186 119 178 125 187 126 188 127 189 125 187 127 189 67 190 122 181 128 191 129 192 122 181 121 180 128 191 59 83 129 193 75 108 130 194 131 195 127 189 75 108 129 192 130 196 132 197 127 189 131 195 133 198 126 199 69 200 71 106 75 108 133 201 71 111 133 202 69 112 15 203 134 204 42 62 134 204 47 205 42 62 134 204 135 206 136 207 48 208 137 209 54 78 136 210 137 211 48 69 138 212 139 213 140 214 141 215 142 216 8 7 142 216 143 217 140 218 15 203 144 219 145 220 17 23 142 216 144 221 142 216 140 218 139 222 146 223 147 224 135 225 148 226 146 227 135 206 138 212 149 228 150 229 142 216 139 222 144 221 143 217 151 230 140 218 152 231 153 232 141 215 152 233 8 7 154 234 149 235 151 236 155 237 149 228 155 237 148 226 141 215 153 232 151 230 152 231 156 238 153 232 157 239 156 240 158 241 158 242 159 243 160 244 157 239 160 244 161 245 146 227 148 226 162 246 161 245 163 247 162 246 164 248 165 249 166 250 162 251 164 248 147 224 165 252 160 244 167 253 166 254 168 255 54 78 167 256 168 257 166 250 169 258 118 259 117 175 170 260 171 261 172 262 91 263 85 128 172 264 172 264 85 128 118 265 173 266 172 262 171 261 174 267 175 268 173 269 176 270 177 271 174 272 177 271 178 273 175 274 175 268 178 275 173 269 179 276 180 277 181 278 54 78 182 279 109 280 183 281 184 282 92 283 54 78 181 284 182 279 8 7 183 285 177 286 92 287 185 288 178 289 178 275 185 290 173 269 185 288 91 263 172 264 8 7 177 286 176 270 8 7 176 270 186 291 186 291 174 272 187 292 154 234 8 7 188 293 189 294 187 295 190 296 190 296 187 295 191 297 154 298 188 299 192 300 8 7 187 292 189 301 8 7 189 301 188 299 188 299 189 301 192 300 158 241 192 302 193 303 193 303 159 243 158 242 190 296 194 304 195 305 193 303 195 305 159 243 167 253 159 306 195 305 179 307 194 304 171 261 196 308 181 278 197 309 198 310 195 305 196 311 196 311 194 304 179 307 199 312 197 313 54 78 198 314 197 309 199 315 167 256 198 314 199 315 179 276 181 278 196 308 167 256 199 315 168 257 8 7 0 8 81 316 5 56 35 50 11 13 4 37 3 9 10 11 3 12 5 56 11 13 1 1 7 5 6 4 3 9 15 203 9 10 17 23 14 16 7 5 0 0 2 2 37 57 2 24 35 48 37 53 11 18 35 48 2 24 30 41 24 42 19 26 28 38 24 42 30 41 24 42 26 35 21 28 21 28 26 35 22 29 25 33 21 34 23 44 38 54 35 48 36 52 26 35 4 37 10 11 26 35 10 11 22 29 32 55 31 43 57 81 41 317 40 318 54 78 42 319 46 66 45 320 39 59 47 321 48 69 45 320 46 66 49 76 40 318 48 208 54 78 52 73 46 66 39 68 51 77 41 317 54 78 52 73 44 74 50 96 10 11 9 10 43 63 53 91 43 63 49 70 58 82 61 86 63 88 58 82 57 81 61 86 64 90 59 89 66 118 53 75 64 90 62 110 123 183 56 80 55 94 57 81 31 43 43 63 57 81 53 91 61 86 59 89 46 66 52 73 57 81 43 63 53 91 58 82 63 88 76 114 33 46 58 98 76 322 63 88 77 115 76 114 72 323 68 99 70 101 71 106 65 92 75 108 78 324 71 102 72 104 70 325 126 326 72 327 126 326 78 328 72 327 77 115 73 117 71 329 77 115 71 329 78 119 62 110 74 109 73 330 74 107 66 118 65 92 33 116 78 119 126 188 125 187 33 116 126 188 88 331 98 156 83 126 8 7 81 316 86 129 86 332 81 122 79 123 82 124 86 332 79 123 184 333 80 121 36 52 98 142 88 131 90 133 83 126 105 154 84 127 87 130 86 129 82 334 82 124 80 125 184 282 184 333 36 52 90 133 87 335 82 124 184 282 89 336 88 331 83 126 91 263 83 126 85 128 91 263 89 336 83 126 92 135 184 333 90 133 183 281 87 335 184 282 102 151 25 136 93 137 101 148 95 139 97 149 29 39 102 151 95 139 29 39 20 27 102 151 103 337 99 145 106 155 27 36 29 39 34 47 29 39 96 150 34 47 81 122 0 0 38 58 34 47 90 133 36 52 96 140 90 133 34 338 96 140 98 142 90 133 112 173 123 183 110 174 107 176 169 258 117 175 117 175 118 259 116 172 60 165 113 164 114 167 111 161 113 339 54 162 85 128 84 127 116 171 113 339 112 173 54 162 107 157 111 161 108 158 114 167 117 175 116 172 104 153 103 152 106 185 52 73 56 97 123 340 120 179 119 178 128 341 128 341 119 178 132 197 121 180 120 182 128 342 60 169 115 168 120 182 60 165 123 340 112 163 106 155 25 33 67 95 59 83 122 343 129 193 60 169 120 182 122 181 59 83 60 85 122 343 132 197 119 178 124 186 60 165 52 73 123 340 105 154 104 153 84 127 67 190 127 189 132 197 132 197 124 186 67 190 67 95 33 46 125 344 130 196 129 192 131 345 131 345 129 192 128 191 132 197 131 195 128 341 69 200 126 199 70 346 133 201 75 108 130 196 126 188 130 194 127 189 126 188 133 347 130 194 46 66 42 319 47 67 9 10 15 203 42 62 134 204 145 220 150 229 134 204 136 348 47 205 134 204 150 229 135 206 47 321 136 210 48 69 137 209 147 349 54 78 136 210 135 225 137 211 143 217 142 216 141 215 15 203 16 350 144 219 15 203 145 220 134 204 138 212 144 351 139 213 145 220 138 212 150 229 138 212 145 220 144 351 8 7 142 216 17 23 16 352 17 23 144 221 14 16 17 23 16 352 135 206 150 229 148 226 150 229 149 228 148 226 16 22 12 14 13 15 16 352 13 17 14 16 137 211 135 225 147 224 152 233 141 215 8 7 149 235 140 214 151 236 155 237 151 236 153 353 152 231 154 298 156 238 157 239 155 237 153 353 154 298 192 300 156 238 157 239 153 353 156 240 157 239 158 242 160 244 158 241 156 240 192 302 167 253 160 244 159 306 155 237 157 239 161 245 148 226 155 237 161 245 143 217 141 215 151 230 149 235 138 212 140 214 147 349 164 354 54 78 147 224 146 223 162 251 162 246 148 226 161 245 54 78 164 354 166 254 164 248 162 251 163 355 164 248 163 355 165 249 163 247 161 245 165 252 165 252 161 245 160 244 166 250 165 249 167 256 109 159 169 356 107 157 108 357 54 78 109 280 170 358 172 264 118 265 170 358 118 265 169 359 170 260 180 360 171 261 182 361 180 277 170 362 170 362 169 356 109 159 182 361 170 362 109 159 174 272 177 271 175 274 180 277 182 361 181 278 8 7 87 130 183 285 178 273 183 281 92 283 177 271 183 281 178 273 92 287 91 263 185 288 173 266 185 363 172 262 186 291 176 270 174 272 187 295 174 267 191 297 191 297 174 267 173 269 191 297 173 266 171 261 8 7 186 291 187 292 180 360 179 307 171 261 193 303 189 294 190 296 193 303 192 302 189 294 193 303 190 296 195 305 194 304 191 297 171 261 196 311 195 305 194 304 190 296 191 297 194 304 198 314 196 308 197 309 54 78 168 255 199 312 198 310 167 253 195 305 54 78 197 313 181 284</p>
        </triangles>
      </mesh>
    </geometry>
  </library_geometries>
  <library_visual_scenes>
    <visual_scene id="scene">
      <node id="RL_hip_dae">
        <instance_geometry url="#geometry">
          <bind_material>
            <technique_common>
              <instance_material symbol="qmat_d857164d36b11abb" target="#qmat_d857164d36b11abb" />
            </technique_common>
          </bind_material>
        </instance_geometry>
      </node>
    </visual_scene>
  </library_visual_scenes>
  <scene>
    <instance_visual_scene url="#scene" />
  </scene>
</COLLADA>