<?xml version='1.0' encoding='utf-8'?>
<COLLADA xmlns="http://www.collada.org/2005/11/COLLADASchema" version="1.4.1">
  <asset>
    <created>2026-09-14T00:00:00Z</created>
    <modified>2026-09-14T00:00:00Z</modified>
    <unit name="metre" meter="1" />
    <up_axis>Z_UP</up_axis>
  </asset>
  <library_effects>
    <effect id="qmat_76551a3993c45b27_effect">
      <profile_COMMON>
        <technique sid="common">
          <lambert>
            <emission>
              <color sid="emission">0 0 0 1</color>
            </emission>
            <diffuse>
              <color sid="diffuse">0.6500053 0.68 0.6500053 1</color>
            </diffuse>
            <reflectivity>
              <float sid="specular">0.5</float>
            </reflectivity>
          </lambert>
        </technique>
      </profile_COMMON>
    </effect>
    <effect id="qmat_d857164d36b11abb_effect">
      <profile_COMMON>
        <technique sid="common">
          <lambert>
            <emission>
              <color sid="emission">0 0 0 1</color>
            </emission>
            <diffuse>
              <color sid="diffuse">0.85 0.85 0.85 1</color>
            </diffuse>
            <reflectivity>
              <float sid="specular">0.5</float>
            </reflectivity>
          </lambert>
        </technique>
      </profile_COMMON>
    </effect>
  </library_effects>
  <library_materials>
    <material id="qmat_76551a3993c45b27" name="qmat_76551a3993c45b27">
      <instance_effect url="#qmat_76551a3993c45b27_effect" />
    </material>
    <material id="qmat_d857164d36b11abb" name="qmat_d857164d36b11abb">
      <instance_effect url="#qmat_d857164d36b11abb_effect" />
    </material>
  </library_materials>
  <library_geometries>
    <geometry id="geometry" name="RL_thigh_dae">
      <mesh>
        <source id="positions">
          <float_array id="positions_array" count="534">0.0384746157 0.0219371989 0.0542209931 0.0672708303 0.02038805 -0.010630874 0.0510203689 0.0276759248 0.0163199101 0.045319736 0.0289815161 0.00793432351 0.0529011376 0.0198454857 0.0366890058 0.0377211124 0.0334030651 0.012707931 0.0173549969 0.0327025838 0.0336272195 0.0328348465 0.0050244811 0.0616303273 0.0644108579 0.00433109421 0.0258407854 0.0404550135 -0.0115328943 0.0473766923 0.0581807978 0.0165482294 0.0125594009 0.0451753475 0.0107797282 0.0413239822 0.0572543703 -0.0130171413 0.0241499636 0.0632423759 -0.0173847377 -0.0127653079 0.0501820557 -0.0152600389 0.0374194272 0.0611321293 -0.0497736037 -0.00789055694 0.00494599156 0.0198550094 0.0631721914 0.0170495771 0.0287315808 0.0459716171 -0.0235261582 0.0241970848 0.056578692 0.00217817444 0.0183738321 0.0542072356 -0.000669007597 0.024997564 0.000894679863 0.00400518673 0.034838289 0.0347161256 0.0431328714 0.0300974082 -0.0131283412 -0.016219439 0.00392017793 0.0669818595 0.0142963566 0.00018404625 0.0622398816 0.0145421131 -0.0173300896 0.0618441291 0.0317560248 -0.0503573343 0.0517047346 0.0622557029 0.0187346097 -0.0187537633 0.0632574186 -0.0110816145 -0.0108578335 0.0506214947 0.0180913471 -0.0217505768 0.05656882 0.00623372616 -0.0290363822 0.0274031293 0.0235906132 -0.0526297875 0.031191973 0.0326575488 -0.0248272996 0.0420875587 -0.00121145474 -0.0551935211 0.0310712215 0.0305033214 -0.0234015491 0.0254282057 0.0302087609 -0.0290866829 0.0239093117 0.0300282538 -0.0326609649 0.0216346942 0.0323953405 -0.0308212936 0.0278171711 0.0291543361 -0.0315809883 0.0181982014 0.0297674611 -0.0403792299 -0.00175908429 0.0370355099 0.010428098 -0.0117416801 0.0341069028 0.0335741453 0.0143714827 0.0361736119 -0.00630408945 -0.0226999279 0.0368308984 0.0137757789 0.00348302443 0.0357448049 -0.0120372791 0.00716841174 0.0340408757 -0.0291228835 -0.00400546286 0.0348726995 -0.0175790489 0.0113880448 0.0309016202 -0.0479409732 0.0152657265 0.0361420326 0.00619456731 -0.0290171951 0.0318176225 0.031293273 0.0533735342 -0.0495701358 0.0292744078 0.0623083338 -0.0758573636 -0.00433182111 0.0476905629 -0.0759749189 0.0369978137 -0.00764665008 -0.0504252538 0.0615216456 0.000925162982 -0.0759897083 0.0622695163 0.0349031053 -0.0760472417 0.0423339792 0.0221820865 -0.0989959985 0.049795229 0.0499374866 -0.0989159048 0.0243595392 0.00661892025 -0.0762809739 0.0540687516 -0.0274508763 -0.0989999771 0.0487774126 -0.0471105613 -0.0989769101 -0.0313295275 0.0482379571 -0.098961018 -0.0310453102 0.044535201 -0.0759469867 -0.0397876576 0.0201225411 -0.0756750479 -0.0567470603 -0.0521631837 0.0175719336 0.0430646241 -0.0402642302 0.00387777365 0.0581081361 0.0089629963 0.00501799164 0.0689939782 -0.0452822931 0.0152789094 0.037399251 -0.0342411883 0.0326629356 0.01374307 -0.0376967788 0.0318983123 0.000181534095 -0.06548924 0.0170179605 -0.00376178697 -0.0620201677 0.00343433442 0.0162544921 -0.0528964549 0.0183049701 0.00713753933 -0.0472823046 -0.0144043332 0.0412546769 -0.0381316617 -0.0508984551 0.0467488356 -0.02367476 -0.0180839375 0.0567768142 -0.0592978038 -0.0129836034 0.0280651767 -0.0535390638 -0.0496001579 0.0293954425 -0.0462089255 -0.0113479383 0.041516684 -0.0221057273 -0.00295132329 0.0601787716 -0.0591606796 0.0197040513 0.0334960409 -0.06864696 -0.00140720024 -0.0172203407 -0.0490985103 0.00300872815 0.048152402 -0.0209944658 0.0308921412 -0.0472574979 -0.0449921526 0.028961271 -0.0229170304 -0.0410087742 0.0226076543 -0.0947669297 -0.0461231023 0.0303567369 0.0100499392 -0.0146050425 0.0337288789 -0.0382972062 -0.034225475 0.0323674977 -0.0166267864 -0.065746136 0.016892409 -0.0210148674 -0.0591249876 0.00790536217 -0.150697172 -0.0583044961 -0.0240854491 -0.0273936242 -0.0602542087 -0.050601162 0.00262800627 -0.0607509986 -0.00247821887 -0.0822566822 -0.0606741644 -0.0096000284 -0.0286098849 -0.0650841072 -0.00798753183 -0.0318216868 -0.0649045706 -0.0109713515 -0.0189473275 -0.0661379695 -0.00260607363 -0.0289455876 -0.0650033057 -0.0084231561 -0.00493335864 -0.0603860766 -0.0759829134 0.0155647406 -0.0322316475 -0.0757779256 0.0485016927 -0.0544901602 -0.0762750804 0.0081090536 -0.0539390482 -0.0989409015 0.0121615138 -0.055524949 -0.0505567342 -0.0261609275 -0.0336626619 -0.0505293123 -0.0508000553 -0.0460007712 -0.0758078173 -0.0364735015 0.0233441871 0.00896341726 -0.0756081492 0.0221588966 0.0220128782 -0.0686277077 0.0207130108 0.00731972232 -0.0837153494 0.0118470294 0.00133716711 -0.0838650987 -0.00208726758 0.0188743081 -0.0826373175 -0.00497327 0.0187919419 -0.135802045 -0.0362416692 0.0211291537 -0.141836599 0.00365610165 0.00987767056 -0.129068971 0.00838484522 -6.39400532e-05 -0.108649999 0.0388814099 -0.0129769165 -0.0486741513 0.0149648255 -0.00623176619 -0.0826522484 0.0423963778 -0.0129168779 -0.0503338948 0.0438310206 -0.0111783482 -0.0466331206 0.0269688256 -0.0263136383 -0.0559018925 0.0102242948 -0.0206598938 -0.0768684074 -0.0148036946 -0.0278993491 -0.0606107637 0.00437400816 -0.0049212873 -0.113339685 -0.00608923938 0.0157705732 -0.124134585 0.00309654325 -0.0035392954 -0.108989544 0.00581247127 -0.00408911286 -0.109090097 0.00337079563 -0.00409138901 -0.106680162 -0.0112803681 0.0239409041 -0.0954835936 -0.0276584104 0.0199142098 -0.100458339 -0.0410319641 0.0187073592 -0.0962572619 -0.0603050403 -0.00571450265 -0.120390192 -0.0449392796 0.0185390152 -0.0837194324 -0.0464319885 0.0217382573 -0.0837189332 -0.0590086915 0.0135980016 -0.0918613225 -0.0462489836 0.0218207184 -0.0833936036 -0.0408772342 0.023405863 -0.0832912847 -0.0529060923 0.0151590826 -0.0933566615 -0.0513400286 -0.0170756038 -0.0973278806 -0.0178849343 0.0189503767 -0.113881946 -0.026831707 0.0228774752 -0.111546949 -0.0303621218 -0.0201602224 -0.111370608 -0.00546501996 -0.0160689894 -0.122150481 -0.0527301133 0.0178608857 -0.126332656 9.0008165e-05 -0.0989771336 -0.0556360334 0.0144937402 -0.0501144007 -0.0605697036 0.046850957 -0.0511988029 -0.0387390703 -0.0132305026 -0.0758583024 -0.0569382347 -0.00291379774 -0.0145433713 -0.234858081 0.00211446965 0.00749333203 -0.203856662 -0.00109362416 0.0167997424 -0.236121356 -0.0554823838 0.0139145991 -0.244745329 -0.0568435006 -0.00581299234 -0.234518543 -0.0460837595 -0.0170129985 -0.244105503 -0.00198653154 0.0150104687 -0.256624609 -0.00216127629 -0.0161048658 -0.257606775 -0.0283362344 0.0196017623 -0.240059361 -0.0532240719 -0.028611403 -0.283077836 -0.0550440922 -0.00500794221 -0.305676192 0.00327028544 -0.0279408339 -0.29692027 0.0259370469 -0.0172194056 -0.355438739 -0.0503131524 0.0155296084 -0.318066269 -0.0236426946 0.015377379 -0.357469469 0.0089224847 0.0225802399 -0.298845828 0.0193455908 0.0162144173 -0.332028747 -0.0410681404 0.0277417507 -0.330994517 -0.0538088307 0.00903711002 -0.307992667 -0.0490674265 -0.016311869 -0.321018308 0.0179097764 -0.0281956233 -0.3556557 -0.00587665057 -0.0237429887 -0.373383731 -0.00848442316 0.0271188878 -0.371144176 0.0191702545 0.0160676222 -0.369170696 0.020111151 0.0293960366 -0.355267227 -0.00696755527 0.0295245554 -0.250973135 -0.0531010814 0.029622525 -0.277322054 0.0617849119 0.000842786743 0.0375785641 0.0698449612 0.00336347311 -0.0033661488 -0.0031271542 -0.0279329661 -0.249141991 -0.035498254 -0.0283243842 -0.332806915</float_array>
          <technique_common>
            <accessor source="#positions_array" count="178" stride="3">
              <param name="X" type="float" />
              <param name="Y" type="float" />
              <param name="Z" type="float" />
            </accessor>
          </technique_common>
        </source>
        <source id="normals">
          <float_array id="normals_array" count="909">0.468819916 0.549060225 0.691910982 0.833722353 0.520927608 -0.183143422 0.621072114 0.75701791 0.202961341 -0.33782047 0.867662489 0.364745349 0.644793391 0.415362746 0.641650379 -0.435145438 -0.00592302624 -0.900340676 -0.94348675 -0.0337315351 -0.329689145 -0.643321395 0.337346375 -0.68726629 0.727857828 0.663220882 0.174244314 0.610642731 0.521106601 0.596291423 0.922758341 0.0615549125 0.380431443 0.96974659 -0.13424398 -0.203887373 0.764008582 -0.27837798 0.582062423 0.994496226 -0.0175262541 -0.103296369 0.672261238 0.0579869784 0.738039553 -0.0456036478 -0.645466089 -0.762426257 -0.639038503 -0.599553585 -0.481835395 0.116099022 0.903431177 0.412714362 -0.216728181 0.653787255 0.724976599 0.00864945631 0.793734491 0.608202934 0.00568299275 0.99933666 0.035972245 -0.0685851574 -0.8894822 -0.451793611 -0.176865831 -0.862531483 -0.474086404 -0.173210308 -0.955410957 -0.239140287 -0.414222002 -0.908672452 -0.0522931069 0.146239862 0.987498939 -0.0588197 0.313949347 0.944238782 -0.0992418453 0.0926156938 0.938970804 0.331294745 0.202849507 0.100948624 -0.973992527 -0.119625129 0.399816364 -0.9087556 0.252858788 -0.146113873 0.956406415 0.511009037 -0.0707039014 0.856662512 -0.841074884 -0.480012357 0.24936153 -0.991854906 0.0840973184 0.0956631079 -0.346115649 -0.929282606 0.12898767 0.515712798 0.829373717 -0.21489431 0.793859541 0.458393842 -0.399577379 -0.477564722 -0.796919048 0.369935036 0.249121249 0.942560136 -0.222528607 0.844682574 0.0654812232 -0.531247139 -0.847035885 0.385124087 -0.366346419 0.983804226 0.179237306 0.00179780065 -0.64673686 0.445827663 0.618844986 0.526802003 0.775922835 -0.347020835 0.354616165 0.908283055 -0.221966773 0.291051209 0.939050794 -0.182955623 -0.413322628 -0.910530686 -0.0099162031 -0.260594755 -0.930572927 0.257146567 -0.34894231 -0.878821552 0.325441152 -0.280390292 -0.936163366 0.212083474 -0.127078205 -0.983447909 0.129156128 0.306999952 0.91865623 0.248639807 0.116730385 0.984947741 0.12748307 0.14782007 0.988970876 0.00926593039 0.00308756181 0.992391169 0.123086177 -0.0401929989 0.995766401 -0.082666561 -0.0435534343 0.994523525 -0.0950057879 -0.00246196613 0.997960091 -0.063793093 0.972485602 0.123660825 0.197432995 0.027926486 -0.965353668 0.259446353 0.281491756 -0.889145017 -0.360809594 -0.150453135 -0.925705373 -0.34703514 -0.127227992 -0.983037949 0.132096216 -0.185102075 0.940424323 -0.285200477 0.0167314503 0.999855578 0.00298661971 0.0367534384 -0.995215893 0.0905236527 0.037731152 -0.99691999 0.068752639 -0.133919045 -0.990168333 0.040401902 0.895840824 -0.0134589532 0.44417122 0.997831464 -0.0153725231 -0.0640008226 0.770625889 -0.0868752599 0.631338596 -0.138891339 -0.0308720749 0.989826322 0.0439033844 -0.0467090309 0.997943282 0.343882471 -0.743939698 0.57297349 0.368202478 -0.0753288642 0.926689029 0.571258366 -0.241095707 0.784561515 0.342706084 -0.467396945 0.814918816 -0.00640518963 -0.999501407 0.0309170112 0.0176073033 -0.998706639 0.0476967022 0.0832338035 -0.077605322 0.99350369 -0.489032388 -0.0959828123 0.866968632 0.000870374497 -0.999999642 -0.000118146192 -0.000379202073 -0.99999994 -7.11036264e-05 0.718984067 -0.619504929 -0.315080196 0.991814196 0.123180486 -0.0336335935 0.780207217 -0.0629494339 -0.622345626 0.341488659 -0.16974628 -0.92443049 0.993000567 0.11408934 -0.0305529647 0.00353256706 -0.999993503 0.000705992512 0.690553367 -0.501429617 -0.521252692 -0.536775649 0.0087193558 0.843679965 0.110921614 0.103822939 0.988391221 0.0428789929 0.909397244 0.413712502 -0.540618598 0.668238461 0.511066437 0.89613694 0.367303401 -0.249051705 0.864400923 -0.4961133 -0.0817473829 0.964262068 -0.0242261123 -0.263840497 -0.538045764 0.839431345 0.0765624642 -0.869856 0.445294261 0.212281927 -0.67925626 -0.213294163 0.702222586 -0.613514781 -0.0816653296 0.785449147 -0.345546573 -0.157209098 0.925139368 -0.917515993 -0.116297856 0.380314589 -0.860174656 -0.0858519673 0.502721608 -0.715000093 0.131074458 0.686727285 -0.35635832 0.425586343 0.831796288 -0.781500578 0.482631028 0.39537856 -0.973364115 -0.228545621 -0.0181444418 0.70622462 0.158430934 -0.690033615 0.708282828 0.408621401 -0.575642288 0.337023199 0.506236732 -0.793813407 -0.164822951 0.945889473 0.279511154 0.0646941215 -0.993184566 0.0969486758 0.437624365 -0.898048341 0.0446553044 0.116835929 -0.980198383 0.15987666 -0.397775054 0.915482283 0.0605576113 -0.311867148 0.941396236 -0.128499091 -0.015204302 0.999738634 -0.0170736536 -0.0956832245 0.99512136 0.0240456015 -0.838997543 0.54399848 -0.0121983374 0.386884868 -0.918909013 -0.076982379 -0.402199239 0.913711846 -0.0580214784 -0.957117319 0.288596094 -0.025273392 -0.945686877 -0.179593027 -0.270966262 -0.999633431 -0.0268254038 0.00365952379 -0.991013408 -0.117160656 -0.0645434782 -0.79809773 -0.596631408 -0.0840892121 -0.999237001 -0.023741357 -0.0310132205 0.595607221 0.0300363693 -0.80271405 0.88809216 0.259851813 -0.379169315 0.809214354 0.371367633 -0.455256194 0.856766939 0.442624211 0.264639765 0.987582505 0.14460133 0.0614108332 0.928274989 0.333518386 0.164532691 0.99569869 0.0231496561 -0.0897120461 -0.912820399 -0.397565901 0.093275398 -0.902997553 -0.429625422 -0.00416837912 -0.816233397 0.550072908 -0.176586568 -0.594191492 0.790600657 -0.147942767 -0.969765782 -0.0724328086 0.233040348 -0.602466822 -0.114652783 0.789866149 -0.0163985193 -0.999574661 0.0241154674 -0.985410869 -0.0188449938 0.169145629 -0.961251915 0.0257005487 0.274470747 -0.571234524 -0.0984263718 0.81486398 -0.902477801 -0.126399592 -0.411772996 -0.527704418 -0.043438457 -0.848316669 -0.786875188 -0.130828574 -0.603084862 -0.846795261 -0.228286996 0.480440259 0.576312006 0.733558416 -0.360217392 0.883053005 0.00877303164 -0.469191253 -0.84771198 -0.110188574 0.518886149 0.794066906 0.350738555 -0.496427506 0.356024206 0.918202519 -0.173640326 0.443085551 0.889139771 -0.11448022 0.191002026 0.967694879 -0.164574862 -0.0868217126 0.994691312 -0.0552378967 -0.660407066 -0.697692335 0.277647078 -0.970828414 0.205214247 0.124013275 -0.660806894 0.408873469 0.62940985 -0.0284441803 -0.945511699 -0.324343234 0.828443468 -0.390721142 -0.401271075 -0.942915857 0.106169358 0.315654457 -0.910894573 0.165366039 0.37805444 0.717952907 -0.0333428346 -0.695292711 0.535750985 -0.250162929 -0.806467235 0.489180535 -0.756309986 -0.434393317 0.044177901 0.693959475 -0.718657434 -0.0261781998 -0.983982503 -0.17633234 0.874500453 -0.354036689 -0.331522226 0.958216131 -0.179080442 -0.223051757 0.649170876 0.756826341 0.0760987327 -0.804867208 0.588148713 0.0791826323 -0.201487333 -0.957788527 -0.205046207 0.907467425 0.420122176 0.000498783775 -0.0952374861 -0.976992726 0.190827191 -0.378857374 -0.905811489 0.189664677 -0.26239273 0.962322176 -0.071316883 -0.218596175 -0.960093021 0.174462184 -0.116495073 0.990905285 -0.0673471764 0.514567614 0.468454421 0.718171716 -0.926736176 -0.373339325 -0.0421645157 -0.158065513 0.971229494 0.178125307 0.432897955 -0.890873909 0.137633532 0.686892688 -0.206067473 0.696932256 0.574428856 -0.503353775 0.645497084 0.396484762 -0.914722025 0.0779967159 -0.721386015 0.567131102 0.397447556 -0.751089871 0.659586906 0.0284463763 -0.00913019851 0.0951882079 -0.995417416 -0.817595541 -0.381407976 -0.431353033 0.870812356 0.406260252 0.276836604 0.270384699 -0.140325442 0.952470958 -0.34662661 0.866672993 -0.358786762 -0.550574064 -0.833316565 -0.0495147221 -0.924129486 -0.376269728 -0.0663764104 0.9706707 -0.23322019 0.0583671145 0.234578118 0.969718099 0.0679703355 0.486169964 0.649848819 0.584239006 -0.0305582006 -0.997366965 -0.0657676905 0.498439789 -0.858452678 -0.120899767 -0.176889241 0.964106202 -0.198013604 -0.0672702566 -0.991510689 -0.111271285 -0.0669652596 -0.997578382 -0.0187899414 -0.209998056 -0.977237761 -0.030118566 0.0493299887 -0.968283176 0.244937301 -0.521161914 0.850369632 -0.072537519 -0.019646015 -0.706840992 -0.707099617 0.204998329 -0.0366572067 -0.978075624 -0.252667814 -0.0586099029 -0.965776265 0.765731454 -0.0492872484 -0.641269088 -0.278409213 -0.128329635 -0.951850712 -0.845490456 -0.110592738 -0.522412777 0.776050389 -0.609304488 0.162769049 0.99647814 0.0837847516 -0.00337262731 0.821541131 0.554461539 0.132825404 -0.816333354 0.570037305 0.0930450037 -0.946210742 -0.323390633 0.0101825483 -0.353545666 -0.905365765 0.235198468 0.817519546 -0.548985898 -0.174000666 0.978259146 0.163686574 -0.127340853 -0.125850081 0.964925885 0.230390549 -0.659162819 -0.751734018 0.0200099815 0.690920711 0.373073637 -0.619229019 0.514553785 -0.845612288 0.1420362 0.803744972 -0.564564288 -0.18777965 0.169317544 -0.975362897 -0.141416967 -0.557329595 -0.613725603 -0.559217811 0.923655152 0.293953657 0.24587065 0.945844054 0.262822121 0.190534934 0.0220289156 -0.999747932 -0.0043299743 -0.623833299 0.691689074 -0.363865584 -0.720757365 0.681248248 0.128100336 -0.964918911 0.239567325 -0.107419923 0.613770843 -0.562699556 -0.553763986 0.19225274 0.962922215 -0.18926093 -0.991801441 -0.0879032016 -0.092752248 -0.832984567 -0.46290493 -0.303077191 0.492456675 -0.817885756 -0.297572315 0.0432898998 -0.970049381 -0.239019111 -0.0402891487 0.992667437 -0.113965563 -0.0831684619 0.974813998 -0.206931695 -0.353630275 -0.479105443 -0.803370178 -0.046807766 -0.972389102 -0.228623003 0.695149004 0.695267558 -0.182677209 0.99782306 -0.065797314 -0.0044503808 0.311428368 0.892268479 0.326908737 -0.664697766 0.745121539 0.0545050763 0.050035432 0.972014844 -0.229529053 0.857320905 -0.0360819511 0.513516247 -0.0667106733 -0.895864546 -0.439290822 -0.304709822 -0.898101866 -0.317119867 0.995892525 -0.0657414496 -0.0622590594 0.244164184 0.42290163 0.872661471 -0.277208418 -0.912629604 -0.30043754 -0.425138116 -0.89260596 0.150040507 -0.889595866 0.0469076261 0.454333484 -0.104381621 -0.96107173 -0.255823493 -0.0307889134 -0.994392216 -0.101174213 0.256943285 0.953585446 -0.157018989 -0.252536595 -0.956849694 -0.14374958 -0.725374997 -0.351172328 -0.592038095 0.174238354 -0.953442037 -0.246148825 0.0576672256 0.990978479 -0.120980151 0.00628327345 -0.999980092 -0.000621861313 -0.902059495 0.240095899 -0.358667821 0.0322893597 0.95887816 0.281975389 -0.188319311 0.982080102 -0.00738593144 0.303739041 -0.837501705 -0.454239517 0.0828373879 -0.996561646 -0.00168090244 0.040427275 -0.997375011 -0.0600727871 0.0460599847 -0.997591794 -0.0518563613 -0.328032047 0.910314918 -0.252431601 -0.79214555 -0.600685239 -0.108086705 -0.000410673441 -0.999999881 -0.000187068203 -0.0200219192 -0.999527216 0.0233344436 -0.031581603 -0.999400437 0.0141883725 -0.0633658841 -0.997929692 -0.011003471 -0.00277293497 -0.999996066 0.000392248534 -0.0824183822 -0.99625504 -0.0261353236 -0.71375668 -0.604254425 0.354158163 -0.186951578 0.191983804 0.963426888 0.850362718 -0.182465509 -0.493547946 -0.548308313 0.464994848 0.695081174 -0.48040095 0.523571908 0.703624487 0.863069654 0.351485342 -0.362724185 0.860557497 0.366598994 -0.353618383 0.873160303 0.233332247 -0.427956998 0.873284817 0.21256429 -0.438394934 0.297635019 0.269364446 0.915890932 0.232605517 -0.880647838 0.412739664 0.226844698 -0.868590415 0.44055894 0.857995391 0.301102459 0.41615054 0.0815027505 0.50465095 0.859467685 0.933252096 -0.356851786 0.0411990732 -0.137859866 -0.980421126 0.140602738 0.112081178 0.992216885 -0.0542540289 0.996798635 -0.0277318712 0.0749896392 -0.0913684666 -0.920588911 0.379694462 -0.773079395 -0.362314522 -0.52064997 0.316915303 0.673862636 -0.667438328 0.274500042 -0.957145035 0.0923207551 -0.759330034 -0.282444835 -0.586210608</float_array>
          <technique_common>
            <accessor source="#normals_array" count="303" stride="3">
              <param name="X" type="float" />
              <param name="Y" type="float" />
              <param name="Z" type="float" />
            </accessor>
          </technique_common>
        </source>
        <vertices id="vertices">
          <input semantic="POSITION" source="#positions" />
        </vertices>
        <triangles material="qmat_76551a3993c45b27" count="205">
          <input semantic="VERTEX" source="#vertices" offset="0" />
          <input semantic="NORMAL" source="#normals" offset="1" />
          <p>0 0 1 1 2 2 2 3 3 3 4 3 5 4 6 4 3 4 16 15 4 16 7 5 0 0 17 17 18 18 18 21 21 22 6 23 6 23 21 22 3 24 5 25 22 26 21 27 23 28 7 5 24 29 4 16 3 24 27 32 3 24 22 34 27 32 22 34 31 37 27 32 22 26 1 1 32 38 33 39 1 1 13 11 34 42 32 42 35 42 36 43 31 44 37 45 34 46 38 47 31 37 37 48 39 49 35 50 40 51 41 52 42 53 43 54 44 55 45 56 43 54 45 56 46 57 44 58 47 58 45 58 48 59 49 60 40 61 34 46 35 50 36 62 37 45 38 63 36 43 35 50 39 49 36 62 36 62 39 49 31 37 48 64 22 26 32 38 44 65 46 66 37 48 37 48 45 67 39 49 46 66 45 67 37 48 16 15 7 5 23 28 64 89 16 15 23 28 18 18 65 90 66 91 16 92 41 92 18 92 68 94 49 94 69 94 49 60 64 89 70 95 70 95 64 89 71 96 80 106 81 107 76 102 65 90 76 102 73 99 43 54 49 111 44 55 83 112 84 113 85 114 86 115 69 116 87 117 86 115 87 117 88 118 80 106 86 115 89 119 49 60 70 95 69 120 86 115 88 118 84 121 89 119 90 122 81 107 96 131 97 132 81 133 97 132 94 130 95 129 70 95 98 134 97 132 98 135 96 136 76 102 96 131 94 130 97 132 98 137 94 127 96 138 81 107 98 135 76 102 31 37 106 148 27 32 31 44 1 1 107 149 108 150 1 1 33 39 107 149 1 1 108 150 27 32 106 148 33 151 31 44 107 149 37 45 111 154 107 149 108 150 47 155 107 149 111 154 47 155 111 154 112 156 113 157 114 158 109 159 113 157 109 159 106 148 115 160 116 161 108 150 33 151 117 162 118 163 114 169 116 161 122 170 122 172 109 159 114 158 113 174 108 150 114 169 31 37 127 175 113 157 111 154 108 150 113 174 31 37 113 157 106 148 88 118 87 117 83 177 47 178 83 112 127 175 83 112 85 114 127 175 90 122 130 181 81 107 132 183 133 184 85 185 134 186 133 184 132 183 131 189 134 189 135 189 85 190 131 190 132 190 81 107 130 181 95 195 97 132 95 129 93 196 128 202 139 203 127 175 85 204 139 203 128 202 85 114 138 205 127 175 139 198 85 185 129 180 142 206 90 122 89 119 111 154 148 214 149 215 150 216 151 217 90 122 111 154 149 215 155 221 111 154 155 221 112 156 164 231 160 232 165 233 172 246 171 244 173 247 171 244 169 248 164 231 174 249 0 0 66 91 4 16 8 6 7 5 4 16 17 250 2 251 175 252 1 1 174 249 1 1 0 0 174 249 18 18 17 17 21 27 0 0 18 18 66 91 4 16 16 15 17 250 17 250 16 15 6 23 21 27 17 17 5 25 17 250 6 23 5 254 17 17 0 0 2 2 9 7 24 29 7 5 2 255 5 255 3 255 22 26 5 25 2 2 4 16 27 32 8 6 22 26 2 2 1 1 32 38 1 1 31 44 22 34 34 46 31 37 27 32 33 151 30 256 30 256 33 151 118 163 27 32 30 256 28 33 1 1 175 252 13 11 175 252 174 249 13 11 35 259 32 38 38 63 3 24 21 22 22 34 38 47 34 46 36 62 38 63 32 38 31 44 42 260 32 261 34 46 22 34 42 260 34 46 48 59 40 61 22 34 41 52 48 64 42 53 41 262 49 60 48 59 22 34 40 61 42 260 37 45 35 259 38 63 44 263 37 45 47 155 45 67 47 178 39 49 47 155 37 45 107 149 42 53 48 64 32 38 16 15 64 89 41 262 6 23 16 15 18 21 41 262 64 89 49 60 49 111 80 106 18 18 18 265 41 265 40 265 49 111 18 18 40 266 80 106 65 90 18 18 65 90 80 106 76 102 64 89 23 28 82 108 86 115 68 267 69 116 86 268 43 268 68 268 80 106 49 111 86 115 49 111 43 54 86 115 66 91 65 90 75 101 66 91 75 101 25 30 82 108 23 28 79 110 70 95 71 96 98 134 71 96 64 89 82 108 75 101 65 90 73 99 87 117 69 116 47 155 69 120 88 269 47 178 44 65 49 270 68 271 68 272 43 54 46 57 44 65 68 271 46 66 80 106 89 119 81 107 84 113 69 120 70 95 88 269 69 120 84 113 89 119 86 115 84 121 89 119 84 121 142 206 96 136 81 107 95 195 97 273 98 135 81 107 33 151 106 148 108 280 31 37 39 49 47 178 31 37 47 178 127 175 87 117 47 155 112 156 106 148 109 159 116 281 33 39 13 11 117 282 106 148 116 281 115 283 118 284 106 148 115 283 108 285 106 286 118 287 108 150 117 257 115 160 108 285 118 287 117 288 114 169 108 150 116 161 148 214 113 174 122 170 84 121 83 177 112 156 83 177 87 117 112 156 47 178 88 269 83 112 142 206 84 121 112 156 70 95 97 132 93 196 134 186 84 113 133 184 135 290 132 183 136 291 135 290 134 186 132 183 85 292 134 292 131 292 85 114 84 113 134 186 133 184 70 95 93 196 84 113 70 95 133 184 93 196 95 129 130 294 127 175 139 203 123 176 90 122 151 217 130 181 111 154 113 174 148 214 142 206 150 216 90 122 150 216 142 206 112 156 172 246 155 221 149 215 150 216 112 156 155 221 155 221 172 246 173 247 151 217 150 216 157 236 173 247 165 233 157 236 150 216 173 247 157 236 172 246 162 228 171 244 164 231 173 247 171 244</p>
        </triangles>
        <triangles material="qmat_d857164d36b11abb" count="190">
          <input semantic="VERTEX" source="#vertices" offset="0" />
          <input semantic="NORMAL" source="#normals" offset="1" />
          <p>7 5 8 6 9 7 10 8 11 9 12 10 13 11 14 12 15 13 11 9 9 14 12 10 19 19 10 8 20 20 14 12 25 30 26 31 27 32 28 33 8 6 29 35 10 8 30 36 28 33 12 40 8 6 10 8 12 10 28 41 10 8 29 35 20 20 15 13 50 68 51 69 50 68 26 31 52 70 14 12 50 68 15 13 53 71 54 72 26 31 50 68 52 70 51 69 55 73 56 74 57 75 52 76 55 73 57 75 26 31 54 72 52 70 54 77 58 78 55 73 58 79 59 80 56 74 56 81 60 82 61 83 52 84 61 83 62 85 63 86 62 85 61 83 52 84 57 87 61 83 57 88 56 81 61 83 19 19 20 20 67 93 72 97 71 98 67 93 67 93 20 20 72 97 73 99 74 100 75 101 76 102 77 103 73 99 67 93 71 98 78 104 79 105 67 93 78 104 82 108 78 109 71 96 82 108 79 110 78 109 76 102 91 123 92 124 93 125 91 126 94 127 91 128 95 129 94 130 77 103 92 124 99 139 58 79 100 140 59 80 54 77 100 141 58 78 101 142 102 143 59 80 100 140 101 142 59 80 100 144 77 103 99 139 92 124 103 145 99 139 91 123 104 146 103 145 103 145 105 147 99 139 29 35 109 152 110 153 115 164 119 165 120 166 30 36 118 167 115 164 121 168 120 166 119 165 123 171 109 152 122 170 124 173 125 173 126 173 127 175 123 176 113 157 110 153 128 179 129 180 72 97 129 180 131 182 135 187 136 188 131 182 131 182 129 180 132 191 72 97 131 182 136 188 129 180 85 185 136 192 132 193 129 193 136 193 93 125 137 194 91 126 91 126 137 194 121 168 129 180 138 197 139 198 120 166 140 199 141 200 127 201 138 197 128 179 139 198 138 197 123 171 93 125 130 181 137 194 61 83 60 82 143 207 63 86 61 83 143 207 119 165 144 208 121 209 115 164 145 210 119 165 119 165 145 210 144 208 121 209 144 208 104 146 104 146 146 211 105 147 146 211 143 207 60 212 140 199 147 213 141 200 148 214 141 200 147 213 147 213 140 199 152 218 153 219 147 213 154 220 149 215 147 213 153 219 151 217 156 222 152 218 153 219 154 220 157 223 154 220 158 224 159 225 153 219 160 226 161 227 162 228 149 215 153 219 162 228 153 219 163 229 153 219 161 227 163 230 160 226 153 219 165 234 157 223 154 220 166 235 151 217 157 236 156 222 157 236 166 237 156 222 167 238 168 239 159 225 166 235 159 240 168 241 169 242 170 243 161 227 171 244 163 229 170 245 164 231 169 242 161 227 19 19 11 9 10 8 9 7 8 6 12 40 174 249 66 91 25 30 14 12 174 249 25 30 13 11 174 249 14 12 11 9 24 253 9 14 11 9 19 19 24 253 26 31 25 30 53 71 28 41 30 36 10 8 117 257 13 258 115 160 145 210 13 11 15 13 13 11 145 210 115 164 110 153 20 20 29 35 50 68 14 12 26 31 52 76 54 77 55 73 55 73 58 79 56 74 145 210 15 13 51 69 51 264 52 264 62 264 145 210 51 69 62 85 24 253 19 19 79 105 19 19 67 93 79 105 53 71 25 30 75 101 79 110 23 28 24 29 129 180 72 97 20 20 71 98 94 127 98 137 77 103 76 102 92 124 71 98 93 125 94 127 91 123 76 102 96 136 91 123 96 136 95 195 53 71 74 100 100 144 75 101 74 100 53 71 100 144 74 100 77 103 73 99 77 103 74 100 56 81 59 274 60 82 54 72 53 71 100 144 100 275 99 276 101 277 60 82 59 274 102 278 92 124 91 123 103 145 105 147 103 145 104 146 101 142 60 212 102 143 101 142 105 147 60 212 101 277 99 276 105 279 109 152 29 35 30 36 123 171 110 153 109 152 109 152 30 36 115 164 109 152 115 164 120 166 122 170 116 161 120 166 116 281 109 159 120 289 113 174 123 171 122 170 122 170 120 166 141 200 129 180 20 20 110 153 72 97 136 188 71 98 136 188 93 125 71 98 133 184 93 293 136 192 85 185 133 184 136 192 140 199 121 168 137 194 120 166 121 168 140 199 138 197 110 153 123 171 129 180 128 179 138 197 85 204 128 202 110 295 138 197 85 296 110 153 146 211 63 86 143 207 144 208 63 86 146 211 144 208 145 210 63 86 63 86 145 210 62 85 104 146 144 208 146 211 105 147 146 211 60 212 91 123 121 209 104 146 148 214 122 170 141 200 130 181 151 217 137 194 137 194 151 217 152 218 152 218 140 199 137 194 154 220 147 213 176 297 176 298 147 213 152 218 149 215 148 214 147 213 150 216 155 221 173 247 176 298 152 218 156 222 158 224 154 220 176 297 158 224 176 298 156 222 172 246 149 215 162 228 173 247 164 231 165 233 177 299 156 222 166 237 165 234 153 219 157 223 159 225 158 224 167 238 158 224 156 222 167 238 167 238 156 222 168 239 166 235 154 220 159 240 163 230 161 227 170 243 169 248 171 244 170 300 171 244 162 228 163 229 156 222 177 301 168 239 177 299 166 237 168 302 160 232 164 231 161 227</p>
        </triangles>
      </mesh>
    </geometry>
  </library_geometries>
  <library_visual_scenes>
    <visual_scene id="scene">
      <node id="RL_thigh_dae">
        <instance_geometry url="#geometry">
          <bind_material>
            <technique_common>
              <instance_material symbol="qmat_76551a3993c45b27" target="#qmat_76551a3993c45b27" />
              <instance_material symbol="qmat_d857164d36b11abb" target="#qmat_d857164d36b11abb" />
            </technique_common>
          </bind_material>
        </instance_geometry>
      </node>
    </visual_scene>
  </library_visual_scenes>
  <scene>
    <instance_visual_scene url="#scene" />
  </scene>
</COLLADA>