<?xml version='1.0' encoding='utf-8'?>
<COLLADA xmlns="http://www.collada.org/2005/11/COLLADASchema" version="1.4.1">
  <asset>
    <created>2026-09-14T00:00:00Z</created>
    <modified>2026-09-14T00:00:00Z</modified>
    <unit name="metre" meter="1" />
    <up_axis>Z_UP</up_axis>
  </asset>
  <library_effects>
    <effect id="qmat_d857164d36b11abb_effect">
      <profile_COMMON>
        <technique sid="common">
          <lambert>
            <emission>
              <color sid="emission">0 0 0 1</color>
            </emission>
            <diffuse>
              <color sid="diffuse">0.85 0.85 0.85 1</color>
            </diffuse>
            <reflectivity>
              <float sid="specular">0.5</float>
            </reflectivity>
          </lambert>
        </technique>
      </profile_COMMON>
    </effect>
  </library_effects>
  <library_materials>
    <material id="qmat_d857164d36b11abb" name="qmat_d857164d36b11abb">
      <instance_effect url="#qmat_d857164d36b11abb_effect" />
    </material>
  </library_materials>
  <library_geometries>
    <geometry id="geometry" name="RR_hip_dae">
      <mesh>
        <source id="positions">
          <float_array id="positions_array" count="600">0.0445398688 0.0140713211 0.0306099504 0.064836517 0.014205033 0.0481485426 0.0516897291 0.0140375905 0.0157784093 0.0263881534 0.0183255747 0.0563332066 0.0262642168 0.0144155063 0.0545443036 0.0120388055 0.0146066891 0.0627350286 0.0227097552 0.014228181 0.0486329906 0.0111111877 0.0135768699 0.0520063788 0.0548289716 0.0238202773 0.0474480949 0.0409600921 0.0211254619 0.0497898795 0.0438912995 0.0146473506 0.0497224815 0.0137448926 0.0053369957 0.0631209612 0.041464556 0.00587371225 0.0555937402 0.0233817175 0.0345933959 0.0481040142 0.0340597145 0.0140098976 0.0417181738 0.0389765278 0.0343974829 0.0371315666 0.0899918526 0.0525277257 -0.0109343268 0.0899979696 0.0513554625 0.0163170118 0.0899974704 0.0471377708 -0.0255376622 0.0575507917 0.062043678 -0.010802255 0.057735838 0.0511171445 -0.00996164419 0.0577266812 0.0511585064 0.00980444159 0.058032386 0.0396429151 0.0342959203 0.0579405911 0.0453654826 0.0265593156 0.0652172416 0.0410994552 0.0304904059 0.0694696978 0.041667603 0.0334581174 0.0579822436 0.0484160073 0.0189475156 0.0581802763 0.032943882 0.0402414203 0.0652437806 0.0502292737 0.0108296806 0.0695912242 0.049658969 0.0198094416 0.0687622726 0.0534072109 0.00880916603 0.0899847224 0.0190910138 0.0501502603 0.0677976981 0.00211237394 0.053011667 0.0899370685 0.00328012346 0.0535647459 0.0899909586 0.0424136184 0.0328692198 0.0687316358 0.0261926427 0.0462077707 0.0899355412 0.0318116881 0.0432739779 0.0653114542 0.014334444 -0.0474331267 0.0540391952 0.0143128894 -0.0005616938 0.0899994075 -0.0123737892 0.0522160046 0.0652438402 0.0280581899 0.0427177101 0.0533784367 0.0344749428 -0.00873460528 0.0690158606 0.0171781536 0.0504792966 0.0425851978 -0.0108757056 0.0543033704 0.0399902128 -0.0213636644 0.0511089154 0.0539059266 -0.0243599508 0.0470966808 0.065062508 -0.0143531822 0.047376506 0.0384819284 -0.0141135715 0.0380529016 0.0465375111 -0.0140288165 0.0284109209 0.0519550517 -0.0140552642 0.0171115361 0.0447346047 -0.0210313611 0.0300915875 0.0512560941 -0.0212885458 0.0167473443 0.0320534855 -0.0148049332 0.0525929108 0.0259040017 -0.0141569739 0.0476040207 -0.010503076 -0.0213905685 0.0527485013 0.0342418775 -0.0211626273 0.0415391997 0.0272522997 -0.0186679438 0.0563314445 0.0116174566 -0.0146661904 0.0624354258 0.0106115164 -0.0139957098 0.0525449663 0.0219336487 -0.0201912206 0.0494262762 0.00801403262 -0.0211433377 0.0529834852 0.0651391894 -0.0256631654 0.0443371199 0.0538728833 -0.0213410854 -0.00790118147 0.0682569295 -0.0116270119 0.0518886261 0.0661151484 -0.0258710571 0.046711091 0.0899773091 -0.0268777665 0.0463804081 0.0655210838 -0.0416215062 0.0329688005 0.0694985837 -0.0477567501 0.0240843669 0.0899943262 -0.047614526 0.0248480178 0.089964509 -0.0389050357 0.037071202 0.0425821617 0.0108757718 -0.0543043725 0.0428858064 -0.00726565998 -0.0549940579 0.0137439473 -0.00533524714 -0.0631209612 0.0321420506 0.0344586261 -0.0431490168 0.0368252471 0.0140961995 -0.0393495969 0.0237706248 0.0141647812 -0.0482414477 0.0355481058 0.0148951579 -0.0517066009 0.0393467695 0.021205673 -0.0514250211 0.0244805925 0.0179636441 -0.0573581308 0.0119061563 0.0146546131 -0.0625787303 0.045268774 0.0343160927 -0.0290519763 0.0470701158 0.0140498746 -0.0266982932 0.00860130042 0.0344420411 -0.0527092889 0.0108987223 0.0139375245 -0.0520283878 0.0553741641 0.0244833659 -0.0467008837 0.0654157698 0.0478903204 -0.0185915288 0.0578160211 0.0447851196 -0.0248894729 0.0651637167 0.0364781916 -0.0357422791 0.069379583 0.0472963713 -0.0249360055 0.0689347759 0.0392049477 -0.0360443592 0.0576024242 0.0386681594 -0.0361771621 0.0580855273 0.0487867482 -0.0189501196 0.0686724856 0.0527444184 -0.00957562402 0.0576937385 0.0626639053 0.0100595113 0.0684252754 0.0622951165 -0.0102119278 0.0899999663 0.0310813505 -0.0434478261 0.0899964198 0.0122797927 -0.0522534288 0.0899973735 -0.0230021216 -0.0483505316 0.0682570115 0.0256315079 -0.0467474982 0.0683177337 0.0115887271 -0.0519355088 0.058063861 0.0368419066 -0.0355838761 0.0676436126 -0.00520236464 -0.0528546423 0.051980406 0.0140340533 -0.0143572567 0.0654841587 0.0260681529 -0.0441486537 0.026382314 -0.0183247495 -0.0563354641 0.0117892884 -0.0146285575 -0.0627346784 0.0526270494 -0.0140703619 -0.0148984203 0.0473311916 -0.0140862633 -0.0267916247 0.0118699633 -0.021234734 -0.0527019128 0.0350434147 -0.0209566653 -0.0410899296 0.0382934362 -0.0140285296 -0.0384320989 0.0651068911 -0.0142329298 -0.0480323806 0.0417029299 -0.0145815704 -0.0501532592 0.0409817733 -0.0211267155 -0.0497765057 0.0532572605 -0.0237804148 -0.0478070341 0.0457845107 -0.0212858059 -0.0285359919 0.0677701905 -0.0176187474 -0.0501101986 0.054457292 -0.0140503338 0.00240130373 0.0899666026 -0.00424259109 -0.0534019247 0.070642516 -0.00322799571 -0.0535876527 0.0899999663 -0.0507362075 -0.0179092418 0.0654295534 -0.0263056532 -0.0447395183 0.070525974 -0.0314454176 -0.0434946828 0.089959763 -0.0525167063 0.0109974416 0.0701476038 -0.0534069836 -0.00528051378 0.0899915546 -0.0389943272 -0.0362278223 0.0697042495 -0.0415465459 -0.0336319022 0.065574646 -0.0524535626 0.00832192507 0.0655321702 -0.0488582179 -0.0216962807 0.069547832 -0.0488785058 -0.0212362912 0.00782504585 0.0344941281 0.0528665408 -0.00771138398 0.0342995264 0.0526818298 -0.0215324536 0.0345113091 0.0485860072 -0.009440572 0.00800245628 0.0525528714 0.0103836032 0.00771431997 0.0528006852 0.0104637379 0.00574268121 0.0595828593 -0.0485641435 0.034596622 -0.0210065171 0.00919414125 -0.00326580578 0.0610047504 0.00981570408 -0.00535159605 0.0537947267 -0.0131558916 -0.00526853092 0.0523247384 -0.0172073748 -0.00324977073 0.0583409294 -0.0259603187 -0.00532843592 0.0471185148 -0.0377365872 0.0343943313 0.0375367887 -0.0444068648 0.0077494802 0.0289841518 -0.0364816263 0.00782824308 0.0384713337 -0.0501271598 0.0345335752 0.0163533501 -0.0448592342 0.00564239826 0.0406208597 -0.0509255975 0.00800701696 0.0148132928 -0.0540778935 0.00565323979 0.026759753 -0.0519369766 -0.00338227861 0.0311074033 -0.0340014286 -0.00329582905 0.0501627326 -0.0142446831 0.0058891261 0.0592012927 -0.0323971137 0.00558342272 0.0513591021 -0.0241658408 0.00798830949 0.0471035764 -0.0369969197 -0.00531620113 0.0388819687 -0.0252837706 -0.0212385412 0.0472462289 -0.0366741605 -0.0197512917 0.0391044132 -0.0463461392 -0.0212789141 0.0265220441 -0.0597578771 -0.00328307808 0.00912083779 -0.0513717756 -0.00538157066 0.0149672469 -0.0536019579 -0.00524105504 -0.00217298069 -0.0596548915 -0.00327094621 -0.00990005862 -0.0533130281 -0.0209062807 0.00044980098 -0.0123073179 -0.00541760866 -0.0525587276 -0.0114032878 -0.0210515521 -0.0523994602 -0.00716917543 0.0343581997 -0.0528361611 0.0102911172 0.00792931858 -0.0528845079 0.0104775252 0.00573351094 -0.0595396236 -0.0196707752 0.00833373051 -0.049513083 -0.0120507842 0.00578611949 -0.0596094355 0.00884714443 -0.00337990862 -0.0611914061 0.0245239828 -0.0142906765 -0.0484256372 0.0104864361 -0.0138851497 -0.0528276674 0.0239346605 -0.0144318268 -0.0553974733 0.00880481489 -0.00547170499 -0.0537447147 -0.0234334059 -0.0211371202 -0.0482289046 -0.052920375 0.0338850357 -4.29200481e-05 -0.0509019606 0.00782776531 -0.0147499293 -0.0343634337 0.0342551433 -0.0404677838 -0.0218123533 0.0344376266 -0.0483481847 -0.0455385484 0.00770548871 -0.0275743939 -0.0357563421 0.00786506478 -0.0391379818 -0.0538523495 0.00567042595 -0.0274078418 -0.0258580856 -0.00554179586 -0.0469248891 -0.0237398874 -0.00335188117 -0.0554784052 -0.0358478762 0.00580651825 -0.0489322916 -0.0437944233 -0.00323789776 -0.0418090373 -0.059662547 0.00568303466 0.0096996529 -0.0594484359 0.00571575202 -0.0102928495 -0.0533007421 -0.00333711016 -0.028128732 -0.0376412235 -0.00547035597 -0.0379903018 -0.0356168412 -0.0208814405 -0.0397512168 -0.0466966107 -0.00533196051 -0.0261264369 -0.0454447679 -0.021189753 -0.0279891174 -0.0508834757 -0.0211875364 -0.0148309115 -0.0513618812 -0.00530898105 -0.0151582249 0.0515873991 0.034358725 0.0152951302 0.0683483556 0.0620278418 0.0106729027 0.0656418353 -0.0357383415 -0.0387948081 -0.0463572703 -0.00529924268 0.0269677881</float_array>
          <technique_common>
            <accessor source="#positions_array" count="200" stride="3">
              <param name="X" type="float" />
              <param name="Y" type="float" />
              <param name="Z" type="float" />
            </accessor>
          </technique_common>
        </source>
        <source id="normals">
          <float_array id="normals_array" count="1149">-0.00506095076 0.999854922 -0.0162639581 0.00432608789 0.999880075 -0.014871533 -0.00908896048 0.999958336 0.000838481064 -0.370573819 0.336317539 -0.865774512 -0.207532302 0.844872892 -0.493072182 -0.129462749 0.960261106 -0.247261018 -0.0298816655 0.999459505 -0.0137041407 -0.0437272564 0.996707857 -0.0682743415 -0.191966102 0.981372297 -0.00758123351 -0.133202925 0.700445652 -0.701165318 0.271054357 0.223085865 0.936355829 0.0469298922 0.0288147032 0.998482525 0.188644499 0.108820692 0.975997567 0.431953698 0.0232456569 0.901596189 0.401531637 0.00705994293 0.915817916 0.622962296 0.00561554544 0.782231748 0.730786264 0.0425145701 0.681281149 0.999998868 0.00147930277 -0.000160878772 1 0.00016828833 0.000112524853 1 0.000114960618 1.02723043e-07 -0.999922872 -0.0122448439 0.00206650794 -0.999855995 -0.0169654153 -0.000427676714 -0.999962449 -0.0072855521 0.00468656328 -0.202769488 -0.712133884 -0.672123432 -0.2749587 -0.861798525 -0.426264077 -0.222339705 -0.786507726 -0.576168954 -0.0789207295 0.727735877 0.681301653 -0.0260265209 0.761839151 0.647243202 -0.0795720071 0.866578877 0.492655396 -0.215588197 -0.902618825 -0.372560024 -0.0396957286 0.639734685 0.767570078 -0.104541339 -0.986319542 -0.127455369 -0.161368206 -0.970546544 -0.178884715 -0.0469807871 0.910523474 0.410779536 -0.135875762 0.931350887 0.337821394 -0.032401897 0.981197715 0.190265983 -0.166263044 0.943217993 0.287569791 0.0263021532 0.95570159 0.293159842 -0.026165707 0.346410245 0.937718153 0.0453807861 0.0385599919 0.998225272 -0.027786063 0.0687182471 0.997249067 -0.0320056044 0.789124191 0.613399267 -0.0133923488 0.535903096 0.844173253 -0.0590647049 0.608131945 0.791635573 -0.169422388 -0.318044245 -0.932815015 -0.195977539 -0.252424031 -0.947562635 -0.259268135 -0.131357685 -0.9568308 -0.00936842989 0.999770105 0.0192860737 0.142656609 0.989161611 0.034762647 0.99999851 -0.000168774641 0.00172883912 -0.999850094 0.0169886779 -0.00333605846 -0.999866366 0.0152873229 -0.00578990346 -0.999610782 0.0274594892 -0.00492980471 -0.202993348 -0.534462929 -0.820452988 0.988652468 0.0265656933 -0.14785336 0.960508943 0.0295697376 0.276673466 0.998380423 0.0461849906 0.0332179666 0.999998033 0.00110519351 0.00164793839 0.0172058307 0.316614419 0.948398232 0.189423397 -0.210035965 0.959168196 0.242499426 -0.337082386 0.90970844 0.0737350881 -0.379317373 0.922323942 -0.0102726677 -0.999791443 -0.0176493637 -0.004899438 -0.999919176 -0.0117296567 -0.00955201127 -0.999924183 -0.00777144963 -0.0151582854 -0.999879718 -0.00327756489 0.829460859 -0.0961519256 0.550226748 0.806997657 -0.0669490844 0.586747527 0.890537977 -0.124252021 0.437611222 -0.230423734 -0.776284337 -0.586760163 -0.241297588 0.00636052201 -0.970430315 -0.323775947 -0.181711271 -0.928520441 -0.0251433216 -0.996663153 -0.0776553974 0.0156819094 -0.999626458 0.0223844703 -0.000235254949 -0.999990404 0.00437631505 0.00623186957 -0.999949694 0.00785692409 0.463018954 -0.691216171 0.554827571 0.280438483 -0.315916896 0.906394362 0.470760673 -0.0236280616 0.881944478 0.72101897 -0.0941771716 0.686485469 0.154040441 -0.106193185 0.982341349 -0.0374778472 -0.997032523 -0.0672426894 0.306880534 -0.484979719 0.818913341 0.0214916598 -0.998470604 0.0509371087 -0.154324055 0.255441934 -0.954428375 -0.166486859 0.222995624 -0.96049732 0.950869322 -0.106518865 0.290690958 0.966078341 -0.105226874 0.235838681 0.989314556 -0.100897193 0.105244778 0.0180682074 -0.224150315 0.97438705 -0.014620115 -0.22827889 0.973486006 -0.199059814 -0.614867926 0.763094127 -0.0091230087 -0.50058645 0.865638494 -0.999889493 -0.0131163606 -0.00700079417 -0.686191559 -0.562307477 0.46146667 -0.90200752 -0.419822007 0.100657448 -0.201261729 -0.885888875 0.417964786 -0.00760696596 -0.886924982 0.461850792 -0.0212795157 -0.718190372 0.695521235 0.999997199 -0.00202360982 0.00123593397 0.999975204 -0.00443754159 0.00547260372 0.188742891 0.197227418 -0.962017417 0.18323949 -0.126597032 -0.974882782 0.062816985 -0.032406915 -0.99749881 0.584716201 0.0297822841 -0.810691059 0.696603835 0.0264344327 -0.716968894 0.418753177 0.0181953795 -0.907917798 -0.0309212189 0.996738911 0.0745348483 -0.0142948292 0.987321258 0.158089653 -0.332683742 0.158783168 0.929574847 -0.411991835 0.164620474 0.896193504 -0.353610218 0.126689985 0.926773667 -0.41386202 0.15836437 0.896459103 0.835533023 0.010194473 -0.549345672 0.861974537 0.0335238911 -0.505841911 0.17745176 0.0273619443 -0.983749032 0.515213966 0.0292824209 -0.856561184 0.245567843 0.330889225 -0.911157906 -0.0168669317 0.524435163 -0.851283312 -0.00490103103 0.999913573 0.0121991932 -0.00819781423 0.999945223 0.00651154993 -0.173532203 -0.913389266 0.368248105 -0.107481256 -0.821308494 0.560267925 -0.0361086912 -0.723400354 0.689483881 -0.0485798679 0.883944273 -0.465061843 -0.0127194421 0.725055277 -0.688573241 -0.756537974 0.492105007 -0.430677265 -0.127682567 0.919430137 -0.371948183 -0.980845273 0.178428665 -0.0781395435 0.0506197698 -0.0708651692 -0.996200681 0.051022023 -0.0703858361 -0.996214151 0.0464409627 -0.0758416951 -0.996037781 -0.254460394 -0.96156925 0.103123456 0.0346075036 0.999400973 0.000139159092 0.00246576616 0.999854386 -0.0168844853 -0.0215015858 0.999331653 -0.0295629613 0.0109712211 0.865698516 -0.500445485 -0.0293482654 0.974669635 -0.22171554 0.0167580731 0.983584821 -0.179666385 0.999999762 -0.000436216331 0.000531712023 0.999999762 -8.82289023e-05 -0.000672870665 0.999999762 -0.000128292595 -0.000680421246 0.0225072335 0.592030585 -0.80560118 -0.0101729417 0.500352263 -0.865762174 -0.00336557883 0.238323376 -0.971180022 0.0265745074 0.211865574 -0.976937473 -0.237161577 -0.177075669 0.955195606 -0.601400435 -0.539723277 0.58908087 -0.0278640203 -0.104274005 -0.994158208 0.959696352 0.0120394304 -0.280781031 -0.109218098 -0.483519971 0.868492842 -0.141935155 -0.264889598 0.953775585 0.266938835 -0.229981065 -0.935869873 0.225528136 -0.102956422 -0.968781233 0.932308555 -0.154810488 -0.326855391 0.986843526 -0.0470775776 -0.154672384 0.876599252 -0.0891927108 -0.472883105 -0.00014003356 -0.999998569 -0.00168224587 -0.000990441884 -0.999983847 -0.00559677742 0.0195789468 -0.999550939 -0.0226856917 -0.00555069279 -0.999982059 0.00225965772 -0.00433475524 -0.999550283 0.0296715591 -0.00412993971 -0.999892831 0.0140465498 -0.228833228 -0.0780414864 0.970332384 -0.239204034 0.0981929004 0.965991497 -0.154533967 0.203275383 0.966849685 0.0929210633 -0.394637316 -0.914126396 -0.345059007 -0.353668392 0.869398057 -0.0507000424 -0.998565853 0.0171978101 0.014331284 -0.353367507 -0.935374796 -0.00699701672 -0.999972939 0.00227071554 -0.0208806656 -0.999781311 -0.00117696135 0.999947727 -0.00109750603 -0.0101680476 -0.0942166299 -0.043524351 -0.994599819 0.0171264708 -0.424044251 -0.90547955 0.999999821 -0.000562560803 -3.97539916e-05 -0.00448660553 -0.0940936208 -0.995553255 -0.140911803 -0.52442795 -0.839713752 -0.999680042 -0.0250704046 -0.00336490129 -0.999664664 -0.0249930806 -0.00677966652 -0.188875899 -0.591197371 -0.784099221 0.0156957507 -0.985913098 0.166520119 -0.190941274 -0.976506233 -0.0998847708 0.0312254485 -0.945070565 -0.325371563 0.0376850776 -0.738419533 -0.673287749 -0.129474238 -0.774304748 -0.619425952 -0.688138008 -0.715887308 0.118200555 -0.663542271 -0.685834765 -0.298902005 0.0119782817 -0.91775924 -0.396956503 0.137340873 0.00424381206 0.990514755 0.441080421 0.0324131176 0.896882057 -0.143758699 0.00460005319 0.989602089 -0.283907861 0.0139669944 0.958749831 -0.0813123956 0.000668873661 0.996688426 0.0702483132 0.00425851438 0.997520447 -0.400185585 0.160043523 0.902351141 -0.954499006 0.0662043393 0.290772557 -0.988504946 0.132536575 0.0727459192 -0.987591505 0.142719865 0.0655287355 0.137008265 -0.0375358202 0.989858449 -0.00464480417 0.999967396 0.00660685683 -0.00564319175 0.999967873 -0.00569535606 0.0109812487 0.999935091 -0.00303971814 -0.988874793 -0.147248551 0.0210828669 -0.986805975 -0.158050254 0.0351297446 -0.976662815 -0.196812078 0.0859925076 0.367474526 -0.0766766593 0.926867366 0.0238425881 -0.0299278945 0.999267638 -0.0211459398 -0.96088165 0.276150912 0.0322757624 -0.182992175 0.982584417 -0.057253588 -0.958278656 0.280042887 -0.188888609 -0.0147433048 0.981887817 -0.234594613 -0.570698738 0.786936045 -0.239354819 -0.0138668045 0.970833123 -0.487764597 -0.0209856331 0.872722924 -0.00733423326 0.99994868 0.00698586926 -0.721758783 0.0223149359 0.691784859 -0.847999454 0.0107918205 0.529887259 -0.673450887 -0.00580921164 0.739209116 -0.00854962226 0.999950767 0.00503670098 -0.00750001473 0.999970913 0.0013737405 -0.620465279 0.544613719 0.564286113 -0.19313404 0.956260622 0.219692722 -0.234963134 0.959702373 0.154154882 -0.942019463 0.0293237902 0.334274501 -0.971417129 -0.0209521633 0.236452445 -0.745987833 0.569297373 0.345546901 -0.703425765 -0.572516322 0.421209246 -0.47240603 -0.579444468 0.664136052 -0.175915331 0.571812332 0.801301718 -0.442490578 0.569297135 0.692894518 -0.027973773 0.958297491 0.284399986 -0.141859725 0.957252324 0.252078921 -0.136995986 -0.956611097 0.257152259 -0.698372841 -0.011916684 0.715634882 -0.354702026 -0.672332287 0.649735153 -0.628396213 -0.426816404 0.650343001 -0.646272898 -0.681045711 0.344250053 -0.811602592 -0.571201265 0.122598246 -0.289866567 -0.953130722 0.0867132768 -0.287075102 -0.957886517 -0.00642385241 -0.282051325 -0.958312511 -0.0456533246 -0.96363318 -0.0558841005 0.261319786 -0.998314619 -0.0483488813 0.0320976339 0.00147061131 0.999997318 0.00178776949 0.00345503236 0.999993384 -0.00114522153 -0.00335119478 0.999993861 -0.00100993062 -0.0395936966 0.997051835 0.0657267049 -0.0395755246 0.997165084 0.0639967173 -0.166144341 -0.611745656 -0.773410141 -0.0382382609 -0.0494142286 -0.9980461 -0.180747703 -0.0060386695 -0.983510971 -0.139670089 -0.015168868 -0.990081906 0.0173947848 -0.0347866043 -0.999243379 -0.989638627 0.121236071 -0.0769231766 -0.955611885 0.0507156327 -0.290230662 -0.991940677 0.109417945 -0.0638854727 -0.122029357 0.94331795 -0.308642358 0.000737216847 0.647845447 -0.761771441 -0.154954433 0.525558054 -0.836527288 -0.452235758 0.153640598 -0.87856555 0.0982278511 0.160438493 -0.982146025 0.0337230079 -0.156897888 -0.98703891 -0.0240159817 -0.999463618 0.0222648233 -0.0295348186 -0.997895718 0.0577224381 -0.226662189 -0.857026219 0.462742209 0.363956869 -0.0383990481 -0.930623949 0.885008276 0.159112439 -0.437542737 0.443191558 -0.168811679 -0.880388498 -0.96968919 -0.226803124 -0.0909020305 -0.970119715 -0.223509178 -0.094400011 -0.971974611 -0.206514537 -0.112325862 0.97560358 0.181540877 -0.123452745 -0.00423072604 -0.999989092 -0.00196816842 -0.00177871971 -0.999993265 -0.00320894457 -0.352555901 -0.0283522997 -0.935361147 -0.999911845 -0.0051501086 -0.0122387176 -0.914886773 0.0374127477 -0.401973218 -0.976186574 -0.020948438 -0.215918943 -0.00241475576 0.999994576 -0.00224449043 -0.00390546396 0.999992371 0.000215109118 -0.243550241 0.957248032 -0.156075388 -0.21732071 0.955827415 -0.197903037 -0.732563674 0.574128509 -0.365686953 -0.668936193 0.0138067519 -0.74319154 -0.849491239 0.0127026532 -0.527449727 -0.666243494 -0.0024121115 -0.7457304 -0.17382215 -0.944245875 -0.279616773 -0.328241557 -0.549693823 -0.76817584 -0.490612179 -0.00461387448 -0.871365845 -0.439728409 0.00672917627 -0.898105621 -0.499843389 0.544314206 -0.673705161 -0.622964382 -0.52782321 -0.577337027 -0.268051893 0.963109195 0.0238516778 -0.286096364 0.953527093 -0.0945251584 -0.25006634 0.967710793 -0.0316652246 -0.889941812 -0.0124669438 -0.455903649 -0.708267868 0.000223578827 -0.705943763 -0.672478497 -0.0151304323 -0.739961982 -0.21309939 -0.953318536 -0.213944882 -0.870008051 -0.0107810432 -0.492919594 -0.853818655 -0.020292595 -0.520174921 -0.0764927194 -0.997050941 0.00618977658 -0.00967023149 -0.999953091 -0.000588538474 -0.999033749 -0.0245321691 -0.0364659131 -0.960109234 -0.0355659239 -0.27735424 -0.281589389 -0.95565778 -0.0861721188 -0.255469888 -0.957410276 -0.134538814 -0.246370986 -0.958431304 -0.1439123 -0.984671056 0.00904253963 -0.174187243 -0.985883772 0.0137284994 -0.166867524 -0.962034166 -0.034565784 -0.27073127 0.0155296242 0.999860168 0.00619926816 -0.00290363864 0.999989271 -0.00361646805 0.960720301 0.0286194012 0.276038915 0.830805004 0.0228283666 0.556095243 0.0190534797 0.999775887 0.00922907423 0.0390663631 0.443744749 0.895301282 -0.0282021947 0.998872161 -0.0381973125 -0.99997133 -0.00301677082 0.00694159698 -0.999997735 -0.00170448772 -0.00127628632 -0.999979138 0.00638867402 -0.000929724774 -0.171006486 -0.630834997 -0.756838202 -0.999991596 -0.00239579845 -0.00331898872 -0.99999696 -0.000277016748 -0.00243904977 0.0338901319 -0.112464942 0.993077576 -0.0587874725 -0.0222939458 0.998021543 0.0242345221 -0.103132769 0.994372308 0.129020274 -0.203624502 0.970510602 0.999495506 0.0316257514 -0.00293039321 0.998884082 0.047034651 0.00428088941 0.999139905 0.041432444 0.00165849249 0.0588419586 0.998182774 0.0129907075 0.99999404 0.00133227953 0.00319398334 0.999729991 0.00198683073 0.0231514852 0.999674618 0.0150135979 0.0206204671 0.89631623 -0.108260952 0.429996192 -0.414431006 -0.312222183 -0.854847491 -0.108860299 -0.97111392 -0.212337494 0.96663326 -0.231740177 0.109163076 0.940081239 -0.301178396 0.159808695 0.99999851 -0.00154836907 0.000776895205 0.999955952 -0.00934826676 0.000814698811 -0.123867944 -0.991648376 -0.035919819 0.0071451501 0.999973238 -0.00156712928 0.283752918 0.338064373 -0.897327602 -0.130471513 -0.904207289 0.406677216 -0.133597612 0.95804286 -0.253585398 0.0555882156 -0.0649410263 -0.996339619 0.999658287 0.0254888628 -0.00580099411 -0.043203529 0.999031484 -0.00833979528 -0.992936194 -0.0915309116 0.0754968897 0.627450943 -0.0592992231 -0.776394784 0.849096596 -0.0721357316 -0.523289084 0.00112773757 -0.998872578 0.0474579744 -0.11698398 -0.968547463 0.219614491 0.71196419 -0.0457264334 -0.700725377 -0.223079845 -0.971380472 0.0815806165 -0.0125425635 -0.998975277 0.0434863344 -0.139246672 0.195734337 0.970720589 -0.186507359 0.253879935 0.949083745 0.999998152 -0.00138822175 -0.00134682143 -0.558413804 -0.48695901 -0.671598792 -0.346990883 -0.0179582983 0.937696576 -0.506272733 0.00206640409 0.862370908 -0.470474601 -0.00571491197 0.882395029 0.0901865736 0.142859772 0.985625446 -0.000336589525 0.647281706 0.762250841 0.00288302731 0.958680511 0.28447029 -0.994659483 -0.0826312453 -0.0618433394 -0.2804842 0.956855595 0.0758682936 -0.987027705 0.0016807873 0.160541341 -0.22259061 -0.949584246 0.220778465 -0.230557561 -0.963585138 0.135450527 -0.861117303 -0.0147754196 0.508191586 -0.0458908603 -0.612726033 -0.788961887 6.0798975e-06 0.999997258 -0.00233190972 -0.0224998854 0.949216723 -0.313817382 -0.967252076 -0.242875263 -0.073722519 -0.422718853 0.00576140219 -0.906242549 -0.190784529 0.98161155 -0.00632537715 -0.00763890659 -0.999964952 -0.0034298813 0.012541187 -0.999890029 -0.00791459344</float_array>
          <technique_common>
            <accessor source="#normals_array" count="383" stride="3">
              <param name="X" type="float" />
              <param name="Y" type="float" />
              <param name="Z" type="float" />
            </accessor>
          </technique_common>
        </source>
        <vertices id="vertices">
          <input semantic="POSITION" source="#positions" />
        </vertices>
        <triangles material="qmat_d857164d36b11abb" count="396">
          <input semantic="VERTEX" source="#vertices" offset="0" />
          <input semantic="NORMAL" source="#normals" offset="1" />
          <p>0 0 1 1 2 2 3 3 4 4 5 5 4 4 6 6 7 7 3 8 8 8 9 8 3 3 10 9 4 4 3 10 11 11 12 12 10 9 1 1 0 0 13 13 6 14 14 15 15 16 13 13 14 15 16 17 17 18 18 19 19 20 20 21 21 22 22 23 23 24 24 25 22 26 25 27 23 28 23 24 26 29 24 25 22 26 27 30 25 27 26 29 21 31 28 32 23 28 29 33 26 34 26 34 30 35 21 36 29 33 30 35 26 34 29 33 17 37 30 35 29 33 25 27 17 37 31 38 32 39 33 40 34 41 35 42 36 43 8 44 1 45 9 46 2 2 37 47 38 48 18 19 17 18 39 49 25 27 27 30 35 42 40 50 37 51 1 52 40 53 1 45 8 44 1 1 37 47 2 2 41 54 2 55 38 56 17 18 34 57 39 49 36 43 42 58 31 38 43 59 44 60 45 61 46 62 47 63 48 64 46 62 48 64 49 65 48 66 50 67 51 68 12 12 43 59 32 39 52 69 45 70 44 71 46 62 53 72 47 63 50 73 54 74 51 75 48 66 55 76 50 67 43 59 56 77 44 60 52 69 53 72 46 62 55 76 54 74 50 73 53 78 55 76 47 79 11 11 57 80 43 59 43 59 57 80 56 77 52 69 58 81 53 72 59 82 60 83 55 76 46 84 61 85 52 69 49 86 51 87 62 88 42 58 12 12 32 39 33 40 63 89 39 90 33 40 32 39 63 89 39 90 64 91 65 92 52 69 61 85 45 70 46 93 66 94 61 95 66 94 67 96 68 97 64 91 69 98 65 92 39 49 65 99 69 100 70 101 71 102 72 103 73 104 74 105 75 106 75 107 37 47 76 108 77 109 78 110 76 111 78 110 79 112 76 111 80 113 81 114 73 104 82 115 75 106 83 116 77 117 84 118 70 101 74 119 81 120 37 47 85 121 86 122 87 123 88 124 89 125 90 126 91 127 90 126 86 128 19 129 92 130 20 131 28 32 20 132 85 121 93 133 94 134 19 135 88 124 18 136 89 125 92 137 18 136 88 124 30 35 16 138 92 137 95 139 18 19 96 140 18 19 97 141 96 140 89 125 95 142 98 143 98 143 96 144 99 145 98 143 99 145 70 101 90 126 84 146 100 147 70 101 99 145 101 148 41 54 38 56 102 149 84 118 98 143 70 101 103 150 76 111 37 151 89 125 98 143 90 126 87 123 100 147 103 150 72 103 104 152 105 153 106 154 62 155 107 156 62 157 108 158 109 159 107 160 110 161 111 162 112 163 113 164 111 165 71 102 114 166 104 152 112 163 104 167 113 164 115 168 62 157 109 159 71 102 116 169 114 166 101 148 116 169 71 102 106 170 107 160 111 162 117 171 106 170 111 162 18 19 39 49 97 141 96 140 97 141 118 172 119 173 97 174 116 169 39 49 120 175 97 141 99 145 118 176 119 173 116 169 121 177 114 166 111 178 121 179 66 94 116 169 122 180 121 177 123 181 124 182 120 183 122 180 125 184 126 185 125 184 122 180 97 174 127 186 128 187 124 182 124 182 128 187 129 188 66 94 121 179 128 187 126 185 129 188 128 187 6 14 130 189 7 190 131 191 132 192 133 193 130 189 134 194 7 190 5 195 135 196 57 80 7 197 134 198 5 195 5 195 134 198 135 196 130 189 133 193 134 194 53 78 60 199 59 82 131 200 136 201 132 202 137 203 58 204 57 205 58 206 138 207 60 199 138 208 137 209 139 210 138 207 54 211 60 199 137 209 140 212 139 210 139 213 141 214 54 211 131 200 130 215 136 201 142 216 143 217 144 218 142 219 136 201 145 220 146 221 144 222 143 223 143 217 145 224 147 225 146 221 143 223 148 226 146 221 148 226 149 227 146 221 149 227 150 228 151 229 152 230 140 212 151 229 133 231 153 232 140 212 150 228 141 233 141 214 154 234 155 235 154 234 156 236 155 235 155 235 157 237 54 74 149 227 158 238 159 239 160 240 158 238 161 241 159 242 162 243 157 237 13 244 73 245 82 246 83 247 76 108 79 248 163 249 108 250 164 251 165 252 82 115 166 253 82 115 83 116 166 253 83 254 167 255 166 256 168 257 167 258 169 259 79 260 72 103 105 153 167 258 105 261 170 262 169 259 167 258 170 262 171 263 172 264 173 265 108 266 172 267 171 268 174 269 105 270 172 271 174 272 172 267 108 266 54 74 175 273 164 274 165 252 166 253 168 275 176 276 136 277 177 278 136 201 13 244 178 279 178 279 13 244 179 280 180 281 181 282 182 283 136 277 178 284 180 285 178 284 168 275 181 286 180 285 178 284 181 286 183 287 184 288 163 249 183 289 164 251 175 290 182 283 185 291 186 292 187 293 177 294 188 295 188 295 180 281 182 283 182 283 186 292 189 296 183 287 186 292 184 288 190 297 183 289 191 298 190 299 186 292 183 287 185 291 184 288 186 292 183 289 175 290 191 298 192 300 190 297 193 301 157 237 162 302 194 303 193 301 190 297 191 298 160 304 195 305 162 243 160 240 161 241 195 306 192 300 193 301 195 305 195 306 189 307 192 308 188 309 189 296 161 310 195 305 193 301 194 311 13 13 130 189 6 14 13 244 196 312 41 313 196 314 0 315 2 55 196 314 15 16 0 315 13 244 15 316 196 312 9 46 1 45 10 9 8 317 3 10 12 12 3 3 9 46 10 9 14 318 10 9 0 0 15 16 14 15 0 315 4 4 10 9 14 318 6 6 4 4 14 318 3 10 5 195 11 11 30 35 17 37 16 138 25 27 34 41 17 37 93 319 19 20 21 22 24 320 103 321 37 51 27 322 22 23 40 53 22 23 24 25 40 53 103 321 28 323 85 324 24 25 26 29 28 32 24 320 28 323 103 321 23 28 25 27 29 33 197 325 93 326 21 327 28 32 21 31 20 132 30 328 197 325 21 327 94 329 197 330 30 331 93 133 197 332 94 134 34 41 25 27 35 42 31 38 42 58 32 39 36 43 35 42 42 58 35 42 12 12 42 58 35 42 8 317 12 12 39 49 31 333 33 334 40 50 24 320 37 51 41 54 196 314 2 55 39 49 34 57 31 333 34 57 36 335 31 333 40 53 8 44 27 322 27 30 8 317 35 42 49 86 48 336 51 87 12 12 11 11 43 59 48 66 47 79 55 76 51 75 54 74 62 157 56 337 52 69 44 71 55 76 53 78 59 82 57 338 52 69 56 337 52 69 57 338 58 81 55 76 60 83 54 74 117 339 49 340 62 155 63 89 43 59 45 61 63 89 45 61 64 91 63 89 32 39 43 59 46 62 49 65 117 171 39 90 63 89 64 91 69 98 64 91 66 94 67 96 127 186 123 181 123 181 127 186 124 182 68 341 123 342 120 175 68 97 67 96 123 181 69 98 66 94 68 97 120 175 39 49 68 341 61 95 66 94 64 91 64 91 45 343 61 95 67 96 66 94 127 186 68 341 39 49 69 100 71 102 70 101 101 148 13 244 80 344 73 245 75 107 74 119 37 47 78 345 77 117 70 101 79 260 70 101 72 103 83 247 75 107 76 108 13 244 41 313 80 344 73 104 81 114 74 105 84 146 77 109 76 111 80 113 41 54 102 149 79 260 78 345 70 101 82 115 73 104 75 106 80 113 102 149 81 114 87 123 86 122 100 147 86 128 90 126 100 147 91 127 88 124 90 126 85 121 91 346 86 122 20 347 92 137 91 127 91 127 92 137 88 124 85 121 20 132 91 346 19 129 94 348 92 130 94 329 30 331 92 349 92 137 16 138 18 136 89 125 18 136 95 142 98 143 95 142 96 144 38 48 37 47 102 350 81 120 102 350 37 47 85 324 87 351 103 321 103 150 84 146 76 111 90 126 98 143 84 118 103 150 100 147 84 146 112 163 173 265 104 167 108 266 171 268 109 352 115 353 107 156 62 155 111 162 110 161 112 354 173 265 105 355 104 167 173 265 172 264 105 355 110 356 107 156 115 353 109 352 110 356 115 353 114 357 113 357 104 357 72 103 71 102 104 152 110 161 171 358 112 354 110 356 109 352 171 268 112 163 171 263 173 265 111 165 113 164 114 359 106 154 117 339 62 155 119 173 118 176 97 174 101 148 99 145 119 173 99 145 96 144 118 176 101 148 119 173 116 169 111 165 114 359 121 360 46 62 117 171 111 162 46 93 111 178 66 94 116 169 97 174 122 180 120 183 129 188 126 185 120 183 124 182 129 188 126 185 125 184 120 183 125 361 97 141 120 175 128 187 121 179 198 362 121 177 122 180 126 185 198 362 121 177 126 185 127 186 66 94 128 187 126 185 128 187 198 362 5 5 4 4 7 7 133 363 132 364 153 365 57 366 135 367 137 209 135 367 151 229 137 209 151 229 135 367 134 368 133 231 151 229 134 368 130 215 13 244 136 201 53 78 58 206 60 199 11 11 5 195 57 80 137 203 138 369 58 204 151 229 140 212 137 209 138 207 139 213 54 211 130 189 131 191 133 193 139 210 140 212 141 233 54 211 141 214 155 235 132 364 142 216 153 365 142 219 132 202 136 201 153 365 142 216 144 218 142 216 145 224 143 217 145 224 176 276 147 225 148 226 143 223 147 370 149 227 148 226 158 238 187 293 148 226 147 370 148 226 187 371 158 238 152 230 146 221 150 228 146 221 153 232 144 222 146 221 152 230 153 232 140 212 152 230 150 228 152 230 151 229 153 232 141 233 150 228 154 372 154 372 150 228 149 227 154 372 149 227 199 373 154 234 199 374 157 237 155 235 156 236 157 237 154 234 157 237 156 236 157 237 199 374 159 242 199 373 149 227 159 239 159 242 160 304 162 243 159 239 158 238 160 240 187 371 161 310 158 238 174 375 163 249 170 262 163 249 184 288 170 262 108 158 54 74 164 274 163 249 174 375 108 250 13 244 82 246 165 376 83 254 79 260 167 255 168 257 166 377 167 258 167 255 79 260 105 153 62 157 54 74 108 158 174 269 170 378 105 270 183 289 163 249 164 251 179 379 165 252 168 275 179 280 13 244 165 376 185 291 169 259 184 288 185 291 168 257 169 259 184 288 169 259 170 262 177 278 136 277 180 285 187 293 147 370 177 294 147 225 176 276 177 278 176 380 145 220 136 201 178 284 179 379 168 275 185 291 181 282 168 257 182 283 181 282 185 291 188 295 177 294 180 281 188 309 182 283 189 296 187 371 188 309 161 310 54 74 191 381 175 273 54 74 193 382 191 381 190 299 192 308 186 292 192 308 189 307 186 292 54 74 157 237 194 303 54 74 194 303 193 382 195 306 161 241 189 307 162 243 195 305 194 311</p>
        </triangles>
      </mesh>
    </geometry>
  </library_geometries>
  <library_visual_scenes>
    <visual_scene id="scene">
      <node id="RR_hip_dae">
        <instance_geometry url="#geometry">
          <bind_material>
            <technique_common>
              <instance_material symbol="qmat_d857164d36b11abb" target="#qmat_d857164d36b11abb" />
            </technique_common>
          </bind_material>
        </instance_geometry>
      </node>
    </visual_scene>
  </library_visual_scenes>
  <scene>
    <instance_visual_scene url="#scene" />
  </scene>
</COLLADA>