<?xml version='1.0' encoding='utf-8'?>
<COLLADA xmlns="http://www.collada.org/2005/11/COLLADASchema" version="1.4.1">
  <asset>
    <created>2026-09-14T00:00:00Z</created>
    <modified>2026-09-14T00:00:00Z</modified>
    <unit name="metre" meter="1" />
    <up_axis>Z_UP</up_axis>
  </asset>
  <library_effects>
    <effect id="qmat_76551a3993c45b27_effect">
      <profile_COMMON>
        <technique sid="common">
          <lambert>
            <emission>
              <color sid="emission">0 0 0 1</color>
            </emission>
            <diffuse>
              <color sid="diffuse">0.6500053 0.68 0.6500053 1</color>
            </diffuse>
            <reflectivity>
              <float sid="specular">0.5</float>
            </reflectivity>
          </lambert>
        </technique>
      </profile_COMMON>
    </effect>
    <effect id="qmat_d857164d36b11abb_effect">
      <profile_COMMON>
        <technique sid="common">
          <lambert>
            <emission>
              <color sid="emission">0 0 0 1</color>
            </emission>
            <diffuse>
              <color sid="diffuse">0.85 0.85 0.85 1</color>
            </diffuse>
            <reflectivity>
              <float sid="specular">0.5</float>
            </reflectivity>
          </lambert>
        </technique>
      </profile_COMMON>
    </effect>
  </library_effects>
  <library_materials>
    <material id="qmat_76551a3993c45b27" name="qmat_76551a3993c45b27">
      <instance_effect url="#qmat_76551a3993c45b27_effect" />
    </material>
    <material id="qmat_d857164d36b11abb" name="qmat_d857164d36b11abb">
      <instance_effect url="#qmat_d857164d36b11abb_effect" />
    </material>
  </library_materials>
  <library_geometries>
    <geometry id="geometry" name="RR_thigh_dae">
      <mesh>
        <source id="positions">
          <float_array id="positions_array" count="540">0.0238144509 0.0499949604 0.0566443242 -0.0176645778 0.0495247021 0.0587003641 0.0190774482 0.0159511566 0.0592947155 0.0223064553 0.0762440711 0.0520056337 0.0557703897 0.0757635087 0.0221030097 0.0468864553 0.09898635 0.032256376 0.0185589809 0.0758852661 0.059131369 0.0479324423 0.0503734164 0.0385301597 0.0515372194 0.0989903808 -0.022618128 -0.0524918698 0.0989940241 -0.0186382961 0.0465814732 0.0760336593 -0.0319625959 0.0573265553 0.0758528933 -0.0213267263 0.0610159561 0.050697647 0.00615262892 0.0549390316 0.0506391153 -0.0268906187 0.0491874292 0.0158717055 0.0392933041 0.0348356552 0.0101554729 0.0531329028 0.0591762923 0.00849347189 0.0296796244 0.053542655 -0.0169927757 0.0385062695 0.0437000357 -0.00354002812 0.0563376732 0.0668620318 -0.00342452596 0.0243760273 0.0289967135 -0.0177227333 0.058832597 0.00453774165 -0.0212426968 0.066316843 0.0557240024 -0.0213440713 0.0348209739 0.0477132723 -0.0176343359 0.0278534591 -0.000573929923 -0.0250111483 0.000555673498 0.0560433529 -0.0164882243 -0.016933633 0.00396218197 0.00136083073 0.063900739 0.0288548097 -0.00828347262 0.05439087 0.0049313521 -0.00452486286 0.0689939782 0.0199592672 -0.027831085 0.0449868105 -0.0257615969 -0.0201607067 0.0586305819 0.0106669962 -0.031831719 0.0417379886 0.00379068125 -0.00367331947 0.0689939782 0.00178610918 -0.0185735021 0.0552051887 0.0224922188 -0.0345180817 0.0156019181 -0.0109572383 -0.0345312208 0.0364776812 0.0123890573 -0.0349512137 0.0320937596 0.0481732935 -0.0290893987 0.0152339349 0.0442286506 -0.0310755409 -0.0136733325 0.0588700809 0.014756225 -0.0250665396 0.0437963642 0.0493315384 -0.0428580083 0.0657837987 0.0146508301 -0.00107452681 0.0409502871 0.0135814985 -0.0462320484 0.0653290153 -0.0200064704 -0.0162015557 0.0502628013 -0.0113234529 -0.0345289782 0.0443823636 -0.00179949647 -0.0524563789 0.0566834025 -0.0216507409 -0.0208796319 0.0631289035 0.0119828666 -0.00438685901 0.066704087 -0.0170436855 -0.00498616928 0.0072602001 -0.0189466439 -0.0658965185 0.0132057564 -0.0344723649 -0.0219473951 -0.00574604701 -0.0360823721 -0.0157203786 0.0316606723 -0.0313353166 -0.0286841765 0.0155427074 -0.0357469358 -0.0075015733 -0.0537218302 0.0757538676 0.0313573927 -0.0593557917 0.0507368594 0.0154829444 -0.0440582559 0.0488668606 0.0426485725 -0.0160237905 0.0149354301 0.0614367314 -0.00749621075 0.0989999771 0.0552846603 -0.0249327421 0.0758348331 0.0527934544 -0.0474981889 0.0988733992 0.028043583 -0.0502051748 0.0760478154 0.0246201921 -0.0582062714 0.0757280067 -0.0112476945 -0.0200057961 0.0758416429 -0.055031158 -0.0463072136 0.0757255554 -0.0411987826 -0.0549399257 0.0498794168 -0.0256852247 -0.0342647433 0.0508409329 -0.050247144 -0.0497685596 0.0270339269 -0.0367607102 -0.060833618 0.0185073782 -0.0167998616 -0.0620264374 0.0158390626 0.00869497098 -0.0427567698 0.014945047 0.046127785 -0.0214523207 0.00746732298 0.0614087991 -0.044676017 0.0133787366 0.0435192026 -0.0364694856 -0.00708878366 0.0498205833 -0.0364628024 -0.00384363299 0.0613077693 -0.0494298562 -0.00407665782 0.0484857112 -0.0650080666 -0.00519741327 0.0190243199 -0.066126883 -0.00400669035 0.0265798103 -0.0536001362 -0.0172225591 0.0232387017 -0.0166654699 -0.0319182724 0.0339408964 0.00306306314 -0.0373709686 0.0106112091 -0.0514828451 -0.0213936195 0.0410835594 -0.0537113585 -0.0212432966 0.0279135536 -0.0420328677 -0.0284316596 0.0150410933 -0.0437340848 -0.027915597 0.0152365807 -0.0298420228 -0.0358255319 0.00927263871 -0.0651261583 -0.0160617027 -0.00298410933 -0.0344741978 -0.0311997999 0.027095126 -0.0402432457 -0.0288420245 0.0191393197 -0.0462238267 -0.0291174166 0.00918593816 0.013080663 -0.0296114851 -0.0478795618 -0.0188646354 -0.0320068821 -0.0429144874 -0.00651067961 -0.0354469828 -0.0330522396 -0.0361953303 -0.0312791541 -0.0151627036 -0.00515274238 -0.0366133042 -0.00320269167 -0.0450997166 -0.0310316775 -0.009027794 -0.0677883476 0.00296459533 -0.0323127322 -0.0652393401 0.00764294202 -0.0234050229 -0.0683084056 -0.00720227091 -0.0356205367 -0.0630933642 0.00530607579 -0.0754456893 -0.0596254915 0.00491725141 -0.0764674544 -0.0618534423 0.00833845884 -0.0355703197 -0.0514840968 0.0174893588 -0.0940909833 -0.062489517 -0.00173044158 0.0100123817 -0.0621280186 -0.0209121071 -0.0196596477 0.00969630852 0.0508363694 -0.0614568591 0.0232071821 0.021904435 -0.0594228692 -0.0129781282 0.0278008934 -0.0613422915 0.0303238928 0.0756732523 -0.0535680167 0.0123473154 0.0989999771 -0.0536088161 0.0393146351 0.0142310569 -0.0534080863 0.0391722359 0.0124140009 -0.0490585677 0.0389312916 0.0124210957 -0.0498050191 0.0391519889 0.0111586582 -0.0495425016 0.0150854867 0.00716241868 -0.0825220272 0.030890394 0.00260520307 -0.0643502995 0.0320815556 -0.00148514239 -0.0653723776 0.0190855525 0.00525621604 -0.0749807954 0.00904462673 -0.0109738503 -0.0822771713 0.00641670218 0.00594072277 -0.107661113 0.00818133727 0.00557898544 -0.0919040442 0.0107221538 0.00527285226 -0.0854415372 0.00267061801 0.00579129485 -0.11224471 -0.0151705258 0.0196853187 -0.119027697 0.0171094779 -0.00588308787 -0.0876042843 0.0133745847 0.00531529682 -0.0907481164 0.0210940205 -0.0166291222 -0.0808503032 0.0303915739 -0.0199789889 -0.0582196154 -0.018549338 -0.0228596162 -0.124346152 -0.0111767091 -0.0203138888 -0.122776009 -0.00358661916 -0.0176103134 -0.137672201 0.00525070494 -0.0049854191 -0.127898365 -0.0144266067 -0.0180309266 -0.117319718 0.00127005437 -0.0120596513 -0.1283319 0.0030229371 0.000340370258 -0.200340077 -0.0589936264 0.00591125339 -0.145106062 -0.0421675071 -0.0290655755 -0.0253252536 -0.0495508201 -0.0190333165 -0.135280415 -0.0282520764 -0.023576349 -0.100690737 -0.0485549495 -0.0187173728 -0.0957365856 -0.0580090061 -0.0107519887 -0.0959098786 -0.0595885366 -0.00924821384 -0.135957658 -0.0339370966 -0.0216181651 -0.109714836 -0.0285697822 -0.0234364346 -0.101760574 -0.0233902428 -0.022398077 -0.113963254 -0.0546756238 -0.0125504639 -0.100408152 -0.055178009 -0.0146544604 -0.101263627 -0.0559848733 -0.0137205077 -0.100239016 -0.00306470459 0.0137470858 -0.233159512 -0.0470801815 -0.0177308992 -0.242109448 -0.00216445117 0.0265047345 -0.248180985 0.00787132978 0.0163354147 -0.298256457 -0.00679333182 0.0283596236 -0.253658026 -0.00407731067 0.0145225739 -0.256297112 -0.0470951013 0.0164760295 -0.242306128 -0.00320632267 -0.0159467757 -0.236742333 -0.00137836358 -0.0284523945 -0.247346342 0.00735917129 -0.0225718357 -0.292886615 -0.00817121193 -0.0151925571 -0.266442746 -0.0383865573 0.0285252854 -0.32858488 0.0193110295 0.0281980447 -0.358100295 0.024966117 -0.0155386319 -0.349074841 -0.0502833948 0.0162118562 -0.317196131 -0.0533102788 0.0266695097 -0.272736937 -0.0529583395 0.00586181879 -0.304860204 -0.0587159395 0.00191305089 -0.242867157 -0.0518017374 -0.0141605577 -0.311981261 0.0235612988 0.0164958835 -0.364116073 -0.00512311468 0.0280844402 -0.367496639 -0.0179163292 0.016529819 -0.365400583 -0.00838929228 -0.0154766962 -0.374010175 0.0228433516 -0.0271145385 -0.360650182 -0.010301888 -0.028549673 -0.366803825 0.00122544332 -0.0297655333 -0.298018783 -0.0388971977 -0.0283707939 -0.331522644 -0.0547897182 -0.0296346191 -0.281801671 -0.0350037478 -0.0164649971 -0.34209162 0.0576489605 -0.00791462976 0.0240108445 -0.0289327446 0.0989587307 -0.0464756824 -0.0332520567 -0.0192376692 -0.104883656</float_array>
          <technique_common>
            <accessor source="#positions_array" count="180" stride="3">
              <param name="X" type="float" />
              <param name="Y" type="float" />
              <param name="Z" type="float" />
            </accessor>
          </technique_common>
        </source>
        <source id="normals">
          <float_array id="normals_array" count="957">0.372806668 0.00419840217 0.927899539 -0.255833387 0.0724225864 0.964004278 0.29045704 0.208118379 0.933981478 0.371076643 0.171550304 0.912618577 0.945342779 0.125863209 0.300808132 0.59514147 0.662061572 0.45550099 0.222766548 0.622151434 0.750534892 0.775098324 0.070227772 0.627925634 0.913164973 0.136062488 0.384209186 4.01708166e-05 1 0.000134521571 -0.000771631952 0.999999344 0.00082735403 0.920293391 0.0574798137 -0.386983424 0.537296355 0.756565034 -0.372722477 0.937787473 0.0579344742 -0.342342347 0.991531849 0.0711229071 0.10865584 0.904622078 0.0611606464 -0.421803623 0.757443488 0.236408323 0.608597159 -0.566589534 -0.112846859 -0.816236436 -0.901735306 -0.0183263086 -0.431899905 -0.719097316 0.44079408 -0.537214637 0.578867912 -0.0252865236 0.815029144 0.950466394 0.0162677374 0.310401291 -0.397638768 0.474162161 -0.785527647 0.0560513958 -0.5806427 0.812226772 0.643882692 -0.631464362 0.432050765 0.483654439 -0.811753631 0.32731387 0.00802572351 -0.999735355 0.0215597972 0.482085943 -0.873453498 -0.068353273 0.587624907 -0.158145398 0.793528199 0.0168126803 -0.354658872 0.934844613 0.449395657 -0.438241422 0.778452277 -0.0591558218 -0.0464240648 -0.99716866 0.27359286 -0.880195022 0.387819052 -0.178438067 0.868632019 -0.462210208 0.322983444 0.537494183 -0.778961897 0.168008015 -0.922459006 0.347624332 0.0572678596 0.0830133036 0.994901597 -0.0172360633 -0.782492459 0.622421443 0.313364357 -0.919759095 0.236317679 -0.206452414 -0.948585987 0.239920765 0.214869767 -0.930434704 0.296853811 -0.42210272 0.875399232 -0.235595912 -0.236591727 0.893688917 -0.381240755 -0.20561181 0.959680617 -0.191668704 -0.426558137 0.898503244 -0.103634588 -0.243120924 0.962467015 -0.120620996 0.546115398 -0.776569307 0.314162552 0.338554859 -0.931862295 -0.13043502 0.902247846 0.090687491 -0.421573937 0.691186488 0.062665157 -0.719954371 0.989094436 0.146222368 -0.0176418498 0.606281161 -0.0608898848 -0.792915881 0.844138563 -0.481414169 -0.235945821 0.38286975 -0.917208731 0.110176682 -0.877939343 -0.477044821 0.0406289808 -0.87169385 -0.0403444357 0.488387287 -0.903361917 0.192741215 0.383129358 -0.988971531 -0.123498715 0.0817521065 -0.787270784 -0.350489974 0.507308125 -0.917412817 0.350198746 0.188983038 0.246906877 -0.94829005 -0.199456662 0.552532554 -0.649021685 -0.522951901 -0.259302288 -0.38068077 -0.887606025 0.0534773581 -0.977579951 -0.203660667 0.262788743 -0.935507655 -0.236151531 -0.737945557 0.495334059 -0.458345413 0.160238251 -0.987075567 -0.00233885716 -0.863599122 0.0566090234 0.500990987 -0.976140797 0.0279345084 0.215334207 -0.713385463 0.0266942866 0.700263262 -0.210586131 0.207455412 0.955309212 -0.0645485744 0.65188241 0.755567849 -0.439558357 0.128688857 0.888947487 -0.399379343 0.124359779 0.908312082 -0.871510744 0.111898951 0.477438658 -0.036801286 0.999025226 0.024377998 -0.0253997762 0.999216914 0.0303372797 -0.584527254 0.774578035 0.241571307 -0.00125519838 0.999998331 0.00131062593 -0.961327553 0.229546875 -0.152176231 -0.929126918 0.0785043165 -0.361331195 -0.311338246 0.099223204 -0.945104897 -0.74586761 0.0125714717 -0.66597563 -0.920506001 0.0460193157 -0.388008982 -0.988509119 0.0399781056 -0.145778775 -0.529677987 0.00765120797 -0.84816432 -0.765835643 0.478360057 -0.429729521 -0.946583211 0.298027873 -0.123124197 -0.964065135 0.2005997 0.17417869 -0.699409902 0.224189624 0.678649306 -0.331091672 -0.354573697 0.874445975 -0.760849118 -0.079395324 0.644053578 -0.534293652 -0.434452266 0.725107908 -0.49185124 -0.0455375873 0.869487584 0.671947002 -0.366162658 -0.643748522 0.364960432 0.0185701065 -0.93083781 0.715112805 0.0404524617 -0.697837532 0.95147872 0.1698495 -0.256591767 -0.94112879 -0.023303261 0.337244064 -0.64708513 -0.691697478 0.320679545 0.206054285 0.939523578 -0.273563772 0.397284836 0.9013623 -0.172368214 0.294013023 0.955466151 0.0253144167 0.656027794 0.67584008 -0.335957915 -0.359477133 -0.865276873 0.349388212 -0.155431062 -0.754096866 0.63810581 -0.475266814 -0.872442544 0.113865837 0.391762078 0.910491288 0.132393822 0.538906634 0.834052563 -0.118050463 0.848871112 0.526567996 -0.0463032909 -0.27749756 -0.925765753 0.256812871 -0.607577443 -0.641593874 0.468195379 -0.0644040927 -0.975082517 0.212288067 -0.717288554 -0.0926216245 -0.690592706 0.580269277 -0.745439053 -0.328036845 -0.617111742 -0.683592737 0.389710337 -0.467182547 -0.810535669 0.35323143 -0.339463353 -0.886065006 0.315679431 0.351174295 0.849914253 -0.392838836 0.596547782 0.730918944 -0.331493884 -0.248767123 0.956966281 0.149433628 0.021852687 0.999162018 0.0346084014 0.307581693 -0.904196024 0.296349585 -0.377372205 -0.778590977 -0.501384437 -0.180577636 -0.978819907 -0.096453689 -0.140084624 -0.966243088 -0.216218919 0.0213476457 -0.999675572 -0.013893432 0.132762209 0.989678025 0.053959664 -0.128349364 0.990408838 0.0511547849 -0.0366296992 0.993971944 -0.103334509 -0.292008013 -0.95634383 0.0117404442 -0.957282662 0.286317915 0.0403973386 -0.94961971 0.296611696 0.101212263 -0.176395357 0.945457578 0.273851395 -0.977850616 -0.20742245 -0.0280020591 0.996995151 -0.0509563275 -0.0583451316 -0.855276525 0.515074968 -0.0565671511 -0.948760808 0.300440758 -0.0979198962 -0.553878903 0.829030454 -0.0769848675 -0.984907508 -0.173044056 0.00359421666 -0.748952568 -0.662577271 0.00783559401 0.127740189 0.0932387114 -0.987415314 0.587222278 0.133360475 -0.798363924 -0.240945265 0.0700025931 -0.968010843 0.506558478 0.237620279 -0.82881552 0.212424427 0.201018393 -0.956277907 0.754073381 0.175863102 -0.632807612 0.803160012 0.0220407657 -0.595355511 -0.946952164 -0.102187574 0.304695487 0.8659302 0.186819598 -0.46396476 0.748928964 0.187902808 -0.635450959 0.732260287 0.215007007 -0.6461941 -0.538847566 0.816048026 0.209066898 -0.733608723 0.467108935 0.493586302 -0.287173927 0.945889711 0.151075304 -0.811966956 -0.368571758 0.452619553 -0.666608393 -0.476647168 0.573097527 -0.664044142 -0.398009241 0.632956564 0.753769577 -0.549643397 -0.360171586 0.630906105 -0.607356727 0.482778698 0.660682321 -0.607176065 0.441402465 0.637485325 -0.607451439 0.473935843 0.544181585 0.776457429 -0.317773938 0.887221098 0.178070769 -0.425593197 0.910276651 0.119562469 -0.39635995 -0.993669391 0.0130704809 0.111581199 0.606532574 -0.526000261 -0.596189559 0.757325709 -0.485164672 -0.437119037 0.707700431 -0.676000237 -0.205387026 0.45078972 0.870007277 -0.199689612 0.248924494 0.963054001 -0.102779023 0.0106805945 0.99013555 -0.139704943 0.588601589 0.750614703 0.300209612 0.822219312 0.390482068 0.414100349 0.408199102 0.88910079 0.207058504 -0.824832022 0.0895100683 -0.558247328 -0.984823823 -0.0966287106 -0.144169614 -0.937492669 -0.242638394 0.249467745 -0.624094486 0.197668225 -0.755932152 0.763897181 -0.438083351 -0.4738608 -0.588029027 0.693368673 0.416487336 -0.596659601 -0.584693909 0.549663901 -0.898136795 -0.203849569 0.389609665 0.0864607915 -0.991999269 -0.0919889212 0.0942507982 -0.991178513 -0.0931770951 -0.253166616 0.939534187 0.230612606 0.598948359 -0.794977486 -0.0962893069 0.942473471 0.240044028 -0.232642755 0.967652321 -0.177369446 -0.179413021 0.104964435 -0.956843615 0.270984769 0.295141011 -0.936493278 0.189399272 0.981429875 -0.0205158442 -0.19072105 0.806088388 -0.57899332 -0.122426488 0.0355549715 0.997468889 -0.0615764558 0.999225974 0.0111271357 -0.0377313793 -0.493101925 0.869705915 -0.0214972012 -0.935075343 0.353348136 -0.0279133897 0.01524009 -0.994772255 -0.100974731 -0.427452445 -0.902299047 -0.0560428575 0.0844840258 0.98840183 0.126191422 -0.294258237 -0.955308855 -0.028233638 -0.803097427 -0.595416725 -0.0226586107 0.448695421 0.887610614 0.10401842 0.783319771 0.614302158 0.0950949863 -0.919772863 -0.387707025 -0.0608368628 0.438931644 0.895345509 0.0754681677 0.191446543 0.969878435 0.150612399 0.175107047 0.966031849 0.190052494 0.12629889 0.942511618 0.309387207 0.317263633 0.788589895 0.526754022 0.280720234 -0.871137321 0.402884454 -0.480053991 0.426350534 -0.76666379 0.709060907 0.697197497 0.105585478 -0.522494912 -0.830713987 0.19212842 0.460379511 0.76780808 0.445557535 0.976898909 0.130406857 0.169300318 0.923440993 0.322468728 0.208016068 0.121137038 0.966585338 0.22591728 0.0294594336 -0.998961031 -0.0347706899 0.587177575 -0.771435201 -0.245173752 0.00969815999 -0.999720573 -0.0215569735 -0.455098391 0.862727106 0.220425382 0.719043374 -0.67458868 0.167053252 0.551839948 -0.717823863 0.424501538 0.977723002 -0.0811678991 0.193570301 0.814911425 -0.554364085 0.169114918 0.864030361 0.0519336313 -0.50075382 -0.522467494 0.798359513 -0.299415857 0.176015988 0.869980633 -0.46059975 0.889163792 -0.396142334 0.229039311 -0.871358275 0.428336203 -0.23929669 -0.671648204 0.73788327 0.0664598867 0.705800712 -0.233748674 -0.668735325 0.219705865 -0.95860368 -0.181130499 -0.992771149 0.069435522 -0.097898595 -0.995298028 0.0670194179 0.0699299425 0.670068264 0.245248526 -0.700615227 0.944163561 0.231321543 0.23461777 0.00126370066 -0.99999094 -0.00406452967 -0.107803568 0.622120976 -0.775463641 0.243071482 0.336237013 -0.909868658 -0.535396516 0.397623301 -0.74514854 -0.000601375417 -0.999975324 -0.00699980929 0.0522011332 0.99863553 0.00144885189 0.187543005 0.950299919 -0.248511031 -0.175499424 0.43896538 -0.881197691 0.726661146 -0.434241414 -0.532351315 -0.276059031 -0.757666826 -0.591381729 0.347263455 -0.935172141 0.0697221234 -0.584436238 -0.738586664 -0.336041659 -0.94487679 -0.219001755 -0.243405163 -0.695223868 -0.718631804 0.015236021 -0.783313274 -0.242912486 -0.572200835 0.00384488492 0.999821007 -0.0185234193 -0.35010159 0.898711443 -0.264095902 0.0778344274 0.99281168 0.0909218565 -0.000162142911 1 -0.000130461238 0.0187828671 0.999821603 -0.00198259158 0.0142779415 0.999894738 0.00256940303 0.975922406 -0.21481593 0.0378095359 0.849390209 -0.241237998 0.469404459 0.855346978 -0.402243048 0.326469094 -0.0793534145 -0.659741819 -0.747290909 -0.485066026 0.873902857 -0.0316968188 0.509862721 -0.0161320828 0.860104501 -0.00913660042 0.974739373 0.223158404 0.729130626 -0.514174342 0.451656103 0.166138649 -0.985757351 0.0260835215 -0.268750042 0.941344142 0.20407021 -0.332501292 0.938007116 -0.0979060084 0.341919422 0.922225177 0.180532023 -0.751416564 -0.363977253 -0.550357759 0.127083763 -0.982985556 0.132624105 -0.689715922 0.571253598 -0.444928348 -0.00788390636 0.998903334 0.0461521931 -0.584803581 0.0731575862 -0.807869256 -0.00142693915 0.999995947 -0.00247572339 -0.00563381147 0.999981463 -0.00232092524 0.715935886 -0.694918573 -0.0672601163 -0.314531624 -0.946912825 -0.0665275902 0.394525588 0.918388247 -0.0302099325 0.437753469 0.89332366 -0.101708807 -0.514287949 -0.857529581 0.0122842891 -0.252611727 -0.923882067 0.287453055 0.369778574 0.900051415 -0.230588958 -0.438054144 -0.889719546 0.128482029 0.429750264 0.886009455 -0.174074456 -0.189453617 -0.897310317 0.398674697 -0.997776985 0.0215705689 -0.0630542785 -0.963615656 0.00535992207 -0.267237961 0.984715521 -0.165785447 -0.053390529 0.896624506 -0.427300483 0.116098002 0.722615242 -0.671827495 0.162711471 0.920231521 -0.382493913 0.0828993991 0.631190538 -0.764316916 0.131977931 -0.227460355 0.963803351 0.139086023 -0.737367034 0.449047923 0.504624426 0.971592784 -0.137795076 -0.192405924 0.919608295 -0.164439455 -0.356763631 0.045843441 0.998709381 0.0218630582 0.667775929 -0.606888294 0.431001037 0.0467742197 0.998748839 0.0176903307 -0.845531225 -0.512882173 0.148421198 -0.864197195 -0.307928175 0.397923946 -0.747989118 0.525348127 0.405612648 0.928776383 0.18077758 -0.32356438 -0.679747581 -0.460862041 0.570569336 0.0990246311 -0.77074635 0.629399896 0.923504651 -0.383586943 0.000454088149 0.97614783 0.199282795 0.0861497074 -0.0342090018 -0.934015453 -0.35559082 0.173974603 -0.968469501 -0.178324535 0.524082422 0.800565124 0.290573806 -0.425361484 -0.832729399 -0.354442269 -0.135230437 -0.984985292 -0.107315734 -0.501383185 -0.826174021 -0.257004678 -0.111483164 -0.985164285 -0.130471408 0.138865933 0.990306973 -0.0028974344 0.945980966 0.222213626 0.236095488</float_array>
          <technique_common>
            <accessor source="#normals_array" count="319" stride="3">
              <param name="X" type="float" />
              <param name="Y" type="float" />
              <param name="Z" type="float" />
            </accessor>
          </technique_common>
        </source>
        <vertices id="vertices">
          <input semantic="POSITION" source="#positions" />
        </vertices>
        <triangles material="qmat_76551a3993c45b27" count="210">
          <input semantic="VERTEX" source="#vertices" offset="0" />
          <input semantic="NORMAL" source="#normals" offset="1" />
          <p>14 16 18 20 19 21 18 20 21 23 22 24 18 20 22 24 19 21 28 31 15 17 20 22 21 23 29 32 22 24 20 22 29 33 30 34 21 23 31 35 29 32 28 31 20 22 30 34 18 20 32 36 21 23 29 32 31 35 34 38 31 35 35 39 36 40 29 33 34 41 36 42 31 43 37 44 34 45 36 40 34 46 38 47 41 50 19 21 43 52 37 53 38 47 43 52 44 54 45 55 46 56 25 58 46 56 48 59 44 54 46 56 25 58 50 62 51 63 52 64 35 65 52 65 53 65 38 47 53 66 52 64 36 40 38 47 37 53 57 70 70 89 74 93 72 94 71 95 75 96 72 94 75 96 76 97 70 89 69 88 77 98 35 100 79 101 30 34 30 34 36 42 35 100 32 36 74 93 21 23 79 102 80 102 81 102 75 96 30 34 82 103 83 104 84 105 85 106 84 107 83 108 86 109 87 110 81 111 85 112 88 113 51 113 85 113 83 114 88 114 89 114 88 115 84 116 89 117 82 103 79 101 87 118 89 119 90 120 91 121 92 122 93 123 91 124 94 125 85 112 50 126 87 118 94 127 51 128 89 119 91 121 93 129 95 130 93 123 92 122 68 87 96 131 97 132 98 133 86 133 99 133 97 132 96 131 98 134 98 135 76 97 86 109 69 88 98 134 77 98 77 98 104 140 81 111 86 109 83 108 89 119 77 98 98 134 104 140 110 146 39 48 45 147 111 148 112 148 113 148 114 149 115 150 116 151 110 146 45 147 115 150 110 152 117 153 42 154 42 155 117 156 115 157 114 166 121 167 120 168 121 172 124 173 125 174 124 175 114 176 125 177 126 179 45 147 43 52 45 55 127 180 46 56 52 64 126 179 43 52 116 181 124 182 45 55 115 157 117 156 116 181 92 122 91 124 128 183 90 184 128 183 52 64 90 120 127 180 129 185 128 183 130 186 126 179 119 187 126 179 131 188 122 169 119 193 134 194 99 195 135 196 96 131 136 197 95 130 137 198 91 121 129 185 138 199 91 124 137 198 128 183 86 109 139 202 140 203 96 131 141 204 98 134 136 205 142 206 139 202 95 130 104 140 137 198 138 199 129 185 143 207 143 207 129 185 144 208 136 205 138 199 142 206 99 195 100 136 135 196 137 198 104 140 141 204 98 134 141 204 104 140 134 194 119 187 131 188 148 212 122 169 134 194 131 188 130 186 134 194 137 198 149 213 128 183 155 222 149 213 156 223 128 183 149 213 155 222 155 224 156 223 157 225 170 245 171 246 172 247 173 248 172 247 171 246 166 250 174 249 175 251 41 50 14 16 19 21 22 24 29 32 37 53 20 22 17 19 37 44 37 44 17 19 48 59 2 2 57 70 32 36 2 2 18 20 14 16 18 20 2 2 32 36 30 34 29 33 36 42 21 23 35 39 31 35 29 33 20 22 37 44 31 35 36 40 37 53 44 54 42 155 45 55 39 48 41 50 43 52 45 147 39 48 43 52 37 44 48 59 46 263 22 24 37 53 43 52 43 52 19 21 22 24 34 45 37 44 46 263 80 264 38 264 46 264 51 128 94 127 90 120 52 64 51 63 90 184 94 127 50 265 90 120 50 265 127 180 90 120 52 266 35 266 80 266 38 47 80 267 53 66 50 265 52 268 127 180 52 268 46 56 127 180 52 268 80 269 46 56 79 101 35 100 53 270 80 271 79 271 53 271 51 272 50 126 85 112 34 45 46 263 38 273 57 70 74 93 32 36 71 95 26 262 28 31 77 98 74 93 70 89 74 93 81 111 21 23 35 39 21 23 81 111 35 39 81 111 80 279 74 93 77 98 81 111 82 103 30 34 79 101 82 103 88 280 83 281 82 282 83 104 85 106 86 109 82 103 84 107 84 116 82 283 89 117 85 284 89 284 82 284 85 112 81 111 89 285 76 97 75 96 82 103 76 97 82 103 86 109 87 118 88 280 82 103 88 286 85 286 84 286 79 287 81 111 87 110 89 285 92 122 90 184 94 125 87 110 85 112 88 280 87 118 51 128 68 87 101 137 96 131 69 88 68 87 97 132 69 288 103 139 76 289 69 290 76 97 98 135 101 291 97 292 98 293 101 291 69 294 97 292 89 285 104 140 95 130 92 122 89 285 95 130 86 109 89 119 136 205 89 285 81 111 104 140 89 119 93 129 136 205 93 123 95 130 136 197 42 154 39 295 110 152 117 153 110 152 114 296 45 55 42 155 115 157 114 149 110 146 115 150 122 191 114 166 120 168 120 299 121 172 125 174 120 299 125 174 119 301 124 182 121 302 119 303 126 179 116 151 45 147 114 149 116 151 126 179 45 55 124 182 127 180 116 181 117 156 124 182 38 47 52 64 43 52 90 184 92 122 128 183 131 188 126 179 130 186 124 182 133 304 127 180 129 185 127 180 133 304 125 305 114 149 126 179 126 179 52 64 128 183 119 187 125 305 126 179 124 182 119 303 133 304 96 131 135 196 141 204 101 137 99 195 96 131 99 308 101 291 98 293 91 124 136 197 137 198 136 205 91 121 138 199 91 121 90 120 129 185 86 109 136 205 139 202 140 203 99 309 86 109 129 185 142 206 144 208 143 310 132 189 138 311 179 312 143 207 144 208 138 313 179 314 144 315 142 206 138 199 144 208 137 198 141 204 149 213 141 204 165 235 149 213 135 196 165 235 141 204 130 186 128 183 155 222 134 194 130 186 155 222 165 235 175 251 149 213 157 225 156 223 173 248 173 248 156 223 175 251 164 234 166 250 175 251 171 246 161 229 157 225 157 225 173 248 171 246 175 251 174 249 173 248 174 249 176 252 172 247</p>
        </triangles>
        <triangles material="qmat_d857164d36b11abb" count="184">
          <input semantic="VERTEX" source="#vertices" offset="0" />
          <input semantic="NORMAL" source="#normals" offset="1" />
          <p>0 0 1 1 2 2 3 3 4 4 5 5 6 6 7 7 4 8 5 5 8 9 9 10 8 11 4 4 10 12 11 13 12 14 13 15 12 14 7 7 14 16 15 17 16 18 17 19 15 17 17 19 20 22 23 25 24 26 25 27 15 28 26 29 27 30 7 7 2 2 14 16 0 0 2 2 7 7 27 30 33 37 23 25 33 37 24 26 23 25 13 15 39 48 40 49 12 14 41 50 39 48 40 49 39 48 42 51 47 57 25 58 48 59 25 27 49 60 44 61 25 27 24 26 49 60 54 67 55 68 56 69 1 1 57 70 2 2 58 71 59 72 3 3 6 6 59 73 1 1 58 71 60 74 59 72 54 75 59 76 61 77 60 78 5 5 9 10 54 75 61 77 62 79 9 80 63 81 62 79 9 80 62 79 61 77 64 82 65 83 62 84 64 82 66 85 65 83 65 83 67 86 68 87 55 68 65 83 68 87 55 68 68 87 69 88 1 1 70 89 57 70 71 90 72 91 73 92 71 90 73 92 26 29 72 91 78 99 73 92 56 69 69 88 70 89 55 68 69 88 56 69 33 37 78 99 24 26 100 136 101 137 68 87 68 87 102 138 100 136 68 87 67 86 102 138 101 137 100 136 103 139 105 141 106 142 107 143 63 81 108 144 105 141 40 49 105 141 108 144 105 141 42 51 106 142 66 85 105 141 107 143 109 145 108 144 63 81 106 142 44 61 118 158 42 51 44 61 106 142 106 159 118 160 117 161 106 162 117 163 114 164 119 165 118 165 120 165 106 162 122 169 123 170 106 162 114 164 122 169 107 171 106 162 123 170 114 176 124 175 118 178 118 158 132 189 129 190 122 191 118 158 133 192 49 60 132 189 118 158 118 158 129 190 133 192 132 189 49 60 139 200 100 136 140 201 103 139 103 139 140 201 78 99 139 209 138 209 132 209 132 189 142 210 129 190 145 211 146 211 147 211 150 214 148 215 151 216 152 217 150 214 151 216 148 218 153 219 151 220 152 217 154 221 148 212 153 219 155 222 158 226 153 219 148 212 155 222 159 227 152 217 160 228 155 224 157 225 161 229 162 230 163 231 159 227 153 219 164 232 162 233 163 231 164 234 165 235 153 219 158 226 166 236 164 232 153 219 166 236 152 217 151 216 167 237 151 220 162 233 167 238 159 227 160 228 168 239 168 239 167 240 169 241 162 233 169 242 167 238 155 243 161 244 170 245 159 227 169 241 162 230 159 227 168 239 169 241 173 248 174 249 172 247 166 250 176 252 174 249 176 252 170 245 172 247 166 253 170 245 176 254 7 7 6 6 0 0 12 14 4 8 7 7 6 6 4 8 3 255 5 5 58 71 3 3 9 10 8 9 109 256 108 144 11 13 13 15 11 13 4 8 12 14 10 12 11 257 108 144 8 11 5 5 4 4 4 258 11 257 10 12 108 144 13 15 40 49 47 259 16 260 177 261 16 260 15 28 177 261 12 14 14 16 41 50 27 30 23 25 177 261 177 261 15 28 27 30 17 19 16 18 48 59 26 262 15 17 28 31 27 30 26 29 33 37 13 15 12 14 39 48 16 18 47 57 48 59 177 261 23 25 25 27 47 259 177 261 25 27 1 1 59 73 56 69 6 6 1 1 0 0 60 78 58 71 5 5 59 274 6 6 3 255 59 73 54 67 56 69 60 74 61 77 59 72 60 74 9 80 61 77 9 80 178 275 63 81 178 276 9 10 109 256 64 277 62 277 63 277 62 84 65 83 55 68 54 67 62 84 55 68 1 1 56 69 70 89 103 278 72 278 76 278 72 91 103 139 78 99 75 96 28 31 30 34 75 96 71 95 28 31 26 29 73 92 33 37 33 37 73 92 78 99 24 26 139 200 49 60 101 137 103 139 69 288 24 26 78 99 139 200 109 145 8 11 10 12 109 145 10 12 108 144 105 141 40 49 42 51 66 85 63 81 105 141 67 86 66 85 107 143 64 82 63 81 66 85 178 275 109 145 63 81 65 83 66 85 67 86 122 191 120 168 118 158 119 297 121 167 118 298 121 167 114 166 118 298 118 160 124 300 117 161 118 158 44 61 49 60 119 303 122 306 133 304 102 138 67 86 123 170 102 138 135 196 100 136 100 307 99 307 140 307 67 86 107 171 123 170 140 201 139 200 78 99 139 316 179 314 138 313 132 189 179 314 142 210 179 314 132 189 143 310 179 314 139 316 142 210 148 212 123 170 122 169 102 138 154 221 135 196 135 196 154 221 165 235 102 138 123 170 154 221 148 212 134 194 155 222 152 217 148 212 150 214 123 170 148 212 154 221 156 223 149 213 175 251 152 217 163 231 154 221 165 235 154 221 163 231 151 220 153 219 162 233 158 317 155 243 170 245 163 231 162 230 164 234 163 231 152 217 159 227 165 235 164 234 175 251 166 253 158 317 170 245 160 318 152 217 167 237 168 239 160 228 167 240 170 245 161 244 171 246</p>
        </triangles>
      </mesh>
    </geometry>
  </library_geometries>
  <library_visual_scenes>
    <visual_scene id="scene">
      <node id="RR_thigh_dae">
        <instance_geometry url="#geometry">
          <bind_material>
            <technique_common>
              <instance_material symbol="qmat_76551a3993c45b27" target="#qmat_76551a3993c45b27" />
              <instance_material symbol="qmat_d857164d36b11abb" target="#qmat_d857164d36b11abb" />
            </technique_common>
          </bind_material>
        </instance_geometry>
      </node>
    </visual_scene>
  </library_visual_scenes>
  <scene>
    <instance_visual_scene url="#scene" />
  </scene>
</COLLADA>