<?xml version='1.0' encoding='utf-8'?>
<COLLADA xmlns="http://www.collada.org/2005/11/COLLADASchema" version="1.4.1">
  <asset>
    <created>2026-09-14T00:00:00Z</created>
    <modified>2026-09-14T00:00:00Z</modified>
    <unit name="metre" meter="1" />
    <up_axis>Z_UP</up_axis>
  </asset>
  <library_effects>
    <effect id="qmat_c90f2351a1b48e4d_effect">
      <profile_COMMON>
        <technique sid="common">
          <lambert>
            <emission>
              <color>0 0 0 1</color>
            </emission>
            <diffuse>
              <color>0.89804314 0.91765098 0.92549412 1.0</color>
            </diffuse>
          </lambert>
        </technique>
      </profile_COMMON>
    </effect>
  </library_effects>
  <library_materials>
    <material id="qmat_c90f2351a1b48e4d" name="qmat_c90f2351a1b48e4d">
      <instance_effect url="#qmat_c90f2351a1b48e4d_effect" />
    </material>
  </library_materials>
  <library_geometries>
    <geometry id="geometry" name="base_link_stl">
      <mesh>
        <source id="positions">
          <float_array id="positions_array" count="111">0.0228352249 0.0207988359 0.0582537018 0.0304692909 -0.000544916315 0.0575889684 0.0289625861 0.0112705119 0.00958495494 0.0168759674 -0.0124861719 0.0574073084 0.0154728675 0.0140513629 0.0571415834 -0.00312768877 0.00456260517 0.0554681793 0.014135763 6.56837947e-05 0.0545946732 -0.012135664 0.01574542 0.0579632409 -0.0227634609 0.0210240614 0.0106278621 -0.0298939701 0.00706431223 0.00180732645 -0.0302350242 0.00866580848 0.0579950139 -0.0182900336 -0.0100846114 0.0573662184 -0.000748261285 -0.00900153816 0.0552108474 -0.00482637295 -0.019816339 0.0579222068 0.0267610457 0.0267808381 0.00214498839 0.0116388993 0.0284341667 0.00967824832 0.0292622223 0.00371093885 0.00305454759 0.0136996182 0.025498243 0.00323660392 -0.0117617669 0.0280432496 0.0094062509 0.0199216474 0.0161197558 0.00972632878 -0.014436461 -0.0195516329 0.00914860424 0.0174230691 0.0179000106 0.00449016457 -0.00702038081 0.0305000003 0.0599874258 0.0193302631 -0.0248126946 0.0579334013 0.014118636 -0.0270022843 0.00954311714 0.0230854899 -0.0223200843 0.00683093816 -0.0038430097 0.0025840092 0.00489494437 0.0162145887 -0.0151209189 0.00476404326 0.0294280201 -0.00693967659 0.00325840176 0.014814348 -0.0251595769 0.00307002361 -0.00765349995 -0.0304289833 0.0583911166 -0.0100033116 -0.0290330388 0.00443659583 -0.0134443743 0.0256818458 0.00310177426 -0.0267573465 0.0267825015 0.00256401859 -0.0255368743 -0.0168117601 0.00301289279 -0.0230439641 -0.0230602026 0.0049894508 -0.027215492 -0.0152863171 0.0579242073</float_array>
          <technique_common>
            <accessor source="#positions_array" count="37" stride="3">
              <param name="X" type="float" />
              <param name="Y" type="float" />
              <param name="Z" type="float" />
            </accessor>
          </technique_common>
        </source>
        <source id="normals">
          <float_array id="normals_array" count="219">0.693875849 0.718234599 0.0517244935 0.998150349 -0.0438064598 0.0421523303 0.950397015 0.30390358 0.0662432313 -0.0403482169 -0.0852874517 0.995539069 -0.0707506016 0.0767315179 0.994538426 0.00108703563 -0.0164483599 0.999864101 -0.0801665336 -0.107073136 0.991013944 0.0825909376 -0.098550342 0.991698802 -0.394109577 -0.019468572 0.918857217 0.0586850382 -0.127793327 0.990063071 -0.707035661 0.669263959 0.22844319 -0.991995096 0.0978852659 0.0797760859 -0.946240366 0.321662635 0.0340929553 0.0305459704 -0.0429053716 0.998612046 0.0646209493 0.0335201398 0.997346759 0.0290591381 0.133871973 0.990572512 0.0135490056 0.109299779 0.993916512 0.612075031 0.410962492 0.675628603 0.41744563 0.894852698 0.158043623 -0.098506771 0.168409407 -0.980782688 -0.0125126392 -0.00886802562 -0.9998824 -0.0716160238 0.369769812 -0.926359236 0.0118117668 0.0045443736 -0.999919891 0.00413833559 0.00456505036 -0.999981046 0.0598409139 0.180627927 -0.981729388 -0.726081252 -0.632640839 0.269391268 -0.869802654 -0.492474228 0.0302063879 -0.812156498 -0.567487776 0.135496765 -0.889830947 -0.4492383 -0.0799114406 -0.215298802 0.974613309 0.0614437014 -0.375875622 0.924541891 -0.0627677888 0.613401115 -0.788988411 0.0351611711 0.316449434 -0.946740091 -0.0595228262 0.698498011 -0.628854036 -0.341530472 -0.0684984177 0.123436354 -0.989985585 0.0225061662 0.0613363758 0.997863352 0.187689096 -0.0107420599 0.982169747 -0.32853511 0.137156501 0.934479952 -0.161371753 0.0636640266 -0.984838068 -0.623015642 0.242446974 -0.743687451 -0.986863196 0.148421109 -0.0638142452 -0.900608718 0.249324754 0.356007099 0.700023234 -0.178167835 -0.691537142 0.238112658 -0.416309297 -0.877490163 -0.0132429525 -0.0744953603 0.997133434 -0.210146204 -0.977109432 0.0331015363 -0.159763888 -0.770602107 -0.616966665 -0.0232447218 0.0855097994 0.996066153 0.0429395325 0.0314904079 -0.99858129 0.0308564249 0.00532765919 -0.999509633 0.097971499 -0.0173797272 -0.995037436 -0.494261593 0.572847962 0.653873563 -0.355579674 0.925232112 0.132320061 -0.669727802 -0.250765711 -0.698985875 -0.613384485 -0.648200333 -0.451215863 -0.878360212 -0.477195144 0.0277143382 0.266017824 -0.0657731816 0.961721599 0.00657570641 0.0477303527 0.998838603 0.0279587563 -0.149870336 0.988310277 -0.0067353854 0.041301202 0.99912405 0.0424323343 0.0343029797 0.998510301 0.991650522 0.104535036 -0.0755092278 -0.509009123 -0.672211945 0.537625194 -0.324497074 -0.625674486 0.709389269 -0.124250002 0.887293994 -0.444152355 0.0115579469 0.00386985205 -0.999925733 -0.00381367956 0.160959452 0.986953676 0.129441112 0.0375885814 0.99087441 0.353261143 0.0233997088 0.935232043 0.871731281 0.334572464 -0.357974589 0.423537344 -0.0287029259 0.90542382 0.558725357 -0.109410822 0.822104156 0.140368953 0.492492855 -0.858922184</float_array>
          <technique_common>
            <accessor source="#normals_array" count="73" stride="3">
              <param name="X" type="float" />
              <param name="Y" type="float" />
              <param name="Z" type="float" />
            </accessor>
          </technique_common>
        </source>
        <vertices id="vertices">
          <input semantic="POSITION" source="#positions" />
        </vertices>
        <triangles material="qmat_c90f2351a1b48e4d" count="78">
          <input semantic="VERTEX" source="#vertices" offset="0" />
          <input semantic="NORMAL" source="#normals" offset="1" />
          <p>0 0 1 1 2 2 0 3 3 4 1 5 4 6 3 4 0 3 4 6 5 7 6 8 4 6 7 9 5 7 8 10 9 11 10 12 7 9 10 13 11 14 12 15 11 14 13 16 14 17 15 18 2 2 14 19 16 20 17 21 18 22 19 23 20 24 19 25 15 26 21 27 15 26 17 28 21 27 22 29 15 18 18 30 23 31 24 32 25 33 19 23 24 34 20 24 21 35 26 36 27 37 2 38 28 39 24 34 27 37 29 40 24 41 16 20 28 42 29 43 27 37 26 36 29 44 28 42 1 1 25 33 30 45 31 46 24 32 28 42 25 33 29 43 32 47 26 36 21 35 33 48 32 49 9 50 33 51 9 11 8 10 8 10 18 30 32 52 17 21 29 43 34 53 34 53 35 54 36 55 26 36 31 56 29 44 34 53 29 43 31 46 22 29 0 0 15 18 23 31 30 45 24 32 3 4 12 15 13 16 3 4 13 16 30 57 0 3 22 58 4 6 23 59 3 4 30 57 6 8 12 15 3 4 22 58 7 9 4 6 3 4 4 6 6 8 6 8 5 7 12 15 1 5 3 4 23 59 2 2 1 1 28 42 7 9 22 58 10 13 22 29 8 10 10 12 5 7 7 9 11 14 11 14 10 13 36 60 30 45 36 55 35 54 11 14 36 60 30 57 13 16 11 14 30 57 5 7 11 14 12 15 16 61 14 17 2 2 19 25 16 62 2 63 19 25 21 27 16 62 15 64 14 19 17 21 18 22 15 65 19 23 15 18 0 0 2 2 17 66 32 47 21 35 16 67 21 35 27 37 19 23 2 38 24 34 25 33 24 32 29 43 17 21 16 20 29 43 25 33 1 1 23 31 24 41 16 67 27 37 24 41 28 68 16 67 32 69 18 69 26 69 26 36 18 70 20 71 22 29 18 30 8 10 33 51 8 10 32 52 31 46 30 45 35 54 9 50 32 49 34 53 10 12 9 11 36 55 36 55 9 11 34 53 32 49 17 21 34 53 26 36 20 71 31 56 34 53 31 46 35 54 20 24 24 34 31 72</p>
        </triangles>
      </mesh>
    </geometry>
  </library_geometries>
  <library_visual_scenes>
    <visual_scene id="scene">
      <node id="base_link_stl">
        <instance_geometry url="#geometry">
          <bind_material>
            <technique_common>
              <instance_material symbol="qmat_c90f2351a1b48e4d" target="#qmat_c90f2351a1b48e4d" />
            </technique_common>
          </bind_material>
        </instance_geometry>
      </node>
    </visual_scene>
  </library_visual_scenes>
  <scene>
    <instance_visual_scene url="#scene" />
  </scene>
</COLLADA>