<?xml version='1.0' encoding='utf-8'?>
<COLLADA xmlns="http://www.collada.org/2005/11/COLLADASchema" version="1.4.1">
  <asset>
    <created>2026-09-14T00:00:00Z</created>
    <modified>2026-09-14T00:00:00Z</modified>
    <unit name="metre" meter="1" />
    <up_axis>Z_UP</up_axis>
  </asset>
  <library_effects>
    <effect id="qmat_d857164d36b11abb_effect">
      <profile_COMMON>
        <technique sid="common">
          <lambert>
            <emission>
              <color sid="emission">0 0 0 1</color>
            </emission>
            <diffuse>
              <color sid="diffuse">0.85 0.85 0.85 1</color>
            </diffuse>
            <reflectivity>
              <float sid="specular">0.5</float>
            </reflectivity>
          </lambert>
        </technique>
      </profile_COMMON>
    </effect>
  </library_effects>
  <library_materials>
    <material id="qmat_d857164d36b11abb" name="qmat_d857164d36b11abb">
      <instance_effect url="#qmat_d857164d36b11abb_effect" />
    </material>
  </library_materials>
  <library_geometries>
    <geometry id="geometry" name="FL_hip_dae">
      <mesh>
        <source id="positions">
          <float_array id="positions_array" count="330">0.0578854755 0.00328214234 0.019669231 0.0590971857 -0.00577384094 0.0132753262 0.0596538186 0.00328049576 -0.00989069045 0.0470503084 0.0213608462 0.0258506238 0.0527971424 0.0211080406 -0.0101868454 0.0142696491 0.0213866774 0.0519272424 0.0498851798 0.00564172212 0.0194414388 0.0536282361 0.00544736674 -0.0107602132 0.031023955 0.0033803964 0.0534145869 0.0292206313 0.00548536703 0.0460988469 0.0461361259 -0.00568606053 0.0391593911 0.0173734706 -0.00601008721 0.0584540106 0.0180787034 -0.00778755732 0.0508239903 0.0419551544 -0.00785659812 0.032916896 0.0344580188 -0.0345025808 0.0403944366 0.049761001 -0.0345248543 0.0191670638 0.0137905581 -0.0345247947 0.0515690893 -0.0384043381 -0.0345966257 0.0377324037 0.051207412 -0.00794487912 0.014294005 0.0511529334 -0.0346096195 -0.0154130887 -0.0142094074 0.0145181771 0.0525684282 -0.00643715262 0.00545563642 0.0538478084 -0.0102155535 0.000809354999 0.0607871674 -0.0122098988 0.0151805412 0.0623684227 -0.0124459704 -0.0137478048 0.0631209612 -0.0109725706 -0.0108818766 0.0524190962 -0.0174672175 -0.034394905 0.0512286797 0.0419408344 0.00537999533 -0.0333769731 0.0491231009 0.00336888619 -0.0354693867 0.0369612239 0.0211305041 -0.0391609184 0.0563623235 -0.0059301625 -0.023759285 0.0269232802 0.00338977762 -0.0551164262 0.0233822092 -0.00578679936 -0.057272274 0.0132884784 0.0059132739 -0.0525811128 0.0476749949 -0.00809321459 -0.0248154961 0.0309169292 -0.0344659314 -0.0435206033 0.0142030856 0.0211870018 -0.0525043868 -0.0126364678 0.0210356805 -0.0527288578 0.0204511303 -0.00797813665 -0.0492711551 -0.0106136315 -0.00919821206 -0.0525000878 -0.0102606807 0.000553629245 -0.0602021515 -0.0322357863 0.0141200321 -0.0446956009 -0.0121849766 0.0135709494 -0.0631209612 -0.0331955366 -0.0148302447 -0.0521814711 -0.0119322529 -0.0146865919 -0.0624395981 -0.0470783636 0.0223733932 0.048881527 -0.0382099077 0.0146462787 0.0510856509 -0.0193122718 0.0212274138 0.0507221296 -0.041348584 0.0141507369 0.0354872644 -0.0466300845 0.0213160757 0.0288863145 -0.0540607162 0.0140755381 0.0128999017 -0.0657779127 0.0444392376 0.0298251621 -0.089999944 0.0349384882 0.0404945277 -0.0654639229 0.0257345643 0.046442654 -0.0655315965 0.0523959137 0.0103134792 -0.0650722235 0.0142658157 0.047794912 -0.0650656596 0.0142485099 -0.0480393097 -0.0899415314 0.00471509434 0.0545882471 -0.0668532401 0.00523763523 0.0529042743 -0.0402294621 0.00195402186 0.057107579 -0.0899999663 -0.0311603565 0.0444714241 -0.0446224362 -0.0140373716 0.0302122179 -0.0546897352 -0.0345914178 0.00533222919 -0.0548268631 -0.0238540769 0.0474713817 -0.0316842273 -0.0192556921 0.0537394583 -0.0342448987 -0.0144463796 0.051852826 -0.0649462268 -0.0142456079 0.0481314026 -0.0305467416 -0.014077371 0.0437849239 -0.0652444437 -0.0370380729 0.0360928923 -0.0653986186 -0.0145833399 -0.0485265478 -0.0686462373 -0.0213046763 0.0491004698 -0.0525192134 -0.0141272759 0.012556552 -0.0499248989 -0.0140210222 -0.0226227511 -0.0899999663 -0.0510963611 0.0171732809 -0.0693870261 -0.0409529358 0.0340785831 -0.0685131252 -0.052993875 0.0104145175 -0.0687171742 -0.0527531058 -0.00953333266 -0.0684031323 -0.0625532791 -0.010639919 -0.057748951 -0.0506757349 0.0113630667 -0.058777038 -0.0624773689 0.0109753357 -0.0578901321 -0.0503153801 -0.014192868 -0.0580778085 -0.0385725982 0.0355859175 -0.0654446185 -0.0523318797 0.00201494968 -0.0274404213 0.0158272963 -0.0550486296 -0.042885121 0.00726642599 -0.0549941994 -0.0539855771 0.0211449154 -0.00773584843 -0.0419125594 0.0209379438 -0.0350938067 -0.0490247495 0.0140912468 -0.024082711 -0.0899999663 0.036974851 -0.0385915749 -0.0657795444 0.0224389695 -0.0483700857 -0.0899999663 0.0133564975 -0.0519987345 -0.0899999663 0.0509454235 -0.0174954552 -0.065901041 0.0418893509 -0.0327288918 -0.0899768993 0.050998237 0.019704923 -0.0656482801 0.0527595617 -0.00894679315 -0.0666488335 -0.00389222568 -0.0531929508 -0.0495144464 0.0231623854 -0.0482753627 -0.0899999663 -0.0207622424 -0.0498081408 -0.0405363366 -0.0342997983 -0.0371048339 0.00175478484 -0.0343715698 -0.0538447313 -0.0295645371 -0.014124413 -0.0454166345 -0.0368061289 -0.0196089763 -0.0531020015 -0.0605907738 -0.0264717974 -0.0461611785 -0.065410234 -0.0392948315 -0.0330317952 -0.0579454824 -0.0381625257 -0.0358854569 -0.0899982899 -0.0387576818 -0.037145555 -0.089988023 -0.0515297689 -0.0161322579 -0.0575574152 -0.0619936623 -0.0106230425 -0.0685819313 -0.0445292667 -0.0298709851 0.034071479 0.0207178518 0.0414247662</float_array>
          <technique_common>
            <accessor source="#positions_array" count="110" stride="3">
              <param name="X" type="float" />
              <param name="Y" type="float" />
              <param name="Z" type="float" />
            </accessor>
          </technique_common>
        </source>
        <source id="normals">
          <float_array id="normals_array" count="618">0.799732268 0.519996941 0.300052375 0.810136795 -0.570307374 0.13574937 0.868372619 0.484972686 -0.103588171 0.00275336276 0.999993145 0.00247064652 0.00291054603 0.999992192 -0.00268050586 0.00575430272 0.999960065 0.00683881389 0.276031286 0.95110178 0.1386078 0.333280712 0.940055132 -0.0722514838 0.453811079 0.472297609 0.755639076 0.8875314 -0.0154997995 0.460486442 0.539510489 -0.0233208202 0.84165585 0.943552554 0.0225132927 0.330456853 0.671267092 -0.480872154 0.564058959 0.222809106 -0.489153981 0.843258262 0.152816638 -0.959268689 0.237593397 0.230839118 -0.956367671 0.179092497 0.773648202 0.0138652008 0.633463621 0.343938023 0.0127759473 0.938905418 0.654816687 -0.0226904135 0.75544709 0.945622683 -0.0355595835 0.323316038 0.000743014214 -0.999996901 0.00238846848 0.00015156166 -0.999999523 0.000963123282 0.00123147818 -0.999997914 0.0016217354 0.980630398 0.0227906201 0.194537029 0.964761078 -0.0135385348 -0.262778908 0.234190807 -0.0296287462 0.971739054 0.272488028 -0.959073961 0.0769894645 0.230364859 -0.0199153963 0.97290051 0.188047707 0.229602084 0.954945505 0.211318731 0.520798802 0.827111244 0.633793533 0.0947689489 0.767674804 0.175721988 0.956720829 0.231963545 0.561503887 0.221349508 0.797319114 0.350600243 -0.159324661 0.922873318 -0.0422043689 -0.671201169 0.740072787 -0.00439133774 -0.999753654 0.0217554066 0.78549397 0.0123780072 -0.618745565 0.982722282 0.075911805 -0.168802679 0.981621861 0.0587413646 -0.181570873 0.678234041 0.477095515 -0.558908224 0.207902178 0.960803747 -0.183392465 0.00386358867 0.999990821 -0.00184984587 0.785321176 -0.526274323 -0.32604596 0.399556398 0.560868144 -0.725107968 0.298026294 -0.522359669 -0.798949718 0.682533443 -0.0302091315 -0.730229795 0.200764209 0.503087699 -0.840592921 0.889587045 0.0312745422 -0.455693722 0.253379524 -0.951553524 -0.174197242 -0.000793867453 -0.999999106 -0.00109325594 -0.00214192318 -0.999991775 -0.00343597843 -0.00195942307 0.999996245 -0.00191074761 -0.23017554 0.93243289 -0.278546542 0.121286556 -0.96778816 -0.22062546 -0.0319672972 -0.691273749 -0.721885562 0.275632471 -0.0116766952 -0.961192191 0.143545851 0.236698046 -0.960920691 0.0950327069 -0.0561797805 -0.993887603 -0.304053754 0.87762773 -0.370568246 -0.335422963 0.857294261 -0.390561074 0.23045665 -0.903597891 0.361110151 0.261001885 -0.807363689 0.529189825 0.249333203 -0.826166809 0.505253732 0.910191715 -0.00523337349 -0.414154142 0.992196262 -0.0973965824 -0.0778490975 0.981640756 -0.0824140906 -0.172015548 0.986468017 0.121024564 -0.110607088 0.150322765 -0.107796699 -0.982742548 0.387769133 0.187622905 -0.902459264 0.329543471 0.114615887 -0.937157571 -0.406964272 -0.0132507961 0.91334796 -0.679035187 0.120627746 0.724127173 0.00108403107 0.999365509 -0.0356011726 0.00913519133 0.99805671 -0.0616389401 -0.00106743071 0.999801338 -0.0199025217 -0.655545354 0.634370685 0.409675568 -0.923238039 0.335246861 0.187725902 0.0433806069 0.810778677 0.583743095 -0.0159305558 0.630313516 0.776177227 -0.0165213291 0.43881467 0.898425698 0.998573005 0.0438465104 0.0304866042 0.998953104 0.0376826376 0.0259370524 0.999845803 0.0175433923 0.000758650305 0.000404334191 0.999918878 -0.0127292108 0.012869982 0.999916673 -0.00101739657 0.00323004718 0.999593258 0.0283354744 0.00159951043 0.0810930058 0.996705234 -0.0372243598 0.0955550447 0.99472791 -0.213750422 0.0218920559 0.976642966 -0.999999642 0.000361099752 0.000754123554 -0.999999821 3.90028363e-05 0.000643463922 -0.999988616 0.000286808528 0.00475932239 -0.135747105 0.330703586 0.933920681 -0.836846888 -0.0365505554 0.546215534 -0.996597826 -0.0213902723 0.0795943215 -0.730331182 -0.0386175141 0.682000816 -0.0320666134 -0.44852069 0.89319706 -0.286800295 -0.26188463 0.921499908 0.184278458 -0.802210271 -0.567890942 0.339480042 -0.123690955 -0.932445109 0.699849844 0.2301341 -0.676201522 -0.556552172 0.0274741929 0.830358267 0.0843444616 -0.996412694 -0.00691211456 0.0068513453 -0.99993372 -0.00925448723 0.217738628 -0.905141592 -0.36511448 0.705365837 0.521524072 -0.480074614 0.689450324 0.224608839 0.688628435 -0.00793890003 -0.397440791 0.917593479 0.00490566669 -0.999955893 -0.00800816622 0.00307851122 -0.999992728 -0.00225079269 0.0232520755 -0.999705434 0.00695551094 -1 -0.000122385187 -5.05145617e-05 -0.0199675448 -0.572609067 0.819585323 0.0481912643 -0.782366157 0.620951474 -0.035308376 -0.945621967 0.323345602 -0.213185206 -0.872752964 0.439151883 -0.840008974 0.034224119 -0.541492045 -0.605372012 -0.628237188 -0.48871538 0.0611612983 -0.607925177 0.791635215 -0.435087234 -0.656595528 0.616101742 0.999378681 5.82439534e-05 0.0352455415 0.996223629 -0.0865634009 -0.00672413781 0.998652756 -0.0507858768 0.0106503684 0.122963302 0.777873516 -0.616273344 0.169492528 0.93293345 -0.317659378 0.61909312 0.784825563 -0.0277935471 0.203836784 0.946418881 0.250483274 -0.283781886 0.506795943 -0.81401825 -0.30721873 0.0723229945 -0.948886752 -0.157344341 0.130203262 -0.978922784 -0.816110313 0.566287756 -0.115248159 -0.59929657 0.625481009 -0.49961701 -0.904301345 0.1273164 -0.407467335 -0.0130388802 0.68391484 -0.729445279 -0.0149927801 0.371138096 -0.928456664 -0.0249734111 0.23201561 -0.972391427 -0.0161582362 0.952656031 -0.303620547 0.0385165028 0.788005233 -0.614462554 -0.0159034263 0.943429768 0.331190765 -0.00923357997 0.986692488 -0.162335068 0.999657035 0.0234672353 0.0116218701 0.997806311 0.0587778911 -0.0304576438 -0.0539119877 -0.0646694154 -0.996449351 -0.00758449407 0.0396915115 0.999183178 0.0531377681 -0.066318959 0.996382535 0.154877231 -0.244854048 0.957109988 -1 -3.64671024e-07 0 -1 -2.94695274e-05 6.55322947e-05 -1 0.000222956834 6.91644091e-05 -1 1.714767e-07 0 -0.0169389583 -0.352265149 -0.935746968 -0.00149293093 -0.999991179 -0.00392368063 -0.0024286462 -0.999990821 -0.0035226848 -0.479156584 -0.0743679255 -0.874573231 0.0113476869 -0.0410166979 -0.999094009 -0.722726047 -0.0673892125 -0.687841356 0.119192034 -0.992704451 0.0181975961 0.0167203043 -0.999627769 0.0215578992 -0.193430051 -0.143545344 -0.970556319 0.445404768 0.365925014 0.817137361 0.372377038 -0.438875437 0.817755282 -0.34687075 -0.0257093403 -0.937560499 -0.92537576 -0.0461903512 -0.376226246 0.711341679 0.568898737 0.412731528 0.126915693 0.762420118 0.634513974 -0.0352369398 -0.464883566 -0.884670377 -0.00609322032 -0.721022964 -0.692884386 -0.0270049367 -0.961430192 -0.273720056 0.00756324641 -0.975827038 -0.218413368 0.0515498072 -0.998480976 -0.0194504298 -0.19193922 -0.117973238 -0.974290311 0.016547516 -0.291856706 -0.956318915 0.317962736 0.899409235 0.299937785 0.0818043351 -0.828661382 -0.553740323 0.670140803 0.0143027985 0.742096126 0.0985266417 0.987518728 0.122878931 0.00130654161 -0.999996424 0.002338961 0.153198197 -0.971379042 -0.18152982 -0.146212682 0.014538358 0.989146352 -0.293684095 -0.012884412 0.955815673 0.985820353 -0.135085747 0.0995492265 0.600788713 -0.01539612 -0.799259543 0.402858198 0.0448904224 -0.914160907 -0.160720631 -0.0262645818 -0.986650407 0.989499271 0.134284586 -0.0534682907 0.00961090159 0.997543752 -0.0693832487 -0.00511768088 0.99993217 0.0104625281 -0.999997318 0.00223522424 0.000616901554 0.00469963625 0.987241864 0.159158394 0.118994348 -0.120219 -0.985590041 0.122392736 -0.112092666 -0.98613143 -0.973681569 0.0232333038 0.226725444 0.254722238 0.372635663 -0.892333567 0.0602434464 -0.741975188 0.667715192 -1 -0.000173074252 -2.72162615e-05 0.99729681 0.0459415279 0.0573445261 -0.0623482168 0.366396338 -0.928367615 0.186837301 -0.301195085 0.935079336 0.00619164854 0.999977887 0.00241852738 0.999821067 0.0145199457 -0.0121264299 0.999934435 -0.00960045587 -0.00623912783 0.996474683 0.0729415715 -0.0414454713 0.00802584458 -0.999958992 -0.00419489201 0.0559704266 -0.733454525 -0.677430272 0.10295599 -0.908309877 -0.405429631 -0.999998987 -0.00136272341 -0.000340839266</float_array>
          <technique_common>
            <accessor source="#normals_array" count="206" stride="3">
              <param name="X" type="float" />
              <param name="Y" type="float" />
              <param name="Z" type="float" />
            </accessor>
          </technique_common>
        </source>
        <vertices id="vertices">
          <input semantic="POSITION" source="#positions" />
        </vertices>
        <triangles material="qmat_d857164d36b11abb" count="216">
          <input semantic="VERTEX" source="#vertices" offset="0" />
          <input semantic="NORMAL" source="#normals" offset="1" />
          <p>0 0 1 1 2 2 3 3 4 4 5 5 6 6 0 0 7 7 8 8 0 0 6 6 3 9 9 10 6 11 0 0 10 12 1 1 8 8 11 13 10 12 11 13 12 14 13 15 13 16 12 17 14 18 13 16 14 18 15 19 16 20 17 21 14 22 18 23 15 19 19 24 14 18 12 17 16 25 10 12 13 15 18 26 5 27 20 28 21 29 20 28 22 30 21 29 5 27 21 29 9 10 8 8 9 31 21 29 23 32 24 33 22 30 11 13 25 34 12 14 16 20 26 35 17 21 22 30 8 8 21 29 27 36 4 37 7 38 7 7 28 39 27 40 5 5 4 4 29 41 1 1 18 26 30 42 2 2 1 1 30 42 31 43 28 39 32 44 29 45 27 36 33 46 34 47 18 23 19 24 30 42 34 48 32 44 19 49 17 21 35 50 5 5 36 51 37 52 38 53 39 54 32 44 36 55 33 46 37 56 33 46 31 43 40 57 37 56 33 46 40 57 41 58 37 52 42 59 39 60 43 61 44 62 39 54 40 57 32 44 40 63 39 64 44 65 42 66 40 63 44 65 5 5 29 41 36 51 45 67 23 68 46 69 47 70 48 71 20 28 46 72 20 73 48 74 49 75 50 76 48 71 51 77 52 78 53 79 51 80 53 81 54 82 55 83 50 84 56 85 53 79 57 86 58 87 53 79 58 87 59 88 52 78 57 86 53 79 52 89 60 90 57 91 45 92 53 79 59 88 61 93 62 94 17 95 59 88 63 96 64 97 65 98 64 99 66 100 67 101 61 93 17 95 67 102 65 98 61 103 64 99 65 98 24 104 66 100 68 105 69 106 59 88 70 107 63 96 61 103 66 108 71 109 71 109 66 108 72 110 52 89 73 111 60 90 57 86 70 107 58 87 57 86 60 112 70 107 74 113 73 114 75 115 75 115 76 116 77 117 78 118 75 115 79 119 80 120 78 121 79 122 81 123 78 124 68 105 69 106 68 105 82 125 70 107 60 112 74 113 41 58 42 59 83 126 83 127 42 128 84 129 49 75 5 5 85 130 85 130 5 5 86 131 41 58 83 126 56 85 85 130 86 131 87 132 88 133 89 134 90 135 91 136 92 137 88 133 93 138 94 139 91 136 54 82 55 140 56 141 89 134 84 129 95 142 89 143 56 144 96 145 88 146 97 147 91 148 88 146 90 149 97 147 90 135 95 142 97 150 17 21 98 151 99 152 100 153 99 154 98 155 100 156 69 157 43 61 95 142 84 129 101 158 43 61 102 159 101 160 42 128 44 161 101 158 72 162 98 155 62 94 43 61 69 106 102 159 102 159 103 163 104 164 102 165 105 166 97 150 66 108 69 157 72 110 69 106 82 125 103 163 75 115 106 167 76 168 79 119 77 117 107 169 80 170 107 171 77 117 82 125 80 172 103 163 76 168 106 167 108 173 6 11 4 37 3 9 4 37 6 11 7 38 0 0 8 8 10 12 7 7 0 0 2 2 3 9 109 174 9 10 9 31 8 8 6 6 5 27 9 10 109 174 5 5 109 175 3 3 1 1 10 12 18 26 10 12 11 13 13 15 15 176 17 21 19 49 15 176 14 22 17 21 15 19 18 23 13 16 24 104 65 98 25 177 5 27 47 70 20 28 16 25 25 178 26 179 8 8 22 30 11 13 20 28 23 32 22 30 16 25 12 17 25 178 11 13 22 30 25 34 25 180 22 30 24 33 7 7 2 2 28 39 29 45 4 37 27 36 27 40 28 39 31 43 32 44 28 39 30 42 36 55 29 45 33 46 33 46 27 40 31 43 28 39 2 2 30 42 30 42 18 26 34 48 35 181 34 47 19 24 32 44 34 48 38 53 38 182 34 47 35 181 39 183 38 182 99 154 99 154 38 182 35 181 35 50 17 21 99 152 42 66 37 184 40 63 40 57 31 43 32 44 39 183 99 154 100 153 23 32 59 88 24 33 46 72 23 185 20 73 23 32 45 92 59 88 47 70 49 75 48 71 55 83 46 72 48 74 55 83 48 74 50 84 49 75 47 186 5 5 52 89 93 187 91 148 52 78 51 77 93 138 93 138 54 188 94 139 93 138 51 77 54 188 54 82 53 81 55 140 59 88 58 87 70 107 53 189 46 69 55 190 53 189 45 67 46 69 49 75 85 130 50 76 25 178 67 101 26 179 25 177 65 98 67 102 65 98 66 108 61 103 61 93 71 191 62 94 24 33 59 88 64 97 26 179 67 101 17 95 66 100 63 192 68 105 63 96 70 107 81 193 66 100 64 99 63 192 68 105 63 192 81 123 81 193 70 107 74 113 52 89 105 194 73 111 52 89 91 148 105 194 79 119 75 115 77 117 82 125 78 124 80 172 74 113 60 112 73 114 75 115 73 114 106 167 107 195 80 120 79 122 68 105 78 124 82 125 81 193 74 113 75 115 81 193 75 115 78 118 86 131 37 52 41 58 86 131 5 5 37 52 86 131 41 58 87 132 96 196 83 127 84 129 96 145 56 144 83 197 56 85 87 198 41 58 91 136 94 139 92 137 92 199 94 200 54 82 88 133 92 137 89 134 89 201 92 199 54 82 89 201 54 82 56 141 90 135 89 134 95 142 89 134 96 196 84 129 50 84 87 198 56 85 50 76 85 130 87 132 84 129 42 128 101 158 100 156 72 110 69 157 100 153 98 155 72 162 17 21 62 202 98 151 39 60 100 156 43 61 44 62 43 61 101 160 102 159 69 106 103 163 95 142 101 158 102 165 102 165 104 203 108 173 105 166 102 165 108 173 71 191 72 162 62 94 91 148 97 147 105 194 97 150 95 142 102 165 80 204 76 168 108 173 76 116 80 170 77 117 103 163 80 172 104 164 80 204 108 173 104 203 73 111 105 194 106 205 108 173 106 167 105 166</p>
        </triangles>
      </mesh>
    </geometry>
  </library_geometries>
  <library_visual_scenes>
    <visual_scene id="scene">
      <node id="FL_hip_dae">
        <instance_geometry url="#geometry">
          <bind_material>
            <technique_common>
              <instance_material symbol="qmat_d857164d36b11abb" target="#qmat_d857164d36b11abb" />
            </technique_common>
          </bind_material>
        </instance_geometry>
      </node>
    </visual_scene>
  </library_visual_scenes>
  <scene>
    <instance_visual_scene url="#scene" />
  </scene>
</COLLADA>