<?xml version='1.0' encoding='utf-8'?>
<COLLADA xmlns="http://www.collada.org/2005/11/COLLADASchema" version="1.4.1">
  <asset>
    <created>2026-09-14T00:00:00Z</created>
    <modified>2026-09-14T00:00:00Z</modified>
    <unit name="metre" meter="1" />
    <up_axis>Z_UP</up_axis>
  </asset>
  <library_effects>
    <effect id="qmat_76551a3993c45b27_effect">
      <profile_COMMON>
        <technique sid="common">
          <lambert>
            <emission>
              <color sid="emission">0 0 0 1</color>
            </emission>
            <diffuse>
              <color sid="diffuse">0.6500053 0.68 0.6500053 1</color>
            </diffuse>
            <reflectivity>
              <float sid="specular">0.5</float>
            </reflectivity>
          </lambert>
        </technique>
      </profile_COMMON>
    </effect>
    <effect id="qmat_d857164d36b11abb_effect">
      <profile_COMMON>
        <technique sid="common">
          <lambert>
            <emission>
              <color sid="emission">0 0 0 1</color>
            </emission>
            <diffuse>
              <color sid="diffuse">0.85 0.85 0.85 1</color>
            </diffuse>
            <reflectivity>
              <float sid="specular">0.5</float>
            </reflectivity>
          </lambert>
        </technique>
      </profile_COMMON>
    </effect>
  </library_effects>
  <library_materials>
    <material id="qmat_76551a3993c45b27" name="qmat_76551a3993c45b27">
      <instance_effect url="#qmat_76551a3993c45b27_effect" />
    </material>
    <material id="qmat_d857164d36b11abb" name="qmat_d857164d36b11abb">
      <instance_effect url="#qmat_d857164d36b11abb_effect" />
    </material>
  </library_materials>
  <library_geometries>
    <geometry id="geometry" name="FL_thigh_dae">
      <mesh>
        <source id="positions">
          <float_array id="positions_array" count="177">0.037722826 0.0333993733 0.012705937 -0.0327764973 0.0187310074 0.0606921986 0.062395867 0.0137127861 -0.0236458927 -0.0178653803 0.0131283812 0.0689939782 0.0389121622 0.0332167707 -0.00630534021 -0.00938068703 0.0331310257 0.0393940844 0.0274601057 0.0235467218 -0.0526085123 0.0551316962 0.0208637398 0.0417569354 0.0683874488 0.0159205832 -0.0165235419 0.0314590223 0.0346285403 -0.0149068823 0.0666061193 -0.0868772641 0.00363072846 0.0310711879 0.0305033363 -0.0234014913 0.0254282057 0.0302087609 -0.0290866829 0.023909295 0.0300282575 -0.0326609462 0.0216346942 0.0323953405 -0.0308212936 0.0278171655 0.0291543528 -0.0315808915 0.0124081075 0.0307760928 -0.0448078625 -0.0226976927 0.0368311554 0.0137738949 -0.0231907442 0.0365963653 0.0223600976 -0.0271026343 0.0354509763 0.0064210929 0.0253140051 0.0249064043 -0.0584215485 -0.00238202489 -0.0923601463 0.0630990043 -0.0601098128 -0.0897875875 0.0165847652 -0.0666817352 0.018913744 0.0225564968 -0.060965918 0.0138112772 0.0198215805 -0.0376927964 0.0318976529 0.000178405069 -0.0646945238 0.0165038537 -0.0406292006 -0.0209945459 0.0308921188 -0.0472573824 -0.0454408564 0.0288198721 -0.022481136 -0.0365688317 0.0230062045 -0.098581247 -0.0146046244 0.033728864 -0.0382976905 -0.0342256017 0.0323674455 -0.0166265406 -0.0530521795 -0.013290491 -0.191679642 0.00328919315 -0.0279922374 -0.0725318044 -0.0606633537 -0.00960378721 -0.0286079571 -0.0650841072 -0.00798753183 -0.0318216868 -0.0661379546 -0.0026060713 -0.0289455745 -0.0682206303 -0.00211530738 -0.0298169889 0.0256719403 0.00633023819 -0.0727414787 -0.0486358367 0.0181659572 -0.249839157 0.0137172816 0.00588903483 -0.0952577144 0.00845864601 -0.00583694037 -0.0923021659 0.0185030848 -0.00349051924 -0.0789583176 -0.00460026832 0.015103925 -0.213564828 -0.00502695469 -0.0156667046 -0.235662401 0.00130374625 0.0144290794 -0.0952725038 0.00309654698 -0.00353931729 -0.108989626 0.00337080169 -0.00409143465 -0.106680125 0.00581273716 -0.00408923207 -0.109090202 -0.027409615 0.0199439377 -0.0996432751 -0.0430141166 0.0183080137 -0.0967946574 -0.0455062725 0.018686723 -0.0847207382 -0.0312220715 0.0225238986 -0.108893678 -0.0270887036 0.0198905095 -0.103228487 -0.00939737633 -0.0786321312 -0.0655740872 -0.0565806814 0.0120059969 -0.309897363 0.0186299793 0.022558948 -0.374430001 -0.00895890687 -0.0229091067 -0.374430001 0.0134695033 0.0363076888 -0.00537349377</float_array>
          <technique_common>
            <accessor source="#positions_array" count="59" stride="3">
              <param name="X" type="float" />
              <param name="Y" type="float" />
              <param name="Z" type="float" />
            </accessor>
          </technique_common>
        </source>
        <source id="normals">
          <float_array id="normals_array" count="519">0.552816272 -0.515749454 0.654520214 -0.102626331 0.858194768 0.502960742 0.332610816 0.942760885 -0.0239149947 0.13291949 0.868560255 0.477425873 -0.679145694 -0.0307953898 -0.733357191 -0.686753273 0.0425171703 -0.725646079 -0.662904263 -0.129753739 -0.737375021 -0.660810947 -0.140071809 -0.73736608 -0.268428028 -0.942792892 0.197706655 -0.547712505 -0.770864189 0.325237453 -0.515964508 -0.778136671 0.358167499 0.768400431 0.105835304 0.631157398 0.880921662 0.40828076 -0.239340529 0.275134891 0.950875401 -0.141904175 0.907958984 -0.0934990868 0.408495307 -0.257896692 -0.918623865 0.299365073 -0.378313601 -0.825778782 0.418292016 -0.151532903 -0.974230409 0.167071372 0.527007818 0.775904775 -0.34674859 0.358323693 0.933323264 0.0226224083 0.0730196461 0.959259093 -0.272928834 -0.262675196 -0.929794073 0.257846296 -0.351852179 -0.87562871 0.330869108 -0.162331268 -0.977144301 0.137250111 -0.0659300461 0.997822046 0.00209184526 -0.189542904 0.961936474 0.196854591 0.387479514 0.91779983 0.0866206959 -0.243461445 0.969479203 -0.0289242174 0.496568501 0.822745681 -0.276603043 -0.347141266 -0.813788891 -0.466090739 0.259567231 -0.921477675 -0.288970143 0.160764664 -0.903503776 -0.397285312 -0.23052296 -0.95743686 0.173706204 -0.0656116456 0.963292301 -0.260313421 0.0846341029 -0.995119393 0.0507386401 0.165689617 -0.985649168 0.0322899073 0.0153199248 -0.997128606 -0.0741612464 0.0122457268 -0.994538367 -0.103651002 0.261203557 -0.883815765 -0.388126761 -0.400814414 0.891842723 0.209676787 -0.0092527708 0.997546017 0.0693998337 -0.0421107523 0.997776926 0.051651191 -0.043479234 0.995011747 -0.0897841752 0.324219227 -0.945910871 -0.0115986923 0.851647317 -0.52195245 0.0475656129 0.372861862 -0.925661266 -0.0642285347 0.0676508322 -0.994498849 0.0799715221 0.330811262 -0.937244356 0.110167965 0.447630256 -0.885118723 0.127247736 -0.464388907 0.875600278 -0.132917598 -0.0440118015 0.998728573 -0.0245813504 0.720417023 0.197931737 0.66469723 0.781750679 -0.421670258 -0.459412724 -0.689331234 0.7233513 -0.0398155488 -0.326478034 0.943684399 0.0535900816 -0.379955471 0.924968243 -0.00822284911 0.413515568 -0.859113038 -0.301545531 -0.719623327 -0.686618805 -0.103425652 0.337928712 -0.901309073 -0.271009445 -0.962306857 0.258102506 -0.0857238397 -0.999124169 -0.0407431051 -0.00953500345 -0.748994291 -0.472936064 0.464046359 -0.998411238 -0.032739345 -0.0458594784 0.41462779 -0.444630802 -0.793969274 0.889206409 0.170228601 -0.424657792 0.659247041 0.0804758966 -0.74760747 0.671036363 0.605411708 -0.428003401 0.864659369 0.437698513 -0.246544555 0.338943273 0.888345063 -0.309774876 -0.366330266 -0.869091153 0.332389444 -0.510073602 -0.773275197 0.37665686 -0.461085051 -0.795532405 0.393101543 -0.908800542 0.0121647418 0.417053521 0.922367573 0.137108758 -0.361163795 0.895925462 0.210909948 -0.390940547 -0.574362934 0.817512274 0.0422005877 -0.727959156 0.641699255 0.241448879 -0.786285579 0.204993337 0.582865894 0.882257998 -0.438700646 -0.170770645 -0.70354414 0.683705866 0.193834737 -0.707757652 0.554335594 0.437939644 -0.726288557 0.556726813 0.403187573 -0.695835054 0.552439928 0.458937556 0.619103432 -0.666738927 -0.41493392 0.629369915 -0.362407207 -0.687425971 0.747879028 -0.539717674 -0.386499465 -0.664681137 0.546378136 0.509578228 0.861813366 0.471331477 -0.187414944 0.963944435 0.211725771 -0.161193445 0.867319047 0.39898029 -0.297611207 0.160527989 -0.985635042 0.0524813682 0.819727063 -0.416621983 0.393031329 0.840447366 -0.540261924 -0.0420150571 0.407406181 0.271628916 0.871916234 0.128156438 0.187969312 0.97377795 0.201504558 0.957785666 0.205042809 0.985032618 -0.116355747 0.127169445 0.00614116946 0.997034729 0.076707758 0.0126450201 0.997546494 0.0688555464 -0.511296272 -0.829511285 0.224693462 -0.271062076 0.96156913 -0.0437051952 -0.225858569 0.963463545 -0.143964782 -0.0560211577 0.99820298 0.0212708637 -0.101891659 0.994709313 0.013094333 -0.0756493658 0.996742845 0.0279440284 -0.658835351 0.731880665 -0.174030453 -0.612215459 0.767332673 -0.190768853 -0.0921877101 -0.978243768 0.185850814 0.298972934 -0.953468978 0.0388851203 0.262733608 -0.957909167 0.11567644 -0.177948415 -0.971221983 0.158310488 -0.0461532809 0.998832464 0.0142691685 0.331682861 -0.938298285 0.0978920385 -0.991527915 -0.100772791 0.0819587559 -0.913320065 -0.331421942 0.236655727 0.996776938 0.01145925 0.0794005096 0.0672603697 0.919991434 0.386124045 0.203110337 0.974614859 0.0941916183 0.155171737 0.966614187 0.203908801 -0.0326912515 -0.999298096 0.0182922073 0.279356837 0.958170474 -0.0622022152 0.155033723 0.982055306 -0.107387051 0.209802195 0.969338 -0.127932981 0.274591804 0.958044529 -0.0821581408 -0.108663253 0.993775785 -0.0245356094 -0.497447759 -0.86657697 -0.039876096 -0.348261803 -0.93688035 -0.0311278254 -0.477342695 -0.876716912 -0.0592571497 0.1778339 -0.957950592 0.2251793 -0.340005398 -0.939239204 0.0471803509 0.323084384 0.946044922 0.0248091258 0.61315918 -0.70769316 0.351007462 0.414226234 -0.731175244 -0.542032599 -0.953211069 0.247301772 -0.173869208 0.975909233 0.118174739 -0.183401033 0.607513368 0.783635437 -0.12978062 0.113970421 -0.993044198 -0.0295627099 0.536889255 0.841577649 -0.0591353141 -0.0903407037 0.995817184 -0.0136624975 0.497860849 -0.13898243 0.856048167 0.0773036629 0.885274947 0.458598316 0.11043831 0.993879497 -0.00263731251 -0.101725996 -0.899708152 -0.424472719 -0.605674148 -0.795468807 0.019703187 0.122308023 0.98798883 -0.0944392905 0.283210188 0.950150073 -0.130410403 0.134369865 0.986367643 0.0949927419 -0.0877107456 0.939546585 -0.33099702 -0.142979011 0.892846107 -0.427063018 -0.1228991 -0.989764214 -0.0725435093 0.0922693238 0.992276132 0.0829120651 0.739425421 -0.394936591 0.545229435 -0.124728292 -0.980060756 -0.154673114 0.649578452 0.052959539 0.758447826 0.0819047689 -0.99663949 -0.00114029297 -0.817101717 0.0170104187 0.576242507 -0.345754057 -0.877586663 0.33210811 -0.799446344 0.0224451032 0.600318015 -0.625334442 -0.134738535 0.768636703 -0.85072279 0.14365977 -0.505601227 0.779596508 -0.285103351 -0.557624757 0.795851946 -0.127213284 -0.591976762 -0.767744422 0.169211671 0.618009627 0.724560738 -0.298978746 -0.620985866 0.642420352 0.742878497 -0.188222095 -0.715085983 0.694076777 -0.0831235647 0.23082906 0.941706896 -0.244757071 0.723043382 -0.677275836 0.136035427 -0.0674673021 0.997052848 0.0365216359 -0.0668915883 -0.91781795 -0.391325533 -0.293487042 -0.939352751 0.177431032 0.244123846 0.969721258 -0.00665217452 -0.497773439 -0.864090979 -0.0746214613</float_array>
          <technique_common>
            <accessor source="#normals_array" count="173" stride="3">
              <param name="X" type="float" />
              <param name="Y" type="float" />
              <param name="Z" type="float" />
            </accessor>
          </technique_common>
        </source>
        <vertices id="vertices">
          <input semantic="POSITION" source="#positions" />
        </vertices>
        <triangles material="qmat_76551a3993c45b27" count="91">
          <input semantic="VERTEX" source="#vertices" offset="0" />
          <input semantic="NORMAL" source="#normals" offset="1" />
          <p>1 4 5 5 4 6 4 8 6 9 2 10 4 2 7 11 8 12 4 2 8 12 9 13 8 12 7 11 10 14 11 15 9 16 12 17 13 18 6 19 14 20 11 15 15 21 6 9 14 22 16 23 12 17 17 24 18 25 16 26 17 24 16 26 19 27 18 25 20 28 16 26 9 29 1 30 18 31 11 15 12 17 13 32 14 20 15 33 13 18 12 17 16 23 13 32 13 32 16 23 6 9 18 34 19 35 14 22 19 35 16 23 14 22 3 1 5 3 23 39 19 35 18 34 25 43 27 46 28 47 29 48 23 39 25 49 30 50 23 51 30 51 31 51 18 31 26 44 25 52 23 53 31 54 28 55 36 67 34 65 35 64 37 69 24 61 23 70 26 44 24 45 36 67 23 70 24 61 3 71 6 9 38 72 2 10 6 19 8 12 20 28 6 19 20 28 14 20 39 73 20 28 40 74 16 26 20 28 39 75 38 72 41 76 42 77 43 78 40 78 41 78 43 79 41 76 38 72 40 87 42 88 44 89 42 90 41 91 44 92 39 75 40 97 43 98 6 9 43 99 38 72 28 55 27 100 39 75 31 101 30 50 27 100 27 46 29 48 43 99 16 23 27 46 43 99 37 113 32 57 35 114 36 67 35 64 32 115 53 125 52 126 43 127 29 128 52 126 49 129 29 123 53 120 43 130 52 126 29 128 50 131 39 75 55 133 32 57 7 143 0 143 2 143 4 2 0 141 7 11 9 13 8 12 6 19 4 8 11 15 6 9 12 145 9 13 15 33 15 21 11 15 13 32 15 33 9 13 6 19 58 146 9 147 11 148 4 8 58 149 11 15 9 13 18 150 4 2 5 3 9 147 58 146 18 25 5 3 58 146 5 151 1 151 9 151 4 8 18 152 58 149 14 20 12 145 15 33 18 25 14 20 20 28 23 39 5 3 18 25 23 39 19 27 25 49 23 39 17 24 19 27 18 25 17 24 23 39 30 50 25 49 16 26 25 52 31 154 16 23 28 108 25 52 26 44 31 154 25 52 28 108 23 53 28 55 39 75 36 156 24 61 37 69 8 12 38 83 40 85 40 74 20 28 8 12 30 50 16 26 39 75 6 9 16 23 43 99 2 160 8 12 10 14 38 83 8 12 2 160 44 89 45 164 40 87 27 100 30 50 39 75 16 23 31 154 27 46 23 53 32 57 37 113 26 44 36 67 32 115 51 109 28 108 26 44</p>
        </triangles>
        <triangles material="qmat_d857164d36b11abb" count="66">
          <input semantic="VERTEX" source="#vertices" offset="0" />
          <input semantic="NORMAL" source="#normals" offset="1" />
          <p>0 0 1 0 2 0 3 1 4 2 5 3 1 4 4 6 2 7 21 36 22 37 10 38 1 40 7 41 24 42 18 31 1 30 26 44 26 44 1 30 24 45 22 56 32 57 33 58 32 59 34 60 24 61 32 59 22 62 34 60 22 63 35 64 34 65 3 66 36 67 37 68 3 66 34 65 36 67 24 61 34 60 3 71 33 80 2 81 42 82 38 83 33 84 40 85 38 83 10 38 33 84 33 80 42 82 40 86 45 93 41 91 40 94 46 95 47 95 48 95 41 91 33 96 44 92 7 102 49 103 50 104 32 59 50 105 29 106 32 107 7 107 26 107 28 108 51 109 7 110 7 102 50 104 26 111 26 44 50 112 51 109 50 116 45 117 52 118 33 58 32 57 44 119 53 120 7 121 45 122 29 123 7 121 53 120 49 103 53 124 50 104 22 37 54 132 10 38 33 84 10 38 54 132 43 134 44 89 55 135 43 136 55 136 56 136 44 89 57 137 55 135 39 75 43 98 56 138 55 133 39 75 56 138 7 11 3 139 10 14 7 41 1 40 3 140 4 2 3 1 0 141 3 142 1 142 0 142 45 122 7 121 2 144 10 14 3 139 21 153 3 155 37 113 35 114 22 157 3 155 35 114 3 155 22 157 21 158 22 159 33 159 54 159 42 161 2 160 10 14 10 162 38 72 42 77 45 163 2 163 33 163 41 91 45 93 33 96 44 89 43 134 45 164 24 61 51 165 32 59 32 166 28 166 7 166 29 48 28 47 32 167 23 53 39 75 32 57 51 165 24 168 7 41 32 59 51 165 50 105 50 169 53 169 45 169 29 128 49 129 7 170 49 129 52 126 53 125 43 171 52 118 45 117 55 133 57 172 32 57 44 119 32 57 57 172</p>
        </triangles>
      </mesh>
    </geometry>
  </library_geometries>
  <library_visual_scenes>
    <visual_scene id="scene">
      <node id="FL_thigh_dae">
        <instance_geometry url="#geometry">
          <bind_material>
            <technique_common>
              <instance_material symbol="qmat_76551a3993c45b27" target="#qmat_76551a3993c45b27" />
              <instance_material symbol="qmat_d857164d36b11abb" target="#qmat_d857164d36b11abb" />
            </technique_common>
          </bind_material>
        </instance_geometry>
      </node>
    </visual_scene>
  </library_visual_scenes>
  <scene>
    <instance_visual_scene url="#scene" />
  </scene>
</COLLADA>