<?xml version='1.0' encoding='utf-8'?>
<COLLADA xmlns="http://www.collada.org/2005/11/COLLADASchema" version="1.4.1">
  <asset>
    <created>2026-09-14T00:00:00Z</created>
    <modified>2026-09-14T00:00:00Z</modified>
    <unit name="metre" meter="1" />
    <up_axis>Z_UP</up_axis>
  </asset>
  <library_effects>
    <effect id="qmat_6286805a07da3ff8_effect">
      <profile_COMMON>
        <technique sid="common">
          <lambert>
            <emission>
              <color sid="emission">0 0 0 1</color>
            </emission>
            <diffuse>
              <color sid="diffuse">0.07323546 0.07323546 0.07323546 1</color>
            </diffuse>
            <reflectivity>
              <float sid="specular">0.5</float>
            </reflectivity>
          </lambert>
        </technique>
      </profile_COMMON>
    </effect>
    <effect id="qmat_c9293097d13fc8af_effect">
      <profile_COMMON>
        <technique sid="common">
          <lambert>
            <emission>
              <color sid="emission">0 0 0 1</color>
            </emission>
            <diffuse>
              <color sid="diffuse">0.74876 0.74876 0.74876 1</color>
            </diffuse>
            <reflectivity>
              <float sid="specular">0.5</float>
            </reflectivity>
          </lambert>
        </technique>
      </profile_COMMON>
    </effect>
  </library_effects>
  <library_materials>
    <material id="qmat_6286805a07da3ff8" name="qmat_6286805a07da3ff8">
      <instance_effect url="#qmat_6286805a07da3ff8_effect" />
    </material>
    <material id="qmat_c9293097d13fc8af" name="qmat_c9293097d13fc8af">
      <instance_effect url="#qmat_c9293097d13fc8af_effect" />
    </material>
  </library_materials>
  <library_geometries>
    <geometry id="geometry" name="FR_calf_dae">
      <mesh>
        <source id="positions">
          <float_array id="positions_array" count="210">-0.00757409306 -0.0102589447 0.0531861633 0.017216742 -0.00645717327 0.0489925221 -0.0154291997 0.00385165284 0.0320680737 0.0152060669 -0.0147888325 0.0520316772 0.0151569583 -0.0152392751 -0.0103751551 -0.00534414966 0.0131787136 0.0540570728 0.0187673587 0.0080091022 0.0506746769 0.0147194974 0.0151754757 -0.00395320868 -0.0251282193 0.0150093073 -0.00122986594 -0.0251989905 -0.0143019129 -0.00223800284 0.01520955 0.0045564929 -0.0129475202 0.00927696843 -0.0157880429 -0.0518010408 0.0296846014 0.0147372559 -0.082449317 0.0132478923 0.0213533565 -0.0630583167 -0.002399283 -0.0212727878 -0.0560394339 0.0174805541 -0.0213762354 -0.0702388063 -0.00672497647 0.0206602812 -0.0469195694 0.0222698655 -0.0146356625 -0.0474084467 0.0188494604 -0.0169708356 -0.119077362 0.0400383882 0.0161983818 -0.12557061 0.0166374072 0.0175279435 -0.112625122 0.0408213437 -0.0157491658 -0.124964863 0.0308646522 0.0113108186 -0.186486319 0.0314777978 -0.0106829982 -0.193330437 0.0510735847 -0.010936683 -0.241385236 0.0514649898 0.0110954642 -0.244793788 0.0297201388 0.0124589689 -0.250711113 0.0284139588 -0.0129292915 -0.255610883 0.0377058424 0.0202354975 -0.29322508 0.0134723028 0.0167575963 -0.284994602 0.0222762395 -0.0191514194 -0.2888273 0.0405807532 -0.0222196914 -0.302882761 0.00888262596 -0.0149372313 -0.290454626 0.0426722988 -0.0244228058 -0.328282118 0.034753684 0.0270356797 -0.330960542 0.0406365842 0.0224615913 -0.345163584 -0.0241713393 0.0221966077 -0.326084912 0.0190825779 0.0198048931 -0.292300791 -0.0131407548 0.0275899693 -0.327019155 -0.0131899342 -0.0274099708 -0.327643275 0.0241973437 0.0254211929 -0.365909874 0.0289918445 -0.0214368366 -0.367767215 0.0230614729 0.0272821579 -0.35812217 0.0247339848 -0.0271719377 -0.358532608 -0.000415485876 -0.0249904208 -0.370000005 -0.0199593864 0.0258745514 -0.353379816 -0.0198000688 -0.0251263734 -0.359174877 -0.0227526389 -0.0257776752 -0.327849954 -0.0175898299 -0.019544553 -0.330007881 0.0131039415 -0.00616857596 0.00320382719 -0.0161475521 0.0196334086 -0.330283612 -0.00431660842 0.0236246213 -0.370000005 0.00386265037 0.0261348728 -0.384713054 0.00574284839 -0.0234952755 -0.38425234 -0.0149571551 0.00133585581 -0.381532222 0.0204721317 0.0275899693 -0.365393698 0.0280689634 0.00348070147 -0.368463844 -0.00680782506 0.0275180023 -0.370873034 0.0164978635 0.00184100424 -0.381414533 0.0225193333 -0.0262823068 -0.365880996 -0.0165926423 -0.0272904336 -0.339564055 -0.0166651476 -0.0274099708 -0.361959994 -0.0180002358 0.0275899693 -0.34059754 -0.0243853703 0.01211181 -0.325864226 -0.0349799693 0.0254452247 -0.354779184 -0.0348245092 0.00616890891 -0.351611465 -0.033271458 -0.00518462993 -0.339152396 -0.0242254697 -0.0206728932 -0.327528238 -0.0281230677 -0.0271204226 -0.369267285 -0.0291148908 -0.000869644282 -0.369457841</float_array>
          <technique_common>
            <accessor source="#positions_array" count="70" stride="3">
              <param name="X" type="float" />
              <param name="Y" type="float" />
              <param name="Z" type="float" />
            </accessor>
          </technique_common>
        </source>
        <source id="normals">
          <float_array id="normals_array" count="405">-0.005745715 0.757528722 0.652776539 0.722103775 0.509463012 0.467988878 0.272079289 0.928433239 0.252951831 0.972169757 -0.234275728 0.000925958797 0.990718365 0.0553184636 0.124164931 -0.129542992 -0.8901003 0.436966956 0.0245492123 -0.984295726 0.174812198 0.00237389863 -0.976851761 0.213904291 0.139251485 0.986845315 0.0821300298 0.0242347587 0.999471188 0.0216810387 0.0349013731 0.998242617 0.047891397 -0.945638478 0.0651625171 0.318624645 -0.996938288 -0.00951120351 -0.077611953 -0.949230015 -0.0691131055 0.306896895 0.0943994075 -0.99434346 0.0486815125 0.999259055 0.0369296595 0.0108437706 0.993387103 0.0973709151 -0.0608351491 0.980491996 0.0471659452 0.19081609 -0.00995323528 -0.999890924 0.0109096831 -0.0115798814 -0.998645008 0.0507356524 0.213500887 -0.96006918 0.180788711 0.832884669 0.508529484 0.218405202 0.420085013 0.868507206 0.2631042 0.241338506 -0.94081825 0.237942606 0.628973305 -0.729904056 0.267642796 -0.933354437 -0.00944068935 -0.358831972 -0.936815679 -0.0206906125 -0.349210948 0.0831006691 -0.996419013 0.0156024219 0.0233140942 -0.996055722 -0.0856119171 0.710023105 0.700585604 0.0710428432 0.00407747366 0.996934474 -0.0781345591 0.917481124 0.0416613482 0.395591587 0.0772926658 -0.996468902 0.032795053 -0.111686319 0.992410243 -0.0514596924 -0.963117421 -0.00667512277 -0.268998593 -0.998662472 -0.020328233 -0.0475401282 -0.969347239 -0.0209289007 -0.24480176 -0.100773096 -0.993903458 -0.0447293594 0.0192536153 -0.996612906 -0.0799501762 0.750093758 -0.659588754 0.0479792804 0.764261127 0.643797815 0.0378070697 0.986392081 0.0254032109 0.16243577 -0.977585196 0.00970516726 0.210316345 -0.958285272 0.0144549767 0.285447657 -0.994952619 0.0122412108 -0.0995962694 0.0116265146 0.992723882 0.119850539 0.00750019727 0.982468426 0.186278015 -0.561064124 0.641743004 0.522850811 -5.0404582e-05 -0.989067256 0.147465259 0.00810912065 -0.983410478 0.181212753 0.235724315 -0.963287532 0.128495783 -0.833395004 0.023861343 0.552162468 0.713319838 -0.694895685 -0.0910761058 -0.782349467 -0.064349629 -0.619506598 -0.967879295 0.0612903163 -0.243830144 0.142124608 0.0563715659 -0.988242328 0.560046554 0.828250468 -0.0186826698 0.818662107 0.495957136 -0.289514989 -0.636925042 0.612473905 0.468190342 -0.0489088669 0.934623003 0.352260977 -0.305517107 0.930972636 0.199872985 0.42331782 -0.0436767675 -0.90492779 0.735715866 0.00409346307 -0.677277982 0.733722568 0.00705366395 -0.679412603 0.0343241505 -0.983453572 0.177878901 0.417489648 0.808859408 -0.414063871 0.676719844 -0.56203258 -0.475572944 0.0913028196 0.971999466 -0.216519788 0.271161795 -0.922267079 -0.275490016 -0.0158498194 -0.98806715 -0.153205857 -0.0896289125 0.993785143 -0.0660128668 0.642367125 0.001320209 0.766395926 0.640757561 0.00313442829 0.767736852 0.631421685 0.0135497022 0.775321305 -0.139063761 -0.977180481 0.16056025 -0.0619504303 -0.995881438 -0.0661988333 -0.470367312 -0.788838387 0.395586431 -0.192691222 0.966362238 -0.170335248 -0.622059822 0.377878398 -0.685747385 -0.105266385 0.978306413 -0.178425327 -0.104701124 0.978408754 -0.178196535 0.862297058 0.482800543 0.152798727 -0.122894354 -0.988974333 0.0826244578 -0.187000275 -0.973654568 0.130490303 0.223153666 0.968497992 0.110517189 -0.9198277 0.202755615 0.335867792 -0.998321235 0.0241507459 -0.0526444241 0.110751197 0.316879451 0.941977501 0.972950935 -0.0478704609 0.225997448 0.0611729324 0.991095603 0.118268378 -0.870162308 0.103345715 0.481806159 -0.965945482 -0.0216902997 0.257835031 -0.918169379 -0.0311777629 0.39495939 -0.949633181 0.0163579062 0.312936544 0.0738205835 -0.994222641 -0.0779224336 -0.291398644 -0.942110479 -0.165875554 -0.0196291823 -0.994198203 -0.105757177 -0.552071333 0.00285468576 -0.833792031 -0.658410609 -0.0375720523 -0.751720548 -0.646973014 -0.0152903646 -0.762359619 -0.455108315 0.0119190803 -0.890356302 -0.384059608 -0.905341625 -0.181258723 -0.344025671 -0.919201493 -0.191611424 0.651594341 -0.00918996986 0.758511961 -0.0378235877 0.984902263 -0.168928668 -0.755081236 0.465625197 -0.461568534 0.0733366311 0.628537834 -0.774313867 0.193001658 -0.173813164 -0.965680778 -0.453713924 0.0670377836 -0.888622344 0.590973079 0.5879215 -0.552357852 0.745787621 0.0600304715 -0.663473606 -0.143995613 0.971733809 -0.187079191 0.578016222 0.0181988832 -0.815822303 0.71802938 -0.212364614 -0.662823558 -0.109355874 -0.0131459692 0.993915737 0.457495034 -0.0295495763 0.888721049 0.0600879788 0.0855684653 0.994518697 -0.0469337963 -0.993064821 -0.107793927 -0.28518942 -0.954547405 0.086638242 0.00259496388 -0.996518433 -0.0833324492 0.770148635 0.0670410842 0.634331644 0.946718156 -0.0423507914 0.319266528 0.896250784 0.0232486948 0.44293794 0.975610852 0.0130795306 0.219117299 -0.773141503 0.623917758 -0.11392463 -0.989910185 -0.113813423 -0.0844054297 -0.95695585 -0.127664506 0.260647893 -0.820061862 0.264243543 0.507615924 -0.8301211 -0.456771344 0.319779515 -0.619900584 -0.679211199 -0.392931759 -0.840806782 0.0313911065 -0.540424466 -0.362344891 0.882306218 0.300402969 0.39261964 0.00660119904 0.919677258 -0.0292899888 0.999557197 -0.00524040079 0.838354826 -0.0235533584 0.544615865</float_array>
          <technique_common>
            <accessor source="#normals_array" count="135" stride="3">
              <param name="X" type="float" />
              <param name="Y" type="float" />
              <param name="Z" type="float" />
            </accessor>
          </technique_common>
        </source>
        <vertices id="vertices">
          <input semantic="POSITION" source="#positions" />
        </vertices>
        <triangles material="qmat_6286805a07da3ff8" count="32">
          <input semantic="VERTEX" source="#vertices" offset="0" />
          <input semantic="NORMAL" source="#normals" offset="1" />
          <p>52 106 53 107 54 108 52 106 55 109 56 110 55 109 52 106 57 111 52 106 56 110 58 112 52 106 58 112 53 107 58 112 59 113 53 107 55 114 57 115 59 116 59 117 60 118 53 119 57 115 61 120 59 116 62 121 63 122 60 123 57 115 62 121 61 120 64 124 65 125 66 126 63 127 66 126 67 128 67 128 68 129 60 118 66 126 68 129 67 128 65 125 64 124 69 130 62 131 57 111 64 124 57 111 52 106 64 124 54 108 53 107 68 129 60 118 68 129 53 119 65 125 69 130 66 126 56 132 55 114 59 116 61 133 60 133 59 133 58 112 56 110 59 113 63 127 62 131 64 124 63 127 64 124 66 126 60 123 63 122 67 134 62 121 60 123 61 120 64 124 54 108 69 130 54 108 64 124 52 106 69 130 54 108 68 129 66 126 69 130 68 129</p>
        </triangles>
        <triangles material="qmat_c9293097d13fc8af" count="104">
          <input semantic="VERTEX" source="#vertices" offset="0" />
          <input semantic="NORMAL" source="#normals" offset="1" />
          <p>0 0 1 1 2 2 1 1 3 3 4 4 5 5 2 6 6 7 5 8 7 9 8 10 2 11 9 12 0 13 6 7 2 6 10 14 7 15 6 16 10 17 4 18 9 19 11 20 7 15 10 17 12 21 8 10 12 21 13 22 8 10 7 9 12 21 9 19 14 23 11 20 11 20 14 23 15 24 9 12 16 25 14 26 4 18 11 20 17 27 14 23 18 28 15 24 13 22 19 29 20 30 21 31 11 20 15 24 17 27 11 20 21 32 20 30 19 29 22 33 20 34 23 35 18 36 18 28 23 37 21 38 21 38 23 37 24 39 25 40 21 41 24 39 19 29 25 40 22 33 26 42 27 43 22 44 26 45 28 46 29 47 27 48 30 49 24 39 24 39 30 49 31 50 29 47 32 51 27 43 25 40 24 39 33 52 25 40 28 46 26 45 28 53 31 54 30 55 28 46 25 40 34 56 25 40 35 57 34 56 24 39 31 50 33 52 29 47 36 58 32 51 29 47 37 59 38 60 29 47 38 60 36 58 37 61 30 55 39 62 38 63 37 61 39 62 27 48 39 64 30 49 40 65 35 57 41 66 42 67 40 65 38 60 33 52 43 68 41 66 43 68 44 69 41 66 38 60 40 65 45 70 42 71 39 72 43 73 39 74 46 75 43 68 39 74 47 76 46 75 43 68 46 75 44 69 46 77 48 78 44 79 48 78 41 80 44 79 2 2 1 1 49 81 3 82 0 83 9 19 5 8 6 84 7 9 5 85 8 86 2 11 1 1 0 0 3 87 3 82 9 19 4 18 49 81 1 1 4 4 2 11 8 86 9 12 10 17 2 2 49 81 10 17 49 81 4 4 10 17 4 4 17 88 8 86 16 25 9 12 16 89 8 10 13 22 21 41 10 17 17 88 16 89 13 22 20 30 21 41 12 21 10 17 19 29 12 21 21 41 13 22 12 21 19 29 16 25 20 34 18 36 14 26 16 25 18 36 18 28 21 38 15 24 25 40 19 29 21 41 20 34 22 44 23 35 22 33 25 40 26 45 22 44 27 43 23 35 24 39 23 37 27 48 37 61 28 53 30 55 26 42 29 47 27 43 29 47 28 46 37 59 39 74 32 51 47 76 27 43 32 51 39 90 32 51 36 58 47 76 40 65 42 67 35 57 34 91 42 92 43 93 42 67 34 56 35 57 28 53 34 91 31 54 31 54 34 91 43 93 40 94 50 95 51 96 50 97 40 98 41 99 35 57 25 40 33 52 33 52 31 50 43 68 35 57 33 52 41 66 36 100 50 97 48 78 36 58 38 60 45 70 36 101 45 102 50 95 42 71 38 103 39 72 50 95 45 102 51 96 45 70 40 65 51 104 48 78 46 77 47 105 36 100 48 78 47 105 48 78 50 97 41 99</p>
        </triangles>
      </mesh>
    </geometry>
  </library_geometries>
  <library_visual_scenes>
    <visual_scene id="scene">
      <node id="FR_calf_dae">
        <instance_geometry url="#geometry">
          <bind_material>
            <technique_common>
              <instance_material symbol="qmat_6286805a07da3ff8" target="#qmat_6286805a07da3ff8" />
              <instance_material symbol="qmat_c9293097d13fc8af" target="#qmat_c9293097d13fc8af" />
            </technique_common>
          </bind_material>
        </instance_geometry>
      </node>
    </visual_scene>
  </library_visual_scenes>
  <scene>
    <instance_visual_scene url="#scene" />
  </scene>
</COLLADA>