<?xml version='1.0' encoding='utf-8'?>
<COLLADA xmlns="http://www.collada.org/2005/11/COLLADASchema" version="1.4.1">
  <asset>
    <created>2026-09-14T00:00:00Z</created>
    <modified>2026-09-14T00:00:00Z</modified>
    <unit name="metre" meter="1" />
    <up_axis>Z_UP</up_axis>
  </asset>
  <library_effects>
    <effect id="qmat_d857164d36b11abb_effect">
      <profile_COMMON>
        <technique sid="common">
          <lambert>
            <emission>
              <color sid="emission">0 0 0 1</color>
            </emission>
            <diffuse>
              <color sid="diffuse">0.85 0.85 0.85 1</color>
            </diffuse>
            <reflectivity>
              <float sid="specular">0.5</float>
            </reflectivity>
          </lambert>
        </technique>
      </profile_COMMON>
    </effect>
  </library_effects>
  <library_materials>
    <material id="qmat_d857164d36b11abb" name="qmat_d857164d36b11abb">
      <instance_effect url="#qmat_d857164d36b11abb_effect" />
    </material>
  </library_materials>
  <library_geometries>
    <geometry id="geometry" name="FR_hip_dae">
      <mesh>
        <source id="positions">
          <float_array id="positions_array" count="330">0.0526957922 0.0344689079 0.0131399669 0.0284300745 0.0342089683 0.0460420623 0.048850216 0.00770563167 0.0223854613 0.026308056 0.00835393928 0.0467366651 0.0254927743 0.00578447338 0.056700673 0.0226769019 -0.00347864139 0.0566901304 0.0329864137 -0.00214642589 0.0508448295 0.0599049889 0.00589330588 0.0123404274 0.0448777825 -0.00427499507 0.0361117646 0.0587794408 -0.00324328593 0.0183938779 0.0518514812 -0.00595069025 0.0160402823 0.04110853 -0.0212055333 0.0345660038 0.0535813235 -0.0211780481 0.00475404179 0.0369432867 -0.0021700873 0.0474374518 0.0385642312 -0.00216066069 0.0460416116 0.0378127098 -0.00216516014 0.0466887653 0.0448474512 -0.0215116404 -0.0301425122 0.0116890073 -0.00580298249 0.0530273765 0.0170577168 -0.0214020722 0.0511814542 -0.0105994791 -0.0214804336 0.0526756309 -0.00442066928 0.0344287567 0.053342741 -0.0313283764 0.0139385946 0.0450415947 -0.0106537212 0.0105931703 0.0523521304 -0.00994306616 -0.00201636599 0.0604774021 -0.0358722918 0.0344645269 0.040494822 0.0513172597 0.00787587557 -0.0133265741 0.0515505113 0.00566625455 -0.032713566 0.0414172076 0.00786451343 -0.0337297879 0.0128889587 0.0344239138 -0.0517313033 0.0342433229 0.0342667624 -0.0405297205 0.0173822362 0.00778558757 -0.0508210137 0.0228791814 0.00568321068 -0.0560165085 0.0565989017 -0.003363522 -0.0242312104 0.0472038165 -0.00579813635 -0.025413163 -0.00970239844 -0.00323913153 -0.0608606413 -0.0108433953 -0.0142813157 -0.0529444292 -0.0115535986 -0.0150569137 -0.0623671785 0.049299404 0.034442775 -0.0201497655 -0.00932272244 0.00545838941 -0.0614031702 -0.00257942616 -0.00555878086 -0.0538802333 0.0156501811 -0.0213920474 -0.0520515442 -0.0265272204 -0.0213393681 -0.0480421856 -0.0122077512 0.0140695469 -0.0631209612 -0.0107751833 0.0104235699 -0.0511374883 -0.0532940552 0.0344461724 0.00823440123 -0.0160546508 0.0344472155 -0.0518603511 -0.0301146898 0.0167758744 0.054546304 -0.056249328 0.0243744161 0.0468466729 -0.0412546545 0.00232735206 0.0565301031 -0.0653992817 0.0145174582 0.0488583781 -0.0504108071 0.0138980532 0.0186281241 -0.0575276911 0.0622590072 0.0107365074 -0.0688802078 0.0545017719 0.0100804772 -0.0577308796 0.0507111251 0.0114325443 -0.0684346184 0.0623446517 -0.0105011398 -0.0654397532 0.0523285232 -0.0010541419 -0.0580453388 0.0414308086 0.0323448442 -0.0683245286 0.0445980765 0.0296787694 -0.068738319 0.0201919451 0.0494528711 -0.0899999663 0.0483177938 0.0262353159 -0.0899999663 0.0175512657 0.0515909307 -0.0654294342 0.0385023057 0.0334934406 -0.05361614 0.014084165 -0.0076816408 -0.0899999663 -0.0499103181 -0.0202541389 -0.0453300104 -0.021289045 0.031369321 -0.0535009578 -0.0213481281 -0.0145236431 -0.0301950406 -0.0146469129 0.0460163914 -0.0649122298 -0.0145220226 0.0480292551 -0.0436691195 -0.021887986 0.0499434695 -0.065492548 -0.0260733813 0.0456571542 -0.068277359 -0.0103888297 0.0524774641 -0.0493579842 -0.0141771873 0.0242693778 -0.0899808332 -0.0221235026 0.0498039983 -0.0653284565 -0.0144531075 -0.0475992225 -0.0540939122 -0.0141915362 -0.0100856181 -0.0899999663 -0.0479651615 0.0259791184 -0.0657693967 -0.0416508131 0.0331263505 -0.0657052249 -0.0522370189 0.0112715904 -0.0656182319 -0.0528934859 -0.00851197354 -0.0530166887 0.0231725518 -0.0476945788 -0.0274260584 0.0182716791 -0.0557967424 -0.0396285541 -0.00216036779 -0.0568776801 -0.0245509017 0.0133730443 -0.0499376953 -0.0423571356 0.013923551 -0.03428635 -0.0690555051 0.0468510538 -0.0256398339 -0.0578613095 0.0463220216 -0.0239994451 -0.0688928813 0.033031147 -0.0421249531 -0.0578465164 0.0343714468 -0.0390191674 -0.0899999663 0.0519222766 -0.0130131822 -0.0899995863 0.0338255279 -0.0418948568 -0.0652840212 0.0380784534 -0.0344656594 -0.0579340719 0.0509286523 -0.00982098188 -0.0577035844 0.0619183406 -0.0104995137 -0.0650070086 0.0141630145 -0.0484432466 -0.0684464127 0.00915221497 -0.0527460203 -0.0899999663 -0.00129205687 -0.0538096279 -0.0655815229 -0.0236820988 -0.0479891747 -0.0392837562 -0.0196525883 -0.0516210049 -0.0306561533 -0.0138349952 -0.0454583988 -0.0457573421 -0.0141778635 -0.0297443159 -0.0899808109 -0.0307118725 -0.0441023856 -0.0657372475 -0.0422773324 -0.0324049778 -0.0118624857 0.0146300336 0.0628935471 -0.012137223 -0.014716344 0.0629931837 -0.010423189 -0.0111274617 0.0528608337 0.0278240368 -0.00354072265 -0.054655917 0.0264422577 -0.00558551308 -0.0472092293 -0.0686220303 0.0526135899 -0.00935950968 -0.0395304263 -0.0145536028 0.05056604 -0.0485344455 0.0342412814 -0.0254893079</float_array>
          <technique_common>
            <accessor source="#positions_array" count="110" stride="3">
              <param name="X" type="float" />
              <param name="Y" type="float" />
              <param name="Z" type="float" />
            </accessor>
          </technique_common>
        </source>
        <source id="normals">
          <float_array id="normals_array" count="606">0.970099866 0.00508923782 0.242652714 0.532750309 0.0123529192 0.846182346 0.761993527 0.443275869 0.472093582 0.43155247 0.620064497 0.655196548 0.361964285 0.518881321 0.774431467 0.252438426 -0.610740006 0.75051415 0.556203187 -0.463279396 0.689934909 0.815118492 0.562227011 0.13958019 0.760855436 0.30428344 0.573158443 0.82802099 -0.437652886 0.350487024 0.752022386 -0.28853935 0.592627525 0.74929136 -0.638551295 0.175541013 0.759051025 -0.213396773 0.615063667 0.998933434 0.0416198373 0.0199955888 0.574691534 -0.469177127 0.670524001 0.233272776 -0.928904116 0.287612528 0.675621331 0.653383613 0.341505021 0.652536452 0.000153675355 0.757757366 0.652536511 0.000154030393 0.757757306 0.0124093499 -0.999908149 0.00544717768 0.00209865975 -0.999997616 0.000608164701 0.0156730562 -0.9998613 0.00563546922 0.155174583 -0.57851392 0.800776184 0.322089702 -0.0491080992 0.94543463 0.00516211195 -0.999981821 0.00311133661 -0.13245672 -0.679261267 0.721844375 0.00196210365 0.99999088 0.00378643302 0.010100333 0.9998312 0.0153482966 0.00146307494 0.999997079 0.0019247426 -0.0500511825 0.00843521114 0.99871105 -0.55619204 0.0381133631 0.830179393 -0.116518609 -0.0108047221 0.99312973 0.0721975937 -0.115020581 0.990735948 -9.64474384e-06 1 0.000128977495 0.41727525 0.904880166 -0.0841023028 0.700465143 0.515255988 -0.493821681 0.222949386 0.94749707 -0.229222327 0.215853199 0.0030430234 -0.976421058 0.644342661 0.0235997085 -0.764372706 0.234811977 0.64848268 -0.724108756 0.290138245 0.568995476 -0.769456923 0.84184289 -0.46086356 -0.280900896 0.90786469 0.0367319174 -0.417651117 0.83314079 -0.0180003401 -0.552767932 0.684898138 -0.266702235 -0.678074062 0.229518116 -0.360521317 -0.904071808 0.479695708 -0.183102965 -0.858117342 0.0021046719 0.99999392 -0.00277233822 0.0194036122 0.999547899 -0.0229670219 0.00242789323 0.999991298 -0.00339709525 0.522605836 0.288297325 -0.802351415 0.180093423 -0.602545798 -0.777499139 0.219369158 -0.640620887 -0.735854685 -0.348114431 -0.646420121 -0.678938389 0.413293451 0.658725917 -0.628704011 0.249181345 0.632063627 -0.733760357 -0.00227391487 0.999996245 -0.0015406555 -0.00164222834 0.999997497 -0.00151693635 -0.289874315 0.346013576 0.892327011 -0.0365766622 0.506559551 0.861428797 -0.202126041 0.0520027615 0.977977931 0.320354909 -0.465731412 -0.824904263 0.170864567 -0.346827567 -0.922234237 0.261534095 -0.45778504 -0.849725127 -0.678538084 0.057539437 0.732308149 -0.923611522 0.0135673527 0.383089721 0.015485133 0.998377919 -0.0547880977 0.0782944486 0.972506344 -0.219320253 0.0269685686 0.999618888 -0.0058932337 -0.347551137 0.698110759 0.625978947 -0.213823602 0.892854571 0.396346003 0.105656259 0.631770492 0.76792109 -0.654387712 0.753285646 0.0658589303 0.632329285 -0.774687052 0.0044279974 0.317676723 -0.895363092 -0.312099963 0.270182729 -0.778864443 -0.566013694 0.0752046704 0.789560139 0.609047651 -0.0103712678 0.412530661 0.910884678 0.0557862818 0.756071091 0.652107656 -0.0481462888 0.857444227 0.512319565 0.00611683773 0.327783287 0.944733143 0.17646493 -0.711654305 -0.680006087 -0.983391583 0.0502370708 0.174405381 -0.991109252 0.00256718602 -0.133025855 -1 -1.17679474e-06 -2.63941683e-06 -1 -0.000118415737 -0.000146866834 -1 -0.000161621967 0.000151607863 -0.640291691 -0.61280489 0.463137925 -0.750247836 -0.630654871 -0.198500931 -0.473516732 -0.417575091 0.775508165 0.14310883 0.15885669 -0.976874828 0.196295038 0.00588101475 -0.980527222 0.153703108 0.191349402 -0.969412565 -0.049427297 -0.162043244 0.98554498 -0.930824161 -0.218907252 0.292653412 -0.0172307417 -0.402164489 0.915405273 0.00462705269 -0.495577663 0.868551314 0.00742402952 -0.999925852 -0.00965218898 0.0902419612 -0.742256999 0.66401124 0.0126908813 -0.999906361 -0.00511726458 0.0348966271 -0.99938488 -0.00348236109 -0.999999881 -0.000269619748 0.000380050245 -0.0345579498 -0.894816816 0.445093989 0.0333913229 -0.764445066 0.643823564 -0.072082229 -0.983392954 0.166560695 0.999352872 -0.0359674767 -0.000433294976 0.999277771 -0.0329644084 0.0189018808 0.999856293 -0.0158894453 0.00590618048 -0.0655167103 -0.990230083 -0.123093292 -0.0574370958 0.387264431 -0.920177817 -0.3186571 0.238837764 -0.917286336 -0.214104354 -0.0291470345 -0.976375818 0.333913147 0.793456376 0.508850634 0.367126018 0.794344246 0.483979076 0.176318854 -0.237296671 0.955302 -0.275523245 0.0445070304 -0.96026355 -0.435614437 0.0939490274 -0.895217121 -0.754383981 0.06698443 -0.653006852 0.0419315062 0.865020037 -0.499982119 0.10292808 0.87808764 -0.467298537 0.0362153649 0.618255854 -0.785142124 0.10583362 0.719136655 -0.686761737 -1 -1.71540905e-05 -1.68182203e-06 -1 1.04781145e-06 -1.61356763e-06 -0.0881714225 0.963284552 -0.253591508 -0.0471274108 0.617233455 -0.78536737 0.332041472 -0.852196395 0.404363394 0.697223544 -0.53145057 0.481081665 0.173608109 -0.605610371 0.776592791 0.117146879 0.938666105 -0.324318558 0.999748468 -0.0204510856 -0.00920609664 0.999780118 -0.0191513002 -0.00854185782 0.999719501 -0.0215711407 -0.00977848936 0.097401157 -0.966440678 0.237708732 -0.0245210137 0.99966073 0.00878616236 0.0153255863 0.999853611 -0.0076070996 0.0156967677 0.999860883 -0.00563976681 -0.0475017689 0.176932573 -0.983076036 -0.0124164009 -0.0172503907 -0.999774098 0.203808039 -0.347299993 0.915338755 0.143531635 -0.0457066521 0.988589704 0.0852781758 -0.723639786 0.684889138 0.162264004 -0.910629809 0.380031168 -0.997529507 -0.0590720139 -0.038018629 -0.748408258 -0.344484895 -0.566758573 -0.613423407 -0.0665597394 -0.786944389 0.00830808096 -0.996646166 0.0814089328 0.298605084 -0.866523027 0.399966031 -0.183855787 -0.286216468 -0.940360129 0.0140134273 -0.999901831 5.37331543e-05 -1 -0.000136239541 -0.000197354821 -0.0321152844 -0.349493116 -0.936388373 -0.0286018513 -0.570231974 -0.820985615 -0.999997616 -0.00124696433 -0.00180748664 -0.0496948883 -0.941203058 -0.334166437 0.0233550631 -0.794141769 -0.607283592 0.978588045 -0.0329148173 -0.203179747 0.352642328 -0.844088674 0.403927922 0.352592736 -0.844121993 0.403901517 0.352838874 -0.843956411 0.404032469 0.35308212 -0.843792737 0.4041619 0.88820827 -0.0172051806 0.459118813 0.380143464 0.161781847 0.910668731 0.389535397 -0.624407828 0.677035451 -0.0602477379 -0.213483363 0.975087225 0.683778405 -0.716499567 -0.138113722 -0.00796245504 0.637119353 0.770724058 0.991856575 0.103617758 0.0740535185 0.933223426 0.032077305 -0.357861876 0.766089916 -0.0168527309 -0.642512441 0.415882796 -0.509320796 -0.75341481 0.521279871 -0.0238103159 -0.85305357 0.264974564 -0.948611915 -0.172985122 0.154103577 -0.959717631 -0.23493439 0.153469011 0.940547407 -0.303014606 0.254596591 0.913745761 -0.316621602 0.253821611 0.912645459 -0.320394933 -0.999734759 0.0174970701 -0.0149767026 0.999998927 0.00143285003 0.000274910126 0.999986112 0.00478708185 0.00220549759 0.0231316332 -0.999089181 -0.0358577669 0.308044791 -0.0934598818 -0.946770132 0.407479137 -0.153520808 -0.900217831 -0.159262285 -0.280923158 0.94642365 -0.00804588851 -0.999940753 -0.00733252894 0.999759197 -0.0195346121 -0.0099946456 0.998775542 -0.0492774025 -0.00438272208 -0.999999702 0.000770424434 -3.24075409e-05 -0.876576126 0.0429548323 -0.479342431 0.0190217439 0.999727607 -0.0135226594 -0.0127308434 0.999888003 -0.00787167065 0.0458037332 0.967865348 -0.247262314 -0.0609610602 -0.115144111 -0.991476476 -0.0311852489 -0.0880036205 -0.995631874 -0.0298673697 -0.0868001282 -0.995777905 0.0396927483 0.999078035 -0.0163561758 0.999804735 -0.0180738326 -0.00799123291 -0.00229501026 -0.0615771562 -0.998099685 0.999949276 0.0092459498 0.00399763044 0.999949515 -0.010033329 -0.000588516588 0.999607205 -0.0232389122 -0.0156640336 0.9994151 -0.0264935344 -0.0216229241</float_array>
          <technique_common>
            <accessor source="#normals_array" count="202" stride="3">
              <param name="X" type="float" />
              <param name="Y" type="float" />
              <param name="Z" type="float" />
            </accessor>
          </technique_common>
        </source>
        <vertices id="vertices">
          <input semantic="POSITION" source="#positions" />
        </vertices>
        <triangles material="qmat_d857164d36b11abb" count="216">
          <input semantic="VERTEX" source="#vertices" offset="0" />
          <input semantic="NORMAL" source="#normals" offset="1" />
          <p>0 0 1 1 2 2 2 2 1 1 3 3 4 4 5 5 6 6 7 7 8 8 9 9 8 10 10 11 9 9 10 11 11 12 12 13 6 6 5 5 13 14 13 14 5 5 8 15 4 4 14 16 8 8 6 6 13 14 15 17 6 6 15 17 14 18 11 19 16 20 12 21 5 5 17 22 8 15 17 22 18 23 8 10 8 10 18 23 11 12 11 19 18 24 16 20 17 22 19 25 18 23 20 26 1 27 0 28 20 29 21 30 22 31 4 4 23 32 5 5 18 24 19 25 16 20 24 33 20 26 0 28 25 34 26 35 27 36 28 37 29 38 30 39 27 36 26 35 31 40 7 7 9 9 32 41 9 9 10 11 32 41 10 11 12 13 33 42 33 42 12 13 16 43 34 44 35 45 36 46 37 47 29 48 28 49 30 39 31 40 38 50 39 51 40 52 35 45 35 45 40 52 41 53 42 54 43 55 38 50 42 54 38 50 36 46 24 33 0 28 44 56 44 56 0 28 45 57 46 58 47 59 48 60 47 61 46 62 49 63 24 64 50 65 21 30 49 66 21 67 50 68 20 29 24 64 21 30 51 69 52 70 53 71 52 70 51 69 54 72 55 73 53 74 56 75 57 76 58 77 56 78 59 79 60 80 57 76 57 76 60 80 58 77 61 81 56 75 49 63 44 82 62 83 50 65 56 75 47 61 49 63 56 78 58 77 47 59 47 59 58 77 48 60 59 84 63 85 60 86 64 87 65 88 16 20 66 89 64 87 19 25 67 90 68 91 69 92 58 77 60 80 70 93 71 94 65 88 64 87 60 80 72 95 70 93 70 93 72 95 69 96 67 97 73 98 71 99 71 99 73 98 74 100 60 86 63 85 72 101 72 95 75 102 76 103 76 103 75 102 77 104 69 105 76 106 77 107 77 104 75 102 78 108 79 109 80 110 81 111 82 112 80 113 79 114 80 110 42 54 81 111 45 115 82 116 83 117 43 55 42 54 82 112 82 112 42 54 80 113 84 118 85 119 86 120 86 120 85 119 87 121 88 122 89 123 59 84 88 124 84 118 89 125 85 126 90 127 87 128 91 129 85 119 84 118 92 130 53 131 91 132 91 133 55 73 85 126 87 128 90 127 79 114 87 121 79 109 86 120 62 134 83 135 93 136 59 84 89 123 63 85 89 125 94 137 95 138 90 127 93 139 79 114 73 98 96 140 97 141 98 142 73 98 97 141 74 143 99 144 65 88 98 145 35 45 41 53 35 146 98 146 36 146 98 142 97 141 36 147 65 88 41 53 16 20 36 46 97 148 81 111 99 144 41 53 65 88 99 149 73 98 98 142 89 123 95 150 63 85 94 137 81 111 96 151 74 100 73 98 99 149 95 138 96 151 100 152 63 85 95 150 100 153 78 108 63 154 101 155 75 102 63 154 78 108 3 3 7 7 2 2 0 0 2 2 25 156 3 3 4 4 7 7 7 7 4 4 8 8 25 34 2 2 7 7 4 4 6 6 14 16 15 157 13 158 8 159 14 160 15 157 8 159 10 11 8 10 11 12 23 161 102 162 103 163 17 22 23 32 104 164 104 165 23 161 103 163 17 22 104 164 19 25 1 1 20 29 3 3 104 164 66 89 19 25 5 5 23 32 17 22 22 166 4 4 3 3 23 32 4 4 22 166 22 167 102 162 23 161 20 29 22 31 3 3 37 168 0 0 25 156 27 169 37 168 25 156 30 39 29 38 27 169 29 38 37 168 27 169 30 39 27 36 31 40 31 40 26 35 105 170 40 52 106 171 16 43 105 170 26 35 32 41 25 34 7 7 26 35 26 35 7 7 32 41 32 41 10 11 33 172 32 41 33 172 105 170 33 172 106 173 105 170 33 42 16 43 106 171 45 57 0 28 37 47 34 44 38 50 105 170 105 170 39 51 34 44 40 52 16 20 41 53 34 44 39 51 35 45 106 173 39 51 105 170 38 50 31 40 105 170 45 57 37 47 28 49 45 115 28 37 30 39 39 51 106 171 40 52 43 55 30 39 38 50 45 115 30 39 43 55 36 46 38 50 34 44 82 116 45 115 43 55 102 162 46 58 48 60 46 174 22 175 21 67 49 66 46 174 21 67 102 162 48 60 103 163 24 64 44 82 50 65 46 174 102 176 22 175 57 76 56 78 53 71 57 76 53 71 52 70 52 70 54 72 107 177 56 75 61 81 55 73 59 79 52 70 88 124 59 79 57 76 52 70 93 136 49 66 50 68 55 73 61 178 49 179 48 60 58 77 70 93 104 165 103 163 66 180 108 181 103 182 68 91 103 163 48 60 68 183 103 163 108 184 66 180 19 25 64 87 16 20 66 89 71 94 64 87 66 180 108 184 71 99 108 184 67 97 71 99 67 90 108 181 68 91 48 60 70 93 68 183 65 88 71 94 74 143 68 183 70 93 69 96 73 185 67 186 69 105 69 96 72 95 76 103 72 101 63 85 75 187 79 114 93 139 82 112 62 83 109 188 83 117 93 136 83 135 82 189 83 117 109 188 45 115 109 190 44 56 45 57 84 118 86 120 89 125 90 127 55 73 49 179 88 124 52 70 107 191 85 126 55 73 90 127 88 124 107 191 84 118 107 191 91 129 84 118 107 192 54 193 91 194 54 72 51 69 92 195 92 130 51 196 53 131 54 193 92 197 91 194 53 74 55 73 91 133 62 83 44 82 109 188 94 137 79 109 81 111 93 198 90 127 49 179 89 125 86 120 94 137 86 120 79 109 94 137 93 136 50 68 62 134 81 111 42 54 36 46 99 144 98 145 41 53 96 151 81 111 97 148 95 138 94 137 96 151 78 199 69 105 77 107 100 152 96 151 101 155 101 200 73 185 78 199 96 201 73 185 101 200 73 185 69 105 78 199 100 152 101 155 63 154</p>
        </triangles>
      </mesh>
    </geometry>
  </library_geometries>
  <library_visual_scenes>
    <visual_scene id="scene">
      <node id="FR_hip_dae">
        <instance_geometry url="#geometry">
          <bind_material>
            <technique_common>
              <instance_material symbol="qmat_d857164d36b11abb" target="#qmat_d857164d36b11abb" />
            </technique_common>
          </bind_material>
        </instance_geometry>
      </node>
    </visual_scene>
  </library_visual_scenes>
  <scene>
    <instance_visual_scene url="#scene" />
  </scene>
</COLLADA>