<?xml version='1.0' encoding='utf-8'?>
<COLLADA xmlns="http://www.collada.org/2005/11/COLLADASchema" version="1.4.1">
  <asset>
    <created>2026-09-14T00:00:00Z</created>
    <modified>2026-09-14T00:00:00Z</modified>
    <unit name="metre" meter="1" />
    <up_axis>Z_UP</up_axis>
  </asset>
  <library_effects>
    <effect id="qmat_76551a3993c45b27_effect">
      <profile_COMMON>
        <technique sid="common">
          <lambert>
            <emission>
              <color sid="emission">0 0 0 1</color>
            </emission>
            <diffuse>
              <color sid="diffuse">0.6500053 0.68 0.6500053 1</color>
            </diffuse>
            <reflectivity>
              <float sid="specular">0.5</float>
            </reflectivity>
          </lambert>
        </technique>
      </profile_COMMON>
    </effect>
    <effect id="qmat_d857164d36b11abb_effect">
      <profile_COMMON>
        <technique sid="common">
          <lambert>
            <emission>
              <color sid="emission">0 0 0 1</color>
            </emission>
            <diffuse>
              <color sid="diffuse">0.85 0.85 0.85 1</color>
            </diffuse>
            <reflectivity>
              <float sid="specular">0.5</float>
            </reflectivity>
          </lambert>
        </technique>
      </profile_COMMON>
    </effect>
  </library_effects>
  <library_materials>
    <material id="qmat_76551a3993c45b27" name="qmat_76551a3993c45b27">
      <instance_effect url="#qmat_76551a3993c45b27_effect" />
    </material>
    <material id="qmat_d857164d36b11abb" name="qmat_d857164d36b11abb">
      <instance_effect url="#qmat_d857164d36b11abb_effect" />
    </material>
  </library_materials>
  <library_geometries>
    <geometry id="geometry" name="FR_thigh_dae">
      <mesh>
        <source id="positions">
          <float_array id="positions_array" count="183">0.0459343232 0.0817355439 0.0476741903 -0.0471473783 0.0508756563 0.0434186682 0.0528598838 2.93450612e-05 0.0488247573 0.0698449612 -0.0128483772 -0.00780343451 0.0188906379 -0.0277250856 0.0462402441 -0.0165544227 -0.0164172314 0.0689939782 0.0561780222 -0.0223426912 -0.0240757782 -0.000714001304 -0.0356958136 0.0355875418 0.0642628372 -0.0158130955 0.0195621476 0.00577069633 -0.0161065534 -0.0830681175 -0.0322348811 -0.0227957163 0.065322794 -0.0186505131 -0.0370969474 -0.00236606249 0.0292073209 -0.0303113349 -0.0367181152 0.0302522816 -0.0310505051 -0.0237340257 0.0312256534 -0.0323126614 -0.0234379433 0.00549007952 -0.0373709686 0.00884097815 -0.0523969829 0.0908405483 -0.0371808596 -0.037790224 0.0329689123 -0.0620038845 -0.056936577 -0.0252843089 0.0319810845 -0.0420329198 -0.0284316223 0.0150410431 -0.0437340438 -0.0279156175 0.0152365575 -0.06864696 -0.00913059898 0.00142095436 -0.0588352308 -0.0243906714 0.00573439384 -0.0416748151 -0.030299088 0.00446120789 0.00643539568 -0.0302541479 -0.0461360402 -0.0171419252 -0.0313624404 -0.0475393571 0.0145963486 -0.0311344657 -0.0472257584 -0.03406642 -0.0345009528 -0.00792084727 -0.0362042114 -0.0312775411 -0.0151521387 -0.0677884445 0.00296452129 -0.0323127173 -0.0652393699 0.00764292432 -0.0234050117 -0.0683083683 -0.00720245391 -0.035620708 -0.0552411303 0.0121481586 -0.230212882 -0.0571433008 0.0156307854 -0.0799594671 -0.0435339883 -0.0292640254 -0.0244038217 -0.0537537597 -0.0173603632 -0.0965963677 0.0157568026 0.0374689884 -0.0607398674 0.0391722359 0.0124140009 -0.0490585677 0.0389312916 0.0124210957 -0.0498050191 0.0391519889 0.0111586582 -0.0495425016 0.0410495661 0.011908887 -0.0465018377 0.0270327348 -0.0148993582 -0.0742732137 0.0552231371 0.0951032862 -0.0288587771 0.0313499719 0.00208542729 -0.0664107576 0.015328995 -0.0149624916 -0.0885865688 -0.00329989963 -0.0106534725 -0.229812235 0.0103852749 0.00716203684 -0.092904374 0.0133742793 0.0054159197 -0.0863760784 0.0221962966 0.00583386282 -0.0750100315 -0.00573989516 -0.019528592 -0.124821186 -0.03943168 -0.0223941114 -0.221843123 -0.0339370966 -0.0216181651 -0.109714836 -0.0285697822 -0.0234364346 -0.101760574 -0.0233902428 -0.022398077 -0.113963254 -0.00581817236 0.0116376076 -0.204881027 -0.0546753295 -0.0125501445 -0.100408174 -0.0551777557 -0.0146545935 -0.101263814 -0.055984877 -0.0137203773 -0.100239106 -0.0267038085 0.0277188532 -0.334417492 -0.0288144089 -0.0289557241 -0.347150087 -0.0332520567 -0.0192376692 -0.104883656</float_array>
          <technique_common>
            <accessor source="#positions_array" count="61" stride="3">
              <param name="X" type="float" />
              <param name="Y" type="float" />
              <param name="Z" type="float" />
            </accessor>
          </technique_common>
        </source>
        <source id="normals">
          <float_array id="normals_array" count="546">-0.139896691 0.65630132 0.741415858 -0.631109715 0.438879222 0.639598012 0.640093923 -0.153850526 0.75273484 0.97302264 0.137174696 0.185499534 0.99134475 0.101886451 -0.0827932134 -0.463481933 -0.830358505 -0.309336811 -0.245913282 0.936906397 -0.24846141 -0.326902479 0.939599395 -0.101428367 -0.196944654 0.923677802 -0.328682452 -0.0878022462 0.987422526 -0.131482169 0.306335062 -0.949792504 0.0636634901 0.0956209302 -0.937266886 0.335242271 0.360186785 -0.927805424 0.0971728489 0.403443128 -0.896291554 0.184106186 -0.0535216369 -0.996707916 -0.0608995035 0.253372699 -0.960569263 -0.114494182 -0.349171847 -0.915111065 0.201620355 0.000406245497 -0.990783513 -0.135454103 0.203518376 -0.958441377 0.199925914 0.29863739 -0.807895541 0.508055568 0.37235409 -0.920234382 -0.120503411 0.636430323 0.668621838 0.384579271 -0.753663719 -0.627268136 -0.196279719 -0.779032886 -0.575937212 -0.247798458 -0.794419587 0.16204378 -0.58535403 0.388641834 -0.905964017 0.167889044 0.457232893 -0.889060199 -0.0225846656 0.685976267 -0.681910694 -0.253839105 -0.776756644 0.242290691 -0.581329823 -0.973174751 -0.224969044 -0.0481650271 -0.868130684 0.491693169 -0.0677267238 0.127284527 0.977659762 -0.16727224 0.424363136 0.905106485 0.026424177 0.308527291 0.893693447 0.325765103 0.298214316 0.950639784 0.0857450068 0.657068908 0.753794611 0.00735927559 0.140627608 0.964590609 -0.223134175 -0.29887569 0.919782102 -0.254311353 0.650716007 0.693584621 -0.309045255 0.823444843 0.422350109 -0.378891796 0.235183507 0.95848614 -0.161223471 0.421141028 0.901944935 -0.0955799744 -0.315673798 -0.947821736 0.0445418283 -0.444080621 -0.895898163 -0.0126036257 -0.239633903 -0.954747677 0.176160187 -0.183412954 0.968826532 0.166537642 -0.0489383601 0.997774422 0.0452910885 0.0838116929 -0.991572618 -0.09878923 0.126077041 -0.964144707 0.23351559 -0.0362557471 -0.996434331 -0.0761845633 0.00350757781 -0.912973702 -0.408003271 0.0459909402 -0.998123527 0.0404259078 0.107222073 -0.980463505 0.164908126 0.136945933 0.958090246 0.251612663 0.0192527622 0.998825669 -0.0444584601 -0.963647664 0.263764858 0.042559322 -0.964108229 -0.00563905714 0.265449762 -0.632260203 0.773987174 0.0345092714 -0.942609251 -0.324507147 -0.0786318853 -0.498255491 0.863063514 0.0828425586 -0.906410873 0.422301888 0.00896728877 -0.957020104 0.1941652 0.215435475 -0.691243589 -0.664045215 0.285002083 -0.968044996 -0.226547629 0.107540794 -0.726336956 -0.53071177 0.436783314 -0.312548608 -0.947978079 -0.0604232326 0.502355099 0.863725781 0.0402134694 0.679720342 0.725819588 0.105670504 0.0228244606 0.427967221 -0.903506041 0.265037924 0.318648458 -0.910064876 -0.0153136095 0.391565412 -0.920022845 -0.946952164 -0.102187574 0.304695487 -0.867069721 -0.0590900853 0.494670033 -0.730313301 0.390563458 0.560448647 -0.728038251 0.484099418 0.485394776 0.983732581 0.107811972 -0.143689722 0.748960853 0.0864989087 -0.656944156 0.759337783 -0.648786187 -0.049825158 -0.863915265 0.0407258011 0.501987875 0.668331623 0.0434470437 -0.742593527 0.751821995 -0.0951304287 -0.652467489 0.69389981 0.0625001341 -0.717354059 -0.972691894 0.221802697 0.0683666542 0.479635239 0.877338767 0.0150581812 0.467012972 0.884189963 -0.0103426836 -0.673961699 0.540872931 0.50322175 -0.735542595 0.38606897 0.556711614 -0.615586877 0.644072711 0.454117924 0.492151439 -0.411446929 0.767136514 0.378480762 -0.43656978 0.816185713 0.0805779994 -0.468043983 0.880023837 -0.746030152 0.350578815 0.566156805 0.923990369 -0.11860764 -0.363557398 0.363072306 -0.931540728 -0.0202584472 -0.556748271 0.77236867 0.305741668 -0.272713721 0.914224565 0.299700916 -0.416138053 -0.907588184 -0.0557926223 0.052503638 -0.988847554 -0.139369443 -0.991489172 -0.123154975 0.0422147065 0.175858185 0.964555144 0.196741641 0.16661945 0.966557145 0.194949433 0.154092118 0.918326437 0.364598662 0.167878851 0.979849994 0.108215824 0.367551625 -0.898599923 -0.239633128 0.0142985377 0.964264929 0.264553845 -0.239746124 0.904622555 0.352391541 -0.4799698 0.426329613 -0.766728163 0.978249013 0.0440987423 -0.202692345 0.967620134 0.211916223 -0.137123451 0.976715863 0.0117522888 -0.214214996 -0.928807735 -0.358284742 -0.0945947766 -0.963807583 0.0920998529 -0.250185013 -0.977087557 -0.0279207621 -0.210998461 -0.0765718073 -0.313893288 0.946365535 0.392223388 -0.548795223 0.738230765 -0.0946061462 0.87274915 -0.478913963 0.934765816 0.0173963681 0.354838312 -0.346850127 -0.481501132 -0.804892302 -0.203848168 0.96642518 -0.15642345 -0.135727257 0.982278883 -0.129253104 0.431711048 -0.888457656 0.155783832 0.277062804 -0.952824354 0.123943225 -0.794857502 -0.606080294 0.0294666886 -0.348439395 0.936163485 -0.0467751138 -0.313332289 0.924335659 -0.217776299 -0.316454083 0.945288897 0.0792824998 -0.350158125 0.919224977 -0.180040792 -0.378522843 0.919103205 -0.109406114 -0.197467014 0.923824847 0.327954859 -0.0518225618 0.984809697 0.165723607 -0.282525063 -0.954480529 0.0956373289 -0.260231048 -0.96418941 0.0511719808 -0.548510969 -0.118723564 0.827671707 -0.481424153 -0.840830684 -0.247456059 0.589269936 -0.582580149 0.559786856 0.80907017 -0.586102486 0.0434664078 0.843912661 -0.433983654 0.315388024 0.836143136 -0.519381881 0.176372215 0.269118607 -0.857587993 -0.438312709 0.320974439 -0.853548348 -0.410402954 -0.0280999243 -0.826480269 -0.562263966 0.361292124 -0.848232388 -0.387259424 0.223760024 0.349958271 -0.909648657 0.832455933 0.124149993 -0.540003657 -0.842071056 -0.190904677 0.50445199 -0.770366371 -0.0959763229 0.630336523 0.944237649 -0.123893097 -0.305066735 0.85833478 -0.447408676 0.251171142 0.956173241 -0.252379775 -0.148449227 0.743198872 0.668738127 -0.0210882295 -0.0263945144 0.384028465 -0.92294389 -0.0351835378 0.367645383 -0.929300249 0.0201263092 0.999764264 0.0081455335 -0.503543079 0.0452874005 -0.862782359 -0.79137361 -0.611277223 0.00824243203 -0.904574335 -0.0407358296 -0.424365312 -0.316995174 -0.442847192 0.838689685 -0.413035631 -0.898497283 0.148674741 -0.648504674 -0.744464338 0.158791021 -0.0418055803 -0.906804979 0.419472277 0.862563431 0.44009304 -0.249604657 0.962215483 0.243960038 -0.120933212 0.962745905 0.242523074 -0.119594842 0.846219838 0.510967076 -0.151078284 -0.995227516 -0.0970314369 -0.0103503102 -0.71338594 0.700655937 -0.0127160409 0.793996096 -0.607881069 -0.00713047432 0.877836585 0.469655693 0.0939491466 0.164558575 -0.944330812 -0.284885496 0.173541635 -0.943411708 -0.282590926 0.40049234 -0.890809298 -0.214626953 0.524082422 0.800565124 0.290573806 -0.233259767 -0.962573469 -0.137993366 -0.0113835344 -0.996261179 0.0856391713 -0.377279133 -0.921821177 -0.0889164656 -0.122606426 -0.989289284 -0.0792107508 0.882994533 -0.458455622 0.100692794 0.700037003 -0.674922884 0.233296558 -0.467387855 -0.800407946 -0.375360817 -0.0269966722 0.996983647 0.0727649555 -0.057495486 0.989564955 0.132119343 0.32340008 -0.94314152 0.0767886862</float_array>
          <technique_common>
            <accessor source="#normals_array" count="182" stride="3">
              <param name="X" type="float" />
              <param name="Y" type="float" />
              <param name="Z" type="float" />
            </accessor>
          </technique_common>
        </source>
        <vertices id="vertices">
          <input semantic="POSITION" source="#positions" />
        </vertices>
        <triangles material="qmat_76551a3993c45b27" count="80">
          <input semantic="VERTEX" source="#vertices" offset="0" />
          <input semantic="NORMAL" source="#normals" offset="1" />
          <p>4 6 6 7 7 8 6 18 11 19 12 20 7 21 13 21 10 21 15 25 14 26 3 27 15 28 10 24 14 23 10 31 15 31 18 31 19 32 20 33 18 34 20 33 19 32 21 35 10 36 11 37 22 38 10 36 22 38 21 39 19 32 11 40 23 41 11 42 20 43 23 44 23 41 24 45 25 46 26 47 27 48 25 49 27 48 28 50 25 49 24 53 27 53 26 53 23 41 25 46 28 54 31 57 21 57 32 57 30 56 29 55 31 58 22 62 27 48 23 44 21 63 31 58 18 64 21 35 19 32 23 41 18 64 31 58 22 62 27 48 22 62 34 65 21 35 34 66 35 67 37 71 38 71 39 71 40 77 44 77 43 77 45 82 9 82 46 82 47 85 48 86 46 87 12 20 41 92 3 27 26 47 25 49 45 93 26 47 45 93 12 20 24 45 44 94 49 95 25 49 50 96 45 93 34 66 51 99 35 67 31 58 50 96 22 62 25 46 49 95 52 100 52 100 49 95 53 101 34 66 25 102 51 99 10 115 4 6 7 8 2 2 8 116 3 4 3 27 14 26 12 20 11 37 10 36 26 118 12 20 11 19 26 47 13 120 7 11 15 121 14 23 13 22 12 122 13 123 6 124 12 125 13 123 3 126 6 124 1 1 21 63 18 64 7 11 5 113 18 64 7 11 18 64 15 121 22 62 11 130 19 131 22 62 19 131 18 64 21 132 22 62 20 43 20 43 22 62 23 44 11 42 18 133 20 43 23 44 27 48 24 134 21 35 23 41 34 66 23 41 28 54 34 66 28 50 27 48 34 65 44 94 41 73 43 145 54 103 46 148 9 15 48 146 43 76 41 92 41 73 44 94 6 74 24 159 26 159 6 159 24 45 6 74 44 94 47 154 45 158 44 155 46 160 48 146 41 92 41 92 12 20 45 93 45 108 54 161 44 162 45 163 46 160 41 92 44 94 54 105 49 95 25 49 34 65 50 96 25 46 24 45 49 95 34 65 22 62 50 96 49 95 51 99 53 101 60 171 52 100 53 101 25 172 60 173 53 174 51 99 25 102 53 101 35 175 60 173 25 172</p>
        </triangles>
        <triangles material="qmat_d857164d36b11abb" count="76">
          <input semantic="VERTEX" source="#vertices" offset="0" />
          <input semantic="NORMAL" source="#normals" offset="1" />
          <p>0 0 1 1 2 2 0 3 2 2 3 4 4 5 5 5 6 5 5 9 8 9 6 9 8 10 7 11 3 12 6 13 3 12 7 11 8 14 9 15 6 16 8 14 10 17 9 15 13 22 14 23 10 24 1 1 16 29 17 30 10 51 18 52 6 18 1 1 29 55 30 56 17 59 33 60 10 61 16 68 36 69 17 70 40 72 41 73 6 74 42 75 3 4 43 76 40 78 42 78 44 78 40 79 6 80 9 81 36 69 40 79 9 81 17 59 47 83 46 84 9 88 44 89 36 90 48 86 47 85 9 91 9 15 10 17 35 97 33 60 35 98 10 61 29 55 50 96 31 58 9 15 35 97 54 103 35 104 25 104 54 104 54 105 51 99 49 95 55 106 56 106 57 106 58 107 45 108 59 109 32 110 58 111 59 112 2 2 5 113 4 114 2 2 1 1 5 113 2 2 4 114 8 116 4 117 10 17 8 14 5 113 7 11 8 10 42 75 0 3 3 4 10 36 6 119 26 118 13 123 15 127 3 126 11 19 6 18 18 52 0 0 16 128 1 1 16 128 0 0 42 129 5 113 1 1 18 64 1 1 17 30 29 55 21 63 1 1 30 56 17 135 30 136 31 137 17 138 21 139 30 140 21 139 17 138 10 141 16 68 42 142 36 69 40 143 3 27 41 92 3 144 40 144 43 144 42 75 48 146 44 147 42 75 43 76 48 146 36 69 42 142 40 79 45 149 17 149 9 149 17 70 36 69 48 150 17 70 48 150 9 151 54 152 17 59 46 84 9 153 47 154 44 155 48 156 36 90 44 89 47 154 17 157 45 158 33 60 17 59 54 152 33 60 32 164 35 98 29 55 32 110 50 96 17 30 32 165 29 55 32 166 17 135 31 137 35 67 32 167 21 35 52 168 54 169 25 170 54 176 60 173 51 177 60 178 54 169 52 168 60 173 35 175 51 177 33 60 54 152 32 179 58 107 54 161 45 108 32 179 54 152 58 180 32 110 59 112 50 96 45 93 50 96 59 181</p>
        </triangles>
      </mesh>
    </geometry>
  </library_geometries>
  <library_visual_scenes>
    <visual_scene id="scene">
      <node id="FR_thigh_dae">
        <instance_geometry url="#geometry">
          <bind_material>
            <technique_common>
              <instance_material symbol="qmat_76551a3993c45b27" target="#qmat_76551a3993c45b27" />
              <instance_material symbol="qmat_d857164d36b11abb" target="#qmat_d857164d36b11abb" />
            </technique_common>
          </bind_material>
        </instance_geometry>
      </node>
    </visual_scene>
  </library_visual_scenes>
  <scene>
    <instance_visual_scene url="#scene" />
  </scene>
</COLLADA>