<?xml version='1.0' encoding='utf-8'?>
<COLLADA xmlns="http://www.collada.org/2005/11/COLLADASchema" version="1.4.1">
  <asset>
    <created>2026-09-14T00:00:00Z</created>
    <modified>2026-09-14T00:00:00Z</modified>
    <unit name="metre" meter="1" />
    <up_axis>Z_UP</up_axis>
  </asset>
  <library_effects>
    <effect id="qmat_a51b34f6a238e212_effect">
      <profile_COMMON>
        <technique sid="common">
          <lambert>
            <emission>
              <color>0 0 0 1</color>
            </emission>
            <diffuse>
              <color>0.69804314 0.69804314 0.69804314 1.0</color>
            </diffuse>
          </lambert>
        </technique>
      </profile_COMMON>
    </effect>
  </library_effects>
  <library_materials>
    <material id="qmat_a51b34f6a238e212" name="qmat_a51b34f6a238e212">
      <instance_effect url="#qmat_a51b34f6a238e212_effect" />
    </material>
  </library_materials>
  <library_geometries>
    <geometry id="geometry" name="link5_stl">
      <mesh>
        <source id="positions">
          <float_array id="positions_array" count="177">-0.0197263621 0.0252407491 0.098593697 -0.0211099293 0.00727139227 0.0556882434 -0.0203511138 -0.0107249385 0.0981852487 -0.0194614548 0.0130938748 0.0682912618 -0.0161584262 0.0130203469 0.10353113 -0.0150116952 0.00970356911 0.11230287 -0.0201223437 0.00111459417 0.117566921 0.0231196508 0.0187533442 0.106918767 0.022498522 -0.0129040042 0.10945721 0.0185979716 0.0254057851 0.071324259 0.0202794727 0.00982211158 0.0558722876 -0.0145347938 0.017505547 0.0597173572 -0.00823681615 0.0307665523 0.0705499277 0.0108097224 0.0269496087 0.0412681736 -0.0149435094 0.0241157785 0.0493719094 -0.0196779575 0.0238045957 0.0664005205 -0.0142641151 -0.0150034949 0.106798954 -0.0148549052 -0.0277400427 0.0754378662 -0.0201831181 -0.0283582248 0.088487938 0.0249852985 0.0140395146 0.0905832648 0.0250176936 -0.0124966223 0.0916675702 -0.0159501005 -0.0108088171 0.116805658 -0.019820217 -0.0161925778 0.0780464262 -0.0195553731 -0.0185613036 0.104139581 0.0227016266 -0.0293669607 0.0893146992 0.0246125218 -0.0165809467 0.0637350157 0.0174686704 -0.0226076785 0.0638234541 0.000330412411 -0.0300492607 0.0565782189 0.0186101291 -0.0232655033 0.0384557173 0.0266157147 0.003312296 0.0602510199 -0.0189195108 -0.0250991322 0.0681994185 -0.0180552565 -0.00578167709 0.0547537543 -0.0317275636 -0.0121190175 0.0483755767 -0.0198013 -0.0260007698 0.0443961099 0.0175109785 0.00893249363 0.0485009179 -0.0153282434 0.0261693895 0.0390178673 0.0105916113 0.0260359831 0.0510967374 0.0254406426 0.00486649247 0.0469212346 0.0179147534 0.0189562254 0.0383932143 0.018776305 0.0187198464 0.00108463655 -0.00565160718 0.0291649699 0.000902222877 0.00241507078 0.013687796 -0.00102675788 0.0235061273 -0.0139154363 0.00149292778 0.00571693853 -0.0231364835 0.0409190878 0.0172250718 -0.00870122481 0.0558019504 0.0155077428 -0.0197774004 0.0490471795 -0.0118804704 -0.0225482509 0.0511650331 -0.0217905398 0.0262549222 0.0478621945 -0.0290477239 0.0154464431 0.00156553334 -0.0330027342 0.0111262482 0.0477032363 -0.0330678783 -0.0112667354 0.0385816172 0.0210344493 -0.00596800121 0.0385777168 -0.0309955962 -0.000577764295 0.0501384176 -0.0126609318 -0.0297503415 0.0419123322 -0.0285605621 -0.0163605101 0.00128238893 -0.00196426176 -0.0290566143 0.000876786769 -0.0186682697 -0.00356391049 -0.00104511075 0.0226485822 0.016186066 0.0396450981 0.00717312284 -0.0110887634 -0.000928187743</float_array>
          <technique_common>
            <accessor source="#positions_array" count="59" stride="3">
              <param name="X" type="float" />
              <param name="Y" type="float" />
              <param name="Z" type="float" />
            </accessor>
          </technique_common>
        </source>
        <source id="normals">
          <float_array id="normals_array" count="405">-0.999258578 0.034054704 0.017960418 -0.885257661 0.191354007 0.42391336 -0.999333262 -0.00306266034 0.0363823511 0.994032085 -0.097977601 0.0479647107 0.939287901 0.317783892 -0.129428208 0.968264103 -0.204658404 0.143455699 0.975198925 -0.132231578 -0.177487522 0.325310081 0.387349159 0.862631977 0.460821658 0.248053074 0.852122724 -0.0169762149 0.919582963 0.392528981 -0.927233636 -0.336836815 -0.163642034 -0.955048382 -0.198000118 -0.220632255 -0.999145687 -0.0411534049 -0.00377789 0.605352283 0.53841424 0.586224139 0.0432749279 -0.414510578 0.909015 0.496892422 0.851288259 -0.168541357 0.0339277685 0.377841175 -0.925248563 0.0140782027 0.558457434 -0.829413712 -0.0991541445 0.994848549 -0.0210906211 0.362857461 0.930397451 -0.0519133508 -0.99793303 -0.0363273174 0.0530094169 0.862480521 0.441241264 0.247857913 0.00479359925 0.939410985 -0.342759401 -0.168862611 -0.833584964 -0.525948226 -0.997437537 0.0646852329 -0.0305641312 -0.98240906 0.186543196 -0.00860923342 -0.703710258 0.662794292 -0.255921006 0.973739922 0.226698712 0.02093428 0.993574083 -0.0794439539 0.0806177184 0.987283349 0.158365622 -0.013854553 0.993215203 0.101498507 0.0567591116 0.808205724 0.561025023 -0.179037511 0.986883819 -0.121078923 -0.10677202 -0.999472618 0.00781182153 -0.0315195508 -0.98793602 -0.0973647833 0.120426178 0.988744974 -0.0560056865 0.138732582 0.576677382 -0.799476504 0.168167934 0.0739040375 -0.805163026 0.588430643 0.913677752 -0.391079485 -0.110678844 0.359478623 -0.873240113 -0.328978449 0.0577382408 -0.98948431 -0.132616147 0.692199588 -0.719562531 -0.0555829331 0.993924379 0.0727274716 -0.0826140717 0.000668834487 -0.781385958 -0.624047697 -0.0430364385 -0.217389256 -0.975135803 -0.941918433 -0.285245985 0.177269354 -0.455608398 -0.890107751 0.0113632204 0.0551868714 -0.963404834 -0.262308031 0.997411251 0.0273324046 0.066511251 -0.915439069 -0.401002556 0.0341794416 -0.0718290135 -0.394471467 -0.916096509 -0.31154561 -0.539439976 -0.782268405 -0.305014968 -0.834032595 -0.459734112 -0.357390851 -0.701141894 0.616986096 -0.945984721 -0.12091253 -0.300820708 -0.910298884 -0.383011252 -0.157029837 0.128837049 -0.077980563 0.988595009 0.187361866 -0.0161775425 0.982157707 0.575464249 0.798435152 0.177037448 0.791108787 0.604022264 -0.0964571908 0.170461774 -0.875056446 0.453011096 0.120158955 -0.978366435 0.168407053 -0.544204533 -0.817167163 0.18994534 -0.0290217958 0.108716257 -0.993649065 0.110096984 0.0583493598 -0.992206633 0.0359933823 0.0729351863 -0.996686995 -0.0568654202 0.994973719 -0.0824236348 0.132992461 -0.0466533601 -0.990018427 -0.901637614 0.427653372 -0.0645155981 -0.879963756 0.453284264 -0.142116874 -0.843539894 0.137123719 0.519266307 0.948854744 -0.139901161 -0.283023506 0.980947316 -0.0876827985 -0.173361063 0.988394558 -0.071515508 -0.134021208 -0.575948954 0.326485753 0.749459684 -0.775399625 0.61864984 0.126601174 0.118566059 -0.530326307 0.839461803 0.569443882 0.564980268 0.597102165 -0.587550104 0.800410867 0.118858337 -0.870983303 0.480162531 -0.104077242 -0.872714698 0.25567323 0.415932983 0.978571653 -0.0667893067 0.19477357 0.988852382 0.044147864 0.142203778 -0.00269016507 -0.0556983314 0.998444021 -0.00418016827 0.0648922548 0.997883499 0.00235655624 0.0471929237 0.998883009 0.779823005 -0.517843425 -0.351730496 0.843423665 -0.114427038 -0.524921834 0.853493154 -0.519068956 -0.0460087545 0.878416896 -0.418929815 0.22995998 0.723695934 0.572858274 0.384834588 0.00517189503 0.799526274 0.600608826 0.234928221 0.732083857 -0.639423192 0.185013786 0.754863322 -0.629246593 0.384540409 0.148125365 -0.911146283 0.884063601 0.23970668 0.401213467 -0.293521225 0.782553136 -0.549049973 -0.840871274 -0.532960832 -0.0942773148 0.0372030102 -0.996940136 -0.068747744 -0.114607506 0.070490934 -0.990906715 -0.107755095 -0.0124096852 -0.994100034 -0.128686979 -0.0802993849 -0.988428891 -0.992532372 -0.0543580204 0.109200262 0.831045687 -0.513723254 0.213193476 -0.923630357 0.371688724 0.0935649276 0.484339923 -0.866773605 0.118820891 -0.0280433241 -0.957821965 0.285990685 0.100117661 -0.617255449 0.780366659 0.356936067 -0.838538408 0.411643028 -0.840306044 -0.321889699 0.436202735 0.912920117 0.342354655 0.222193882 -0.964322031 0.092947565 0.247878447 -0.843827665 -0.434099674 0.315455765 -0.00199859031 -0.095414564 0.995435596 0.839376271 0.528598189 0.126615509 0.21993342 0.688257754 0.691325188 -0.530764163 -0.47828418 -0.699666798 -0.421752483 -0.892248988 -0.161296472 0.930122256 -0.161487341 -0.329840064 0.942783237 -0.146712139 -0.299391657 -0.0674092248 -0.39018774 0.918264389 -0.823929667 -0.435950696 0.362059236 -0.941359639 -0.310510725 0.13200441 -0.97136873 -0.237302303 0.0114204902 -0.979031026 -0.12374071 -0.161822274 0.911385298 -0.405945003 -0.0677166954 -0.67365104 0.530907869 -0.514131486 0.197762698 0.0048519955 0.980237901 -0.289120466 0.789167166 -0.541871309 0.00709050149 -0.260895163 -0.965341091 0.0776215717 -0.0597592033 -0.995190322 0.00212243502 -0.116377331 -0.993202806 0.586949885 0.539194643 -0.603952765 -0.0127272774 0.153005302 0.988143384 -0.0076206685 0.169181973 0.985555351</float_array>
          <technique_common>
            <accessor source="#normals_array" count="135" stride="3">
              <param name="X" type="float" />
              <param name="Y" type="float" />
              <param name="Z" type="float" />
            </accessor>
          </technique_common>
        </source>
        <vertices id="vertices">
          <input semantic="POSITION" source="#positions" />
        </vertices>
        <triangles material="qmat_a51b34f6a238e212" count="138">
          <input semantic="VERTEX" source="#vertices" offset="0" />
          <input semantic="NORMAL" source="#normals" offset="1" />
          <p>0 0 1 1 2 2 0 3 2 4 3 5 4 6 5 7 2 4 6 8 5 7 0 9 0 10 4 11 6 12 7 13 5 7 8 14 9 15 10 16 11 17 12 18 9 15 13 19 4 11 0 10 11 20 14 21 15 21 11 21 15 22 9 15 11 17 11 23 3 23 14 23 16 24 17 25 18 26 19 27 7 13 20 28 5 7 6 8 21 29 22 30 16 31 18 32 2 2 18 33 23 34 2 4 16 31 22 30 20 28 8 35 24 36 8 14 23 37 24 36 21 29 16 31 2 4 20 28 24 36 25 38 26 39 27 40 28 41 24 36 26 39 25 38 29 42 20 28 25 38 30 43 31 44 26 39 2 2 1 1 32 45 2 2 32 45 33 46 11 20 17 25 16 24 3 5 2 4 22 30 17 47 30 43 24 36 22 30 18 32 30 48 2 2 30 49 18 33 13 50 34 51 35 52 36 53 37 54 10 55 36 53 34 56 37 57 13 19 38 58 39 59 36 53 14 60 34 56 12 61 36 53 9 62 40 63 39 64 41 65 13 19 39 59 40 66 39 64 42 67 41 65 10 68 43 69 44 70 34 71 44 72 45 73 37 54 45 74 26 75 44 76 46 77 45 74 10 55 37 54 26 75 47 78 48 79 49 80 14 81 3 5 31 82 35 83 50 84 51 85 14 86 52 87 35 88 11 17 10 16 31 44 35 88 52 87 50 89 46 77 30 90 27 91 52 87 46 92 53 93 52 87 31 94 46 92 31 95 30 90 46 77 46 92 43 96 53 93 49 80 54 97 32 45 27 40 33 46 28 41 32 45 54 97 33 46 33 46 54 97 55 98 48 99 56 100 54 101 0 9 5 7 7 13 5 102 4 11 16 24 9 15 7 13 19 27 29 42 9 15 19 27 29 42 19 27 20 28 0 9 7 13 9 15 9 62 36 53 10 55 11 103 0 3 3 5 16 24 4 11 11 20 15 104 47 78 1 1 15 104 12 18 47 78 14 60 12 61 15 105 0 0 15 104 1 1 0 9 9 15 15 22 24 36 23 37 18 106 20 28 7 13 8 35 2 4 5 7 21 29 6 12 4 11 2 2 24 36 18 106 17 47 16 107 21 108 23 37 8 14 16 107 23 37 8 14 5 7 16 107 6 12 23 34 21 109 6 12 2 2 23 34 27 91 26 75 45 74 31 82 3 5 22 30 22 30 17 110 31 82 17 25 11 20 31 111 17 112 22 112 30 112 27 40 30 49 33 46 2 2 33 46 30 49 24 36 30 43 26 39 38 113 35 83 51 85 9 15 29 42 57 114 13 19 9 15 57 114 57 114 38 58 34 115 13 50 57 116 34 51 34 51 14 117 35 52 34 71 10 118 26 119 13 120 35 83 38 113 10 121 34 122 51 123 34 122 38 124 51 123 39 59 38 58 57 114 39 59 57 114 42 125 10 68 51 126 43 69 37 57 34 56 45 127 44 72 34 71 26 119 28 41 29 42 25 38 46 92 44 128 43 96 45 74 46 77 27 91 57 114 29 42 28 41 31 44 44 129 26 39 31 44 10 16 44 129 25 38 26 39 28 41 42 125 57 114 28 41 28 41 33 46 55 98 58 130 42 67 55 131 58 130 41 65 42 67 42 125 28 41 55 98 47 78 13 19 40 66 48 79 47 78 40 66 47 78 12 18 13 19 52 87 14 86 31 94 1 1 47 78 49 80 36 53 12 61 14 60 56 100 41 65 58 130 48 99 40 63 41 65 48 99 41 65 56 100 50 132 52 87 53 93 1 1 49 80 32 45 43 133 50 84 53 134 51 85 50 84 43 133 49 80 48 79 54 97 56 100 58 130 55 131 54 101 56 100 55 131</p>
        </triangles>
      </mesh>
    </geometry>
  </library_geometries>
  <library_visual_scenes>
    <visual_scene id="scene">
      <node id="link5_stl">
        <instance_geometry url="#geometry">
          <bind_material>
            <technique_common>
              <instance_material symbol="qmat_a51b34f6a238e212" target="#qmat_a51b34f6a238e212" />
            </technique_common>
          </bind_material>
        </instance_geometry>
      </node>
    </visual_scene>
  </library_visual_scenes>
  <scene>
    <instance_visual_scene url="#scene" />
  </scene>
</COLLADA>