<?xml version='1.0' encoding='utf-8'?>
<COLLADA xmlns="http://www.collada.org/2005/11/COLLADASchema" version="1.4.1">
  <asset>
    <created>2026-09-14T00:00:00Z</created>
    <modified>2026-09-14T00:00:00Z</modified>
    <unit name="metre" meter="1" />
    <up_axis>Z_UP</up_axis>
  </asset>
  <library_effects>
    <effect id="qmat_76668c90192cb1f5_effect">
      <profile_COMMON>
        <technique sid="common">
          <lambert>
            <emission>
              <color>0 0 0 1</color>
            </emission>
            <diffuse>
              <color>0.79216078 0.81961176 0.92941569 1.0</color>
            </diffuse>
          </lambert>
        </technique>
      </profile_COMMON>
    </effect>
  </library_effects>
  <library_materials>
    <material id="qmat_76668c90192cb1f5" name="qmat_76668c90192cb1f5">
      <instance_effect url="#qmat_76668c90192cb1f5_effect" />
    </material>
  </library_materials>
  <library_geometries>
    <geometry id="geometry" name="link4_stl">
      <mesh>
        <source id="positions">
          <float_array id="positions_array" count="123">0.0826302618 0.0320062935 -0.0791402534 0.0403212383 0.0195715968 -0.0488459021 0.0651244596 0.0370500013 -0.0848907679 0.0996133238 0.0132158818 -0.0864529386 0.0919471756 -0.0260276515 -0.0864226148 0.0795520172 -0.00214577559 -0.0864625871 0.0567714311 -0.0298253223 -0.0833947584 0.0365425758 -0.0147889163 -0.0864999965 0.0390795507 -0.0158479121 -0.0334733352 0.0357364267 -0.0145615246 -0.0519263931 0.0984242037 -0.0130097978 -0.0845809132 -0.00829211343 0.0368586332 0.000644165848 0.00677190814 0.0307653509 -0.0155518288 0.0046395543 0.0354262665 -0.00722215045 0.0388509072 0.0337698385 -0.00920399837 -0.00584425358 0.0365822501 -0.0178599376 0.00486335251 0.0358432047 0.00809972454 0.0122926766 0.0292070843 0.00990861095 -0.0121515356 0.026866978 0.0146061061 -0.0116904937 0.0318509527 0.00825634692 -0.0175000001 0.0369724743 0.0016052376 -0.0136836618 0.0359996893 -0.0028983138 -0.0140422247 0.027194351 -0.00891713705 0.0332609266 0.0361948125 0.0160963889 0.0339095816 0.0263217594 -0.0156167718 0.006539803 -0.0367693491 0.00522474851 0.000404201506 -0.0357681438 -0.0082765948 0.0407038741 -0.037443094 -0.0153048225 -0.00699148746 -0.0351356901 -0.014582403 -0.01132832 -0.0374500006 -0.0125208097 -0.00671267509 -0.0358591117 0.00502037397 -0.0143020386 -0.0345873348 0.010650387 -0.00954998285 -0.0373308361 0.0147284614 0.0319700278 -0.0357066244 0.0148931416 0.0322609954 -0.0272495691 -0.015572845 0.0382626839 -0.0328961201 -0.00385067496 0.0350843407 -0.0369499549 0.0115914298 0.0352804251 -0.0334307626 -0.0142630571 0.040162798 -0.0351266265 -0.0148181962 0.0980864838 -0.0166414939 -0.0456072316 -0.00734448712 0.0369799659 0.0167376604</float_array>
          <technique_common>
            <accessor source="#positions_array" count="41" stride="3">
              <param name="X" type="float" />
              <param name="Y" type="float" />
              <param name="Z" type="float" />
            </accessor>
          </technique_common>
        </source>
        <source id="normals">
          <float_array id="normals_array" count="339">-0.0914046764 -0.869885385 -0.484710783 -0.0403447375 0.00710907672 -0.999160528 0.0235621892 -0.0313979536 0.999229193 0.551510572 -0.00221578521 0.834164977 0.0495933108 0.0390435234 0.998006046 -0.303247482 0.399410427 -0.865166068 -0.168886751 0.221158043 -0.960503221 -0.0357627459 0.126410306 -0.991333187 -0.053533528 -0.27052632 -0.961223006 -0.736056328 -0.17222999 -0.654643357 0.0540990718 -0.00961971655 -0.998489261 -0.546275198 -0.83661896 0.0406463221 -0.926340938 -0.37538296 -0.0313073508 -0.585594058 -0.810602605 0.00174459245 -0.319010377 -0.206480563 0.924985468 -0.125605598 -0.077431187 0.989053905 -0.60898006 -0.244623169 0.754521608 0.651539147 -0.0388762876 0.757618189 -0.0241490006 0.129738763 0.991254091 0.224324569 -0.824835181 0.518965721 -0.434829175 -0.8287009 0.352389514 -0.36072892 -0.859793425 0.361427546 0.0559776537 0.998396993 0.00836695358 0.74606818 0.578311861 -0.330057144 -0.284667403 0.451618344 -0.845579863 -0.0272769649 0.999456048 -0.0185363423 -0.228934139 -0.907398164 -0.352445364 -0.563564718 -0.70223403 -0.43504265 0.465626299 -0.614960432 -0.636408508 0.534871995 -0.795395851 -0.28505677 0.496759206 0.833798587 0.240852982 0.484092206 0.844863415 0.227729067 0.375595599 0.900226116 0.220274478 -0.846531034 0.531590998 -0.0282173268 0.994423032 -0.0280397236 -0.101669237 0.99670285 0.0140386093 -0.0799149275 -0.0171206519 -0.756079972 -0.654255271 -0.656078815 -0.676943421 -0.333628863 0.58338064 0.74012357 0.334490836 -0.99302429 -0.112527184 0.035219606 -0.669307947 -0.135650828 0.730496943 0.0909814164 -0.951862931 0.292710394 0.0284565073 -0.988899648 0.145834744 -0.15392758 -0.944309235 0.290837318 0.851348281 0.162638918 -0.49875319 -0.0204307958 -0.998350799 -0.0536497235 0.0289682131 -0.98602879 0.164036766 -0.0187334716 -0.999455512 0.0271613151 -0.0402574651 -0.576669276 -0.815985262 0.122185342 0.0492631048 -0.991283953 -0.0418508947 -0.619710088 -0.783714175 0.177466199 0.983980834 0.0169551466 0.2720716 0.950176716 0.152122661 0.0591917336 0.976624072 0.206644073 -0.121650428 0.990947604 -0.0567806624 -0.167045459 0.985209107 -0.0381949283 -0.525749564 0.833390534 -0.170433715 -0.0134375477 0.99775821 -0.0655593798 -0.146629766 -0.98839426 -0.0397048444 0.198960707 -0.97791481 -0.064010039 -0.523827016 -0.850980759 0.0379072912 0.0510938242 -0.992310107 0.112739131 -0.0669033229 0.993159175 0.0957014337 -0.0399623998 0.990836978 0.129015967 -0.769637823 -0.63217181 0.0895343423 -0.474995911 -0.862920821 -0.172471926 -0.352541327 -0.900826991 -0.253427237 0.911932528 0.0216425229 0.409769118 0.995441139 0.0118922237 0.0946338773 -0.999328136 0.0166433379 -0.0326530263 -0.998306572 0.037804082 -0.0442139655 -0.885947287 -0.374925047 0.272999287 -0.0115089798 0.0989776701 0.995023072 0.273422301 0.522892416 0.807356 0.515783072 0.0956059918 0.85136795 -0.0154688153 0.200033948 0.979666829 -0.541880906 -0.599969864 -0.588558555 0.968829334 0.150595635 0.19669944 0.962934375 0.183361411 0.197828144 0.860011637 0.177488461 0.478411824 0.946113408 0.0533986539 0.319402575 -0.889071584 0.338665277 -0.307989568 0.919761479 0.299678266 0.253439933 0.750661373 0.519697666 0.407948375 0.995820045 0.0518976264 0.0751606673 -0.578258634 -0.294823825 0.760720611 -0.944352686 -0.326659262 -0.0386223122 0.122478656 -0.971090615 0.204895169 0.139092803 0.0705385208 -0.987763882 0.97621727 -0.19078213 -0.102965869 -0.3710289 0.924907207 0.0829708502 0.699362099 -0.693009973 -0.175013572 0.0115046715 0.999900043 -0.00821532588 0.0474905707 0.998161077 -0.0376710109 0.0901223868 0.99323523 -0.0732239932 0.053135436 0.995163739 -0.0826184824 0.18333292 0.964081228 -0.192188621 0.257789224 -0.946302474 0.195080385 -0.0695922151 -0.818860769 -0.569757819 -0.334946841 -0.0392152071 0.941420615 -0.418091178 -0.500955701 0.75778836 0.0282198209 0.99671948 -0.0758543387 0.971677303 0.00968068 0.236113399 -0.9986853 0.000893812452 -0.0512529276 0.00507508544 -0.992821395 0.119498774 0.722603202 -0.0245341677 0.690827489 0.034638688 -0.924069643 0.380651355 -0.0456897095 0.998205125 -0.0387168601 -0.0340225063 0.810424805 0.584853947 -0.999827206 0.0180266425 -0.00454489002 -0.00118589832 0.97989893 -0.199490905 0.00116010488 -0.0253241025 -0.999678612 0.355543971 0.270961434 -0.894521296</float_array>
          <technique_common>
            <accessor source="#normals_array" count="113" stride="3">
              <param name="X" type="float" />
              <param name="Y" type="float" />
              <param name="Z" type="float" />
            </accessor>
          </technique_common>
        </source>
        <vertices id="vertices">
          <input semantic="POSITION" source="#positions" />
        </vertices>
        <triangles material="qmat_76668c90192cb1f5" count="98">
          <input semantic="VERTEX" source="#vertices" offset="0" />
          <input semantic="NORMAL" source="#normals" offset="1" />
          <p>0 0 1 0 2 0 3 1 4 1 2 1 3 2 2 3 5 4 0 5 3 6 5 7 6 8 7 9 4 10 8 11 9 12 6 13 6 13 9 12 7 9 2 14 4 15 10 16 5 4 6 17 10 18 11 19 12 20 13 21 13 22 14 23 15 24 11 25 13 22 15 24 16 26 17 27 18 28 19 29 16 26 18 28 20 30 19 31 21 32 11 33 22 33 19 33 21 34 18 28 22 35 12 36 19 29 22 37 15 24 12 36 22 37 20 30 21 32 15 38 20 39 22 37 18 40 23 41 12 42 24 43 17 27 13 21 12 20 14 23 24 44 15 24 12 36 15 24 24 44 25 45 26 46 27 47 28 48 27 49 29 50 30 51 26 52 31 53 31 54 28 55 29 56 31 53 25 57 30 51 32 58 30 59 25 45 31 60 29 61 32 58 25 57 33 62 26 63 34 64 35 65 33 66 24 44 36 67 35 68 23 69 9 12 34 70 35 65 34 64 37 71 28 72 38 73 37 74 34 75 28 72 37 74 34 76 8 76 38 76 38 77 36 67 27 78 2 3 1 79 8 80 7 9 1 81 0 5 7 9 0 5 5 7 3 82 0 83 39 84 0 85 2 14 10 16 39 86 0 85 10 16 5 7 4 10 7 9 39 87 6 87 4 87 5 7 10 88 4 10 3 82 39 84 4 89 2 3 6 17 5 4 6 90 39 90 10 90 8 91 34 91 9 91 1 81 7 9 9 12 2 3 8 80 6 17 16 26 19 29 12 36 20 92 40 93 11 94 11 94 40 93 16 95 11 94 16 95 12 96 17 27 16 26 13 21 23 41 18 40 17 97 20 98 11 98 19 98 40 99 20 39 18 40 11 100 21 100 22 100 21 34 19 29 18 28 21 32 11 25 15 24 40 93 23 101 16 95 20 39 15 24 22 37 23 41 17 97 12 42 16 95 23 101 13 22 14 23 23 102 36 67 23 41 40 99 18 40 24 44 14 23 36 67 23 69 24 103 9 12 24 103 1 81 9 12 13 22 23 101 14 23 27 47 26 46 29 61 31 54 26 63 28 55 26 46 30 59 29 61 31 53 33 62 25 57 36 104 32 58 25 45 30 59 32 58 29 61 36 67 23 102 33 105 33 106 32 58 36 104 26 63 33 62 35 107 36 104 25 45 27 47 33 62 31 53 32 108 33 109 23 69 34 70 8 80 24 44 37 74 37 74 24 44 35 68 35 107 38 110 28 55 1 79 24 44 8 80 26 63 35 107 28 55 28 48 34 111 27 49 34 111 38 112 27 49 38 77 35 68 36 67 38 73 8 80 37 74</p>
        </triangles>
      </mesh>
    </geometry>
  </library_geometries>
  <library_visual_scenes>
    <visual_scene id="scene">
      <node id="link4_stl">
        <instance_geometry url="#geometry">
          <bind_material>
            <technique_common>
              <instance_material symbol="qmat_76668c90192cb1f5" target="#qmat_76668c90192cb1f5" />
            </technique_common>
          </bind_material>
        </instance_geometry>
      </node>
    </visual_scene>
  </library_visual_scenes>
  <scene>
    <instance_visual_scene url="#scene" />
  </scene>
</COLLADA>