<?xml version='1.0' encoding='utf-8'?>
<COLLADA xmlns="http://www.collada.org/2005/11/COLLADASchema" version="1.4.1">
  <asset>
    <created>2026-09-14T00:00:00Z</created>
    <modified>2026-09-14T00:00:00Z</modified>
    <unit name="metre" meter="1" />
    <up_axis>Z_UP</up_axis>
  </asset>
  <library_effects>
    <effect id="qmat_45af129ec809a57d_effect">
      <profile_COMMON>
        <technique sid="common">
          <lambert>
            <emission>
              <color>0 0 0 1</color>
            </emission>
            <diffuse>
              <color>1.0 1.0 1.0 1.0</color>
            </diffuse>
          </lambert>
        </technique>
      </profile_COMMON>
    </effect>
  </library_effects>
  <library_materials>
    <material id="qmat_45af129ec809a57d" name="qmat_45af129ec809a57d">
      <instance_effect url="#qmat_45af129ec809a57d_effect" />
    </material>
  </library_materials>
  <library_geometries>
    <geometry id="geometry" name="link8_stl">
      <mesh>
        <source id="positions">
          <float_array id="positions_array" count="123">0.0441587605 0.0200873408 0.00491169002 0.034578912 0.0186238419 -0.0126685007 0.069112502 0.0229916032 -0.00459570996 0.0302162711 0.00973425247 0.00775786443 0.0710000023 0.0240999814 0.00520212995 0.0162440781 0.0188157987 0.0156146698 0.0167143568 0.00356772426 0.0155044785 0.0427662358 0.0229965076 -0.0150050903 0.0232041888 0.00631893659 -0.0221417639 -0.0171448756 0.0716425702 0.00834145118 -0.0157304481 0.0759856477 0.0165779516 -0.0175621118 0.0591208152 0.00824805535 -0.0179316457 0.0153599484 0.0213950649 -0.0157658402 0.0170519333 0.0177107248 -0.0184919201 0.0762436166 0.0166766681 -0.0166289136 0.03701308 0.00840227026 -0.0168625508 0.0480775349 0.00854732841 -0.00767137995 0.0162865482 -0.0119054085 -0.00480431179 -0.00948833674 -0.0302563701 -0.00929367449 -0.0123181678 -0.0124231633 -0.00869063009 0.0164400134 -0.00076968217 -0.00866920594 -0.0123799043 4.14141068e-05 -0.00429657288 0.0157699324 -0.0302563701 -0.00326497923 0.0163367018 0.0286143832 0.000373125571 0.013308567 -0.0248990189 0.000193196232 0.0132700093 0.0234928709 -0.000461545715 0.00744884787 -0.00777655095 -0.000129801381 -0.0105603784 -0.0257098507 0.0338856392 0.0110663101 -0.0129709477 -0.00154946884 -0.0124623198 0.0253944937 -0.0176480077 0.0277969427 0.00838998519 -0.0176805016 0.018055778 0.00898256153 0.0135354241 0.0153179197 0.0110485042 0.000542166934 -0.00470499415 0.0238171872 -0.00248549879 -0.00703814579 0.0307436306 -0.000502990792 -0.00297845225 0.00728356419 -0.0184743479 -0.000290314929 0.0184933078 -0.0165389925 -0.0122385556 0.00772224879 -0.0177578498 -0.0124106985 0.0239496306 -0.0132135106 0.0162171628 0.00643996103 -0.000363372499 -0.00297707459 -0.00772498362</float_array>
          <technique_common>
            <accessor source="#positions_array" count="41" stride="3">
              <param name="X" type="float" />
              <param name="Y" type="float" />
              <param name="Z" type="float" />
            </accessor>
          </technique_common>
        </source>
        <source id="normals">
          <float_array id="normals_array" count="276">0.135269523 -0.990770042 0.00876719225 0.145519957 -0.989350021 0.0032431772 0.121712655 -0.992431641 0.0162930116 -0.345336735 0.213853836 -0.913788319 -0.370022148 0.252525538 -0.894043863 -0.241759598 -0.0674151331 -0.967991471 0.333483338 -0.942446232 0.0241659377 0.322235018 -0.932332456 -0.164075702 0.334285349 -0.941530585 0.0421122238 0.385392219 0.0248666834 0.92241776 0.461816907 0.00783371646 0.886940718 0.186939001 -0.00133365358 0.982370615 0.355678082 -0.0173252486 -0.934447944 0.367252439 -0.03300355 -0.929535568 0.508771598 -0.421491951 -0.750663698 0.987735808 -0.0317722 -0.152867585 0.640747786 0.0605698414 0.765358508 0.956211686 0.0393911898 -0.290012985 0.842606604 0.0121855028 0.538391709 0.635808289 0.744018316 0.20538871 -0.991007268 0.00250427262 -0.133784696 -0.995496035 0.0030659074 -0.094753474 -0.999613941 0.0262328796 -0.00915291812 0.990106285 0.00480364123 -0.140237004 0.996349275 0.00329890894 -0.0853067711 -0.988081276 0.0471504442 -0.146533862 -0.975458205 0.0449575111 -0.215546206 -0.993883193 0.0360585041 -0.104383744 -0.954450428 0.0148966517 -0.297997355 -0.936485887 0.0210134145 -0.350075126 0.286374032 0.0107123265 -0.958058 0.0427338108 0.999076903 -0.0043777423 -0.0675074235 0.997361839 0.0266851522 0.0896719098 0.995910764 -0.0109842597 0.998437941 -0.0448468775 0.0333233252 0.999774218 0.00143314176 -0.0212008003 0.998254776 -0.0587100685 0.00636930298 -0.336585194 -0.0227390192 0.941378415 -0.336695224 -0.024881335 0.941284895 -0.298466295 -0.0140478127 0.954316795 0.0195928644 -0.999769747 -0.00875208154 0.0820128769 -0.99632442 -0.0247303192 0.279778719 -0.862842798 -0.42098242 0.326130331 -0.93931818 0.106397353 0.27441293 -0.626672089 -0.729369342 0.953076243 -0.0850734711 -0.290530771 0.820845306 0.55930078 -0.115739301 -0.210949257 0.929410338 0.302814811 -0.384414524 -0.241028115 -0.891140223 -0.547549427 -0.167497903 -0.819837809 -0.679662645 -0.0264212769 -0.733048797 0.152592435 -0.988288939 -0.000705765618 0.151509792 -0.988455713 -0.000224198811 0.153238356 -0.988188863 -0.000872109551 -0.129144415 0.991583169 0.00919768121 -0.112987272 0.993594348 -0.00202324311 0.864800572 -0.447779596 0.22718592 0.864811778 -0.501103282 -0.0315603763 0.577216029 -0.669064164 0.468161076 0.972292364 -0.198333874 0.123738728 0.995899975 -0.0867252722 -0.0257293638 0.999477804 -0.0176961087 0.0270372927 -0.999799311 -0.0200340375 -0.000133036971 -0.887601852 -0.00826915726 -0.460537195 -0.997187614 -0.0704540089 -0.025556583 0.571325004 0.0648712143 0.818156123 -0.990760922 -0.0447023064 -0.128040984 -0.431384444 -0.125582173 0.893384933 -0.326915294 -0.0568882413 0.943339884 -0.208398476 0.017861411 0.977880895 -0.665678799 0.00877231918 -0.746186852 -0.0995771289 0.994702637 0.0255151335 -0.020081412 0.999446571 -0.0265196376 0.048162844 0.991430402 -0.121433534 -0.225395307 -0.0183063336 0.974095404 -0.272767991 -0.0134761678 0.961985469 0.281815112 -0.945801497 0.161368445 0.0650730282 0.878031909 -0.474157631 -0.983482897 0.0340960883 -0.17776075 -0.998750865 -0.0486727506 -0.0112987487 -0.9948048 0.08353246 0.0581873767 -0.992761731 -0.0234324355 -0.117792316 0.0428543687 0.0775877759 0.996064067 -0.98321569 0.0197644755 -0.181373268 0.999915779 0.00914421026 0.00920711178 0.141448662 -0.989384174 -0.0333349854 0.0904386863 0.995900869 0.00151772145 -0.957696915 0.0102552874 -0.287595928 0.543744624 0.0940986872 0.833958805 -0.00798679888 -0.999958754 -0.00432410743 -0.0305374991 -0.999450445 -0.0128960516 -0.0881382078 0.0906977803 0.991970539</float_array>
          <technique_common>
            <accessor source="#normals_array" count="92" stride="3">
              <param name="X" type="float" />
              <param name="Y" type="float" />
              <param name="Z" type="float" />
            </accessor>
          </technique_common>
        </source>
        <vertices id="vertices">
          <input semantic="POSITION" source="#positions" />
        </vertices>
        <triangles material="qmat_45af129ec809a57d" count="78">
          <input semantic="VERTEX" source="#vertices" offset="0" />
          <input semantic="NORMAL" source="#normals" offset="1" />
          <p>0 0 1 1 2 2 0 3 2 4 3 5 4 6 3 7 2 8 5 9 6 10 4 11 7 12 2 13 8 14 9 15 10 16 11 17 10 16 12 18 13 19 14 20 15 21 12 22 16 23 13 19 15 24 11 17 10 16 16 23 17 25 18 26 19 27 20 28 19 27 21 29 7 12 8 14 22 30 20 31 23 32 17 33 24 34 25 35 26 36 24 37 27 38 28 39 29 40 21 41 27 42 28 43 27 42 8 14 27 42 18 44 8 14 15 24 13 19 30 45 30 45 13 19 31 46 12 47 23 32 13 19 32 48 33 49 25 50 32 51 25 52 24 53 5 54 22 55 23 32 32 51 24 53 1 1 34 56 33 57 6 58 6 58 33 57 3 7 32 48 3 5 33 49 33 57 29 59 35 60 35 60 29 59 27 61 36 62 37 63 38 64 5 9 34 65 6 10 23 66 29 66 34 66 23 67 12 68 29 69 12 22 36 62 38 64 39 70 21 29 37 63 25 35 33 57 26 36 26 36 33 57 35 60 7 71 4 72 2 73 5 54 4 72 7 71 4 6 6 58 3 7 32 48 0 3 3 5 0 0 32 51 1 1 2 74 1 75 28 39 2 76 28 43 8 14 14 77 10 77 9 77 14 20 9 78 11 79 12 22 15 21 30 80 14 20 16 81 15 21 16 23 10 16 13 19 10 16 14 82 12 18 14 20 11 79 16 81 17 25 22 83 18 26 20 28 17 25 19 27 1 75 24 37 28 39 17 33 23 32 22 55 26 36 35 60 40 84 27 61 26 36 40 84 24 34 26 36 27 61 18 44 22 30 8 14 27 42 21 41 19 85 27 42 19 85 18 44 31 46 13 19 39 86 13 19 23 32 39 86 39 86 23 32 20 31 12 22 31 87 36 62 12 22 30 80 31 87 22 55 5 54 7 71 23 88 34 65 5 9 21 41 38 89 37 90 29 40 38 89 21 41 33 57 34 56 29 59 40 84 35 60 27 61 31 87 39 70 37 63 29 69 12 68 38 91 36 62 31 87 37 63 39 70 20 28 21 29</p>
        </triangles>
      </mesh>
    </geometry>
  </library_geometries>
  <library_visual_scenes>
    <visual_scene id="scene">
      <node id="link8_stl">
        <instance_geometry url="#geometry">
          <bind_material>
            <technique_common>
              <instance_material symbol="qmat_45af129ec809a57d" target="#qmat_45af129ec809a57d" />
            </technique_common>
          </bind_material>
        </instance_geometry>
      </node>
    </visual_scene>
  </library_visual_scenes>
  <scene>
    <instance_visual_scene url="#scene" />
  </scene>
</COLLADA>