<?xml version='1.0' encoding='utf-8'?>
<COLLADA xmlns="http://www.collada.org/2005/11/COLLADASchema" version="1.4.1">
  <asset>
    <created>2026-09-14T00:00:00Z</created>
    <modified>2026-09-14T00:00:00Z</modified>
    <unit name="metre" meter="1" />
    <up_axis>Z_UP</up_axis>
  </asset>
  <library_effects>
    <effect id="qmat_45af129ec809a57d_effect">
      <profile_COMMON>
        <technique sid="common">
          <lambert>
            <emission>
              <color>0 0 0 1</color>
            </emission>
            <diffuse>
              <color>1.0 1.0 1.0 1.0</color>
            </diffuse>
          </lambert>
        </technique>
      </profile_COMMON>
    </effect>
  </library_effects>
  <library_materials>
    <material id="qmat_45af129ec809a57d" name="qmat_45af129ec809a57d">
      <instance_effect url="#qmat_45af129ec809a57d_effect" />
    </material>
  </library_materials>
  <library_geometries>
    <geometry id="geometry" name="link7_stl">
      <mesh>
        <source id="positions">
          <float_array id="positions_array" count="123">0.0176558644 -0.00420893682 0.0150738684 0.0698247701 -0.0248603374 0.00568933785 0.0629609749 -0.0219964813 -0.000441447512 0.0181503296 -0.0190846901 0.0150722442 0.0141740674 -0.00193766435 0.0109600993 0.0144602899 -0.0154800648 0.0106865782 0.0436192602 -0.0230236892 -0.0146587398 0.0636880845 -0.0226946939 -0.00742554246 0.0243725237 -0.016963549 -0.0163191967 -0.0157417692 -0.0172688104 -0.0163841136 -0.0165322237 -0.0715090409 -0.00813929271 -0.0177482832 -0.0763581917 -0.0164936669 -0.0173308291 -0.0570828579 -0.00769277522 -0.0168461204 -0.0435071625 -0.00799279194 -0.0170656778 -0.0295454375 -0.00763617922 -0.0186000001 -0.0230861139 -0.0154789593 -0.000330916519 0.0109115308 0.0263398103 -0.0042496454 0.00813874137 0.0307436306 0.00171646941 -0.0165208373 0.0300893653 9.9995872e-05 -0.0132652707 0.0242310688 -0.0131160999 0.0124518098 0.00964912307 -0.00988979079 -0.0166008621 0.00400421955 -0.00939522125 -0.0160891768 0.0130883465 -0.00489696208 -0.0163532887 0.0306778662 0.00130651414 0.00421445165 -0.0246293582 -0.0043456885 0.00732178008 -0.0302563701 0.0355905443 -0.0118598212 -0.0123999752 -0.0030040394 -0.0161646251 -0.0298779868 0.000157380549 -0.0131739955 -0.0250451639 -0.00913931057 -0.0164942276 -0.00326202367 -0.0165299568 0.0123601351 -0.00770286517 -0.0139540406 -0.0168988761 -0.00954898912 -0.0178258456 -0.0156187126 -0.023541959 -0.0184288695 -0.0145401349 -0.00871778466 -0.000555851904 0.0124195656 -0.0256817695 -0.000336607685 0.00302339625 0.00727305189 -0.000430892425 0.00398602337 -0.00701170834 -0.0177628268 0.0122831194 -0.0235288516 -0.000569449272 -0.00621983595 -0.00754640391 -0.00800922699 0.0124518098 -0.00433783932 -0.00524558593 0.0122265806 0.0132191358</float_array>
          <technique_common>
            <accessor source="#positions_array" count="41" stride="3">
              <param name="X" type="float" />
              <param name="Y" type="float" />
              <param name="Z" type="float" />
            </accessor>
          </technique_common>
        </source>
        <source id="normals">
          <float_array id="normals_array" count="303">0.57007724 0.60127908 0.559888721 0.387423754 0.921896517 -0.00310231256 0.389579177 0.920763016 -0.0205804259 0.422023386 0.0139289629 0.906477928 0.179286093 0.00585196493 0.98377955 -0.5478881 0.0220458116 -0.836261094 -0.221688747 0.0150070349 -0.975001991 -0.447762966 0.00859510805 -0.894110978 -0.0336684585 -0.998338997 -0.0467511788 -0.148685604 -0.988877833 0.00364317256 -0.100572862 -0.994923174 0.00359921227 0.509539485 0.850748062 0.128830373 0.0890419409 -0.975185215 -0.202695087 0.148558721 0.988903582 0.000204582335 0.131787717 0.991259336 -0.00608036667 0.142976061 0.989724159 -0.00197918504 0.958530903 -0.132582322 -0.25227046 0.996272385 -0.0269738603 -0.0819373578 0.991602182 -0.0334405117 -0.124927282 -0.999739826 0.0226945225 -0.00228312542 -0.989056826 -0.0346785039 0.143401369 -0.982255757 -0.0598768815 0.177731186 -0.98632592 -0.0153746754 0.164087743 -0.968761325 0.0612502098 0.240312219 -0.325475365 0.0128051657 -0.945463777 0.738329589 0.0268486161 0.673905432 0.63933754 0.154014632 0.75334388 0.435485274 0.056402076 0.898427188 -0.698893964 0.0312153175 -0.71454376 -0.935669601 -0.00503005786 0.352841407 -0.996407866 -0.0445241891 -0.0720345452 -0.978752255 -0.0168089792 0.204356298 -0.903423429 0.382748634 0.193208575 -0.968430042 0.0249293447 0.248035952 -0.0260675214 -0.999625385 -0.0083434023 -0.0568812229 -0.998176873 0.0201854911 -0.0717590898 -0.99742198 -7.46779406e-05 0.353927791 0.92176044 0.158406973 0.378530234 0.92509985 -0.0300850272 0.355938077 0.922118306 0.151677147 -0.337532401 0.00174399221 0.941312313 -0.340116084 0.0214825552 0.940138042 -0.359163672 0.0750933513 0.930248618 0.274784982 0.885070741 0.375689983 0.319322467 0.00297395606 -0.947641432 0.323303998 0.0534650385 -0.944783568 0.319758475 0.00803337805 -0.947465003 0.154194251 0.988038123 0.00218602316 -0.339025289 -9.17783327e-05 0.940777242 0.329962909 0.192124501 -0.924236238 0.030376289 -0.999384522 -0.0175463818 -0.0873291194 -0.996153831 -0.00715445355 -0.39745003 0.016200833 0.917480767 -0.368775487 -0.323437303 0.871431589 -0.724874437 -0.0803680345 0.684176862 0.942986608 -0.236865178 -0.233818531 0.866094649 -0.368988991 -0.337234676 -0.0179002564 -0.999210417 -0.0354701765 0.820399344 -0.456635296 -0.344135374 -0.996753871 0.0664979964 -0.0453846417 -0.998553097 0.0506899133 -0.0179510452 -0.997475803 0.0552562214 -0.044596076 -0.933759689 0.164274514 0.317972869 -0.751671135 -0.0323259011 0.658745468 0.960107565 0.107876487 -0.257984787 0.999868512 0.0153307635 -0.00528847845 0.9999246 -0.00459057884 -0.0113868983 0.0401751064 -0.263434142 0.963840425 -0.996977806 0.00221522409 0.0776553974 -0.998942971 0.0241129454 0.0391351022 0.99966079 0.024426762 -0.00903717149 0.999258995 0.0361804217 0.0131303808 -0.951719165 -0.0262157638 -0.305848688 -0.994150996 0.0350155495 -0.10216514 0.989926279 0.141389787 -0.00741080055 0.724265516 0.0764970258 -0.685264647 -0.367708296 0.0980943292 0.92475301 0.940845609 0.0359975472 0.336917937 0.998865545 -0.0302904882 0.036743667 0.994176209 -0.0344501585 0.102111712 0.0885089934 -0.00501381047 0.996062756 -0.705834925 0.0490570627 -0.706675589 -0.206224158 0.929800451 0.304865003 0.0245424751 0.999658644 0.00896088965 0.0543448254 0.9984231 0.0140705369 -0.299472153 0.932558477 0.201621249 0.999850094 0.0158906337 -0.00687257759 0.410316795 -0.911481738 0.029002564 -0.875001729 0.275501162 0.398084313 0.998308778 -0.0262192115 0.0518855602 0.299234927 -0.939145029 -0.168715879 0.153906181 0.988083422 0.00200949237 0.0136292903 0.999901414 0.00337588415 -0.0087418342 0.999951839 -0.00446167449 -0.367331773 0.0488612168 0.928805649 -0.177040711 -0.608471155 0.773575723 -0.297943175 0.111160375 -0.948089242 -0.213446349 0.0570393503 -0.975288272 -0.382423967 0.16618517 -0.908919334 -0.124156758 0.000746556558 -0.992262363 -0.00845578406 0.999955416 -0.00420739036</float_array>
          <technique_common>
            <accessor source="#normals_array" count="101" stride="3">
              <param name="X" type="float" />
              <param name="Y" type="float" />
              <param name="Z" type="float" />
            </accessor>
          </technique_common>
        </source>
        <vertices id="vertices">
          <input semantic="POSITION" source="#positions" />
        </vertices>
        <triangles material="qmat_45af129ec809a57d" count="78">
          <input semantic="VERTEX" source="#vertices" offset="0" />
          <input semantic="NORMAL" source="#normals" offset="1" />
          <p>0 0 1 1 2 2 0 0 3 3 1 4 4 5 2 6 5 7 1 8 3 9 6 10 0 0 2 2 4 11 1 8 6 10 7 12 5 13 2 14 8 15 9 16 10 17 11 18 12 19 11 20 10 21 13 22 11 20 12 19 14 23 11 20 13 22 15 24 9 24 11 24 16 25 17 26 4 11 17 26 0 0 4 11 0 0 18 27 3 3 4 5 5 7 19 28 20 29 21 30 22 31 17 32 22 31 23 33 23 34 22 35 18 36 24 37 7 38 25 39 24 40 8 41 26 42 24 37 26 43 7 38 25 44 7 45 27 46 19 47 5 13 8 15 24 40 28 48 8 41 7 45 6 49 27 46 18 36 29 50 27 51 30 52 31 53 29 54 31 55 9 16 32 56 29 50 32 57 27 51 32 56 9 16 15 58 33 59 32 60 15 61 15 62 11 20 14 23 34 63 25 63 27 63 34 64 35 65 36 66 30 52 33 67 31 53 37 68 32 60 30 69 36 66 19 70 38 71 36 66 38 71 34 64 39 72 29 73 21 30 34 64 38 71 24 74 34 64 24 74 25 75 2 2 1 1 7 38 26 43 2 2 7 38 2 76 26 42 8 41 9 16 12 77 10 17 9 16 13 78 12 77 9 16 14 79 13 78 18 27 17 26 23 80 36 66 35 65 19 70 16 81 4 5 19 28 20 29 39 72 21 30 40 82 20 29 22 31 17 32 40 82 22 31 20 83 40 82 39 84 40 82 16 85 39 84 17 32 16 85 40 82 0 0 17 26 18 27 35 65 16 86 19 70 3 9 18 36 6 10 18 36 22 35 29 50 22 35 21 87 29 50 6 10 18 36 27 51 31 88 15 62 14 23 33 59 30 69 32 60 28 89 38 71 19 70 24 74 38 71 28 89 29 50 31 90 32 57 19 47 8 15 28 91 39 84 16 85 34 92 30 93 39 84 34 92 39 94 30 52 29 54 31 53 33 67 15 95 9 16 31 55 14 79 32 96 34 97 27 98 34 64 16 86 35 65 37 99 34 97 32 96 37 100 30 93 34 92</p>
        </triangles>
      </mesh>
    </geometry>
  </library_geometries>
  <library_visual_scenes>
    <visual_scene id="scene">
      <node id="link7_stl">
        <instance_geometry url="#geometry">
          <bind_material>
            <technique_common>
              <instance_material symbol="qmat_45af129ec809a57d" target="#qmat_45af129ec809a57d" />
            </technique_common>
          </bind_material>
        </instance_geometry>
      </node>
    </visual_scene>
  </library_visual_scenes>
  <scene>
    <instance_visual_scene url="#scene" />
  </scene>
</COLLADA>