<?xml version='1.0' encoding='utf-8'?>
<COLLADA xmlns="http://www.collada.org/2005/11/COLLADASchema" version="1.4.1">
  <asset>
    <created>2026-09-14T00:00:00Z</created>
    <modified>2026-09-14T00:00:00Z</modified>
    <unit name="metre" meter="1" />
    <up_axis>Z_UP</up_axis>
  </asset>
  <library_effects>
    <effect id="qmat_c90f2351a1b48e4d_effect">
      <profile_COMMON>
        <technique sid="common">
          <lambert>
            <emission>
              <color>0 0 0 1</color>
            </emission>
            <diffuse>
              <color>0.89804314 0.91765098 0.92549412 1.0</color>
            </diffuse>
          </lambert>
        </technique>
      </profile_COMMON>
    </effect>
  </library_effects>
  <library_materials>
    <material id="qmat_c90f2351a1b48e4d" name="qmat_c90f2351a1b48e4d">
      <instance_effect url="#qmat_c90f2351a1b48e4d_effect" />
    </material>
  </library_materials>
  <library_geometries>
    <geometry id="geometry" name="link6_stl">
      <mesh>
        <source id="positions">
          <float_array id="positions_array" count="189">0.0618782826 0.0826843679 -0.00315441657 0.0745084062 0.0847764239 -0.00511525199 0.06548886 0.0676019788 -0.0016143549 0.0768593997 0.0616737083 -0.00203745486 0.0774625018 0.0409931913 0.00294468831 0.0782282203 0.0115638431 -0.00421913015 0.0789707452 -0.00665935175 -0.00470925821 0.0686411113 0.0270735361 0.00048690915 0.0663339272 0.0708229244 0.00285012415 0.0598559342 0.0285814516 0.00485121273 0.0757465661 0.0847537145 0.00404892024 0.0580266714 0.0184012782 0.00316487066 0.0609843992 0.027180478 -0.0123967277 0.0583396442 0.0082102241 0.016789848 0.0683770552 0.00963025074 0.00536984764 0.0620835535 -0.00270585995 0.0303047895 0.0672500283 0.00404054299 0.0251755603 0.0696351528 -0.00223007589 0.0160988979 0.0577049218 -0.00798522308 0.0154860737 0.0690066963 -0.010734803 0.00603345362 0.0572953708 0.0189970825 0.0238496326 0.0632229075 0.0255726688 0.0229223743 0.0748691186 -0.0846927166 0.00458663329 0.0777239725 0.00348356203 0.00383621687 0.0656667501 0.00230088364 -0.0289961193 0.0813069493 0.0041416618 -0.0174643453 0.0616912022 -0.00323606469 -0.0238010753 0.0621707216 0.00338102598 -0.0170803331 0.0693689138 -0.00219498086 -0.00715235295 0.0831987783 0.00532533647 0.0111511732 0.00280403788 0.00821281131 0.0159154367 0.00228124019 -0.0129290717 0.0129021173 0.00579685112 -0.000885067915 0.0283841137 0.0058068675 0.0191612858 0.0210608449 0.00372292171 0.0138809234 0.00184573245 0.00750673655 0.0269319955 0.0102454051 0.0568533726 -0.00957114249 0.0285985488 0.0067037777 0.0265898407 -0.0104462421 0.0037509033 0.0187060982 -0.0221634787 0.00629097177 -0.00358664268 -0.0285089891 0.0016958951 0.012090574 -0.0111636035 0.0117282066 0.00967453327 0.00332006812 0.00161337736 -0.00580913667 -0.0128023028 0.011680102 -0.00971071422 -0.00327672926 0.069418177 -0.0710636973 -0.00166846486 0.0752489269 -0.0863108188 -0.00438857218 0.0621576831 -0.0805641562 -0.00207004114 0.0705093592 -0.0276557766 0.000248068041 0.0628891364 -0.0792430192 0.00364429015 0.0613711216 -0.0294197034 0.00276505738 0.0778853446 -0.0356695168 -0.00183745113 0.0776823461 -0.0635018721 0.000828708173 0.0815964341 -0.00410819985 0.0179519076 0.00702022761 -0.0274381824 0.0100010773 0.0612019673 -0.0280732475 -0.0065751248 0.0627154186 -0.0252265669 0.0208850689 0.0588663444 -0.0241878126 0.0303047895 0.057970427 -0.0196745079 0.00368358288 0.0589988232 -0.0187229682 -0.021629788 0.00532122049 -0.0221484192 -0.0177402608 0.00552608771 -0.0165203903 -0.00147167989 0.00227252487 -0.00643027015 0.00787964556 0.00556852296 -0.0187079106 0.0218055714</float_array>
          <technique_common>
            <accessor source="#positions_array" count="63" stride="3">
              <param name="X" type="float" />
              <param name="Y" type="float" />
              <param name="Z" type="float" />
            </accessor>
          </technique_common>
        </source>
        <source id="normals">
          <float_array id="normals_array" count="447">0.0365458988 -0.0928513706 -0.995009065 -0.164811626 -0.113173261 -0.979810655 0.277415216 0.00260828668 -0.960746586 0.982868731 0.0432737209 -0.179154739 0.958630443 0.0239573456 0.283643633 0.992343903 0.031314455 -0.119469725 -0.524037659 -0.0293539949 -0.851189077 0.046882309 -0.0766190439 -0.995957613 -0.45663628 -0.00279012858 -0.889649093 0.984656096 0.0793999806 -0.155396283 -0.36369288 0.0774187148 0.928296208 0.385003895 -0.112203829 0.916068971 -0.37849766 -0.00638206163 0.925580263 0.99652499 0.074874945 -0.0364930704 0.791527092 -0.38623789 -0.473608613 0.972319961 0.233059093 -0.0166544598 0.965569258 -0.169107601 -0.197683215 0.403542757 -0.219643369 0.888206065 0.721234679 0.210139692 0.660046816 0.919301867 0.341038942 0.196409002 0.155598998 0.519584239 0.84013164 0.229096621 0.506645143 0.831159115 -0.279646039 0.707559049 0.648967087 0.373871118 0.457876921 -0.806578636 0.346879333 0.430442721 -0.833302915 0.0127328765 0.0797405839 -0.996734321 0.625371456 -0.244006574 0.741195858 0.761477888 -0.558583021 0.32884115 -0.216477945 0.652114272 0.72655648 -0.703384757 0.668232918 0.24231109 -0.104908623 0.979353011 0.172805861 0.951122701 -0.288795054 0.109375887 0.794647336 -0.276711583 0.540339053 0.997922063 -0.0443068631 -0.0467806347 0.975891292 0.177550629 -0.126932859 0.978888333 -0.108055122 0.173498556 0.542821169 0.000150729364 0.83984828 0.440080345 -0.761883199 -0.475250781 0.718671679 0.203872249 -0.664790988 0.441527754 -0.746927857 -0.497143805 0.961896539 0.261605889 -0.0794821531 0.959335566 -0.00770778535 0.282162815 0.274560958 0.0655282736 -0.959334314 -0.660590231 0.67728889 0.323883116 -0.611579299 0.78943187 0.0526122153 -0.753612638 0.487067372 0.441399306 0.658987224 0.711040676 -0.245269135 -0.0435070023 0.96611768 -0.254408658 -0.0415581092 0.993886471 -0.102286823 -0.985582292 0.110383645 0.128230125 -0.985911787 -0.158334374 0.0539274476 -0.56623733 0.00265536201 0.824237943 -0.599363506 0.524825454 0.604418397 -0.973567605 0.0584067442 0.220804706 -0.0184974782 0.953394771 0.30115816 0.178788736 -0.111703694 0.97752589 0.0108609609 0.861981452 -0.506823421 -0.0215489455 0.949813724 -0.312072933 -0.0172206555 0.579398572 -0.81486243 0.0342751667 0.139875919 -0.989575624 -0.522962213 -0.11694324 -0.844295442 -0.96547389 0.25833264 0.0335319638 -0.951945364 0.302108735 0.0503022 -0.991228759 0.131304786 0.0149855902 -0.981135309 0.154919073 -0.115644418 -0.51443541 -0.434027255 0.739578605 -0.980969608 -0.185437679 0.0575460196 -0.714245319 -0.22388719 0.663119972 -0.158094853 0.0613917708 -0.985513628 -0.17134124 0.10915716 -0.979146004 -0.0147803416 0.0924839005 -0.995604455 -0.468903691 -0.0195228606 -0.883033514 -0.545688808 0.022125382 -0.837695777 -0.821053326 -0.532982528 0.204453111 -0.400618404 -0.899391949 0.174925849 -0.419116616 -0.896459281 0.143882126 -0.999572933 -0.017579589 0.0233434495 -0.768015683 -0.598216116 0.228668794 0.232267305 0.0220720451 0.9724015 -0.0180062819 0.0683296472 0.9975003 -0.0454777144 0.0723115131 0.996344745 0.999363959 -0.0252906103 -0.025140496 0.992157996 -0.0373178795 0.119288936 -0.962295353 -0.234463006 0.137893945 -0.553642929 0.720767677 -0.417101294 0.987260759 -0.0213288665 0.157674551 -0.0082972208 -0.978589118 0.205656305 0.00253991527 -0.962815881 0.270146459 -0.0289133564 -0.949703336 -0.311813384 0.238330573 -0.949915171 0.202137768 0.70415765 -0.704919517 -0.0851498544 0.970140219 -0.23982954 -0.0361911617 0.0349747092 -0.990275681 -0.134650856 0.838525116 0.181795493 0.513640046 0.942495584 0.32257095 0.0874645337 0.944161713 0.282724351 -0.169190928 -0.37586388 0.123605937 0.918394208 0.984439969 0.151690662 0.0887008458 0.970635116 -0.126865372 0.204383478 0.994484782 -0.0577573776 0.0875449404 0.824491441 -0.0645185411 0.562184334 0.0157868024 -0.616978765 -0.786821425 0.964398324 -0.256330401 -0.0650426373 0.491766363 0.314943671 -0.811773598 0.800011754 0.37773329 -0.466153145 -0.59780252 -0.665140212 -0.447460175 0.904583097 -0.0850192234 -0.417733401 -0.682686448 -0.356153846 0.638038874 -0.687404752 -0.492409319 0.53386116 -0.646092474 -0.162084818 0.745850563 0.874184668 -0.433181673 -0.219442159 0.985689044 0.0433580093 0.162902549 -0.977077484 -0.212843165 -0.00416345196 -0.96729517 -0.253466249 -0.00974222738 -0.99581939 -0.0803466588 -0.0434526801 0.347223282 0.937626719 0.0170931779 0.259981841 0.0017179508 0.965611994 -0.377332509 0.144645363 0.914711893 -0.159734696 0.986867547 0.0240267906 -0.243856087 -0.0691204667 -0.967345119 -0.527941763 0.217298239 0.821010947 -0.997347832 0.0272967014 -0.0674697831 0.982453883 0.0363355838 0.182931855 0.632158339 0.705190122 -0.321065009 0.968886137 -0.140324578 -0.203883946 0.966093719 -0.173684701 -0.191040799 -0.548838079 0.613353074 -0.567956686 -0.841190636 0.0705158636 0.53612107 0.967470348 0.0461109243 -0.248746723 -0.610053241 -0.0461321697 0.79101634 -0.997261226 -0.00554859824 -0.0737511143 0.0259146076 -0.286377341 -0.957766414 -0.242154911 -0.130037025 -0.961483955 -0.569360197 0.10339009 -0.815560818 -0.999734998 -0.016857177 0.0156755205 0.994159698 -0.107288808 0.0116454074 0.263131976 0.0133205168 0.964667857 -0.99575007 -0.0667222589 -0.0634817928 -0.996436119 -0.0759189874 -0.0367617495 -0.996484995 -0.0784113705 -0.0294848382 -0.0970733538 -0.940243244 -0.3263731 -0.068221584 -0.886340916 -0.457979918 0.929476857 0.338226825 -0.147225574 -0.987692952 -0.143330157 -0.0626026914 0.265244156 0.00168208592 0.964179814 -0.623400033 0.0933624208 0.776309133 -0.995496571 -0.0647225976 -0.069264479 -0.554831684 -0.532309413 0.639381349 -0.710141957 0.228396177 -0.66598314</float_array>
          <technique_common>
            <accessor source="#normals_array" count="149" stride="3">
              <param name="X" type="float" />
              <param name="Y" type="float" />
              <param name="Z" type="float" />
            </accessor>
          </technique_common>
        </source>
        <vertices id="vertices">
          <input semantic="POSITION" source="#positions" />
        </vertices>
        <triangles material="qmat_c90f2351a1b48e4d" count="138">
          <input semantic="VERTEX" source="#vertices" offset="0" />
          <input semantic="NORMAL" source="#normals" offset="1" />
          <p>0 0 1 1 2 2 3 3 4 4 5 5 1 6 6 7 7 8 1 9 3 3 5 5 8 10 9 11 7 12 1 9 10 13 3 3 7 14 11 15 12 16 9 11 11 17 7 12 11 15 13 18 14 19 15 20 16 21 13 22 13 23 17 24 18 25 14 19 18 26 19 27 20 28 21 29 9 30 21 31 20 32 13 33 20 32 15 34 13 33 10 13 22 35 23 36 4 4 10 13 23 36 24 37 25 38 26 39 12 16 11 15 27 40 12 16 27 40 24 41 7 8 6 7 28 42 23 43 29 44 5 45 5 46 25 38 27 47 27 47 25 38 24 48 30 49 31 50 32 51 33 52 30 49 32 51 33 52 34 53 30 49 33 52 20 28 35 54 20 28 32 51 36 55 35 54 12 56 37 57 38 58 24 59 39 60 35 61 37 62 34 53 37 62 40 63 34 53 37 62 38 64 40 63 41 65 42 66 43 67 44 68 45 69 46 70 47 71 6 7 45 72 48 73 45 74 22 75 49 76 46 77 48 73 47 78 48 79 22 80 50 81 23 36 51 82 52 83 23 83 6 83 29 44 23 43 17 84 6 85 23 36 50 81 49 86 53 87 54 88 55 89 56 89 49 89 15 90 18 91 17 92 52 93 16 21 15 20 18 91 55 94 57 95 20 28 36 55 56 96 18 91 15 90 56 97 26 98 58 99 24 100 24 59 58 101 39 60 57 102 47 103 54 104 26 98 57 102 58 99 54 88 59 105 58 101 27 40 28 106 26 98 19 27 57 102 28 106 28 42 6 7 47 71 27 107 26 108 6 109 25 38 6 110 26 39 29 111 52 93 6 110 25 38 29 111 6 110 31 50 60 112 53 113 30 49 61 114 31 50 61 115 43 115 42 115 39 60 59 105 42 66 60 112 59 105 53 113 0 0 2 2 12 16 3 3 10 13 4 4 22 35 10 13 19 116 10 117 8 10 7 12 10 118 1 118 0 118 2 2 1 1 7 119 10 117 0 120 8 10 8 10 0 120 9 11 9 121 0 121 12 121 19 27 7 122 14 19 13 23 16 123 17 24 14 19 13 18 18 26 9 124 21 31 11 125 11 125 21 31 13 33 29 111 16 21 52 93 16 126 29 44 17 84 19 127 10 117 7 12 11 15 28 106 27 40 11 15 14 19 28 106 12 16 2 2 7 14 5 5 4 4 23 36 38 58 12 56 24 59 6 128 1 9 5 5 5 46 29 111 25 38 5 129 27 107 6 109 14 130 7 130 28 130 9 30 35 54 20 28 34 131 41 132 61 133 30 49 34 53 61 114 33 52 35 61 34 53 20 28 33 52 32 51 37 57 12 56 38 58 34 53 40 63 42 66 35 54 9 30 12 56 41 65 34 53 42 66 40 63 38 64 42 66 42 66 38 64 39 60 46 70 47 103 44 68 49 76 54 134 46 77 45 135 50 81 51 82 6 85 50 81 45 135 44 68 47 103 45 69 45 74 48 73 46 77 47 78 49 136 48 79 45 135 51 82 22 35 51 82 23 36 22 35 19 137 47 138 22 139 52 140 15 90 17 92 52 140 17 92 23 141 49 142 57 95 55 94 36 143 49 143 56 143 19 27 18 26 57 102 47 78 57 144 49 136 49 86 36 55 53 87 15 145 20 28 56 96 18 91 56 97 55 94 58 99 57 102 54 104 54 104 47 103 46 70 28 106 57 102 26 98 19 137 28 146 47 138 32 51 31 50 62 147 61 133 41 132 43 148 62 147 31 50 53 113 60 112 31 50 61 114 36 55 62 147 53 87 36 55 32 51 62 147 58 101 59 105 39 60 60 112 42 66 59 105 54 88 53 87 59 105 61 114 42 66 60 112</p>
        </triangles>
      </mesh>
    </geometry>
  </library_geometries>
  <library_visual_scenes>
    <visual_scene id="scene">
      <node id="link6_stl">
        <instance_geometry url="#geometry">
          <bind_material>
            <technique_common>
              <instance_material symbol="qmat_c90f2351a1b48e4d" target="#qmat_c90f2351a1b48e4d" />
            </technique_common>
          </bind_material>
        </instance_geometry>
      </node>
    </visual_scene>
  </library_visual_scenes>
  <scene>
    <instance_visual_scene url="#scene" />
  </scene>
</COLLADA>