<?xml version='1.0' encoding='utf-8'?>
<COLLADA xmlns="http://www.collada.org/2005/11/COLLADASchema" version="1.4.1">
  <asset>
    <created>2026-09-14T00:00:00Z</created>
    <modified>2026-09-14T00:00:00Z</modified>
    <unit name="metre" meter="1" />
    <up_axis>Z_UP</up_axis>
  </asset>
  <library_effects>
    <effect id="qmat_634f1a590715cf44_effect">
      <profile_COMMON>
        <technique sid="common">
          <lambert>
            <emission>
              <color>0 0 0 1</color>
            </emission>
            <diffuse>
              <color>0.5647098 0.5647098 0.5647098 1.0</color>
            </diffuse>
          </lambert>
        </technique>
      </profile_COMMON>
    </effect>
  </library_effects>
  <library_materials>
    <material id="qmat_634f1a590715cf44" name="qmat_634f1a590715cf44">
      <instance_effect url="#qmat_634f1a590715cf44_effect" />
    </material>
  </library_materials>
  <library_geometries>
    <geometry id="geometry" name="link1_stl">
      <mesh>
        <source id="positions">
          <float_array id="positions_array" count="75">0.0193575788 0.0394818597 0.0364392735 0.00923652947 0.0407925211 0.0601666644 0.0169086028 0.0341476686 0.0124071883 0.00861821324 -0.00800420158 0.0112565663 0.0010388298 0.00993904937 0.0109426053 0.0138466312 -0.00247095525 0.00148575485 0.00270879758 0.019216964 0.00684005208 0.0115184141 0.0150292506 -0 0.0170573723 0.0416283831 0.00804999564 0.017240921 -0.0318184234 0.0100285178 -0.0179146621 0.0393685885 0.0127644641 -0.0178393647 -0.0279099606 0.0127748344 -0.0137898102 0.0146639841 0.0106218355 -0.000857305015 0.0131834187 0.000737608527 -0.010738668 0.00801578443 -0 0.0122378645 -0.0329816937 0.0610805377 0.0114246868 -0.0297902059 0.035085503 0.0331251584 -0.0330431797 0.0547690615 0.0131166074 -0.0380608141 0.0380223989 0.0340718478 -0.0329658166 0.0362267718 1.95816174e-05 -0.012315358 0.010786362 -0.000413605361 -0.019541895 0.00461680908 -0.017529469 -0.00204488472 0.00166641141 -0.0189999994 -0.038127508 0.00783199538 0.0368429944 0.0405006185 0.0517357886</float_array>
          <technique_common>
            <accessor source="#positions_array" count="25" stride="3">
              <param name="X" type="float" />
              <param name="Y" type="float" />
              <param name="Z" type="float" />
            </accessor>
          </technique_common>
        </source>
        <source id="normals">
          <float_array id="normals_array" count="231">0.0722713619 -0.981531143 0.177125618 -0.00988356769 -0.995223105 0.0971253514 -0.0879876837 -0.985556602 0.144693986 -0.7449826 -0.324881434 -0.582625926 -0.402285874 0.223421499 0.887833834 -0.441816032 0.237288684 0.865154684 0.0371527076 -0.029456716 0.99887538 0.649785697 0.149716362 0.745227218 -0.148786888 0.148043796 -0.977724671 -0.1628519 0.156853169 -0.974102855 -0.113393418 0.18624869 -0.975937188 0.944970906 -0.158928975 -0.285957187 0.982196927 -0.108750835 -0.153174743 0.26845926 -0.748697639 -0.60611999 0.057879366 -0.0766649172 0.995375514 0.123033218 0.038446229 0.991657555 0.255382329 -0.0714072138 0.964199603 -0.0135958428 0.999809623 0.013995029 -0.039020732 0.999186635 0.010169684 -0.0636142045 0.997953653 0.0064593181 -0.0855527371 0.199430138 -0.976170242 0.153974131 -0.801369548 0.578012764 0.143931389 -0.676342726 0.72238791 0.10590589 -0.336089998 0.935856521 -0.803426743 0.507880569 0.310745537 -0.146178707 -0.982754409 0.113250099 0.158546597 -0.924755692 0.345962197 0.131137967 -0.293392897 0.946954846 0.0736501738 -0.205466732 0.975888848 0.184986264 0.127183333 -0.974476516 0.236065269 0.176060662 -0.955654681 0.0666617379 0.014934578 -0.997663856 0.0196116362 0.992430687 0.121230081 0.0603605658 0.99736625 0.0402145572 0.0613316745 0.998110712 0.00367007032 0.148334086 -0.981992066 0.116998196 0.0441726856 -0.99820751 0.0403807014 0.229514495 -0.97040993 -0.0750176385 0.0753536969 -0.0241219848 0.996865034 0.067824468 -0.026872417 0.997335315 0.139391363 0.990177751 -0.0108653614 0.119862296 0.991405308 -0.0524260104 0.122609988 -0.241780341 0.962553382 0.278017968 -0.633283734 0.722258806 0.0587640069 -0.223324522 0.972971201 0.0979452729 -0.561971128 -0.821337402 0.138181284 -0.515066028 -0.8459391 -0.0134273581 -0.676653683 -0.736178994 -0.999464095 0.0158214401 -0.0286563374 -0.641492307 -0.666509032 -0.379806966 -0.933517754 -0.0645668581 0.352669418 0.233670652 -0.772200227 0.59085089 0.11152596 -0.8276456 0.550058842 0.758821785 -0.431368321 0.48796609 0.235515565 0.381137013 0.894017339 0.0146401981 0.866685033 0.498640865 0.0708717406 -0.236045077 -0.969154239 -0.0351044796 -0.9937132 0.106309772 0.0162099227 0.999698102 0.0184660051 0.878793955 -0.253107667 -0.404546261 0.289947808 0.92630142 0.240615845 -0.215618432 0.684260428 -0.696632147 -0.693725526 0.546046615 0.469657332 -0.33417654 -0.798898518 0.500087261 -0.382208198 -0.128539473 -0.915092587 0.310460925 0.247751832 -0.917732537 -0.360778779 -0.77158767 0.523919046 -0.0247679278 0.258553982 -0.965679228 -0.0958202928 -0.961968243 0.255803794 0.0853523836 0.993878007 0.0701534227 0.810668647 -0.0752601773 -0.580648124 -0.550198197 0.69611454 -0.461201191 -0.69903183 0.488081545 -0.522619307 -0.99333632 0.0211229734 -0.113299496 0.237556711 -0.385726243 -0.891505539 0.392752647 0.364604354 -0.844280183 -0.00217765546 -0.168346152 -0.985725522</float_array>
          <technique_common>
            <accessor source="#normals_array" count="77" stride="3">
              <param name="X" type="float" />
              <param name="Y" type="float" />
              <param name="Z" type="float" />
            </accessor>
          </technique_common>
        </source>
        <vertices id="vertices">
          <input semantic="POSITION" source="#positions" />
        </vertices>
        <triangles material="qmat_634f1a590715cf44" count="58">
          <input semantic="VERTEX" source="#vertices" offset="0" />
          <input semantic="NORMAL" source="#normals" offset="1" />
          <p>0 0 1 1 2 2 3 3 4 3 5 3 2 4 4 5 3 6 6 7 5 7 7 7 8 8 5 9 6 10 8 11 2 12 9 13 10 14 11 15 12 16 1 17 8 18 10 19 8 8 6 10 10 20 7 21 13 22 14 23 13 24 4 5 2 4 1 1 10 25 2 2 12 26 13 22 7 21 12 16 5 27 2 28 13 29 5 30 14 31 15 32 16 33 11 34 17 35 18 36 19 37 3 6 11 38 9 39 16 33 19 40 9 41 20 42 21 43 3 44 20 45 22 46 5 47 10 48 23 49 11 50 12 16 11 15 20 42 14 51 12 52 22 53 22 54 11 54 21 54 3 55 5 55 22 55 21 56 9 13 23 49 24 57 0 0 2 2 24 57 1 1 0 0 1 17 24 58 8 18 2 12 8 11 24 59 13 60 12 60 4 60 6 61 7 61 14 61 22 62 6 62 14 62 14 51 4 63 12 52 2 28 10 14 12 16 12 64 7 64 5 64 13 29 2 65 5 30 5 66 4 63 14 51 10 20 6 10 22 67 15 68 11 50 23 49 15 32 17 69 16 33 18 36 15 68 23 49 19 40 16 33 17 69 17 35 15 68 18 36 19 37 18 36 9 13 21 56 5 70 9 13 2 4 3 6 9 39 5 70 8 11 9 13 11 34 16 33 9 41 18 36 23 49 9 13 11 71 3 71 21 71 20 72 5 72 21 72 10 48 22 73 23 49 22 46 20 45 11 74 12 75 3 75 22 75 3 44 12 16 20 42 23 49 22 76 21 56</p>
        </triangles>
      </mesh>
    </geometry>
  </library_geometries>
  <library_visual_scenes>
    <visual_scene id="scene">
      <node id="link1_stl">
        <instance_geometry url="#geometry">
          <bind_material>
            <technique_common>
              <instance_material symbol="qmat_634f1a590715cf44" target="#qmat_634f1a590715cf44" />
            </technique_common>
          </bind_material>
        </instance_geometry>
      </node>
    </visual_scene>
  </library_visual_scenes>
  <scene>
    <instance_visual_scene url="#scene" />
  </scene>
</COLLADA>