<?xml version='1.0' encoding='utf-8'?>
<COLLADA xmlns="http://www.collada.org/2005/11/COLLADASchema" version="1.4.1">
  <asset>
    <created>2026-09-14T00:00:00Z</created>
    <modified>2026-09-14T00:00:00Z</modified>
    <unit name="metre" meter="1" />
    <up_axis>Z_UP</up_axis>
  </asset>
  <library_effects>
    <effect id="qmat_d857164d36b11abb_effect">
      <profile_COMMON>
        <technique sid="common">
          <lambert>
            <emission>
              <color sid="emission">0 0 0 1</color>
            </emission>
            <diffuse>
              <color sid="diffuse">0.85 0.85 0.85 1</color>
            </diffuse>
            <reflectivity>
              <float sid="specular">0.5</float>
            </reflectivity>
          </lambert>
        </technique>
      </profile_COMMON>
    </effect>
  </library_effects>
  <library_materials>
    <material id="qmat_d857164d36b11abb" name="qmat_d857164d36b11abb">
      <instance_effect url="#qmat_d857164d36b11abb_effect" />
    </material>
  </library_materials>
  <library_geometries>
    <geometry id="geometry" name="RL_hip_dae">
      <mesh>
        <source id="positions">
          <float_array id="positions_array" count="330">0.0529064387 0.0209426731 0.0167950466 0.0319677629 0.0141112553 0.0444874801 0.0505276956 0.0140510509 0.021451721 0.0290398058 0.0208456721 0.0463244282 -0.0497998893 0.0213833917 -0.0214077979 0.027335668 0.0157286208 0.0550536849 0.0121833747 0.0136112021 0.0631209612 0.0420594439 0.00587547338 0.0554478355 0.0107266074 0.0211357977 0.0528268814 0.0899999663 0.0468183905 0.0283241291 0.0899695456 0.0201799832 0.0511357673 0.0899999663 0.0512558706 -0.0150589831 0.0658045933 0.0533806682 0.00637432886 0.0655491725 0.0501461513 -0.0188123118 0.0654907897 0.0258966535 0.0459183343 0.0657919273 0.0426787995 0.0317019783 0.0899999663 -0.0175562818 0.0513646454 0.0899978131 -0.0499089099 0.0221142266 0.0651032403 0.0143050002 -0.0473534539 0.0649452507 0.0142708635 0.0480590425 0.0495114811 0.0231615975 0.0482761934 0.0535959937 0.0140608596 -0.0111738173 0.0683945939 0.00851106644 0.0530328788 0.0119318357 -0.0146867763 0.0624397658 0.0368072428 -0.0196091756 0.0531014279 0.0440006033 -0.0141148306 0.030968871 0.024309231 -0.0141726192 0.0478021204 0.0335771739 -0.0344084278 0.0420540385 0.0331945606 -0.0148302242 0.0521816276 0.0107273925 -0.0112158414 0.0526313707 0.00097575807 -0.0344242416 0.0541178212 0.049838841 -0.0344237834 0.0201413836 0.0654380992 -0.0145559125 0.0491553321 0.0553949066 -0.0245183147 0.046710737 0.0396895595 -0.0345955379 -0.036484573 0.0536447428 -0.0345025212 -0.00849618297 0.0520321913 -0.0140644293 0.0142254625 0.0687201992 -0.0215683021 0.0490457602 0.0579697788 -0.0383440442 0.0358149037 0.0688980594 -0.0447135419 0.0299820919 0.0899999663 -0.0500514992 -0.0206478499 0.0575874299 -0.0620842725 0.0106038032 0.0576139465 -0.0625748858 -0.0105586359 0.0683958307 -0.0623624399 -0.0102731241 0.05784823 -0.0503633618 0.0140170557 0.0689885989 -0.0549246781 0.00976422802 0.0652765706 -0.0502172485 -0.0108315926 0.0654091761 -0.0451678485 0.0261381436 0.049155958 0.0212071538 -0.0229484495 0.0442568846 0.0140500609 -0.0319797099 0.0299817696 0.0211361721 -0.0453563146 0.0432590432 0.0214610454 -0.0500034392 0.0118133193 0.0146799022 -0.0628213137 0.032054659 0.0148050375 -0.0525926724 0.0145982606 0.0145129217 -0.0517685972 0.0899889246 0.0373644754 -0.0400279984 0.0899999663 0.00900965184 -0.0531046502 0.0655739233 0.0242046863 -0.0478365161 0.0690607652 0.0413588248 -0.033901833 0.0684808418 -0.00871096645 -0.0529399253 0.0899999663 -0.0269758422 -0.0468891449 0.0415227041 0.00194374006 -0.0567265414 0.0157534163 -0.0342634022 -0.0522549413 0.0360085331 -0.0141193988 -0.0399408787 0.0509265736 -0.0141451582 -0.0193718933 0.0649101064 -0.0142050134 -0.0481364504 0.0342506729 -0.0144986417 -0.0518750474 0.0359039269 -0.0199421961 -0.052230522 0.0132621508 -0.0119109051 -0.0518251099 0.0604942366 -0.0283132251 -0.0445898958 0.0685777143 -0.052647125 -0.00943034049 0.0687464327 -0.0448681861 -0.0295283925 0.0652824715 -0.0370299779 -0.0360867344 0.0579768606 -0.0386363529 -0.0357921459 0.05755689 -0.0505268797 -0.0136246141 0.0099969022 -0.000162209952 0.0608335845 -0.0276337471 -0.00865956582 0.0456719324 -0.0423657037 0.0212347619 0.0329570957 -0.0198602006 0.0211091153 0.0505425557 0.00880924426 0.00546244858 0.0537530743 -0.0185870044 0.00565561745 0.0508311726 -0.0478007607 0.00349590625 0.0344121642 -0.0527241416 0.0212308802 0.00763744069 -0.0269229673 0.00339353993 0.0551162884 -0.0233799238 -0.00578693813 0.0572730154 -0.0489601195 0.00528326025 0.0220821146 -0.0587954111 0.0030688371 0.0172294565 -0.0599049889 -0.00554448832 -0.000950915855 -0.0529548116 -0.00572775025 0.0299965199 -0.0482443944 -0.00780623127 0.023561636 -0.0476972573 -0.034515921 0.0245462786 -0.0214483403 -0.0344960019 0.048642423 -0.0529656485 -0.00795001443 -0.00342650153 -0.0516373143 -0.0343937501 -0.0122347651 0.0124458978 -0.0137476716 -0.0631209612 -0.0149150612 -0.00589913968 -0.0590185151 0.0103010358 -0.00569032645 -0.05962497 -0.0241099149 0.00323372683 -0.057015907 -0.0297354702 0.0205963515 -0.0450549014 -0.00282258424 0.0210340396 -0.0545192733 -0.0217084605 0.00537544908 -0.0497320816 0.0104109161 0.00492321933 -0.0546114706 -0.0161521118 -0.0343896449 -0.0511799417 -0.042803295 0.00547162537 -0.0322525017 -0.0539432727 0.00527601643 -0.00794043019 -0.055384282 0.00325255608 -0.027290687 -0.0469473936 -0.00580016058 -0.0392657481 -0.0192937572 -0.00798970927 -0.0500875004 -0.0411993302 -0.00778962066 -0.0345174111 -0.0401415154 -0.0344956554 -0.0341355056</float_array>
          <technique_common>
            <accessor source="#positions_array" count="110" stride="3">
              <param name="X" type="float" />
              <param name="Y" type="float" />
              <param name="Z" type="float" />
            </accessor>
          </technique_common>
        </source>
        <source id="normals">
          <float_array id="normals_array" count="606">0.781974494 0.587929606 0.207013726 0.667904258 0.0878863111 0.739039898 0.875014961 0.0246561039 0.483467519 0.00675661815 0.999977171 7.40493415e-05 -0.00300948881 0.999975622 -0.00629746262 0.272075027 0.821526766 0.501067817 -0.380286008 0.389965892 0.838635266 0.162401721 0.101893626 0.981449604 0.231898531 0.881609023 0.411082268 0.00891298149 0.999952555 -0.00393194053 -0.0073765493 0.999858499 -0.0151195498 -0.228132114 0.942488432 -0.244277075 0.999999225 -0.0012515597 -0.000128022599 1 3.14980716e-05 0.000181243217 1 -8.19964043e-06 4.29039537e-05 -0.999720752 0.0223702621 0.00761431409 -0.661725283 0.704448998 -0.256653905 -0.999364674 0.0356158614 0.00130689098 -0.999567151 0.0272749737 0.0110251009 -0.0481575243 0.78529048 0.617251754 0.0129342228 0.865486681 0.500764966 0.0485679433 0.992026031 0.116299026 -0.0126041379 0.491419047 0.870832026 0.999999225 0.000799983623 -0.000958817429 1 0.000174648943 5.96732971e-05 -0.999440968 0.0286595467 -0.017215034 -0.998913527 0.0465737209 -0.00163739675 -0.11440035 -0.17470637 -0.977952063 -0.137240201 -0.214622021 -0.967006981 -0.169145077 -0.270476878 -0.947751105 0.0196608026 0.999622941 -0.019168051 -0.0175327323 0.999845862 0.000904998917 -0.00323093636 0.373709321 0.927540243 0.0253662746 0.126365975 0.991659284 0.020069031 -0.343948543 0.93877399 0.948244452 0.290242851 -0.12880832 -0.314970583 -0.0928775296 0.944546103 0.187513649 -0.158332095 0.969417155 0.800797164 0.00101420865 0.59893477 0.444460928 -0.0374653004 0.895014405 0.606936336 -0.0345230475 0.794000268 -0.224791959 -0.81285584 -0.537339687 -0.159081593 -0.960390091 -0.228787825 -0.105661571 -0.990240574 0.09088061 0.00575146591 0.0310353599 0.999501765 0.92676425 -0.0496295393 0.372350544 -0.0136867054 -0.999723554 -0.0191182662 -0.0108891884 -0.999875546 -0.0114144916 -0.243104309 0.414626926 -0.876917779 -0.393390119 -0.451526135 -0.800854743 0.00234093703 -0.999993861 0.00261355098 0.000422594982 -0.999995708 -0.00290274224 0.000908855291 -0.99999547 0.00287010032 0.975495219 0.0141957607 0.219562128 0.0261217728 -0.42945236 0.90271163 -0.0485237129 -0.708750486 0.703788459 -0.0575435534 -0.789089024 0.61157763 -0.643862188 0.349295706 -0.680759907 -0.330440164 0.622230053 -0.709675372 0.0246460848 -0.686524868 0.726688504 0.989984572 -0.00835466944 -0.140928134 1 -1.73343358e-06 3.15131292e-05 -0.0392403975 -0.999229312 0.00100051134 0.373535395 -0.732443333 0.569208264 0.0190808121 -0.999548852 0.0231962167 0.668411076 -0.739742935 0.0775054172 -0.0505912043 -0.725471795 0.686389983 0.307096541 -0.890391767 0.335997283 -0.694712043 0.70828414 0.125334293 -0.642301321 0.666161597 -0.379048377 -0.999899328 0.0139500136 0.00260025123 -0.999963522 0.00399847934 0.00754564954 -0.999739289 0.0227631666 -0.00178041239 -0.295039475 0.938843846 -0.177549735 0.0966413766 -0.902318776 0.420096755 0.681372643 0.665352643 -0.305019975 0.769685745 0.132078707 -0.624611139 0.00130470365 0.999981284 -0.0059763086 -0.104721904 -0.202479735 0.973671019 -0.786640108 0.60540688 0.121160239 -0.214187443 0.793945611 0.569011569 -0.376625359 0.919113159 0.115690805 0.0582544506 0.970409453 -0.234332815 0.00440208893 0.684603035 -0.728902757 0.00874017645 0.145329565 -0.989344716 -0.45084554 0.336505145 -0.826742172 -0.347198516 0.725517571 -0.594203174 0.0311015118 -0.159242526 -0.98674947 1 9.47671651e-05 -0.000105083578 1 9.69011467e-08 0 0.999999285 0.00079712976 -0.000886258262 -0.00640942948 0.999851644 0.0159878638 -0.00333211664 0.999921679 0.012063276 0.215756804 0.018630147 -0.976269364 0.154983073 0.309398711 -0.938217819 0.262660027 0.0193645619 -0.964694083 0.649889767 0.0221493635 -0.759705663 0.739094198 -0.0332033075 -0.672783256 -0.0106845861 -0.999940991 -0.00195201405 -0.0307804793 -0.999197125 0.0256461482 -0.00312573649 -0.999972939 0.00665560877 -0.24141413 -0.766146719 0.595599234 -0.24979955 -0.0702029094 0.965749323 -0.699529111 0.199364066 0.686231017 0.936905921 0.00372313429 -0.34956184 -0.408993036 -0.899573267 0.153272882 0.0114676841 -0.490103513 -0.871588767 0.273315817 -0.260397881 -0.926008344 0.0374470614 -0.498324066 -0.866181731 0.0555356331 -0.931901276 -0.358435154 0.106753297 -0.852235258 -0.512151182 -0.0581320934 -0.82660985 -0.559764922 -0.724698305 0.517970204 0.454443872 -0.411160439 0.394110531 0.821963489 -0.151335984 0.795789242 0.586359084 -0.136887386 0.949985623 0.280694038 0.072492063 -0.725859225 -0.684012651 0.185296148 -0.0934562758 -0.978228629 -0.999942243 -0.00205111271 0.0105514089 -0.84576261 -0.00030298013 0.533559322 -0.989322305 -0.123181581 0.0778952539 -0.128259897 -0.694758892 0.70771426 -0.410945922 -0.602974832 0.683772445 0.0157689806 -0.212262675 0.977085412 0.00246732077 0.999994099 0.00239656959 -0.000178356015 0.99999243 0.00388621213 -0.96268028 0.119395442 0.242881358 -0.074363254 0.0678901821 0.994917572 -0.331714004 0.0470371507 0.942206621 -0.0576155074 0.479053408 0.875892818 -0.220194489 0.593691289 0.773979962 -0.773362041 0.227669448 0.591673672 -0.0106001031 0.999935091 0.00418336224 -0.428817749 0.551493466 0.715521038 -0.230744049 -0.56423533 0.792714119 -0.792909563 0.234494388 0.562411547 -0.748746216 0.624190032 0.223082662 -0.851183116 0.481969506 0.207828477 -0.876031876 -0.480454832 -0.0416097194 -0.72208184 -0.517423868 0.459206194 -0.280635566 -0.954468906 0.101157166 -0.889974773 -0.040844284 0.454176903 -0.435202509 -0.000676333613 0.900332332 -0.336447805 -0.940487564 -0.0478125177 -0.00143223233 -0.999998689 -0.000746134319 -0.00239780964 -0.999996901 -0.00070910441 -0.997955561 -0.00581326568 -0.0636467338 -0.978299558 -0.0219775476 -0.206026718 -0.751438081 -0.64896524 0.119100355 -0.0386171155 -0.835984409 -0.547392666 -0.178311735 -0.501289904 -0.846707344 0.0122238053 -0.302874982 -0.952951908 -0.955328465 -0.0920262188 -0.28085348 -0.360655874 0.47633028 -0.801895738 -0.577577829 0.0177465025 -0.816142738 -0.0791975409 0.033882834 -0.996282935 -0.401388675 -0.00761802634 -0.91587615 0.0591268018 0.0542710982 -0.996774137 -0.108523063 0.962834537 -0.247330442 0.0341064893 0.518805027 -0.854211986 -0.000974405441 -0.999946415 -0.0103075989 0.00308814133 -0.999663889 -0.0257403925 -0.98843652 0.15124318 0.0108947847 -0.00444868021 0.999847949 -0.0168607514 -0.0397409946 0.996967852 -0.0669011921 -0.786499143 -0.00223616697 -0.617587328 -0.504344583 0.862560868 -0.0403145626 -0.255716294 0.935663104 -0.243194804 -0.826912045 0.440057039 -0.350094736 -0.987267792 0.0366305076 0.154791892 -0.913989007 0.0272898879 -0.404820204 -0.992197275 0.0279692095 -0.121500053 -0.648453236 -0.496388525 -0.5771541 -0.174068272 -0.938344181 -0.29868111 -0.775220931 -0.00898581743 -0.631626308 -0.303755969 -0.00129498611 -0.952749014 -0.7508865 -0.0391701646 -0.659268618 -0.206249431 -0.966126621 -0.155114457 -0.00121197465 -0.999998391 0.00133186555 -0.360786974 -0.00434144726 -0.932638168 -0.185661361 -0.29943794 -0.935877562 0.105440587 0.341951311 0.933783472 0.507438004 -0.0143887214 0.861568093 -0.194858819 -0.899388075 -0.391319722 0.00165309291 -0.99999547 0.00251106801 0.00213763956 -0.999993801 0.00280406396 0.999587476 -0.0166854225 -0.0233773459 0.525212765 -0.264005184 -0.808982611 0.276074946 0.190650031 -0.942037761 0.245036528 0.110672235 -0.96317637 0.266289055 -0.102891065 -0.958385944 -0.145847633 0.019610282 0.989112675 -0.155514628 0.0555197969 0.986272156 0.187623039 0.0452182144 -0.981199741 -0.0306564812 -0.734436572 -0.677984595 0.0246813577 0.0859384984 -0.995994687 0.00101176405 -0.999997675 0.00189592771 -0.963628292 0.13162744 0.232582718 -0.0425109379 0.701873839 0.711031556 0.330936134 -0.111707427 0.937017977 -0.171558589 0.968998909 0.1777886 -0.899559915 -0.00232516229 0.436791271</float_array>
          <technique_common>
            <accessor source="#normals_array" count="202" stride="3">
              <param name="X" type="float" />
              <param name="Y" type="float" />
              <param name="Z" type="float" />
            </accessor>
          </technique_common>
        </source>
        <vertices id="vertices">
          <input semantic="POSITION" source="#positions" />
        </vertices>
        <triangles material="qmat_d857164d36b11abb" count="216">
          <input semantic="VERTEX" source="#vertices" offset="0" />
          <input semantic="NORMAL" source="#normals" offset="1" />
          <p>0 0 1 1 2 2 3 3 0 0 4 4 5 5 6 6 7 7 6 6 5 5 8 8 3 3 4 4 8 9 5 5 2 10 1 11 9 12 10 13 11 14 12 15 13 16 14 17 15 18 12 15 14 17 15 19 9 20 12 21 9 20 15 19 14 22 10 13 16 23 17 24 11 14 10 13 17 24 14 17 18 25 19 26 14 27 19 28 20 29 2 10 19 30 21 31 10 32 22 33 16 34 0 0 2 2 21 35 6 6 23 36 24 37 25 38 26 39 27 40 28 41 29 42 26 43 26 39 30 44 27 40 25 38 27 40 31 45 32 46 26 43 25 47 28 41 33 48 24 49 7 7 24 37 22 33 31 50 34 51 35 52 25 38 31 45 36 53 37 54 38 55 39 56 33 48 32 57 38 58 33 59 38 55 37 54 36 53 31 45 35 60 11 14 17 24 40 61 32 46 25 47 36 62 28 41 32 57 33 48 41 63 42 64 43 65 44 66 41 63 45 67 32 57 46 68 47 69 44 70 42 71 41 72 38 55 44 66 39 56 38 58 47 69 44 73 39 56 45 67 17 74 48 75 21 35 49 76 4 4 48 75 50 77 51 78 52 79 53 80 54 81 53 80 52 79 9 20 11 82 12 21 55 83 56 84 57 85 13 16 58 86 57 85 12 21 11 82 13 16 55 83 58 86 13 16 58 86 55 83 57 85 57 85 56 84 59 87 56 88 11 14 60 89 55 90 11 14 56 88 21 31 18 91 49 92 61 93 57 85 59 87 51 94 57 85 61 93 62 95 63 96 34 97 64 98 63 99 65 100 66 101 67 102 65 103 64 104 35 60 34 97 63 99 68 105 66 101 61 93 69 106 67 107 59 87 69 106 61 93 59 87 60 108 69 106 40 109 70 110 71 111 72 112 69 113 73 114 32 57 72 112 46 68 46 68 72 112 74 115 74 116 70 110 42 117 44 73 46 68 74 115 44 70 74 118 42 71 6 6 75 119 23 36 75 119 29 120 23 36 75 121 76 122 29 123 77 124 78 125 4 4 6 6 79 126 75 119 8 127 78 128 79 129 78 128 80 130 79 129 78 128 81 131 80 130 77 124 4 4 82 132 83 133 81 131 84 134 77 135 85 136 81 131 86 137 87 138 88 139 88 139 89 140 76 122 76 122 90 141 91 142 89 140 87 138 92 143 90 144 93 145 34 51 92 146 93 147 90 141 68 105 94 148 66 101 68 149 95 150 96 151 52 79 94 148 96 152 97 153 96 151 95 150 98 154 99 155 100 156 99 155 101 157 100 156 100 158 101 159 97 153 34 51 102 160 62 161 101 162 52 79 96 152 4 4 99 163 98 164 98 154 100 156 103 165 104 166 103 167 105 168 105 168 103 167 97 153 82 169 4 170 104 171 4 170 103 165 104 171 86 137 104 166 105 168 105 168 87 138 86 137 105 168 106 172 87 138 92 143 87 138 106 172 107 173 106 172 95 150 108 174 102 175 109 176 108 177 106 172 107 173 93 145 109 178 34 51 108 174 109 176 93 147 92 146 108 174 93 147 107 179 102 175 108 174 4 4 0 0 48 75 20 29 19 28 5 180 20 181 5 5 7 7 0 0 3 182 1 1 5 5 19 30 2 10 9 20 14 22 10 32 10 32 14 22 22 33 21 31 19 30 18 91 14 22 20 181 7 7 14 22 7 7 22 33 16 34 22 33 37 54 23 183 28 41 24 49 26 39 29 123 30 44 27 184 30 185 34 51 32 46 28 41 26 43 31 50 27 184 34 51 7 7 6 6 24 37 16 34 37 54 39 56 38 58 32 57 47 69 64 104 36 53 35 60 37 54 22 33 24 37 37 54 24 37 33 59 16 34 39 56 17 74 45 67 41 63 43 65 44 73 47 69 46 68 43 65 70 186 45 67 39 56 44 66 45 67 17 74 45 67 70 110 40 109 17 74 70 110 50 187 48 75 49 76 54 81 49 92 18 91 50 187 49 76 54 188 54 81 18 91 53 80 52 189 61 93 94 190 52 189 51 94 61 93 99 155 50 187 54 188 13 16 11 82 55 83 14 17 13 16 18 25 13 16 57 85 18 25 48 75 0 0 21 35 57 191 53 80 18 192 57 191 51 78 53 80 66 101 94 148 67 102 65 100 63 99 66 101 94 190 61 93 67 107 63 96 64 104 34 97 68 193 63 96 62 95 59 87 56 84 60 108 32 46 36 62 64 98 73 194 69 106 71 111 65 103 67 102 69 113 60 89 11 14 40 61 65 103 69 113 72 112 32 57 65 103 72 112 71 111 69 106 60 108 65 100 32 46 64 98 71 111 60 108 40 109 74 115 72 112 73 114 71 111 74 116 73 194 42 117 70 110 43 195 70 110 74 116 71 111 28 41 23 183 29 42 75 121 84 134 76 122 30 185 91 196 34 51 29 123 76 122 30 44 6 6 8 197 79 126 83 133 79 129 80 130 75 198 83 133 84 134 83 133 75 198 79 129 4 4 78 125 8 9 8 8 5 5 1 11 8 199 1 1 3 182 30 44 76 122 91 142 83 133 80 130 81 200 77 135 82 169 85 136 86 137 81 131 85 136 82 169 104 171 85 136 86 137 85 136 104 166 81 131 86 137 88 139 84 134 81 131 88 139 78 128 77 135 81 131 91 196 90 144 34 51 76 122 84 134 88 139 90 141 76 122 89 201 89 140 88 139 87 138 90 141 89 201 92 146 68 105 96 152 94 148 68 149 107 173 95 150 102 175 107 179 68 193 102 175 68 193 62 95 4 4 50 77 99 163 101 157 99 155 54 188 54 81 52 79 101 162 97 153 101 159 96 151 103 167 100 158 97 153 4 170 98 154 103 165 106 172 97 153 95 150 105 168 97 153 106 172 108 177 92 143 106 172 34 51 109 178 102 160</p>
        </triangles>
      </mesh>
    </geometry>
  </library_geometries>
  <library_visual_scenes>
    <visual_scene id="scene">
      <node id="RL_hip_dae">
        <instance_geometry url="#geometry">
          <bind_material>
            <technique_common>
              <instance_material symbol="qmat_d857164d36b11abb" target="#qmat_d857164d36b11abb" />
            </technique_common>
          </bind_material>
        </instance_geometry>
      </node>
    </visual_scene>
  </library_visual_scenes>
  <scene>
    <instance_visual_scene url="#scene" />
  </scene>
</COLLADA>