<?xml version='1.0' encoding='utf-8'?>
<COLLADA xmlns="http://www.collada.org/2005/11/COLLADASchema" version="1.4.1">
  <asset>
    <created>2026-09-14T00:00:00Z</created>
    <modified>2026-09-14T00:00:00Z</modified>
    <unit name="metre" meter="1" />
    <up_axis>Z_UP</up_axis>
  </asset>
  <library_effects>
    <effect id="qmat_76551a3993c45b27_effect">
      <profile_COMMON>
        <technique sid="common">
          <lambert>
            <emission>
              <color sid="emission">0 0 0 1</color>
            </emission>
            <diffuse>
              <color sid="diffuse">0.6500053 0.68 0.6500053 1</color>
            </diffuse>
            <reflectivity>
              <float sid="specular">0.5</float>
            </reflectivity>
          </lambert>
        </technique>
      </profile_COMMON>
    </effect>
    <effect id="qmat_d857164d36b11abb_effect">
      <profile_COMMON>
        <technique sid="common">
          <lambert>
            <emission>
              <color sid="emission">0 0 0 1</color>
            </emission>
            <diffuse>
              <color sid="diffuse">0.85 0.85 0.85 1</color>
            </diffuse>
            <reflectivity>
              <float sid="specular">0.5</float>
            </reflectivity>
          </lambert>
        </technique>
      </profile_COMMON>
    </effect>
  </library_effects>
  <library_materials>
    <material id="qmat_76551a3993c45b27" name="qmat_76551a3993c45b27">
      <instance_effect url="#qmat_76551a3993c45b27_effect" />
    </material>
    <material id="qmat_d857164d36b11abb" name="qmat_d857164d36b11abb">
      <instance_effect url="#qmat_d857164d36b11abb_effect" />
    </material>
  </library_materials>
  <library_geometries>
    <geometry id="geometry" name="RL_thigh_dae">
      <mesh>
        <source id="positions">
          <float_array id="positions_array" count="177">0.0377211124 0.0334030651 0.012707931 -0.0112723298 0.0162323155 0.0644110367 0.0629494637 0.0207007881 -0.0137825049 -0.0344239138 -0.0117572658 0.0689939782 0.0170495771 0.0287315808 0.0459716171 -0.0159639791 0.0288924165 0.0533515923 0.0431328714 0.0300974082 -0.0131283412 0.0698449612 0.0133806812 0.0134461923 0.0387220085 -0.0829471201 -0.0375081301 0.0274031293 0.0235906132 -0.0526297875 0.031191973 0.0326575488 -0.0248272996 0.0420875587 -0.00121145474 -0.0551935211 0.0310712215 0.0305033214 -0.0234015491 0.0254282057 0.0302087609 -0.0290866829 0.0239093117 0.0300282538 -0.0326609649 0.0216346942 0.0323953405 -0.0308212936 0.0278171711 0.0291543361 -0.0315809883 0.015214433 0.0317659192 -0.0371376835 -0.00175908429 0.0370355099 0.010428098 -0.0117416801 0.0341069028 0.0335741453 0.0143714827 0.0361736119 -0.00630408945 -0.0226999279 0.0368308984 0.0137757789 0.00348302443 0.0357448049 -0.0120372791 -0.00400546286 0.0348726995 -0.0175790489 0.0106227156 0.0296896528 -0.0500013307 0.0152657265 0.0361420326 0.00619456731 -0.0484554172 0.0185959246 0.0433217958 -0.0545910224 0.0133914072 0.0466510765 0.0681983382 0.0207035523 4.73562504e-05 -0.065086998 0.0148989037 -0.0552736409 -0.06864696 0.0103084771 -0.0158732943 -0.0461231023 0.0303567369 0.0100499392 -0.0366460234 0.0319706164 0.0124473907 -0.0146050425 0.0337288789 -0.0382972062 -0.034225475 0.0323674977 -0.0166267864 -0.0470756888 0.0236783437 -0.0823241472 -0.0622035861 0.00119546358 -0.0890151858 -0.0234510023 -0.0253808908 -0.0950272083 -0.0606741644 -0.0096000284 -0.0286098849 -0.0650841072 -0.00798753183 -0.0318216868 -0.0649045706 -0.0109713515 -0.0189473275 0.0233441871 0.00896341726 -0.0756081492 0.0101524359 0.0127421794 -0.100377619 -0.0486717001 0.0128681799 -0.326637298 -0.0144347316 -0.0146268066 -0.269674182 0.00962995924 0.0168048963 -0.0808565915 0.0388814099 -0.0129769165 -0.0486741513 0.0149648255 -0.00623176619 -0.0826522484 -0.00881432835 0.0194087476 -0.122938588 0.00309654325 -0.0035392954 -0.108989544 0.00581247127 -0.00408911286 -0.109090097 0.00337079563 -0.00409138901 -0.106680162 -0.0403630249 0.0231074821 -0.0949646309 -0.0276584104 0.0199142098 -0.100458339 -0.0410319641 0.0187073592 -0.0962572619 -0.0449392796 0.0185390152 -0.0837194324 -0.0464319885 0.0217382573 -0.0837189332 -0.0408772342 0.023405863 -0.0832912847 -0.0178849343 0.0189503767 -0.113881946</float_array>
          <technique_common>
            <accessor source="#positions_array" count="59" stride="3">
              <param name="X" type="float" />
              <param name="Y" type="float" />
              <param name="Z" type="float" />
            </accessor>
          </technique_common>
        </source>
        <source id="normals">
          <float_array id="normals_array" count="522">0.73544687 -0.0686881542 0.674091876 0.689408779 -0.550927103 0.470313638 0.725158751 0.00425770599 0.688568532 -0.16791904 0.419533968 0.892073095 0.087789081 0.923837721 0.372581512 -0.108915061 0.743366122 0.659957767 -0.524292171 -0.662087858 -0.535497248 -0.515320837 -0.678993046 -0.522888958 -0.908274055 -0.302467406 0.289053082 -0.175875977 0.976580441 -0.123928525 -0.207232296 0.963976622 -0.166744977 0.495200574 -0.525821924 0.691583455 -0.355991811 -0.934483171 -0.00332881277 -0.484913379 -0.798603952 0.356497914 0.69670409 -0.0263327733 -0.716875136 0.892373323 0.200734928 -0.404197186 0.495511383 0.777708352 -0.386831015 0.876909375 0.253337413 -0.408472925 0.929198265 -0.114307113 -0.351460427 -0.64673686 0.445827663 0.618844986 0.526802003 0.775922835 -0.347020835 0.535358608 0.765130997 -0.357722878 0.265167922 0.941319108 -0.20881632 -0.413322628 -0.910530686 -0.0099162031 -0.260594755 -0.930572927 0.257146567 -0.406055093 -0.768415213 0.494628519 -0.141369224 -0.968976021 0.202731878 -0.109703444 -0.983906388 0.141044006 0.306999952 0.91865623 0.248639807 0.116730385 0.984947741 0.12748307 0.14782007 0.988970876 0.00926593039 -0.269531935 0.936599612 -0.223905638 -0.201899022 0.948346794 -0.24469398 -0.0263167582 0.992623627 -0.11834617 0.191839039 0.97998476 0.0531751402 0.00345804542 -0.987410724 0.158139497 -0.225145608 -0.949821174 0.217138574 0.00651862798 -0.972807646 0.231522784 -0.207060456 -0.698175311 -0.685330033 -0.202845693 -0.785959542 -0.584055781 -0.27064845 -0.942597568 0.195599645 -0.185102075 0.940424323 -0.285200477 0.0167314503 0.999855578 0.00298661971 0.211008653 0.977483094 -0.00146516936 0.20789817 0.978145421 -0.00313635287 0.0157299843 -0.998453021 0.0533308908 0.0511955582 -0.995413184 0.0808183849 -0.506169558 0.686223984 0.522387803 0.769835055 0.557198107 0.311262369 0.014158031 0.996135473 0.0866811052 -5.81696986e-05 0.999991417 0.0041380506 -0.810266912 0.569256544 0.139336064 0.859849572 -0.503930867 0.0819291323 0.967106581 -0.0792353526 -0.241715968 0.941357613 0.29161334 -0.169727579 -0.846069932 -0.488112569 0.214270383 -0.35037908 -0.93116647 -0.100814469 -0.772746146 -0.616407335 0.151345193 0.69719243 0.150831208 0.700837076 -0.4655689 0.87796247 0.111478686 -0.113956742 0.993371308 -0.0150774717 0.0294209365 0.999566734 -0.000852241938 -0.138747185 0.990327835 -0.000238312292 -0.859728575 0.51022011 -0.0232854132 0.219991028 -0.945538044 -0.239920363 -0.520740926 0.852879107 -0.0377647057 -0.849711001 -0.519260049 -0.091433838 -0.573110759 -0.813686132 -0.0972571447 -0.574409306 -0.808196247 -0.129895225 0.357213199 0.933771491 -0.0216676369 0.362153262 0.916992247 0.167243198 0.945809186 0.26672858 0.185204715 0.981751442 0.157197207 0.107019275 0.239791363 -0.694787741 -0.678063452 0.0138601204 0.949500144 0.313460261 -0.393607765 0.910604477 0.125985757 -0.857215345 -0.179655597 0.482603014 0.751768112 0.612004638 -0.245550439 -0.861118138 -0.145471707 0.487148404 0.243922189 0.952184081 -0.183976755 -0.200659245 0.112607256 -0.973167777 -0.255992502 -0.947743833 0.190392911 0.54373461 0.813889682 -0.204783544 0.727462351 -0.360746533 -0.583661258 0.790431261 -0.229135826 -0.568080306 0.562919021 -0.4834705 -0.670356989 -0.915133953 0.120897561 0.384595424 -0.915530264 0.149489835 0.37343958 0.458407402 -0.410082757 -0.788476229 0.916787505 -0.378676653 -0.12690416 0.786455274 -0.490729928 -0.375062972 0.902308822 -0.398032248 -0.165556833 -0.751868665 0.641179383 -0.153565884 -0.201487333 -0.957788527 -0.205046207 -0.558663607 -0.792380154 0.245007515 -0.255409777 -0.949593842 0.181761876 -0.167569324 0.984984875 -0.041536618 0.0601235218 0.995382845 -0.0748209804 -0.0856150091 0.995856404 -0.0306618549 0.0598842315 0.997540653 0.0364218093 -0.281374872 0.918293595 0.278505087 0.447911829 -0.513792574 0.73170495 0.643307805 -0.421843261 0.638907969 0.64320606 -0.477173179 0.598825336 -0.0526227988 -0.29945296 0.952658772 -0.810220063 0.577752829 0.0987171084 -0.142173126 0.203872263 -0.968619049 -0.797227919 -0.371897668 -0.475520551 0.870812356 0.406260252 0.276836604 0.563734949 -0.310542136 0.765353858 0.830506623 -0.471148401 0.297116071 -0.657914162 0.61658752 -0.432398856 -0.884805679 -0.451654315 -0.114574648 0.996285081 0.0616938584 0.0600828938 0.0602909401 0.997241676 0.043290779 0.0157332029 0.997678876 0.0662515536 -0.0810466558 0.988200903 -0.12996307 -0.170119658 -0.98524785 -0.018600421 -0.233635738 -0.972010672 0.0246907938 -0.0110720107 -0.987517834 0.157117516 -0.0310651381 -0.983326674 0.179174915 0.000922297186 -0.993896782 0.110309944 0.610940456 -0.30722484 0.729633272 0.798647404 0.564960182 -0.207321808 -0.617480516 0.399835855 -0.677384019 0.301031232 -0.953613877 -0.000907828799 0.595740795 -0.376610667 0.709406257 0.587557256 -0.490388811 0.643657684 0.497401148 -0.846404731 0.190239772 -0.670717895 0.172357053 -0.721408784 0.638093531 -0.735500574 0.227761999 0.243457675 -0.965518653 -0.0922069848 0.0531839319 0.868481755 0.4928599 0.256943285 0.953585446 -0.157018989 -0.252536595 -0.956849694 -0.14374958 -0.725374997 -0.351172328 -0.592038095 0.411674589 -0.904518604 0.111221351 0.30453527 -0.905852079 -0.294432163 0.443613678 -0.812995672 0.377153784 0.0238867756 0.987925231 -0.153078988 0.2250963 -0.841469228 -0.49118343 -0.438631535 0.837766588 0.325191557 -0.504932404 -0.801953137 -0.319240421 -0.321610272 0.94407934 0.0726708472 0.289366364 -0.634393573 -0.71680671 -0.298143864 0.906327903 0.299466074 0.197701737 -0.979951739 0.0246692467 -0.193470567 -0.871113241 -0.451365501 -0.299615145 0.924317598 -0.236363664 -0.533622205 0.830089033 0.161862612 -0.616266906 -0.787537038 0.000666894368 -0.276564837 -0.951347888 -0.135827601 -0.570424557 -0.821172833 0.0170590561 -0.524146199 -0.850883484 0.0356094502 -0.686497092 -0.726988852 0.014457549 -0.867509961 -0.263654828 0.421796918 -0.435396135 -0.169743001 0.884091377 -0.673512638 0.0290085841 0.738606274 -0.850130141 0.0423056409 0.524870396 -0.862059116 0.0357410498 0.505545855 -0.852637649 0.0842340514 0.515668154 0.866131186 -0.0668409914 -0.495327234 0.851784408 0.0975011066 -0.514739633 0.797194779 0.151481658 -0.584408879 0.743682086 0.00806904864 -0.668484688 0.639269888 -0.198063001 -0.74303776 0.955664456 -0.292788684 0.0313080512 -0.938445151 -0.316197157 0.13906838 0.000517895911 -0.250024796 0.968239307 0.862407446 0.237070486 0.447270662 0.097786963 0.995065093 -0.0168267507 -0.170376465 -0.970577598 0.170150056 0.139288694 0.988895833 -0.0518045761 -0.551186025 -0.831187665 -0.0729454756</float_array>
          <technique_common>
            <accessor source="#normals_array" count="174" stride="3">
              <param name="X" type="float" />
              <param name="Y" type="float" />
              <param name="Z" type="float" />
            </accessor>
          </technique_common>
        </source>
        <vertices id="vertices">
          <input semantic="POSITION" source="#positions" />
        </vertices>
        <triangles material="qmat_76551a3993c45b27" count="95">
          <input semantic="VERTEX" source="#vertices" offset="0" />
          <input semantic="NORMAL" source="#normals" offset="1" />
          <p>0 9 6 10 5 5 6 12 9 13 2 8 6 14 7 15 10 16 12 19 10 19 13 19 14 20 9 21 15 22 12 23 16 24 9 13 15 25 17 26 13 27 18 28 19 29 20 30 21 31 22 32 17 33 21 31 17 33 23 34 22 35 24 36 17 26 25 37 26 38 18 39 12 23 13 27 14 40 15 22 16 41 14 20 13 27 17 26 14 40 14 40 17 26 9 13 25 42 6 43 10 44 22 45 23 46 15 25 23 46 17 26 15 25 5 5 27 47 3 3 1 48 19 48 5 48 21 58 26 58 22 58 31 59 32 60 33 61 31 59 33 61 34 62 27 47 31 59 30 63 31 59 34 62 35 65 40 70 29 71 30 72 29 73 38 73 39 73 40 70 38 74 29 71 9 13 41 76 2 8 2 8 41 76 11 78 9 21 42 77 15 22 24 79 42 77 43 80 44 81 42 81 45 81 44 82 45 82 41 82 46 83 47 84 42 85 9 13 24 36 44 94 9 13 44 94 41 76 34 62 33 61 52 96 43 80 36 66 30 63 56 101 29 52 52 102 35 103 29 52 56 101 55 106 35 106 57 106 52 107 55 107 56 107 30 63 36 66 39 112 29 52 39 113 36 110 24 116 58 114 53 98 53 117 48 95 24 36 52 119 58 120 24 121 42 77 44 123 43 80 5 5 4 4 0 9 4 128 1 1 0 0 10 16 7 15 9 21 6 12 12 23 9 13 2 8 11 78 28 87 13 133 10 16 16 41 16 24 12 23 14 40 16 41 10 16 9 21 20 134 10 135 12 23 6 12 20 134 12 23 25 37 18 39 6 12 19 29 25 42 20 30 19 136 26 137 25 138 6 12 18 39 20 134 15 22 13 133 16 41 22 139 15 22 24 79 24 79 15 22 42 77 20 30 25 42 10 44 1 140 26 137 19 136 26 141 27 47 5 5 5 142 19 142 18 142 26 141 5 5 18 143 31 144 21 144 32 144 27 47 26 141 31 59 26 141 21 145 31 59 33 61 32 60 24 79 32 64 34 146 24 121 22 45 26 147 32 64 32 148 21 31 23 34 22 45 32 64 23 46 35 103 32 64 29 52 34 146 32 64 35 103 30 63 31 59 35 65 30 63 35 65 43 80 40 150 30 63 39 112 11 78 41 76 42 155 9 13 17 26 24 36 33 61 24 79 43 80 41 76 47 157 46 158 42 155 41 76 28 159 35 65 52 96 43 80 52 96 33 61 43 80 24 121 34 146 52 119 57 104 35 103 56 101 52 169 35 169 55 169</p>
        </triangles>
        <triangles material="qmat_d857164d36b11abb" count="62">
          <input semantic="VERTEX" source="#vertices" offset="0" />
          <input semantic="NORMAL" source="#normals" offset="1" />
          <p>0 0 1 1 2 2 3 3 4 4 5 5 1 6 5 7 2 8 7 11 3 11 8 11 11 17 7 15 8 18 1 49 28 50 26 51 29 52 26 53 3 54 27 55 30 56 3 57 26 53 29 52 32 64 36 66 37 67 38 68 37 69 39 69 38 69 3 75 38 74 40 70 9 21 7 15 42 77 42 77 7 15 11 17 11 78 8 86 28 87 42 85 47 84 37 88 48 89 45 90 37 91 37 92 45 92 42 92 49 93 50 93 51 93 24 36 48 95 44 94 45 97 53 98 54 99 26 51 54 99 55 100 57 104 36 105 55 100 55 100 54 99 56 108 26 51 55 100 36 105 54 109 52 102 36 110 56 111 54 111 36 111 54 99 58 114 48 115 52 118 48 95 53 117 48 122 52 102 54 109 3 124 1 124 4 124 28 125 1 126 3 127 3 129 0 129 2 129 6 130 0 130 3 130 3 127 2 131 28 125 6 132 3 132 7 132 2 8 5 7 6 12 54 99 26 51 28 50 3 75 36 149 38 74 29 151 3 57 30 56 37 152 3 153 40 150 37 152 40 150 39 112 3 153 37 152 8 154 41 76 45 156 47 157 28 159 41 76 46 158 42 160 8 160 46 160 42 161 28 161 8 161 45 162 28 163 46 164 45 162 46 164 8 165 37 88 47 84 8 165 47 84 45 162 8 165 44 166 48 89 37 91 54 99 28 50 45 97 26 51 36 105 3 167 57 104 56 101 36 168 52 102 29 52 36 110 58 114 45 170 48 115 54 99 53 98 58 114 52 118 53 117 45 171 58 114 52 172 45 170 43 80 44 173 36 66 36 66 44 173 37 67</p>
        </triangles>
      </mesh>
    </geometry>
  </library_geometries>
  <library_visual_scenes>
    <visual_scene id="scene">
      <node id="RL_thigh_dae">
        <instance_geometry url="#geometry">
          <bind_material>
            <technique_common>
              <instance_material symbol="qmat_76551a3993c45b27" target="#qmat_76551a3993c45b27" />
              <instance_material symbol="qmat_d857164d36b11abb" target="#qmat_d857164d36b11abb" />
            </technique_common>
          </bind_material>
        </instance_geometry>
      </node>
    </visual_scene>
  </library_visual_scenes>
  <scene>
    <instance_visual_scene url="#scene" />
  </scene>
</COLLADA>