<?xml version='1.0' encoding='utf-8'?>
<COLLADA xmlns="http://www.collada.org/2005/11/COLLADASchema" version="1.4.1">
  <asset>
    <created>2026-09-14T00:00:00Z</created>
    <modified>2026-09-14T00:00:00Z</modified>
    <unit name="metre" meter="1" />
    <up_axis>Z_UP</up_axis>
  </asset>
  <library_effects>
    <effect id="qmat_d857164d36b11abb_effect">
      <profile_COMMON>
        <technique sid="common">
          <lambert>
            <emission>
              <color sid="emission">0 0 0 1</color>
            </emission>
            <diffuse>
              <color sid="diffuse">0.85 0.85 0.85 1</color>
            </diffuse>
            <reflectivity>
              <float sid="specular">0.5</float>
            </reflectivity>
          </lambert>
        </technique>
      </profile_COMMON>
    </effect>
  </library_effects>
  <library_materials>
    <material id="qmat_d857164d36b11abb" name="qmat_d857164d36b11abb">
      <instance_effect url="#qmat_d857164d36b11abb_effect" />
    </material>
  </library_materials>
  <library_geometries>
    <geometry id="geometry" name="RR_hip_dae">
      <mesh>
        <source id="positions">
          <float_array id="positions_array" count="330">0.0445398688 0.0140713211 0.0306099504 0.064836517 0.014205033 0.0481485426 0.052701883 0.0141802086 0.010591629 0.0287713353 0.0160434935 0.0545846969 0.029073704 0.0139931021 0.0464258119 0.0107507231 0.00983673614 0.0518911928 0.0124158561 0.0136387479 0.0631209612 0.041464556 0.00587371225 0.0555937402 0.0457014926 0.0343563594 0.0303755235 0.0155323455 0.0345779248 0.0524523817 0.0575507917 0.062043678 -0.010802255 0.0578490272 0.0500151813 -0.0147997234 0.0575406551 0.0502798446 0.0149651011 0.0581099465 0.0365369059 0.037577007 0.0652390197 0.0370420516 0.0360913761 0.0694696978 0.041667603 0.0334581174 0.0687410757 0.0530475192 0.0100962436 0.0899999663 0.0483970568 0.026326146 0.0686940402 0.0213561207 0.0489667282 0.0899999663 0.0183081366 0.0511758067 0.0548289716 0.0238202773 0.0474480949 0.0899936333 0.0509881936 -0.01974448 0.0899999663 -0.0266690049 0.0472498983 0.0654434785 0.0145901991 -0.0490889698 0.065062508 -0.0143531822 0.047376506 0.0434200056 -0.0140459612 0.0330136716 0.0547604822 -0.0141612645 0.00745220762 0.0370837003 -0.0197592638 0.0529556908 0.0672946498 -0.00749019301 0.0528005473 0.0320534855 -0.0148049332 0.0525929108 0.0646938533 -0.0269693676 0.0456023999 0.0259040017 -0.0141569739 0.0476040207 0.0294737294 -0.0210323781 0.0457703918 0.0488449857 -0.0212816279 0.0234914236 -0.00414731028 -0.0213871449 0.0543545932 0.0116174566 -0.0146661904 0.0624354258 0.00997766387 -0.00859194342 0.0533047877 0.0538728833 -0.0213410854 -0.00790118147 0.0655361488 -0.0452896915 0.0286891013 0.0305893142 0.0140835801 -0.0448655263 0.0355481058 0.0148951579 -0.0517066009 0.0322732329 0.0195808578 -0.0539471172 0.0119061563 0.0146546131 -0.0625787303 0.0521179065 0.0345479511 -0.0166830439 0.0500551909 0.0140169701 -0.0223501772 0.0321420506 0.0344586261 -0.0431490168 0.000947345805 0.0343591981 -0.0541887842 0.0107041905 0.00988131482 -0.0533088744 0.0605886392 0.0264711436 -0.0461615473 0.0402282886 0.00195483561 -0.0571077317 0.0686724856 0.0527444184 -0.00957562402 0.0652437806 0.0502292737 0.0108296806 0.0653795004 0.0451708399 -0.0261510983 0.0576937385 0.0626639053 0.0100595113 0.0684252754 0.0622951165 -0.0102119278 0.068529658 0.0443668403 -0.0300134867 0.0899999663 0.0310813505 -0.0434478261 0.0899968371 0.00614271639 -0.0539528728 0.0899902806 -0.0296805315 -0.0453032181 0.0665710792 0.000553621678 -0.0535910241 0.0579538047 0.0382951796 -0.0357801504 0.0433528014 -0.0140405316 -0.0335837342 0.0118699633 -0.021234734 -0.0527019128 0.0410867594 -0.0212192331 -0.0360475071 0.0274657961 -0.0158551298 -0.0550459251 0.0494397022 -0.0230769515 -0.0482793488 0.0651068911 -0.0142329298 -0.0480323806 0.065526478 -0.0241965055 -0.0474366546 0.0899999663 -0.0507362075 -0.0179092418 0.0899943188 -0.0496911518 0.0214171652 0.0655882657 -0.0533220433 0.00314013171 0.0657398701 -0.0454637371 -0.0281940382 0.00948214624 -0.00197060872 0.0611319952 -0.0178099647 0.00797184277 0.0510503277 -0.0205346327 -0.00532934628 0.0502334833 -0.0284667052 -0.0032023103 0.0540842935 -0.0163810682 0.0345628075 0.050623361 -0.0485641435 0.034596622 -0.0210065171 -0.0377365872 0.0343943313 0.0375367887 -0.0532523505 0.0344602987 0.00737775536 -0.0428030528 0.0079271486 0.0314367786 -0.0509255975 0.00800701696 0.0148132928 -0.0480026118 0.00576697988 0.0371362194 -0.0519369766 -0.00338227861 0.0311074033 -0.0369969197 -0.00531620113 0.0388819687 -0.0303817131 -0.0210724119 0.0444270782 -0.0463461392 -0.0212789141 0.0265220441 -0.0599049889 -0.00333314389 -4.55415902e-05 -0.0491608046 -0.00557495793 0.021472821 -0.0535137951 -0.0211354457 -0.00408991054 -0.0194748342 -0.00527879177 -0.0512706339 -0.0188660342 -0.0211754479 -0.0503745526 -0.0196707752 0.00833373051 -0.049513083 -0.0260542557 0.00575290434 -0.0566791035 0.0121657373 -0.0135529349 -0.0631209612 0.00884714443 -0.00337990862 -0.0611914061 0.0245239828 -0.0142906765 -0.0484256372 0.00970824342 -0.00742464839 -0.0533771589 -0.0509019606 0.00782776531 -0.0147499293 -0.029801527 0.0344796851 -0.0441075303 -0.0405966975 0.0080556469 -0.0337927379 -0.0570813417 0.00585334236 -0.020485973 -0.0476454049 -0.00342584634 -0.0375898443 -0.059662547 0.00568303466 0.0096996529 -0.0237398874 -0.00335188117 -0.0554784052 -0.0428895876 -0.00545633538 -0.0322802067 -0.0416392982 -0.0210362151 -0.0344158337 -0.0526667088 -0.00547708664 -0.0108162034 0.0683483556 0.0620278418 0.0106729027 -0.0224975664 0.00576069299 0.0575693622</float_array>
          <technique_common>
            <accessor source="#positions_array" count="110" stride="3">
              <param name="X" type="float" />
              <param name="Y" type="float" />
              <param name="Z" type="float" />
            </accessor>
          </technique_common>
        </source>
        <source id="normals">
          <float_array id="normals_array" count="606">-0.00257405778 0.999361694 -0.0356309526 0.0156868845 0.99952209 -0.0266361535 -0.0150393993 0.999882221 0.00306643592 -0.202798277 0.957133591 -0.206804737 -0.264932752 0.932821333 -0.244243845 -0.691630125 0.709957123 -0.132697791 0.288525701 0.44427225 0.84815985 -0.427270532 0.632521331 0.646031439 0.163462088 0.104990281 0.980947077 0.849218011 0.0693039149 0.523474693 0.247685537 0.0273900218 0.968453228 0.52615428 0.0313067511 0.849812686 -0.999899328 -0.0127552785 -0.00621675188 -0.999719143 -0.021408489 -0.0101670166 -0.99999851 0.00170005613 0.000382312806 -0.0945619792 -0.711936235 -0.695848286 -0.14733398 -0.940980732 -0.304709673 -0.699491918 -0.526562274 -0.483159602 -0.0519465283 0.695120037 0.717014432 -0.0489461608 0.759403348 0.648776352 0.0214975905 0.693731844 0.719912469 0.469504029 0.744425237 0.474759936 0.0204202421 0.876378834 0.481189311 0.0176968686 0.420195192 0.907261133 0.0188151617 0.326287061 0.945083439 -0.252429128 -0.361925572 -0.89737922 -0.700914323 -0.257558972 -0.665118396 -0.182468578 -0.259007931 -0.94848305 1 -6.83518083e-05 -1.64705909e-06 1 -3.20581457e-05 -0.000114433948 1 -3.4269473e-05 -5.59486871e-05 -0.670035899 -0.286589086 0.684776366 -0.0165561642 0.999599397 0.0229555946 -0.00987798721 -0.999820113 -0.0161912218 -0.00904529169 -0.999929011 -0.00775878085 -0.0130940462 -0.999913573 -0.00118448387 0.179633319 -0.154535666 0.971519709 0.0893418118 -0.116621226 0.989149928 -0.253040254 -0.810311615 -0.528550625 -0.173471972 0.0976932198 -0.979981363 -0.344499558 -0.411560684 -0.843764067 -0.162037134 -0.982278347 0.094197832 0.767935872 -0.162903324 0.619465053 0.534506738 -0.0093166735 0.84511286 0.688900232 -0.647347629 0.326125026 0.0172259584 -0.999509335 0.0261602346 -0.0010509768 -0.999989629 0.0044349134 0.378406316 -0.0660623834 0.923279166 -0.199391723 -0.10077884 0.974723816 -0.261212915 -0.883610249 -0.388588101 -0.156406462 0.142017812 -0.977429271 0.964372754 -0.23250325 0.12620385 0.820179045 -0.541885138 -0.18348518 0.040086925 -0.47378546 0.879727423 -0.999623358 0.00125570898 -0.0274148975 -0.999916136 -0.00929574575 -0.00901871268 -0.994515896 0.0424986929 -0.0955617353 -0.10238038 0.994585574 0.0178255159 -0.239050537 0.736918449 0.632302165 -0.377815932 0.171040922 0.90994513 -0.246919706 0.818441093 0.518830299 0.962922275 0.0512509421 -0.264866054 0.909817457 0.000297848019 -0.415008515 0.58936739 0.0434017666 -0.806698442 0.00667587807 0.0274505392 -0.999600887 0.544329703 0.0444460027 -0.837693095 0.170235962 0.0324525721 -0.984868824 0.258123904 0.282182097 -0.923983395 0.0406865887 0.44277361 -0.895709813 0.208662778 0.0100334156 -0.977936208 -0.0312531702 0.999505579 0.0034411524 0.22907111 0.147037998 -0.962240219 0.0731337294 0.855338216 -0.512881994 0.0754593983 0.754927576 -0.651452363 -0.688931048 -0.716632068 -0.108685434 -0.269460261 -0.945347011 0.183603272 -0.641243517 -0.666902542 0.379536211 0.00350751565 0.842372537 0.538884223 0.00246576616 0.999854386 -0.0168844853 -0.0215015858 0.999331653 -0.0295629613 0.0414535366 0.940139949 -0.338257998 -0.073318541 0.819585085 -0.56824702 0.999999762 -0.000368134119 0.000576507067 0.99999994 -0.000146858714 0.000285997347 1 5.57848107e-05 -2.8293809e-05 0.0194212869 0.586181462 -0.809946954 0.00399631727 0.0898730233 -0.995945215 0.0530397035 -0.00334080053 -0.998586833 0.984588146 0.0856760144 0.152465656 -0.0534448624 0.735046446 -0.675907075 -0.373289943 -0.630525351 0.680508971 0.832509995 -0.0162893124 -0.553770483 0.126899734 -0.674688637 -0.727111876 0.552705944 -0.657172441 -0.51248467 -0.187126294 0.305422783 0.933649123 -0.159886122 0.256620705 0.95319581 -0.0923312604 0.136019558 0.986394227 0.0813632607 -0.304742575 -0.948953092 0.316838622 -0.329987109 -0.889225423 0.010896856 -0.389137536 -0.92111522 2.37518016e-05 -0.999254286 0.0386124253 0.00832546502 -0.999614596 0.0264821872 0.0109728677 -0.540532351 -0.841251671 1 0.000213849708 -7.89091282e-05 -0.999322176 -0.0357279256 -0.00887122564 -0.999303043 -0.036005944 -0.00984961726 0.0391687974 -0.924144149 0.380030781 0.00142964604 -0.999414086 0.0341973826 0.0285485014 -0.949194312 -0.313392907 -0.0292557906 -0.849722385 -0.52641809 -0.999927998 -0.0114634139 -0.00354606472 0.102589533 -0.0423692204 0.993821025 -0.797701299 -0.00762773771 0.603004515 -0.335372895 -0.00497382134 0.942072332 -0.0685770139 0.014593916 0.997539103 -0.984796405 -0.158289254 0.0715583563 0.0620025583 -0.361332476 0.930373311 -0.0687481761 -0.155064896 0.985509276 -0.255456835 -0.611631632 0.748764694 -0.418680072 -0.553141117 0.720237374 -0.00294863479 0.99999404 0.00179672358 0.00207155524 0.999997795 0.000253533799 0.000499721733 0.999999762 -0.000524065807 -0.0104475468 0.999930918 0.00538759073 -0.00384826958 0.999983907 0.00416709855 -0.798585057 0.00738071231 0.601836741 -0.989415228 0.0102772191 0.144747794 -0.964225769 -0.0103575969 0.264880002 -0.665370703 0.533033073 0.522644818 -0.78552115 -0.493633628 0.373205572 -0.710703075 -0.00485444581 0.703475296 -0.574178278 -0.0465887487 0.817403734 -0.0246712547 -0.999133468 0.0335204788 -0.0018629285 -0.999997675 -0.00106410612 -0.829894066 -0.55791837 -0.001703716 -0.329317689 -0.938244224 0.106054932 -0.936765909 -0.0122513836 0.349742055 -0.998731375 -0.0122820493 -0.0488341786 -0.880376637 -0.0472163931 0.47191903 -0.00249201572 0.99999547 -0.0016808447 0.000598230225 0.999997556 -0.00213296083 -0.206982553 0.914618433 0.347320169 -0.262969136 -0.65605402 -0.707418084 -0.332875699 -0.0657733977 -0.940674007 -0.116103359 0.962956548 -0.243381724 0.089993313 0.576132715 -0.812386751 -0.381417871 0.474817693 -0.793138444 0.617350936 0.336283356 -0.711190104 0.0591914356 -0.0472453199 -0.99712801 -0.277003497 -0.955367446 0.102674745 -0.340777636 -0.665713787 -0.663849235 -0.228704423 -0.960672438 0.157489046 0.451675892 -0.221109018 -0.864349306 -0.377121031 -0.0219800491 -0.925903141 -0.913184941 0.0367335416 -0.405886501 -0.966491044 -0.0252772626 -0.255452693 0.003128018 0.999992013 -0.00248593348 -0.569353402 0.0333035104 -0.821417987 -0.764249682 -0.0113092465 -0.644821346 -0.834200621 0.464515865 -0.297210842 -0.699592233 -0.444392234 -0.559541166 -0.86837697 0.447003394 0.214731038 -0.257873714 0.964930236 -0.0490993746 -0.299231619 -0.630767047 -0.715956211 -0.804398954 0.0168492533 -0.593850553 -0.775389612 -0.0132325161 -0.631344497 -0.224536717 -0.960208237 -0.166082352 -0.979143381 -0.0140534518 -0.202683941 -0.430257082 -0.894645989 -0.120363824 0.0114666466 0.999918401 0.00563440705 -0.000243286922 0.999999821 -0.000562298461 0.832396269 -0.0412809476 0.552641213 0.0223282203 0.482586503 0.875563681 -0.999868453 0.0148997884 0.00640826393 0.606566012 0.596344113 0.5257864 0.999531329 0.0305691883 -0.00162320107 1 0 0 -0.270899266 -0.789070189 -0.551345408 0.0148476362 -0.479620278 0.877350509 -0.0196815059 -0.832605422 0.553516746 0.999999881 -0.000419867283 0.000154739668 0.241925657 0.125011027 -0.962207973 0.278841078 -0.135958865 -0.950664401 -0.67594856 -0.397671998 0.620443761 0.0555882156 -0.0649410263 -0.996339619 0.999664307 0.0256175958 -0.00388022326 -0.633939505 -0.71661818 0.290824801 -0.0482287519 0.057590507 0.99717468 -0.999981284 0.00495129032 -0.00359648117 -0.280987412 0.498109013 0.820325255 0.0429430753 0.675348341 0.73624754 -0.111737922 0.962666035 0.246553808 -0.291378528 0.0310095884 0.956105113 -0.724094808 0.0176653955 0.689474225 -0.215869069 0.961922646 0.167646527 -0.300511122 0.949115098 0.0941994861 -0.240935773 -0.9371261 0.25247696 -0.00408253726 -0.999990642 -0.00144758786 -0.991238594 -0.00658600964 -0.131919086 -0.341560632 0.893351853 -0.291991085 -0.00503478898 -0.999985635 -0.00182673498 -0.000565822644 -0.99999249 -0.00382867339</float_array>
          <technique_common>
            <accessor source="#normals_array" count="202" stride="3">
              <param name="X" type="float" />
              <param name="Y" type="float" />
              <param name="Z" type="float" />
            </accessor>
          </technique_common>
        </source>
        <vertices id="vertices">
          <input semantic="POSITION" source="#positions" />
        </vertices>
        <triangles material="qmat_d857164d36b11abb" count="216">
          <input semantic="VERTEX" source="#vertices" offset="0" />
          <input semantic="NORMAL" source="#normals" offset="1" />
          <p>0 0 1 1 2 2 3 3 4 4 5 5 3 6 6 7 7 8 3 3 1 1 0 0 8 9 9 10 4 11 10 12 11 13 12 14 13 15 12 16 14 17 13 18 15 19 12 20 16 21 15 19 17 22 17 22 18 23 19 24 20 25 1 26 3 27 21 28 17 29 22 30 15 19 13 18 18 23 14 17 23 31 1 26 14 17 1 26 20 25 1 1 23 32 2 2 24 33 25 34 26 35 7 8 27 36 28 37 29 38 30 39 27 40 24 33 31 41 25 34 25 42 32 43 33 44 29 38 31 41 24 33 32 45 34 46 33 44 31 47 32 43 25 42 6 7 35 48 27 36 29 38 36 49 31 41 24 50 30 39 29 38 26 51 33 44 37 52 18 23 7 8 28 37 19 24 28 37 22 53 24 54 38 55 30 56 39 57 23 32 40 58 41 59 42 60 40 58 43 61 44 62 45 63 46 64 39 65 47 66 41 67 48 68 49 69 39 57 44 70 23 32 10 71 50 72 11 73 51 74 11 75 52 76 53 77 54 78 10 79 50 72 21 80 55 81 16 21 21 80 50 72 56 82 21 28 57 83 21 28 58 84 57 83 55 81 56 85 48 68 48 68 57 86 59 87 48 68 59 87 49 69 43 61 2 88 44 62 55 81 48 68 60 89 52 76 60 90 23 31 26 51 37 52 61 91 37 52 62 92 63 93 64 94 65 95 66 96 49 69 65 97 64 98 49 69 67 99 65 97 59 87 67 99 49 69 26 35 61 100 66 101 21 28 22 30 58 84 59 87 58 102 67 99 22 30 68 103 58 84 66 104 67 105 38 55 69 106 70 107 68 108 67 99 58 102 71 109 38 55 67 105 71 110 4 11 9 10 5 111 6 7 72 112 35 48 6 7 5 5 72 112 9 10 73 113 5 111 31 47 34 114 32 43 72 112 36 115 35 48 36 116 72 117 74 118 72 117 75 119 74 118 76 120 9 121 77 122 78 123 77 122 79 124 80 125 79 126 81 127 82 128 83 129 75 119 74 118 84 130 85 131 85 132 86 133 34 46 83 129 87 134 88 135 88 136 89 137 86 138 9 121 45 139 46 140 47 141 40 58 42 60 90 142 62 92 91 143 92 144 47 145 93 146 47 145 94 147 95 148 93 146 47 145 95 148 96 149 97 150 64 151 62 92 97 150 96 152 46 64 47 66 92 153 79 126 77 154 98 155 77 122 9 121 99 156 77 154 99 157 100 158 99 157 92 153 100 158 101 159 93 146 102 160 103 161 98 162 101 159 90 142 102 160 104 163 105 164 90 142 106 165 105 166 102 160 90 142 93 146 104 163 102 160 90 142 91 143 106 165 105 164 106 165 107 167 107 168 102 160 105 166 101 159 102 160 87 134 107 167 106 165 89 137 9 121 8 169 43 170 8 9 0 171 2 88 20 172 3 6 7 8 4 4 3 3 0 0 8 9 4 11 0 171 16 21 17 22 21 80 53 173 10 12 12 14 23 31 51 74 52 76 14 17 12 16 51 74 14 17 51 74 23 31 12 20 15 19 16 21 108 174 53 77 12 20 51 74 12 16 11 75 16 21 108 174 12 20 54 175 108 174 16 21 53 77 108 174 54 78 17 22 15 19 18 23 19 24 18 23 28 37 18 23 20 172 7 8 43 61 8 9 2 88 22 30 17 29 19 176 14 17 20 25 13 15 13 18 20 172 18 23 26 51 25 42 33 44 7 8 6 7 27 36 33 44 34 46 37 52 35 177 29 38 27 40 29 38 35 177 36 49 28 37 27 36 30 178 22 53 28 37 30 178 22 53 30 178 38 179 38 179 70 107 69 106 22 53 38 179 69 106 68 103 22 30 69 180 9 121 43 170 45 139 42 181 49 69 94 182 47 141 39 57 40 58 45 63 44 62 39 65 48 183 41 59 40 58 42 181 41 67 49 69 46 64 45 63 39 65 52 76 11 75 60 90 11 73 55 81 60 89 11 73 50 72 55 81 10 71 54 184 50 72 54 175 16 21 50 185 55 81 21 80 56 85 48 68 56 85 57 86 2 2 23 32 44 70 23 31 48 183 40 58 23 31 60 90 48 183 62 92 96 152 63 93 63 93 61 91 37 52 66 101 61 100 64 151 64 151 97 150 94 186 94 182 49 69 64 98 61 100 96 149 64 151 61 91 63 93 96 152 59 87 57 86 58 102 66 96 65 95 67 187 24 33 26 35 66 101 24 54 66 104 38 55 68 108 70 107 71 109 71 109 58 102 68 108 70 188 38 55 71 110 6 7 3 3 5 5 109 189 72 117 5 190 73 191 109 189 5 190 31 47 36 116 34 114 109 189 75 119 72 117 36 116 74 118 34 114 9 10 76 192 73 113 34 114 74 118 85 131 76 192 78 193 73 113 78 123 76 120 77 122 73 113 78 193 80 125 78 193 79 126 80 125 82 128 80 194 81 195 83 129 82 128 87 134 103 161 82 128 81 195 82 128 103 161 87 134 109 189 82 128 75 119 82 128 73 191 80 194 82 128 109 189 73 191 74 118 75 119 84 196 84 196 75 119 83 129 84 196 83 129 88 135 84 130 88 136 86 138 84 130 86 138 85 131 88 136 107 167 89 137 88 135 87 134 107 168 97 150 90 142 95 148 90 142 104 163 95 148 62 92 34 46 91 197 90 142 97 150 62 92 47 198 42 198 94 198 37 52 34 46 62 92 97 150 95 148 94 186 99 157 46 64 92 153 99 156 9 121 46 140 104 163 93 146 95 148 98 155 77 154 100 158 103 161 81 195 98 162 81 127 79 126 98 155 93 146 100 199 92 144 101 159 100 199 93 146 101 159 98 162 100 199 103 161 101 159 87 134 34 46 106 200 91 197 34 46 86 133 89 201 34 46 89 201 106 200 107 168 87 134 102 160</p>
        </triangles>
      </mesh>
    </geometry>
  </library_geometries>
  <library_visual_scenes>
    <visual_scene id="scene">
      <node id="RR_hip_dae">
        <instance_geometry url="#geometry">
          <bind_material>
            <technique_common>
              <instance_material symbol="qmat_d857164d36b11abb" target="#qmat_d857164d36b11abb" />
            </technique_common>
          </bind_material>
        </instance_geometry>
      </node>
    </visual_scene>
  </library_visual_scenes>
  <scene>
    <instance_visual_scene url="#scene" />
  </scene>
</COLLADA>