<?xml version='1.0' encoding='utf-8'?>
<COLLADA xmlns="http://www.collada.org/2005/11/COLLADASchema" version="1.4.1">
  <asset>
    <created>2026-09-14T00:00:00Z</created>
    <modified>2026-09-14T00:00:00Z</modified>
    <unit name="metre" meter="1" />
    <up_axis>Z_UP</up_axis>
  </asset>
  <library_effects>
    <effect id="qmat_76551a3993c45b27_effect">
      <profile_COMMON>
        <technique sid="common">
          <lambert>
            <emission>
              <color sid="emission">0 0 0 1</color>
            </emission>
            <diffuse>
              <color sid="diffuse">0.6500053 0.68 0.6500053 1</color>
            </diffuse>
            <reflectivity>
              <float sid="specular">0.5</float>
            </reflectivity>
          </lambert>
        </technique>
      </profile_COMMON>
    </effect>
    <effect id="qmat_d857164d36b11abb_effect">
      <profile_COMMON>
        <technique sid="common">
          <lambert>
            <emission>
              <color sid="emission">0 0 0 1</color>
            </emission>
            <diffuse>
              <color sid="diffuse">0.85 0.85 0.85 1</color>
            </diffuse>
            <reflectivity>
              <float sid="specular">0.5</float>
            </reflectivity>
          </lambert>
        </technique>
      </profile_COMMON>
    </effect>
  </library_effects>
  <library_materials>
    <material id="qmat_76551a3993c45b27" name="qmat_76551a3993c45b27">
      <instance_effect url="#qmat_76551a3993c45b27_effect" />
    </material>
    <material id="qmat_d857164d36b11abb" name="qmat_d857164d36b11abb">
      <instance_effect url="#qmat_d857164d36b11abb_effect" />
    </material>
  </library_materials>
  <library_geometries>
    <geometry id="geometry" name="RR_thigh_dae">
      <mesh>
        <source id="positions">
          <float_array id="positions_array" count="183">0.054358989 0.0894716755 0.0380566604 -0.0546272099 0.0209893752 0.0444317348 0.000472928834 -0.0144633809 0.0689939782 0.0498652682 0.0879947692 -0.033042524 -0.0546220876 0.0822916552 -0.0278005488 0.0410998613 -0.0196104385 0.0579136945 0.0224922188 -0.0345180817 0.0156019181 -0.00318164332 -0.03470001 0.0373895541 0.0481732935 -0.0290893987 0.0152339349 0.0610743165 -0.0225926004 -0.0211386085 0.0698449612 -0.0142069468 -0.000721132383 0.000785981829 -0.0164214615 -0.0913496912 -0.0178763345 -0.0373709686 0.00212512491 -0.00574604701 -0.0360823721 -0.0157203786 0.0316606723 -0.0313353166 -0.0286841765 0.0155427074 -0.0357469358 -0.0075015733 -0.0436854437 -0.018012559 0.0503159426 0.00306306314 -0.0373709686 0.0106112091 -0.0420328677 -0.0284316596 0.0150410933 -0.0437340848 -0.027915597 0.0152365807 -0.0665297732 -0.0138724381 0.0104335947 -0.0267284382 -0.0361697637 0.0183793977 -0.0402432457 -0.0288420245 0.0191393197 -0.0462238267 -0.0291174166 0.00918593816 0.013080663 -0.0296114851 -0.0478795618 -0.0171177201 -0.0312854126 -0.0475395173 -0.00651067961 -0.0354469828 -0.0330522396 -0.0361953303 -0.0312791541 -0.0151627036 -0.0450997166 -0.0310316775 -0.009027794 -0.0677883476 0.00296459533 -0.0323127322 -0.0652393401 0.00764294202 -0.0234050229 -0.066988945 -0.014183972 -0.0372636616 -0.0359447412 0.0306676459 -0.339978993 -0.0653660372 -0.00443373481 -0.119111151 -0.0618534423 0.00833845884 -0.0355703197 -0.062489517 -0.00173044158 0.0100123817 0.0391722359 0.0124140009 -0.0490585677 0.0389312916 0.0124210957 -0.0498050191 0.0391519889 0.0111586582 -0.0495425016 0.0150854867 0.00716241868 -0.0825220272 0.030890394 0.00260520307 -0.0643502995 0.0320815556 -0.00148514239 -0.0653723776 0.0307441354 -0.0142925587 -0.0683231205 0.0190855525 0.00525621604 -0.0749807954 0.00214536046 0.0562866293 -0.0611986741 0.00680660224 0.000333899749 -0.118896984 0.00818133727 0.00557898544 -0.0919040442 0.0107221538 0.00527285226 -0.0854415372 -0.00182096369 0.00727602374 -0.220602334 0.0133745847 0.00531529682 -0.0907481164 -0.0487795062 -0.0170927607 -0.204651043 -0.0421675071 -0.0290655755 -0.0253252536 -0.0339370966 -0.0216181651 -0.109714836 -0.0285697822 -0.0234364346 -0.101760574 -0.0233902428 -0.022398077 -0.113963254 -0.0546756238 -0.0125504639 -0.100408152 -0.055178009 -0.0146544604 -0.101263627 -0.0559848733 -0.0137205077 -0.100239016 0.00655511906 -0.0304184183 -0.352413267 -0.0594650358 -0.00422859099 -0.301073819 -0.0332520567 -0.0192376692 -0.104883656</float_array>
          <technique_common>
            <accessor source="#positions_array" count="61" stride="3">
              <param name="X" type="float" />
              <param name="Y" type="float" />
              <param name="Z" type="float" />
            </accessor>
          </technique_common>
        </source>
        <source id="normals">
          <float_array id="normals_array" count="537">0.332959086 0.796050668 0.505412281 -0.5569098 0.490412891 0.670333266 0.0325465314 0.2696006 0.962422073 0.248337835 0.735940397 -0.629857183 -0.624446869 0.780831277 -0.0192007571 0.716087282 0.014941521 0.697850823 -0.02566294 -0.939270198 0.342217624 -0.099535428 0.89195776 -0.441026121 -0.211150467 0.947302103 -0.240902841 0.157479927 0.944053411 -0.289764017 -0.193933636 0.889362037 -0.414034843 -0.418651283 0.904048443 0.0861827359 -0.244780317 0.93309617 -0.263465613 0.62487793 0.253408849 0.738452077 0.971152723 -0.0249419082 -0.237150371 0.0926050246 -0.994627655 -0.046261292 0.000994767295 -0.998702884 -0.0509069078 -0.149259701 -0.988611758 0.0191914532 -0.52571404 -0.744716108 -0.411123604 0.0640275255 -0.996357858 -0.0563158542 0.238824561 -0.964312255 -0.114300951 -0.541697145 0.804168224 -0.244699061 -0.441016525 0.873929679 -0.204331547 0.338350445 -0.938883066 0.0633839369 0.305284679 -0.946287096 0.106498592 -0.369482517 -0.888120115 0.273359448 0.561277986 -0.8199839 0.112220414 0.68652308 0.292997867 0.665461004 -0.242629334 -0.948682964 0.202809379 -0.271018475 -0.950645328 0.151071131 -0.207238302 -0.94190824 0.264312595 0.427152783 0.822111964 0.376393914 0.527042687 0.832057357 -0.172935322 0.582122505 0.809883773 -0.0722610429 -0.874388099 -0.232714593 -0.425780892 -0.895567238 -0.27923727 -0.34638983 -0.864331663 -0.214551985 -0.454860687 -0.597338617 -0.661261737 -0.453783512 0.580269277 -0.745439053 -0.328036845 -0.617111742 -0.683592737 0.389710337 -0.414790183 -0.844632506 0.338445038 -0.373078376 -0.868623137 0.326046497 0.501662374 0.842929959 -0.194432437 -0.574669778 0.801232576 -0.166676342 -0.0767583624 0.99548471 0.0558423549 0.299088091 -0.906307697 0.298584402 -0.377596855 -0.778488517 -0.501374304 -0.249860913 -0.966848135 -0.0526707843 -0.135838479 0.980358422 -0.142986804 -0.349588484 -0.936772645 0.0156483948 -0.992032468 0.121450961 0.0334847346 -0.975042403 0.109489538 0.193143263 -0.809541464 0.587049305 0.00395901455 -0.87174505 -0.489949346 0.00318706851 -0.941157162 0.170657158 -0.291717917 -0.927715421 0.30896318 -0.20948936 -0.995786607 -0.0857419968 0.0325173065 -0.946952164 -0.102187574 0.304695487 0.73264277 0.466736764 -0.495369971 0.851397574 0.270961821 -0.449112296 0.808766842 0.247101724 -0.533701122 0.860818565 0.177924186 -0.476795971 0.944405556 -0.324491173 -0.0529492982 -0.828437686 -0.0364651009 0.558892906 -0.540041268 -0.214490861 0.813848317 -0.60846597 -0.218265623 0.762973964 0.498654664 0.613863945 -0.611975968 0.701271713 0.0643725544 -0.709981859 0.771038413 0.231571838 -0.593189895 -0.35682708 -0.352139175 0.865258574 -0.492790192 -0.219756305 0.841941237 0.853548169 0.37970075 -0.356767237 0.913882434 0.338211238 -0.224570945 -0.947896481 0.31828931 -0.0135720093 0.617464542 -0.385522038 -0.685645938 0.708350062 -0.491359144 -0.506760716 0.58458066 -0.808210731 -0.0711398795 0.0568327904 0.998245239 0.0166276842 0.39613077 0.894980252 0.20516023 0.540307105 0.794769287 0.276423723 0.232975915 0.971527755 0.0430818312 -0.854159355 -0.440384477 0.276538044 -0.798475862 -0.530223906 0.285129637 -0.270826548 -0.926596582 0.260905683 0.611036777 -0.0755348727 -0.787990212 0.859092474 -0.281595349 -0.427392364 0.820456147 0.272821128 -0.502414525 0.330219358 -0.916659057 -0.225147337 -0.649328351 -0.209955618 0.730952322 -0.979315996 -0.174573287 -0.102295667 0.0901358277 -0.992361486 -0.0842273459 -0.539184034 0.827894568 0.154503047 -0.250876278 0.944323599 0.212870896 0.110092223 -0.99046278 -0.0828445405 0.240515813 -0.967859328 -0.0734879822 -0.14331685 -0.987805724 -0.0608287863 0.476364434 0.876168668 0.0735217035 0.264966369 0.951319635 0.157428518 0.483647585 0.868515193 0.108472742 -0.247543052 0.950100601 0.189819187 -0.620667636 -0.71391058 -0.324196488 0.17431134 0.979068279 0.105075248 0.0312431939 0.942563772 0.332561821 0.692012548 -0.71316421 -0.111872241 -0.151311517 -0.963544965 0.22064881 0.537124872 -0.83032757 -0.148502484 -0.480053991 0.426350534 -0.76666379 -0.218984872 -0.973071933 0.0719489455 0.321721286 -0.945728719 0.0457452908 0.453118414 -0.884720325 0.109332785 -0.078675732 -0.995076299 0.0602762774 -0.870270193 0.485692054 0.0820550546 -0.719178915 0.673809528 0.169594884 0.587291598 -0.745964289 -0.314047426 -0.670789361 0.692682922 -0.265013158 -0.489588827 0.86487186 -0.110903084 0.268045783 0.90547663 -0.329034269 -0.313723683 -0.782747805 0.537478685 -0.780358255 0.524080753 0.341145664 -0.675216675 0.46333608 0.573935628 0.328629732 -0.929426134 0.167837813 0.35292244 -0.90899992 0.221731573 -0.844625115 -0.127132416 -0.520043969 0.836519241 -0.271980166 0.475670397 -0.822526336 0.339073032 -0.456595927 0.447480857 -0.873553097 0.191483244 0.130855143 0.91188091 0.38903752 -0.26961261 0.930346012 0.24852635 -0.341787905 0.933858991 -0.105301633 -0.659242928 -0.557808518 -0.50423044 -0.438225776 0.881873369 -0.173947051 0.817377508 -0.289265215 -0.49821648 -0.68939966 -0.671286881 0.272216886 -0.737058699 -0.667575657 -0.105295777 0.480974406 0.843296468 -0.239822134 0.547690094 0.824175596 -0.144118339 0.620957494 0.759164572 -0.195143566 -0.204803407 -0.941276431 0.268429309 0.545074642 0.806654632 -0.228477389 -0.192673236 -0.94428432 0.266841024 0.207530707 0.941113055 -0.266902953 0.0381863266 -0.570622921 0.820323884 -0.661065459 -0.502694428 0.557037473 -0.43895629 -0.705295563 0.556664705 0.478187352 0.868179142 0.132671833 0.31657815 0.946765602 -0.0584226139 -0.90263468 -0.299817979 -0.308803827 0.468661189 0.834240258 0.290516675 -0.958834291 0.28206113 0.0328385234 -0.948732972 0.315973788 0.0081453789 0.948423624 -0.316927075 -0.00706028426 0.936410069 -0.315624833 0.153353125 0.675200999 -0.722920299 0.146593973 0.966835141 -0.228963435 0.113161556 0.502246976 -0.859962583 0.0906217024 -0.011762389 -0.99685353 -0.0783881918 -0.886093199 -0.193928465 0.420987576 0.912957013 -0.405338734 -0.0470111966 0.0763160884 0.990197301 -0.116983749 -0.613966703 -0.0994832739 0.783037663 0.0928692594 0.976500928 -0.194476888 -0.68880105 -0.715081215 0.11921367 -0.762145877 -0.621598959 0.18096517 0.971755564 -0.226546243 0.0660899207 0.568637669 -0.82076782 -0.0546933673 0.18945156 0.935383797 0.298605442 0.16429083 0.958777785 0.231848359 0.393133909 -0.52853936 -0.752390802 0.314202994 -0.909144819 -0.273371845 0.293520391 -0.935350776 -0.197394893 0.524082422 0.800565124 0.290573806 -0.382531226 -0.919963956 -0.0856514126 -0.349095464 -0.923927307 0.156494871 -0.376439393 -0.922266722 -0.0878491402 -0.427629679 -0.903607726 0.0250174627 0.375635713 -0.245766357 -0.893586397 0.0867610499 0.982025564 0.167625472 -0.417292237 -0.905706108 -0.0745899454 0.174138427 0.949638188 -0.260505587</float_array>
          <technique_common>
            <accessor source="#normals_array" count="179" stride="3">
              <param name="X" type="float" />
              <param name="Y" type="float" />
              <param name="Z" type="float" />
            </accessor>
          </technique_common>
        </source>
        <vertices id="vertices">
          <input semantic="POSITION" source="#positions" />
        </vertices>
        <triangles material="qmat_76551a3993c45b27" count="85">
          <input semantic="VERTEX" source="#vertices" offset="0" />
          <input semantic="NORMAL" source="#normals" offset="1" />
          <p>5 6 2 6 6 6 5 7 6 8 7 9 7 13 6 13 9 13 12 18 13 19 14 20 7 9 14 21 15 22 9 23 15 24 14 20 7 25 9 14 8 26 18 28 19 29 12 30 19 31 18 32 20 33 22 37 13 19 12 18 18 38 22 38 23 38 22 39 19 40 23 41 23 42 24 43 25 44 26 45 27 46 25 47 23 42 25 44 27 48 28 49 27 46 26 45 30 51 29 50 31 53 34 55 33 54 35 56 20 33 18 32 23 42 36 57 37 57 38 57 39 58 40 59 41 60 39 74 47 75 46 76 47 78 42 79 49 80 42 81 39 82 49 83 50 86 42 61 9 14 14 20 50 87 9 23 40 65 43 64 41 88 26 45 25 47 50 89 24 90 50 89 14 20 24 43 42 91 48 92 51 93 28 49 50 94 29 50 50 89 31 53 28 49 31 53 50 89 51 96 25 101 52 97 45 107 50 108 48 109 32 111 59 112 50 89 8 11 5 114 10 115 16 116 5 7 7 9 2 117 7 25 8 26 5 5 8 26 9 14 6 12 8 11 10 115 17 120 9 23 10 121 13 122 21 122 24 122 14 20 13 19 24 90 21 123 12 123 24 123 14 125 7 125 17 125 9 23 17 120 15 24 12 126 14 127 42 119 14 127 10 118 42 119 14 127 17 128 10 118 16 116 7 9 15 22 17 129 16 129 15 129 6 12 10 115 9 130 16 134 22 135 18 136 16 137 18 28 12 30 20 33 16 138 19 31 19 40 16 139 23 41 12 140 23 140 16 140 21 144 22 135 16 134 22 145 12 145 19 145 23 143 26 45 24 90 22 135 21 144 13 147 1 148 35 56 20 149 34 151 30 152 31 153 23 143 31 53 28 49 26 45 23 143 28 49 20 33 23 42 51 96 23 42 27 48 51 96 27 46 28 49 51 93 48 105 46 76 11 103 48 105 39 74 46 76 46 158 47 78 49 80 46 158 49 80 45 160 42 161 47 162 45 107 50 86 41 60 42 61 41 88 43 64 42 159 24 90 26 45 50 89 42 161 45 107 48 109 25 47 51 93 50 89 25 44 24 43 48 92 20 33 51 96 33 98 53 167 11 168 25 169 60 170 53 170 54 170 25 171 60 172 54 173 52 97 25 101 54 166</p>
        </triangles>
        <triangles material="qmat_d857164d36b11abb" count="71">
          <input semantic="VERTEX" source="#vertices" offset="0" />
          <input semantic="NORMAL" source="#normals" offset="1" />
          <p>0 0 1 1 2 2 0 0 3 3 4 4 0 0 2 2 5 5 2 10 8 11 6 12 0 0 5 5 9 14 10 15 5 16 11 17 0 0 4 4 1 1 16 27 17 27 1 27 21 34 1 35 12 36 4 4 29 50 30 51 31 52 20 52 32 52 33 54 34 55 4 4 0 0 42 61 40 59 0 62 43 62 3 62 3 63 43 64 40 65 44 66 10 67 11 68 3 3 10 67 44 66 44 69 11 70 43 64 44 66 43 71 39 72 45 73 11 73 46 73 44 66 39 72 48 77 39 74 42 84 11 85 35 56 33 54 16 95 51 96 52 97 33 98 25 44 48 92 53 99 53 100 48 100 54 100 33 102 25 102 11 102 11 103 52 104 48 105 55 106 56 106 57 106 48 109 50 108 58 110 48 113 59 113 32 113 4 4 3 3 44 66 10 118 3 63 42 119 42 61 0 0 9 14 12 124 42 91 24 43 35 131 16 131 20 131 7 25 2 117 1 132 7 25 1 132 17 133 12 141 1 142 23 143 16 146 1 35 21 34 5 16 33 54 11 17 4 4 34 55 29 50 1 1 4 4 30 51 34 55 35 56 1 148 1 150 20 150 31 150 34 151 1 154 30 152 23 143 1 142 31 53 5 16 16 95 33 155 43 156 0 156 39 156 42 119 3 63 40 65 39 58 0 0 40 59 45 157 47 75 11 85 47 75 39 74 11 85 11 70 42 159 43 64 39 58 41 60 50 86 49 83 39 82 50 108 45 107 49 83 50 108 33 54 4 4 48 77 4 4 44 66 48 77 29 50 32 111 50 89 34 55 32 111 29 50 32 163 34 151 31 153 33 164 32 164 20 164 48 165 52 97 54 166 33 174 60 172 25 171 11 103 60 172 52 104 60 175 11 168 53 167 60 172 33 174 52 104 33 54 48 77 32 176 58 110 50 108 59 177 59 178 48 178 58 178</p>
        </triangles>
      </mesh>
    </geometry>
  </library_geometries>
  <library_visual_scenes>
    <visual_scene id="scene">
      <node id="RR_thigh_dae">
        <instance_geometry url="#geometry">
          <bind_material>
            <technique_common>
              <instance_material symbol="qmat_76551a3993c45b27" target="#qmat_76551a3993c45b27" />
              <instance_material symbol="qmat_d857164d36b11abb" target="#qmat_d857164d36b11abb" />
            </technique_common>
          </bind_material>
        </instance_geometry>
      </node>
    </visual_scene>
  </library_visual_scenes>
  <scene>
    <instance_visual_scene url="#scene" />
  </scene>
</COLLADA>