<?xml version='1.0' encoding='utf-8'?>
<COLLADA xmlns="http://www.collada.org/2005/11/COLLADASchema" version="1.4.1">
  <asset>
    <created>2026-09-14T00:00:00Z</created>
    <modified>2026-09-14T00:00:00Z</modified>
    <unit name="metre" meter="1" />
    <up_axis>Z_UP</up_axis>
  </asset>
  <library_effects>
    <effect id="qmat_c90f2351a1b48e4d_effect">
      <profile_COMMON>
        <technique sid="common">
          <lambert>
            <emission>
              <color>0 0 0 1</color>
            </emission>
            <diffuse>
              <color>0.89804314 0.91765098 0.92549412 1.0</color>
            </diffuse>
          </lambert>
        </technique>
      </profile_COMMON>
    </effect>
  </library_effects>
  <library_materials>
    <material id="qmat_c90f2351a1b48e4d" name="qmat_c90f2351a1b48e4d">
      <instance_effect url="#qmat_c90f2351a1b48e4d_effect" />
    </material>
  </library_materials>
  <library_geometries>
    <geometry id="geometry" name="base_link_stl">
      <mesh>
        <source id="positions">
          <float_array id="positions_array" count="141">0.0228352249 0.0207988359 0.0582537018 0.0304692909 -0.000544916315 0.0575889684 0.0289625861 0.0112705119 0.00958495494 0.0168759674 -0.0124861719 0.0574073084 0.0154728675 0.0140513629 0.0571415834 -0.00144500448 0.0085083358 0.0550968833 0.014135763 6.56837947e-05 0.0545946732 -0.00710402709 0.0177838188 0.0572519265 -0.0157765485 0.0133619802 0.058389876 -0.00557114184 -0.000870633463 0.0558139719 -0.0121479789 0.0281433426 0.061260134 0.00223298604 0.0305000003 0.0581714287 -0.00934605114 0.0291730259 0.00972499885 -0.0227634609 0.0210240614 0.0106278621 -0.0298939701 0.00706431223 0.00180732645 -0.0302350242 0.00866580848 0.0579950139 -0.0182900336 -0.0100846114 0.0573662184 -0.000748261285 -0.00900153816 0.0552108474 -0.00482637295 -0.019816339 0.0579222068 0.0267610457 0.0267808381 0.00214498839 0.0116388993 0.0284341667 0.00967824832 0.0292622223 0.00371093885 0.00305454759 0.0136996182 0.025498243 0.00323660392 -0.0154389525 0.0188328587 0.0094762193 0.0199216474 0.0161197558 0.00972632878 -0.014436461 -0.0195516329 0.00914860424 0.0174230691 0.0179000106 0.00449016457 -0.00683860062 0.011161699 0.00454927376 -0.00427948358 -0.005206862 0.00487677241 0.0193302631 -0.0248126946 0.0579334013 0.0104089016 -0.0286642257 0.0097186435 0.0247254204 -0.0184733439 0.0102191204 0.0267364662 -0.0267366134 0.0034616706 0.0180053785 -0.0189091619 0.00948236603 0.0188350976 -0.0189677421 0.00363884028 0.0109160878 -0.0272521302 0.00276975776 0.0162145887 -0.0151209189 0.00476404326 0.0294280201 -0.00693967659 0.00325840176 -0.00765349995 -0.0304289833 0.0583911166 -0.00933705829 -0.029496273 0.00970737077 -0.0134443743 0.0256818458 0.00310177426 -0.0267573465 0.0267825015 0.00256401859 -0.0105187427 -0.0275592059 0.00295862369 -0.0267604105 -0.0267813224 0.00214518933 -0.0255368743 -0.0168117601 0.00301289279 -0.0240625702 -0.0192697197 0.0102716712 -0.027215492 -0.0152863171 0.0579242073</float_array>
          <technique_common>
            <accessor source="#positions_array" count="47" stride="3">
              <param name="X" type="float" />
              <param name="Y" type="float" />
              <param name="Z" type="float" />
            </accessor>
          </technique_common>
        </source>
        <source id="normals">
          <float_array id="normals_array" count="276">0.736063957 0.675997674 0.0351709723 0.998141706 -0.0434457064 0.0427267179 0.950397015 0.30390358 0.0662432313 -0.0666686967 -0.0584654249 0.996060789 -0.0707506016 0.0767315179 0.994538426 0.00108703563 -0.0164483599 0.999864101 -0.112447575 -0.0849742442 0.990017653 0.0967504233 -0.110070147 0.989203691 -0.405323625 -0.00725158164 0.914144516 0.15043962 -0.166315317 0.974529207 0.101419084 -0.131470397 0.986118495 0.156907707 -0.0206932072 0.987396479 0.201499343 -0.23600024 0.950632393 -0.469165295 0.882564306 0.0310517028 0.110978983 0.993631899 0.0194770359 -0.322480619 0.945467651 -0.045794826 0.0644951239 -0.131880283 0.989165306 -0.704547703 0.673346043 0.224092916 -0.991995096 0.0978852659 0.0797760859 -0.952974141 0.302033395 0.0248209983 0.0123973712 -0.0689342767 0.997544169 0.0637787208 0.0299472809 0.997514606 0.0306059234 0.137399629 0.990042746 0.0135490056 0.109299779 0.993916512 0.612075031 0.410962492 0.675628603 0.436798096 0.886606276 0.152107626 -0.098506771 0.168409407 -0.980782688 -0.0351857096 -0.0193825532 -0.999192834 -0.0709456503 0.369038135 -0.926702559 0.0051896479 0.0118227908 -0.999916613 0.00203914102 0.00597502524 -0.999980092 0.00754124438 -0.015197725 -0.999856055 0.0242748689 0.0608181134 0.997853637 0.24642022 0.0765066072 0.966138601 0.161952674 -0.012418313 0.986720383 -0.726081252 -0.632640839 0.269391268 -0.869802654 -0.492474228 0.0302063879 -0.812156498 -0.567487776 0.135496765 -0.889830947 -0.4492383 -0.0799114406 0.617770672 -0.785462797 0.0375181064 0.272623211 -0.96107322 0.0448874086 0.828924 -0.481049329 0.285440892 0.567441285 -0.577265441 0.587175429 -0.100881629 0.0345823728 -0.994297206 0.0708734542 -0.00165638875 -0.997483969 0.0286844857 0.00528031541 -0.999574542 -0.388532162 0.18711482 0.902236521 -0.160522446 0.0616288036 -0.985106289 -0.644056022 0.236307845 -0.727564692 -0.768943787 0.41932562 0.482588351 -0.504163504 0.235331699 0.830926061 -0.786406517 0.614023507 0.0673784465 0.00953394547 -0.0365165658 -0.999287546 -0.0139309261 -0.0193515271 -0.999715686 0.982619405 -0.165401995 0.0842691734 -0.228551582 -0.973208249 0.025096966 -0.2590186 -0.965321481 0.0326153673 0.0442170911 -0.016267959 -0.998889506 0.323746204 0.246799543 0.913388431 -0.00135228224 0.0248488653 -0.999690294 0.0056892084 0.00499639381 -0.99997133 0.0429395325 0.0314904079 -0.99858129 0.0308564249 0.00532765919 -0.999509633 0.097971499 -0.0173797272 -0.995037436 -0.494261593 0.572847962 0.653873563 -0.361371309 0.924081326 0.124436475 0.890124023 0.455017984 -0.0252561308 0.672115684 0.104348935 0.733056486 0.725175023 -0.0412911475 0.687325418 -0.668432832 -0.557791889 0.492001802 -0.032536678 -0.962177455 -0.270473421 0.0302041378 0.0232646056 -0.999272943 -0.989909708 -0.115261585 0.0824230835 -0.788952649 -0.583259583 0.193292439 -0.872030079 -0.489383936 0.00818299968 0.00294609391 0.00916602742 -0.999953628 0.00657570641 0.0477303527 0.998838603 -0.0067353854 0.041301202 0.99912405 0.0424323343 0.0343029797 0.998510301 0.991650522 0.104535036 -0.0755092278 -0.509009123 -0.672211945 0.537625194 -0.324497074 -0.625674486 0.709389269 -0.124250002 0.887293994 -0.444152355 -0.00381367956 0.160959452 0.986953676 0.0457654148 0.0588158257 0.997219265 0.0405036248 -0.979739428 -0.19613798 -0.688421667 0.618276417 0.379222691 0.458698928 0.0241421554 0.888263762 0.639829457 0.250748426 0.726459563 0.834537268 -0.485480219 -0.260492921 0.0536836088 0.0800416991 -0.995344877 0.00287205237 -0.0546308011 -0.998502493</float_array>
          <technique_common>
            <accessor source="#normals_array" count="92" stride="3">
              <param name="X" type="float" />
              <param name="Y" type="float" />
              <param name="Z" type="float" />
            </accessor>
          </technique_common>
        </source>
        <vertices id="vertices">
          <input semantic="POSITION" source="#positions" />
        </vertices>
        <triangles material="qmat_c90f2351a1b48e4d" count="98">
          <input semantic="VERTEX" source="#vertices" offset="0" />
          <input semantic="NORMAL" source="#normals" offset="1" />
          <p>0 0 1 1 2 2 0 3 3 4 1 5 4 6 3 4 0 3 4 6 5 7 6 8 7 9 8 10 9 11 4 6 7 9 5 7 10 12 8 10 7 9 10 13 11 14 12 15 11 16 10 12 7 9 13 17 14 18 15 19 8 10 15 20 16 21 5 7 9 11 17 22 17 22 16 21 18 23 19 24 20 25 2 2 19 26 21 27 22 28 23 29 24 30 25 31 26 32 27 33 28 34 24 35 20 36 26 37 20 36 22 38 26 37 11 14 20 25 12 15 29 39 30 40 31 41 31 41 30 40 32 42 24 30 33 43 25 31 22 28 34 44 35 45 26 32 28 34 36 46 2 47 37 48 33 43 33 49 35 50 30 51 36 46 35 50 33 49 25 31 33 43 30 52 21 27 37 53 34 44 36 46 28 34 35 50 37 54 1 1 31 41 38 55 39 56 30 40 37 57 32 57 35 57 40 58 27 33 26 32 12 59 20 60 23 29 41 61 40 62 14 63 41 64 14 18 13 17 13 17 12 15 40 65 39 66 42 67 25 68 39 56 43 69 42 70 22 28 35 45 44 71 27 33 25 68 28 34 44 72 45 73 46 74 28 34 42 67 35 50 44 71 35 45 42 75 45 73 44 72 43 69 11 14 0 0 20 25 29 39 38 55 30 40 3 4 17 22 18 23 3 4 18 23 38 76 0 3 11 16 4 6 29 77 3 4 38 76 6 8 17 22 3 4 11 16 7 9 4 6 3 4 4 6 6 8 6 8 5 7 17 22 1 5 3 4 29 77 2 2 1 1 37 54 5 7 7 9 9 11 8 10 10 12 15 20 10 13 13 17 15 19 9 11 8 10 16 21 16 21 15 20 46 78 38 55 46 74 45 73 16 21 46 78 38 76 18 23 16 21 38 76 9 11 16 21 17 22 21 79 19 24 2 2 24 35 21 80 2 81 24 35 26 37 21 80 20 82 19 26 22 28 23 29 20 60 24 30 20 25 0 0 2 2 22 83 40 58 26 32 21 84 26 32 36 46 24 30 2 47 33 43 32 42 30 40 35 85 34 86 37 86 35 86 22 28 21 27 34 44 37 54 31 41 32 42 31 41 1 1 29 39 33 49 21 84 36 46 33 87 37 87 21 87 40 58 23 88 27 33 40 89 12 89 23 89 27 33 23 88 25 68 10 13 12 15 13 17 41 64 13 17 40 65 39 56 38 55 45 73 14 63 40 62 44 71 39 56 45 73 43 69 15 19 14 18 46 74 46 74 14 18 44 72 40 62 22 28 44 71 28 34 25 68 42 67 44 71 42 75 43 90 25 31 30 52 39 91</p>
        </triangles>
      </mesh>
    </geometry>
  </library_geometries>
  <library_visual_scenes>
    <visual_scene id="scene">
      <node id="base_link_stl">
        <instance_geometry url="#geometry">
          <bind_material>
            <technique_common>
              <instance_material symbol="qmat_c90f2351a1b48e4d" target="#qmat_c90f2351a1b48e4d" />
            </technique_common>
          </bind_material>
        </instance_geometry>
      </node>
    </visual_scene>
  </library_visual_scenes>
  <scene>
    <instance_visual_scene url="#scene" />
  </scene>
</COLLADA>