<?xml version='1.0' encoding='utf-8'?>
<COLLADA xmlns="http://www.collada.org/2005/11/COLLADASchema" version="1.4.1">
  <asset>
    <created>2026-09-14T00:00:00Z</created>
    <modified>2026-09-14T00:00:00Z</modified>
    <unit name="metre" meter="1" />
    <up_axis>Z_UP</up_axis>
  </asset>
  <library_effects>
    <effect id="qmat_6286805a07da3ff8_effect">
      <profile_COMMON>
        <technique sid="common">
          <lambert>
            <emission>
              <color sid="emission">0 0 0 1</color>
            </emission>
            <diffuse>
              <color sid="diffuse">0.07323546 0.07323546 0.07323546 1</color>
            </diffuse>
            <reflectivity>
              <float sid="specular">0.5</float>
            </reflectivity>
          </lambert>
        </technique>
      </profile_COMMON>
    </effect>
    <effect id="qmat_c9293097d13fc8af_effect">
      <profile_COMMON>
        <technique sid="common">
          <lambert>
            <emission>
              <color sid="emission">0 0 0 1</color>
            </emission>
            <diffuse>
              <color sid="diffuse">0.74876 0.74876 0.74876 1</color>
            </diffuse>
            <reflectivity>
              <float sid="specular">0.5</float>
            </reflectivity>
          </lambert>
        </technique>
      </profile_COMMON>
    </effect>
  </library_effects>
  <library_materials>
    <material id="qmat_6286805a07da3ff8" name="qmat_6286805a07da3ff8">
      <instance_effect url="#qmat_6286805a07da3ff8_effect" />
    </material>
    <material id="qmat_c9293097d13fc8af" name="qmat_c9293097d13fc8af">
      <instance_effect url="#qmat_c9293097d13fc8af_effect" />
    </material>
  </library_materials>
  <library_geometries>
    <geometry id="geometry" name="FL_calf_dae">
      <mesh>
        <source id="positions">
          <float_array id="positions_array" count="390">-0.00765517214 -0.0068277563 0.0530930124 0.017216742 -0.00645717327 0.0489925221 -0.0152604189 -0.00605186587 0.0324073769 0.0157849025 -0.00650550844 0.00210684608 0.00611509057 -0.00479159178 0.0111760618 0.0158641879 0.014404254 0.0508740023 -0.00154985709 0.00670753373 0.0544709489 0.0172134545 0.00663729478 0.0489149801 -0.00604543788 -0.0148601057 0.0510366 0.0152060669 -0.0147888325 0.0520316772 0.0150394281 -0.015206432 0.00752916466 -0.0154059725 0.0063860938 0.0322669894 -0.0061846571 0.0150549887 0.0519389026 0.0147194974 0.0151754757 -0.00395320868 -0.0191342216 0.0150158228 0.0172158442 0.00200200104 0.00613955921 0.0160377882 -0.0251989905 0.014129932 -0.00170877739 -0.0251420103 -0.0100013632 -0.00458533783 -0.0230914336 -0.0147894425 0.00856808759 0.0151072042 0.00650224276 -0.00927216653 -0.0117142694 0.0150983986 -0.0191519298 -0.0179808252 -0.0146390181 -0.0200180486 0.0157543924 -0.0150136659 -0.0155626293 -0.00123029819 -0.0154226068 -0.0356082506 0.0173619464 -0.00455292407 -0.0212862622 0.0252107587 0.0141437771 -0.0598190017 0.010198825 0.0151956398 -0.0548463948 0.00665530935 0.021666456 -0.051735159 0.0200384688 -0.0148093244 -0.0373294726 0.0252359398 -0.0145816626 -0.0606733784 -0.0061452901 0.0210748184 -0.0460703596 0.000340595463 0.00121293729 -0.0666503608 -0.002399283 -0.0212727878 -0.0560394339 0.00894388836 -0.0213518441 -0.0550478995 0.0202864725 -0.0151397921 -0.0744912624 0.0255943034 -0.0198194832 -0.0890611112 0.0255508646 0.0190459508 -0.0893506408 0.0188494604 -0.0169708356 -0.119077362 0.0378850512 0.017173877 -0.118777379 0.0117191374 0.0193014182 -0.0952336639 0.0371228196 -0.0120865107 -0.106157005 0.0421441123 -0.015270181 -0.13484019 0.0308646522 0.0113108186 -0.186486319 0.0453647114 0.0135828415 -0.159655884 0.0202167649 0.0104282154 -0.129665256 0.0283818133 -0.0121614533 -0.172268242 0.0324165784 -0.0108326487 -0.207165644 0.0507415012 -0.010694474 -0.220651239 0.0503200479 0.0102855032 -0.201065198 0.0479360931 0.0152042797 -0.267145544 0.0319138654 0.0117222536 -0.236991495 0.0501661673 0.0112380153 -0.276837319 0.0251204502 0.0142986178 -0.264308751 0.0313493758 -0.0106558092 -0.234419823 0.0242019519 -0.0148746315 -0.266232193 0.0306987632 0.0196145419 -0.290020674 0.0134723028 0.0167575963 -0.284994602 0.0222762395 -0.0191514194 -0.2888273 0.0495833755 -0.0138721466 -0.261113822 0.036902193 -0.0209366642 -0.295646489 0.00674850447 -0.000231850747 -0.292474866 0.0426722988 -0.0244228058 -0.328282118 0.0393471085 0.024347933 -0.344842285 0.0381090678 0.0216188487 -0.299513221 0.034753684 0.0270356797 -0.330960542 0.0366783664 -0.0249762759 -0.322085708 -0.0234955139 0.0240812693 -0.327079773 0.0190825779 0.0198048931 -0.292300791 -0.0131407548 0.0275899693 -0.327019155 -0.0246305205 0.000104712017 -0.325040936 -0.011396342 -0.027189916 -0.324983895 0.0105647082 -0.0165092852 -0.289852828 0.0267657507 0.0236556474 -0.369400591 0.0280582085 -0.0211330019 -0.370000005 0.0181957316 0.0269562025 -0.365208834 0.0404777266 -0.000323323067 -0.347361565 0.0252822209 0.0270882063 -0.356483907 0.0148921292 0.0275073685 -0.351863027 0.0194303486 -0.0272780657 -0.35561794 0.0269378815 -0.0272277594 -0.355018705 0.0345926248 -0.0240451358 -0.355570316 0.0214269944 -0.0189971905 -0.366460174 0.0229564309 0.0189309344 -0.362074286 0.0226889942 -0.0182861798 -0.361780047 0.00926199742 -0.0274099708 -0.367291182 -0.00264341687 -0.0213237572 -0.370000005 -0.019108003 0.0200518742 -0.332714409 -0.0163535103 -0.0193561204 -0.328920513 -0.0185574628 -0.019860385 -0.332962096 -0.0169296805 0.016878305 -0.328555822 -8.18506014e-05 0.0198043939 -0.342890888 -0.0187420789 0.0275663994 -0.352354676 -0.00390286953 0.0214997195 -0.370000005 -0.0197302159 0.0214592889 -0.352988422 -0.00211191596 0.0274259634 -0.370000005 -0.00681736413 -0.027315855 -0.333641678 -0.0188246649 -0.0273703896 -0.359006971 -0.0227526389 -0.0257776752 -0.327849954 -0.0193822794 -0.0212874711 -0.355793327 -0.00666692667 0.025880402 -0.382238597 0.00137874694 -0.0075021442 -0.384909272 -0.0148070315 0.00776094152 -0.381251663 0.0187389515 0.0261896625 -0.376075834 0.0204721317 0.0275899693 -0.365393698 0.0275633316 0.00762987183 -0.371811926 0.0239732862 -0.00157207332 -0.365793288 0.00228638202 0.0275273807 -0.369977325 0.0113392659 0.00824775174 -0.382854074 -0.0138927186 0.0275150612 -0.365870565 0.0284051076 -0.0149424644 -0.370260656 0.0202577598 -0.00508819567 -0.378499061 0.0112785436 -0.0261599142 -0.380954534 0.0152022997 -0.0274099708 -0.364970922 -0.0165926423 -0.0272904336 -0.339564055 -0.0166651476 -0.0274099708 -0.361959994 -0.0180002358 0.0275899693 -0.34059754 -0.0243853703 0.01211181 -0.325864226 -0.0313960612 0.0237742979 -0.33932367 -0.0348245092 0.00616890891 -0.351611465 -0.030833913 -0.00252204528 -0.33398661 -0.0280480869 0.0263239611 -0.366304815 -0.0221560914 -0.00804715045 -0.327693105 -0.0239314679 -0.0250221975 -0.328484118 -0.0311989076 -0.0266463477 -0.357269973 -0.0294330344 0.0076989783 -0.36754629 -0.0151255038 -0.00758127868 -0.381179482 -0.0163617674 -0.0261971764 -0.377752841 -0.0311511047 -0.00809105765 -0.364814699 -0.0342383608 -0.00689475052 -0.344926298 -0.0244295429 -0.00330410386 -0.37457782</float_array>
          <technique_common>
            <accessor source="#positions_array" count="130" stride="3">
              <param name="X" type="float" />
              <param name="Y" type="float" />
              <param name="Z" type="float" />
            </accessor>
          </technique_common>
        </source>
        <source id="normals">
          <float_array id="normals_array" count="687">-0.492445201 0.471220791 0.731743634 0.0826571435 0.859890223 0.503742576 0.00518354494 0.999884546 0.0142846694 0.703919768 0.0212453566 0.709961712 0.290545106 0.947899818 0.130650192 0.770317376 0.170898959 0.614332736 0.228892297 -0.0639291182 0.971350312 -0.26530987 0.0420932323 0.963243902 0.278142661 -0.189206913 0.941720426 -0.546571016 -0.308817118 0.778390765 0.116617531 0.205337182 0.97171855 0.975264072 -0.220995411 -0.00458021834 0.971972823 -0.235088795 -0.0014335094 0.994564354 -0.104104064 -0.00201021833 0.00045847107 -0.999899209 0.0141891092 0.000117380456 -0.999889612 0.0148573071 0.00672741421 -0.999908686 0.0117181828 0.0170115288 0.99981904 0.00851777103 0.0059671998 0.999980509 0.00183839467 -0.0189597625 0.999818087 -0.00209193327 0.699234962 -0.00262606936 0.714887142 0.760395825 -0.00273452862 0.649454117 -0.997662365 0.0428419374 -0.0532386675 -0.948667109 -0.283696175 -0.139811128 -0.712111294 -0.685920417 0.149702042 -0.93646884 0.0833402053 0.340705901 -0.942123592 -0.0570242219 0.330380589 0.019221941 -0.999795735 0.00624262728 0.0300425161 -0.999547839 0.00123246002 0.998939812 0.0280503593 0.0365031473 0.985949814 0.165873632 -0.0197218023 0.975060582 -0.0531057194 0.215491608 0.115984544 0.986039937 0.119469099 -0.593844175 -0.780657113 -0.194739655 -0.00115880778 -0.999996483 0.00239610905 0.0757367387 -0.98905766 0.126605302 0.261898905 0.960127532 0.0977961347 0.980062425 -0.0567412972 0.190415546 0.990769029 -0.106065497 0.0844205469 0.722091913 0.659140408 0.210040897 0.403050125 0.826137662 0.393760294 0.54678899 0.786157727 0.288058728 0.508599758 0.806001782 0.302799314 0.0285358988 -0.999586463 -0.0035471681 0.0668560192 -0.997711599 0.0100916205 -0.924707294 0.0829921886 -0.371522158 -0.939103603 0.00932908617 -0.343507499 0.0085196672 -0.990269065 0.138905138 -0.0137125421 -0.996906877 0.0773866698 -0.929005563 -0.0611012876 -0.364986718 0.97434932 -0.0766795352 0.211574227 0.954650581 -0.180468753 0.236798033 0.59787029 -0.761611402 0.249998391 0.873092473 -0.101789251 0.476810694 0.507292092 -0.838978887 0.196898937 0.26791659 0.96130228 0.0641768798 -8.48899435e-05 -0.995750904 -0.0920876637 0.682993889 0.725904882 0.0811261013 0.0241836272 0.998086989 -0.0568992719 0.923412621 -0.313746274 0.221071064 0.720546603 -0.690726519 0.0609058738 0.0131364418 0.998274088 -0.0572385266 0.990762293 0.0073676249 0.135409564 -0.97199887 -0.103765182 -0.210833937 -0.986865103 0.00372168398 -0.161503494 -0.963054538 -0.049267672 -0.264761537 0.00197451771 0.996341527 -0.0854380652 -0.0751499087 -0.995650709 -0.0550649911 -0.034819711 -0.999089897 -0.0246355422 0.0365675278 -0.998551846 0.0394586176 0.755344272 0.653367639 0.05065367 0.999716759 -0.0110468501 0.0210786909 0.515129983 0.853447258 0.0791761503 -0.0432380401 0.996462584 0.0720606446 0.968978047 0.240716755 -0.0560083278 -0.040044684 0.987407386 0.153046146 -0.991124332 0.0395853445 0.126907825 -0.99384737 0.011314637 0.110179104 -0.994229317 -0.00409138156 -0.107197508 -0.930951655 0.0125663728 0.3649261 -0.918230057 0.00525258761 0.396012515 -0.0416006595 0.976425886 0.211806163 -0.563374937 0.631927848 0.532236755 0.0101350313 -0.985994577 0.166469231 0.0154921226 -0.981569529 0.190476298 0.00684759533 -0.990974903 0.133872464 0.110692859 -0.980637491 0.161546201 -0.777321815 -0.0168885943 0.628876448 0.997356534 -0.053759452 -0.0488856621 0.739926636 -0.668185592 -0.0776958391 0.770136297 0.592962027 -0.235130012 -0.382610679 -0.0436889268 -0.92287612 -0.873814166 0.0424944684 -0.484399647 0.222834319 0.024670938 -0.974544108 0.0951587185 0.981584787 0.165638492 0.504719853 0.863238215 0.00881499238 -0.972551405 -0.018426232 -0.231957465 -0.987203598 0.0113774063 0.159058586 0.203074649 -0.973018229 0.109527111 -0.550504625 0.697624266 0.458546638 -0.0787565112 0.940115809 0.33163175 -0.232145041 0.948609352 0.215055868 -0.720096707 -0.0164650027 0.693678379 0.519439876 -0.0339619145 -0.853831828 0.732354224 -0.00141984585 -0.680922329 0.732733727 -0.00195019285 -0.680512607 0.0383700989 -0.982422948 0.182682365 -0.83801347 0.00826341286 0.545587003 -0.439584196 -0.000664212916 -0.898201168 -0.416508317 0.173293069 -0.892463088 -0.443940729 -0.00177133863 -0.896054387 0.696520448 0.600798249 -0.392301857 0.947396636 0.000687166466 -0.320061207 0.842451751 -0.241280779 -0.48172459 -0.379420429 -0.0315388851 0.92468667 0.546620369 -0.0183440205 0.837179601 0.311922431 0.0104932357 0.950049639 -0.0251751114 0.998555303 -0.0474708937 0.349715769 0.89356333 -0.281502068 0.11625617 0.989568651 -0.0850789472 0.338528067 -0.916415989 -0.213495731 0.736152053 -0.588515103 -0.334260613 -0.331992358 0.221337095 -0.91694653 -0.621257067 0.0165481512 0.783432066 -0.96510011 -0.0578465499 0.255412549 -0.948971927 0.0017995385 0.31535548 -0.959812582 0.00359937595 -0.280618727 0.0633918121 -0.759289324 -0.647658288 -0.268924713 0.337504625 -0.902092099 0.1749551 -0.955427825 -0.237798914 0.251313925 -0.902967513 -0.348555595 0.889809668 0.0182968322 -0.455964923 0.878100455 0.0153360404 -0.478230506 0.877053678 0.0150776366 -0.480155736 0.891483366 0.0187312365 -0.452665985 -0.468138784 -0.686530471 -0.556347013 -0.545544624 -0.414227009 -0.728558183 -0.919874668 0.121478006 -0.372925788 -0.346301883 0.0844449028 -0.934314787 -0.922224998 0.18447943 -0.339806378 -0.202389896 0.0611628629 -0.97739321 0.254132241 -0.197963312 -0.946692824 -0.0392219424 0.999171317 0.0108747911 0.767837644 0.0179966129 0.640391648 -0.0567100532 -0.998358369 0.00803211611 -0.693473339 -0.552201152 -0.462783515 0.0045288722 -0.999973476 0.00570488768 -0.425714493 -0.809130311 0.40506205 -0.755878925 0.611622036 -0.233592585 -0.0806540102 0.993996799 -0.0739272237 -0.0884918049 0.992958486 -0.0787565857 -0.106108181 0.989579976 -0.09732721 -0.883634567 0.224704891 -0.410728276 0.0132111097 0.999911726 -0.00143426901 0.98430407 0.175552338 -0.0180810522 -0.00320294639 -0.999990821 0.00283628493 0.00349739846 -0.999989152 -0.00306758354 0.0301458463 0.999455273 0.0134293661 -0.635460317 -0.0277840048 0.771633506 -0.943597198 0.126208887 0.306097418 -0.0109314919 -0.999940217 0.000132191795 0.997353077 -0.0643206835 0.0339066498 -0.0532915816 0.998477459 0.0142387347 0.272278398 0.925891399 0.261896104 0.0209259987 0.988386333 0.150514275 -0.951062083 0.121346399 -0.284175843 0.872148871 -0.0837824345 0.482013285 -0.99772805 -0.0673123226 -0.00279872911 -0.127867177 -0.991271853 0.0320945717 -0.173046768 -0.961893201 0.211698562 -0.857916057 0.174541116 0.483234346 -0.622915745 -0.0650294721 0.779581428 -0.97195226 -0.01276966 0.234831244 -0.0801702812 -0.995477974 -0.0509543382 -0.068633303 -0.996112704 -0.0552174188 -0.124697492 0.985381603 -0.116075896 -0.844105899 -0.243085891 -0.477906406 -0.868059039 -0.267773241 -0.41805619 -0.187577784 -0.928003907 -0.321905792 0.692333639 -0.00729456125 0.72154063 -0.069433026 -0.995336473 -0.0669650361 0.257390738 -0.215254709 -0.942027271 0.0204548556 0.999726653 0.0113210147 -0.875207663 0.257288098 -0.409651518 -0.850127876 -0.00453252951 -0.52655679 0.883338809 0.0454621799 0.466525167 -0.643883109 -0.00253773038 -0.765119672 -0.149572 0.654303491 -0.741292894 0.0231693033 -0.077252306 -0.996742308 -0.451023966 0.0853796676 -0.888418674 0.493428737 0.665403903 -0.560148001 0.431794256 0.682724178 0.589441657 0.978468537 0.135693133 -0.155520752 0.49736464 0.0187663194 0.867338598 -0.117621534 0.85513109 -0.504892051 0.315567523 0.0934943259 -0.944285929 -0.0639854819 0.993528068 -0.0938501135 0.550821245 -0.0944949165 0.829256713 0.535456538 -0.036078196 -0.843791842 0.686218262 -0.312208205 -0.656985998 0.272707433 -0.688563168 -0.671946049 0.135811895 0.0372786634 0.990033031 0.00869847648 0.0570804216 0.998331666 0.242932618 -0.960636139 -0.134766445 -0.0934548005 -0.994994342 0.0353903435 0.757121384 0.0696401522 0.64955169 0.974321067 -0.00473995274 0.225113377 0.909903049 0.036277499 0.413231671 0.970674217 -0.0078073889 0.24027203 0.717009306 0.0134284096 0.696934223 -0.700016499 0.61882478 0.356416583 -0.996470094 0.06305933 -0.0554154254 -0.859474421 -0.0751281157 0.505627871 -0.648150504 0.666649342 -0.368075401 -0.70975405 0.201936647 0.674885809 -0.601277292 -0.0350963511 0.798269331 -0.771024108 -0.514942765 0.374640822 -0.707465827 -0.69344914 -0.136456281 -0.846298337 0.0818322822 -0.526386321 -0.199001372 0.936867893 0.287536085 -0.442850411 -0.0909586847 -0.89196974 -0.509390175 -0.190675586 -0.839145064 -0.00394200953 -0.999582052 -0.0286393967 -0.895748377 -0.101318441 -0.432861835 -0.968004227 -0.164100975 0.189838722 -0.701095223 -0.12242119 -0.702480316 -0.000504149008 0.999985635 -0.00533573655 0.928565383 0.0408843495 0.368910372 0.817783833 -0.111837097 0.564554751</float_array>
          <technique_common>
            <accessor source="#normals_array" count="229" stride="3">
              <param name="X" type="float" />
              <param name="Y" type="float" />
              <param name="Z" type="float" />
            </accessor>
          </technique_common>
        </source>
        <vertices id="vertices">
          <input semantic="POSITION" source="#positions" />
        </vertices>
        <triangles material="qmat_6286805a07da3ff8" count="58">
          <input semantic="VERTEX" source="#vertices" offset="0" />
          <input semantic="NORMAL" source="#normals" offset="1" />
          <p>99 187 100 188 101 189 102 190 103 191 104 192 103 191 105 193 104 192 103 191 102 190 106 194 102 190 104 192 107 195 108 196 102 190 99 187 99 187 107 195 100 188 104 192 105 193 109 197 110 198 109 199 111 200 105 193 112 201 109 197 100 188 110 198 111 200 103 191 106 202 112 201 112 203 113 204 111 200 106 202 114 205 112 201 115 206 116 207 113 208 108 209 115 206 114 205 117 210 118 211 119 212 120 213 118 211 117 210 116 214 119 212 121 215 122 216 123 217 113 204 121 215 119 212 122 216 119 212 123 217 122 216 118 211 120 213 124 218 115 219 108 196 120 213 108 196 99 187 120 213 125 220 100 188 126 221 113 204 123 217 126 222 113 204 126 222 111 200 118 211 127 223 128 224 124 218 129 225 127 223 129 225 125 220 127 223 100 188 111 200 126 221 127 223 126 221 123 217 101 189 100 188 125 220 105 193 103 191 112 201 107 195 104 192 110 198 108 196 106 194 102 190 99 187 102 190 107 195 109 199 112 203 111 200 100 188 107 195 110 198 114 226 113 226 112 226 110 198 104 192 109 199 116 214 115 219 117 210 116 214 117 210 119 212 113 208 116 207 121 227 117 210 115 219 120 213 115 206 113 208 114 205 119 212 118 211 128 224 119 212 128 224 123 217 113 208 121 227 122 228 118 211 124 218 127 223 120 213 101 189 124 218 124 218 101 189 129 225 101 189 120 213 99 187 127 223 125 220 126 221 129 225 101 189 125 220 128 224 127 223 123 217 106 202 108 209 114 205</p>
        </triangles>
        <triangles material="qmat_c9293097d13fc8af" count="198">
          <input semantic="VERTEX" source="#vertices" offset="0" />
          <input semantic="NORMAL" source="#normals" offset="1" />
          <p>0 0 1 1 2 2 2 3 3 4 4 5 5 6 6 7 7 8 0 0 8 9 9 10 1 11 9 12 10 13 6 14 11 15 7 16 12 17 13 18 14 19 11 20 4 5 15 21 16 22 17 23 18 24 11 25 18 24 2 26 2 26 18 24 0 0 7 16 15 27 19 28 13 29 7 30 19 31 14 19 13 18 20 32 18 24 21 33 22 34 22 34 21 33 23 35 18 24 17 23 21 33 4 5 3 4 24 36 24 37 10 13 22 38 13 29 19 31 25 39 25 39 19 31 24 37 20 40 26 41 27 42 20 32 13 18 26 41 13 18 25 39 26 41 28 43 23 35 29 44 16 22 30 45 31 46 21 33 32 47 23 35 23 35 32 47 33 48 17 23 31 46 32 49 22 34 23 35 28 43 24 37 28 50 29 51 34 52 33 53 35 54 27 42 26 41 36 55 26 41 25 39 36 55 33 48 32 47 35 54 32 47 37 56 35 54 36 55 38 57 39 58 40 59 34 52 35 54 29 44 34 52 40 59 40 59 35 54 41 60 39 58 38 57 42 61 38 57 40 59 43 62 43 62 40 59 41 60 44 63 45 64 37 65 38 57 43 66 42 61 37 56 45 67 41 60 45 67 46 68 41 60 41 60 46 68 47 69 48 70 41 60 47 71 43 66 48 70 42 61 48 70 49 72 50 73 49 72 48 70 51 74 50 73 49 72 52 75 50 76 53 77 42 78 50 76 52 79 53 77 52 79 54 80 53 77 52 75 55 81 56 82 54 83 57 84 58 85 58 85 57 84 59 86 56 82 60 87 54 80 51 74 58 88 61 89 49 72 55 81 52 75 49 72 51 74 62 90 55 91 59 92 57 93 63 94 49 72 64 95 49 72 62 90 64 95 55 91 63 96 59 92 63 96 65 97 59 92 59 86 65 98 61 89 58 85 59 86 61 89 56 82 66 99 60 87 56 82 67 100 68 101 66 99 69 102 60 87 56 82 68 101 66 99 67 103 57 93 70 104 68 105 67 103 70 104 54 83 70 106 57 84 60 87 71 107 54 80 72 108 73 109 74 110 72 111 75 112 73 113 76 114 77 115 78 116 77 117 76 118 74 119 77 117 74 119 68 101 61 89 79 120 80 121 74 110 73 109 81 122 76 114 78 116 79 123 82 124 81 125 83 126 81 122 73 109 84 127 85 128 81 122 84 127 79 129 84 127 73 130 86 131 87 132 88 133 86 131 89 134 87 132 90 135 83 126 89 136 91 137 92 138 93 139 94 140 74 141 92 138 68 101 74 119 91 142 77 115 95 143 78 116 95 144 96 145 78 146 95 144 97 147 96 145 78 146 96 145 84 127 98 148 88 149 85 128 87 150 85 128 88 149 87 150 81 151 85 128 88 152 98 148 96 145 2 2 1 1 3 153 13 29 5 154 7 30 9 155 8 156 18 24 12 17 5 157 13 18 8 9 0 0 18 24 5 6 12 158 6 7 12 158 14 159 11 25 4 5 11 20 2 3 7 16 11 15 15 27 6 7 12 158 11 25 1 1 0 0 9 10 9 155 18 24 10 160 3 161 1 11 10 13 11 25 16 22 18 24 14 159 16 22 11 25 19 31 15 21 4 5 24 37 19 31 4 5 16 162 14 19 20 32 16 162 20 32 30 163 10 160 18 24 22 34 24 37 3 161 10 13 24 37 22 38 28 50 21 33 17 23 32 49 16 22 31 46 17 23 30 164 20 40 27 42 30 45 39 165 31 46 34 52 23 166 33 53 40 59 24 37 29 51 29 44 23 35 34 52 30 164 27 42 39 58 27 42 36 55 39 58 40 59 25 39 24 37 38 57 25 39 40 59 31 46 39 165 44 63 36 55 25 39 38 57 31 46 44 63 37 65 32 49 31 46 37 65 37 56 41 60 35 54 39 165 42 78 44 63 48 70 43 62 41 60 44 63 42 78 45 64 45 64 42 78 46 167 42 61 48 70 50 73 51 74 48 70 47 71 42 78 53 77 46 167 58 85 46 68 53 168 58 85 53 168 54 83 47 69 46 68 58 85 51 74 47 71 58 88 67 103 55 91 57 93 52 79 56 82 54 80 56 82 55 81 67 100 55 81 49 72 63 94 70 169 71 107 97 147 54 80 71 107 70 170 60 87 69 102 97 147 71 107 60 87 97 147 72 111 62 90 75 112 82 124 74 171 81 125 74 119 62 90 72 111 74 119 76 118 62 90 64 172 76 114 79 123 76 118 64 95 62 90 63 96 64 172 65 97 65 97 64 172 79 123 75 112 62 90 51 74 82 173 90 135 92 174 90 135 82 124 83 126 75 112 51 74 61 89 61 89 65 98 79 120 80 121 79 120 73 113 75 112 61 89 80 121 73 113 75 112 80 121 87 150 83 175 81 151 79 129 78 146 84 127 66 176 86 177 88 152 91 137 93 139 86 177 90 135 89 136 86 178 66 99 68 101 91 142 66 176 91 137 86 177 77 115 68 179 95 143 91 137 94 140 92 138 90 135 86 178 92 174 86 178 93 180 92 174 92 138 74 141 82 181 91 142 74 119 94 182 88 152 96 145 97 183 69 184 66 176 97 183 66 176 88 152 97 183 95 143 68 179 70 185 87 186 89 136 83 126 95 144 70 169 97 147 85 128 84 127 96 145 98 148 85 128 96 145</p>
        </triangles>
      </mesh>
    </geometry>
  </library_geometries>
  <library_visual_scenes>
    <visual_scene id="scene">
      <node id="FL_calf_dae">
        <instance_geometry url="#geometry">
          <bind_material>
            <technique_common>
              <instance_material symbol="qmat_6286805a07da3ff8" target="#qmat_6286805a07da3ff8" />
              <instance_material symbol="qmat_c9293097d13fc8af" target="#qmat_c9293097d13fc8af" />
            </technique_common>
          </bind_material>
        </instance_geometry>
      </node>
    </visual_scene>
  </library_visual_scenes>
  <scene>
    <instance_visual_scene url="#scene" />
  </scene>
</COLLADA>