<?xml version='1.0' encoding='utf-8'?>
<COLLADA xmlns="http://www.collada.org/2005/11/COLLADASchema" version="1.4.1">
  <asset>
    <created>2026-09-14T00:00:00Z</created>
    <modified>2026-09-14T00:00:00Z</modified>
    <unit name="metre" meter="1" />
    <up_axis>Z_UP</up_axis>
  </asset>
  <library_effects>
    <effect id="qmat_d857164d36b11abb_effect">
      <profile_COMMON>
        <technique sid="common">
          <lambert>
            <emission>
              <color sid="emission">0 0 0 1</color>
            </emission>
            <diffuse>
              <color sid="diffuse">0.85 0.85 0.85 1</color>
            </diffuse>
            <reflectivity>
              <float sid="specular">0.5</float>
            </reflectivity>
          </lambert>
        </technique>
      </profile_COMMON>
    </effect>
  </library_effects>
  <library_materials>
    <material id="qmat_d857164d36b11abb" name="qmat_d857164d36b11abb">
      <instance_effect url="#qmat_d857164d36b11abb_effect" />
    </material>
  </library_materials>
  <library_geometries>
    <geometry id="geometry" name="FL_hip_dae">
      <mesh>
        <source id="positions">
          <float_array id="positions_array" count="420">0.0578854755 0.00328214234 0.019669231 0.0590971857 -0.00577384094 0.0132753262 0.0596538186 0.00328049576 -0.00989069045 0.0470503084 0.0213608462 0.0258506238 0.0527971424 0.0211080406 -0.0101868454 0.0142696491 0.0213866774 0.0519272424 0.0498851798 0.00564172212 0.0194414388 0.0536282361 0.00544736674 -0.0107602132 0.043559473 0.00332815549 0.0418407433 0.0244518481 0.00322184549 0.0561963543 0.0461361259 -0.00568606053 0.0391593911 0.0365437493 0.00538505847 0.0389632732 0.0224740002 0.00548576703 0.0489530452 0.0173734706 -0.00601008721 0.0584540106 0.0180787034 -0.00778755732 0.0508239903 0.0419551544 -0.00785659812 0.032916896 0.0344580188 -0.0345025808 0.0403944366 0.049761001 -0.0345248543 0.0191670638 0.0137905581 -0.0345247947 0.0515690893 -0.0384043381 -0.0345966257 0.0377324037 0.051207412 -0.00794487912 0.014294005 0.0528821535 -0.0339336805 -0.000332708441 -0.0109237563 0.0140981833 0.0528791584 -0.00643715262 0.00545563642 0.0538478084 -0.0101730973 0.00338756805 0.0601242781 -0.0122098988 0.0151805412 0.0623684227 -0.0103009464 -0.00569031853 0.0596250407 -0.0124459704 -0.0137478048 0.0631209612 -0.0109725706 -0.0108818766 0.0524190962 -0.0174672175 -0.034394905 0.0512286797 0.0419408344 0.00537999533 -0.0333769731 0.0491231009 0.00336888619 -0.0354693867 0.0369612239 0.0211305041 -0.0391609184 0.0598521568 -0.00568668079 -0.00862922706 0.0269232802 0.00338977762 -0.0551164262 0.0337130837 -0.00566167291 -0.0503358617 0.0244473089 0.005387682 -0.0479240492 0.0529543608 -0.00572774466 -0.0299950913 0.0509477444 -0.00779308798 -0.0146102682 0.0426834263 -0.00799171161 -0.0312349666 0.0484287478 -0.0345832333 -0.0212743711 0.0309169292 -0.0344659314 -0.0435206033 0.0142030856 0.0211870018 -0.0525043868 -0.0227228627 0.0213192534 -0.0485999994 0.0204511303 -0.00797813665 -0.0492711551 -0.0106136315 -0.00919821206 -0.0525000878 0.0140584083 -0.00579592446 -0.0592495278 0.00527975522 0.00549190585 -0.053665258 -0.0110610109 0.0161121078 -0.0532228425 -0.0102679711 0.00335379853 -0.0593904182 -0.0230051018 0.0141881993 -0.049201645 -0.0121849766 0.0135709494 -0.0631209612 -0.0331955366 -0.0148302447 -0.0521814711 -0.0119322529 -0.0146865919 -0.0624395981 -0.0104786279 -0.00573441805 -0.0595474727 -0.0470783636 0.0223733932 0.048881527 -0.0382099077 0.0146462787 0.0510856509 -0.0193122718 0.0212274138 0.0507221296 -0.041348584 0.0141507369 0.0354872644 -0.0276959501 0.0141968392 0.0465846807 -0.0422886461 0.0212475862 0.0339553207 -0.0515114516 0.0140446285 0.0188216791 -0.0425839089 0.0108756255 0.0543039739 -0.0428851247 -0.00726642739 0.0549941957 -0.0657779127 0.0444392376 0.0298251621 -0.089999944 0.0349384882 0.0404945277 -0.0654639229 0.0257345643 0.046442654 -0.0655315965 0.0523959137 0.0103134792 -0.0650722235 0.0142658157 0.047794912 -0.0650656596 0.0142485099 -0.0480393097 -0.0899415314 0.00471509434 0.0545882471 -0.0668532401 0.00523763523 0.0529042743 -0.0899923816 -0.0195109248 0.0499302857 -0.0539855771 0.0211449154 -0.00773584843 -0.0545307472 0.0140472986 -0.000191631567 -0.0446224362 -0.0140373716 0.0302122179 -0.0516348258 -0.0343774632 0.0152372569 -0.0538582392 -0.03454151 -0.00426817406 -0.0548268631 -0.0238540769 0.0474713817 -0.0316842273 -0.0192556921 0.0537394583 -0.0342448987 -0.0144463796 0.051852826 -0.0649462268 -0.0142456079 0.0481314026 -0.0305467416 -0.014077371 0.0437849239 -0.0652444437 -0.0370380729 0.0360928923 -0.0653986186 -0.0145833399 -0.0485265478 -0.0681929663 -0.0151130836 0.0508874878 -0.0688452944 -0.0269153714 0.0458522104 -0.0525192134 -0.0141272759 0.012556552 -0.052083645 -0.0140573895 -0.0140615404 -0.0899999663 -0.0510963611 0.0171732809 -0.0899999663 -0.0382998288 0.0372080989 -0.0693870261 -0.0409529358 0.0340785831 -0.0692277476 -0.0493110791 0.0201618411 -0.0575984009 -0.062322963 0.0106082316 -0.0682067201 -0.0619311929 0.0104996255 -0.0684031323 -0.0625532791 -0.010639919 -0.0686312765 -0.0533477776 0.00879381783 -0.0687171742 -0.0527531058 -0.00953333266 -0.057748951 -0.0506757349 0.0113630667 -0.0577625558 -0.0514380075 -0.00983965397 -0.0579546615 -0.0419739932 0.0304699633 -0.0581366494 -0.0351297222 0.039037887 -0.0652601048 -0.0483967774 0.0158893634 -0.0229192972 0.0163203962 -0.0574986413 -0.0373447165 0.0140862279 -0.0397596136 -0.0419125594 0.0209379438 -0.0350938067 -0.042885121 0.00726642599 -0.0549941994 -0.0513819344 0.0213216133 0.0165426005 -0.0417163409 0.0145412581 -0.0501349941 -0.0490247495 0.0140912468 -0.024082711 -0.0899999663 0.036974851 -0.0385915749 -0.06545946 0.0271524843 -0.0453360416 -0.0899999663 0.0133564975 -0.0519987345 -0.0899999663 0.0509454235 -0.0174954552 -0.065901041 0.0418893509 -0.0327288918 -0.0899768993 0.050998237 0.019704923 -0.0656482801 0.0527595617 -0.00894679315 -0.0682834759 0.0162215009 -0.0504299179 -0.0666488335 -0.00389222568 -0.0531929508 -0.0495144464 0.0231623854 -0.0482753627 -0.0899999663 -0.0207622424 -0.0498081408 -0.0317610614 -0.0343227014 -0.0434883386 0.00175478484 -0.0343715698 -0.0538447313 -0.0226549823 -0.0141613232 -0.0486498363 -0.0359912626 -0.0140807368 -0.0400238857 -0.042582687 -0.0108757447 -0.0543042608 -0.0553742275 -0.0244833194 -0.0467008874 -0.0350721031 -0.0203162152 -0.0529071763 -0.047066357 -0.0140245594 -0.0267590471 -0.0454228334 -0.034358643 -0.0287683643 -0.065410234 -0.0392948315 -0.0330317952 -0.0579454824 -0.0381625257 -0.0358854569 -0.0682569966 -0.0256314818 -0.0467475019 -0.0899982899 -0.0387576818 -0.037145555 -0.0654596239 -0.051005289 -0.00659012748 -0.0580557548 -0.0471837558 -0.0217814296 -0.089988023 -0.0515297689 -0.0161322579 -0.0575574152 -0.0619936623 -0.0106230425 -0.0685819313 -0.0445292667 -0.0298709851 0.034071479 0.0207178518 0.0414247662</float_array>
          <technique_common>
            <accessor source="#positions_array" count="140" stride="3">
              <param name="X" type="float" />
              <param name="Y" type="float" />
              <param name="Z" type="float" />
            </accessor>
          </technique_common>
        </source>
        <source id="normals">
          <float_array id="normals_array" count="777">0.806294978 0.517256975 0.28693831 0.810229421 -0.56636107 0.150875583 0.826470792 0.548258245 -0.127901882 0.00275336276 0.999993145 0.00247064652 0.00291054603 0.999992192 -0.00268050586 0.0059209899 0.999954402 0.00749002537 0.272632748 0.955364645 0.113796942 0.333280712 0.940055132 -0.0722514838 0.584946036 0.563571274 0.58328855 0.369296938 0.506566226 0.779108703 0.628623486 -0.562267125 0.53729707 0.896727026 0.0161450412 0.442289501 0.708452225 -0.028939195 0.705165148 0.950230181 0.0322134681 0.309878886 0.118887477 0.956598401 0.266054958 0.233536169 -0.536810398 0.81073761 0.152816638 -0.959268689 0.237593397 0.230839118 -0.956367671 0.179092497 0.773648202 0.0138652008 0.633463621 0.343938023 0.0127759473 0.938905418 0.654816687 -0.0226904135 0.75544709 0.926993787 -0.0251284968 0.374233902 0.000743014214 -0.999996901 0.00238846848 -0.00274211983 -0.999994218 0.00199644733 0.00123147818 -0.999997914 0.0016217354 0.971930265 0.0329538397 0.232949883 0.999787688 -0.000538777153 -0.0205985848 0.234190807 -0.0296287462 0.971739054 0.271500468 -0.958562613 0.0862858966 0.235716954 0.0190528017 0.971634984 0.251455575 0.213983387 0.94391799 0.282710403 0.595005989 0.752358079 0.542731166 0.203521863 0.814875305 0.968714178 0.121513553 0.216396034 0.633845031 -0.297109902 0.714119136 0.40251407 -0.0134933591 0.915314317 0.730372846 -0.676984131 -0.0908185989 0.0337297097 -0.849154413 0.527066529 -0.00439133774 -0.999753654 0.0217554066 0.807040691 0.0299666822 -0.589734972 0.982722282 0.075911805 -0.168802679 0.981621861 0.0587413646 -0.181570873 0.659776986 0.558742642 -0.502494812 0.212022588 0.959647954 -0.184722051 0.00386358867 0.999990821 -0.00184984587 0.251499712 -0.967501163 -0.0262562018 0.992406487 0.0046597044 -0.122913107 0.36448133 0.544068515 -0.755739927 0.500929415 -0.56769377 -0.653294325 0.707571924 0.0260310937 -0.706161678 0.478996783 -0.0143525945 -0.877699316 0.740724027 -0.540793061 -0.398585945 0.969610095 0.0253152642 -0.243342042 0.262315929 -0.962475777 -0.0695032552 0.2226329 -0.956928849 -0.186337665 0.00998817012 -0.99994868 -0.00169871643 -0.00214693416 -0.999991775 -0.00344030466 0.1980194 0.656563222 -0.7278139 -0.306626141 0.71321702 -0.63031888 0.124916524 -0.956408799 -0.263966024 0.0173666868 -0.916909516 -0.398717105 0.158490568 -0.489971697 -0.857209682 0.127127022 0.551005661 -0.82476145 0.0593583658 0.611398816 -0.789093196 0.629007578 0.1789134 -0.756531239 -0.215841889 0.848505378 -0.483167589 -0.0128145013 0.998445868 -0.0542372391 0.0116430493 -0.540946782 -0.840976238 0.259746999 -0.770395696 0.58225596 0.261148483 -0.806773901 0.530016303 0.71057117 -0.28777194 -0.642087162 0.988259852 -0.143759727 -0.0517262407 0.977670908 -0.0988403335 -0.185445771 0.971913218 0.104436874 -0.210897192 0.150322765 -0.107796699 -0.982742548 0.387769133 0.187622905 -0.902459264 0.329543471 0.114615887 -0.937157571 -0.343387216 0.0288324598 0.93875128 -0.716666818 0.0725336596 0.693633556 -0.564280748 0.201763973 0.800548911 0.00951048452 0.999029994 -0.0429960191 0.020556489 0.997594655 -0.0661993995 0.00191879575 0.999769151 -0.0213994887 -0.760070026 0.0614009835 0.646933913 -0.936870754 0.11295861 0.330928236 -0.190964237 0.192741081 0.962488174 -0.180094466 -0.138921246 0.97378993 -0.276724935 -0.0796972513 0.957638562 0.0356780253 0.994645178 -0.0969952419 0.046016138 0.993188441 -0.10704758 0.0433806069 0.810778677 0.583743095 -0.0159305558 0.630313516 0.776177227 -0.0205805972 0.442215562 0.896672666 0.998573005 0.0438465104 0.0304866042 0.998953104 0.0376826376 0.0259370524 0.99983865 0.0178984292 0.00153848121 0.000836938736 0.999911189 -0.0133026941 0.0124157965 0.999920428 -0.00222858926 0.00389387319 0.999910951 0.0127623687 0.0152535792 0.107716262 0.994064629 -0.0240312219 0.107440174 0.993921101 -0.999999642 0.000409880129 0.000742131961 -0.999999046 9.73726055e-05 0.00136249303 -0.999980867 0.000921596773 0.00612158142 -0.118423685 0.385305226 0.915158868 -0.986831784 -0.0233371258 -0.160057425 -0.987821281 0.142434984 0.0626208484 -0.826514423 -0.0036862297 0.562903523 -0.951292992 -0.031254489 0.306699842 -0.713892996 -0.0269953739 0.699734271 -0.0382534489 -0.999186516 0.0127642229 0.0044773696 -0.999985576 -0.00295973103 -0.0371716022 -0.436008513 0.899174511 -0.273870021 -0.349628717 0.895965934 0.184278458 -0.802210271 -0.567890942 0.339480042 -0.123690955 -0.932445109 0.699849844 0.2301341 -0.676201522 -0.556552172 0.0274741929 0.830358267 0.0843444616 -0.996412694 -0.00691211456 0.0068513453 -0.99993372 -0.00925448723 0.710351944 0.514545739 -0.480252892 0.662305832 0.308407426 0.682814598 -0.0144465705 -0.267771989 0.963374019 0.00889590662 -0.528250456 0.849041998 0.00490343245 -0.999955952 -0.00800065696 0.00389418448 -0.999990463 -0.00196586968 0.0275786612 -0.999612808 0.00368734053 -0.976231515 0.0215781257 0.215653345 -0.995715916 -0.00589075731 -0.0922771469 -1 -0.000119404358 -4.92915169e-05 -1 -5.39489156e-06 0.000128254862 -0.00904391427 -0.374260426 0.927279532 0.0380402505 -0.771537244 0.635045886 -0.0404718183 -0.950312376 0.308655858 0.0870531797 -0.900395751 0.426273674 -0.0103642363 -0.999816537 0.0161078684 -0.0371930525 -0.998865485 0.0297399797 0.0253303703 -0.999677062 -0.00204430521 -0.999020398 -0.0433658101 0.00881344546 -0.999467194 -0.0324361362 0.00363189937 -0.999309063 -0.0367317721 0.00566817075 0.0171473175 -0.667000771 0.744859695 -0.0247747675 -0.852742612 0.521743476 -0.126444072 0.0448976494 0.990957141 0.999849498 0.0173067246 0.00118601928 0.999914944 0.0129954908 -0.00110884488 0.999890029 0.0148291932 -0.000132790345 0.230974525 0.859836519 -0.455337226 0.150009975 0.963882923 -0.220060825 0.0477205589 -0.674635887 0.736606479 0.131848097 -0.835141003 0.533999622 0.142855853 0.636968195 -0.757537961 0.999995172 -0.0012997631 -0.00283290003 -0.0149925351 -0.716939211 0.696974456 0.248078793 0.944552958 0.215120122 -0.00662589213 0.998301923 0.0578737706 -0.76867646 0.015331855 -0.639454067 -0.620398343 0.114728451 -0.775849998 -0.300578505 0.426920265 -0.85287261 -0.277842879 0.0986919925 -0.955543399 -0.177694172 0.139807522 -0.974103987 0.0014595167 0.999988616 -0.00454676338 0.00247092638 0.999973297 -0.00687877182 -0.00916745979 0.999957681 0.000762290903 -0.0344565772 0.997705817 0.0582742505 -0.896835923 0.167514697 -0.409419358 -0.01710435 0.682810783 -0.730394959 -0.0144121526 0.50257659 -0.864412546 -0.0292120129 0.237067118 -0.971053958 -0.0161582362 0.952656031 -0.303620547 0.034511894 0.795065641 -0.605540752 -0.0159034263 0.943429768 0.331190765 -0.00923357997 0.986692488 -0.162335068 0.999657035 0.0234672353 0.0116218701 0.9996714 0.0243698694 -0.00794955622 -0.0211311821 0.30081144 -0.953449488 -0.0633198693 -0.075006865 -0.995170593 0.129123658 -0.199547231 0.971343398 0.116808206 -0.177909449 0.977089584 0.150531337 -0.102613628 0.98326534 -1 -3.64671024e-07 0 -1 -2.94695274e-05 6.55322947e-05 -1 0.000222956834 6.91644091e-05 -1 1.714767e-07 0 -0.0160133988 -0.351183951 -0.936169565 -0.0021920877 -0.999991298 -0.00355181866 -0.00222515082 -0.999991655 -0.00343345432 -0.135706544 -0.594843209 -0.792303741 0.0336392224 -0.0237550046 -0.999151707 -0.557481766 -0.0402638577 -0.829212189 0.0128784543 -0.998771846 0.0478427485 0.0155072287 -0.999644935 0.0216681492 -0.181701809 -0.197357148 -0.963345528 0.235215157 0.382575363 0.89348191 0.361073643 -0.242622539 0.900422215 -0.859742165 -0.0313872471 -0.509762943 -0.844962955 -0.0242420863 -0.534275115 -0.266196936 -0.092809312 -0.959440291 -0.973071516 -0.00938506518 -0.230312392 -0.257701486 -0.338925302 -0.904831231 0.715794086 0.535380542 0.448337495 0.165997878 0.687455177 0.707000732 0.0158687886 -0.531755567 -0.846749187 0.0547027513 -0.71002543 -0.702048123 0.0180141069 -0.502820373 -0.864203215 0.000278608437 -0.720474958 -0.693480849 0.999936581 -0.00918214582 -0.006519733 0.102993198 -0.936196506 -0.336048335 0.0245740004 -0.972205579 -0.232835591 0.106455602 -0.904789269 -0.412339151 -0.0297946688 -0.960392654 -0.27705285 0.0515472069 -0.998552024 -0.0153877297 -0.0204952024 0.0913008973 -0.995612442 -0.0022646843 0.0739675909 -0.997258067 -0.0221497342 0.092871733 -0.995431662 0.147299543 0.983598828 0.104097076 0.27647543 0.873361349 0.401000351 0.0618547015 -0.823931992 -0.563302815 0.639581263 0.0190554671 0.768487275 0.194308355 0.957971573 0.211032569 0.0985266417 0.987518728 0.122878931 0.0128410701 -0.999916852 0.00116571074 0.506236732 -0.854833424 -0.113948114 -0.146212682 0.014538358 0.989146352 -0.293684095 -0.012884412 0.955815673 0.129814476 0.965987265 -0.223644257 0.906804562 -0.0348891206 -0.4201051 0.789243162 0.0166524108 -0.613854945 0.162374109 -0.986721456 -0.00392466411 0.587444246 -0.0220855158 -0.808963239 0.386026442 0.0361215286 -0.921780229 -0.266763896 0.0835680738 0.960132003 -0.00462398911 0.999966085 0.00681285327 -0.961865902 0.0971936733 0.255670398 -0.00503300363 0.999954522 0.00809997972 -0.999997318 0.00223522424 0.000616901554 0.00469963625 0.987241864 0.159158394 0.0584437512 0.998253047 -0.0086699836 0.118994348 -0.120219 -0.985590041 0.122392736 -0.112092666 -0.98613143 0.264932126 0.363285959 -0.893215716 -1 -0.000173074252 -2.72162615e-05 -0.998824418 -0.0472846664 0.0106717199 -0.00284820888 0.194784537 0.980841935 0.135460496 0.972117364 0.191411331 0.0526821092 0.924319625 -0.377965391 0.999811888 0.0192657579 0.00222887425 0.352435142 0.118550025 0.928297043 0.284155816 0.0505011603 0.957447171 -0.0986431986 0.366563171 -0.925149143 0.00511710392 0.999981999 0.00313805416 0.998886704 0.0431325622 -0.01910224 0.999934435 -0.00960045587 -0.00623912783 0.999252737 0.0356701948 -0.0148854544 0.000460494019 -0.999993324 -0.00362723647 -0.681676269 -0.0172687266 -0.731450081 0.0187770743 -0.999775171 0.00985079631 -0.0410692729 0.110807531 -0.992992938 -0.999998987 -0.00136272341 -0.000340839266</float_array>
          <technique_common>
            <accessor source="#normals_array" count="259" stride="3">
              <param name="X" type="float" />
              <param name="Y" type="float" />
              <param name="Z" type="float" />
            </accessor>
          </technique_common>
        </source>
        <vertices id="vertices">
          <input semantic="POSITION" source="#positions" />
        </vertices>
        <triangles material="qmat_d857164d36b11abb" count="276">
          <input semantic="VERTEX" source="#vertices" offset="0" />
          <input semantic="NORMAL" source="#normals" offset="1" />
          <p>0 0 1 1 2 2 3 3 4 4 5 5 6 6 0 0 7 7 8 8 9 9 10 10 8 8 0 0 6 6 3 11 11 12 6 13 9 9 8 8 12 14 0 0 10 10 1 1 9 9 13 15 10 10 13 15 14 16 15 17 15 18 14 19 16 20 15 18 16 20 17 21 18 22 19 23 16 24 20 25 17 21 21 26 16 20 14 19 18 27 10 10 15 17 20 28 5 29 22 30 23 31 24 32 25 33 26 34 22 30 24 32 23 31 5 29 23 31 12 35 9 9 12 14 23 31 24 32 26 34 13 15 25 33 27 36 26 34 13 15 28 37 14 16 18 22 29 38 19 23 24 32 9 9 23 31 30 39 4 40 7 41 7 7 31 42 30 43 5 5 4 4 32 44 1 1 20 28 33 45 2 2 1 1 33 46 34 47 31 42 35 48 32 49 30 39 36 50 2 2 33 46 37 51 38 52 20 25 21 26 33 45 38 53 37 51 38 53 39 54 37 51 37 51 39 54 35 48 40 55 19 23 41 56 5 5 42 57 43 58 44 59 45 60 46 61 42 57 47 62 48 63 47 62 34 47 49 64 43 58 42 57 48 63 48 63 47 62 49 64 43 58 48 63 50 65 50 65 48 63 51 66 45 67 52 68 53 69 35 48 44 59 46 61 45 60 54 70 46 61 54 70 45 71 53 72 51 73 54 70 53 72 5 5 32 44 42 57 55 74 25 75 56 76 57 77 58 78 59 79 56 80 59 81 58 82 60 83 61 84 58 78 62 85 63 86 27 87 57 77 59 79 22 30 25 88 22 89 59 81 64 90 65 91 66 92 64 93 66 94 67 95 68 96 61 97 69 98 66 92 70 99 71 100 66 92 71 100 62 85 65 91 70 99 66 92 65 101 72 102 70 103 55 104 66 92 62 85 73 105 74 106 61 84 75 107 76 108 19 109 76 110 77 111 19 23 63 86 78 112 79 113 80 114 79 115 81 116 82 117 75 107 19 109 82 118 80 114 75 119 79 115 80 114 27 36 81 116 83 120 84 121 63 86 85 122 78 112 85 122 86 123 78 112 75 119 81 124 87 125 87 125 81 124 88 126 87 127 77 128 76 108 65 101 89 129 90 130 72 102 65 101 90 130 70 99 85 122 71 100 70 99 72 131 85 122 91 132 89 133 92 134 93 135 94 136 95 137 96 138 97 139 95 140 98 141 96 142 93 143 99 144 98 145 93 146 100 147 98 148 83 120 101 149 91 132 100 150 92 134 96 142 98 141 83 120 101 151 100 147 84 121 83 120 102 152 86 123 90 153 91 132 50 65 51 66 103 154 104 155 50 65 103 154 105 156 50 65 104 157 103 158 51 159 106 160 107 161 5 5 73 162 73 162 5 5 105 163 104 155 108 164 69 98 73 105 105 156 109 165 110 166 111 167 112 168 113 169 114 170 110 166 115 171 116 172 113 169 67 95 68 173 69 174 117 175 106 160 118 176 111 177 69 178 119 179 110 180 120 181 113 182 110 180 112 183 120 181 112 168 118 176 120 184 19 23 121 185 122 186 123 187 122 188 121 189 123 187 124 190 52 68 124 190 84 191 52 68 118 176 106 160 125 192 52 68 126 193 127 194 128 195 121 189 129 196 51 159 53 197 125 192 128 195 129 196 88 198 125 192 53 197 127 199 88 198 129 196 77 128 52 68 84 121 126 193 126 193 130 200 131 201 126 202 131 203 132 204 132 204 133 205 120 184 81 124 84 191 88 126 84 121 134 206 130 200 99 207 97 208 135 209 96 142 136 210 97 208 93 135 95 137 137 211 99 212 137 213 95 214 134 215 135 216 130 200 97 208 136 210 138 217 6 13 4 40 3 11 4 40 6 13 7 41 0 0 8 8 10 10 7 7 0 0 2 2 3 11 139 218 11 12 11 219 8 8 6 6 5 29 12 35 139 218 5 5 139 220 3 3 11 12 139 218 12 35 12 14 8 8 11 219 1 1 10 10 20 28 10 10 13 15 15 17 17 221 19 23 40 55 17 221 16 24 19 23 17 21 20 25 15 18 27 36 80 114 28 222 5 29 57 77 22 30 18 27 28 223 29 224 9 9 24 32 13 15 22 30 25 33 24 32 18 27 14 19 28 223 13 15 26 34 28 37 28 222 26 34 27 36 7 7 2 2 31 42 32 49 4 40 30 39 30 43 31 42 34 47 35 48 31 42 37 51 42 57 32 49 36 50 36 225 30 43 34 47 31 42 2 2 37 51 33 45 20 28 38 53 40 226 39 227 38 52 40 226 38 52 21 26 21 228 17 221 40 55 41 229 39 227 40 226 35 48 39 54 44 59 44 230 39 227 41 229 47 62 42 57 36 50 47 62 36 225 34 47 45 67 44 230 122 188 122 188 44 230 41 229 41 56 19 23 122 186 51 73 48 63 49 64 51 73 49 64 54 70 49 64 34 47 46 61 54 70 49 64 46 61 45 67 122 188 123 187 46 61 34 47 35 48 25 231 62 85 27 87 56 80 25 88 59 81 25 231 55 104 62 85 57 77 60 83 58 78 68 96 56 80 58 82 60 232 5 5 107 161 63 86 62 85 71 100 60 83 107 233 61 84 68 96 58 82 61 97 60 232 57 234 5 5 65 101 115 235 113 182 65 91 64 90 115 171 115 171 67 236 116 172 115 171 64 90 67 236 69 98 61 97 74 237 67 95 66 94 68 173 63 86 71 100 85 122 66 238 56 76 68 239 66 238 55 74 56 76 107 233 73 105 61 84 28 223 82 117 29 224 28 222 80 114 82 118 80 114 81 124 75 119 75 107 87 127 76 108 27 87 63 86 79 113 29 224 82 117 19 109 81 116 78 240 83 120 78 112 86 123 101 149 81 116 79 115 78 240 83 120 78 240 101 151 101 149 86 123 91 132 65 101 133 241 89 129 86 123 72 131 90 153 85 122 72 131 86 123 65 101 113 182 133 241 96 142 92 134 89 133 94 242 96 138 95 140 93 143 96 142 94 243 134 215 98 148 99 244 102 245 98 148 134 215 91 132 90 153 89 133 96 142 89 133 136 210 137 246 99 144 93 146 134 206 84 121 102 152 83 120 98 148 102 245 100 150 91 132 92 134 100 150 92 134 98 141 105 156 43 58 50 65 105 163 5 5 43 58 108 164 104 155 103 154 103 247 119 179 108 248 105 156 104 157 109 165 119 249 103 158 106 160 119 179 69 178 108 248 69 98 109 250 104 155 113 169 116 172 114 170 114 251 116 252 67 95 110 166 114 170 111 167 111 253 114 251 67 95 111 253 67 95 69 174 112 168 117 175 118 176 112 168 111 167 117 175 111 167 119 249 117 175 117 175 119 249 106 160 74 237 109 250 69 98 74 106 73 105 109 165 19 23 129 254 121 185 124 255 123 187 121 189 106 160 51 159 125 192 124 190 128 256 84 191 124 255 121 189 128 195 19 23 77 111 129 254 45 67 123 187 52 68 53 69 52 68 127 194 126 202 125 192 127 199 132 204 125 192 126 202 126 193 84 121 130 200 118 176 125 192 132 204 132 204 131 203 138 217 133 205 132 204 138 217 87 127 88 198 77 128 113 182 120 181 133 241 120 184 118 176 132 204 128 256 88 126 84 191 135 209 97 208 138 217 97 257 99 212 95 214 130 200 135 216 131 201 134 215 99 244 135 216 135 209 138 217 131 203 89 129 133 241 136 258 138 217 136 210 133 205</p>
        </triangles>
      </mesh>
    </geometry>
  </library_geometries>
  <library_visual_scenes>
    <visual_scene id="scene">
      <node id="FL_hip_dae">
        <instance_geometry url="#geometry">
          <bind_material>
            <technique_common>
              <instance_material symbol="qmat_d857164d36b11abb" target="#qmat_d857164d36b11abb" />
            </technique_common>
          </bind_material>
        </instance_geometry>
      </node>
    </visual_scene>
  </library_visual_scenes>
  <scene>
    <instance_visual_scene url="#scene" />
  </scene>
</COLLADA>