<?xml version='1.0' encoding='utf-8'?>
<COLLADA xmlns="http://www.collada.org/2005/11/COLLADASchema" version="1.4.1">
  <asset>
    <created>2026-09-14T00:00:00Z</created>
    <modified>2026-09-14T00:00:00Z</modified>
    <unit name="metre" meter="1" />
    <up_axis>Z_UP</up_axis>
  </asset>
  <library_effects>
    <effect id="qmat_76551a3993c45b27_effect">
      <profile_COMMON>
        <technique sid="common">
          <lambert>
            <emission>
              <color sid="emission">0 0 0 1</color>
            </emission>
            <diffuse>
              <color sid="diffuse">0.6500053 0.68 0.6500053 1</color>
            </diffuse>
            <reflectivity>
              <float sid="specular">0.5</float>
            </reflectivity>
          </lambert>
        </technique>
      </profile_COMMON>
    </effect>
    <effect id="qmat_d857164d36b11abb_effect">
      <profile_COMMON>
        <technique sid="common">
          <lambert>
            <emission>
              <color sid="emission">0 0 0 1</color>
            </emission>
            <diffuse>
              <color sid="diffuse">0.85 0.85 0.85 1</color>
            </diffuse>
            <reflectivity>
              <float sid="specular">0.5</float>
            </reflectivity>
          </lambert>
        </technique>
      </profile_COMMON>
    </effect>
  </library_effects>
  <library_materials>
    <material id="qmat_76551a3993c45b27" name="qmat_76551a3993c45b27">
      <instance_effect url="#qmat_76551a3993c45b27_effect" />
    </material>
    <material id="qmat_d857164d36b11abb" name="qmat_d857164d36b11abb">
      <instance_effect url="#qmat_d857164d36b11abb_effect" />
    </material>
  </library_materials>
  <library_geometries>
    <geometry id="geometry" name="FL_thigh_dae">
      <mesh>
        <source id="positions">
          <float_array id="positions_array" count="354">0.0597682856 0.0250659678 0.0103302766 0.0453196913 0.0289815143 0.00793444552 0.0610006675 0.0142212603 0.0336920023 0.037722826 0.0333993733 0.012705937 0.0173377823 0.0326938815 0.0336421803 0.0308127087 0.00157549232 0.0608133338 0.0546391606 -0.0144442134 0.0308496747 0.0617656447 0.00100396166 0.0375833325 0.0281743556 -0.00537954504 0.0620622635 0.0605661757 -0.0156223029 0.0198004991 -0.00712315599 0.0144168371 0.0686453357 0.0330579579 0.0248362962 0.051946681 -0.0274940934 0.00979268551 0.0676296577 0.00671274308 0.0177979339 0.0555236936 0.0562927276 0.0160848852 0.0253324118 -0.008076814 0.0249416512 -0.00381680252 0.0389121622 0.0332167707 -0.00630534021 -0.00938068703 0.0331310257 0.0393940844 0.0651736781 0.0149765257 -0.0144694056 0.0274601057 0.0235467218 -0.0526085123 0.0683874488 0.0159205832 -0.0165235419 0.0314590223 0.0346285403 -0.0149068823 0.0540362671 -0.0153607642 -0.0333463214 0.0231146235 -0.0215013009 -0.0593199246 0.0608821549 -0.049899064 -0.0162724815 0.0310711879 0.0305033363 -0.0234014913 0.0254282057 0.0302087609 -0.0290866829 0.023909295 0.0300282575 -0.0326609462 0.0216346942 0.0323953405 -0.0308212936 0.0278171655 0.0291543528 -0.0315808915 0.0124081075 0.0307760928 -0.0448078625 -0.0226976927 0.0368311554 0.0137738949 -0.0231907442 0.0365963653 0.0223600976 -0.0271026343 0.0354509763 0.0064210929 0.0253140051 0.0249064043 -0.0584215485 -0.0169320889 0.0329933651 0.0324047841 -0.00720186997 -0.0164069626 0.0632884651 -0.0192446932 -0.0728148296 0.0573766269 0.0221417751 -0.0625281036 0.0578814037 0.0489169173 -0.0502785817 0.037619926 0.0511010364 -0.0757609457 0.0318738967 -0.00864616595 -0.0989958048 0.0600732677 0.0488642044 -0.0989947617 0.0255558118 -0.0569600947 -0.0989769772 0.00361814676 0.0458857939 -0.0989999771 -0.0343789719 0.0538629554 -0.0757961422 -0.0270558894 0.019710267 -0.0757704675 -0.0556211658 -0.0606349409 0.0226081386 0.0262878723 -0.0523921847 0.0178657025 0.0268552974 -0.0376927964 0.0318976529 0.000178405069 -0.0524853505 0.0124488818 0.0444989912 -0.0654805601 0.01702464 -0.00372864492 -0.0620097965 0.00315212412 0.0163176451 -0.0573781654 -0.0161949713 0.0293973945 -0.0453947261 -0.0502731912 0.0408180095 -0.0609657913 -0.0225231107 -0.0175426789 -0.0629164502 -0.0501636118 -0.00368150673 -0.0159344487 0.000531779602 0.0629509091 -0.06864696 0.00839618035 -0.0050576129 -0.0209945459 0.0308921188 -0.0472573824 -0.0454408564 0.0288198721 -0.022481136 -0.0365688317 0.0230062045 -0.098581247 -0.0146046244 0.033728864 -0.0382976905 -0.0342256017 0.0323674455 -0.0166265406 -0.0467203632 -0.0195817966 -0.104293443 -0.0226557124 -0.0276511088 -0.0591454729 -0.0607393906 -0.00592796411 -0.08917474 -0.0606633537 -0.00960378721 -0.0286079571 -0.0650841072 -0.00798753183 -0.0318216868 -0.0661379546 -0.0026060713 -0.0289455745 -0.0682206303 -0.00211530738 -0.0298169889 -0.06500303 -0.00842342433 -0.00493223732 -0.0572095066 -0.0760582387 0.0188490581 -0.0339205116 -0.0508215278 -0.0508102663 -0.0363933146 -0.0756939277 -0.0491429232 0.0256719403 0.00633023819 -0.0727414787 0.0483552888 0.00215235795 -0.0434380993 -0.0050018467 0.0188108291 -0.135819018 0.0137172816 0.00588903483 -0.0952577144 -0.0358948708 0.0213056058 -0.140253425 0.00845864601 -0.00583694037 -0.0923021659 0.0185030848 -0.00349051924 -0.0789583176 0.000977014191 0.0160959233 -0.128507033 0.000773624168 -0.0111660371 -0.125761226 -0.000292869227 0.0116196722 -0.116971537 0.00309654698 -0.00353931729 -0.108989626 0.00337080169 -0.00409143465 -0.106680125 0.00581273716 -0.00408923207 -0.109090202 -0.027409615 0.0199439377 -0.0996432751 -0.0430141166 0.0183080137 -0.0967946574 -0.0572611876 0.014489688 -0.136848018 -0.0553575531 0.0130837765 -0.0959021002 -0.0585793629 0.0141058145 -0.0922944695 -0.0455062725 0.018686723 -0.0847207382 0.0122112818 0.015410101 -0.0752686635 -0.0312220715 0.0225238986 -0.108893678 -0.0270887036 0.0198905095 -0.103228487 -0.0277063251 -0.0989999771 -0.0505742803 0.0198549442 -0.050706774 -0.0595469438 -0.00230231602 -0.0156161552 -0.252377808 0.0022215771 0.00720638596 -0.203683883 0.000273882586 0.0171538331 -0.245867983 -0.0565556772 -0.000799978152 -0.305817068 -0.0487397239 -0.0165173486 -0.244558513 -0.0471261032 0.0174250361 -0.242971465 -0.054282371 0.0300851613 -0.290554136 -0.0525659695 -0.028504191 -0.277362376 -0.0501045771 0.0163059309 -0.324221253 0.0251194779 0.0154346023 -0.351979882 -0.00443989085 0.0294423085 -0.257447958 -0.0489181839 -0.0169824567 -0.322136492 -0.0094310008 -0.0287469458 -0.368789703 -0.00916916132 -0.0161804575 -0.371475875 0.0245572254 -0.0216224194 -0.35724771 0.0200936627 0.0293787345 -0.353372842 -0.0025924535 0.024327321 -0.374430001 0.0134695033 0.0363076888 -0.00537349377 -0.00632910244 -0.0284676012 -0.253163785</float_array>
          <technique_common>
            <accessor source="#positions_array" count="118" stride="3">
              <param name="X" type="float" />
              <param name="Y" type="float" />
              <param name="Z" type="float" />
            </accessor>
          </technique_common>
        </source>
        <source id="normals">
          <float_array id="normals_array" count="681">0.175471202 0.896465302 0.406890422 0.644665182 0.415495157 0.641693473 -0.448001564 -0.383378863 -0.807660341 -0.894334674 -0.0392466523 -0.445673913 -0.87403208 0.236074656 -0.424660712 0.839060605 -0.0555099547 0.541198671 0.392360121 0.025515195 0.919457734 0.951889813 -0.196720675 0.234961137 0.093266122 -0.319599569 -0.9429515 0.359937042 0.639078736 0.679723203 -0.369896173 0.22441949 0.90156126 0.0313352048 0.799333453 0.600070119 0.437153935 0.546498656 0.714307845 0.697310805 0.637436867 0.327768028 0.00866538752 0.999886274 0.012341788 0.145096332 0.977175117 0.155163929 -0.0545356609 0.917271852 0.39451012 -0.0850712135 -0.967694163 -0.237341195 0.158832312 -0.916100502 -0.368146896 -0.34499833 -0.93427974 0.0899860263 -0.481719732 -0.87242794 -0.0825564712 -0.518775165 -0.785559237 -0.337296665 -0.728773296 -0.659255803 0.185124904 -0.563113093 -0.741911709 0.363965273 0.345328212 0.933813632 -0.0934906751 0.745889127 0.651970685 0.136321843 0.908255875 0.339182287 -0.245003328 0.275134891 0.950875401 -0.141904175 0.842150211 -0.170968801 -0.511422276 0.564317048 -0.205052078 -0.799687386 0.965750217 -0.0829510763 -0.245857 0.884402335 0.0361908264 0.465319991 0.975831509 -0.0134372851 0.21811077 0.230029047 0.963357389 -0.137946323 -0.257896692 -0.918623865 0.299365073 -0.378313601 -0.825778782 0.418292016 -0.151532903 -0.974230409 0.167071372 0.527007818 0.775904775 -0.34674859 0.358323693 0.933323264 0.0226224083 0.0730196461 0.959259093 -0.272928834 -0.262675196 -0.929794073 0.257846296 -0.351852179 -0.87562871 0.330869108 -0.155784264 -0.972646356 0.172308877 -0.0542539023 0.99852699 -0.000599039311 -0.161567986 0.970950246 0.176497519 0.378835231 0.922908187 0.06873402 -0.228466615 0.972600698 -0.043022424 0.481350839 0.828416824 -0.286403477 -0.0924939737 -0.987356901 -0.12872915 0.161840156 -0.92669189 -0.339190125 0.183544964 -0.956039846 -0.228689775 -0.23052296 -0.95743686 0.173706204 -0.0656116456 0.963292301 -0.260313421 0.165689617 -0.985649168 0.0322899073 -0.172997251 -0.146423534 0.973977447 -0.329558313 -0.133091554 0.934707403 0.306336552 -0.395408601 0.865915656 0.830592096 -0.0764893293 0.551603258 0.840528011 -0.191470474 0.50680536 -0.0539827235 -0.580352247 0.812574387 0.894631147 -0.195397809 0.401814431 -0.782827914 -0.622237504 -0.000944580766 0.594193637 -0.674614847 -0.437982589 0.907944143 -0.154284447 -0.38965854 0.273087114 -0.253331095 -0.928033829 -0.758210957 0.548187792 0.352996051 -0.511993766 0.841614187 0.171895266 0.383820117 -0.920496941 -0.0732630864 0.539596975 -0.715346634 -0.443975568 0.861691952 -0.498537719 -0.0945891514 0.96779424 -0.0948410854 -0.233194008 -0.870203674 -0.128449351 0.475653529 -0.728455007 -0.0764998347 0.680809081 -0.983585835 -0.0988040119 -0.150985599 -0.982701957 -0.152382508 -0.105244882 -0.873239756 0.487214714 0.00860922784 -0.108242586 0.950505197 0.291244626 -0.185763374 0.673173428 0.715771914 -0.981927752 0.179208323 0.0608462691 0.0524344854 -0.993069291 0.105185404 0.270173281 -0.95711118 0.104616307 0.175130874 -0.973516464 0.146951854 -0.543892384 0.812129498 -0.211250409 -0.0221526548 0.999423981 -0.0257101003 0.177446082 0.935976923 0.30407244 -0.406101853 0.913115263 -0.0360799842 -0.79452908 -0.604003072 -0.0624806173 -0.345590293 -0.934832633 -0.0815797597 -0.0321169198 -0.986717701 -0.159237638 -0.976571977 -0.19877851 -0.0824276805 -0.999913156 -0.0085764369 -0.0100072399 0.296236157 -0.625298738 -0.721973419 0.902729154 0.170324072 -0.395056635 0.777811646 0.0185289066 -0.628224254 0.70225662 0.709408522 0.0597924627 0.899897814 0.43350637 0.0474986285 0.142802477 0.968471885 0.20413141 -0.992129743 -0.108237796 -0.0629537627 -0.845529199 -0.532106578 0.0440788679 0.995693386 0.0229327418 -0.089826569 -0.562011898 -0.824810147 -0.0618935227 -0.927854121 -0.183661595 0.324584574 -0.563623965 -0.0439030826 -0.82486397 -0.625394642 -0.106472403 -0.773010492 -0.857666552 -0.0849895403 0.507133961 -0.700103521 -0.444105119 0.559129357 0.32164672 0.940994322 -0.105228648 0.885225296 0.236293137 -0.400676519 -0.113040045 0.991399646 -0.0659449697 -0.79602915 0.409213781 0.445961505 -0.786842823 0.206130579 0.581711769 0.774363399 -0.45745486 -0.43714577 -0.493242711 -0.794495106 0.354244441 -0.742735445 0.397417486 0.538890898 -0.729168117 0.410404027 0.54761523 -0.883434117 0.223080993 0.412042439 0.699234366 -0.578037798 -0.420646578 0.815063477 -0.393726289 -0.425030798 -0.919102013 0.158164293 0.360881567 0.925204992 -0.0249478035 -0.378646731 0.935432076 -0.10777197 -0.336677939 0.989315927 0.0322456509 -0.142176583 0.0313057937 -0.988160431 0.15019609 -0.690452039 0.451994121 0.564780772 0.201504558 0.957785666 0.205042809 0.93622452 0.192640305 -0.293893427 0.787982345 -0.0140759172 -0.615536928 0.914776325 0.309647113 -0.259428144 0.142130867 0.960233867 0.240311712 0.65715754 0.728312075 0.194179103 -0.263474703 0.96203351 -0.0712221861 -0.182659239 0.983175099 -0.00151011802 -0.109090492 0.993666708 -0.0269389506 -0.18366614 0.982988358 -0.000772378815 -0.776625872 0.628436267 -0.0438190699 -0.718335032 0.695277452 -0.0241674203 -0.276165098 0.75427413 0.595653772 -0.172921717 0.548356652 0.818170547 -0.107405856 -0.977594674 0.18103224 0.272990614 -0.95881319 0.0784435123 0.21106559 -0.968076885 0.135197997 -0.179827228 -0.970884502 0.15825738 0.806274593 -0.4808833 0.344488859 0.984862506 -0.0777552798 0.154919252 0.748822451 0.0224119965 0.662391603 -0.253470302 0.966986835 0.0262528453 0.283373684 -0.954922616 0.088442862 -0.90755856 -0.419878185 -0.00630853884 0.565088809 0.739887655 -0.365021825 0.202796176 0.974026859 -0.100724131 0.399718106 0.671773493 0.6236552 0.876900136 0.478487015 0.0457858182 0.400941521 0.695780158 0.595932782 0.108382612 -0.971724987 -0.209770739 0.147384852 -0.987200379 -0.0609352924 0.361263782 0.923034847 0.13226907 0.294931501 0.954744339 -0.0384536795 -0.108663253 0.993775785 -0.0245356094 -0.432504207 -0.895966053 -0.100920342 -0.223487392 -0.969697714 -0.0986901894 -0.3102566 -0.928259313 -0.205123112 0.142059132 -0.969449282 0.199968129 -0.347560078 -0.93765527 0.00213562115 0.451685876 0.807043731 0.380342364 0.61315918 -0.70769316 0.351007462 -0.321600527 -0.666405499 -0.672663987 0.316952467 -0.0907363966 -0.944091141 -0.345480949 -0.0925451145 -0.933851302 0.054359328 -0.998466909 -0.0104334038 0.99495542 0.100278586 0.00281456579 0.848376989 0.333689034 -0.410984337 0.879512846 0.474917471 0.0301744845 -0.996343672 -0.051459562 -0.0681993663 -0.671931863 -0.740541518 -0.0102844257 -0.511515975 0.854416251 0.0912377164 -0.70442903 0.709132135 0.0301891379 -0.687877357 -0.719235241 0.0975982547 0.819720447 0.00861820858 -0.57269901 -0.00613359036 -0.999872208 0.014763833 0.237069517 -0.950511575 -0.200812906 -0.0572801791 -0.990611196 -0.124130681 0.364353627 0.862242341 0.351830244 0.928468823 0.329024345 -0.172303811 -0.718003213 0.608404756 -0.338105023 0.230290592 0.957684159 -0.172647864 -0.707196236 -0.657993257 -0.258685708 -0.430076569 -0.807244182 -0.404216558 0.0903920904 0.995856762 -0.00993023627 0.165112585 0.986172616 -0.0141925225 0.615665793 0.735762954 -0.282149822 -0.772416592 -0.117329471 -0.624184608 -0.173488721 0.96943891 -0.173464373 -0.432663292 0.314244509 -0.845016479 -0.0433212742 -0.930997789 -0.362445086 -0.968855321 0.239502594 -0.0629112199 -0.205254942 -0.950839937 -0.231891766 -0.298520029 -0.888826907 0.347667217 0.354805678 0.93484664 0.0132174483 0.283210188 0.950150073 -0.130410403 0.134369865 0.986367643 0.0949927419 -0.0877107456 0.939546585 -0.33099702 -0.142979011 0.892846107 -0.427063018 -0.1228991 -0.989764214 -0.0725435093 0.0922693238 0.992276132 0.0829120651 -0.124728292 -0.980060756 -0.154673114 6.83271282e-05 -1 8.39577915e-05 0.299218655 0.193325788 -0.934394658 0.0819047689 -0.99663949 -0.00114029297 -0.823195994 0.539208353 -0.177771449 -0.132162541 -0.964773595 -0.227475226 0.690249145 0.284849286 -0.665144324 0.792353213 -0.0371105522 -0.608932853 0.769411922 -0.112714902 -0.628729403 -0.759523928 0.154428735 0.631882191 0.954148114 0.065615952 -0.292054713 -0.414837956 0.908892155 -0.042714078 0.214512184 0.948693514 -0.232303947 0.477049559 -0.870352626 0.122106746 -0.384059161 0.238053873 -0.892092466 -0.303580284 -0.946364582 0.110603161 0.411260486 -0.704663455 0.578199148 0.682886481 -0.255819887 0.6842677 -0.137015268 -0.851148069 0.50672847 0.352699101 -0.202623397 -0.913535476 0.266992956 -0.963567972 0.0158586837 -0.104265399 -0.962000728 -0.252355546 0.651943743 0.160954833 -0.740987837</float_array>
          <technique_common>
            <accessor source="#normals_array" count="227" stride="3">
              <param name="X" type="float" />
              <param name="Y" type="float" />
              <param name="Z" type="float" />
            </accessor>
          </technique_common>
        </source>
        <vertices id="vertices">
          <input semantic="POSITION" source="#positions" />
        </vertices>
        <triangles material="qmat_76551a3993c45b27" count="145">
          <input semantic="VERTEX" source="#vertices" offset="0" />
          <input semantic="NORMAL" source="#normals" offset="1" />
          <p>0 0 1 0 2 0 3 1 4 1 1 1 5 2 2 3 6 4 7 5 8 6 9 7 11 9 16 15 17 16 4 17 17 18 16 19 4 17 16 19 1 20 2 21 11 21 0 21 2 3 1 20 18 22 1 20 16 19 18 22 16 19 19 23 18 22 16 24 0 25 20 26 16 24 20 26 21 27 25 34 21 35 26 36 27 37 19 38 28 39 25 34 29 40 19 23 28 41 30 42 26 36 31 43 32 44 30 45 31 43 30 45 33 46 32 44 34 47 30 45 21 48 35 49 32 50 25 34 26 36 27 51 28 39 29 52 27 37 26 36 30 42 27 51 27 51 30 42 19 23 32 50 33 53 28 41 33 53 30 42 28 41 10 8 35 49 17 18 12 10 17 16 47 65 33 53 32 50 49 67 32 50 50 68 51 69 51 69 50 68 52 70 48 66 52 75 50 76 47 65 58 78 53 71 59 79 60 80 61 81 47 65 49 82 62 83 47 65 62 83 63 84 32 50 51 69 49 67 47 65 63 84 60 85 53 94 69 95 70 96 69 95 67 93 68 92 70 97 71 98 58 78 51 69 71 99 69 95 58 78 71 98 53 71 19 23 75 104 76 105 19 38 20 26 34 47 19 38 34 47 28 39 77 106 34 47 78 107 30 45 34 47 77 106 30 45 77 106 79 108 75 104 80 109 81 110 82 111 78 111 80 111 82 112 80 109 75 104 23 113 76 114 81 115 75 116 23 29 78 117 75 116 22 28 23 29 23 113 81 115 78 118 78 119 81 120 83 121 81 122 80 122 83 122 77 106 78 128 82 129 19 23 82 112 75 104 60 85 59 130 79 108 63 84 62 83 59 130 59 79 61 81 82 112 30 42 59 79 82 112 60 85 79 108 90 134 47 65 90 134 58 78 92 142 51 69 66 143 70 97 66 89 68 147 69 95 68 92 66 143 61 161 95 159 88 162 95 159 61 161 89 164 77 106 100 169 101 171 90 134 102 172 66 89 79 108 77 106 104 174 104 174 105 175 102 172 90 134 104 174 102 172 109 181 101 171 108 182 105 175 107 183 102 172 105 175 109 181 114 189 7 5 11 9 8 6 20 26 0 25 7 5 0 25 11 9 7 5 12 10 11 9 17 16 2 3 10 8 11 192 11 193 10 8 4 17 16 194 11 194 3 194 11 193 4 17 3 195 8 6 12 10 36 54 0 196 3 196 1 196 16 24 3 197 0 25 21 27 20 26 19 38 16 19 25 34 19 23 20 26 7 5 9 7 26 198 21 27 29 52 29 40 25 34 27 51 29 52 21 27 19 38 116 199 21 200 25 201 16 19 116 202 25 34 21 27 32 203 16 24 17 16 21 200 116 199 32 44 17 16 116 199 17 18 35 49 21 48 16 19 32 204 116 202 28 39 26 198 29 52 32 44 28 39 34 47 10 8 50 68 35 49 4 17 10 8 17 18 35 49 50 68 32 50 47 65 17 16 32 44 47 65 33 46 49 82 47 65 31 43 33 46 32 44 31 43 47 65 50 68 10 8 57 206 57 206 10 8 5 2 51 69 52 70 71 99 62 83 49 82 30 45 49 67 63 207 30 42 60 139 49 67 51 69 63 207 49 67 60 139 47 65 60 85 90 134 53 71 70 97 68 147 69 209 71 209 70 209 20 26 75 116 78 117 78 107 34 47 20 26 62 83 30 45 79 108 19 23 30 42 82 112 76 211 20 26 22 28 75 116 20 26 76 211 81 212 76 211 22 28 22 213 75 104 81 110 100 169 82 129 83 121 59 130 62 83 79 108 30 42 63 207 59 79 58 78 66 89 70 97 51 69 69 95 66 143 93 140 60 139 92 142 61 81 60 80 91 217 58 78 90 134 66 89 60 139 51 69 92 142 77 106 82 129 100 169 104 174 90 134 79 108 109 181 104 174 101 171 77 106 101 171 104 174 114 189 109 181 108 182</p>
        </triangles>
        <triangles material="qmat_d857164d36b11abb" count="130">
          <input semantic="VERTEX" source="#vertices" offset="0" />
          <input semantic="NORMAL" source="#normals" offset="1" />
          <p>10 8 2 3 5 2 11 9 12 10 8 6 13 11 5 12 14 13 13 11 14 13 15 14 20 26 9 7 22 28 18 22 6 4 2 3 23 29 22 28 24 30 14 13 6 31 18 32 14 13 18 33 15 14 36 54 37 55 38 56 9 7 39 57 24 30 40 58 41 59 42 60 39 57 38 56 40 58 38 56 37 55 40 58 41 59 43 61 44 62 40 58 44 62 45 63 46 64 45 63 44 62 13 11 15 14 48 66 53 71 54 72 36 54 53 71 55 73 56 74 54 72 53 71 56 74 57 77 48 66 50 76 12 10 53 71 36 54 55 86 64 87 65 88 66 89 67 90 52 75 66 89 55 86 67 90 55 91 68 92 67 93 53 94 67 93 69 95 71 98 67 100 53 71 72 101 43 61 41 59 37 55 72 101 41 59 54 72 72 101 37 55 55 73 73 102 56 74 56 74 74 103 72 101 18 22 19 23 76 105 84 123 80 123 78 123 85 124 86 124 87 124 80 125 23 126 83 127 15 131 88 132 89 133 91 135 89 136 61 137 91 138 15 138 92 138 60 139 93 140 15 141 92 142 66 143 91 144 15 131 89 133 92 145 92 142 89 146 93 140 66 89 64 87 55 86 94 148 84 149 15 14 89 150 84 151 95 152 23 153 64 87 83 154 96 155 15 14 84 149 61 156 15 14 96 155 88 132 96 157 89 133 96 158 95 159 82 160 61 156 96 155 82 163 43 61 97 165 44 62 46 64 44 62 97 165 23 29 98 166 65 167 98 166 45 63 46 64 23 29 24 30 98 166 65 167 98 166 73 102 83 154 64 87 99 168 100 169 83 121 99 170 99 168 64 87 103 173 102 172 106 176 103 173 101 171 99 170 102 177 101 178 107 179 108 180 99 170 110 184 102 177 106 176 110 185 111 186 112 187 99 170 113 188 111 186 110 185 112 190 107 183 105 175 115 191 9 7 8 6 39 57 6 31 14 13 5 12 13 11 57 77 5 12 8 6 36 54 38 56 22 28 9 7 24 30 94 148 15 14 18 33 39 57 8 6 38 56 24 30 39 57 40 58 40 58 37 55 41 59 45 63 98 166 24 30 42 205 41 59 44 62 24 30 40 58 45 63 44 62 40 58 42 60 13 11 48 66 57 77 12 10 47 65 53 71 52 75 67 90 71 208 55 73 53 71 68 147 54 72 56 74 72 101 36 54 54 72 37 55 56 74 73 102 74 103 55 73 65 167 73 102 43 61 72 101 74 103 74 103 97 165 43 61 94 148 18 33 76 210 94 148 76 210 23 126 80 125 94 148 23 126 84 214 94 148 80 125 83 121 84 151 78 119 83 121 82 129 84 151 48 66 93 215 91 135 48 66 91 135 52 75 91 216 60 216 15 216 52 75 91 135 66 89 93 215 48 66 15 14 91 135 93 215 89 136 23 153 65 88 64 87 89 218 96 218 84 218 61 161 88 162 15 219 88 162 95 159 96 158 82 129 95 152 84 151 74 103 46 64 97 165 73 102 98 166 74 103 98 166 46 64 74 103 66 89 103 173 64 87 117 220 99 221 103 222 101 171 100 169 99 170 104 174 109 181 105 175 117 220 103 222 106 176 66 89 102 172 103 173 107 179 101 171 102 177 110 184 99 170 112 187 102 172 110 185 106 176 112 223 113 223 111 223 113 224 99 221 117 220 113 224 117 220 111 186 117 220 106 176 111 186 108 180 107 179 115 225 115 226 114 189 108 182 105 175 114 189 115 191</p>
        </triangles>
      </mesh>
    </geometry>
  </library_geometries>
  <library_visual_scenes>
    <visual_scene id="scene">
      <node id="FL_thigh_dae">
        <instance_geometry url="#geometry">
          <bind_material>
            <technique_common>
              <instance_material symbol="qmat_76551a3993c45b27" target="#qmat_76551a3993c45b27" />
              <instance_material symbol="qmat_d857164d36b11abb" target="#qmat_d857164d36b11abb" />
            </technique_common>
          </bind_material>
        </instance_geometry>
      </node>
    </visual_scene>
  </library_visual_scenes>
  <scene>
    <instance_visual_scene url="#scene" />
  </scene>
</COLLADA>