<?xml version='1.0' encoding='utf-8'?>
<COLLADA xmlns="http://www.collada.org/2005/11/COLLADASchema" version="1.4.1">
  <asset>
    <created>2026-09-14T00:00:00Z</created>
    <modified>2026-09-14T00:00:00Z</modified>
    <unit name="metre" meter="1" />
    <up_axis>Z_UP</up_axis>
  </asset>
  <library_effects>
    <effect id="qmat_d857164d36b11abb_effect">
      <profile_COMMON>
        <technique sid="common">
          <lambert>
            <emission>
              <color sid="emission">0 0 0 1</color>
            </emission>
            <diffuse>
              <color sid="diffuse">0.85 0.85 0.85 1</color>
            </diffuse>
            <reflectivity>
              <float sid="specular">0.5</float>
            </reflectivity>
          </lambert>
        </technique>
      </profile_COMMON>
    </effect>
  </library_effects>
  <library_materials>
    <material id="qmat_d857164d36b11abb" name="qmat_d857164d36b11abb">
      <instance_effect url="#qmat_d857164d36b11abb_effect" />
    </material>
  </library_materials>
  <library_geometries>
    <geometry id="geometry" name="FR_hip_dae">
      <mesh>
        <source id="positions">
          <float_array id="positions_array" count="420">0.0479596667 0.0344685391 0.0227076449 0.0284300745 0.0342089683 0.0460420623 0.0448865294 0.00772312284 0.0282307807 0.0344732925 0.00788576715 0.0404223129 0.0546349138 0.00552224414 0.0260134917 0.0508772805 0.00775717385 0.0146333929 0.0599049889 0.00561588164 0.000462989236 0.0587794408 -0.00324328593 0.0183938779 0.0343444459 0.00556262536 0.0502478555 0.0226769019 -0.00347864139 0.0566901304 0.0329864137 -0.00214642589 0.0508448295 0.0448721834 -0.0033463412 0.0408170111 0.0482020341 -0.00558782928 0.0230280198 0.0534885898 -0.00561064528 0.00205690227 0.0535813235 -0.0211780481 0.00475404179 0.04110853 -0.0212055333 0.0345660038 0.0369432867 -0.0021700873 0.0474374518 0.0385642312 -0.00216066069 0.0460416116 0.0378127098 -0.00216516014 0.0466887653 0.0397218615 -0.0215138495 -0.0356505774 0.0116890073 -0.00580298249 0.0530273765 0.0352926143 -0.00549840182 0.0406610817 0.0170577168 -0.0214020722 0.0511814542 -0.0105994791 -0.0214804336 0.0526756309 -0.00442066928 0.0344287567 0.053342741 -0.0264097732 0.0139562683 0.0473211706 -0.0106537212 0.0105931703 0.0523521304 0.00844669621 0.0057398784 0.0599693917 -0.00994306616 -0.00201636599 0.0604774021 -0.0240909699 0.0344537422 0.0476810075 0.0513172597 0.00787587557 -0.0133265741 0.0515505113 0.00566625455 -0.032713566 0.0447552055 0.0077170385 -0.0284578092 0.0342433229 0.0342667624 -0.0405297205 0.0341763981 0.00775850471 -0.040744409 0.0128889587 0.0344239138 -0.0517313033 0.0173822362 0.00778558757 -0.0508210137 0.0228791814 0.00568321068 -0.0560165085 0.0597087629 -0.00341194938 -0.00928541739 0.0498039126 -0.00333771063 -0.0344506763 0.0472038165 -0.00579813635 -0.025413163 0.0508810654 -0.0214844383 -0.0159092024 -0.00970239844 -0.00323913153 -0.0608606413 -0.0108433953 -0.0142813157 -0.0529444292 -0.0115535986 -0.0150569137 -0.0623671785 0.049299404 0.034442775 -0.0201497655 -0.00932272244 0.00545838941 -0.0614031702 -0.00257942616 -0.00555878086 -0.0538802333 0.0156501811 -0.0213920474 -0.0520515442 -0.0265272204 -0.0213393681 -0.0480421856 -0.0122077512 0.0140695469 -0.0631209612 -0.0107751833 0.0104235699 -0.0511374883 -0.041716069 0.0343699269 0.0335572138 -0.0532940552 0.0344461724 0.00823440123 -0.0160546508 0.0344472155 -0.0518603511 -0.056249328 0.0243744161 0.0468466729 -0.0320414081 0.0194934867 0.054026857 -0.036313653 0.0147869838 0.0516435876 -0.0429088585 0.0106912469 0.0542428382 -0.0653992817 0.0145174582 0.0488583781 -0.0504108071 0.0138980532 0.0186281241 -0.038972646 0.0140656279 0.0368054807 -0.0575276911 0.0622590072 0.0107365074 -0.0687367171 0.0532602407 0.00895078946 -0.0577308796 0.0507111251 0.0114325443 -0.0683394372 0.0618664771 0.0103977965 -0.0684346184 0.0623446517 -0.0105011398 -0.0686220303 0.0526135899 -0.00935950968 -0.058150176 0.0368233249 0.0368318707 -0.0654294342 0.0385023057 0.0334934406 -0.0579454601 0.0459038541 0.0249357261 -0.0688691139 0.0383508094 0.0366861001 -0.0690757409 0.0483555757 0.022153737 -0.0899969786 0.0426826887 0.0325757712 -0.0651992783 0.0507733189 0.00779330498 -0.0654652044 0.0485955812 -0.0151805505 -0.0899999663 0.0512545444 0.0150639089 -0.068738319 0.0201919451 0.0494528711 -0.0899999663 0.0247497912 0.0477341413 -0.0899628177 0.00321392249 0.0535743535 -0.05361614 0.014084165 -0.0076816408 -0.0899999663 -0.0499103181 -0.0202541389 -0.0453300104 -0.021289045 0.031369321 -0.0539724566 -0.0212409422 0.000472992222 -0.0301950406 -0.0146469129 0.0460163914 -0.0395304263 -0.0145536028 0.05056604 -0.0289569087 -0.0189496949 0.0553986952 -0.0495916866 -0.0232674796 0.0483400896 -0.0404444598 -0.00414762553 0.0560452007 -0.0649122298 -0.0145220226 0.0480292551 -0.065492548 -0.0260733813 0.0456571542 -0.068277359 -0.0103888297 0.0524774641 -0.0493579842 -0.0141771873 0.0242693778 -0.0899808332 -0.0221235026 0.0498039983 -0.0653284565 -0.0144531075 -0.0475992225 -0.0540939122 -0.0141915362 -0.0100856181 -0.0899782851 -0.0393082649 0.0364091955 -0.0657693967 -0.0416508131 0.0331263505 -0.0899999663 -0.051293008 0.0156042948 -0.0657052249 -0.0522370189 0.0112715904 -0.0656182319 -0.0528934859 -0.00851197354 -0.0530166887 0.0231725518 -0.0476945788 -0.0274260584 0.0182716791 -0.0557967424 -0.0414173491 0.00504181813 -0.0556931496 -0.0323845074 0.014060542 -0.0512199365 -0.0461329669 0.013891262 -0.0279786829 -0.0365737528 0.0139348758 -0.0395965986 -0.0423336923 0.0343501605 -0.0331282914 -0.0241932292 0.0139072239 -0.0479294397 -0.0690555051 0.0468510538 -0.0256398339 -0.0578613095 0.0463220216 -0.0239994451 -0.0688928813 0.033031147 -0.0421249531 -0.0578465164 0.0343714468 -0.0390191674 -0.0899999663 0.0519222766 -0.0130131822 -0.0899995863 0.0338255279 -0.0418948568 -0.0652840212 0.0380784534 -0.0344656594 -0.0579340719 0.0509286523 -0.00982098188 -0.0577035844 0.0619183406 -0.0104995137 -0.0650070086 0.0141630145 -0.0484432466 -0.0684464127 0.00915221497 -0.0527460203 -0.0899999663 -0.00129205687 -0.0538096279 -0.0654963776 -0.0281620994 -0.0445018075 -0.0378346108 -0.0157157611 -0.0514716208 -0.0306561533 -0.0138349952 -0.0454583988 -0.0457573421 -0.0141778635 -0.0297443159 -0.0487894416 -0.0213854611 -0.0236294437 -0.0521353073 -0.0237127356 -0.047956612 -0.032925345 -0.0199954733 -0.0534919724 -0.0420980193 -0.0108000683 -0.054464478 -0.0684239417 -0.0160675552 -0.0506701693 -0.0899808109 -0.0307118725 -0.0441023856 -0.0657372475 -0.0422773324 -0.0324049778 0.0528124645 0.0344448574 -0.000232647566 -0.0118624857 0.0146300336 0.0628935471 -0.012137223 -0.014716344 0.0629931837 -0.010423189 -0.0111274617 0.0528608337 0.0146445213 0.00809840765 0.0507991761 0.0278240368 -0.00354072265 -0.054655917 0.0264422577 -0.00558551308 -0.0472092293 -0.051770065 0.0334606133 -0.0150686903</float_array>
          <technique_common>
            <accessor source="#positions_array" count="140" stride="3">
              <param name="X" type="float" />
              <param name="Y" type="float" />
              <param name="Z" type="float" />
            </accessor>
          </technique_common>
        </source>
        <source id="normals">
          <float_array id="normals_array" count="768">0.899120331 0.033785779 0.436395645 0.522670448 0.0181720946 0.852341115 0.652380466 0.619834006 0.436125606 0.526780665 0.614471316 0.587305009 0.72292316 0.579751968 0.375858754 0.302287847 0.95061326 0.0704025701 0.808977365 0.587830961 -0.00322127854 0.838234007 -0.491289258 0.236640304 0.476309747 0.57034409 0.669206023 0.301759064 -0.523961008 0.796496272 0.518195271 -0.482043922 0.706475258 0.649172366 -0.513289452 0.561345816 0.264311701 -0.953950524 0.14183712 0.999897242 0.00355041726 -0.0138879772 0.909025669 -0.037916258 0.415011644 0.996652424 0.000110332796 0.0817553625 0.774841368 -0.0488080159 0.630268753 0.597408712 -0.285386682 0.749437928 0.643285275 0.0226964671 0.765290082 0.652536452 0.000153675355 0.757757366 0.652536511 0.000154030393 0.757757306 0.0112270415 -0.999928296 0.00416892162 -0.000798305031 -0.999998748 0.00134839956 0.00884409063 -0.999946952 0.0052768169 0.15392819 -0.579898536 0.800014913 0.19924587 -0.949709058 0.241565213 0.33314836 -0.0402120203 0.942016542 0.640573263 -0.0134998597 0.767778397 0.00516960211 -0.999983191 0.00263655791 -0.132396162 -0.679212809 0.721901059 0.00185270887 0.999988317 0.00446695415 0.0112532796 0.999725759 0.0205384325 0.00167076569 0.999995232 0.00260497862 -0.0403856039 0.0138248587 0.999088526 -0.47399646 0.0442369916 0.879414856 -0.134896725 -0.00590378139 0.990842104 0.118522421 0.500244319 0.857734263 -0.0039819018 -0.170615286 0.985329688 -0.0010758366 0.999998629 0.00126686972 0.353191674 0.931884885 -0.0827416033 0.711354256 0.544984221 -0.443809986 0.208107784 0.96880585 -0.134559855 0.650251925 0.0324303471 -0.75902611 0.840781927 0.00194303878 -0.541370511 0.643961668 0.00457028672 -0.765044093 0.215853199 0.0030430234 -0.976421058 0.21880506 0.644933999 -0.732246161 0.234063312 0.929457605 -0.285171717 0.28770864 0.565403938 -0.773008466 0.846110225 -0.507977128 -0.161420763 0.657686472 -0.567424476 -0.495457292 0.320243329 -0.947274089 0.0107682543 0.888425469 0.0143854078 -0.458795488 0.965021014 0.073803857 -0.251570016 0.738401353 -0.00790921692 -0.674315095 0.684898138 -0.266702235 -0.678074062 0.229518116 -0.360521317 -0.904071808 0.454238623 -0.173109978 -0.8738994 0.00212000567 0.999994576 -0.00251533929 0.0194036122 0.999547899 -0.0229670219 0.00242789323 0.999991298 -0.00339709525 0.522605836 0.288297325 -0.802351415 0.180093423 -0.602545798 -0.777499139 0.209078118 -0.640643299 -0.738825083 -0.344792545 -0.645284951 -0.68170774 0.396447539 0.674542367 -0.622753501 0.192519218 0.654659748 -0.730997205 -0.0113122175 0.999902546 0.00818308815 -0.0164231788 0.999857485 -0.00391727639 -0.000940061 0.999998987 -0.00106464105 0.27918753 -0.396780163 -0.874425411 0.385761023 0.113469392 -0.915594399 0.216716185 0.714505315 -0.665218949 -0.270759344 0.356229514 0.894309759 -0.0404965878 0.524556994 0.850411654 -0.192339778 0.193890542 0.961983323 0.226905212 -0.412145287 -0.882411659 -0.783420563 0.0328348093 0.620623946 -0.936242759 -0.00427887356 0.351327717 -0.735337079 0.0152861169 0.677529097 0.0174222551 0.999582648 -0.0230439641 0.0124217439 0.99987036 -0.010246966 0.0255927667 0.999650955 -0.00655419379 -0.451272339 0.0308805536 0.891851842 -0.131348118 -0.033002425 0.990786791 -0.025619708 0.848279715 0.52892828 -0.0148387374 0.676812828 0.736005545 -0.0369928256 0.9990502 0.0230275765 -0.0136515768 0.999845803 0.0110432822 0.0166889504 0.999850452 -0.00453886343 -0.999250233 0.0385334454 -0.00375348236 -0.999645054 0.0265762918 0.00185119663 -0.998842418 0.0474439561 -0.0079317363 0.22363767 -0.628054261 -0.745341599 0.724960387 -0.510192633 -0.46274817 0.296485871 -0.851978242 -0.431542784 0.0556417145 0.707076848 0.704944193 0.087503545 0.870219827 0.484830409 0.0550743714 0.895158768 0.442332029 -0.000331185292 0.788151383 0.615481377 0.678438723 -0.728417754 -0.0955430716 0.0982825309 -0.970922887 -0.218287215 0.999990225 0.00378772034 0.00229099044 -0.0435942076 0.965663016 0.256114185 -0.000415696559 0.377978057 0.92581445 0.065965794 0.687824249 0.722873688 0.00266708201 0.469387293 0.882988334 0.0248300135 0.0666621402 0.997466624 -0.984340131 0.0201659277 0.175122425 -0.992392004 -0.0168261174 -0.121962927 -1 1.03436423e-05 3.80866113e-05 -1 -9.78698226e-05 -8.61795343e-05 -0.999999881 -7.07152867e-05 0.000537233835 -0.630124569 -0.61303848 0.476578206 -0.00223271851 -0.999995947 0.00176380959 -0.473516732 -0.417575091 0.775508165 0.304944783 -0.0823572129 -0.948802412 0.402652949 -0.0369689241 -0.914605856 0.149051338 0.100819573 -0.983676314 -0.195162982 -0.0726248249 0.978078246 -0.115588866 -0.34313494 0.932146788 -0.30685091 -0.277898133 0.910282969 0.120064639 0.175604135 -0.977111876 0.130002528 0.193177134 -0.972513199 -0.0192045793 -0.167726174 0.985646546 -0.92827481 -0.113871254 0.354032844 -0.995534062 0.0452519208 0.082850337 0.0248638652 -0.415680647 0.909170747 0.0101728868 -0.494226336 0.869273722 0.00742402952 -0.999925852 -0.00965218898 0.0146940248 -0.999234557 0.0362539217 0.0126908813 -0.999906361 -0.00511726458 0.0348966271 -0.99938488 -0.00348236109 -0.999999583 -0.000398851698 0.000830459292 -0.999983191 -0.000152137101 0.00580000086 0.019251775 -0.741276264 0.670923948 0.0254481938 -0.781990051 0.622771144 -0.0260173231 -0.963977635 0.264707834 0.00059550436 -0.97637713 0.216072649 0.999352872 -0.0359674767 -0.000433294976 0.999277771 -0.0329644084 0.0189018808 0.999856293 -0.0158894453 0.00590618048 -0.0194266252 -0.987817228 -0.154401258 -0.0635077879 0.411121547 -0.909365654 -0.303582072 0.31401059 -0.899575055 -0.190600738 0.0982166231 -0.97674197 0.220451951 0.852864206 0.473311335 0.446688354 0.362858415 0.817803979 0.201253518 -0.287489772 0.93640089 0.0125051895 0.999918699 0.00250405353 0.0147607792 0.999760985 0.0161287971 -0.76031971 0.0521863997 -0.647449195 -0.652418613 0.0457641222 -0.756475747 -0.86479193 -0.00512229791 -0.502104282 0.118214808 0.961132646 -0.24949801 -0.268809855 0.000516275992 -0.963193119 -0.437355101 0.00118914095 -0.899288118 0.481172353 0.32030803 0.816012204 0.0419315062 0.865020037 -0.499982119 0.10292808 0.87808764 -0.467298537 0.0362153649 0.618255854 -0.785142124 0.10583362 0.719136655 -0.686761737 -1 -1.94250242e-05 -4.81101438e-07 -1 1.24635767e-06 -2.47850903e-06 -1 -2.88500178e-05 7.53969434e-05 -0.0584702566 0.964821696 -0.256320715 -0.0471274108 0.617233455 -0.78536737 0.190688223 -0.867291033 0.459830701 0.128341958 -0.729258478 0.672094047 0.173608109 -0.605610371 0.776592791 0.117146879 0.938666105 -0.324318558 0.999748468 -0.0204510856 -0.00920609664 0.999780118 -0.0191513002 -0.00854185782 0.999719501 -0.0215711407 -0.00977848936 0.159324944 -0.976861179 0.142680854 0.1719051 -0.94364208 0.282821983 -0.0238982197 0.9996773 0.00861216243 0.0105584702 0.999934793 0.00435528439 -0.051351998 0.19262287 -0.979928255 -0.0340422913 -0.00859492552 -0.99938345 0.222505808 -0.371039301 0.90156585 0.145901561 0.216326207 0.96535784 0.156444162 0.194562003 0.968334079 0.294244587 -0.0365309343 0.955031753 0.0584284291 -0.985604763 0.158648625 0.0319486372 -0.964152098 0.263419837 -0.971490979 -0.167183608 -0.168092072 -0.783410549 -0.166530401 -0.598778367 -0.892372191 -0.0836060941 -0.44348827 0.269638479 -0.0597385876 0.961106837 0.359152794 -0.0283904783 0.932846844 -0.184310466 -0.196881145 -0.962947249 -0.256950229 -0.351522774 -0.900226831 -0.0877101272 -0.410075396 -0.907824397 -0.613423407 -0.0665597394 -0.786944389 0.00830808096 -0.996646166 0.0814089328 0.101183131 -0.977524817 0.184951976 -0.000999798416 -0.99999398 0.00331864459 0.0140134273 -0.999901831 5.37331543e-05 -1 -0.000136239541 -0.000197354821 -0.0390709937 -0.29084298 -0.955972731 -0.0274463389 -0.571137726 -0.820395231 0.00639555091 -0.526928306 -0.849885643 -0.999997616 -0.00124696433 -0.00180748664 -0.0347617902 -0.931864142 -0.361138225 0.0209802911 -0.796052873 -0.604863346 0.9998914 0.00615142845 0.013392265 0.974245727 -0.0190628488 0.224681705 0.97854352 -0.0297872107 -0.203875571 0.646780789 0.12765649 0.751916468 0.646781445 0.127666175 0.751914322 -0.0306710023 -0.999352217 0.0188261494 0.88820827 -0.0172051806 0.459118813 0.33992672 0.125417575 0.932051659 0.376972467 -0.623723805 0.684733808 -0.0602477379 -0.213483363 0.975087225 0.683778405 -0.716499567 -0.138113722 0.262978017 -0.0216034204 0.964559913 0.125176474 0.941541612 0.312778175 -0.114976697 0.681633174 0.722604036 0.991856575 0.103617758 0.0740535185 0.920801044 0.0257689822 -0.389180452 0.00239160238 0.99999702 -0.000526388641 0.411352783 -0.508958578 -0.756141543 0.511209965 0.00738947093 -0.859424114 0.30368337 -0.940477967 -0.152569875 0.154103577 -0.959717631 -0.23493439 0.16275242 0.952013552 -0.259194553 0.110549182 0.989278853 0.0954268053 0.21225892 0.867837727 -0.449225783 -0.0249134433 -0.164637536 0.98603946 -0.999790609 0.0198403895 0.00500742253 0.999985635 0.00508638611 0.0017072456 0.0231316332 -0.999089181 -0.0358577669 0.413084328 -0.00754326349 -0.910661519 -0.00804588851 -0.999940753 -0.00733252894 0.999887884 -0.0148796169 -0.00168768992 0.998775542 -0.0492774025 -0.00438272208 -0.999999881 -0.000250911369 0.000429586886 -0.999998569 0.00169701967 6.538038e-05 -0.959990323 0.0289244223 -0.278535485 -0.0227038804 0.99970746 -0.00833631773 -0.196087778 0.979085505 -0.0542324819 0.999947906 0.00937371515 0.00403372338 0.0418763608 0.973520339 -0.224732071 -0.0609610602 -0.115144111 -0.991476476 -0.0311852489 -0.0880036205 -0.995631874 -0.0298673697 -0.0868001282 -0.995777905 0.0396927483 0.999078035 -0.0163561758 0.999804735 -0.0180738326 -0.00799123291 -0.00229501026 -0.0615771562 -0.998099685 0.999949276 0.0092459498 0.00399763044 0.382902831 0.00313178683 0.923783302 0.999949515 -0.010033329 -0.000588516588 0.999667466 -0.0220172498 -0.013425325 0.999915481 -0.0105257677 0.00763017172</float_array>
          <technique_common>
            <accessor source="#normals_array" count="256" stride="3">
              <param name="X" type="float" />
              <param name="Y" type="float" />
              <param name="Z" type="float" />
            </accessor>
          </technique_common>
        </source>
        <vertices id="vertices">
          <input semantic="POSITION" source="#positions" />
        </vertices>
        <triangles material="qmat_d857164d36b11abb" count="276">
          <input semantic="VERTEX" source="#vertices" offset="0" />
          <input semantic="NORMAL" source="#normals" offset="1" />
          <p>0 0 1 1 2 2 2 2 1 1 3 3 2 2 4 4 5 5 4 4 6 6 5 5 6 6 4 4 7 7 8 8 9 9 10 10 4 4 11 11 7 7 11 11 12 12 7 7 13 13 12 14 14 15 12 14 15 16 14 15 10 10 9 9 16 17 16 17 9 9 11 11 8 8 17 18 11 11 10 10 16 17 18 19 10 10 18 19 17 20 15 21 19 22 14 23 9 9 20 24 21 25 20 24 22 26 21 27 21 27 22 26 15 16 15 21 22 28 19 22 20 24 23 29 22 26 24 30 1 31 0 32 24 33 25 34 26 35 27 36 28 37 9 9 22 28 23 29 19 22 29 38 24 30 0 32 30 39 31 40 32 41 33 42 32 43 34 44 35 45 33 42 36 46 34 47 32 41 31 40 34 47 31 40 37 48 31 40 38 49 39 50 6 6 7 7 38 49 7 7 13 51 38 49 13 13 14 15 40 52 40 52 14 15 41 53 40 52 41 53 19 54 42 55 43 56 44 57 45 58 33 59 35 60 36 46 37 48 46 61 47 62 48 63 43 56 43 56 48 63 49 64 50 65 51 66 46 61 50 65 46 61 44 57 52 67 29 38 53 68 29 38 0 32 53 68 53 68 0 32 54 69 55 70 56 71 57 72 56 73 55 74 58 75 55 70 57 72 59 76 52 77 60 78 61 79 59 80 61 81 60 82 24 33 29 83 25 34 62 84 63 85 64 86 65 87 62 88 66 89 65 90 67 91 63 92 68 93 69 94 70 95 71 96 70 97 72 98 71 96 72 98 73 99 74 100 64 101 70 95 74 100 69 94 75 102 73 99 72 98 76 103 71 96 77 104 68 105 73 99 78 106 71 96 77 104 78 106 79 107 71 96 78 106 77 104 69 94 68 93 59 76 53 108 80 109 60 78 68 93 55 70 59 76 68 105 77 104 55 74 55 74 77 104 58 75 73 110 81 111 78 112 82 113 83 114 19 22 84 115 82 113 23 29 85 116 86 117 87 118 88 119 87 120 86 121 89 122 87 118 90 123 77 104 79 107 91 124 92 125 83 126 82 113 79 107 93 127 91 124 91 124 93 127 90 128 89 129 94 130 92 131 58 75 91 124 88 119 92 131 94 130 95 132 78 112 93 133 79 134 78 112 81 111 93 133 93 127 96 135 97 136 97 136 98 137 99 138 90 139 97 140 99 141 99 138 98 137 100 142 101 143 102 144 103 145 104 146 102 147 101 148 105 149 106 150 104 146 107 151 106 152 105 153 102 144 50 65 103 145 106 150 108 154 104 146 54 155 108 156 106 152 51 66 50 65 104 146 104 146 50 157 102 147 108 154 51 66 104 146 109 158 110 159 111 160 111 160 110 159 112 161 113 162 114 163 76 164 113 165 109 158 114 166 110 167 115 168 112 169 116 170 110 159 109 158 117 171 64 172 116 173 116 174 75 175 110 167 112 169 115 168 101 148 112 161 101 143 111 160 80 176 105 149 118 177 76 164 114 163 81 111 114 166 119 178 120 179 115 168 118 180 101 148 94 181 121 182 122 183 123 184 94 130 122 185 95 186 124 187 125 188 122 183 126 189 127 190 128 191 127 192 126 193 123 194 43 56 49 64 43 195 123 195 44 195 123 184 122 185 44 196 125 197 49 64 19 22 44 57 127 192 128 191 103 145 128 191 119 178 124 187 49 64 125 188 124 198 94 130 123 184 114 163 120 199 81 111 119 178 128 191 129 200 95 186 125 188 83 126 95 132 94 130 124 198 120 179 129 200 130 201 129 200 126 193 121 202 81 111 120 199 130 203 100 142 81 204 131 205 98 137 81 204 100 142 132 206 0 0 5 207 3 3 4 4 2 2 132 206 5 207 30 208 5 207 0 0 2 2 3 3 8 8 4 4 4 4 8 8 11 11 30 39 5 5 6 6 7 7 12 12 13 51 8 8 10 10 17 18 18 209 16 210 11 11 17 18 18 209 11 11 11 11 21 25 12 12 12 14 21 27 15 16 14 23 19 22 41 211 11 11 9 9 21 25 28 212 133 213 134 214 20 24 28 37 135 215 135 216 28 212 134 214 20 24 135 215 23 29 1 1 24 33 136 217 135 215 84 115 23 29 3 3 1 1 136 217 136 218 8 8 3 3 8 8 27 36 9 9 27 36 8 8 136 218 9 9 28 37 20 24 26 219 27 36 136 218 28 37 27 36 26 219 26 220 133 213 28 212 24 33 26 35 136 217 45 221 132 206 30 208 32 43 45 221 30 208 132 222 45 58 0 32 36 46 33 42 34 44 33 42 45 221 32 43 36 46 34 47 37 48 37 48 31 40 137 223 48 63 138 224 19 54 137 223 31 40 39 50 30 39 6 6 31 40 31 40 6 6 38 49 38 49 40 225 39 50 38 49 13 51 40 225 39 50 40 225 137 223 40 225 138 226 137 223 40 52 19 54 138 224 54 69 0 32 45 58 42 55 46 61 137 223 137 223 47 62 42 55 48 63 19 22 49 64 42 55 47 62 43 56 138 226 47 62 137 223 46 61 37 48 137 223 54 69 45 58 35 60 54 155 35 45 36 46 47 62 138 224 48 63 51 66 36 46 46 61 54 155 36 46 51 66 44 57 46 61 42 55 108 156 54 155 51 66 133 213 56 73 58 75 29 83 52 77 61 79 57 72 26 227 25 228 59 80 57 72 25 228 29 83 61 79 25 34 133 213 58 75 134 214 52 77 53 108 60 78 56 71 133 229 57 72 59 80 25 228 61 81 57 72 133 229 26 227 72 98 70 97 64 86 71 96 68 105 70 97 72 98 64 86 63 85 62 84 65 230 63 85 65 90 66 231 67 91 70 95 69 94 74 100 76 103 63 85 113 165 76 103 72 98 63 85 118 177 59 80 60 82 75 102 69 94 59 232 58 75 77 104 91 124 73 110 76 164 81 111 134 214 58 75 88 119 135 216 134 214 84 233 85 116 134 234 86 117 134 214 88 119 86 121 134 214 85 235 84 233 23 29 82 113 19 22 84 115 92 125 82 113 84 233 85 235 92 131 85 235 89 129 92 131 89 122 85 116 87 118 88 119 91 124 87 120 83 126 92 125 95 186 87 120 91 124 90 128 94 236 89 237 90 139 90 128 93 127 97 136 93 133 81 111 96 238 96 238 81 111 98 239 97 136 96 135 98 137 101 148 118 180 104 146 80 109 139 240 105 153 53 68 107 241 139 242 118 177 105 149 104 146 139 240 107 151 105 153 106 152 107 151 54 155 107 241 53 68 54 69 109 158 111 160 114 166 115 243 75 102 59 232 113 165 63 85 67 244 110 167 75 175 115 168 113 165 67 244 109 158 67 244 116 170 109 158 67 245 66 246 116 247 116 174 74 100 75 175 66 89 62 88 117 248 117 171 62 249 64 172 66 246 117 250 116 247 64 101 74 100 116 174 80 109 53 108 139 240 119 178 101 143 103 145 118 251 115 243 59 232 114 166 111 160 119 178 111 160 101 143 119 178 118 177 60 82 80 176 128 191 50 65 44 57 103 145 50 65 128 191 44 252 122 183 127 190 19 22 83 114 125 197 124 187 123 194 49 64 122 183 121 182 126 189 129 200 128 191 126 193 120 179 119 178 129 200 130 201 129 200 121 202 100 253 90 139 99 141 130 201 121 202 131 205 131 254 94 236 100 253 121 255 94 236 131 254 94 236 90 139 100 253 130 201 131 205 81 204</p>
        </triangles>
      </mesh>
    </geometry>
  </library_geometries>
  <library_visual_scenes>
    <visual_scene id="scene">
      <node id="FR_hip_dae">
        <instance_geometry url="#geometry">
          <bind_material>
            <technique_common>
              <instance_material symbol="qmat_d857164d36b11abb" target="#qmat_d857164d36b11abb" />
            </technique_common>
          </bind_material>
        </instance_geometry>
      </node>
    </visual_scene>
  </library_visual_scenes>
  <scene>
    <instance_visual_scene url="#scene" />
  </scene>
</COLLADA>