<?xml version='1.0' encoding='utf-8'?>
<COLLADA xmlns="http://www.collada.org/2005/11/COLLADASchema" version="1.4.1">
  <asset>
    <created>2026-09-14T00:00:00Z</created>
    <modified>2026-09-14T00:00:00Z</modified>
    <unit name="metre" meter="1" />
    <up_axis>Z_UP</up_axis>
  </asset>
  <library_effects>
    <effect id="qmat_76551a3993c45b27_effect">
      <profile_COMMON>
        <technique sid="common">
          <lambert>
            <emission>
              <color sid="emission">0 0 0 1</color>
            </emission>
            <diffuse>
              <color sid="diffuse">0.6500053 0.68 0.6500053 1</color>
            </diffuse>
            <reflectivity>
              <float sid="specular">0.5</float>
            </reflectivity>
          </lambert>
        </technique>
      </profile_COMMON>
    </effect>
    <effect id="qmat_d857164d36b11abb_effect">
      <profile_COMMON>
        <technique sid="common">
          <lambert>
            <emission>
              <color sid="emission">0 0 0 1</color>
            </emission>
            <diffuse>
              <color sid="diffuse">0.85 0.85 0.85 1</color>
            </diffuse>
            <reflectivity>
              <float sid="specular">0.5</float>
            </reflectivity>
          </lambert>
        </technique>
      </profile_COMMON>
    </effect>
  </library_effects>
  <library_materials>
    <material id="qmat_76551a3993c45b27" name="qmat_76551a3993c45b27">
      <instance_effect url="#qmat_76551a3993c45b27_effect" />
    </material>
    <material id="qmat_d857164d36b11abb" name="qmat_d857164d36b11abb">
      <instance_effect url="#qmat_d857164d36b11abb_effect" />
    </material>
  </library_materials>
  <library_geometries>
    <geometry id="geometry" name="FR_thigh_dae">
      <mesh>
        <source id="positions">
          <float_array id="positions_array" count="360">0.024887016 0.0496807992 0.0560159199 -0.0330379531 0.049827233 0.0539662801 0.0293252654 0.0165791791 0.0564193428 0.016712198 0.0759615675 0.0565362982 0.0510456339 0.0758274496 0.03460823 0.0524464697 0.0989999771 0.0182168055 0.0538215563 0.0758611411 -0.0253235009 0.0589023978 0.0503281392 0.0237728152 0.0501027592 0.050150536 -0.036647398 0.0684864819 0.00633053947 0.0123948967 0.053306561 -0.0135319587 0.048977524 0.0339218825 0.00199652952 0.0547725819 0.0651484802 0.00882761553 0.0170878228 0.0172496717 -0.0165520832 0.0659000725 -0.00908068474 0.0032720149 0.0669526085 -0.00268685841 -0.0166994799 0.0592078045 -0.0201284923 -0.0050404584 0.0689939782 0.000772395812 -0.0244408436 0.062684156 0.0188906379 -0.0277250856 0.0462402441 0.0306419972 -0.0342103504 0.00753178308 -0.000714001304 -0.0356958136 0.0355875418 0.0564031228 -0.0240937714 0.0228713676 -0.00305860746 -0.0250131693 0.0022956219 0.0571688339 -0.0171322022 0.019405663 0.0589247309 0.016911732 -0.0260765087 0.0604388192 -0.021081131 -0.0227120165 0.0628357753 -0.0142883165 -0.0191345923 0.00577069633 -0.0161065534 -0.0830681175 0.0132057564 -0.0344723649 -0.0219473951 -0.0186505131 -0.0370969474 -0.00236606249 0.0292073209 -0.0303113349 -0.0367181152 0.0302522816 -0.0310505051 -0.0237340257 -0.0218120236 -0.0364862569 0.0214782227 0.0312256534 -0.0323126614 -0.0234379433 0.00549007952 -0.0373709686 0.00884097815 -0.0327189751 0.0154722137 0.0562113076 0.0428964049 0.0989760384 -0.038377706 -0.0510143228 0.0989999771 -0.0245923549 -0.0457341149 0.0757423192 0.0405017212 -0.0473912098 0.0988752544 0.0291645303 -0.0182142444 0.0758544356 -0.0554885156 -0.0546267629 0.0757346451 -0.0253983475 -0.0593079515 0.0507277735 0.0169221852 -0.0469112657 0.0507113636 -0.0415835492 -0.0584393963 0.0234044157 -0.0270964857 -0.0485798232 0.00139755593 0.0472731888 -0.0480155386 -0.011312943 0.0396233089 -0.0599215217 0.0141564002 0.0255062245 -0.0555086955 -0.0175264962 0.039228119 -0.0583965071 -0.020502409 0.035356842 -0.0420329198 -0.0284316223 0.0150410431 -0.0437340438 -0.0279156175 0.0152365575 -0.06864696 -0.00913059898 0.00142095436 -0.0588352308 -0.0243906714 0.00573439384 -0.0191652067 -0.0366821811 -0.00192946801 -0.0416748151 -0.030299088 0.00446120789 -0.0580660477 -0.0163051784 0.00337643339 0.00643539568 -0.0302541479 -0.0461360402 -0.0171419252 -0.0313624404 -0.0475393571 0.0145963486 -0.0311344657 -0.0472257584 -0.03406642 -0.0345009528 -0.00792084727 -0.0362042114 -0.0312775411 -0.0151521387 -0.0644954741 0.0111636231 -0.0255162008 -0.0677884445 0.00296452129 -0.0323127173 -0.0652393699 0.00764292432 -0.0234050117 -0.0683083683 -0.00720245391 -0.035620708 -0.061361637 0.00552473264 -0.0898819417 -0.0571433008 0.0156307854 -0.0799594671 -0.0435339883 -0.0292640254 -0.0244038217 -0.0537537597 -0.0173603632 -0.0965963677 -0.00858727377 0.098849304 -0.0554881878 0.026638912 0.0759406462 -0.0520067289 0.0157568026 0.0374689884 -0.0607398674 0.00822542794 0.0257411506 -0.0679144263 0.0391722359 0.0124140009 -0.0490585677 0.0389312916 0.0124210957 -0.0498050191 0.0391519889 0.0111586582 -0.0495425016 0.0410495661 0.011908887 -0.0465018377 0.0270327348 -0.0148993582 -0.0742732137 0.0437842011 -0.0193640795 -0.0456836745 0.0387423672 0.0168817509 -0.0480018966 0.0313499719 0.00208542729 -0.0664107576 0.015328995 -0.0149624916 -0.0885865688 0.00641673151 0.00594074233 -0.107661128 0.0103852749 0.00716203684 -0.092904374 0.00267075142 0.00579146855 -0.112244263 -0.015090554 0.0196515583 -0.119135059 0.0133742793 0.0054159197 -0.0863760784 0.0221962966 0.00583386282 -0.0750100315 0.000437297218 -0.017347686 -0.134432763 -0.00573989516 -0.019528592 -0.124821186 -0.00103916577 -0.0140021779 -0.127541021 0.00289900391 6.93940383e-05 -0.200545833 -0.0555599108 -0.0152187143 -0.160071269 -0.0339370966 -0.0216181651 -0.109714836 -0.0285697822 -0.0234364346 -0.101760574 -0.0233902428 -0.022398077 -0.113963254 -0.00721798791 -0.0184748266 -0.234070078 -0.0546753295 -0.0125501445 -0.100408174 -0.0551777557 -0.0146545935 -0.101263814 -0.055984877 -0.0137203773 -0.100239106 -0.00281645963 0.0155936265 -0.249424741 -0.054605145 -0.0146091189 -0.24627246 -0.00322973263 0.0279704705 -0.249689743 -0.055271294 0.0131006157 -0.243000433 -0.00228898576 -0.0157882664 -0.257758886 -0.00290792272 -0.028917687 -0.25179863 -0.0531534255 0.0270591136 -0.273892492 -0.052396968 0.0139050484 -0.308643907 -0.018693693 0.0285776295 -0.359846026 -0.0518981181 -0.0138495732 -0.312543511 -0.0548686348 -0.0294860415 -0.281532973 0.0189140402 0.0279591624 -0.357756019 0.0237750839 0.016196236 -0.363917679 -0.0176841542 0.0163099766 -0.36530593 0.0270380545 -0.0217922721 -0.359714448 -0.010473514 -0.0154879205 -0.373229474 -0.0260998104 -0.0292692669 -0.352281004 0.00642105332 0.0988237336 0.0587084368 -0.0332520567 -0.0192376692 -0.104883656</float_array>
          <technique_common>
            <accessor source="#positions_array" count="120" stride="3">
              <param name="X" type="float" />
              <param name="Y" type="float" />
              <param name="Z" type="float" />
            </accessor>
          </technique_common>
        </source>
        <source id="normals">
          <float_array id="normals_array" count="762">0.339312851 0.0404236689 0.939804614 -0.435283661 0.118599571 0.892447352 0.397642732 0.115108646 0.910291314 0.250070363 0.116241589 0.961224556 0.792806625 0.223935917 0.566842437 0.701420963 0.68050015 0.211962685 0.934632123 0.127418295 -0.332005054 0.936947882 0.111403115 0.331237108 0.822236121 0.0873977467 -0.562396169 0.986262262 -0.0218679663 0.163733259 0.690715969 -0.28039223 0.666552007 -0.68411082 0.192929581 -0.703399241 -0.899677992 0.195483804 -0.390340418 -0.233578756 0.386330068 -0.892294824 -0.132251188 -0.401290268 0.906352997 -0.00150210597 -0.746427536 0.665464997 0.474560589 -0.525541246 0.706115186 -0.258319438 -0.0463191979 0.964948475 0.0764892176 -0.654326618 0.75233376 0.145324245 -0.933417141 0.328044713 -0.0398081318 -0.987371325 0.153340146 -0.23807162 0.868522227 -0.434731066 -0.254153311 0.938337803 -0.234367803 0.0220637172 0.936517715 -0.349925429 -0.203948811 0.939037025 -0.276793003 -0.703586876 0.624371469 -0.339301825 -0.343042105 0.93097043 -0.12496455 -0.000701326877 -0.999465764 0.0326754935 0.626218081 -0.719503701 0.300275385 0.906790793 0.119712427 -0.404226869 0.20527561 -0.978259981 0.0294850189 -0.0303038675 -0.975532949 0.217754886 0.188528195 -0.980887353 -0.0481363609 -0.784381688 0.577094853 -0.227391437 0.643992603 0.223712355 0.731591642 0.0609858893 -0.994971871 -0.079446137 0.332440048 -0.94289732 -0.0206945613 -0.229157791 -0.843459785 -0.485862464 0.0291742459 -0.987572551 -0.154432431 0.311882257 -0.918453276 -0.243255138 -0.0663781688 0.996849775 0.043410562 0.255281717 0.958676457 -0.125581443 -0.705144525 -0.623163521 -0.338287592 -0.0459550396 -0.984936297 -0.166699186 -0.186599568 -0.933219552 -0.307053626 -0.0944467708 -0.969259799 -0.227190018 0.863353848 -0.417057335 -0.28404814 -0.492557406 0.109115563 0.86341244 0.557050824 0.666223526 -0.495823205 -0.000597922248 0.999999821 -0.000156876238 -0.738331139 0.185766414 0.648350239 -0.680448949 0.662422061 0.313346952 -0.911377072 0.153025717 -0.382066756 -0.323187351 0.0829696357 -0.94269079 -0.929359734 0.117725469 -0.349901766 -0.967279434 0.151490375 0.203521788 -0.711435318 0.0283562616 -0.702179313 -0.939627767 0.261468202 -0.220757872 -0.551935554 -0.447856575 0.703414261 -0.535992563 -0.69358784 0.481298089 -0.910435796 0.119964957 0.395872533 0.696386695 0.458972096 -0.551715732 0.560894549 0.180468842 -0.807977915 0.41779986 0.183694631 0.889774978 0.418983579 0.907612264 -0.026320979 0.306028008 0.927438915 0.214951053 0.27072674 0.950436831 -0.152895063 0.680637658 0.73250252 0.0131322742 -0.0456054658 0.996539295 -0.0694952011 0.590929925 0.776744545 -0.217875466 0.917858183 0.307781786 -0.250612736 0.547218919 -0.181107461 0.817160666 0.691996217 0.107255965 0.713888884 0.715294838 0.175639495 0.676390469 0.235183507 0.95848614 -0.161223471 0.421141028 0.901944935 -0.0955799744 -0.226162449 -0.957816601 0.177307412 -0.275659978 -0.930835962 0.239908248 -0.239633903 -0.954747677 0.176160187 -0.34768346 -0.937562227 -0.00966027193 -0.174901888 0.97244215 0.154160917 -0.0489383601 0.997774422 0.0452910885 0.101450652 -0.985978425 -0.132492617 0.126077041 -0.964144707 0.23351559 -0.0545217134 -0.992373168 -0.11055699 0.00350757781 -0.912973702 -0.408003271 -0.311150938 -0.949970305 -0.0272316504 -0.0449372567 -0.998984396 0.00328019354 0.0787060633 -0.996748745 0.0172422137 0.136945933 0.958090246 0.251612663 0.0192527622 0.998825669 -0.0444584601 -0.925176501 0.379291683 0.0136472601 -0.982126892 0.173419416 0.0731609762 -0.974243999 0.213071257 0.073819451 -0.837721586 0.545703232 0.0207481794 -0.950079024 -0.309151232 -0.0421352908 -0.999462903 -0.0253420211 -0.0207782406 -0.786818206 0.616696596 -0.0245431587 -0.998410523 -0.0480437987 -0.0294663385 -0.685972452 -0.65953511 0.307335794 -0.947587729 -0.312727332 0.0654146671 -0.756688833 -0.429439962 0.492953658 -0.498826981 -0.761754572 -0.413402528 -0.33214435 -0.939747334 -0.0809637979 0.502355099 0.863725781 0.0402134694 0.605208457 0.786717236 0.121649943 -0.142735049 0.151355922 -0.978119671 0.401978254 0.150045782 -0.903271675 0.262117386 0.248071924 -0.932606459 -0.0131214857 0.424815446 -0.905184865 -0.946952164 -0.102187574 0.304695487 -0.838184774 -0.0591098629 0.542173624 -0.735698402 0.372537792 0.565653145 -0.727567434 0.472494394 0.497387916 0.601504624 0.142260849 -0.786100566 0.711196423 0.302291125 -0.634680808 0.759337783 -0.648786187 -0.049825158 -0.782332659 -0.183414847 0.595243335 -0.791339993 -0.167529389 0.587975323 0.142244712 -0.428467125 0.892290533 0.684131205 0.0225470923 -0.729010403 0.74508667 -0.0729450062 -0.662966669 0.683339298 0.0858285725 -0.725038469 -0.932341695 0.281059414 0.227474198 0.234279394 0.952492237 -0.194606602 0.888556719 0.389250427 -0.242798343 0.22871156 0.969695151 -0.0859206989 0.848686695 0.456928551 -0.266359121 0.89931649 0.255454808 -0.354926288 -0.673961699 0.540872931 0.50322175 -0.735542595 0.38606897 0.556711614 -0.615586877 0.644072711 0.454117924 0.492151439 -0.411446929 0.767136514 0.0805779994 -0.468043983 0.880023837 -0.746030152 0.350578815 0.566156805 0.832982004 -0.287814558 -0.472550213 0.625053406 -0.766550422 -0.147338629 -0.740531743 0.566567779 0.361405104 -0.0257846024 0.687670469 0.725564897 0.949978888 -0.192838967 -0.245669022 0.985872209 -0.065714635 -0.15406999 -0.886156499 -0.0124545749 0.463218659 -0.833473563 0.418729633 0.360537589 0.933537722 0.183842644 -0.307748556 0.0391976684 0.997146606 -0.0645152628 -0.646667719 -0.761723459 -0.0399777927 -0.00870054122 -0.998274207 -0.0580769964 -0.981279194 -0.157039538 0.11148876 0.630724907 0.218842357 0.744509339 0.16661945 0.966557145 0.194949433 0.154092118 0.918326437 0.364598662 -0.127388209 -0.9674384 0.218712568 0.167878851 0.979849994 0.108215824 0.0329021402 -0.998091042 -0.0522659272 0.0701757446 0.971826017 0.225010037 0.496465653 -0.138920128 0.856868148 -0.4799698 0.426329613 -0.766728163 0.997941852 -0.0495935306 -0.0406521112 0.792406678 0.530132115 -0.30174765 -0.154578105 -0.960572839 0.231096163 -0.984115303 0.0408957377 0.172755912 -0.99948889 -0.0316099375 -0.00477457652 0.00336937746 0.776548564 0.630048394 -0.170634195 0.833553255 0.525426388 0.120343052 0.0252669603 0.992410779 0.996157944 0.043261867 -0.0761426613 0.876010716 -0.472679824 0.0958072469 0.969964206 0.0611532107 0.235435054 -0.0929389372 -0.962322593 0.255533844 -0.904694438 0.42411074 -0.0407198705 -0.677960873 0.732977211 0.0557984151 -0.902595758 0.381468564 -0.199506059 -0.387184054 0.7344715 -0.557350934 0.742520332 0.125464454 -0.657968223 0.738893092 0.106758691 -0.665311694 -0.705356598 -0.708073437 0.0332279578 0.940518737 0.260267287 0.218369856 0.977845788 0.053812094 0.202291489 0.936908722 0.272443503 0.219035581 0.0503685325 0.463664651 -0.88457793 -0.392359167 0.346864343 -0.851903379 0.0846114531 0.996408224 -0.00340552651 0.169031173 0.985565722 -0.00941739231 0.121729031 0.992544949 -0.006046467 0.0461998917 -0.850011647 -0.52473402 0.109501012 -0.974233627 -0.197175935 -0.504503429 -0.712050974 -0.488323331 0.0157788172 -0.999681532 -0.0196938496 0.0247495249 -0.99966681 -0.00733083626 -0.00129446515 -0.999065757 -0.0431967713 -0.930642903 -0.260552585 -0.256936014 0.0598999001 0.598866165 0.798605859 0.890999258 -0.239438638 0.385732383 0.246781647 0.375213623 -0.893483937 0.324943215 -0.86267674 0.387557387 -0.808379054 -0.0383053869 0.587414682 0.993715405 0.063509047 0.0921752974 -0.713916302 0.506536543 -0.483471066 -0.733452618 0.458269179 0.502032518 -0.27739948 0.955673993 0.0986752212 -0.0126285879 0.991405189 0.130216151 -0.376669914 0.920839071 0.100871876 0.431711048 -0.888457656 0.155783832 0.264237046 -0.956809819 0.121217683 0.677107573 -0.391089916 0.623356998 -0.794857502 -0.606080294 0.0294666886 -0.36249733 0.929966092 0.0613090731 -0.561172605 0.82257092 0.0919915512 -0.311552227 0.948764145 -0.0527427718 0.524118245 -0.216595978 0.823642075 -0.412447035 -0.910145581 -0.0390188433 -0.282525063 -0.954480529 0.0956373289 -0.289000869 -0.951127946 0.108784497 -0.548510969 -0.118723564 0.827671707 -0.210515201 -0.957076609 0.199217826 0.589269936 -0.582580149 0.559786856 0.934467137 -0.354719162 0.0307492316 0.919037521 -0.394028783 0.0105540995 0.942212343 -0.325681806 0.0785319507 0.891375124 -0.422818273 -0.163325071 -0.258400798 -0.589646876 -0.765209496 -0.000577339844 0.999983788 -0.00566926505 0.664222479 0.341544956 -0.664947748 -0.446370244 -0.696893096 0.561332047 -0.770366371 -0.0959763229 0.630336523 -0.607904971 -0.28345874 0.741689026 0.77487576 0.204758227 -0.598031402 0.99848181 -0.0513860956 -0.0198377464 0.0350393988 0.357265085 -0.933345556 0.00702748494 0.340106696 -0.940360606 -0.503543079 0.0452874005 -0.862782359 -0.901610315 -0.323860675 0.286728203 -0.848805964 -0.456805587 0.266189843 -0.852576017 0.0565095581 0.519539058 0.0881553143 -0.341213435 0.935842931 0.866246641 0.372141272 -0.333358139 -0.145612881 0.983354509 -0.108677678 0.946853757 -0.318275839 0.0465670414 0.952047944 0.280975848 0.121067077 -0.0303539801 -0.927765608 -0.371926844 0.0657439381 -0.957673132 -0.280249774 0.166718185 -0.970000088 -0.176931798 0.524082422 0.800565124 0.290573806 -0.233259767 -0.962573469 -0.137993366 -0.0548169166 -0.989325643 0.13501814 -0.377279133 -0.921821177 -0.0889164656 -0.122606426 -0.989289284 -0.0792107508 -0.288724869 -0.757493317 -0.585527003 0.978975475 0.0369839072 0.200597212 0.0315667838 -0.9994995 0.00207086699 0.0395317599 0.816972554 -0.575319946 0.0392514393 0.999229372 -0.000183074793 0.959317625 0.0779601112 0.271352082 -0.822574198 0.076068379 -0.563547075</float_array>
          <technique_common>
            <accessor source="#normals_array" count="254" stride="3">
              <param name="X" type="float" />
              <param name="Y" type="float" />
              <param name="Z" type="float" />
            </accessor>
          </technique_common>
        </source>
        <vertices id="vertices">
          <input semantic="POSITION" source="#positions" />
        </vertices>
        <triangles material="qmat_76551a3993c45b27" count="143">
          <input semantic="VERTEX" source="#vertices" offset="0" />
          <input semantic="NORMAL" source="#normals" offset="1" />
          <p>10 10 9 9 2 2 10 10 16 17 17 18 18 19 17 18 19 20 18 21 19 22 20 23 17 24 21 25 19 26 21 30 20 31 25 32 21 25 26 33 19 26 19 34 25 34 20 34 28 37 29 38 30 39 20 23 31 40 32 41 31 42 33 43 32 44 34 45 33 43 25 46 34 45 32 44 33 43 20 23 32 41 48 61 48 61 13 13 20 23 32 63 34 63 49 63 50 64 51 65 49 66 51 65 50 64 52 67 48 61 29 68 53 69 48 61 53 69 52 70 32 41 29 68 48 61 29 71 54 72 49 73 50 64 29 74 55 75 29 76 51 77 55 78 55 75 57 80 58 81 59 82 60 83 58 84 60 83 61 85 58 84 32 86 54 87 28 88 57 89 60 89 59 89 55 75 58 81 61 90 62 91 63 92 64 93 65 94 52 94 66 94 64 93 63 92 65 95 53 99 60 83 55 78 52 100 65 95 49 101 52 67 50 64 55 75 49 101 65 95 53 99 60 83 53 99 68 103 52 67 68 104 69 105 74 110 75 110 76 110 77 111 78 112 79 113 80 114 24 29 81 115 77 116 82 116 81 116 77 117 80 118 82 119 87 129 88 130 84 131 30 39 78 135 25 46 59 82 58 84 89 136 59 82 89 136 30 39 57 80 82 137 90 138 85 141 91 142 82 137 83 143 78 135 89 136 85 144 83 144 92 144 58 84 93 145 89 136 63 92 93 145 65 95 68 104 94 148 69 105 65 95 93 145 53 99 58 81 90 138 95 149 95 149 90 138 96 150 89 136 93 145 97 151 68 104 58 152 94 148 92 157 83 143 89 136 101 158 85 125 92 157 93 145 102 159 97 151 66 160 102 161 93 145 104 169 102 161 66 160 104 169 108 171 111 175 106 168 117 186 115 185 10 10 17 18 18 19 14 193 11 11 13 13 13 13 18 21 20 23 10 10 18 19 21 194 18 21 13 13 21 25 17 18 20 31 21 30 24 29 9 9 25 46 78 135 24 29 25 46 10 10 21 196 25 46 19 26 26 33 25 197 79 113 25 198 26 195 25 46 33 43 30 39 29 68 32 41 59 199 30 39 29 38 59 82 32 41 28 200 59 199 28 200 79 201 59 199 31 202 20 31 34 203 28 204 30 204 79 204 33 43 31 42 30 205 31 206 79 113 30 207 31 206 25 198 79 113 31 206 34 208 25 198 29 71 28 209 54 72 47 60 52 100 49 101 47 60 16 17 35 47 16 17 49 101 17 18 20 31 17 18 49 101 32 86 49 210 54 87 20 31 49 101 34 203 53 99 29 211 50 212 53 99 50 212 49 101 52 213 53 99 51 77 51 77 53 99 55 78 48 61 52 70 45 62 29 76 49 214 51 77 55 78 60 83 57 215 47 60 62 91 52 100 62 91 44 57 63 92 52 100 62 91 64 93 44 216 64 217 65 218 44 216 52 219 64 217 52 67 55 75 68 104 55 75 61 90 68 104 61 85 60 83 68 103 77 222 24 29 78 135 24 223 77 223 81 223 82 137 78 112 81 224 80 118 88 225 82 119 80 114 81 115 88 226 88 226 81 115 78 135 78 112 82 137 79 113 57 234 59 234 79 234 57 80 79 113 82 137 87 231 83 233 82 137 84 235 88 226 78 135 78 135 30 39 89 136 83 233 85 141 82 137 83 143 84 235 78 135 82 137 91 142 90 138 63 92 66 160 93 145 66 237 44 216 65 218 58 84 68 103 93 145 58 81 57 80 90 138 69 105 66 238 52 67 68 103 53 99 93 145 90 138 94 148 96 150 95 239 91 240 58 241 119 242 95 149 96 150 58 243 119 244 96 245 94 148 58 152 96 150 69 246 119 244 58 243 92 157 89 136 97 166 104 169 111 175 102 161 108 171 110 190 111 175 111 175 117 186 106 168 105 165 106 167 115 252</p>
        </triangles>
        <triangles material="qmat_d857164d36b11abb" count="131">
          <input semantic="VERTEX" source="#vertices" offset="0" />
          <input semantic="NORMAL" source="#normals" offset="1" />
          <p>0 0 1 1 2 2 3 3 1 1 0 0 3 3 4 4 5 5 5 5 4 4 6 6 6 6 7 7 8 8 7 7 2 2 9 9 11 11 12 12 13 13 14 14 15 15 11 16 0 0 2 2 7 7 15 15 22 27 23 28 7 7 9 9 24 29 23 28 27 35 26 36 23 28 22 27 27 35 1 1 35 47 2 2 5 5 36 48 37 49 3 3 38 50 1 1 5 5 37 49 39 51 37 52 40 53 41 54 37 52 41 54 38 50 42 55 43 56 44 57 14 14 45 58 46 59 14 14 46 59 15 15 1 1 47 60 35 47 42 55 47 60 1 1 45 62 13 13 48 61 15 15 56 79 22 27 44 96 67 97 56 98 52 102 56 79 46 59 70 106 71 107 40 53 71 107 8 8 72 108 36 48 71 107 70 106 43 56 72 108 73 109 37 52 70 106 40 53 77 120 26 121 27 122 72 108 77 120 27 122 83 123 27 123 84 123 73 124 85 125 86 126 73 124 87 127 84 128 27 132 82 119 72 133 88 130 87 129 27 134 85 125 27 139 91 140 27 35 22 27 69 146 67 97 69 147 56 98 27 35 69 146 91 153 69 154 58 154 91 154 91 155 94 148 90 138 98 156 99 156 100 156 103 162 104 163 101 164 105 165 97 166 106 167 102 159 106 168 97 151 104 163 103 162 107 170 108 171 107 170 109 172 107 170 108 171 104 169 108 173 105 165 110 174 112 176 101 177 113 178 109 172 113 179 114 180 105 181 115 182 116 183 116 184 115 185 117 186 109 172 114 180 108 171 113 187 108 188 114 189 110 190 117 186 111 175 7 7 4 4 0 0 5 5 118 191 3 3 4 4 3 3 0 0 6 6 4 4 7 7 36 48 5 5 6 6 71 107 36 48 6 6 12 192 11 16 23 28 13 13 12 12 21 25 21 25 12 12 26 33 2 2 35 47 16 17 10 10 2 2 16 17 11 16 15 15 23 28 26 195 77 111 79 113 80 114 8 8 24 29 8 8 7 7 24 29 25 46 9 9 10 10 12 192 23 28 26 36 38 50 42 55 1 1 118 191 38 50 3 3 118 191 39 51 38 50 39 51 118 191 5 5 39 51 37 52 38 50 41 54 43 56 42 55 38 50 41 54 42 55 45 58 52 102 46 59 45 62 14 193 13 13 16 17 47 60 49 101 15 15 46 59 56 79 62 91 47 60 44 57 52 102 44 220 56 79 42 55 44 57 47 60 40 53 71 107 72 108 71 107 6 6 8 8 72 108 8 8 80 114 40 53 72 108 43 56 43 56 73 109 44 57 37 49 36 48 70 221 41 54 40 53 43 56 72 108 80 114 77 120 85 125 84 128 27 139 83 227 73 227 27 227 73 109 72 108 88 228 73 109 88 228 27 229 85 125 73 124 84 128 27 230 87 230 82 230 88 225 72 133 82 119 87 231 73 232 83 233 67 97 44 236 86 126 67 97 66 160 69 147 44 236 73 124 86 126 44 57 66 160 63 92 22 27 56 79 69 146 91 155 119 244 94 148 119 247 91 240 95 239 119 244 69 246 94 148 101 158 86 126 85 125 67 97 104 169 66 160 67 97 86 126 104 169 86 126 101 158 104 169 105 165 92 157 97 166 101 158 92 157 105 165 106 168 102 159 111 175 108 173 101 158 105 165 112 176 103 248 101 177 113 187 101 249 108 188 107 170 112 250 109 172 107 170 103 162 112 250 110 251 105 181 116 183 109 172 112 250 113 179 110 190 116 253 117 186</p>
        </triangles>
      </mesh>
    </geometry>
  </library_geometries>
  <library_visual_scenes>
    <visual_scene id="scene">
      <node id="FR_thigh_dae">
        <instance_geometry url="#geometry">
          <bind_material>
            <technique_common>
              <instance_material symbol="qmat_76551a3993c45b27" target="#qmat_76551a3993c45b27" />
              <instance_material symbol="qmat_d857164d36b11abb" target="#qmat_d857164d36b11abb" />
            </technique_common>
          </bind_material>
        </instance_geometry>
      </node>
    </visual_scene>
  </library_visual_scenes>
  <scene>
    <instance_visual_scene url="#scene" />
  </scene>
</COLLADA>