<?xml version='1.0' encoding='utf-8'?>
<COLLADA xmlns="http://www.collada.org/2005/11/COLLADASchema" version="1.4.1">
  <asset>
    <created>2026-09-14T00:00:00Z</created>
    <modified>2026-09-14T00:00:00Z</modified>
    <unit name="metre" meter="1" />
    <up_axis>Z_UP</up_axis>
  </asset>
  <library_effects>
    <effect id="qmat_c90f2351a1b48e4d_effect">
      <profile_COMMON>
        <technique sid="common">
          <lambert>
            <emission>
              <color>0 0 0 1</color>
            </emission>
            <diffuse>
              <color>0.89804314 0.91765098 0.92549412 1.0</color>
            </diffuse>
          </lambert>
        </technique>
      </profile_COMMON>
    </effect>
  </library_effects>
  <library_materials>
    <material id="qmat_c90f2351a1b48e4d" name="qmat_c90f2351a1b48e4d">
      <instance_effect url="#qmat_c90f2351a1b48e4d_effect" />
    </material>
  </library_materials>
  <library_geometries>
    <geometry id="geometry" name="link6_stl">
      <mesh>
        <source id="positions">
          <float_array id="positions_array" count="351">0.0711972415 0.0861603022 0.00488657923 0.0780399218 0.0753640756 0.0044785752 0.0762573779 0.0832393542 -0.00432059169 0.0704995394 0.0669081584 -0.00391585194 0.0626625717 0.0666088238 -0.00103474944 0.0617014766 0.0830393955 -0.00739897462 0.0715437606 0.0860133693 -0.0122224875 0.0618134253 0.0836272985 0.00489059836 0.0764602944 0.0484410599 -0.00231696735 0.0778734237 0.0515932292 0.00389020192 0.0780485868 0.028369531 -0.00333830179 0.0761690214 -0.00759490952 -0.00359853404 0.0707418323 0.0273077898 -0.00257299887 0.0771015733 0.0686552078 -0.00132234406 0.0781035423 0.00562442932 -0.00439239247 0.0639604628 0.0694107786 0.00214323192 0.0660390183 0.0805923417 -0.00239558006 0.0702850819 0.0723765492 0.0049345633 0.0710033998 0.0265550427 0.00476844981 0.0598559342 0.0285814516 0.00485121273 0.0637859181 0.0269221235 0.00161349133 0.0585482717 0.0225888938 0.00112382183 0.0613686591 0.0281390622 -0.00596296042 0.0602514707 0.0166919045 0.00600239262 0.0583396442 0.0082102241 0.016789848 0.0665830672 0.00787584763 0.00841446687 0.0697859451 0.0102613457 0.00286939414 0.0583081171 0.010659188 -0.00460499711 0.0707304105 0.00534931477 0.0249855928 0.0602925867 0.000365289248 0.0238763094 0.0815964341 -0.00410819985 0.0179519076 0.0620835535 -0.00270585995 0.0303047895 0.0696351528 -0.00223007589 0.0160988979 0.0581620745 -0.00502997311 0.0219449233 0.0575696379 -0.0117451688 0.0120623345 0.0684776902 -0.00377979875 0.00865601748 0.0579660907 0.0232643709 0.0303047895 0.0623741783 0.0289114937 0.0255105086 0.0569344386 0.0183557495 0.0230108257 0.0628326759 0.019102443 0.0206972137 0.0566344522 0.00303163729 0.0284798853 0.0773797631 0.00764482655 0.00303345197 0.0780942217 -0.00561978994 0.00437913323 0.0831987783 0.00532533647 0.0111511732 0.0759783611 -0.0832795501 0.00401414512 0.0718127713 -0.00850971416 0.00446935976 0.076922141 0.030552322 0.00132216373 0.0656667501 0.00230088364 -0.0289961193 0.0603351444 7.6935059e-05 -0.0237440392 0.070645988 -0.0051728813 -0.0238078944 0.0813069493 0.0041416618 -0.0174643453 0.0678783581 0.00237440271 -0.0152934426 0.0579197183 0.00608994532 -0.0188114401 0.0699727833 0.00774114998 -0.00502271391 0.0688890964 -0.00509222131 -0.00734272739 0.0588193275 0.0174984112 -0.022969801 0.00509971473 0.0212371275 -0.0190760866 0.00607703393 0.00436171191 0.018176876 0.00378106651 -0.00833381806 0.0167481024 0.00589753967 -0.00387344719 0.0277875923 0.00500049302 0.0176027175 0.00414308347 -0 0.00991068594 0.00354257505 0.00112829101 0.0101529155 0.0139680617 0.0058068675 0.0191612858 0.0210608449 0.00608813018 0.00526051456 0.0280473419 0.00993806962 0.0134377461 -6.23010856e-05 0.00750673655 0.0269319955 0.0102454051 0.00140639301 0.0160180125 -0.00542909326 0.00183039519 0.00708189094 -0.0154288933 0.0067037777 0.0265898407 -0.0104462421 0.00202158908 0.0121600889 -0.0258521624 0.00886947662 -0.00380031299 -0.0286040567 0.0117282066 0.00967453327 0.00332006812 0.0102033895 0.00207993714 -0.00941447075 0.011680102 -0.00971071422 -0.00327672926 8.92377284e-05 -0.00204300345 -0.0108622182 0.0664382353 -0.0851923004 0.00230901223 0.0752489269 -0.0863108188 -0.00438857218 0.0618103668 -0.0836249068 -0.00487434166 0.069418177 -0.0710636973 -0.00166846486 0.0777690113 -0.0555549935 0.0027403119 0.0761711895 -0.0695513114 -0.00106588623 0.0781411231 -0.0459685549 -0.00348360045 0.0704681352 -0.0277004093 -0.00215921644 0.061695084 -0.0830737799 0.00749118673 0.0715385005 -0.0857693478 0.012269238 0.0613711216 -0.0294197034 0.00276505738 0.0709856823 -0.0270655677 0.00346061704 0.0660046935 -0.0674470589 0.00230119168 0.0815617144 -0.00547495717 -0.0112962732 0.0769106969 -0.0296563022 -0.000670894457 0.00702022761 -0.0274381824 0.0100010773 0.0612019673 -0.0280732475 -0.0065751248 0.0629253536 -0.0289488379 0.0220360588 0.0588663444 -0.0241878126 0.0303047895 0.0594155118 -0.0232170578 0.00652810419 0.0580337718 -0.0121217212 -0.00369549962 0.0662303865 -0.0153245246 0.00535135204 0.0610625446 -0.0183673892 0.020449467 0.05694988 -0.0146882227 0.0253192578 0.057738103 -0.00324117951 -0.0198781881 0.058958251 -0.0170293655 -0.0232359581 0.0580516271 -0.0202986058 -0.00979548879 0.00473752385 -0.0213416144 -0.0182102975 0.00607515546 -0.0164331924 0.0235390943 0.00153492135 -0.0157475844 0.00674217241 0.00497422833 -0.0212318022 0.0184464101 0.00993806403 -0.0134377489 6.22515945e-05 0.00139151071 -0.0168089978 -0.00440233294 0.00866711605 -0.0181981381 0.00153871148 0.000174124696 -0.00815379806 0.00644705351 0.00601784047 -0.0168484431 -0.0230130125 0.00132475619 -0.00955087785 -0.0147388009 0.00590023072 -0.0260589477 -0.0102617424 0.010062783 -0.00188512867 0.00945127755 0.00263352669 -0.00320138712 -0.0271485001 0.0628137887 -0.0697356388 -0.00301363994</float_array>
          <technique_common>
            <accessor source="#positions_array" count="117" stride="3">
              <param name="X" type="float" />
              <param name="Y" type="float" />
              <param name="Z" type="float" />
            </accessor>
          </technique_common>
        </source>
        <source id="normals">
          <float_array id="normals_array" count="741">0.261243701 0.960464716 0.0962249041 0.986101806 0.160836622 -0.0416511036 0.768102109 0.638058007 0.0538618676 0.0697394982 -0.523730814 -0.849024415 -0.183257714 0.00738829933 -0.983037114 0.507501304 -0.0547926798 -0.859907091 0.326081485 -0.537985742 -0.77733022 0.0927194729 -0.920905411 -0.378597885 -0.260373682 0.964515388 -0.0437673889 -0.283948749 0.958538353 -0.0240286253 0.967650115 0.0522449538 -0.24682723 0.971549392 -0.00768959615 0.236712128 0.978084981 -0.0189783033 0.207339332 -0.254250377 -0.0074403747 -0.967109799 0.0123971356 -0.015119453 -0.999808848 -0.188291252 -0.000421187549 -0.982113123 0.986024499 0.0115394183 -0.166200295 0.986365378 0.0236125849 -0.162867218 0.640596032 -0.474741846 0.603537023 0.235165522 0.078792505 0.968756378 0.721056819 -0.382712692 0.577588141 -0.272252828 0.0956233144 0.957462549 -0.312342197 0.0168690104 0.949819863 0.859355986 -0.216380954 0.463342845 0.28598842 -0.797079742 0.531859457 -0.00850847643 0.999925435 -0.00876024086 -0.00610316731 -0.994788051 -0.101781696 -0.0189695545 -0.992234766 -0.122924037 0.968312919 -0.249397725 -0.0130696744 0.713332474 -0.697134078 -0.0718390048 0.712030292 0.646633267 0.273639083 0.812519073 0.119410641 0.570573211 0.691942632 0.276026249 0.66710192 0.64970541 0.746698558 0.142562807 0.786514461 0.541658998 -0.29664886 0.320807517 -0.29963991 0.89849788 0.138897181 -0.483270407 0.864382625 0.585843563 -0.656683624 0.47492519 0.418448687 -0.768659949 -0.483800083 -0.264813423 0.712990522 0.649244487 -0.361949503 -0.334000766 -0.870308042 0.975485861 0.0668479577 0.209663257 0.595012188 -0.0186554473 0.803500175 -0.947152138 0.315709114 0.056837894 -0.751122713 0.655163288 0.0810907632 -0.890761316 0.453569919 0.0286116507 -0.987643361 0.152227581 0.0372466557 0.957784355 -0.240506381 0.157498792 0.917892337 -0.181057379 0.353117436 0.989444077 -0.123839132 -0.0752615929 0.977144957 0.15492174 -0.145557463 0.975473166 -0.0814659372 0.204488128 -0.993127704 0.0560994893 0.102713935 0.957132459 -0.275657833 -0.0889396146 -0.809182882 0.0160022378 0.587338865 -0.797782719 0.0181703977 0.602671146 -0.810518682 0.0157440081 0.585501134 -0.794453621 0.0187919419 0.607034028 0.658484578 -0.182067588 0.730239272 0.984721959 -0.0133045614 0.173624918 0.956777215 0.287376761 0.0446308739 0.999399781 -0.0289120153 -0.0190846045 0.35037154 0.680313408 0.643749475 0.235431418 -0.957529426 -0.166461438 0.127581507 0.977174222 -0.169863045 0.846225202 0.524650872 0.0929752067 0.61021769 0.0702347904 -0.789114296 0.760635555 0.0337622352 -0.648300588 0.992994308 0.117027909 -0.0163321327 -0.00862765964 0.959493756 -0.281597704 0.014732115 0.620714962 -0.783897877 -0.558134258 0.660579801 -0.502115965 0.97495383 -0.044967372 0.217813939 0.435647994 0.876981914 0.202764705 0.42826128 0.895222902 -0.123159431 0.448563129 0.892196894 -0.0526858643 -0.0936154798 0.992386341 -0.0800346062 -0.904684424 0.0125744781 0.425896615 -0.956489384 -0.038011536 0.289280415 -0.99240309 0.0425190218 0.115448013 -0.898149073 0.413645416 -0.149083048 -0.936614394 0.330394596 -0.116588652 -0.927736819 0.152485684 0.340664804 -0.970669329 0.178551003 0.160998881 -0.999995291 0.00295700063 0.000854922866 -0.425308585 0.341908067 -0.837980568 -0.0188685097 0.64720428 0.762083113 0.0101622129 0.652955413 0.757328153 -0.0146430852 0.94987905 0.312274575 -0.0157533418 0.211470485 0.977257431 0.394513011 -0.0126560284 0.918803215 -0.0949989408 0.82976985 0.54996109 -0.95668292 0.290463835 -0.0197107829 -0.990993798 0.109387279 -0.077238366 -0.989191592 0.0970552489 -0.109910369 -0.496875554 0.845142841 -0.197099477 -0.0441160426 0.366300404 -0.929450274 0.0149645712 0.0367395543 -0.999212801 -0.200419977 -0.203365505 -0.958370626 -0.969769597 0.242454067 0.0276219696 -0.999795318 0.00869677123 -0.0182655621 -0.794937074 0.198818311 0.573189616 -0.574436545 0.784359455 0.234100103 0.0864329487 -0.80170238 0.591441095 0.150457621 -0.819228351 0.553378165 0.275367498 -0.83980453 0.467868656 0.192092091 0.977288544 0.089486219 -0.180903614 -0.0932559744 -0.979069591 -0.571191072 -0.0725712478 -0.817602694 0.0360422283 -0.1183175 -0.992321491 0.960818112 -0.0517633073 0.272303253 0.957896173 0.000880508334 -0.287113518 0.999294579 -0.0241381787 0.0287688933 -0.211038053 -0.010132595 -0.977425337 -0.101257145 0.0111679742 -0.994797587 -0.229402408 -0.973325431 0.00348584447 0.570515215 -0.821216822 0.0107390322 -0.0361587517 -0.999047637 0.0244199093 -0.999860823 -0.00998563133 0.0133628966 -0.999954581 -0.0072277151 -0.00621055625 -0.999935985 -0.00683190906 -0.00901782326 -0.040230114 -0.17426455 0.983876705 0.259874761 0.0663738921 0.963358521 0.115928113 0.521333754 0.845441759 0.988782883 -0.011327113 0.148929879 0.431790233 -0.901972353 -0.00176391716 0.919457376 -0.327681512 -0.217308432 -0.550961673 0.632852614 -0.544002593 -0.548401177 0.609794259 -0.572194993 -0.225806832 0.736886859 -0.637188435 0.828493357 -0.558029234 -0.0469274893 0.835894108 0.146104679 -0.529088318 0.284318179 0.183696032 -0.940967023 0.284318328 0.183695495 -0.940967083 -0.0133723663 -0.985453904 0.169415981 -0.520524204 -0.839214265 0.157397375 -0.0216304008 -0.945029378 -0.32626915 -0.692412138 -0.717760801 0.0733816475 -0.95546782 -0.287936389 0.064605847 -0.90575552 -0.423796415 -0.00186857907 0.916136086 0.379821688 -0.12818028 0.831639886 -0.487890929 -0.265212357 0.635361016 -0.74592489 -0.199781075 -0.0753698498 -0.997080028 0.0122810369 0.284296602 0.893484831 0.347649723 0.501703739 -0.326915175 0.800886929 0.978933573 0.199308276 0.0443316624 -0.944219291 -0.0179134458 0.328829765 -0.976209044 -0.0945288837 0.195141524 0.974447548 0.13213864 0.181635201 0.731232703 -0.677942872 0.0754465014 0.966127157 0.0869075656 0.242992461 0.776517689 -0.0833787546 0.624554396 0.971152365 0.232957765 0.0509294979 0.018167818 -0.583088517 -0.812205493 0.146193743 0.959973037 -0.238912404 0.731109023 0.677512109 -0.0803554207 0.700937688 -0.619838715 -0.352826297 0.131849393 -0.946194708 -0.295518816 0.306398451 -0.871825516 -0.38215217 -0.616017342 -0.633474529 -0.468222886 -0.24569717 -0.897689641 -0.365767956 0.965617299 0.239180163 0.101863086 0.989439964 0.0512555763 0.135577917 -0.532063901 -0.653130174 0.538821876 -0.539450765 -0.709449232 0.453513652 -0.527222931 -0.627067327 0.573430479 0.83193171 -0.124001786 -0.540844858 0.366094381 0.199943259 -0.908844113 0.976032913 0.0186550058 0.216821969 -0.967320144 -0.0682434216 0.244201794 -0.878798664 -0.477097839 0.0095194662 -0.628537714 -0.586243391 0.511135101 -0.326657057 0.941272795 -0.0854442567 -0.853052676 -0.521686435 -0.0120167593 -0.9516626 -0.101512656 0.289885342 0.0334934145 0.728022397 0.684734643 -0.0126000857 0.984910071 -0.172607526 -0.509948254 -0.421108395 -0.750080347 -0.958670437 -0.163770273 -0.232659295 -0.866906703 -0.490232497 0.0902489573 -0.954749107 -0.282047749 0.0943571404 0.0538237356 -0.00362267066 0.998543859 -0.555100381 0.038261123 0.830902934 -0.12396773 -0.0131656863 0.992198884 -0.999898314 0.010002383 -0.0101622157 -0.999941409 0.00629215874 0.00880770572 -0.992387116 0.0312556922 -0.119125471 0.421333194 0.101282105 -0.90123266 0.244339794 0.0828746483 -0.96614176 -0.43461749 -0.00701927766 0.900587797 -0.0590281561 0.0460707657 -0.997192621 -0.010427678 -0.0488125272 0.998753548 0.22821331 -0.844676852 0.484189749 -0.755120099 0.173742235 0.632144928 -0.98954165 0.0352894403 -0.139864221 -0.909205079 0.00727709429 0.416285008 -0.997820497 0.0626084879 0.0208444465 0.529729903 0.611986876 -0.587246299 0.0294321403 0.758728802 -0.650741339 0.209768623 0.894916356 -0.393855155 -0.44889614 0.0120342579 -0.893502891 -0.512383699 -0.562988877 0.648464739 -0.998323023 0.0439552255 -0.0376703739 -0.0114126895 0.981820643 0.189467505 0.151225537 -0.336562425 -0.929438829 -0.0261564497 -0.4654634 -0.88468051 0.23253417 -0.269706905 -0.934444249 -0.0129907494 -0.172962517 0.984842718 -0.44718647 -0.840108156 0.306989431 -0.982407629 0.0033268712 -0.186719567 -0.99022907 0.136355579 0.0292155724 -0.00338004949 -0.769547224 0.638580918 -0.242712304 -0.48432228 -0.840549052 -0.992371857 -0.0294292141 -0.119716637 0.631101131 -0.0648476779 -0.77298522 0.847353637 0.00991182867 -0.53093648 0.452565193 -0.0585560016 -0.889806688 0.357173681 -0.0530454628 -0.932530522 -0.999807656 -0.0104416711 0.0166016649 0.202309161 0.00746404938 -0.979293287 -0.197271556 -0.979456604 0.0418167375 0.286588281 0.492752939 0.821621358 0.0947788432 0.937853277 0.333838612 0.0253146067 -0.251687229 0.9674775 0.900904179 -0.425484061 0.0856442228 -0.728704214 -0.0047475351 0.684812069 0.934654176 0.345536023 -0.0838239864 0.974703014 0.212383628 0.0696222633 -0.990181208 0.0216790456 0.138098627 0.0380516127 -0.554450691 0.831346214 -0.0100597152 -0.555164099 0.83168 -0.374553829 -0.927138448 0.0111228833 0.0609638132 -0.503606498 0.861779511 0.721259177 -0.109165765 0.684008777 0 0 1 0.0141289597 0.993434668 -0.113524802 -0.305892229 -0.671983778 -0.674438894 0.193593845 0.391169369 -0.89972657 -0.971529484 -0.0136257587 0.236526534 -0.827050686 0.087687023 -0.555246055 -0.83124572 0.420187116 -0.363968968 0.370102733 -0.143994167 -0.917763412 -0.593029082 -0.137104973 -0.793422163 -0.0132086603 -0.947478771 -0.319545865 -0.0164689478 -0.782516539 0.622411966 -0.994388223 -0.101195015 -0.0308488626</float_array>
          <technique_common>
            <accessor source="#normals_array" count="247" stride="3">
              <param name="X" type="float" />
              <param name="Y" type="float" />
              <param name="Z" type="float" />
            </accessor>
          </technique_common>
        </source>
        <vertices id="vertices">
          <input semantic="POSITION" source="#positions" />
        </vertices>
        <triangles material="qmat_c90f2351a1b48e4d" count="246">
          <input semantic="VERTEX" source="#vertices" offset="0" />
          <input semantic="NORMAL" source="#normals" offset="1" />
          <p>0 0 1 1 2 2 2 3 3 4 4 5 5 6 2 3 4 5 2 3 5 6 6 7 7 8 0 0 5 9 8 10 9 11 10 12 2 13 11 14 12 15 13 16 9 11 8 10 2 2 13 16 14 17 7 18 15 19 16 20 17 21 15 19 18 22 15 19 19 23 20 24 2 2 1 1 13 16 6 25 0 0 2 2 18 26 20 24 12 27 20 24 21 28 22 29 19 23 21 28 20 24 23 30 24 31 25 32 23 30 26 33 27 34 28 35 29 36 30 37 28 38 31 38 29 38 31 39 28 39 24 39 24 40 32 40 33 40 25 32 34 41 35 42 36 43 37 44 19 45 36 43 19 45 38 46 39 47 36 48 24 49 36 48 31 50 24 49 37 51 39 47 21 28 21 28 23 30 27 34 36 43 38 46 40 52 24 31 33 53 34 41 41 54 42 55 43 56 41 54 44 57 42 55 26 33 35 42 45 58 1 1 44 59 41 60 9 11 41 60 46 61 10 12 9 11 46 61 9 11 1 1 41 60 47 62 48 62 49 62 47 63 50 63 48 63 27 34 51 64 52 65 53 66 54 67 51 68 22 69 55 70 56 71 55 72 21 28 52 65 55 72 52 65 47 73 12 15 11 14 53 66 41 60 43 74 14 75 14 75 50 76 51 64 51 64 50 76 47 73 57 77 58 78 59 79 60 80 61 81 62 82 63 83 57 77 64 84 60 80 65 85 61 81 63 83 60 80 62 82 63 86 38 87 66 88 38 87 64 89 40 90 61 91 65 91 67 91 67 92 68 93 61 94 66 88 22 69 69 95 56 71 55 70 70 96 70 96 47 97 71 98 66 99 69 95 60 80 69 95 67 92 60 80 69 95 56 71 67 92 67 92 56 71 68 93 72 100 73 101 74 102 72 103 75 104 73 105 76 106 77 106 78 106 79 107 77 108 76 109 80 110 81 111 82 112 83 113 11 14 77 114 84 115 77 116 85 117 86 118 78 119 84 120 81 111 80 110 77 116 87 121 88 122 44 123 82 112 42 124 80 110 30 37 42 125 89 126 43 127 42 128 32 129 11 130 42 125 90 131 90 131 42 132 82 133 86 134 91 135 92 136 93 137 94 138 86 139 34 41 95 140 96 141 31 142 33 53 32 143 30 144 29 144 31 144 35 42 97 145 45 58 35 42 34 41 97 145 34 41 98 146 95 140 36 147 99 148 94 138 33 53 98 146 34 41 33 53 31 142 94 149 100 150 101 151 47 152 100 150 102 153 101 151 47 97 101 154 71 98 95 140 87 155 92 156 45 157 97 158 54 159 102 153 92 156 101 151 100 150 96 141 102 153 96 141 95 140 102 153 92 136 103 160 101 154 54 159 100 150 49 161 51 68 54 67 49 162 97 158 96 141 54 159 54 67 11 14 83 113 11 130 90 131 82 163 51 164 49 165 89 166 50 167 89 126 49 168 53 66 11 14 54 67 43 169 30 37 89 126 50 167 43 169 89 126 104 170 105 171 106 172 105 173 107 173 108 173 105 171 109 174 91 135 58 78 110 175 105 171 62 82 110 175 58 78 73 101 75 176 74 102 110 177 74 102 75 176 71 98 111 178 112 179 109 174 108 180 113 181 112 179 111 178 103 160 109 174 113 181 91 135 1 182 0 183 44 184 7 185 5 186 22 187 5 6 4 5 22 188 4 5 3 4 12 189 13 16 1 1 9 11 44 184 0 183 45 190 0 183 17 21 18 22 0 0 6 25 5 9 14 191 8 191 10 191 3 4 2 3 12 189 14 192 13 192 8 192 0 193 7 18 16 20 0 183 16 194 17 21 16 194 15 19 17 21 18 22 15 19 20 24 15 19 7 18 19 23 19 195 7 185 22 187 45 190 18 22 26 196 39 47 37 51 36 48 18 22 12 197 26 196 26 33 23 30 25 32 24 198 28 199 32 129 26 33 25 32 35 42 25 32 24 31 34 41 19 23 37 51 21 28 21 28 39 47 24 49 23 30 21 28 24 31 43 169 28 35 30 37 28 199 43 127 32 129 45 190 0 183 18 22 52 65 51 64 47 73 27 34 53 200 51 64 27 34 26 33 53 200 22 188 4 5 12 189 12 27 20 24 22 29 21 28 27 34 52 65 55 72 22 29 21 28 14 75 46 61 41 60 70 96 55 70 47 97 14 75 10 12 46 61 11 14 2 13 14 201 14 75 43 74 50 76 14 202 51 164 89 166 26 196 12 197 53 203 19 204 66 88 38 87 61 205 72 206 114 207 57 77 62 82 58 78 62 82 61 81 110 175 63 83 62 82 57 77 64 84 57 77 59 79 63 83 66 99 60 80 38 87 63 86 64 89 40 90 64 89 59 208 65 209 60 209 67 209 69 95 22 69 56 71 75 210 68 93 112 179 61 94 68 93 75 210 66 88 19 204 22 69 56 71 70 211 68 93 72 103 61 212 75 104 68 93 70 211 112 179 70 96 71 98 115 213 112 179 70 211 115 214 116 215 76 109 78 216 116 215 79 107 76 109 78 216 92 217 116 215 116 215 83 218 79 107 86 118 92 219 78 119 77 116 82 112 81 111 11 14 82 220 77 114 79 107 83 218 77 108 77 116 84 115 78 221 44 123 88 122 84 222 84 222 85 223 44 123 88 122 86 224 84 222 87 121 86 224 88 122 77 116 44 225 85 117 77 116 80 110 44 225 80 110 42 124 44 225 45 190 87 226 44 184 30 37 31 142 32 143 89 126 42 125 11 130 30 37 32 143 42 125 86 227 95 140 93 228 99 148 86 139 94 138 98 146 94 149 93 228 87 226 45 190 83 229 99 230 104 231 106 172 97 158 34 232 96 141 87 121 95 233 86 224 86 134 99 230 91 135 95 140 98 146 93 228 36 234 40 90 99 230 31 235 36 235 94 235 33 53 94 149 98 146 87 155 83 236 92 156 102 153 95 140 92 156 92 217 83 218 116 215 49 161 100 150 47 237 54 159 96 141 100 150 48 238 50 167 49 168 45 190 54 239 83 229 14 201 89 240 11 14 59 79 58 78 104 170 104 170 58 78 105 171 114 241 72 100 74 102 61 205 114 207 110 242 110 177 114 241 74 102 106 172 105 171 91 135 105 171 108 180 109 174 107 243 105 243 110 243 99 230 106 172 91 135 40 90 59 208 99 230 99 230 59 208 104 231 101 154 111 178 71 98 92 136 113 244 103 160 71 98 112 179 115 213 107 245 110 245 108 245 108 180 112 179 113 181 113 181 112 179 103 160 92 136 91 135 113 244 75 210 112 179 108 180 110 246 75 210 108 180 101 154 103 160 111 178</p>
        </triangles>
      </mesh>
    </geometry>
  </library_geometries>
  <library_visual_scenes>
    <visual_scene id="scene">
      <node id="link6_stl">
        <instance_geometry url="#geometry">
          <bind_material>
            <technique_common>
              <instance_material symbol="qmat_c90f2351a1b48e4d" target="#qmat_c90f2351a1b48e4d" />
            </technique_common>
          </bind_material>
        </instance_geometry>
      </node>
    </visual_scene>
  </library_visual_scenes>
  <scene>
    <instance_visual_scene url="#scene" />
  </scene>
</COLLADA>