<?xml version='1.0' encoding='utf-8'?>
<COLLADA xmlns="http://www.collada.org/2005/11/COLLADASchema" version="1.4.1">
  <asset>
    <created>2026-09-14T00:00:00Z</created>
    <modified>2026-09-14T00:00:00Z</modified>
    <unit name="metre" meter="1" />
    <up_axis>Z_UP</up_axis>
  </asset>
  <library_effects>
    <effect id="qmat_76668c90192cb1f5_effect">
      <profile_COMMON>
        <technique sid="common">
          <lambert>
            <emission>
              <color>0 0 0 1</color>
            </emission>
            <diffuse>
              <color>0.79216078 0.81961176 0.92941569 1.0</color>
            </diffuse>
          </lambert>
        </technique>
      </profile_COMMON>
    </effect>
  </library_effects>
  <library_materials>
    <material id="qmat_76668c90192cb1f5" name="qmat_76668c90192cb1f5">
      <instance_effect url="#qmat_76668c90192cb1f5_effect" />
    </material>
  </library_materials>
  <library_geometries>
    <geometry id="geometry" name="link4_stl">
      <mesh>
        <source id="positions">
          <float_array id="positions_array" count="198">0.0583456904 0.0286793839 -0.0455078855 0.0800418779 0.0289752036 -0.0456111059 0.0663866177 0.0332218744 -0.0863327906 0.04337148 0.0157928783 -0.0491001382 0.0488513932 0.0244175661 -0.0845332816 0.089902319 0.0246104375 -0.0847176537 0.0958092511 0.017796509 -0.0456185266 0.0996133238 0.0132158818 -0.0864529386 0.0987377986 -0.0134110656 -0.0864005238 0.0795520172 -0.00214577559 -0.0864625871 0.0630116537 -0.0306070596 -0.0454671234 0.0554615743 -0.0282026492 -0.0864054635 0.0819260553 -0.0295253638 -0.0864397511 0.037238989 0.0029226183 -0.0864453986 0.0406189188 -0.00785860419 -0.0457783304 0.0432181731 -0.0182096381 -0.0518529303 0.0919282362 -0.0222122446 -0.0455694161 0.0675471351 -0.0313715711 -0.0844382495 0.100450657 -0.006181865 -0.0455936715 0.0984242037 -0.0130097978 -0.0845809132 0.0432324782 -0.0136317005 -0.084478721 0.0366657041 -0.0206644386 -0.0155917276 0.0320091508 -0.0221665874 -0.0528941415 0.0415845625 0.0212363787 -0.0481623262 0.0355546325 0.018080581 -0.0433347002 0.0320679061 0.0222729314 -0.0528191328 0.0321559608 0.0287827514 -0.0178772528 -0.00734448712 0.0369799659 0.0167376604 -0.017345272 0.027191801 0.00506908353 -0.00256390474 0.0273351315 0.0174434446 -0.0116904937 0.0318509527 0.00825634692 -0.00829211343 0.0368586332 0.000644165848 -0.00713628065 0.0333021991 -0.00968904514 0.0046395543 0.0354262665 -0.00722215045 0.0403430425 0.0368357897 -0.0188979805 -0.00584425358 0.0365822501 -0.0178599376 0.00486335251 0.0358432047 0.00809972454 0.0122926766 0.0292070843 0.00990861095 0.0029892982 0.0270461105 -0.0175126102 0.0151125016 0.0306854378 -0.00813914277 -0.0175000001 0.0369724743 0.0016052376 -0.0136836618 0.0359996893 -0.0028983138 -0.0140422247 0.027194351 -0.00891713705 0.0377614349 0.0370142572 0.0145150488 0.0361645222 0.0255146287 0.00586766796 0.040862374 0.0259626489 -0.00572892092 0.0319784544 0.0319325849 0.0175000001 0.0416013189 0.0200580098 -0.0188917778 0.0343642682 0.0251552686 -0.0131577179 0.006539803 -0.0367693491 0.00522474851 0.000404201506 -0.0357681438 -0.0082765948 0.0407038741 -0.037443094 -0.0153048225 -0.00699148746 -0.0351356901 -0.014582403 -0.01132832 -0.0374500006 -0.0125208097 -0.00671267509 -0.0358591117 0.00502037397 -0.0143020386 -0.0345873348 0.010650387 -0.00954998285 -0.0373308361 0.0147284614 0.0384567827 -0.0374500006 0.0131162107 0.0319700278 -0.0357066244 0.0148931416 0.0345448591 -0.028130142 0.00996131822 0.0414286368 -0.0264145099 -0.00209881389 0.0339629836 -0.035772834 -0.00625950238 0.0322609954 -0.0272495691 -0.015572845 0.0352804251 -0.0334307626 -0.0142630571 0.040162798 -0.0351266265 -0.0148181962 0.0351177417 -0.0179593246 -0.0375003405</float_array>
          <technique_common>
            <accessor source="#positions_array" count="66" stride="3">
              <param name="X" type="float" />
              <param name="Y" type="float" />
              <param name="Z" type="float" />
            </accessor>
          </technique_common>
        </source>
        <source id="normals">
          <float_array id="normals_array" count="504">-0.377774954 0.925456643 0.0285662711 0.359214723 0.932967484 -0.0231612995 -0.112416416 0.99180907 -0.0606410168 0.279954582 -0.95919311 0.0396730565 0.873068571 -0.226711527 0.431686431 0.654541492 -0.750133514 0.0942077488 -0.245802909 -0.968223512 0.0460880101 -0.627718747 -0.772009254 0.0998540223 0.81023562 0.585980117 -0.0120650204 -0.863136768 -0.503893316 0.0329607576 -0.171691418 0.00370619516 -0.985143781 0.0698044375 -0.0917840004 0.993329287 0.0537595227 -0.0654275641 0.996408105 0.0453353599 0.0244793426 0.99867183 -0.000657462631 0.00342522212 -0.99999392 -0.00181229971 0.00299518416 -0.999993861 -0.000235187254 0.00097219093 -0.999999523 -0.174518615 -0.976235747 0.128479764 -0.489529192 -0.868510246 -0.0777889416 0.350688785 -0.93641156 -0.0122773377 -0.000283344882 0.00102664321 -0.999999404 -0.000903600187 -0.00135695632 -0.999998689 -0.540170968 -0.522702157 0.659543574 -0.771927476 -0.560671091 0.299626172 -0.990458786 0.122814998 -0.0625132024 0.253803402 0.966652691 -0.034152396 -0.630078316 0.776531577 0.000151971544 0.0610843562 0.99642539 0.0583537556 -0.993288994 0.111094169 0.032172367 -0.988531053 0.150284797 0.0148613453 -0.968335569 -0.219780847 -0.118417129 0.0180090331 0.00839507394 0.999802589 0.00179828599 0.00474585639 0.999987125 0.000840369612 0.0890931264 0.99602294 0.00289312284 -0.000583256304 -0.999995649 0.00028204493 -0.000809590274 -0.999999642 0.762559354 -0.643196702 -0.0692909881 0.409648657 -0.912129641 -0.0144065414 0.333178937 -0.942856669 -0.00362328766 0.604031265 0.0613894686 0.794592679 0.86998117 0.0314919055 0.492078215 0.908976734 0.149608389 0.389074117 0.331000954 0.593477905 -0.733636439 0.380530775 0.139084965 -0.914249241 0.131570444 0.0125810681 -0.991226971 0.593056917 0.805002511 -0.0159535818 0.419670671 0.723785043 -0.547733247 0.0919471607 0.00155916356 -0.995762646 -0.459601611 -0.0487181991 0.886787951 -0.950833261 -0.0125014139 0.309450775 -0.231306449 -0.0192441009 0.972690582 0.560046792 -0.682130754 -0.470154494 0.12946257 -0.786222339 -0.604230046 0.845735013 -0.440864086 -0.300617844 0.0991764143 -0.937435091 0.333735585 0.341982543 -0.801924765 0.489861786 -0.244943529 -0.892357945 0.379077792 0.0140181007 0.999232471 0.0365789719 -0.0344254263 0.999289155 0.0153663233 0.0442942567 0.997815609 0.0490100682 -0.0272769649 0.999456048 -0.0185363423 -0.289259285 -0.882359743 -0.371174246 -0.098934032 -0.982661903 -0.156804413 -0.00431174366 -0.702340662 0.711827934 -0.195003971 -0.980435789 0.0268164482 0.496759206 0.833798587 0.240852982 0.484092206 0.844863415 0.227729067 0.375595599 0.900226116 0.220274478 -0.846531034 0.531590998 -0.0282173268 0.933721781 -0.356257319 0.0352750607 0.954934955 -0.19301571 0.225486413 0.629605532 -0.660093486 0.409723639 -0.595410883 -0.216955617 -0.773573637 -0.413308591 -0.412426412 -0.811837733 -0.830596328 0.0147393467 -0.556679904 -0.993977845 0.106998675 0.0236513223 0.995131791 -0.0879109949 0.0445468761 0.971559107 -0.233572915 0.0389438383 0.791451216 -0.610284269 -0.0340305082 0.0710115358 -0.997377753 0.01396525 -0.107700646 -0.994166732 0.00575022912 0.251023144 0.206257641 0.945751131 0.192644894 0.318824768 0.928029478 -0.0713413358 -0.0537152179 -0.996004581 -0.0603623725 -0.0648846924 -0.996065438 -0.0217772946 -0.103894688 -0.994349837 -0.11499843 -0.00899167545 -0.993324995 -0.1985825 -0.967169046 -0.15858458 -0.373123795 -0.912783444 0.166147411 0.331028879 -0.94360429 -0.00555245485 0.440374821 -0.897077203 -0.0363664813 0.679927945 0.732701004 0.0291077737 0.640992701 0.0483552851 0.766022265 0.531601012 -0.755509973 -0.382890433 0.948665082 -0.224508956 -0.222778574 -0.0265948921 -0.997621536 -0.063592203 0.0289682131 -0.98602879 0.164036766 -0.0251656696 -0.99958235 0.0142050656 -0.0402574651 -0.576669276 -0.815985262 0.122185342 0.0492631048 -0.991283953 -0.0418508947 -0.619710088 -0.783714175 0.177466199 0.983980834 0.0169551466 0.2720716 0.950176716 0.152122661 0.0591917336 0.976624072 0.206644073 -0.121650428 0.990947604 -0.0567806624 -0.150658965 0.98804009 -0.0328436457 -0.525749564 0.833390534 -0.170433715 -0.0134375477 0.99775821 -0.0655593798 -0.149124086 -0.988037825 -0.0392841361 0.198960707 -0.97791481 -0.064010039 -0.523827016 -0.850980759 0.0379072912 0.0510938242 -0.992310107 0.112739131 0.133017942 -0.789480388 0.599188566 -0.00835690834 0.999821782 0.0169266071 0.0145597709 0.997904181 0.0630500764 -0.679932594 0.672436833 -0.292438775 -0.661464036 0.67396009 -0.329003215 -0.273722321 0.953883171 -0.123219118 -0.992734611 -0.108110227 -0.052822385 -0.938132167 -0.323187679 -0.124329306 -0.998440266 -0.050604675 -0.0235829875 0.986374021 -0.0491708405 0.156998426 0.734526396 0.473013461 0.486548305 0.921400726 0.21851562 0.321359009 0.999760151 -0.00864214543 -0.0201223064 0.879709661 0.00410674326 -0.475493491 0.997881472 0.000793235668 0.0650536343 -0.999993026 0.000572010002 -0.00368373771 -0.999995172 -0.00197919551 0.00239691278 -0.839526415 -0.468426406 -0.275267392 -0.0115089798 0.0989776701 0.995023072 0.108831443 -0.012055913 0.993987083 0.342843503 -0.0647299364 0.937159717 -0.0154688153 0.200033948 0.979666829 0.025600573 -0.0319190323 -0.999162555 0.0554525331 -0.0399524011 -0.99766165 0.306425124 0.218629912 -0.926447332 0.993381262 0.0923171118 0.0683461428 0.974355578 0.211396664 0.0770883635 0.215436667 0.970893383 0.104657143 0.00448748888 0.00077122252 0.999989629 -0.861982584 0.506860971 0.00883276109 0.881110311 0.472224712 -0.0254653934 0.987258255 -0.153904274 0.0404303633 0.915163815 0.400006592 0.0496984348 0.643035769 -0.763625503 0.0581465922 0.503925025 0.857669234 -0.102288917 0.913235128 -0.406456113 -0.0281952173 0.828353047 -0.554307401 -0.0810836777 0.970771074 0.0195368808 0.239210948 0.868194401 -0.0702665597 0.491224051 0.0115046715 0.999900043 -0.00821532588 0.0411463752 0.99808383 -0.0462136306 0.127484858 0.982704759 -0.134309441 0.0247043669 0.995261848 -0.0940403119 0.237178892 0.926439762 -0.292327821 0.476278424 0.412912995 -0.776312888 -0.0695922151 -0.818860769 -0.569757819 -0.418091178 -0.500955701 0.75778836 -0.0346130058 0.998893976 -0.0318238996 -0.999979258 0.00534542557 -0.00358518166 -0.999996543 0.00131856336 0.00227441965 -0.46381104 -0.866438866 0.184832335 0.123703584 -0.44416678 0.887363136 -0.344670326 0.921282291 -0.180114821 0.656489789 0.0202956572 -0.754061878 -0.0340225063 0.810424805 0.584853947 0.839874029 0.0241393279 0.542244375</float_array>
          <technique_common>
            <accessor source="#normals_array" count="168" stride="3">
              <param name="X" type="float" />
              <param name="Y" type="float" />
              <param name="Z" type="float" />
            </accessor>
          </technique_common>
        </source>
        <vertices id="vertices">
          <input semantic="POSITION" source="#positions" />
        </vertices>
        <triangles material="qmat_76668c90192cb1f5" count="148">
          <input semantic="VERTEX" source="#vertices" offset="0" />
          <input semantic="NORMAL" source="#normals" offset="1" />
          <p>0 0 1 1 2 2 0 3 3 4 4 5 1 6 0 3 5 7 1 1 6 8 2 2 6 9 1 6 5 7 7 10 8 10 5 10 7 11 5 12 9 13 2 14 7 15 9 16 10 17 11 18 12 19 13 20 9 16 11 21 14 22 15 23 10 17 10 17 15 23 11 18 15 23 13 24 11 18 10 25 16 26 17 27 18 28 19 29 16 26 5 7 8 30 19 29 20 31 17 32 19 33 9 16 8 34 12 35 9 13 20 31 19 33 21 36 22 37 15 38 23 39 24 40 3 4 3 4 24 40 14 41 25 42 3 43 15 44 26 45 23 46 25 42 25 42 15 44 22 47 27 48 28 49 29 50 30 51 29 52 28 53 31 54 32 55 33 56 33 57 34 58 35 59 31 60 33 57 35 59 36 61 37 62 29 52 30 51 36 61 29 52 33 56 38 63 39 64 40 65 30 66 41 67 31 68 42 68 30 68 41 69 28 53 42 70 32 55 30 51 42 71 35 72 38 73 42 74 40 65 41 67 35 59 40 75 42 74 28 49 43 76 44 77 45 78 46 79 39 64 26 80 43 81 29 50 46 82 37 62 33 56 39 64 34 83 26 84 35 85 34 83 47 86 26 84 39 64 35 87 26 80 47 88 24 89 23 90 26 45 47 91 23 46 34 92 48 92 47 92 45 78 48 93 34 94 49 95 50 96 51 97 52 98 51 99 53 100 54 101 50 102 55 103 55 104 52 105 53 106 55 103 49 107 54 101 56 108 54 109 49 95 55 110 53 111 56 108 43 81 46 82 57 112 49 107 58 113 50 114 59 115 60 116 61 117 62 118 61 119 58 120 60 121 59 122 57 123 48 124 59 125 61 126 46 127 22 128 62 118 61 119 62 118 63 129 52 130 64 131 63 132 62 133 52 130 63 132 62 134 21 135 64 136 64 137 57 123 51 138 21 139 15 139 65 139 5 12 4 140 20 31 4 5 3 4 14 41 0 0 2 2 3 141 13 24 3 141 2 2 13 20 2 14 9 16 7 142 6 8 18 143 2 2 6 8 7 142 6 9 5 7 19 29 18 28 6 9 19 29 5 7 0 3 4 5 9 16 12 35 11 21 20 144 14 41 10 25 20 144 10 25 17 27 16 145 10 17 12 19 9 146 19 146 8 146 8 147 16 145 12 19 8 147 18 143 16 145 7 142 18 143 8 147 5 12 20 31 9 13 17 27 16 26 19 29 21 36 62 148 22 37 14 41 24 40 65 149 65 149 15 150 14 41 25 42 23 46 3 43 3 141 13 24 15 23 4 5 14 41 20 144 36 61 30 51 32 55 40 151 27 152 31 153 31 153 27 152 36 154 31 153 36 154 32 155 37 62 36 61 33 56 46 79 29 52 37 62 33 56 32 55 38 63 35 156 39 156 38 156 40 157 31 157 30 157 27 48 40 75 28 49 31 158 41 158 42 158 41 69 30 51 28 53 41 67 31 60 35 59 27 152 43 159 36 154 38 63 32 55 42 71 40 75 35 72 42 74 46 79 37 62 39 64 36 154 43 159 33 57 44 77 43 76 59 125 43 81 27 48 29 50 48 124 44 77 59 125 45 78 44 77 48 93 46 127 26 160 22 128 26 160 25 161 22 128 33 57 43 159 34 58 47 88 48 162 24 89 34 94 43 76 45 78 51 97 50 96 53 111 55 104 50 114 52 105 50 96 54 109 53 111 55 103 58 113 49 107 57 112 56 108 49 95 54 109 56 108 53 111 57 112 46 82 58 163 58 163 56 108 57 112 50 114 58 113 61 117 61 117 60 116 64 164 59 125 43 76 57 165 57 112 49 95 51 97 58 113 55 103 56 166 58 120 46 127 62 118 21 167 48 124 63 132 63 132 48 124 61 126 61 117 64 164 52 105 65 149 48 124 21 167 24 40 48 124 65 149 50 114 61 117 52 105 52 98 62 134 51 99 62 134 64 136 51 99 64 137 60 121 57 123 64 131 21 167 63 132</p>
        </triangles>
      </mesh>
    </geometry>
  </library_geometries>
  <library_visual_scenes>
    <visual_scene id="scene">
      <node id="link4_stl">
        <instance_geometry url="#geometry">
          <bind_material>
            <technique_common>
              <instance_material symbol="qmat_76668c90192cb1f5" target="#qmat_76668c90192cb1f5" />
            </technique_common>
          </bind_material>
        </instance_geometry>
      </node>
    </visual_scene>
  </library_visual_scenes>
  <scene>
    <instance_visual_scene url="#scene" />
  </scene>
</COLLADA>