<?xml version='1.0' encoding='utf-8'?>
<COLLADA xmlns="http://www.collada.org/2005/11/COLLADASchema" version="1.4.1">
  <asset>
    <created>2026-09-14T00:00:00Z</created>
    <modified>2026-09-14T00:00:00Z</modified>
    <unit name="metre" meter="1" />
    <up_axis>Z_UP</up_axis>
  </asset>
  <library_effects>
    <effect id="qmat_76668c90192cb1f5_effect">
      <profile_COMMON>
        <technique sid="common">
          <lambert>
            <emission>
              <color>0 0 0 1</color>
            </emission>
            <diffuse>
              <color>0.79216078 0.81961176 0.92941569 1.0</color>
            </diffuse>
          </lambert>
        </technique>
      </profile_COMMON>
    </effect>
  </library_effects>
  <library_materials>
    <material id="qmat_76668c90192cb1f5" name="qmat_76668c90192cb1f5">
      <instance_effect url="#qmat_76668c90192cb1f5_effect" />
    </material>
  </library_materials>
  <library_geometries>
    <geometry id="geometry" name="link2_stl">
      <mesh>
        <source id="positions">
          <float_array id="positions_array" count="495">0.0258940198 0.0322411507 0.0158822779 0.00777664455 0.0305056125 0.0298022628 0.0115823252 -0.0292499997 0.0285345204 0.0243783873 0.0292228051 0.0172450803 0.0101851895 0.0195593406 0.0285646804 0.0299999993 0.0321830958 -0.00147136475 -0.00197290024 0.0325215794 -0.00157026062 0.028584782 0.0195051208 0.00762587134 -0.0134858042 0.0195306055 0.0280157607 -0.0395569541 0.0320483036 0.0299999993 0.00148223247 0.0345499888 0.000932289171 0.0171613432 0.0308163594 -0.0253087319 0.0263079833 0.0292101894 -0.0137548298 0.0149651067 0.0195278991 -0.0279549118 -0.0294500832 0.0291428305 -0.0181314889 -0.0143993255 -0.0188407227 0.0280201435 -0.0392153375 -0.0267434344 0.029815698 0.0102828033 -0.0276965573 0.0182635467 -0.0161837302 -0.0281993169 0.0204204042 -0.00232563773 -0.0260753091 0.00436816551 -0.0177733824 -0.0273081902 0.00326056057 0.0176201146 -0.0272446759 0.00362354727 0.0299999993 -0.028950626 0.00251774932 -0.000742287957 -0.0259943828 -0.00996604934 -0.0127493357 -0.0282472707 -0.0178689118 0.009927053 -0.0278348103 -0.0178164095 0.00163766055 -0.0288047604 -0.0299999993 0.0257214885 -0.0292034335 -0.0160210654 -0.0172597915 -0.0188811421 -0.0270495825 -0.039565824 0.0321964696 -0.0299879033 -0.029417241 0.0284486692 0.0177522805 -0.0207929481 0.028670365 0.0270008277 -0.029982103 0.0177377444 0.0290215276 -0.0288917385 0.0170183945 0.0124527225 -0.029894378 -0.0157109518 0.0107385973 -0.0313224904 0.0155630773 0.00524090277 -0.0290764906 0.01941338 -0.0102073941 -0.0342223197 0.0205147751 0.0217377748 -0.0403226838 0.0253128707 0.0181349814 -0.0331066437 0.00179917074 -0.021352116 -0.0331677273 0.00182475231 0.0213716161 -0.0404352657 0.025262462 -0.0179576781 -0.0403404273 0.0269008148 -0.0191183481 -0.0406804681 0.0248268303 0.0240940899 -0.0482377075 0.00178237166 0.0164618474 -0.0478115082 0.00188011001 -0.0168060791 -0.0142285908 0.0198203679 -0.0276024844 -0.0299940761 0.0179079939 -0.0289556719 -0.028862698 0.0175942648 -0.0151418261 -0.0298691429 -0.0151494313 -0.0101218875 -0.0402830206 0.021445781 -0.0244661346 -0.0342280529 0.0195777677 -0.0216832999 -0.0299174767 -0.0189942904 -0.0290730502 -0.0396575332 -0.0266818143 -0.0284821708 -0.0398165882 -0.0219313744 -0.0239040274 -0.040322952 -0.019071091 0.024438737 -0.0300271921 -0.0190138463 0.0293137487 -0.0311723407 -0.024861997 0.00175392139 -0.0404203124 -0.0247269012 0.019787496 -0.0240771323 -0.0279636011 -0.0201997124 -0.100296654 -0.0249622017 -0.0150001869 -0.103723817 -0.0249000899 -0.0170458686 -0.224083632 -0.0224179104 -0.0241265129 -0.101421125 0.0133786611 0.0218635947 -0.0968149081 0.0247708224 0.0149917509 -0.097941108 0.024700582 -0.0117955208 -0.101483382 0.0197185166 -0.0220508892 -0.112804502 0.0274062194 -0.00219905004 -0.223704815 0.0249968171 -0.0235533621 -0.131469667 -0.0254679341 -0.00385902426 -0.160149604 -0.0248791669 -0.0181000736 -0.107540384 -0.0253452677 0.00930176675 -0.100589037 -0.0210596677 0.0148490882 -0.0998417139 -0.0248047505 0.0181005765 -0.103457391 -0.0248470344 0.0165469907 -0.159971431 -0.024779493 0.0160325654 -0.163831443 -0.0248042885 0.0181516632 -0.223703504 -0.0201653186 0.0244135708 -0.129851446 0.0275615994 0.00403783936 -0.101960428 0.00182618527 0.0136132464 -0.102002256 0.0211019106 0.0149992136 -0.107324101 0.0249678548 0.0149336094 -0.102259517 0.0143973269 0.0219768863 -0.159327656 0.0214138255 0.0216227192 -0.162208959 0.00175859884 0.0193458181 -0.102147043 0.0017949621 -0.0205414332 -0.102002256 0.0211019106 -0.0150007866 -0.103005655 -0.0250781942 -0.0125138555 -0.159713149 0.02508297 -0.0115007218 -0.106101654 0.0217468981 -0.0214745179 -0.163305148 -0.025022801 -0.0127769569 -0.156649292 -0.0253230166 0.00873943232 -0.163930416 -0.024542205 -0.0161061157 -0.160627872 -0.0211759731 -0.0149340881 -0.163372129 -0.0211759564 0.0149340909 -0.223072648 -0.0248500016 0.0184994582 -0.165173963 0.0245797336 0.0111639863 -0.158064678 0.0156143028 0.0136766797 -0.162002265 0.0211019162 0.0149992146 -0.164687708 0.0217769723 -0.0216342043 -0.162002265 0.0211019181 -0.0150007866 -0.16213648 0.00175719487 -0.0189955514 -0.161675334 0.0173414238 -0.022235306 -0.162702143 0.0147349359 -0.0118283033 -0.152018264 0.0271971971 -0.00284128264 -0.162511826 0.0200735778 0.0220602956 -0.223606884 0.0252293218 0.023171613 -0.23074536 0.00184661453 -0.0214189272 -0.234064534 -0.0177287571 0.0277592167 -0.234652042 -0.0175487772 0.00986812264 -0.250962108 -0.0258966684 0.0288195796 -0.224328652 -0.0266646463 0.028670121 -0.243566439 -0.028638795 0.0187269468 -0.232707202 -0.0223702174 0.000434290938 -0.2374295 -0.0282022618 -0.0179844387 -0.24545826 -0.0283017829 -0.0115908477 -0.224347293 0.0282852966 0.029676849 -0.233954623 0.0155070499 0.0289563704 -0.234536558 0.0289753247 0.0214862861 -0.229909405 0.0201898385 0.0216488354 -0.2330212 0.0189235434 0.0116051845 -0.230902806 0.00182792288 0.0213669762 -0.237730056 0.0274765827 0.0131740049 -0.23588334 0.0282615218 -0.00760440761 -0.255965412 0.0296766143 0.00024836784 -0.236227229 0.0198736582 -0.0139063345 -0.262024224 0.0194240846 0.0299999993 -0.253891647 0.0279104766 0.028102424 -0.258719176 0.028258305 0.00377398776 -0.235395849 0.017606223 0.0155281052 -0.224524081 0.0284740683 -0.0297110993 -0.224855319 -0.0267318711 -0.0298197437 -0.234112173 0.0162565894 -0.0285828039 -0.233982235 -0.0185109228 -0.0292683896 -0.234258741 -0.0158219356 -0.0105628176 -0.235870793 0.0172635913 -0.0131551148 -0.250447482 -0.0188852157 -0.0283451825 -0.272191614 -0.0292499997 -0.0296985451 -0.215697408 0.0026885923 -0.0100883879 -0.235510767 0.0290698726 -0.0216915477 -0.252640635 0.0276557561 -0.0284061134 -0.229644179 0.0207410939 -0.021637544 -0.261981666 0.0194089767 -0.0299999993 -0.276402533 0.0283319671 0.0267533138 -0.289989829 0.0278838035 0.0127590662 -0.270576984 0.0316712074 0.0017299446 -0.26584655 0.0312118065 0.00736339157 -0.287551314 0.0195273273 0.0176572464 -0.291825145 0.0195356514 -0.0118173743 -0.290412694 0.0291183442 0.0157888364 -0.278037518 -0.0292499997 0.0278329588 -0.292046368 0.0291493833 -0.0114861466 -0.266494483 0.0298163984 -0.00719717285 -0.279789925 0.028473923 -0.0257802717 -0.288291156 0.027572209 -0.0146190859 -0.29396978 -0.0291341543 -0.00147791556 -0.263136506 -0.0259869769 0.0093924813 -0.278336287 -0.0266263597 -0.00645150431 -0.264626205 -0.0260044634 -0.00549453776 -0.280274302 -0.0278811492 0.0130623793 -0.25230965 -0.0263500139 -0.00632522861 -0.274291724 -0.0277328137 -0.0182695966 -0.0172292199 0.0290475897 -0.0294015389 -0.106084727 0.015828874 -0.013652334 -0.21631074 0.00189172244 0.0163652282</float_array>
          <technique_common>
            <accessor source="#positions_array" count="165" stride="3">
              <param name="X" type="float" />
              <param name="Y" type="float" />
              <param name="Z" type="float" />
            </accessor>
          </technique_common>
        </source>
        <source id="normals">
          <float_array id="normals_array" count="1008">0.844806194 0.00356202875 0.535060585 0.607794285 0.0218681805 0.79379338 0.775103509 -0.0508174449 0.629787385 -0.593287408 -0.0396413356 -0.804014027 -0.689968228 -0.566463232 -0.45062533 -0.562258601 0.0136814341 -0.826848269 0.0105885789 0.999943614 -0.000839858607 0.0106698573 0.999536514 -0.0285111535 -0.0776712373 0.989807069 -0.119369566 -0.813181877 0.565881073 -0.136065662 -0.0567960516 0.998165548 0.0209700651 -0.00113083469 0.999992967 -0.00358306547 -0.00104744977 -0.158687428 0.987328291 0.0592043437 -0.0533008203 0.99682188 0.0119612524 -0.132199645 0.991150916 0.0225152634 0.990741253 0.133883476 0.0100453729 0.990578234 0.136579052 -0.101820327 0.993614614 -0.0486073717 -0.00977197755 0.999375641 0.0339529514 -0.0231819861 -0.00128130929 0.999730468 -0.376847208 0.00831815321 0.92623806 -0.00928727165 0.028356785 0.999554694 -0.00971139967 -0.999663234 -0.0240644906 -0.857040107 -0.432797849 0.279585838 -0.422268361 0.866796255 0.265242785 0.166722819 -0.9703601 0.174942151 -0.174695686 0.0524181388 0.98322618 0.059231814 0.0228820238 0.997981966 -0.0847265497 -0.989257097 -0.119129516 -0.0516459718 -0.997789085 -0.0418283008 0.0129688671 -0.9987728 -0.0477990359 -0.0459345803 -0.998939037 0.00329493708 -0.112801544 -0.993183434 -0.0293670408 -0.0597719774 -0.991643548 -0.114325605 -0.13789323 -0.990318179 -0.0159783438 0.98376435 -0.0394108742 0.175084203 0.993083358 0.0289700199 -0.113781206 0.00816864241 -0.994490623 0.104506865 0.0120649831 -0.998144388 0.0596839972 -0.0732861087 -0.990651369 0.115060754 0.889167726 -0.261082292 0.375788182 0.809285283 0.024602998 -0.586900353 0.813160121 -0.0281941257 -0.581356764 0.500248551 -0.0622957982 -0.863638043 -0.105279781 -0.991834223 0.0719790682 -0.0464076661 0.0153932059 -0.998803973 -0.0774270296 0.111752957 -0.990715086 -0.153471544 0.409494877 -0.899311066 0.0466686748 0.68368274 -0.72828567 0.648761451 0.471759468 -0.597119391 0.513265967 0.322010517 -0.795529544 0.354925811 0.188204467 -0.915754735 0.0679053292 -0.996912479 -0.0394257754 0.153785318 -0.972334862 -0.175826713 -0.00171792298 -0.999595225 0.0283986703 0.110945158 -0.992548108 0.0503932238 -0.723678291 0.00711804722 0.690100789 0.0803970248 -0.0124039408 0.996685743 -0.745572746 -0.0120565994 0.666315138 0.648937404 0.478448868 -0.591580033 -0.404360503 0.899518609 0.165404961 -0.209005475 0.944054008 0.255105257 -0.877515495 0.394490749 -0.272660226 -0.99333626 0.0967346504 -0.062653482 -0.957305312 0.183513626 -0.223359004 0.122981317 -0.852171063 -0.508606076 0.0528699569 -0.310190678 -0.949203074 -0.997645795 -0.00304601691 0.0685097054 -0.99559325 0.0290179141 -0.0891744345 0.126681656 -0.84794718 0.514720678 -0.99279958 0.0840765834 0.0853234455 -0.993457139 0.113094196 -0.0158922486 -0.992213249 0.0702617764 0.102840185 0.0200809389 0.727172196 -0.686161339 0.0341998786 0.728814006 0.683857143 0.0657183081 0.97005564 -0.233822986 0.0850154683 0.940136492 0.330023825 0.035793934 -0.1179934 -0.992369056 0.101081222 -0.00415804936 -0.994869471 0.998042405 -0.0280693248 -0.0558881685 0.995649576 -0.0432557948 -0.0825278535 0.999745488 -0.00819650758 -0.0210183375 0.312329203 0.891674936 0.327667892 0.654409409 0.454824567 0.604055405 -0.996616721 0.0566519387 -0.0595458187 -0.992669761 0.00418465259 -0.120785654 -0.804179728 0.467012256 0.36768803 -0.0125236344 0.279106498 -0.960178494 -0.0394587293 -0.02678065 -0.998862267 -0.647116065 -0.743549407 -0.168449149 -0.871908486 0.288662642 0.39553687 -0.986151814 -0.027820155 0.163495108 -0.988559246 -0.0409819148 0.145159006 0.0660742223 -0.013751057 0.997719944 -0.179697961 -0.98347497 -0.0220369697 0.00358654675 0.984545887 0.175090179 -0.992018759 -0.0694634467 0.105231442 -0.154457152 -0.987248003 0.0385271683 -0.0181403272 -0.998088539 0.0590776093 0.999993384 0.00208513159 -0.00297346874 0.0230278354 0.979762316 -0.198835358 -0.64702034 -0.657590687 0.385926455 -0.0802628174 -0.992533267 -0.0918457657 0.0304887537 -0.997544527 -0.0630504042 -0.704337478 0.00767774321 -0.709823728 -0.324651688 0.0119161773 -0.945758581 0.0044469987 -0.972873271 -0.231295943 0.645942152 -0.732821226 -0.213849947 0.0563504994 0.116694145 -0.991568029 0.0201352295 -0.935578704 -0.352543652 0.0160349458 -0.984035194 0.177250251 -0.00262382836 -0.391287118 0.9202649 -0.00262617785 0.999127865 -0.0416733436 0.013675713 0.929050803 -0.369699359 -0.0204788428 0.701834917 -0.712045252 0.0503756478 -0.261707604 0.963831663 -0.000240221998 -0.999984682 -0.00553344563 0.0604621172 -0.993928492 -0.0919268355 -0.015499264 -0.999006987 0.0417708829 0.00547851762 0.367264301 -0.930100501 -0.675567746 0.165892243 0.71839267 -0.658998609 0.1048318 0.744802773 -0.708486676 0.376729131 0.596759439 0.00484323921 -0.959173739 -0.282775968 -0.32120347 -0.174055666 -0.930877507 0.0585436337 -0.994327843 -0.0887962803 -0.0383811072 -0.95065254 -0.307874292 -0.0672891214 -0.991605878 -0.110408232 -0.000922169012 0.01085163 0.999940693 0.0434480943 -0.533425093 0.844730675 0.00185135694 -0.331961364 0.943291187 -0.00138021435 0.998968482 0.0453880355 0.94006443 -0.226150393 0.255215406 -0.496047258 -0.0135357231 -0.868189991 -0.614722311 -0.0234120004 0.78839606 0.871634007 -0.0440478474 -0.488174051 -0.0311884619 -0.941523612 -0.335500538 -0.0736062005 0.0754480362 -0.99442935 0.0225850455 -0.603579462 -0.796982884 0.00196780404 0.917653859 -0.397375792 -0.0102668554 0.896034598 -0.443865567 -0.00124761462 0.999998927 -0.000746798876 0.98705107 -0.0299333222 -0.157588646 -0.512699425 -0.0189723223 0.858358502 -0.675386429 -0.0250171199 -0.737039566 -0.0684632137 0.0862392411 0.993919313 0.00358998799 -0.977509081 0.210862815 -0.00761467172 -0.651286542 0.758793652 -0.0133287357 -0.999184251 -0.0381201953 0.00708341086 -0.999341786 0.0355780162 -0.00307978108 -0.959422529 0.28195563 -0.705801547 0.0977730602 -0.701629937 -0.823117435 0.30384472 -0.479745805 -0.75303793 0.167244807 -0.636367083 0.115959644 -0.187876314 -0.975323439 0.723322809 0.174692288 0.668046951 0.742464066 0.389390945 0.545088768 0.707766294 0.103500552 0.69882369 0.0563519821 -0.957858384 0.281658888 -0.0221529081 -0.986281097 -0.163581356 0.789363921 0.548834383 -0.275109798 0.965529263 0.257956654 -0.0348074213 0.988964081 0.136521801 0.0575486124 0.299455136 -0.0082334131 -0.95407486 -0.910303473 -0.049548503 -0.410965323 0.669793189 -0.0228456333 0.742196202 -0.0062434976 -0.999168456 0.0402910747 -0.0622132979 -0.939437211 0.337027013 0.981169522 -0.0368569754 -0.189599425 -0.326173425 -0.00911217462 0.945266008 -0.15174979 -0.188916743 0.970197141 -0.608761966 -0.0210416056 -0.793073833 0.0250980537 0.202759132 0.978906929 -0.00913329795 0.0736829042 0.997239888 0.0409220643 -0.320607752 0.946327686 -0.899147332 0.248307154 0.360385329 -0.963232517 0.0838422701 0.255251944 -0.975396812 0.0292473305 0.218507916 0.989311337 -0.130576298 0.0649071857 0.960211039 -0.27814731 0.0250759926 0.987303138 -0.146816805 0.0606415346 -0.013436839 0.999180973 -0.0381690376 0.00349132041 -0.639430523 0.768840909 -0.0849085674 -0.927914858 -0.362993836 -0.013656294 -0.998765469 -0.0477603786 -0.024511626 0.999592304 0.0146414051 -0.0282538999 0.121424064 0.992198527 -0.00701867463 0.034057755 0.999395192 -0.0348529406 0.126225874 0.991389096 -0.85064888 0.523939252 0.0434064828 -0.933105171 0.357969493 0.0342424661 -0.433896095 0.900661349 0.0233088508 -0.0517419986 0.0401153713 0.997854471 0.00877355505 0.110864542 0.993796825 -0.0550786927 0.0416846871 0.997611523 0.433175385 -0.522596836 -0.734337509 0.252007425 -0.967695355 -0.00761361234 0.0640903413 -0.994329929 0.0848552808 0.231524587 -0.97085911 0.0618788376 -0.0483851247 -0.997786701 0.0456135012 0.171174809 0.773356557 0.610425115 -0.00286892126 -0.0541434661 0.998529017 0.315907568 0.915178597 -0.250300974 0.163267791 0.463257074 -0.871054828 0.530188978 0.168978572 -0.830870569 0.993490875 -0.00174994604 0.113898516 0.989988923 0.00118513999 0.141140133 0.993332744 -0.00160226389 0.115271576 0.9889521 0.00194998353 0.14822261 0.969250023 0.174612865 -0.173392028 0.992851913 0.0663947761 -0.0991804898 0.447652638 0.85237056 -0.270317435 0.0913382843 0.994332969 0.0543990731 0.0116579793 0.995747507 0.0913835391 0.0262568574 0.999079943 0.033908695 0.0783265904 0.905488431 0.417079955 0.104841426 0.974480629 -0.198483646 -0.034620963 0.836355805 0.547092617 -0.0249652267 -0.999644697 -0.00933819823 -0.0850076005 -0.995362699 -0.0450205505 -0.026471559 -0.999361396 -0.0240008552 -0.662981153 -0.234601527 -0.710927606 -0.141916648 -0.980212033 -0.138000011 0.990852296 -0.00621748902 -0.134807438 0.694706082 -0.700550079 0.16313529 -0.99607712 -0.0398363136 -0.0790154859 -0.999891996 -0.00345491245 -0.0142837055 -0.999055207 -0.0177256539 -0.0396803506 -0.0444054268 -0.0537030101 -0.997569144 -0.0498442501 0.041965533 -0.997874975 -0.0495304838 0.0119909439 -0.998700619 0.620310664 0.0778320804 -0.780484974 0.740779161 -0.0165221635 -0.671545386 0.204436541 0.070965305 -0.976304054 0.0324671939 -0.995231986 0.0919735134 -0.00753723085 0.999794126 -0.0188381914 0.00360712665 0.999992907 -0.00105623726 -0.0322117247 0.998986006 -0.0314550251 0.32381922 0.92301327 0.207816198 -0.250445604 -0.947202623 0.200210467 -0.476475477 -0.563103914 0.675192595 -0.705509722 -0.406981617 0.580191314 0.219392598 0.344107866 0.912938476 0.0966768265 0.065472208 -0.993160069 0.170121536 0.797011316 -0.579509854 -0.0155520746 0.0959811658 -0.995261669 -0.0257168729 0.768847525 -0.638914764 -0.16162473 0.955787778 0.245656639 0.385651231 -0.583085537 -0.715041518 0.78445363 -0.568686306 -0.247443572 0.0281470753 -0.994059861 0.105132103 0.30012235 0.937607586 -0.175552323 0.00938108657 0.993158937 0.116393112 0.635972321 0.617751658 -0.462517172 0.908644438 -0.179197475 0.377165109 -0.464436352 0.0297825448 0.88510555 -0.886463225 0.0163963437 0.462508559 -0.386477232 -0.657807648 0.646470785 0.0671839714 0.0424652733 0.996836483 -0.0398354195 0.998306036 -0.0424058475 -0.0142239435 0.998904049 -0.0445907116 -0.0108549502 0.997020841 -0.0763653368 -0.60144943 -0.0385312401 -0.797981143 -0.413310021 -0.0131381517 -0.910495579 -0.0108268699 -0.996602476 0.0816469565 0.555014729 -0.719574034 0.417339027 -0.216563806 -0.970853984 0.102677628 -0.166482612 0.952948987 0.253321409 -0.935743451 -0.0294695776 -0.351448119 -0.993854105 -0.0695924386 -0.086086899 0.00405816548 0.999991715 -0.000306074333 0.48828122 0.757619679 0.433121085 0.0057215509 -0.988033772 -0.154131532 0.126598492 -0.989970565 0.0626988262 0.00487123104 -0.997878253 0.0649254546 0.128374353 -0.986005425 -0.106364183 0.233189777 -0.63092345 0.739971757 -0.128825128 -0.987625122 0.0894469768 0.102135628 -0.983114123 0.15183869 0.173883289 -0.984741509 0.00698017329 0.526718974 0.137687668 -0.838814199 -0.506462812 -0.0139644528 -0.862148702 0.0216106027 0.995726109 -0.0897914395 -0.783572793 0.00681536319 0.62126261 0.0521221533 0.187060177 -0.98096472 0.0445460528 -0.997395098 0.0567334555 -0.116842635 -0.984077632 -0.133936554 0.0995071456 -0.0308867563 -0.994557381 0.997164667 -0.0340615623 0.06710051 0.998614788 -0.0231953785 0.047227785 0.999689221 -0.00988625735 0.0228839014 0.638477683 0.342052937 0.689453423 0.1231125 -0.991856813 -0.0326094553 -0.993313491 -0.0608265996 0.0981248692 0.999975204 -0.00117147889 0.0069415844 -0.807084918 -0.0651594326 -0.586828947 0.0172891188 0.998094797 0.0592269823 -0.0316427723 -0.999237418 -0.0228749868 -0.920548856 -0.231320232 0.314770997 0.00661952328 0.058490932 -0.998265982 -0.985560894 0.133997127 0.103510715 -0.947948694 0.252945185 0.193421826 -0.968706608 -0.19894506 -0.148419723 0.952175438 -0.0604795739 -0.299506605 0.211351201 -0.382280052 0.899551332 -0.709050417 0.561608911 0.426430523 -0.00498076575 0.0273591504 0.999613285 0.946231663 -0.170550779 0.274878293 -0.974722087 -0.0484434068 0.218105763 -0.0808698237 0.95113951 -0.297982633 0.0287098102 0.179167002 -0.983399689 0.0547702573 0.147275269 -0.987577975 -0.109881893 -0.348061651 -0.93100971 -0.986572027 -0.109784223 0.120925844 0.995353103 -0.0095343003 0.0958189741 -0.0454769656 0.73101747 -0.680841625 0.153979748 0.528226733 0.835025012 -0.0265849512 -0.969433427 0.243909895 0.586011648 0.0376180001 0.80942899 -0.994298697 -0.000551919919 0.106629431 -0.996470988 -0.00864325464 0.0834917054 0.773382485 -0.0847852305 0.62824434 -0.0238184631 0.137385666 0.990231216 -0.50634259 0.304864913 -0.806644022 -0.0304884072 0.989301145 -0.142666489 0.990775883 -0.00627930323 -0.135365263 0.997565806 -0.00185750111 0.0697069317 0.993582308 -0.0567746647 0.0978306234 -0.992365837 -0.0569251962 -0.109405339 0.998036742 -0.0582332909 0.0230540056 -0.11483945 -0.99203974 0.051662527 -0.0651046336 0.996208847 0.0577006936 0.172325894 0.969065428 0.176680386 -0.546259105 -0.537109256 -0.642739892 -0.0406796075 -0.992964387 -0.111206338 0.519288361 0.0686194599 0.851839781</float_array>
          <technique_common>
            <accessor source="#normals_array" count="336" stride="3">
              <param name="X" type="float" />
              <param name="Y" type="float" />
              <param name="Z" type="float" />
            </accessor>
          </technique_common>
        </source>
        <vertices id="vertices">
          <input semantic="POSITION" source="#positions" />
        </vertices>
        <triangles material="qmat_76668c90192cb1f5" count="346">
          <input semantic="VERTEX" source="#vertices" offset="0" />
          <input semantic="NORMAL" source="#normals" offset="1" />
          <p>0 0 1 1 2 2 1 3 3 4 4 5 0 6 5 7 6 8 3 4 7 9 4 5 8 10 4 11 7 9 1 12 9 13 8 14 1 15 0 16 10 17 9 18 1 15 10 17 4 19 8 20 2 21 9 18 10 17 6 8 3 4 11 22 12 23 12 23 13 24 7 9 3 4 14 25 11 22 15 26 16 27 2 21 17 28 18 29 19 30 18 29 20 31 19 30 17 28 21 32 2 33 2 33 21 32 22 34 0 0 2 2 22 35 0 0 22 35 5 36 2 33 18 29 17 28 17 28 19 30 21 32 23 37 24 38 25 39 13 40 11 40 26 40 11 41 27 42 26 43 21 32 25 39 27 44 21 32 23 37 25 39 22 34 21 32 27 44 13 45 26 46 28 47 19 30 20 31 23 37 9 18 6 8 29 48 30 49 31 50 8 51 31 52 30 53 1 54 32 55 33 55 8 55 8 20 33 56 15 26 9 13 32 57 8 14 33 56 34 58 15 26 30 49 8 51 35 59 35 60 8 10 36 61 30 62 35 63 37 64 38 65 30 53 37 66 35 63 39 67 40 68 14 25 38 65 41 69 9 70 42 71 43 72 40 73 39 74 44 75 44 75 39 74 45 76 29 48 46 77 47 78 47 79 48 80 49 81 36 61 46 82 14 83 8 10 13 24 36 61 42 71 29 84 50 85 35 60 36 61 51 86 29 48 52 87 53 88 50 85 29 84 54 89 14 90 51 86 36 61 9 70 55 91 16 92 15 26 56 93 16 27 18 29 57 94 20 31 32 57 16 27 56 93 56 95 15 95 34 95 55 91 58 96 16 92 24 38 59 97 26 98 47 79 49 81 52 99 49 100 28 47 52 87 57 94 54 89 59 97 54 89 53 101 59 97 52 87 26 46 53 88 57 94 59 97 20 31 58 102 54 89 57 94 58 102 60 103 54 89 20 31 59 97 24 38 20 31 24 38 23 37 48 104 46 105 28 47 61 106 62 107 54 89 60 103 61 106 54 89 37 66 40 73 63 108 63 108 40 73 44 75 37 66 64 109 38 65 38 65 65 110 41 69 64 109 37 66 63 108 65 110 66 111 41 69 67 112 42 113 68 114 51 115 66 111 39 74 69 116 70 117 61 106 71 118 69 116 61 106 50 119 54 89 62 107 72 120 71 121 73 122 74 123 72 124 73 125 75 126 69 116 74 123 76 127 75 126 74 123 58 102 76 127 73 125 43 128 77 129 55 130 42 113 67 112 78 131 64 132 63 132 79 132 80 133 72 124 74 123 80 134 71 121 72 120 80 135 74 135 71 135 81 136 82 137 83 138 84 139 79 140 85 141 86 142 87 142 61 142 86 143 61 143 60 143 86 144 60 144 87 144 85 145 45 76 66 111 79 140 45 76 85 141 65 110 88 146 89 147 90 148 91 149 62 107 90 148 62 107 92 150 93 151 70 152 90 153 91 149 90 148 70 117 76 127 94 154 75 126 94 155 76 156 91 157 76 127 95 158 91 149 81 136 96 159 88 146 96 160 83 161 97 162 98 163 75 126 94 154 98 164 91 164 75 164 98 165 94 155 91 157 88 146 68 166 99 167 100 168 90 168 92 168 100 169 92 150 93 170 100 171 93 151 90 153 101 172 85 173 102 174 88 175 99 176 103 177 102 178 88 179 103 180 78 131 67 112 104 181 77 129 95 158 58 182 105 183 106 184 96 159 96 159 106 184 88 146 106 184 68 166 88 146 106 185 104 181 68 114 99 186 107 187 101 188 108 189 109 190 110 191 108 192 110 193 111 194 77 195 111 195 112 195 113 196 112 197 114 198 112 197 115 199 114 198 116 200 108 192 111 194 116 200 117 201 108 192 118 202 106 203 119 204 116 205 111 206 106 207 106 207 111 206 77 208 120 209 119 204 121 210 122 211 123 212 124 213 118 202 122 211 124 213 120 214 125 215 126 216 116 200 118 202 127 217 127 218 128 219 122 220 122 221 120 221 127 221 117 222 126 222 129 222 130 223 62 107 131 224 95 158 113 196 62 107 132 225 133 226 134 227 132 228 131 229 133 230 113 196 114 198 62 107 135 231 134 232 136 233 114 198 131 224 62 107 136 233 133 230 131 229 114 198 115 199 137 234 138 235 101 236 107 237 124 213 123 212 139 238 123 239 140 240 125 241 139 238 125 215 141 242 142 243 135 231 136 233 130 244 142 245 140 246 130 244 132 228 142 245 142 247 126 216 125 215 143 248 144 249 145 250 146 251 128 251 145 251 127 217 124 213 143 252 144 249 147 253 148 254 144 249 143 248 147 253 143 255 149 256 150 257 143 255 150 257 126 258 151 259 152 260 153 261 153 262 142 243 137 263 152 264 144 249 154 265 145 250 152 264 146 266 152 264 154 265 140 240 139 238 140 246 153 261 124 213 152 260 128 267 124 213 139 238 152 260 151 268 155 269 149 256 147 253 142 247 148 270 153 271 154 271 142 271 149 256 155 269 150 257 156 272 157 273 158 274 150 257 159 275 112 197 126 258 150 257 110 276 136 233 131 229 137 263 160 277 161 278 115 199 159 275 155 279 157 273 157 273 155 279 137 234 3 4 12 23 7 9 10 280 0 280 6 280 1 3 4 5 2 281 8 10 7 9 13 24 3 4 1 54 14 25 6 8 5 7 11 282 12 23 11 283 13 24 27 42 5 36 22 35 11 41 5 36 27 42 46 105 13 45 28 47 29 48 162 284 46 77 29 48 11 282 162 284 29 48 6 8 11 282 11 22 14 25 162 285 2 21 8 20 15 26 2 33 16 286 18 29 25 39 24 38 26 98 27 44 25 39 26 98 21 32 19 30 23 37 31 50 1 287 8 51 1 54 30 53 14 25 33 288 32 289 34 290 37 64 35 63 40 68 30 53 38 65 14 25 9 70 29 84 42 71 9 70 43 72 55 91 36 61 13 24 46 82 162 291 14 83 46 82 46 292 48 292 47 292 29 48 47 78 52 87 14 25 41 69 51 115 35 63 51 293 39 67 34 290 32 289 56 294 18 29 58 102 57 94 16 286 58 102 18 29 32 57 9 13 16 27 59 97 53 101 26 98 49 295 48 104 28 47 52 87 28 47 26 46 54 89 29 84 53 101 78 131 43 296 42 113 38 65 64 109 65 110 79 140 44 75 45 76 39 74 66 111 45 76 41 69 66 111 51 115 87 297 71 118 61 106 58 102 71 118 87 297 58 102 87 297 60 103 58 102 73 125 71 118 73 125 76 127 74 123 55 130 77 129 58 182 64 109 81 136 65 110 63 108 44 75 79 140 82 298 81 298 79 298 84 139 82 137 79 140 81 299 64 299 79 299 163 300 89 301 85 302 66 303 65 303 85 303 65 304 163 304 85 304 65 305 89 301 163 300 65 110 81 136 88 146 74 123 69 116 71 118 69 116 75 126 91 149 93 170 92 150 70 117 61 106 70 117 62 107 69 116 91 149 70 117 106 185 43 296 78 131 83 138 82 137 84 139 106 185 78 131 104 181 81 136 83 138 96 159 43 128 106 306 77 129 97 162 83 161 84 307 105 308 96 308 84 308 164 309 84 139 101 236 164 309 105 310 84 311 96 312 97 312 84 312 103 177 99 176 101 313 102 178 103 180 101 314 101 236 84 139 85 141 68 114 50 119 62 107 89 147 102 174 85 173 89 147 88 146 102 174 68 114 42 113 50 119 104 181 67 112 68 114 92 150 62 107 70 117 91 149 95 158 62 107 58 102 95 158 76 127 119 204 105 310 121 315 121 315 105 310 164 309 106 203 105 310 119 204 99 186 141 242 107 187 99 186 68 316 141 242 138 235 164 309 101 236 77 129 112 197 95 158 95 158 112 197 113 196 111 317 110 276 112 197 129 318 126 258 110 276 117 319 129 320 108 189 108 189 129 320 109 190 109 321 129 318 110 276 115 199 112 197 160 277 112 197 156 272 160 277 118 202 116 200 106 203 121 315 164 309 138 235 122 211 118 202 120 209 120 209 118 202 119 204 127 217 118 202 124 213 122 220 128 219 123 239 117 201 116 200 126 322 126 323 127 323 120 323 136 324 134 324 133 324 132 228 130 244 131 229 114 198 137 234 131 224 139 238 68 316 130 244 68 316 139 238 141 242 121 315 138 235 107 237 130 223 68 325 62 107 125 215 120 214 141 242 107 326 141 327 120 209 107 326 120 209 121 210 135 328 132 225 134 227 140 246 139 238 130 244 139 238 123 329 125 215 142 247 125 215 140 240 135 330 142 330 132 330 123 239 128 219 140 240 128 219 143 248 145 250 149 331 143 252 146 332 143 252 124 213 146 332 146 333 124 333 128 333 127 218 143 248 128 219 116 200 127 217 126 322 143 248 126 216 147 253 149 331 146 332 151 259 147 253 126 216 142 247 140 240 154 265 153 334 151 259 146 332 152 260 145 250 144 249 152 264 153 261 152 260 139 238 128 219 152 264 140 240 154 265 144 249 148 254 151 268 153 262 155 269 142 335 154 265 148 254 159 275 150 257 155 279 156 272 159 275 157 273 112 197 159 275 156 272 110 276 150 257 112 197 160 277 156 272 158 274 160 277 158 274 161 278 137 263 142 243 136 233 158 274 157 273 161 278 115 199 161 278 137 234 157 273 137 234 161 278 155 269 153 262 137 263</p>
        </triangles>
      </mesh>
    </geometry>
  </library_geometries>
  <library_visual_scenes>
    <visual_scene id="scene">
      <node id="link2_stl">
        <instance_geometry url="#geometry">
          <bind_material>
            <technique_common>
              <instance_material symbol="qmat_76668c90192cb1f5" target="#qmat_76668c90192cb1f5" />
            </technique_common>
          </bind_material>
        </instance_geometry>
      </node>
    </visual_scene>
  </library_visual_scenes>
  <scene>
    <instance_visual_scene url="#scene" />
  </scene>
</COLLADA>