<?xml version='1.0' encoding='utf-8'?>
<COLLADA xmlns="http://www.collada.org/2005/11/COLLADASchema" version="1.4.1">
  <asset>
    <created>2026-09-14T00:00:00Z</created>
    <modified>2026-09-14T00:00:00Z</modified>
    <unit name="metre" meter="1" />
    <up_axis>Z_UP</up_axis>
  </asset>
  <library_effects>
    <effect id="qmat_c90f2351a1b48e4d_effect">
      <profile_COMMON>
        <technique sid="common">
          <lambert>
            <emission>
              <color>0 0 0 1</color>
            </emission>
            <diffuse>
              <color>0.89804314 0.91765098 0.92549412 1.0</color>
            </diffuse>
          </lambert>
        </technique>
      </profile_COMMON>
    </effect>
  </library_effects>
  <library_materials>
    <material id="qmat_c90f2351a1b48e4d" name="qmat_c90f2351a1b48e4d">
      <instance_effect url="#qmat_c90f2351a1b48e4d_effect" />
    </material>
  </library_materials>
  <library_geometries>
    <geometry id="geometry" name="link3_stl">
      <mesh>
        <source id="positions">
          <float_array id="positions_array" count="477">0.256953806 0.0293366704 -0.0316389836 0.273482263 0.0283832904 -0.0556635596 0.241524994 0.0263517555 -0.0483564027 0.26697439 -0.0195839591 -0.0359985121 0.270006329 -0.0307712257 -0.0415919796 0.253750354 0.0264147203 -0.0714397728 0.252186447 -0.0307631586 -0.0307591055 0.25325051 -0.0299879853 -0.0495178327 0.272057652 -0.0308057554 -0.07504832 0.268217474 -0.0291976929 -0.0396538675 0.226481006 -0.0192363206 -0.0331735127 0.234825194 -0.0196133442 -0.0896802843 0.26912421 -0.0222810488 -0.0787830278 0.213247463 -0.0268238354 -0.0303110164 0.22616522 0.0280009564 -0.0818583816 0.227013513 0.0270314533 -0.063567467 0.227299944 0.018845154 -0.0868827179 0.261309057 0.0292266514 -0.0865556598 0.25340116 -0.0306279697 -0.0890994668 0.252814233 -0.0304847099 -0.0690444037 0.231633499 -0.0299473535 -0.0623365007 0.211424053 0.0200695172 -0.0386615805 0.211912081 -0.00020773217 -0.0813598856 0.21183975 -0.000222421731 -0.0387164354 0.204743162 0.0235615559 -0.0356035158 0.204917625 -0.0280678142 -0.0383232087 0.231839299 0.025267655 -0.031633988 0.214984566 0.0257159192 -0.0445078649 0.218685061 0.0182997491 -0.0367092527 0.214883506 0.0181434806 -0.0872943178 0.204854921 0.0222184006 -0.0845308751 0.211212441 -0.0293458439 -0.0896426961 0.204295963 -0.0254373048 -0.0827763379 0.217342511 -0.0198330991 -0.045407474 0.21604459 -0.0291378107 -0.0466646962 0.20977746 -0.0247844346 -0.0389881171 0.21180968 -0.00177840597 -0.0386621915 0.214555115 -0.0215995889 -0.0756953433 0.219166756 -0.0176307485 -0.0861920938 0.237281591 -0.0307942536 -0.0704067722 0.197139591 -0.00300279097 -0.060578011 0.211861432 -0.00196237559 -0.0813976973 0.20405075 -0.0241328105 -0.0814099014 0.160902336 0.0166453365 -0.0393372588 0.143588915 0.0134488009 -0.0455372259 0.176379815 0.0200728495 -0.0497136451 0.142771065 5.7771711e-05 -0.0392569788 0.176928267 0.0194905382 -0.0703089461 0.210326135 0.021204561 -0.0810940787 0.197406441 0.0263551753 -0.0733203515 0.149838969 0.0239924006 -0.0696628839 0.160744801 0.0165165104 -0.0803517103 0.143333644 0.000271888886 -0.0809010714 0.176576629 -0.0225124769 -0.0701552182 0.177083611 -0.0219071321 -0.0497437492 0.157957494 -0.020814497 -0.0397168249 0.143073469 -0.0017726724 -0.0403884538 0.158666849 -0.0205157772 -0.080311276 0.0823413134 0.0251407064 -0.0747787133 0.140955821 0.0123573542 -0.0723176077 0.0486500002 0.0201397948 -0.0697800815 0.149843797 0.0235641357 -0.0496401936 0.082351394 0.0249519013 -0.0441997573 0.0827619582 0.000249240373 -0.0389260687 0.144342408 -0.0137740197 -0.047928106 0.0830155537 -0.00175779767 -0.0795789883 0.143009156 -0.00226036482 -0.0815536231 0.14135465 -0.0231692251 -0.0402296223 0.14258334 -0.0195160769 -0.0734021217 0.0497529395 -0.0218674652 -0.0702452138 0.0822345167 -0.0168459918 -0.0729814172 0.175525144 -0.0261345077 -0.059954185 0.0210251994 -0.0256015342 -0.0840708017 0.137195751 0.024737196 -0.0458465256 0.0850737616 0.0198427215 -0.0394100621 0.0811545476 0.0122947833 -0.0482308418 0.0495856367 0.0194124188 -0.0506070331 0.0211669188 0.0232079457 -0.0834270045 0.141418323 0.0190959908 -0.0819201395 0.0853809938 0.0206576288 -0.0795576572 0.0738849267 0.012428307 -0.0722930133 0.0831727982 -0.000216178087 -0.0799659491 0.0848878697 -0.0232046787 -0.0797899142 0.0828988254 -0.00191747386 -0.0390797891 0.0847796276 -0.0211143233 -0.0379448012 0.0228050426 -0.0249741357 -0.0355497859 0.0829104558 -0.0166299492 -0.0474257767 0.0512673073 -0.0251778029 -0.0600120947 0.0513701737 0.0231930837 -0.0590401515 0.0189943742 0.0211191531 -0.0815804526 0.0684585199 0.0192488767 -0.0813099742 0.0142718451 0.000450452178 -0.0388647467 0.0647484437 0.020269338 -0.0399149694 0.0284706149 0.000180624251 -0.060064178 0.0498802699 -0.0217833035 -0.0498255715 0.0666441023 -0.0200999007 -0.0402476117 0.019417474 -0.0237091966 -0.0385936312 0.0650919154 -0.0202967133 -0.0809374601 -0.000729194377 0.0395995863 0.0269574039 0.0247784499 0.0391423181 0.016462883 -0.000685175473 0.0404750332 0.0104845576 0.0174631383 0.0315715186 0.00787128974 0.00986809656 0.0347767211 0.00257413648 0.00801565964 0.0407518148 -0.00953713059 0.00753976172 0.0268537086 -0.0125644179 -0.00209876779 0.0412500016 0.00228202878 -0.00908288173 0.0352767222 -0.00286525302 -0.00201414758 0.0268928744 0.0146013815 -0.0190114882 0.02739444 -0.0078563448 -0.0222739261 0.0384442843 -0.0110606058 0.0147746401 0.0392315872 -0.0126929116 -0.00716290344 0.0407845862 -0.0115830712 0.0234543495 0.0407350734 -0.0331670046 0.000398095028 0.0412500016 -0.0849860534 -0.0280020703 0.0398061797 0.00782180205 -0.0174313579 0.0235857479 -0.032158602 0.0102601759 -0.0403673612 0.0249527171 0.0261384808 -0.0418556221 0.00767362257 0.00293999561 -0.0407098308 0.0133746602 0.0151365623 -0.0331567787 0.0125096627 0.0100813163 -0.0361715332 0.00489724427 -0.00132885657 -0.0320182741 0.0198622718 0.0107473871 -0.0362393335 -0.00693302508 -0.0084984703 -0.03054123 0.00635162415 -0.00574821047 -0.0366470441 0.0103223231 -0.00810038578 -0.0412376896 0.00186223758 -0.0280020703 -0.0330186188 0.00485331239 -0.0254496261 -0.0431067795 -0.016233461 -0.0172913298 -0.0421889462 0.0217525624 -0.0218715034 -0.032803461 -0.00603032485 -0.0217185039 -0.0399244428 -0.00714140944 0.0226535015 -0.0432499982 -0.0340455435 0.0153423827 -0.0321815014 -0.0151085192 -0.000594125828 -0.0306729842 -0.010494913 0.0184824187 -0.0412102938 -0.034231279 0.0152957486 -0.0432417654 -0.0333790518 -0.0180445686 -0.0296454038 -0.0312736779 0.0215737652 0.0234427229 -0.0362276696 0.0114524048 -0.0185713042 -0.0321555324 0.0141866039 -0.000182666772 -0.0813555941 0.019320786 0.0405521616 -0.0883989111 0.0182741806 0.0392321907 -0.0834377185 0.0144317998 0.0207366738 -0.0386737324 -0.00398705574 0.03918387 -0.0679463148 -0.00100665563 0.0189877972 -0.0785342157 0.0108770235 0.016276503 -0.0886615366 0.0171145666 -0.0432499982 -0.0900000036 0.0141047826 -0.00189352245 -0.0810749978 0.0194257982 -0.0229659043 -0.0815309286 0.0181730539 -0.0412362516 -0.0815244317 0.0291260201 -0.00286256219 -0.0605805144 0.0141618215 -0.00184789218 -0.0387413763 0.0113066509 -0.0206884071 -0.0871790573 0.0150597831 -0.0196411181 -0.0343233049 0.013931484 -0.0432475209 -0.0355792604 0.00213298341 -0.0413137972 -0.0843257532 -0.00173248828 -0.0208290108 -0.0790301487 0.196464807 0.000125549806 -0.0600625873 0.0161489714 0.0392030403 -0.0353453122</float_array>
          <technique_common>
            <accessor source="#positions_array" count="159" stride="3">
              <param name="X" type="float" />
              <param name="Y" type="float" />
              <param name="Z" type="float" />
            </accessor>
          </technique_common>
        </source>
        <source id="normals">
          <float_array id="normals_array" count="1155">-0.113717675 0.990902603 -0.0719748661 -0.101617239 0.994507194 -0.0250877868 -0.054956995 0.998483658 -0.00318827666 0.834747732 0.0913541019 0.543001533 0.907603681 0.0368795991 0.418205112 0.885214448 -0.0945600122 0.455470949 -0.0572021455 0.995673358 0.073228918 -0.0370614789 -0.999105096 -0.0203817952 -0.0443050116 -0.998729169 -0.0240238272 -0.035425663 -0.999311507 -0.0110222548 -0.0211833492 -0.999725461 0.0100105582 -0.848378241 0.0887402594 -0.521899939 -0.891104817 0.0560021251 -0.450328708 -0.488086253 0.254344374 -0.834913611 0.0687645003 -0.0745693967 0.994842112 0.0356721915 -0.0539055169 0.997908652 0.0591383539 0.0393995047 0.997471988 0.0271352082 -0.968612969 0.247088343 -0.157523066 -0.951913118 0.26276961 -0.0388601944 -0.998960733 0.0238195751 0.166307345 -0.981271684 -0.0971993506 0.0984790996 0.934537768 0.34196642 -0.0541185699 0.993540287 0.0997440517 0.0249431022 0.996712923 -0.0770789236 -0.0887365565 0.9960199 -0.00837996416 0.990311563 0.0750288814 0.116848931 0.908695221 -0.0224246588 -0.416857421 -0.106720433 0.888170719 -0.446949184 -0.0162786338 0.998361707 0.0548531637 -0.0456398353 0.244821474 -0.968493402 0.539581656 0.12002679 -0.83333379 -0.0685697719 0.0867663324 -0.993866086 -0.0867639706 0.986329198 0.140095532 0.37210837 -0.00971654337 -0.928138435 -0.000210358878 -0.999750733 0.0223243348 -0.0232887231 -0.999728739 0.000220964168 0.279974312 0.450030625 0.847989857 -0.30085662 -0.463438839 0.833492517 -0.0014057362 0.999190748 -0.0401981585 -0.305891156 0.912385225 -0.271999627 -0.191730291 0.96471101 -0.180477634 -0.992775023 -0.112090774 -0.0428186692 -0.999322474 -0.0363397561 0.00583623582 -0.998127341 -0.058886975 0.0165570341 -0.99978894 -0.0204750709 -0.00170285918 -0.0168442987 -0.0497356765 0.998620391 -0.349290341 -0.0504679233 0.935654461 -0.354788184 0.036310263 0.934241354 -0.062470559 0.996700168 0.0518286154 -0.0777719468 0.996111393 0.0413960852 -0.125887185 0.99089247 0.0477966256 -0.105432175 -0.124019876 0.986662626 -0.123467222 -0.080604367 0.989069641 -0.0947186351 0.220573753 -0.970760345 -0.0814740658 0.646348774 -0.758679926 -0.36296916 -0.660693586 -0.657067239 -0.472328573 -0.666782975 -0.576460004 0.478887379 -0.877875984 0.0007605133 0.718101025 -0.685081542 -0.122450657 0.968862951 -0.160609037 0.18843928 -0.704693675 0.190639481 -0.68342042 -0.996307731 0.0185992476 -0.0838151351 -0.792358518 0.457549363 0.403505385 -0.988656163 0.089046739 -0.120953329 0.627857685 -0.775389612 0.0675696284 0.603259623 -0.749785304 0.271845341 -0.0272646025 0.171185613 -0.984861493 0.0253868494 -0.99374783 0.10872326 -0.0620358773 -0.997939289 0.016391091 -0.247376338 -0.952359021 -0.178373933 0.546750188 -0.837294459 -0.00148382271 0.0150569677 -0.999453127 0.0294394884 0.00578046404 -0.999716997 0.0230768919 0.0327243619 -0.999105334 -0.0267881732 0.968640864 -0.223850161 -0.107823737 0.428981543 0.903134167 -0.0179870427 -0.134646177 0.678975463 0.721708238 0.255778611 0.966483057 -0.0220861677 0.165845186 -0.683458388 -0.710900784 -0.0752616152 -0.5851776 -0.807404995 0.0482757315 -0.99308008 -0.107057892 0.00882373191 -0.000520083064 -0.999960959 0.00783739705 0.00286374148 -0.999965191 0.0184489302 -0.244635239 -0.969439626 0.0680632144 -0.995564997 0.0649437383 0.0393229984 -0.999027133 0.0199623834 0.020247085 -0.997712255 -0.0645008832 0.166292325 0.980882764 -0.101073824 -0.0136330845 0.976665616 0.214332357 0.182429343 -0.71325773 0.676744401 0.265372694 -0.310242295 0.912867486 0.00843599346 -0.0177804455 0.999806345 0.0597382225 0.997896135 0.0251916759 0.0769039914 0.996933758 -0.014450198 0.15950866 0.0955236256 -0.982564092 0.333635747 0.228528604 -0.914582908 0.0173499547 0.0063102874 -0.99982959 0.213651299 0.927598357 0.306454539 -0.672894418 -0.0287950318 0.739177883 0.125705451 0.698445201 0.704537094 -0.00524382107 0.999907672 -0.012536386 0.398658633 -0.653095245 0.643846214 0.00438288366 -0.99950254 -0.0312332921 0.00431514438 0.999792874 -0.0198886469 0.000773812644 0.999803066 0.0198292211 0.00237121456 0.999978185 0.00616182713 0.000539206085 0.999999821 0.000121295852 -0.000430827989 0.999966383 -0.00818725675 0.620907128 0.463023484 -0.63252157 0.00760437548 -0.999954104 -0.00583231309 -0.00860626157 -0.999782205 0.019011721 -0.957041025 0.0748010129 -0.280137897 0.0525239259 0.284146845 0.957341015 0.0877953619 0.774729073 0.62616837 -0.0492072552 0.997962117 0.0406238176 -0.166126013 0.744338095 0.646809876 -0.0113434298 -0.998852551 -0.0465289466 -0.000339391263 -0.999906838 0.013646028 -0.177598149 -0.291121453 -0.940057039 -0.0270011574 -0.0864470974 -0.995890498 0.00932288729 -0.296212524 -0.955076575 0.941132367 -0.118860357 -0.316452324 0.00823369622 -0.283607572 -0.958905101 -0.0251027215 -0.0779206753 0.996643484 0.125046849 -0.698279858 0.70481813 -0.0431568697 0.00293223117 0.999064028 0.148131669 -0.782967567 0.604167879 0.80445534 0.317270428 -0.502186358 0.0371530764 0.0398172736 0.998516023 0.0436750464 0.0584360547 0.997335315 0.231506735 -0.0332112014 0.972266257 0.000925063679 -0.282957852 0.959131896 0.00233784318 -0.301936716 0.953325093 6.56296834e-05 -0.271360099 0.962477863 -0.00291847507 0.99992317 -0.0120466016 0.0278453678 0.735942602 -0.676471055 0.00214515254 0.0779999346 0.996951044 -0.037624754 -0.0494915061 -0.998065591 -0.0257723518 -0.0168104507 -0.999526501 -0.0425610468 -0.0631219745 -0.99709785 0.187505096 0.00643999921 0.982242525 -0.0233700052 0.638067365 0.769625783 0.0399688482 0.879359305 0.474478394 -0.0163605046 0.670257032 0.741948664 -0.00212086574 -0.999997079 0.00114963856 -0.00516589452 -0.999898195 0.0132993124 0.0498511679 0.90662086 0.418991089 0.000374282245 -0.999999464 -0.000953118142 0.00835624523 -0.999962628 0.00222948124 -0.0207679793 0.999782443 -0.00193904736 -0.0668686405 -0.997450233 -0.0249324013 -0.0233254638 -0.999722779 0.00321565196 -0.41247794 -0.872209311 -0.2628932 0.000759086921 0.999922752 -0.0124045582 -0.316460967 -0.3286964 -0.889837682 -0.271173894 -0.730583787 -0.62666738 -0.559340954 -0.71707505 -0.415861785 -0.0189082325 -0.00482374476 -0.999809563 0.000619055005 0.999903381 -0.0138877397 0.984394729 0.0874159634 -0.152726725 0.0004259774 0.408521563 -0.912748575 -0.0589413196 0.997703254 -0.0333793908 -0.191417336 0.755620837 -0.62641561 -0.419858247 0.642837167 -0.640686691 -0.0563086346 0.998413205 -0.000656229502 0.951802611 0.0801816285 0.296045065 -0.254603058 0.1764808 0.950805843 -0.180049762 0.697941303 0.693152189 0.00859277975 0.99855274 0.0530909188 0.0439986028 0.998274326 0.0388914458 0.00615507551 0.999120951 0.0414654985 0.463598102 0.885828197 -0.0196256172 0.430733174 0.899496377 -0.0733154193 0.615469158 0.787558079 0.0308228806 0.26894626 0.962793767 0.0263824631 0.988442898 -0.00082639436 -0.151591584 0.440964431 -0.860598445 0.254795402 -0.122718014 -0.701237798 0.702286184 0.696194828 -0.711010218 0.0988800228 -0.198317558 0.965093791 0.171067506 -0.846580505 0.359406382 0.392591953 -0.745046318 0.598938882 0.293561339 -0.861949146 0.222432509 0.455595762 -0.845601201 -0.173417538 0.504861355 -0.31288892 -0.645688534 0.696553588 -0.136619493 -0.226287663 -0.964431942 -0.0443402715 0.0155474702 -0.998895526 -0.0674943849 -0.0442904979 -0.996736109 -0.171699047 -0.320799112 -0.93145442 -0.171108544 0.983605921 0.0569318794 0.313363135 -0.943829596 -0.10482946 0.825272202 -0.485369146 -0.288691193 0.0174148306 0.999803722 0.00944469031 0.0206293147 0.999785304 -0.00194797455 0.0599207841 -0.899992943 0.431766421 0.122125112 -0.636201918 0.76179564 -0.0689293593 -0.808702111 0.584165752 -0.67922014 0.678740144 0.279234499 -0.95595634 0.0289088506 -0.292081863 -0.677407742 -0.0123200119 -0.735504568 -0.955675781 0.0411494263 -0.291531414 -0.952226818 0.0785163641 -0.295125902 0.0363826528 0.997956812 -0.0525218174 0.0340662077 0.997503519 -0.0618568361 -0.0702674389 0.975524545 -0.208361104 0.151550099 -0.970545352 0.187281251 -0.0683330745 -0.75504142 0.652106643 -0.326220632 -0.543916464 0.773133218 0.489893109 -0.823753893 -0.285366893 0.196446359 -0.89404887 -0.402598351 -0.403768361 -0.914072573 -0.0379786976 -0.412661403 -0.909885645 -0.0426462516 -0.359172344 -0.933152735 -0.0148741938 -0.242290393 -0.603271902 -0.759841025 -0.242290124 -0.603271365 -0.759841561 -0.222309858 -0.670872092 -0.707466602 0.183837622 0.977250099 0.105763644 -0.891745627 -0.44068557 0.102888182 -0.771828949 -0.616004884 -0.157537431 -0.178623661 -0.980277836 0.084551692 0.00452826545 0.982164025 -0.187971562 0.408463418 0.883067191 0.230976 0.415946096 0.745810926 -0.520341098 0.150477976 0.950071812 -0.273349524 0.108525604 0.992438674 -0.0573382452 -0.565388799 -0.608294249 0.557057977 -0.628881574 -0.554786742 0.544719696 -0.504337907 -0.661762655 0.55471921 -0.131412596 0.376673728 0.916977465 0.158006862 0.664592743 0.730308414 0.0412676707 0.741723657 0.669434786 0.180223361 0.983553886 0.0118883327 0.0650071502 0.968393385 0.240807593 -0.1804737 0.981306911 -0.0668284222 -0.654681087 -0.552794993 0.515568018 0.995687723 -0.0375629626 -0.0848233253 0.996457636 -0.0150719369 -0.0827345997 0.995791793 -0.0156884287 -0.0902916417 0.26736781 0.96271652 0.0411256328 0.107500039 0.993111849 0.0466116332 -0.0635179281 0.987187684 -0.146375999 0.0348706171 0.99854964 -0.0410207957 -0.427244902 -0.902733147 -0.0503455587 -0.0237627383 -0.864849806 -0.501467943 -0.0269117281 0.00713657122 -0.999612331 -0.0213475842 -0.8907004 -0.454089254 -0.0571220629 0.452936172 0.889711142 -0.149765044 0.639914989 -0.75371027 -0.226105645 0.368771076 -0.901600897 0.0197724849 -0.998526931 0.0505273342 0.00334247691 -0.999736488 0.0227107294 -0.988007665 -0.044306837 0.14791137 0.912440956 0.295461148 0.283115238 0.767500162 0.640173316 0.0334909484 0.876365542 0.435159355 0.206445515 0.825622916 -0.10743542 0.553899288 0.316581964 0.00920409057 0.948520482 -0.000708213774 0.999862194 -0.0165853128 -0.00792266522 0.999955893 -0.00503903348 0.994254053 -0.106772207 -0.00765683362 0.615292907 0.0736619979 -0.784849346 0.0357744247 0.999341965 -0.00598693592 -0.992757618 0.0043714731 0.120055027 -0.886495948 0.282086015 0.366813958 -0.996549487 0.0797348022 0.0230551399 0.609397888 -0.700572729 0.371257365 0.945177495 -0.105980851 0.308881134 0.719638288 -0.236122429 0.652967811 0.0209697988 -0.999760509 -0.00625697244 -0.51732862 -0.00533818826 -0.855770171 -0.840396821 -0.101273589 -0.532425404 0.551355839 -0.333693117 0.764627755 -0.722906411 0.466603875 0.509595096 0.99750042 -0.0072032474 -0.0702923909 0.231049627 -0.655568421 -0.718920112 -0.176439032 -0.0708632171 0.981757462 -0.619029164 -0.0119582722 0.785276949 -0.70759666 -0.0572527908 -0.70429337 -0.784546793 0.144672349 0.602956235 -0.979446828 0.00205610879 -0.201692104 -0.0462428778 0.99856323 0.0270743445 -0.0171764493 -0.999851048 -0.0016893748 -0.0251352638 -0.999268353 -0.0288257152 -0.0258606523 -0.999253273 0.0287066605 -0.725364625 -0.032829877 -0.687581539 -0.251325667 -0.0519702472 0.966506362 -0.210794494 -0.0572719648 -0.975851238 -0.681095958 -0.160785288 -0.714322329 -0.173030749 -0.0440787561 0.983929574 0.00606251555 0.999973416 -0.00404471857 -0.0020293938 -0.999997377 0.00108032161 -0.938472807 0.209488183 -0.274560481 -0.754220068 -0.300706804 -0.583718717 0.807371378 -0.000183803219 0.590043604 0.529177666 0.125701636 0.839148402 -0.992256939 0.053355176 0.112158105 -0.00474400353 0.999988616 -0.000517758308 0.499274075 -0.275428861 0.821501255 -0.324174821 0.943210542 0.072557345 -0.455244362 0.890279114 -0.0124756573 0.0347375907 0.999388635 -0.00396384019 -0.99696362 -0.0741381273 0.0238127466 0.0098913433 0.999949872 0.00154704449 0.0112112006 0.999903321 0.00822473597 0.0130017027 0.999896169 -0.00621706201 0.0217220373 0.996358156 -0.0824537575 -0.0946785659 -0.964092195 0.248117208 0.00660613365 -0.0119232927 0.999907076 0.0150429662 0.0128354039 -0.999804437 0.24340035 0.898049295 0.36642018 -0.986663997 -0.107031144 -0.122631595 -0.0217287391 -0.00567585416 -0.999747813 0.791680992 -0.0705817193 -0.60684377 -0.00558930635 -0.0240347646 -0.99969548 -0.000974408584 -0.661033869 -0.750355482 -0.00499543827 -0.676114798 -0.736779392 -0.0415778905 -0.800225079 -0.598256767 0.226992786 -0.043043755 0.972944736 0.571154296 -0.0764068216 0.817278862 0.00547379581 -0.999256015 -0.0381765291 -0.0470110327 -0.816585064 -0.575307548 0.0328372978 -0.00696259411 0.999436438 -0.0154310297 0.158278927 -0.987273872 -0.662836254 -0.732506514 -0.15518482 -0.798306346 -0.601721227 0.0252691843 0.00239723315 -0.302732229 0.953072667 -0.00887371507 0.0224375688 0.999708891 -0.0200844519 0.0537517928 0.998352349 -0.0175390895 0.0466417708 0.99875772 -0.230187118 -0.888206184 0.397622555 -0.243955165 0.262196571 -0.933669567 -0.73424834 -0.677634239 0.0411243178 -0.850649953 -0.483378917 0.206735343 -0.891345024 -0.0671333298 0.448327005 -0.0112377722 -0.97280407 -0.231356829 0.0814267024 -0.868541002 -0.488882601 0.0175730735 -0.8440786 -0.535931468 -0.454825372 -0.865559638 -0.209619746 0.753498971 -0.549444735 -0.361039877 0.774086833 -0.418640375 -0.474899828 0.768642128 -0.253256351 -0.587409973 -0.0326388218 0.999161005 0.0247383583 -0.0478360765 -0.997203887 0.0574119315 -0.863072574 -0.112002276 0.492505103 0.700837851 -0.680064619 -0.21526362 0.176485211 -0.984300017 0.00253798719 0.0605675355 -0.99815315 0.00467799278 0.315876335 0.93484807 0.162114754 0.628551424 0.777104259 0.0321260504 -0.167166531 0.00931834988 0.985884666 0.0501958393 -0.990057647 0.131401211 0.286292553 0.956973791 -0.0473048091 -0.265189052 0.963979423 -0.0204553567 0.693931341 0.718300939 -0.0500299372 -0.37195918 0.430975944 -0.822135091 -0.642199457 -0.584620178 0.495781362 0.749580324 0.563485861 0.347293884 0.749580264 0.56348592 0.347293913 -0.947375536 0.266613215 0.177192077 0.389543861 0.919241548 -0.0570137985 0.062820524 -0.907576919 -0.415159851 0.00189323106 -0.999445379 0.0332461521 0.372647613 -0.912350297 -0.169560343 -0.0111295171 0.15392144 -0.98802042 -0.0245707277 0.00960641168 -0.999651909 -0.7841416 0.108570918 0.611010909 -0.299669802 0.0768630803 0.950941682 -0.00502552977 0.0116892839 0.999919057 -0.0201740153 -0.99979496 0.00176170422 -0.00953189936 -0.999905288 -0.00992688723 0.395140648 -0.723881364 0.565561354 -0.0858390182 0.995425344 0.0419529639 0.945458949 -0.121189706 0.302358031 0.975465953 -0.220146418 0.00132331776 -0.655569792 0.705617428 0.268946648 -0.000289062038 -0.99999994 2.86461782e-05 0.438450575 -0.0315529443 -0.898201287 0.180301189 -0.037522573 -0.982895494 -0.0901857466 -0.0407149643 -0.995092392 0.287147641 0.00133943115 0.957885385 0.849827409 -0.0125846984 -0.526910782 0.987700343 -0.156337202 0.00258931844 0.987338543 -0.158589005 0.00348653016 0.988669693 -0.150107399 0.000108975139 0.989153445 -0.146881178 -0.0011744434</float_array>
          <technique_common>
            <accessor source="#normals_array" count="385" stride="3">
              <param name="X" type="float" />
              <param name="Y" type="float" />
              <param name="Z" type="float" />
            </accessor>
          </technique_common>
        </source>
        <vertices id="vertices">
          <input semantic="POSITION" source="#positions" />
        </vertices>
        <triangles material="qmat_c90f2351a1b48e4d" count="346">
          <input semantic="VERTEX" source="#vertices" offset="0" />
          <input semantic="NORMAL" source="#normals" offset="1" />
          <p>0 0 1 1 2 2 0 3 3 4 4 5 2 2 1 1 5 6 4 7 6 8 7 9 4 7 7 9 8 10 3 11 9 12 6 13 3 14 0 15 10 16 11 17 12 18 3 19 3 19 10 20 11 17 6 21 9 22 13 23 13 23 9 22 7 24 1 25 4 5 8 26 2 2 14 27 15 28 16 29 17 30 11 31 1 1 17 32 5 6 2 2 5 6 14 27 17 30 18 33 11 31 19 34 18 35 8 10 19 36 12 36 20 36 17 30 8 26 18 33 11 17 18 37 12 18 20 38 12 39 18 40 3 11 12 41 9 12 21 42 22 43 23 44 24 45 25 46 13 47 24 48 26 49 27 50 26 49 2 2 27 50 24 45 28 51 26 52 28 51 10 16 26 52 29 53 30 54 16 29 30 54 31 55 32 56 33 57 13 58 34 59 10 20 33 57 11 17 13 58 33 57 10 20 33 60 34 60 35 60 36 61 37 62 35 63 28 51 13 47 10 16 28 51 24 45 13 47 37 64 31 65 11 17 16 29 11 31 38 66 20 67 25 68 39 69 33 57 35 70 37 64 30 54 38 66 31 55 36 71 40 72 41 73 37 64 34 74 31 65 34 75 37 62 42 76 35 77 34 75 42 76 25 68 31 55 18 35 25 68 32 56 31 55 43 78 44 79 45 80 21 81 23 82 46 83 45 80 47 84 48 85 21 86 45 80 48 85 24 48 49 87 50 88 47 84 51 89 48 85 51 89 52 90 48 91 35 77 42 76 53 92 54 93 35 77 53 92 55 94 56 95 36 96 55 97 35 77 54 93 41 98 57 99 42 76 50 88 49 87 58 100 52 90 51 89 59 101 45 80 60 102 47 84 47 84 59 101 51 89 44 79 43 78 46 83 24 48 61 103 62 104 46 105 52 106 63 107 56 95 55 94 64 108 65 109 66 110 36 71 56 111 64 111 67 111 66 112 68 113 57 99 53 92 57 99 68 113 69 114 54 93 53 92 68 113 70 115 53 92 69 114 53 92 70 115 71 116 72 117 32 56 73 118 46 83 74 119 45 80 44 79 75 120 75 121 74 121 63 121 76 122 45 80 75 120 73 123 75 124 44 125 74 126 75 124 73 123 58 100 49 87 77 127 52 128 78 129 79 130 47 131 80 132 59 133 63 107 52 106 81 134 70 115 68 113 82 135 66 112 82 136 68 113 83 137 67 138 84 139 24 45 85 140 25 46 64 141 86 142 67 143 85 144 87 145 71 116 84 146 67 143 86 142 56 147 83 148 65 109 88 149 58 100 77 127 60 150 89 151 90 152 91 153 63 107 81 134 63 154 92 155 75 156 62 104 61 103 88 149 92 155 63 154 91 157 91 153 81 134 93 158 83 159 84 159 86 159 86 160 54 93 94 161 95 162 86 163 94 161 95 162 94 161 96 164 65 165 70 165 82 165 65 166 97 167 70 115 70 115 97 167 69 114 98 168 99 169 100 170 100 171 101 172 102 173 103 174 102 173 104 175 99 176 98 177 101 178 105 179 102 173 103 174 100 180 106 181 107 182 105 179 106 181 100 180 98 177 108 183 107 184 109 185 110 186 104 187 100 170 99 169 103 174 109 185 104 187 108 188 105 179 103 174 111 189 110 190 101 178 104 191 111 189 112 192 113 193 106 194 108 195 104 196 111 189 108 197 106 181 114 198 113 199 109 200 113 199 115 201 109 200 116 202 117 203 118 204 119 205 120 206 117 207 119 205 116 208 118 209 121 210 122 211 120 212 123 213 120 214 124 215 118 204 117 203 125 216 126 217 127 218 128 219 128 220 125 216 129 221 124 222 125 223 130 224 118 204 125 216 128 220 121 225 124 226 118 227 128 228 116 229 121 230 121 231 123 232 129 233 121 225 129 234 124 226 85 235 117 236 131 237 121 230 132 238 133 239 122 240 134 241 125 223 121 210 133 242 122 211 122 243 129 244 132 245 133 246 130 246 122 246 133 247 132 248 129 233 117 249 127 218 135 250 129 251 130 251 128 251 136 252 126 253 130 254 117 249 128 219 127 218 137 255 138 256 85 140 91 153 93 158 139 257 62 104 88 149 137 258 112 259 138 256 137 255 140 260 137 255 77 127 113 193 112 192 140 261 141 262 89 263 142 264 143 265 115 266 144 267 110 190 109 268 143 265 113 199 145 269 144 270 113 199 140 260 145 269 143 265 144 267 145 271 141 262 145 272 89 263 142 273 91 273 145 273 85 235 131 237 146 274 147 275 148 276 97 167 96 277 149 278 134 279 96 277 148 276 149 278 96 164 69 114 148 280 150 281 147 282 65 109 151 283 147 282 150 281 145 269 146 274 152 284 147 275 152 285 148 276 151 286 96 277 138 287 153 288 154 288 131 288 85 144 72 117 87 145 130 224 134 241 155 289 135 250 127 218 154 290 136 291 156 292 127 218 156 293 136 252 155 294 145 269 152 284 138 295 156 293 155 294 152 285 134 241 149 296 155 289 154 290 127 218 146 274 1 25 0 3 4 5 26 49 0 0 2 2 0 15 26 52 10 16 4 5 3 4 6 297 6 8 25 68 7 9 17 30 1 25 8 26 14 27 17 30 16 29 14 27 5 6 17 32 7 24 9 22 12 298 8 10 7 9 19 34 19 299 7 24 12 298 19 34 20 67 39 69 19 34 39 69 18 35 31 300 20 38 18 40 27 50 2 2 15 28 27 50 15 28 14 27 24 48 27 50 30 54 49 87 24 48 30 54 30 54 27 50 14 27 30 54 14 27 16 29 21 42 48 301 22 43 157 302 23 303 22 304 157 302 22 304 52 106 30 54 29 53 38 66 7 9 25 68 20 67 34 305 7 24 20 38 34 305 13 23 7 24 6 8 13 306 25 68 36 61 41 98 37 62 38 66 11 31 31 55 39 69 25 68 18 35 34 305 20 38 31 300 11 17 33 57 37 64 37 62 41 98 42 76 29 53 16 29 38 66 43 78 21 81 46 83 21 86 43 78 45 80 46 105 23 303 157 302 61 103 24 48 50 88 52 90 22 307 48 91 46 105 157 302 52 106 55 94 36 96 35 308 40 72 36 71 66 110 64 309 55 97 54 93 53 92 42 76 57 99 41 98 66 112 57 99 25 68 71 116 32 56 40 72 66 110 41 73 59 310 78 310 52 310 46 83 73 118 44 79 25 68 85 144 71 116 36 71 56 147 65 109 67 138 83 137 56 311 72 312 30 54 32 56 24 45 137 255 85 140 74 119 46 83 63 313 77 127 49 87 30 54 77 127 30 54 72 312 80 314 79 315 59 316 81 317 52 128 79 130 88 149 50 88 58 100 79 130 80 318 81 317 45 80 76 319 60 102 59 316 79 315 78 320 66 112 65 321 82 136 71 116 87 145 72 117 86 160 64 322 54 93 80 323 90 152 81 324 137 258 88 149 77 127 60 150 90 152 80 323 47 131 60 325 80 132 93 158 81 134 139 257 50 88 88 149 61 103 139 326 81 327 90 328 137 258 24 48 62 104 92 155 76 329 75 156 83 330 86 163 95 162 94 161 54 93 69 114 83 330 96 277 151 286 96 277 83 330 95 162 65 166 147 275 97 167 148 280 69 114 97 167 101 331 103 332 104 333 106 194 102 334 107 335 101 336 107 335 102 334 101 178 98 177 107 184 99 176 101 178 110 190 100 337 103 332 101 331 105 179 100 171 102 173 108 338 100 339 107 340 114 341 98 168 100 170 98 342 114 342 109 342 114 341 100 170 111 189 98 177 109 343 108 183 111 344 100 339 108 338 102 334 106 194 104 196 103 174 99 169 112 192 112 345 110 190 158 346 99 176 110 190 112 345 111 189 103 174 112 192 105 179 111 189 106 181 114 341 111 189 113 193 132 238 119 347 117 348 121 230 119 347 132 238 117 207 120 206 125 349 116 350 128 219 117 249 119 347 121 230 116 229 120 206 119 205 118 209 123 232 121 231 120 351 118 209 124 215 120 206 120 352 122 240 125 223 126 253 128 353 130 254 128 220 121 354 118 204 124 226 129 234 125 355 133 356 123 232 124 357 117 358 85 358 134 358 122 240 117 359 134 241 132 245 117 360 122 243 131 361 117 249 135 250 125 223 134 241 130 224 133 362 124 362 130 362 123 232 133 247 129 233 122 243 130 363 129 244 142 364 92 155 91 157 158 365 141 262 142 264 112 366 158 365 138 295 90 328 89 367 139 326 92 368 142 369 89 151 145 269 140 260 146 274 140 260 112 259 137 255 141 370 158 346 143 265 76 371 92 371 60 371 60 150 92 368 89 151 140 260 77 127 146 274 143 265 109 372 115 266 158 346 110 190 143 265 138 295 158 365 142 264 115 201 113 199 144 270 141 370 143 265 145 271 89 373 91 373 139 373 145 272 91 374 89 263 131 375 154 290 146 274 83 148 150 281 65 109 148 276 152 285 149 278 72 312 85 235 146 274 146 274 77 127 72 312 96 164 94 161 69 114 83 148 151 283 150 281 135 376 153 377 131 378 85 140 138 256 134 379 155 294 136 252 130 254 154 380 153 377 135 376 126 217 136 291 127 218 138 287 96 277 134 279 151 381 138 382 152 383 147 384 151 381 152 383 142 264 145 269 138 295 127 218 156 292 146 274 156 292 152 284 146 274 149 278 152 285 155 294</p>
        </triangles>
      </mesh>
    </geometry>
  </library_geometries>
  <library_visual_scenes>
    <visual_scene id="scene">
      <node id="link3_stl">
        <instance_geometry url="#geometry">
          <bind_material>
            <technique_common>
              <instance_material symbol="qmat_c90f2351a1b48e4d" target="#qmat_c90f2351a1b48e4d" />
            </technique_common>
          </bind_material>
        </instance_geometry>
      </node>
    </visual_scene>
  </library_visual_scenes>
  <scene>
    <instance_visual_scene url="#scene" />
  </scene>
</COLLADA>