<?xml version='1.0' encoding='utf-8'?>
<COLLADA xmlns="http://www.collada.org/2005/11/COLLADASchema" version="1.4.1">
  <asset>
    <created>2026-09-14T00:00:00Z</created>
    <modified>2026-09-14T00:00:00Z</modified>
    <unit name="metre" meter="1" />
    <up_axis>Z_UP</up_axis>
  </asset>
  <library_effects>
    <effect id="qmat_a51b34f6a238e212_effect">
      <profile_COMMON>
        <technique sid="common">
          <lambert>
            <emission>
              <color>0 0 0 1</color>
            </emission>
            <diffuse>
              <color>0.69804314 0.69804314 0.69804314 1.0</color>
            </diffuse>
          </lambert>
        </technique>
      </profile_COMMON>
    </effect>
  </library_effects>
  <library_materials>
    <material id="qmat_a51b34f6a238e212" name="qmat_a51b34f6a238e212">
      <instance_effect url="#qmat_a51b34f6a238e212_effect" />
    </material>
  </library_materials>
  <library_geometries>
    <geometry id="geometry" name="link5_stl">
      <mesh>
        <source id="positions">
          <float_array id="positions_array" count="339">-0.019399019 0.0201508235 0.103452429 0.0233138632 0.0248267464 0.0977428034 -0.0206529647 0.0283966009 0.0880354941 0.0229705386 0.011196061 0.109626696 0.0249852985 0.0140395146 0.0905832648 -0.0209147017 0.0105364099 0.0788486898 -0.020959314 -0.0103594447 0.0797212571 -0.0198643226 0.0155696608 0.0978257433 -0.0202068556 -0.0110503156 0.101879962 -0.0194614548 0.0130938748 0.0682912618 -0.020244699 0.0082041407 0.110557906 -0.0143710468 0.0170553811 0.0996286124 -0.0144373327 0.0104285209 0.111104302 -0.0142296115 -0.0179267358 0.0982362553 -0.0142889414 -0.0107352957 0.109718017 -0.0206287 0.00968080387 0.11496973 -0.0203428436 -0.0084672058 0.116342351 -0.0156396609 0.00784785114 0.117396399 0.022498522 -0.0129040042 0.10945721 0.0232997406 0.0284219589 0.0786065981 0.025209602 0.00353189092 0.0693246871 0.0240701698 0.0138545642 0.059297815 0.0137135498 0.0253502373 0.0693316832 0.0227484759 0.0128224138 0.0576851554 -0.0145347938 0.017505547 0.0597173572 -0.00823681615 0.0307665523 0.0705499277 0.00347758154 0.0293623377 0.0383529216 -0.0326092727 0.00942762103 0.0522477999 -0.0207889322 0.00883330312 0.0525945872 -0.0183950234 0.0259839669 0.0706516281 -0.0233544353 0.0248941593 0.052184958 -0.0200670976 0.0179999154 0.0652893484 -0.0124543905 0.0277080368 0.0535893217 -0.0188067704 0.0180817917 0.0487934127 -0.0141044138 -0.0285972003 0.0819472224 -0.0201831181 -0.0283582248 0.088487938 0.0250176936 -0.0124966223 0.0916675702 -0.0159501005 -0.0108088171 0.116805658 -0.0194149502 -0.0180298071 0.0903543383 -0.0195553731 -0.0185613036 0.104139581 0.0228956416 -0.0245929416 0.0982052088 0.0224891938 -0.0290744659 0.0834340826 0.0257914402 -0.0127208708 0.0663599446 0.0118919453 -0.0255777445 0.0691149384 0.00137758558 -0.0304771308 0.0705276728 0.0111598019 -0.0268244874 0.038348712 0.0227730852 -0.0186016951 0.061255347 0.0274469629 -0.00645046402 0.0566085093 0.0225441977 -0.0131917484 0.0577545241 0.0155077428 -0.0197774004 0.0490471795 -0.0207749177 -0.008834593 0.0526248477 -0.0152284782 -0.024356341 0.0672883391 -0.0155065535 -0.0114344796 0.0566743836 -0.0317941681 -0.0110809905 0.052414611 -0.0208511502 -0.011428779 0.0525535159 -0.0195227768 -0.000950867601 0.0512892976 -0.0195411425 -0.0113798873 0.0678321123 -0.0152962916 -0.0189511329 0.0736699179 -0.0196805298 -0.0269760974 0.0724125728 -0.00645908713 -0.028941121 0.0506260991 -0.0200489368 -0.0180011038 0.0653219968 0.0153817898 0.0236944854 0.0433987193 0.0168703888 0.00965211447 0.0439597666 -0.0044034007 0.0233033504 0.0401077941 0.0162789933 0.0212529935 0.0503634214 0.0254406426 0.00486649247 0.0469212346 0.0139572034 0.0140335662 0.0511666611 0.0179147534 0.0189562254 0.0383932143 0.018776305 0.0187198464 0.00108463655 0.00522785215 0.0273308475 0.0509897657 -0.00794001296 0.0212296639 0.0511028022 0.0182396956 0.00622116681 0.0551819466 0.018665012 -5.8627018e-05 0.0523209497 0.00379861658 0.0275417622 0.000843453978 0.0108566517 0.011677078 -0.000555422506 0.0246594138 -0.0051175449 0.00167848147 0.0110040465 -0.0186623037 0.0438141488 0.0172250718 -0.00870122481 0.0558019504 0.0185980722 -0.0187317841 0.00108598499 0.0224505309 -0.0154993171 0.0382463485 0.0185564589 -6.20109422e-05 0.0385446176 0.0232795477 -0.00884043146 0.0389114432 -0.00208830205 -0.023356257 0.0394008271 -0.00200644485 -0.0213972051 0.052767545 -0.0303694885 0.0118887918 0.0495401397 -0.0171174351 0.0271726958 0.045984555 -0.0153745711 0.0278720222 0.0377471074 -0.0320047811 0.0122442292 0.0378007293 -0.0240932442 0.0205255151 0.00143709511 -0.0310546737 0.00832887273 0.00137225911 -0.0262691826 0.020073561 0.0386427827 -0.0330678783 -0.0112667354 0.0385816172 -0.0308695771 -0.0118300132 0.0496709459 -0.00272758305 0.0131108742 -0.0010524923 -0.0192538965 0.00554563245 -0.000824739458 -0.0163406115 -0.0201976169 0.0504580997 -0.02682437 -0.00102622644 0.0487311222 -0.020745784 -0.0258568525 0.0525019802 -0.0300963707 -0.0143023524 0.0375496931 -0.0136471931 -0.0284113083 0.0373867527 -0.0150676016 -0.0283472557 0.0457644388 -0.0313054211 -0.00806135312 0.000678859418 -0.010631837 -0.0289068948 0.0387728997 0.00486204447 -0.0267384779 0.0496296249 0.00717312284 -0.0110887634 -0.000928187743 -0.0172184221 -0.00762151182 -0.00088446174 -0.0236149821 -0.0204332788 0.00200196332 -0.00591756869 -0.0288082305 0.0011009 0.00461271545 -0.0269625299 0.00034111258 0.0266487431 0.00247832574 0.0607295409 -0.0209055152 0.0112315463 0.0526148118 0.0226485822 0.016186066 0.0396450981 -0.0106110908 0.0279408358 0.00103224197</float_array>
          <technique_common>
            <accessor source="#positions_array" count="113" stride="3">
              <param name="X" type="float" />
              <param name="Y" type="float" />
              <param name="Z" type="float" />
            </accessor>
          </technique_common>
        </source>
        <source id="normals">
          <float_array id="normals_array" count="645">0.0430906862 0.768963158 0.637839198 0.0266691819 0.867001176 0.497591883 -0.659754157 0.739046991 0.136139691 0.991765559 0.105125919 0.073140949 0.992813587 0.0193577427 0.118095353 0.997093976 0.0621218234 0.0440956764 -0.999802768 0.0197264906 -0.00229060883 -0.996715069 -0.0780918971 0.0214651451 0.6706689 -0.724787474 -0.15775387 0.821188569 0.517782688 -0.23989664 0.930737853 -0.365190297 0.0190561842 -0.998615682 0.0417387336 0.0320092998 -0.998221755 0.0184024312 0.0566986054 -0.998024046 0.00810911972 -0.0623078272 0.332150608 -0.90165627 -0.276933044 0.361114502 -0.846925735 -0.390273154 0.362910092 -0.842995048 -0.397058725 -0.999988616 -0.00474610878 -0.000536402047 -0.994557559 0.0923732743 -0.0481914952 -0.999982417 -0.00439806888 -0.00397660956 -0.671065092 0.48800391 0.558143198 -0.727961004 -0.23356986 0.644606769 0.810615778 0.24193415 -0.533263445 0.890076935 0.140827015 -0.433509797 0.934360445 0.062255282 -0.350848675 -0.208693892 0.465563178 0.860056877 0.130820692 0.551899374 0.82358551 0.0353362784 0.354379326 0.934433877 0.0131117227 -0.387829691 0.921637774 0.625827789 0.770067573 -0.123836383 0.996298373 0.0684971139 0.0519394428 0.913400054 0.403588086 -0.053075105 0.219589353 0.897099137 -0.38339743 0.153071791 0.455385715 -0.877036452 -0.0357760079 0.533938289 -0.844766259 -0.102269925 0.994526148 0.0214161854 0.242007062 0.969066799 -0.0483961068 0.433252573 -0.887289345 -0.158144966 -0.0519960709 -0.996568739 0.0643984377 -0.592348099 0.787748575 -0.169043943 -0.761063039 0.648494005 0.0154458201 -0.995662391 0.0560181998 0.074285537 0.570889294 -0.54756254 0.611768484 0.726625323 -0.661330223 0.186166704 0.891598046 0.085309945 0.444719195 0.670561969 -0.734237969 -0.106024802 -0.96187067 0.272783816 0.0198451206 -0.488632858 0.728111327 -0.480720103 0.995178342 -0.0695834383 0.0691247061 -0.33538118 -0.467313498 0.818008304 0.976764858 0.126982987 -0.172643363 0.666123986 0.582471967 -0.465838224 0.988886237 -0.0481279381 -0.140668914 -0.999198079 -0.034389995 0.0205057524 -0.999856651 0.00948152877 -0.0140261641 -0.984890461 -0.13855961 0.103884898 0.989144206 -0.047735773 0.138978481 0.988284409 -0.131550595 0.0773848221 0.0881272405 -0.772395015 0.628998816 0.00245520822 -0.850178182 0.526489317 0.113821365 0.985536635 -0.125547767 -0.0510394834 0.998695374 -0.00160283351 0.593370199 -0.804876983 -0.00921227597 0.981801629 -0.189272493 -0.0155384941 0.221703961 -0.915741146 -0.335060447 0.111334883 -0.993757606 -0.00709723309 0.416567683 -0.90787214 -0.0473242588 0.776179314 -0.618571579 -0.122126475 0.991327584 -0.0300851893 -0.127923802 -0.867747605 0.460125148 0.187880263 -0.710120142 0.677066028 0.193160668 -0.483505338 0.865067065 0.133721784 -0.999988437 -0.000801260758 -0.00473843468 -0.999984443 0.000328114431 -0.00557265943 -0.0276431218 -0.792574227 -0.609148562 -0.304799914 -0.447064161 -0.840970099 0.159126714 -0.465030581 -0.870876133 -0.200447917 0.978232324 0.0536859035 -0.0322381817 -0.998711944 0.0391814113 0.99311769 0.090395093 0.0744711161 0.930404067 0.335020542 0.148692489 0.811987936 0.505880594 0.291136384 -0.999638736 0.0170938186 0.0207413137 -0.985048592 0.0838775188 0.150478616 -0.00295295357 -0.952441633 -0.304706722 -0.0102673462 -0.997663319 -0.0675462261 -0.124812722 0.98426038 0.125113145 0.228668675 0.971275389 0.0658389777 0.91841352 -0.35931021 0.165567935 -0.782797933 0.346698165 0.516747355 0.948779881 0.201498523 0.243341461 -0.998010457 -0.0573488623 0.0261959881 -0.911524713 -0.411096692 0.0110530211 -0.055411797 -0.0457247011 -0.997416079 -0.195360169 -0.0598206893 -0.978905439 0.164461687 -0.0219659265 -0.98613888 0.58444649 0.796869099 -0.153042167 -0.703223586 -0.704101264 0.0985801369 -0.997200012 -0.0674959496 -0.0321936943 -0.903789639 -0.427739382 0.014258272 0.181155697 0.0510125235 0.982130527 0.264546216 0.0560371988 0.962743521 0.552813292 0.0525660813 0.831645548 0.502138913 0.855093718 0.129117265 0.789168298 0.611846745 -0.0534510836 -0.164931342 -0.696895063 0.697950482 0.333844304 -0.0422840603 0.941679358 0.214135453 0.312455237 -0.925482452 0.703537464 0.034516599 -0.709819496 0.866563141 0.254322052 -0.429404974 -0.674554944 -0.735254943 0.0661502033 -0.944022119 -0.328831404 -0.0263080616 -0.995422006 -0.0899192095 0.0323973224 0.116707779 -0.990077794 0.0782641992 -0.470925689 -0.881167114 0.0421126299 0.0326569378 0.124766737 -0.991648495 0.134956345 0.0782605559 -0.987756073 0.10308338 0.0506943278 -0.99338001 0.279325068 0.959180355 -0.044164557 0.158514261 -0.0089413058 -0.987316191 -0.966243207 0.24600035 0.0765368119 -0.91010046 0.0787841007 0.406829536 0.706211388 -0.702827513 -0.08543396 0.910973549 -0.406808645 -0.0680726022 -0.244180724 -0.171262935 -0.954486668 0.725608885 -0.0713304207 0.68440026 0.987066388 -0.159915492 0.0112707885 0.916805029 -0.203808263 0.343410432 -0.0819634125 0.176309466 0.980916381 0.00856303703 0.011169998 0.999900937 -0.254920751 0.748748899 0.61187464 -0.453929275 0.887586772 0.0783453137 0.222710669 -0.532524705 0.816588879 0.0846190006 -0.318382859 0.944177926 0.224702939 -0.473361313 0.851726294 0.109243177 -0.978608012 -0.174333945 -0.171990335 -0.974488318 -0.144193873 -0.0343391672 -0.219479188 -0.97501266 0.706804216 -0.259750605 -0.657994986 -0.0040051043 -0.93362999 -0.358216465 -0.379360855 0.923370063 -0.0589331202 -0.937090933 0.347639173 -0.0317421593 -0.69629699 0.715745628 -0.0536542125 -0.967930973 0.245845348 -0.0516686663 0.580108225 -0.533334672 0.615652978 -0.0133321993 -0.275248855 0.961280584 -0.00833663251 0.00511975633 0.999952137 -0.457939565 -0.183650732 -0.869806767 0.659667492 0.273249745 -0.700123787 0.942865908 0.327584177 -0.0607658476 -0.00621836586 0.0676072687 -0.997692645 -0.103760444 0.106885709 -0.988842368 -0.103380576 0.0366341621 -0.993966997 -0.153635055 0.0534964167 -0.986678481 0.533371329 0.617559195 -0.578044772 0.672119856 0.740442395 0.000115096766 0.0213485248 -0.0177864321 -0.999613881 -0.731994748 -0.680640817 -0.0301959645 -0.89640975 -0.441959351 -0.0334880352 -0.305664957 -0.95081383 -0.0502199642 -0.012809339 -0.00366512476 0.999911249 0.117844962 0.890543282 -0.439369112 -0.0259956773 0.00533166714 0.999647856 -0.0231141876 0.00373831275 0.999725819 -0.019422356 0.0016970156 0.999809921 0.483000815 0.015138342 -0.875489056 -0.979820371 0.19949019 -0.0124787865 -0.954897225 -0.293433875 -0.0454739071 -0.519144952 0.364218295 -0.773196936 -0.967069209 -0.25230968 -0.0334216319 -0.486362696 0.790676951 -0.371861964 -0.045543883 -0.247823671 0.967734039 0.200709909 -0.291384935 0.935312986 0.0636589825 -0.0454746634 -0.99693507 -0.0694803894 -0.0578798391 -0.995902777 -0.67062813 -0.739494085 -0.058364924 -0.0328657776 -0.996144056 -0.0813437924 -0.00589169143 -0.0787620172 -0.996876061 -0.0555201359 -0.108581975 -0.992535889 -0.11385566 -0.0406958833 -0.992663443 -0.139754757 -0.190782562 -0.971632957 -0.999934793 -0.00639106287 -0.00946644042 0.365920365 -0.883504272 -0.292442232 0.993494332 0.112591207 0.0170948356 -0.990895271 -0.0800160244 0.108277149 -0.0275573432 -0.934916615 0.353795916 0.961660743 -0.00732123107 -0.274144173 0.309373707 -0.537947476 0.784155905 0.756743848 -0.630999982 0.170815229 -0.339997292 0.938052058 0.0667846277 -0.999186993 0.030818142 0.0259915572 -0.998238981 -0.0435096771 0.0403212793 0.184161425 0.801062882 0.569546163 0.0167460777 -0.291281998 0.956490636 0.833227754 0.518309414 0.192579582 0.0690820441 0.506467521 0.859487236 -0.528734684 -0.0897719115 -0.844026446 -0.094796434 -0.746463597 0.658639252 -0.98317802 0.140811026 -0.116332427 -0.970172942 -0.0346449837 -0.239925295 -0.228354022 0.972326756 -0.0493472926 0.994794011 -0.0937521681 -0.0399419852 0.00425707409 -0.291942388 -0.956426442 -0.165228128 0.961602449 -0.219135568 -0.453442872 0.786897302 -0.418547809 0.135736525 -0.0577463247 -0.98906064 0.11909005 -0.288335532 0.950094819 -0.0352008939 0.0251230188 0.999064445 -0.153081387 0.987868249 0.026122557 -0.0528999306 0.111381829 -0.992368698 -0.170837075 -0.174439728 0.969734728 0.58564806 0.748250306 0.311669439 -0.0289737452 0.00697852625 0.999555826 -0.546027958 -0.538736224 -0.641573608 -0.0440127589 -0.0451570414 0.998009861</float_array>
          <technique_common>
            <accessor source="#normals_array" count="215" stride="3">
              <param name="X" type="float" />
              <param name="Y" type="float" />
              <param name="Z" type="float" />
            </accessor>
          </technique_common>
        </source>
        <vertices id="vertices">
          <input semantic="POSITION" source="#positions" />
        </vertices>
        <triangles material="qmat_a51b34f6a238e212" count="246">
          <input semantic="VERTEX" source="#vertices" offset="0" />
          <input semantic="NORMAL" source="#normals" offset="1" />
          <p>0 0 1 1 2 2 1 3 3 4 4 5 2 2 5 6 6 7 7 8 8 9 9 10 0 11 7 12 10 13 11 14 12 15 10 16 11 17 13 18 14 19 15 20 10 13 16 21 10 22 17 23 8 24 17 25 15 20 16 21 15 20 12 26 0 0 0 11 10 13 15 20 3 27 12 26 18 28 19 29 20 30 21 31 22 32 23 33 24 34 25 35 22 32 26 36 22 32 19 29 21 31 11 14 7 8 24 37 5 38 27 38 28 38 29 39 30 40 31 41 32 42 29 43 24 44 29 39 22 32 24 34 24 37 9 10 33 45 13 18 34 46 35 47 4 5 3 4 36 48 17 25 16 21 37 49 38 50 13 51 35 52 8 53 35 54 39 55 7 12 6 7 8 53 8 9 13 51 38 50 36 48 18 56 40 57 18 28 39 58 40 59 8 9 14 60 13 51 37 61 14 60 8 9 36 48 40 57 41 62 36 48 41 62 42 63 43 64 44 65 45 66 41 62 43 64 46 67 47 68 42 63 46 67 48 69 49 70 43 71 20 30 36 48 42 63 28 72 50 73 5 6 51 74 52 75 48 76 6 77 50 77 53 77 6 78 53 78 54 78 5 6 50 73 6 7 55 79 56 80 52 81 24 82 57 83 13 18 58 84 51 74 43 64 9 10 8 9 56 80 34 85 58 84 41 62 44 86 43 71 59 87 38 50 35 52 58 88 13 18 57 83 34 46 57 83 58 89 34 46 56 80 38 50 57 90 6 7 60 91 8 53 8 53 58 92 35 54 8 53 60 91 58 92 61 93 62 94 63 95 26 36 22 32 61 96 64 97 65 98 23 99 64 100 66 101 65 102 26 36 67 103 68 104 69 105 70 106 66 101 71 107 23 33 72 108 66 109 71 107 72 108 66 110 62 111 71 112 25 113 69 105 22 114 73 115 68 116 74 117 26 36 68 104 73 118 68 116 75 119 74 117 71 112 76 120 77 121 45 66 78 122 79 123 80 124 81 124 76 124 72 125 77 126 49 127 65 98 49 70 48 69 81 128 80 129 82 130 81 128 82 130 76 131 77 132 83 133 49 134 23 99 65 98 48 69 70 135 33 45 63 136 70 135 24 37 33 45 33 137 84 138 85 139 30 40 86 140 87 141 86 140 88 142 87 141 88 142 89 143 87 141 85 139 90 144 63 145 32 42 70 106 69 105 33 45 9 10 55 79 90 144 91 146 80 129 85 139 84 138 90 144 63 145 90 144 80 129 85 139 63 147 33 137 24 34 71 107 52 75 84 138 92 148 91 149 90 144 84 138 91 149 73 115 74 117 93 150 88 151 94 152 89 153 95 154 51 155 59 87 84 138 96 156 92 148 97 157 98 158 99 159 54 160 53 160 97 160 92 148 95 154 100 161 28 162 53 163 50 164 96 156 55 165 95 154 55 165 51 155 95 154 27 166 98 158 53 167 95 154 82 168 100 161 87 141 101 169 98 158 82 130 102 170 100 161 44 65 99 159 45 66 83 133 59 171 103 172 94 152 104 173 105 174 98 158 106 175 99 159 99 159 106 175 107 176 101 169 106 175 98 158 104 173 108 177 107 178 89 153 105 174 101 179 101 179 107 178 106 180 0 0 12 26 3 27 7 12 2 2 6 7 7 8 11 14 10 16 12 181 11 17 14 19 0 0 3 27 1 1 12 15 17 182 10 16 15 20 17 25 12 26 0 11 2 2 7 12 19 29 1 3 4 5 20 30 19 29 4 5 20 30 4 5 36 48 109 183 20 30 42 63 21 31 20 30 109 183 29 39 19 29 22 32 2 2 1 1 19 29 22 114 64 97 23 99 24 37 7 8 9 10 13 18 11 17 24 82 31 41 30 40 110 184 29 39 25 35 30 40 32 42 25 113 29 43 2 2 29 39 31 41 2 2 31 41 5 6 2 2 19 29 29 39 5 6 31 41 110 184 40 59 39 58 35 185 36 48 3 4 18 56 8 24 17 23 37 186 16 21 10 13 8 53 41 62 35 185 34 85 40 59 35 185 41 62 14 187 37 188 39 58 18 28 14 187 39 58 18 28 12 26 14 187 16 21 39 55 37 49 16 21 8 53 39 55 46 67 42 63 41 62 51 74 48 76 43 64 103 189 43 71 49 70 47 68 109 183 42 63 55 79 9 10 56 80 56 80 57 90 52 81 57 83 24 82 52 190 57 90 38 50 58 88 44 65 58 92 99 159 6 7 54 191 60 91 60 91 54 191 97 157 60 91 97 157 58 92 51 155 44 86 59 87 44 192 51 192 58 192 56 80 8 9 38 50 41 62 58 84 43 64 67 193 63 145 80 129 21 31 109 183 111 194 24 34 23 33 71 107 22 32 21 31 111 194 61 96 22 32 111 194 111 194 67 103 62 195 61 93 111 196 62 94 26 36 61 96 67 103 66 110 70 135 63 136 66 110 63 136 62 111 64 100 69 105 66 101 72 108 23 33 48 76 61 197 63 145 67 193 71 112 62 111 80 198 65 102 66 101 72 125 62 111 67 199 80 198 22 114 69 105 64 97 26 36 73 118 112 200 68 104 67 103 111 194 68 104 111 194 75 201 93 150 74 117 104 173 71 112 80 198 76 120 59 87 43 71 103 189 65 102 72 125 49 127 77 202 72 108 48 76 79 123 47 68 46 67 82 130 83 203 76 131 83 203 77 204 76 131 49 134 83 133 103 172 111 194 109 183 79 123 79 123 109 183 47 68 52 75 77 202 48 76 52 75 71 107 77 202 46 67 43 64 45 66 79 123 46 67 45 66 75 201 111 194 79 123 45 66 99 159 107 176 104 173 78 205 108 177 75 201 79 123 78 122 104 173 74 117 75 119 104 173 75 119 78 205 78 206 107 206 108 206 78 122 45 66 107 176 70 106 32 42 24 44 86 140 26 36 112 200 88 142 86 140 112 200 30 40 25 35 86 140 86 140 25 35 26 36 96 156 33 137 55 165 110 207 30 207 27 207 69 105 25 113 32 42 27 208 5 208 110 208 84 138 33 137 96 156 30 40 87 141 27 166 112 209 73 115 93 150 94 152 93 150 104 173 88 151 112 209 93 150 88 151 93 150 94 152 95 210 59 171 83 133 99 159 58 92 97 157 91 149 92 148 100 161 91 149 100 161 102 211 97 157 53 167 98 158 28 162 27 212 53 163 55 213 52 75 51 74 82 130 91 146 102 214 95 154 83 203 82 130 27 166 87 141 98 158 80 129 91 146 82 130 92 148 96 156 95 154 89 153 94 152 105 174 87 141 89 143 101 169 105 174 104 173 107 178 101 179 105 174 107 178</p>
        </triangles>
      </mesh>
    </geometry>
  </library_geometries>
  <library_visual_scenes>
    <visual_scene id="scene">
      <node id="link5_stl">
        <instance_geometry url="#geometry">
          <bind_material>
            <technique_common>
              <instance_material symbol="qmat_a51b34f6a238e212" target="#qmat_a51b34f6a238e212" />
            </technique_common>
          </bind_material>
        </instance_geometry>
      </node>
    </visual_scene>
  </library_visual_scenes>
  <scene>
    <instance_visual_scene url="#scene" />
  </scene>
</COLLADA>