<?xml version='1.0' encoding='utf-8'?>
<COLLADA xmlns="http://www.collada.org/2005/11/COLLADASchema" version="1.4.1">
  <asset>
    <created>2026-09-14T00:00:00Z</created>
    <modified>2026-09-14T00:00:00Z</modified>
    <unit name="metre" meter="1" />
    <up_axis>Z_UP</up_axis>
  </asset>
  <library_effects>
    <effect id="qmat_45af129ec809a57d_effect">
      <profile_COMMON>
        <technique sid="common">
          <lambert>
            <emission>
              <color>0 0 0 1</color>
            </emission>
            <diffuse>
              <color>1.0 1.0 1.0 1.0</color>
            </diffuse>
          </lambert>
        </technique>
      </profile_COMMON>
    </effect>
  </library_effects>
  <library_materials>
    <material id="qmat_45af129ec809a57d" name="qmat_45af129ec809a57d">
      <instance_effect url="#qmat_45af129ec809a57d_effect" />
    </material>
  </library_materials>
  <library_geometries>
    <geometry id="geometry" name="link8_stl">
      <mesh>
        <source id="positions">
          <float_array id="positions_array" count="108">0.0441587605 0.0200873408 0.00491169002 0.034578912 0.0186238419 -0.0126685007 0.069112502 0.0229916032 -0.00459570996 0.0302162711 0.00973425247 0.00775786443 0.0710000023 0.0240999814 0.00520212995 0.0162440781 0.0188157987 0.0156146698 0.0167143568 0.00356772426 0.0155044785 0.0427662358 0.0229965076 -0.0150050903 0.0232041888 0.00631893659 -0.0221417639 -0.0159063768 0.0719356835 0.0122090848 -0.0179316457 0.0153599484 0.0213950649 -0.0140673742 0.017037373 0.00974843558 -0.0184919201 0.0762436166 0.0166766681 -0.017205542 0.0329095758 0.00856422819 -0.0168625508 0.0480775349 0.00854732841 -0.0175621118 0.0591208152 0.00824805535 -0.00767137995 0.0162865482 -0.0119054085 -0.00480431179 -0.00948833674 -0.0302563701 -0.00929367449 -0.0123181678 -0.0124231633 -0.00869063009 0.0164400134 -0.00076968217 -0.00866920594 -0.0123799043 4.14141068e-05 -0.00429657288 0.0157699324 -0.0302563701 -0.00326497923 0.0163367018 0.0286143832 0.000373125571 0.013308567 -0.0248990189 0.000193196232 0.0132700093 0.0234928709 -0.000432932429 0.0022696848 -0.00768641848 -0.000129801381 -0.0105603784 -0.0257098507 0.0338856392 0.0110663101 -0.0129709477 -0.00143793551 -0.0116222491 0.0284623783 -0.0176805016 0.018055778 0.00898256153 0.0135354241 0.0153179197 0.0110485042 0.000542166934 -0.00470499415 0.0238171872 -0.000502990792 -0.00297845225 0.00728356419 -0.0184743479 -0.000290314929 0.0184933078 -0.0165389925 -0.0122385556 0.00772224879 -0.0177578498 -0.0124106985 0.0239496306</float_array>
          <technique_common>
            <accessor source="#positions_array" count="36" stride="3">
              <param name="X" type="float" />
              <param name="Y" type="float" />
              <param name="Z" type="float" />
            </accessor>
          </technique_common>
        </source>
        <source id="normals">
          <float_array id="normals_array" count="252">0.135269523 -0.990770042 0.00876719225 0.145519957 -0.989350021 0.0032431772 0.121712655 -0.992431641 0.0162930116 -0.345336735 0.213853836 -0.913788319 -0.370022148 0.252525538 -0.894043863 -0.241759598 -0.0674151331 -0.967991471 0.333483338 -0.942446232 0.0241659377 0.322235018 -0.932332456 -0.164075702 0.334285349 -0.941530585 0.0421122238 0.373730212 0.0104727037 0.927478313 0.440929472 0.0071131275 0.897513568 0.186939001 -0.00133365358 0.982370615 0.355678082 -0.0173252486 -0.934447944 0.367252439 -0.03300355 -0.929535568 0.508771598 -0.421491951 -0.750663698 0.931542158 0.0446670577 0.36087957 0.944515586 0.0194271617 0.327891588 0.948216617 0.0175488889 0.317139268 -0.909834564 0.137510389 -0.391525239 -0.997043848 -0.00385688432 -0.0767381415 -0.934200406 0.021896163 0.356076092 0.816989541 0.0502220578 -0.574461341 0.300801009 0.03115624 -0.953177869 0.307880521 -0.0101084113 -0.951371312 0.86700809 0.0414654091 -0.496565819 -0.988081276 0.0471504442 -0.146533862 -0.975458205 0.0449575111 -0.215546206 -0.993883193 0.0360585041 -0.104383744 -0.965167284 0.0151128834 -0.261196673 -0.941842616 0.0438450463 -0.333181858 0.286374032 0.0107123265 -0.958058 0.0669538677 0.997716784 -0.00885461457 -0.0759361908 0.996839046 0.0233594421 0.0896719098 0.995910764 -0.0109842597 0.999022365 -0.0381684341 0.0223053508 0.999794841 0.000488752034 -0.0202498715 0.999597609 -0.0276409872 0.00637118844 -0.336585194 -0.0227390192 0.941378415 -0.336695224 -0.024881335 0.941284895 -0.298466295 -0.0140478127 0.954316795 0.0690607354 -0.997571647 0.00902221724 0.12506181 -0.992096424 -0.0102088945 0.283389419 -0.862560153 -0.419142425 0.326130331 -0.93931818 0.106397353 0.27441293 -0.626672089 -0.729369342 0.207419813 0.000212578248 -0.978251994 -0.116740666 0.987751722 0.103528567 0.0292126313 0.99936527 0.0203891154 -0.384414524 -0.241028115 -0.891140223 -0.547549427 -0.167497903 -0.819837809 -0.679662645 -0.0264212769 -0.733048797 0.152592435 -0.988288939 -0.000705765618 0.151509792 -0.988455713 -0.000224198811 0.153238356 -0.988188863 -0.000872109551 -0.129144415 0.991583169 0.00919768121 -0.112987272 0.993594348 -0.00202324311 -0.167778432 -0.516043246 -0.839970112 0.57964325 -0.647254646 0.495050609 0.586669207 -0.596603632 0.547616005 0.976127684 -0.205450565 -0.070461221 0.971975982 -0.229532063 -0.0507717095 0.986648679 -0.158953637 -0.035469912 0.999518156 -0.0183082558 0.0250653978 -0.999799311 -0.0200340375 -0.000133036971 -0.992224157 -0.0650754496 -0.106096372 -0.791806638 0.0130095212 0.610633314 0.0274227671 0.0418927968 0.99874568 0.0737218782 -0.000604412227 0.997278631 -0.646514714 0.106861867 -0.755380213 -0.0995771289 0.994702637 0.0255151335 -0.020081412 0.999446571 -0.0265196376 0.048162844 0.991430402 -0.121433534 -0.225395307 -0.0183063336 0.974095404 -0.272767991 -0.0134761678 0.961985469 0.281815112 -0.945801497 0.161368445 -0.674729049 0.296141833 -0.676047862 -0.998613834 -0.0347801819 -0.0395063981 -0.970506489 0.0133304773 -0.240706146 0.882615447 0.0443910509 0.467995077 -0.98321569 0.0197644755 -0.181373268 0.141448662 -0.989384174 -0.0333349854 -0.999152839 0.0227989592 -0.03426034 0.0318321735 -0.99943471 0.0108136917 -0.0305374991 -0.999450445 -0.0128960516</float_array>
          <technique_common>
            <accessor source="#normals_array" count="84" stride="3">
              <param name="X" type="float" />
              <param name="Y" type="float" />
              <param name="Z" type="float" />
            </accessor>
          </technique_common>
        </source>
        <vertices id="vertices">
          <input semantic="POSITION" source="#positions" />
        </vertices>
        <triangles material="qmat_45af129ec809a57d" count="68">
          <input semantic="VERTEX" source="#vertices" offset="0" />
          <input semantic="NORMAL" source="#normals" offset="1" />
          <p>0 0 1 1 2 2 0 3 2 4 3 5 4 6 3 7 2 8 5 9 6 10 4 11 7 12 2 13 8 14 9 15 10 16 11 17 12 18 13 19 10 20 14 21 11 22 13 23 15 24 9 15 14 21 16 25 17 26 18 27 19 28 18 27 20 29 7 12 8 14 21 30 19 31 22 32 16 33 23 34 24 35 25 36 23 37 26 38 27 39 28 40 20 41 26 42 27 43 26 42 8 14 26 42 17 44 8 14 13 23 11 22 29 45 10 46 22 32 11 47 30 48 31 49 24 50 30 51 24 52 23 53 5 54 21 55 22 32 30 51 23 53 1 1 28 56 31 56 6 56 6 57 31 58 3 7 30 48 3 5 31 49 31 59 28 60 32 61 32 61 28 60 26 62 33 63 34 64 35 65 5 9 28 66 6 10 22 67 10 20 28 66 10 20 33 63 35 65 11 22 20 29 34 68 24 35 31 59 25 36 25 36 31 59 32 61 7 69 4 70 2 71 5 54 4 70 7 69 4 6 6 57 3 7 30 48 0 3 3 5 0 0 30 51 1 1 2 72 1 73 27 39 2 74 27 43 8 14 12 18 9 75 15 76 12 18 14 77 13 19 14 21 9 15 11 22 9 15 12 78 10 16 12 18 15 76 14 77 16 25 21 79 17 26 19 28 16 25 18 27 1 73 23 37 27 39 16 33 22 32 21 55 23 34 25 36 26 62 17 44 21 30 8 14 26 42 20 41 18 80 26 42 18 80 17 44 11 47 22 32 19 31 10 20 29 81 33 63 10 20 13 19 29 81 21 55 5 54 7 69 22 67 28 66 5 9 20 41 35 82 34 83 28 40 35 82 20 41 25 36 32 61 26 62 29 45 11 22 34 68 28 66 10 20 35 65 33 63 29 81 34 64 11 22 19 28 20 29</p>
        </triangles>
      </mesh>
    </geometry>
  </library_geometries>
  <library_visual_scenes>
    <visual_scene id="scene">
      <node id="link8_stl">
        <instance_geometry url="#geometry">
          <bind_material>
            <technique_common>
              <instance_material symbol="qmat_45af129ec809a57d" target="#qmat_45af129ec809a57d" />
            </technique_common>
          </bind_material>
        </instance_geometry>
      </node>
    </visual_scene>
  </library_visual_scenes>
  <scene>
    <instance_visual_scene url="#scene" />
  </scene>
</COLLADA>