<?xml version='1.0' encoding='utf-8'?>
<COLLADA xmlns="http://www.collada.org/2005/11/COLLADASchema" version="1.4.1">
  <asset>
    <created>2026-09-14T00:00:00Z</created>
    <modified>2026-09-14T00:00:00Z</modified>
    <unit name="metre" meter="1" />
    <up_axis>Z_UP</up_axis>
  </asset>
  <library_effects>
    <effect id="qmat_634f1a590715cf44_effect">
      <profile_COMMON>
        <technique sid="common">
          <lambert>
            <emission>
              <color>0 0 0 1</color>
            </emission>
            <diffuse>
              <color>0.5647098 0.5647098 0.5647098 1.0</color>
            </diffuse>
          </lambert>
        </technique>
      </profile_COMMON>
    </effect>
  </library_effects>
  <library_materials>
    <material id="qmat_634f1a590715cf44" name="qmat_634f1a590715cf44">
      <instance_effect url="#qmat_634f1a590715cf44_effect" />
    </material>
  </library_materials>
  <library_geometries>
    <geometry id="geometry" name="link1_stl">
      <mesh>
        <source id="positions">
          <float_array id="positions_array" count="105">0.0375000015 0.0407193042 0.0528700054 0.0130049651 0.0406567231 0.0612750202 0.0290709827 0.0391075052 0.0512940735 0.0193575788 0.0394818597 0.0364392735 -0.00376928737 0.0408191755 0.0406564325 0.0185246505 0.0376608185 0.015137244 0.0170573723 0.0416283831 0.00804999564 0.00861821324 -0.00800420158 0.0112565663 0.0010388298 0.00993904937 0.0109426053 0.0138466312 -0.00247095525 0.00148575485 0.0137726273 0.0214800276 0.0103086922 0.00270879758 0.019216964 0.00684005208 0.0115184141 0.0150292506 -0 0.0188802835 -0.0295357406 0.0126384189 -0.0173079558 0.03841158 0.0169176441 -0.0176028498 -0.0302904267 0.0169761851 -0.012137332 -0.00296199392 0.0110120233 -0.0178764537 0.0417499989 0.00729374588 -0.000857305015 0.0131834187 0.000737608527 -0.010738668 0.00801578443 -0 -0.00968743674 0.0256632119 0.0109147243 0.00727638276 -0.0310827196 0.0522745736 -0.0189999994 -0.038127508 0.00783199538 0.0145212207 -0.0377793014 0.0644092113 0.0114246868 -0.0297902059 0.035085503 0.0335646942 -0.0344348326 0.0585384518 0.0131166074 -0.0380608141 0.0380223989 0.0340718478 -0.0329658166 0.0362267718 0.0158818867 -0.0290743783 0.0620387793 0.0297253188 -0.0321752541 0.048412215 -0.0117452322 -0.021949688 0.00993378554 0.0124427611 -0.0378517061 0.00534878625 1.95816174e-05 -0.012315358 0.010786362 -0.000413605361 -0.019541895 0.00461680908 -0.017529469 -0.00204488472 0.00166641141</float_array>
          <technique_common>
            <accessor source="#positions_array" count="35" stride="3">
              <param name="X" type="float" />
              <param name="Y" type="float" />
              <param name="Z" type="float" />
            </accessor>
          </technique_common>
        </source>
        <source id="normals">
          <float_array id="normals_array" count="276">0.177562743 -0.982566714 0.0550833903 -0.041958116 -0.996751904 0.0687394813 0.107762575 -0.991424382 0.0739251003 -0.0257394556 -0.997959852 0.0584258586 -0.0343591832 -0.996416628 0.0772871822 0.770126522 -0.637747288 0.0135479867 -0.0454240404 0.998958886 -0.00422199117 -0.00229681423 0.999833941 0.0180778038 -0.0410565846 0.998341322 0.0403605998 -0.7449826 -0.324881434 -0.582625926 -0.342915326 0.424388349 0.838035583 -0.311474681 0.391232938 0.865979373 0.0245150086 0.0278407056 0.999311745 0.649785697 0.149716362 0.745227218 -0.040187344 0.0795025155 -0.996024251 -0.1628519 0.156853169 -0.974102855 -0.023822844 0.118006304 -0.992727041 0.950372458 -0.111758061 -0.290348679 0.825341702 -0.115328342 -0.552730024 0.190889597 -0.686593771 0.701534152 0.303503543 0.742728055 0.596858978 0.48765555 -0.0202872362 0.87280041 -0.0536682308 0.987208009 0.150133416 0.0672085509 0.0814210325 -0.99441117 0.128559068 -0.525990427 0.840717912 0.118261553 -0.436496228 0.891899824 0.10590589 -0.336089998 0.935856521 -0.622243345 0.70522058 0.339819193 0.133133411 -0.568083644 0.812130809 0.24404107 -0.208965704 0.946983278 -0.0373890214 -0.345527112 0.937663615 -0.0313450359 -0.313293636 0.94913888 0.206323892 0.147568807 -0.96729207 0.285977691 0.224089175 -0.931665599 0.0666617379 0.014934578 -0.997663856 -0.845030248 0.0232803151 0.534211516 -0.942954957 -0.170178205 0.286138743 -0.380936116 0.244908243 0.891575933 0.01291236 0.999715567 -0.0200512037 0.0320930555 0.998382866 0.0469215326 0.198650151 -0.979755878 -0.0248311143 0.107175164 -0.9942137 -0.00725330319 0.304228246 -0.948203206 -0.0914105028 -0.162477061 0.791116238 0.589691758 0.343328774 0.889483154 0.301571012 0.237474039 0.97083509 0.032943476 0.168989435 0.985350966 0.0229363516 -0.189797252 -0.00915750768 0.981780589 0.359706163 0.205327645 0.910193384 -0.0146201113 0.805887222 0.591888487 0.720053196 0.0324152522 -0.693161368 0.333778352 -0.657837272 -0.675160825 0.0930722356 -0.289321065 0.952696621 0.278017968 -0.633283734 0.722258806 0.11754594 -0.336355329 0.934370399 0.123043887 -0.533064306 -0.837079823 0.154683322 -0.494951785 -0.855041385 -0.0134273581 -0.676653683 -0.736178994 -0.998966336 -0.0079596797 0.0447540246 -0.906751692 -0.241586775 0.34559688 0.634570301 -0.586152732 -0.503731668 0.645179033 -0.580501914 -0.49675104 0.699962676 -0.548269153 -0.457660556 0.303383082 0.439350873 0.84553504 0.0541444533 0.907590508 0.416350603 0.0146401981 0.866685033 0.498640865 0.161669672 0.973137021 0.163912266 -0.185005456 -0.0165759847 -0.982597709 -0.0408171117 -0.130548537 -0.990601361 0.00380806974 0.999820828 0.0185423363 -0.00381025276 0.944694638 0.327929199 0.825805664 0.563370287 0.0256682672 -0.215618432 0.684260428 -0.696632147 -0.693725526 0.546046615 0.469657332 0.591758549 -0.607230783 -0.530181646 0.0021176422 0.00321778841 0.999992609 -0.507643878 -0.139714867 -0.850163162 0.384830922 0.320092976 -0.865705252 -0.360778779 -0.77158767 0.523919046 0.117832348 0.127475694 -0.984817505 -0.998439729 -0.0148281045 0.0538356192 -0.998169005 0.0260453485 -0.0545920655 0.125454292 -0.992091715 0.0039063422 0.00405635685 -0.999989569 -0.00210614828 -0.639112055 0.073586598 0.765585303 -0.926865578 0.17274867 0.333283901 -0.42535919 0.67798233 -0.599507689 -0.69903183 0.488081545 -0.522619307 -0.69903183 0.488081485 -0.522619307 0.302672982 -0.289239407 -0.908146262 0.236324668 0.970805168 -0.041084636 -0.00217765546 -0.168346152 -0.985725522</float_array>
          <technique_common>
            <accessor source="#normals_array" count="92" stride="3">
              <param name="X" type="float" />
              <param name="Y" type="float" />
              <param name="Z" type="float" />
            </accessor>
          </technique_common>
        </source>
        <vertices id="vertices">
          <input semantic="POSITION" source="#positions" />
        </vertices>
        <triangles material="qmat_634f1a590715cf44" count="78">
          <input semantic="VERTEX" source="#vertices" offset="0" />
          <input semantic="NORMAL" source="#normals" offset="1" />
          <p>0 0 1 1 2 2 2 2 3 3 0 0 3 3 4 4 5 5 1 1 4 4 3 3 4 6 1 7 6 8 7 9 8 9 9 9 10 10 8 11 7 12 11 13 9 13 12 13 6 14 9 15 11 16 6 17 5 5 13 18 14 19 15 20 16 21 4 6 6 8 14 22 6 14 11 16 17 23 12 24 18 25 19 26 18 27 8 11 10 10 4 4 14 19 5 5 20 28 18 25 12 24 20 29 9 30 10 31 18 32 9 33 19 34 21 35 22 36 23 37 21 38 24 39 15 20 25 40 26 41 27 42 28 43 21 35 23 37 25 44 29 45 28 43 29 45 25 44 27 46 7 47 30 48 13 49 24 39 27 46 13 49 9 50 13 18 31 51 32 52 33 53 7 54 32 55 34 56 9 57 14 58 22 36 15 59 16 21 30 48 32 52 19 60 16 61 34 62 34 63 30 63 33 63 7 64 9 65 34 66 15 20 13 49 30 48 33 67 31 51 22 68 16 21 15 20 30 48 0 0 3 3 5 5 2 2 1 1 3 3 1 7 0 69 6 8 5 5 6 17 0 0 14 22 6 8 17 70 18 71 20 71 8 71 11 72 12 72 19 72 34 73 11 73 19 73 19 60 8 74 16 61 8 75 20 29 16 21 5 5 20 29 10 31 5 5 14 19 20 29 20 29 14 19 16 21 20 76 12 76 9 76 18 32 10 77 9 33 9 78 8 78 19 78 17 23 11 16 34 79 14 58 17 80 34 81 21 35 15 59 22 36 21 38 29 45 24 39 21 38 28 43 29 45 26 41 23 82 22 83 27 46 24 39 29 45 25 44 28 43 23 37 25 40 23 82 26 41 27 42 26 41 31 51 33 67 9 50 31 51 13 18 27 42 31 51 5 84 10 85 7 47 5 84 7 47 13 49 9 50 6 17 13 18 15 20 24 39 13 49 26 41 22 83 31 51 30 86 7 86 33 86 32 87 9 88 33 67 14 58 34 81 22 36 34 56 32 55 30 89 16 90 7 64 34 66 7 54 16 21 32 52 22 68 34 91 33 67</p>
        </triangles>
      </mesh>
    </geometry>
  </library_geometries>
  <library_visual_scenes>
    <visual_scene id="scene">
      <node id="link1_stl">
        <instance_geometry url="#geometry">
          <bind_material>
            <technique_common>
              <instance_material symbol="qmat_634f1a590715cf44" target="#qmat_634f1a590715cf44" />
            </technique_common>
          </bind_material>
        </instance_geometry>
      </node>
    </visual_scene>
  </library_visual_scenes>
  <scene>
    <instance_visual_scene url="#scene" />
  </scene>
</COLLADA>