<?xml version='1.0' encoding='utf-8'?>
<COLLADA xmlns="http://www.collada.org/2005/11/COLLADASchema" version="1.4.1">
  <asset>
    <created>2026-09-14T00:00:00Z</created>
    <modified>2026-09-14T00:00:00Z</modified>
    <unit name="metre" meter="1" />
    <up_axis>Z_UP</up_axis>
  </asset>
  <library_effects>
    <effect id="qmat_45af129ec809a57d_effect">
      <profile_COMMON>
        <technique sid="common">
          <lambert>
            <emission>
              <color>0 0 0 1</color>
            </emission>
            <diffuse>
              <color>1.0 1.0 1.0 1.0</color>
            </diffuse>
          </lambert>
        </technique>
      </profile_COMMON>
    </effect>
  </library_effects>
  <library_materials>
    <material id="qmat_45af129ec809a57d" name="qmat_45af129ec809a57d">
      <instance_effect url="#qmat_45af129ec809a57d_effect" />
    </material>
  </library_materials>
  <library_geometries>
    <geometry id="geometry" name="link7_stl">
      <mesh>
        <source id="positions">
          <float_array id="positions_array" count="108">0.0176558644 -0.00420893682 0.0150738684 0.0698247701 -0.0248603374 0.00568933785 0.0629609749 -0.0219964813 -0.000441447512 0.0181503296 -0.0190846901 0.0150722442 0.0141740674 -0.00193766435 0.0109600993 0.0144602899 -0.0154800648 0.0106865782 0.0436192602 -0.0230236892 -0.0146587398 0.0636880845 -0.0226946939 -0.00742554246 0.0243725237 -0.016963549 -0.0163191967 -0.0177232623 -0.0159024429 -0.0221365616 -0.0165322237 -0.0715090409 -0.00813929271 -0.0177482832 -0.0763581917 -0.0164936669 -0.0173308291 -0.0570828579 -0.00769277522 -0.0168461204 -0.0435071625 -0.00799279194 -0.0170656778 -0.0295454375 -0.00763617922 -0.0186000001 -0.0183128566 -0.0118376492 -0.000330916519 0.0109115308 0.0263398103 -0.0042496454 0.00813874137 0.0307436306 -0.000875331054 -0.0163738132 0.0307436306 9.9995872e-05 -0.0132652707 0.0242310688 -0.0131160999 0.0124518098 0.00964912307 -0.00871457253 -0.0164970066 6.09167182e-05 -0.00939522125 -0.0160891768 0.0130883465 0.00130651414 0.00421445165 -0.0246293582 -0.0043456885 0.00732178008 -0.0302563701 0.0355905443 -0.0118598212 -0.0123999752 -0.0030040394 -0.0161646251 -0.0298779868 0.000157380549 -0.0131739955 -0.0250451639 -0.0165299568 0.0123601351 -0.00770286517 -0.0139540406 -0.0168988761 -0.00954898912 -0.000555851904 0.0124195656 -0.0256817695 -0.000336607685 0.00302339625 0.00727305189 -0.000527352269 -0.00232285378 -0.00780160446 -0.0177628268 0.0122831194 -0.0235288516 -0.00800922699 0.0124518098 -0.00433783932 -0.00524558593 0.0122265806 0.0132191358</float_array>
          <technique_common>
            <accessor source="#positions_array" count="36" stride="3">
              <param name="X" type="float" />
              <param name="Y" type="float" />
              <param name="Z" type="float" />
            </accessor>
          </technique_common>
        </source>
        <source id="normals">
          <float_array id="normals_array" count="255">0.563168526 0.595935702 0.572452426 0.387423754 0.921896517 -0.00310231256 0.389579177 0.920763016 -0.0205804259 0.401108235 0.013232707 0.915935099 0.179286093 0.00585196493 0.98377955 -0.5478881 0.0220458116 -0.836261094 -0.221688747 0.0150070349 -0.975001991 -0.447762966 0.00859510805 -0.894110978 -0.0336684585 -0.998338997 -0.0467511788 -0.11078608 -0.993167222 0.0366780162 -0.0992007256 -0.995063007 0.00296421023 0.509539485 0.850748062 0.128830373 0.0890419409 -0.975185215 -0.202695087 0.148558721 0.988903582 0.000204582335 0.131787717 0.991259336 -0.00608036667 0.142976061 0.989724159 -0.00197918504 0.572241485 -0.810676575 -0.123867325 0.994634688 -0.00470927777 -0.103342526 0.990546107 -0.0131552732 -0.136547789 -0.999739826 0.0226945225 -0.00228312542 -0.992785454 -0.0330707096 0.11525327 -0.982255757 -0.0598768815 0.177731186 -0.98632592 -0.0153746754 0.164087743 -0.938586891 0.00333437556 0.345026791 -0.905836165 0.0662900433 0.418409377 -0.998265922 0.0300923362 -0.0505928881 0.738329589 0.0268486161 0.673905432 0.689784408 0.145513803 0.709241331 0.619599104 0.0638564676 0.782316625 -0.698893964 0.0312153175 -0.71454376 -0.934941113 -0.00749934232 0.354723722 -0.985283077 -0.105180651 -0.134737819 -0.974861383 -0.0675188377 0.212335736 -0.905827165 0.3380602 0.255328238 -0.894539893 -0.12313927 0.429691881 0.353927791 0.92176044 0.158406973 0.378530234 0.92509985 -0.0300850272 0.355938077 0.922118306 0.151677147 -0.337532401 0.00174399221 0.941312313 -0.340116084 0.0214825552 0.940138042 -0.359163672 0.0750933513 0.930248618 0.274784982 0.885070741 0.375689983 0.319322467 0.00297395606 -0.947641432 0.323303998 0.0534650385 -0.944783568 0.319758475 0.00803337805 -0.947465003 0.154194251 0.988038123 0.00218602316 -0.339025289 -9.17783327e-05 0.940777242 0.329962909 0.192124501 -0.924236238 -0.106069081 -0.994333565 0.00708085857 0.0285781957 -0.999534488 -0.0106839435 -0.083228007 -0.996514022 -0.00573196635 -0.826574028 0.0579981282 0.559831798 -0.622110903 -0.0101298317 0.782863557 -0.806339741 -0.0600786544 0.588393331 -0.751671135 -0.0323259011 0.658745468 0.957280815 0.117730618 -0.264107764 0.999914289 0.00928896479 -0.00922389328 0.999578118 0.0225549135 0.0182985328 -0.996977389 0.00243626535 0.0776543021 0.991478205 0.124012172 -0.0398988277 0.724265516 0.0764970258 -0.685264647 -0.367708296 0.0980943292 0.92475301 0.994769096 0.0421203524 0.0930609778 0.992364466 -0.0297918785 -0.119688012 0.994189262 -0.0521620214 -0.0941636488 0.999661326 0.0246668365 -0.0082963733 -0.705834925 0.0490570627 -0.706675589 -0.938945115 -0.0292143114 -0.342824489 -0.206224158 0.929800451 0.304865003 0.0245424751 0.999658644 0.00896088965 0.0543448254 0.9984231 0.0140705369 -0.299472153 0.932558477 0.201621249 0.999850094 0.0158906337 -0.00687257759 -0.0883019418 -0.995739639 0.0265584104 0.998380184 -0.0210161638 0.0528703481 0.661488831 -0.705654979 -0.253936112 0.153906181 0.988083422 0.00200949237 0.0136292903 0.999901414 0.00337588415 -0.0087418342 0.999951839 -0.00446167449 -0.364622086 0.14856036 0.919228256 -0.349702179 0.0953090489 -0.932000279 -0.241849124 0.0251788441 -0.969987154 -0.45658195 0.167380229 -0.873794436 -0.123617433 -0.049131792 -0.991112888 -0.00845578406 0.999955416 -0.00420739036</float_array>
          <technique_common>
            <accessor source="#normals_array" count="85" stride="3">
              <param name="X" type="float" />
              <param name="Y" type="float" />
              <param name="Z" type="float" />
            </accessor>
          </technique_common>
        </source>
        <vertices id="vertices">
          <input semantic="POSITION" source="#positions" />
        </vertices>
        <triangles material="qmat_45af129ec809a57d" count="68">
          <input semantic="VERTEX" source="#vertices" offset="0" />
          <input semantic="NORMAL" source="#normals" offset="1" />
          <p>0 0 1 1 2 2 0 0 3 3 1 4 4 5 2 6 5 7 1 8 3 9 6 10 0 0 2 2 4 11 1 8 6 10 7 12 5 13 2 14 8 15 9 16 10 17 11 18 12 19 11 20 10 21 13 22 11 20 12 19 14 23 11 20 13 22 15 24 9 25 11 20 16 26 17 27 4 11 17 27 0 0 4 11 0 0 18 28 3 3 4 5 5 7 19 29 20 30 21 31 22 32 17 33 22 32 18 34 23 35 7 36 24 37 23 38 8 39 25 40 23 35 25 41 7 36 24 42 7 43 26 44 19 45 5 13 8 15 23 38 27 46 8 39 7 43 6 47 26 44 18 48 21 49 26 50 28 51 29 52 21 53 21 49 9 16 26 50 15 24 11 20 14 23 30 54 24 54 26 54 30 55 31 56 32 57 28 51 15 24 29 52 33 58 9 25 28 51 30 55 32 57 23 59 30 55 23 59 24 60 2 2 1 1 7 36 25 41 2 2 7 36 2 61 25 40 8 39 9 16 12 62 10 17 9 16 13 63 12 62 9 16 14 64 13 63 32 57 31 56 19 65 16 66 4 5 19 29 20 30 34 67 21 31 35 68 20 30 22 32 17 33 35 68 22 32 20 69 35 68 34 70 35 68 16 71 34 70 17 33 16 71 35 68 0 0 17 27 18 28 31 56 16 72 19 65 3 9 18 48 6 10 18 48 22 73 21 49 6 10 18 48 26 50 29 52 15 24 14 23 15 24 28 51 9 25 27 74 32 57 19 65 23 59 32 57 27 74 21 49 29 75 9 16 19 45 8 15 27 76 34 70 16 71 30 77 28 78 34 70 30 77 34 79 28 51 21 53 9 16 29 75 14 64 9 80 30 81 26 82 30 55 16 72 31 56 33 83 30 81 9 80 33 84 28 78 30 77</p>
        </triangles>
      </mesh>
    </geometry>
  </library_geometries>
  <library_visual_scenes>
    <visual_scene id="scene">
      <node id="link7_stl">
        <instance_geometry url="#geometry">
          <bind_material>
            <technique_common>
              <instance_material symbol="qmat_45af129ec809a57d" target="#qmat_45af129ec809a57d" />
            </technique_common>
          </bind_material>
        </instance_geometry>
      </node>
    </visual_scene>
  </library_visual_scenes>
  <scene>
    <instance_visual_scene url="#scene" />
  </scene>
</COLLADA>