<?xml version='1.0' encoding='utf-8'?>
<COLLADA xmlns="http://www.collada.org/2005/11/COLLADASchema" version="1.4.1">
  <asset>
    <created>2026-09-14T00:00:00Z</created>
    <modified>2026-09-14T00:00:00Z</modified>
    <unit name="metre" meter="1" />
    <up_axis>Z_UP</up_axis>
  </asset>
  <library_effects>
    <effect id="qmat_d857164d36b11abb_effect">
      <profile_COMMON>
        <technique sid="common">
          <lambert>
            <emission>
              <color sid="emission">0 0 0 1</color>
            </emission>
            <diffuse>
              <color sid="diffuse">0.85 0.85 0.85 1</color>
            </diffuse>
            <reflectivity>
              <float sid="specular">0.5</float>
            </reflectivity>
          </lambert>
        </technique>
      </profile_COMMON>
    </effect>
  </library_effects>
  <library_materials>
    <material id="qmat_d857164d36b11abb" name="qmat_d857164d36b11abb">
      <instance_effect url="#qmat_d857164d36b11abb_effect" />
    </material>
  </library_materials>
  <library_geometries>
    <geometry id="geometry" name="RL_hip_dae">
      <mesh>
        <source id="positions">
          <float_array id="positions_array" count="420">0.0540403053 0.0208668374 0.00792136602 0.0455737859 0.0209294092 0.0292695481 0.0505276956 0.0140510509 0.021451721 0.0387646854 0.0140125416 0.0379605442 0.0290398058 0.0208456721 0.0463244282 -0.0497998893 0.0213833917 -0.0214077979 0.0263898671 0.0183272827 0.0563324019 0.0121833747 0.0136112021 0.0631209612 0.0420594439 0.00587547338 0.0554478355 0.0245239716 0.0142906783 0.0484256372 0.0342457034 0.014538628 0.0518946387 0.0107266074 0.0211357977 0.0528268814 0.0899999663 0.050767377 0.0175854564 0.0899754465 0.0387537256 0.0371269286 0.0899999663 0.0512558706 -0.0150589831 0.0899695456 0.0201799832 0.0511357673 0.0658045933 0.0533806682 0.00637432886 0.0655491725 0.0501461513 -0.0188123118 0.0654907897 0.0258966535 0.0459183343 0.0657919273 0.0426787995 0.0317019783 0.0899972767 -0.00352643523 0.0535219312 0.0899999663 -0.0521356538 0.0118455011 0.0651032403 0.0143050002 -0.0473534539 0.0649452507 0.0142708635 0.0480590425 0.0495114811 0.0231615975 0.0482761934 0.0535959937 0.0140608596 -0.0111738173 0.0683945939 0.00851106644 0.0530328788 0.0119318357 -0.0146867763 0.0624397658 0.0425826274 -0.0108755352 0.0543040894 0.038489569 -0.0141472807 0.0371454172 0.024309231 -0.0141726192 0.0478021204 0.0335771739 -0.0344084278 0.0420540385 0.0350723341 -0.0203161873 0.0529069193 0.0331945606 -0.0148302242 0.0521816276 0.0107273925 -0.0112158414 0.0526313707 0.00097575807 -0.0344242416 0.0541178212 0.0472542681 -0.0140452404 0.0264894348 0.049838841 -0.0344237834 0.0201413836 0.0643206015 -0.0140952617 0.0458855741 0.0553949066 -0.0245183147 0.046710737 0.0396895595 -0.0345955379 -0.036484573 0.0536447428 -0.0345025212 -0.00849618297 0.0520321913 -0.0140644293 0.0142254625 0.0687201992 -0.0215683021 0.0490457602 0.0899999663 -0.0263241194 0.0465477183 0.0655092299 -0.0201459192 0.0474768206 0.0649101064 -0.0142050134 -0.0481364504 0.0579697788 -0.0383440442 0.0358149037 0.0690293983 -0.0410233773 0.0341849551 0.0899999663 -0.0500514992 -0.0206478499 0.0575874299 -0.0620842725 0.0106038032 0.0576139465 -0.0625748858 -0.0105586359 0.0683958307 -0.0623624399 -0.0102731241 0.0577158257 -0.0514391437 0.00985852815 0.0683782101 -0.0618042089 0.0107243415 0.058055751 -0.0471837483 0.0217814632 0.0654091761 -0.0451678485 0.0261381436 0.0652765706 -0.0502172485 -0.0108315926 0.0899550542 -0.0424231514 0.0328108519 0.0691080838 -0.0485069938 0.0219664369 0.0688644275 -0.0528970659 0.00901923981 0.049155958 0.0212071538 -0.0229484495 0.0442568846 0.0140500609 -0.0319797099 0.0425813943 0.0108756591 -0.0543043762 0.0420050323 -0.00583826844 -0.0554593354 0.0124458978 -0.0137476716 -0.0631209612 0.0299817696 0.0211361721 -0.0453563146 0.0356868617 0.0204858407 -0.0526030697 0.0118133193 0.0146799022 -0.0628213137 0.032054659 0.0148050375 -0.0525926724 0.0106114652 0.0139957033 -0.0525449514 0.0899889246 0.0373644754 -0.0400279984 0.0899999663 0.00900965184 -0.0531046502 0.0690624341 0.0169453137 -0.0506387278 0.0690607652 0.0413588248 -0.033901833 0.0655661449 0.0275117327 -0.0452963747 0.0684808418 -0.00871096645 -0.0529399253 0.0899889469 -0.0227144621 -0.0492902175 0.0536814518 0.0241961088 -0.0471648723 0.0157534163 -0.0342634022 -0.0522549413 0.0360085331 -0.0141193988 -0.0399408787 0.0464950502 -0.0140401088 -0.027077999 0.0342506729 -0.0144986417 -0.0518750474 0.0359039269 -0.0199421961 -0.052230522 0.0227097552 -0.014228181 -0.0486329906 0.0684691295 -0.026016539 -0.0462813377 0.0584810935 -0.0289541353 -0.0431148149 0.0899868533 -0.0380782932 -0.0377615541 0.0685777143 -0.052647125 -0.00943034049 0.0687464327 -0.0448681861 -0.0295283925 0.0652824715 -0.0370299779 -0.0360867344 0.0579768606 -0.0386363529 -0.0357921459 0.0579285584 -0.0474231392 -0.0222505387 0.0578065328 -0.0512553714 -0.00964671932 0.0104786269 -0.00573440734 0.0595474429 -0.0187105965 -0.00818513241 0.0501798689 -0.0423657037 0.0212347619 0.0329570957 -0.0198602006 0.0211091153 0.0505425557 0.00880924426 0.00546244858 0.0537530743 0.00975811854 0.00321102096 0.0602955036 -0.0185870044 0.00565561745 0.0508311726 -0.0373237096 0.00531795574 0.0386991575 -0.0527241416 0.0212308802 0.00763744069 -0.0269229673 0.00339353993 0.0551162884 -0.0465548262 0.00324594695 0.0386958234 -0.0337109193 -0.00566167012 0.0503374115 -0.0489601195 0.00528326025 0.0220821146 -0.0587954111 0.0030688371 0.0172294565 -0.0599049889 -0.00554448832 -0.000950915855 -0.0529548116 -0.00572775025 0.0299965199 -0.0352188908 -0.00767522864 0.0398627743 -0.0482443944 -0.00780623127 0.023561636 -0.0430828184 -0.0343305133 0.0312602147 -0.0507141314 -0.0344390236 0.0146373818 -0.0214483403 -0.0344960019 0.048642423 -0.0529656485 -0.00795001443 -0.00342650153 -0.0516373143 -0.0343937501 -0.0122347651 0.0106049394 -0.00970109645 -0.0525210127 -0.0149150612 -0.00589913968 -0.0590185151 0.0103010358 -0.00569032645 -0.05962497 -0.0128104389 0.00324443961 -0.0598064847 -0.0297354702 0.0205963515 -0.0450549014 -0.00282258424 0.0210340396 -0.0545192733 -0.0217084605 0.00537544908 -0.0497320816 0.0104109161 0.00492321933 -0.0546114706 -0.0161521118 -0.0343896449 -0.0511799417 0.0259039961 0.01415696 -0.0476040319 -0.042803295 0.00547162537 -0.0322525017 -0.0539432727 0.00527601643 -0.00794043019 -0.0499761701 0.00326401182 -0.0347328596 -0.0333218463 0.00323867123 -0.0506970361 -0.0596754402 0.00326086301 -0.00955962297 -0.0408539474 -0.00550676463 -0.0451695584 -0.0535105392 -0.00562434876 -0.0279628579 -0.0192937572 -0.00798970927 -0.0500875004 -0.0366242081 -0.00783131551 -0.0388420299 -0.0401415154 -0.0344956554 -0.0341355056 -0.0449911766 -0.00786684081 -0.0280910786 0.0530945174 -0.0141126113 -0.00895909313 -0.0140578337 -0.00579591002 0.0592497438</float_array>
          <technique_common>
            <accessor source="#positions_array" count="140" stride="3">
              <param name="X" type="float" />
              <param name="Y" type="float" />
              <param name="Z" type="float" />
            </accessor>
          </technique_common>
        </source>
        <source id="normals">
          <float_array id="normals_array" count="792">0.981864512 -0.157139137 0.106063321 0.826665044 0.0366728641 0.561497986 0.922135174 0.0973503217 0.374419093 0.716503203 0.0763067901 0.693397701 0.00603733119 0.999981344 0.000911404903 0.00343670882 0.999991 0.00249045552 -0.00282880664 0.999976397 -0.00626584841 0.00378978625 0.999984026 0.00419427454 0.30024001 0.313838631 0.900755942 0.274690121 0.0759048313 0.958532095 0.186497465 0.111756951 0.976078391 0.428050995 -0.00519631756 0.903739631 0.540708601 -0.0326624028 0.840575635 0.0212670043 0.992241979 -0.122489057 -0.0859820843 0.994146526 -0.0654195249 0.140024871 0.879277945 -0.455261797 -0.438508242 0.132028803 -0.888976336 -0.34640497 0.179030806 -0.920842826 -0.454630196 0.0946835056 -0.885633349 0.245827004 0.798787892 0.549096525 0.00891298149 0.999952555 -0.00393194053 -0.0110296495 0.999918461 -0.00643338636 0.999997795 -0.00209078752 -3.13035998e-05 0.999999881 -0.000198188005 0.000422140234 1 -5.83198125e-05 8.46373732e-05 0.99999994 0.000330350565 0.000126870189 -0.999720752 0.0223702621 0.00761431409 -0.661591589 0.704930723 -0.255674124 -0.999364674 0.0356158614 0.00130689098 -0.999567151 0.0272749737 0.0110251009 -0.0479162373 0.8035748 0.593271971 0.0171114057 0.952586234 0.303787142 0.000972506125 0.993475497 0.114041544 -0.0184741542 0.72857374 0.684718251 -0.0298390556 0.480636925 0.876411855 0.999999046 0.000917793892 -0.00100572919 0.999999762 -0.000458505034 0.000488404999 -0.999635696 0.0244371872 -0.011456565 -0.998913527 0.0465737209 -0.00163739675 -0.11440035 -0.17470637 -0.977952063 -0.117281929 -0.179738939 -0.976697922 -0.148500726 -0.140319601 -0.978906512 0.000376750337 0.999961793 -0.00873053074 -0.0175327323 0.999845862 0.000904998917 -0.029606102 0.380034745 0.92449826 0.00878095254 0.137113616 0.990516424 -0.0132495388 -0.0983055383 0.995068073 0.965841293 0.19806233 -0.167098567 0.266201198 -0.0927649662 0.95944339 0.188184962 -0.198019505 0.961963952 0.709539831 -0.0013134249 0.704664111 0.426022291 -0.0483546555 0.903419495 0.60551405 -0.0515783504 0.794161439 0.257346094 -0.338665605 0.905029595 -0.240102291 -0.755477667 -0.60959363 -0.159081593 -0.960390091 -0.228787825 -0.105477527 -0.99012965 0.0922916606 0.0330352709 -0.0137820393 0.999359131 0.854980648 -0.0361749344 0.517396808 0.926733792 -0.0614339709 0.370662123 -0.111314371 -0.809089661 -0.577046812 0.00271825073 -0.999994159 -0.0020817793 -0.142364323 0.42740953 -0.892778516 -0.360825181 -0.242564812 -0.900537312 0.00234093703 -0.999993861 0.00261355098 0.000148930834 -0.999996364 -0.00268461602 0.000908855291 -0.99999547 0.00287010032 0.978056431 -0.0162265915 0.207707345 0.0053321165 -0.409165859 0.912444472 0.00836659875 -0.494059682 0.869387746 -0.709801197 0.0845159292 -0.699313402 -0.980932415 -0.194258794 -0.00592355523 -0.67945981 0.257033497 0.687217712 -0.0616284311 -0.715581834 0.695804954 -0.0547638908 -0.752785563 0.655983806 -0.267330766 0.6574651 -0.704467058 0.0125523023 -0.532272458 0.846480012 0.987207651 -0.0286154188 -0.156850785 1 -8.06336539e-05 -0.000227593933 -0.000257845037 -0.999997199 -0.00235217181 -0.00622662622 -0.999979556 0.0014429118 0.999999821 -0.000488078804 0.000363179366 0.0236630123 -0.999393046 0.0255667567 0.0190808121 -0.999548852 0.0231962167 0.0210399851 -0.999485493 0.0242098123 0.0364967026 0.120411642 0.992052913 -0.0129588163 0.0699897036 0.997463524 0.0443417095 0.128371507 0.990734339 -0.014864374 0.916778862 -0.399118543 -0.669247866 0.646066904 -0.36702165 -0.381322533 0.914716899 -0.133739009 -0.71457541 0.687504649 0.129303068 -0.999904215 0.01362452 -0.00244149216 -0.99987191 0.0156132299 -0.00352672464 -0.999927402 0.0119542181 -0.00153003389 0.0139820827 -0.790132701 0.612776279 -0.0540995151 -0.903573394 0.425003946 0.045130875 -0.979874909 0.194443733 -0.114127085 -0.892138422 0.437108696 -0.0206022449 -0.979728878 0.199265957 0.906170607 0.0497879684 -0.419971436 0.773490787 0.167707637 -0.611216903 0.186281279 0.200731665 -0.961772382 0.179435566 -0.108599856 -0.977757096 0.280035168 -0.0755601004 -0.957011461 0.00186675263 0.999983072 0.00551136304 0.00130470365 0.999981284 -0.0059763086 -0.352824479 0.227250844 0.907673895 -0.108629152 0.973122001 0.203059867 -0.230823293 0.76940006 0.595604002 -0.0374882743 0.997127175 0.0658185035 0.036680378 0.965678453 -0.257137477 0.00179586606 0.681723535 -0.731607676 0.0180754364 0.160977989 -0.986792445 0.0248053018 0.30634135 -0.951598465 -0.32058835 0.737926245 -0.593875408 -0.507791638 0.450239271 -0.734460533 0.0358538665 -0.148900419 -0.988201976 0.99999994 -0.000178088958 0.000197725836 0.99999994 -0.000144421239 -0.000307609385 0.999999285 0.00079712976 -0.000886258262 -0.00885559618 0.999824762 0.016491998 -0.00664910255 0.999949276 0.00756592723 0.050783284 0.438591093 -0.897250772 0.26540944 -0.0135432659 -0.964040697 0.652529716 -0.00966036972 -0.757701576 0.739327252 -0.0421630889 -0.672024965 -0.00609605853 -0.999978304 0.00249981275 -0.00132254697 -0.999721825 0.0235494245 -0.00206464529 -0.999950469 0.00973630883 -0.22670351 -0.782616794 0.579755485 -0.253385574 -0.045100227 0.966313481 0.873407066 -0.0222334974 -0.486483097 0.216956615 -0.554017007 -0.803738117 0.213857085 -0.347333848 -0.913030326 -0.0183675848 -0.527654707 -0.84926039 -0.0406890623 -0.665256858 -0.745505035 0.999997258 -0.001496932 -0.00181375572 0.00114537741 -0.399382472 -0.91678369 -0.0181507785 -0.705745637 -0.70823276 0.0222907998 -0.938888729 -0.343498379 -0.0125508429 -0.977244496 -0.211744294 -0.052905459 -0.825335503 -0.562158585 -0.719802916 0.487650841 0.4940449 -0.261780918 0.447561681 0.855078518 -0.136454225 0.741128325 0.657350004 -0.284009725 0.860062361 0.423829198 0.0303203482 0.0797518641 -0.996353507 0.0275876969 0.0827509016 -0.996188343 0.0276823193 0.0826470777 -0.996194363 -0.115527563 0.984226584 0.133982912 -0.999839067 0.0173710193 -0.00448596571 -0.949519157 0.116713397 0.291189492 -0.781426191 -0.0688190758 0.620191097 -0.978008807 -0.099544324 0.183274969 -0.987911046 -0.136812299 0.0728982463 -0.107862957 -0.826602459 0.552353084 -0.271649003 -0.620209217 0.735899031 0.0656147376 -0.297311813 0.952523172 0.00246732077 0.999994099 0.00239656959 -0.000178356015 0.99999243 0.00388621213 -0.96468246 0.152648076 0.214677334 -0.52594924 0.201235205 0.826366603 -0.074363254 0.0678901821 0.994917572 -0.357793033 0.0237737596 0.933498263 -0.0741900951 0.615067363 0.784976423 -0.22921598 0.603155494 0.76397872 -0.683128953 0.0143671324 0.730156481 -0.0106001031 0.999935091 0.00418336224 -0.366140246 0.53797704 0.759290457 -0.206353873 0.954642892 0.214651048 -0.635741472 0.545178652 0.546454906 -0.492791444 -0.571093559 0.656512558 -0.793121815 0.0501030125 0.606998801 -0.923390985 0.0187384933 0.383403182 -0.849684894 0.481796175 0.214261651 -0.823775411 -0.566915214 -0.00112523395 -0.722155869 -0.556143701 0.411333233 -0.204785779 -0.956488252 0.207829356 -0.278378546 -0.954941094 0.102921881 -0.789740086 -0.0404701717 0.612105191 -0.910609424 0.0133520775 0.413052231 -0.972870052 -0.0313112773 0.229223594 -0.659787416 -0.00785338134 0.751411259 -0.434091449 -0.0360155143 0.900148571 -0.326407433 -0.944856942 -0.0265242029 -0.00010768287 -0.999995887 0.00287129544 -0.00215919921 -0.999997675 0.000189568673 -0.99806565 0.0145381698 -0.060445115 -0.973486781 -0.0274623353 -0.227088884 -0.295794159 -0.515503407 -0.804215133 -0.717847645 -0.680712879 0.146029681 -0.0201060716 -0.89533937 -0.444930553 -0.218451872 -0.569446087 -0.792470813 0.0799952149 -0.361644864 -0.928877711 -0.986397147 0.0440044366 -0.158380151 -0.94355613 -0.0733170882 -0.322995961 -0.132742509 0.562253594 -0.816241622 -0.577577829 0.0177465025 -0.816142738 -0.0704245269 0.0306623727 -0.997045755 -0.401388675 -0.00761802634 -0.91587615 0.0327514634 0.0326188393 -0.99893111 -0.12467511 0.952003121 -0.27954644 0.138306186 0.577260494 -0.804761946 -0.000974405441 -0.999946415 -0.0103075989 0.00308814133 -0.999663889 -0.0257403925 0.398689628 0.0758175477 -0.913946569 0.272965819 0.261297107 -0.925858259 -0.993004858 0.0546695441 -0.104654901 -0.00444868021 0.999847949 -0.0168607514 -0.0397409946 0.996967852 -0.0669011921 -0.786499143 -0.00223616697 -0.617587328 -0.307278037 0.95070827 -0.041641552 -0.226494536 0.958144069 -0.175100371 -0.695019484 0.549093306 -0.464159906 -0.448312789 0.545225859 -0.708339155 -0.987267792 0.0366305076 0.154791892 -0.913989007 0.0272898879 -0.404820204 -0.992197275 0.0279692095 -0.121500053 -0.8462888 0.51009357 -0.153622255 -0.561157286 -0.541573226 -0.625940084 -0.752251267 -0.563955069 -0.340694398 -0.146901056 -0.946555316 -0.287146419 -0.668672085 -0.0304937828 -0.742931902 -0.303995162 -0.0192900412 -0.95247823 -0.754422128 -0.0538751073 -0.654174805 -0.253562421 -0.954231501 -0.15858233 -0.209120676 -0.95443058 -0.212910265 -0.00121197465 -0.999998391 0.00133186555 -0.876368463 0.00041574784 -0.481641144 -0.345541388 -0.00228860532 -0.938400745 0.133153349 0.330278605 0.934444308 -0.207985774 -0.883965433 -0.418744564 0.00165309291 -0.99999547 0.00251106801 0.00213763956 -0.999993801 0.00280406396 0.987720251 0.0231455136 -0.154508829 0.9999547 -0.00763814012 0.00567948911 0.0256392621 -0.999317586 0.0265890341 0.0974591076 0.181986958 0.978459239 0.999821723 -0.0188334472 0.00133974815 0.999586344 -0.0285921972 -0.00309595792 0.998923779 -0.0451483652 -0.0106239393 0.998206139 -0.0576112606 -0.0162929073 -0.107027583 -0.938595533 0.327999353 0.26021409 0.346247256 -0.901333153 0.553510487 0.00652415492 -0.83281666 -0.0243638102 0.996737838 0.0769418553 -0.0122590922 -0.479051739 0.877701044 0.275799811 0.0876092836 -0.957214236 -0.144440293 -0.177986369 0.973374486 -0.157047167 -0.14661783 0.976647019 -0.00524582854 -0.999985874 0.000882760622 -0.034140788 -0.709223211 -0.704156816 -0.0870609283 -0.911064804 -0.402965695 0.0246813577 0.0859384984 -0.995994687 -0.116909757 -0.949875832 -0.289944798 -0.147798955 -0.511144578 0.846691608 -0.00196591648 -0.999998033 -0.00024263066 -0.963628292 0.13162744 0.232582718 0.194072783 0.776575327 -0.599388421 0.334761232 0.0705854446 0.939655602 -0.266754687 0.955627143 0.124974631 -0.00200705021 -0.999996901 0.00145987573 -0.992463052 0.0476543792 -0.112899013</float_array>
          <technique_common>
            <accessor source="#normals_array" count="264" stride="3">
              <param name="X" type="float" />
              <param name="Y" type="float" />
              <param name="Z" type="float" />
            </accessor>
          </technique_common>
        </source>
        <vertices id="vertices">
          <input semantic="POSITION" source="#positions" />
        </vertices>
        <triangles material="qmat_d857164d36b11abb" count="276">
          <input semantic="VERTEX" source="#vertices" offset="0" />
          <input semantic="NORMAL" source="#normals" offset="1" />
          <p>0 0 1 1 2 2 1 1 3 3 2 2 4 4 1 5 5 6 1 5 0 7 5 6 6 8 7 9 8 10 9 11 3 3 4 12 10 13 3 14 9 15 6 16 10 17 7 18 7 19 10 19 11 19 4 4 5 6 11 20 10 13 2 21 3 14 12 22 13 23 14 24 13 23 15 25 14 24 16 26 17 27 18 28 19 29 16 26 18 28 19 30 12 31 16 32 13 33 19 30 18 34 15 25 20 35 21 36 14 24 15 25 21 36 18 28 22 37 23 38 18 39 23 40 24 41 2 21 23 42 25 43 15 44 26 45 20 46 0 0 2 2 25 47 7 9 27 48 28 49 29 50 30 51 31 52 28 49 27 48 32 53 33 54 34 55 30 56 30 51 35 57 31 52 36 58 31 52 37 59 38 60 30 56 29 61 29 50 31 52 36 58 33 54 39 62 32 63 8 10 28 49 26 45 37 64 40 65 41 66 36 58 37 59 42 67 20 46 43 68 44 69 45 70 38 71 46 72 43 68 47 73 48 74 39 62 45 70 47 75 39 76 47 73 43 68 42 67 37 59 41 77 14 24 21 36 49 78 38 60 36 79 42 80 20 35 44 81 21 36 33 54 45 70 39 62 50 82 51 83 52 84 53 85 50 86 54 87 55 88 56 89 53 90 45 70 57 91 56 89 53 92 51 93 50 94 58 95 59 96 21 97 47 73 55 98 59 96 47 75 56 89 55 88 48 74 47 73 59 96 59 96 60 99 21 97 61 100 25 47 62 101 63 102 64 103 65 104 5 6 61 105 66 106 67 107 68 108 69 109 70 110 69 109 68 108 12 31 14 111 16 32 71 112 72 113 73 114 17 27 74 115 75 116 16 32 14 111 17 27 71 112 74 115 17 27 74 115 71 112 75 116 75 116 71 112 73 114 73 114 72 113 76 117 72 118 14 24 77 119 71 120 14 24 72 118 75 116 73 114 63 102 25 43 22 121 62 122 63 102 73 114 76 117 78 123 75 116 63 102 79 124 80 125 40 126 81 127 80 128 46 129 82 130 83 131 46 72 81 132 41 77 40 126 80 128 84 133 82 130 83 134 85 135 86 136 64 103 85 135 83 134 76 117 85 135 64 103 77 119 49 78 87 137 76 117 77 138 85 135 77 138 87 139 85 135 49 140 88 141 89 142 90 143 86 144 91 145 45 70 90 143 57 91 57 91 90 143 92 146 93 147 88 148 51 149 53 90 57 91 93 150 53 92 93 151 51 93 7 152 94 153 27 154 94 153 34 155 27 154 94 156 95 157 34 158 96 159 97 160 5 6 7 152 98 161 99 162 11 163 97 164 98 165 97 164 100 166 98 165 97 164 101 167 100 166 96 159 5 6 102 168 103 169 101 170 104 171 103 169 104 171 105 172 96 173 106 174 101 167 107 175 108 176 109 177 95 157 105 172 110 178 109 177 111 179 110 178 112 180 111 181 113 182 110 183 112 180 114 184 111 179 108 176 115 185 113 186 116 187 40 65 115 188 116 189 113 182 117 190 65 191 82 130 117 192 118 193 119 194 68 195 65 191 119 196 120 197 119 194 118 193 121 198 122 199 123 200 122 199 124 201 123 200 123 202 124 203 120 197 40 65 125 204 79 205 122 199 126 206 70 207 124 208 68 195 119 196 5 6 122 209 121 210 121 198 123 200 127 211 128 212 127 213 129 214 129 214 127 213 130 215 102 216 5 217 128 218 5 217 127 211 128 218 107 175 128 212 131 219 131 219 108 176 107 175 129 214 132 220 133 221 131 219 133 221 108 176 115 185 108 176 133 221 134 222 132 220 118 193 135 223 125 224 136 225 137 226 133 221 135 227 135 227 132 220 134 222 116 187 136 228 40 65 137 229 136 225 116 189 115 188 137 229 116 189 134 230 125 224 135 223 5 6 0 7 61 105 24 41 23 40 10 17 24 231 6 8 8 10 6 16 24 41 10 17 1 1 4 12 3 3 10 13 23 42 2 21 19 30 13 33 12 31 13 33 18 34 15 44 15 44 18 34 26 45 25 43 23 42 22 121 18 34 24 231 8 10 18 34 8 10 26 45 20 46 26 45 43 68 27 232 33 54 32 63 30 51 34 158 35 57 31 233 35 234 40 65 38 60 33 54 30 56 37 64 31 233 40 65 38 60 29 61 36 79 8 10 7 9 28 49 39 76 28 49 32 53 44 69 43 68 48 74 47 75 45 70 56 89 138 235 42 67 41 77 43 68 26 45 28 49 45 70 33 54 38 60 43 68 28 49 39 76 44 69 48 74 58 95 21 36 44 81 58 236 48 74 59 96 58 95 54 237 50 82 52 84 53 90 56 89 57 91 60 238 53 85 54 87 52 239 88 240 54 241 88 240 60 242 54 241 59 96 55 98 53 243 59 96 53 243 60 99 21 97 60 99 88 141 49 140 21 97 88 141 67 244 78 123 63 102 66 245 61 100 62 101 126 246 62 122 22 121 78 247 67 107 69 109 63 102 76 117 64 103 66 245 62 101 126 206 126 246 22 121 69 109 68 248 63 102 65 104 68 248 67 244 63 102 70 110 126 246 69 109 122 199 66 245 126 206 17 27 14 111 71 112 18 28 17 27 22 37 17 27 75 116 22 37 61 100 0 0 25 47 75 249 69 109 22 250 75 249 78 247 69 109 81 132 138 235 41 77 84 133 117 190 82 130 82 130 65 191 83 131 46 129 80 128 82 130 65 104 64 103 83 134 80 125 81 132 40 126 84 133 80 125 79 124 76 117 72 113 77 138 38 60 42 80 138 251 86 136 85 135 91 252 91 252 85 135 89 142 46 72 83 131 86 144 46 129 138 251 81 127 77 119 14 24 49 78 46 72 86 144 90 143 45 70 46 72 90 143 89 142 85 135 87 139 46 129 38 60 138 251 89 142 87 139 49 140 92 146 90 143 91 145 89 142 92 253 91 252 51 149 88 148 52 254 93 150 57 91 92 146 88 141 92 253 89 142 88 141 93 255 92 253 33 54 27 232 34 55 94 153 99 162 139 256 94 156 139 256 95 157 35 234 114 257 40 65 34 158 95 157 35 57 7 152 11 258 98 161 7 152 99 162 94 153 103 169 98 165 100 166 99 162 103 169 139 256 103 169 99 162 98 165 5 6 97 160 11 20 95 157 139 256 105 172 139 256 103 169 105 172 11 259 10 13 9 15 11 260 9 11 4 12 35 57 95 157 114 184 103 169 100 166 101 170 104 171 101 170 106 261 96 173 102 216 106 174 107 175 104 171 106 261 102 216 128 218 106 174 107 175 106 261 128 212 104 171 107 175 109 177 105 172 104 171 109 177 97 164 96 173 101 167 114 257 112 262 40 65 114 184 95 157 110 183 110 178 105 172 109 177 40 65 112 262 113 186 112 180 110 183 111 181 111 179 109 177 108 176 113 182 111 181 115 188 79 124 117 190 84 133 117 190 119 196 65 191 117 192 134 222 118 193 125 224 134 230 117 190 125 224 117 190 79 124 5 6 66 106 122 209 124 201 122 199 70 207 70 263 68 195 124 208 120 197 124 203 119 194 127 213 123 202 130 215 130 215 123 202 120 197 130 215 120 197 118 193 5 217 121 198 127 211 131 219 128 212 129 214 131 219 129 214 133 221 132 220 130 215 118 193 135 227 133 221 132 220 129 214 130 215 132 220 137 229 135 223 136 225 137 226 115 185 133 221 40 65 136 228 125 204</p>
        </triangles>
      </mesh>
    </geometry>
  </library_geometries>
  <library_visual_scenes>
    <visual_scene id="scene">
      <node id="RL_hip_dae">
        <instance_geometry url="#geometry">
          <bind_material>
            <technique_common>
              <instance_material symbol="qmat_d857164d36b11abb" target="#qmat_d857164d36b11abb" />
            </technique_common>
          </bind_material>
        </instance_geometry>
      </node>
    </visual_scene>
  </library_visual_scenes>
  <scene>
    <instance_visual_scene url="#scene" />
  </scene>
</COLLADA>