<?xml version='1.0' encoding='utf-8'?>
<COLLADA xmlns="http://www.collada.org/2005/11/COLLADASchema" version="1.4.1">
  <asset>
    <created>2026-09-14T00:00:00Z</created>
    <modified>2026-09-14T00:00:00Z</modified>
    <unit name="metre" meter="1" />
    <up_axis>Z_UP</up_axis>
  </asset>
  <library_effects>
    <effect id="qmat_76551a3993c45b27_effect">
      <profile_COMMON>
        <technique sid="common">
          <lambert>
            <emission>
              <color sid="emission">0 0 0 1</color>
            </emission>
            <diffuse>
              <color sid="diffuse">0.6500053 0.68 0.6500053 1</color>
            </diffuse>
            <reflectivity>
              <float sid="specular">0.5</float>
            </reflectivity>
          </lambert>
        </technique>
      </profile_COMMON>
    </effect>
    <effect id="qmat_d857164d36b11abb_effect">
      <profile_COMMON>
        <technique sid="common">
          <lambert>
            <emission>
              <color sid="emission">0 0 0 1</color>
            </emission>
            <diffuse>
              <color sid="diffuse">0.85 0.85 0.85 1</color>
            </diffuse>
            <reflectivity>
              <float sid="specular">0.5</float>
            </reflectivity>
          </lambert>
        </technique>
      </profile_COMMON>
    </effect>
  </library_effects>
  <library_materials>
    <material id="qmat_76551a3993c45b27" name="qmat_76551a3993c45b27">
      <instance_effect url="#qmat_76551a3993c45b27_effect" />
    </material>
    <material id="qmat_d857164d36b11abb" name="qmat_d857164d36b11abb">
      <instance_effect url="#qmat_d857164d36b11abb_effect" />
    </material>
  </library_materials>
  <library_geometries>
    <geometry id="geometry" name="RL_thigh_dae">
      <mesh>
        <source id="positions">
          <float_array id="positions_array" count="354">0.0384746157 0.0219371989 0.0542209931 0.0698449612 0.0178910643 -0.00834055524 0.0529825948 0.0253403783 0.0250668693 0.0377211124 0.0334030651 0.012707931 -0.0103117842 0.0199159402 0.066002734 0.0629494637 0.0207007881 -0.0137825049 0.0632423759 -0.0173847377 -0.0127653079 0.0594614483 -0.00508120889 0.0348901525 0.0595998131 -0.050337214 -0.0210210122 0.0550416298 0.014888458 0.0282746665 0.0317754708 0.000591336109 0.0601384714 0.0635453835 0.000767797872 0.0252136942 0.0170495771 0.0287315808 0.0459716171 -0.0159639791 0.0288924165 0.0533515923 -0.0153489094 0.0135246702 0.0613405965 -0.000669007597 0.024997564 0.000894679863 0.0431328714 0.0300974082 -0.0131283412 0.0145421131 -0.0173300896 0.0618441291 0.0458885729 -0.0497911237 0.0431422256 0.0596165992 -0.00497237733 -0.0294593386 0.0506214947 0.0180913471 -0.0217505768 0.0274031293 0.0235906132 -0.0526297875 0.031191973 0.0326575488 -0.0248272996 0.0420875587 -0.00121145474 -0.0551935211 0.0310712215 0.0305033214 -0.0234015491 0.0254282057 0.0302087609 -0.0290866829 0.0239093117 0.0300282538 -0.0326609649 0.0216346942 0.0323953405 -0.0308212936 0.0278171711 0.0291543361 -0.0315809883 0.015214433 0.0317659192 -0.0371376835 -0.00175908429 0.0370355099 0.010428098 -0.0117416801 0.0341069028 0.0335741453 0.0143714827 0.0361736119 -0.00630408945 -0.0226999279 0.0368308984 0.0137757789 0.00348302443 0.0357448049 -0.0120372791 -0.00400546286 0.0348726995 -0.0175790489 0.0106227156 0.0296896528 -0.0500013307 0.0152657265 0.0361420326 0.00619456731 -0.0290171951 0.0318176225 0.031293273 0.0598326735 -0.0757723153 -0.0174399465 -0.0168384407 -0.0505706035 0.0611908846 -0.0151201701 -0.0758303925 0.0604672842 0.046332784 -0.0760303885 0.0356565937 -0.0411695391 -0.0989999771 0.041949477 0.0444026105 -0.0989508256 0.0387669355 -0.0471105613 -0.0989769101 -0.0313295275 0.0482379571 -0.098961018 -0.0310453102 0.0105411587 -0.0759366751 -0.0615521856 -0.0420251861 -0.00543543091 0.0526780486 0.0089629963 0.00501799164 0.0689939782 -0.0520918146 0.017910419 0.0271410253 -0.0342411883 0.0326629356 0.01374307 -0.0376967788 0.0318983123 0.000181534095 -0.0524853431 0.0124487216 0.0444989614 -0.0670714974 0.0146458438 -0.0236297175 -0.0639731586 -0.00518904487 0.0169843957 -0.0581880957 -0.0500831194 0.0222220011 -0.0591606796 0.0197040513 0.0334960409 -0.06864696 0.0103084771 -0.0158732943 -0.0209944658 0.0308921412 -0.0472574979 -0.0449921526 0.028961271 -0.0229170304 -0.0410087742 0.0226076543 -0.0947669297 -0.0461231023 0.0303567369 0.0100499392 -0.0146050425 0.0337288789 -0.0382972062 -0.034225475 0.0323674977 -0.0166267864 -0.0583044961 -0.0240854491 -0.0273936242 -0.0622035861 0.00119546358 -0.0890151858 -0.0606741644 -0.0096000284 -0.0286098849 -0.0650841072 -0.00798753183 -0.0318216868 -0.0649045706 -0.0109713515 -0.0189473275 -0.0577519313 -0.0760411769 0.014528689 -0.0485982746 -0.0504818857 -0.0405792445 -0.0460007712 -0.0758078173 -0.0364735015 0.0233441871 0.00896341726 -0.0756081492 -0.000589922129 0.0201421119 -0.106260337 0.0207130108 0.00731972232 -0.0837153494 -0.0539518744 0.0166877452 -0.162442252 0.00365610165 0.00987767056 -0.129068971 0.00838484522 -6.39400532e-05 -0.108649999 0.00962995924 0.0168048963 -0.0808565915 0.0388814099 -0.0129769165 -0.0486741513 0.0149648255 -0.00623176619 -0.0826522484 0.0423963778 -0.0129168779 -0.0503338948 0.00217971671 -0.0106370151 -0.117297515 -0.00881432835 0.0194087476 -0.122938588 0.00309654325 -0.0035392954 -0.108989544 0.00581247127 -0.00408911286 -0.109090097 0.00337079563 -0.00409138901 -0.106680162 -0.0276584104 0.0199142098 -0.100458339 -0.0410319641 0.0187073592 -0.0962572619 -0.0449392796 0.0185390152 -0.0837194324 -0.0464319885 0.0217382573 -0.0837189332 -0.0590086915 0.0135980016 -0.0918613225 -0.0462489836 0.0218207184 -0.0833936036 -0.0408772342 0.023405863 -0.0832912847 -0.046722807 -0.0195796322 -0.104302712 -0.0148036946 -0.0278993491 -0.0606107637 -0.0178849343 0.0189503767 -0.113881946 0.0189816542 -0.0227483287 -0.061762929 9.0008165e-05 -0.0989771336 -0.0556360334 0.0144937402 -0.0501144007 -0.0605697036 -0.0020270308 -0.0154885706 -0.252121598 -0.00085460511 0.0150684733 -0.224969998 -0.0554823838 0.0139145991 -0.244745329 -0.0538083166 -0.0139616169 -0.242921591 -0.00198653154 0.0150104687 -0.256624609 -0.0544390343 -0.0154653462 -0.311067313 -0.00478535937 -0.0280390624 -0.251871556 0.0249809101 -0.0220312141 -0.356340438 -0.0525299087 0.0145202177 -0.313284278 0.00594242476 0.0153655363 -0.374430001 0.0141474158 0.018674247 -0.313544095 -0.0527675599 -0.0289387908 -0.298774332 -0.00587665057 -0.0237429887 -0.373383731 0.020111151 0.0293960366 -0.355267227 -0.00696755527 0.0295245554 -0.250973135 -0.054338526 0.0300572459 -0.300219506 -0.00848442316 0.0271188878 -0.371144176</float_array>
          <technique_common>
            <accessor source="#positions_array" count="118" stride="3">
              <param name="X" type="float" />
              <param name="Y" type="float" />
              <param name="Z" type="float" />
            </accessor>
          </technique_common>
        </source>
        <source id="normals">
          <float_array id="normals_array" count="741">0.501673937 0.512816906 0.696664989 0.899654448 0.420740992 -0.116614372 0.863991976 0.367921889 0.343731433 0.73535943 0.0512838773 0.675733984 0.973967135 -0.108133726 -0.199236259 0.862929761 0.00274596037 0.505316436 0.934615254 -0.0837976933 -0.345647693 0.592385411 0.743107975 0.31123966 0.316882521 0.757220984 0.571140885 0.859194279 0.477691591 0.183292061 -0.415224463 -0.560777128 -0.716322362 -0.714338124 -0.582141161 -0.388371855 -0.467430592 -0.564064503 -0.680690706 0.0982917249 0.948004484 0.302698255 -0.231922746 0.712327898 0.662420392 0.0305367857 0.962860346 0.268267453 0.0160151385 0.998547912 0.0514351726 -0.41942364 -0.81822741 -0.393176407 -0.418358624 -0.819443464 -0.391776085 -0.847334385 -0.519336343 0.11096929 0.100469932 0.99152261 -0.0823939368 0.338697791 0.932350338 -0.126517177 0.235366389 -0.157026768 0.959137738 0.705382049 -0.162740692 0.689892471 -0.903270245 -0.0793981478 0.421661884 -0.890833437 -0.278741956 -0.358773857 0.600681901 0.778166652 -0.183406457 0.842630088 0.358888328 -0.401464403 -0.355991811 -0.934483171 -0.00332881277 -0.475822151 -0.797221124 0.371526301 0.272124708 0.934495807 -0.22949028 0.842222214 0.0568176694 -0.536128223 -0.64673686 0.445827663 0.618844986 0.526802003 0.775922835 -0.347020835 0.386699408 0.882724226 -0.266948581 0.267297626 0.943529487 -0.195714369 -0.413322628 -0.910530686 -0.0099162031 -0.260594755 -0.930572927 0.257146567 -0.406055093 -0.768415213 0.494628519 -0.141369224 -0.968976021 0.202731878 -0.109703444 -0.983906388 0.141044006 0.306999952 0.91865623 0.248639807 0.116730385 0.984947741 0.12748307 0.14782007 0.988970876 0.00926593039 0.00390659226 0.992515743 0.122054391 -0.16810526 0.962916076 -0.211028993 -0.0263167582 0.992623627 -0.11834617 0.198771283 0.978362978 0.0574095957 0.00345804542 -0.987410724 0.158139497 -0.230973229 -0.944950819 0.231774226 0.027926486 -0.965353668 0.259446353 0.33354792 -0.840216696 -0.427529693 -0.150453135 -0.925705373 -0.34703514 -0.27064845 -0.942597568 0.195599645 -0.185102075 0.940424323 -0.285200477 0.0167314503 0.999855578 0.00298661971 0.0367534384 -0.995215893 0.0905236527 0.0470532961 -0.995161593 0.0862519369 0.957902312 -0.20711197 -0.198816091 -0.241623595 -0.0841571391 0.966713846 -0.171477631 -0.244559839 0.954351008 0.808264315 -0.114441268 0.577591538 -0.559442639 -0.608917892 0.562354863 0.603114903 -0.604104698 0.520874202 -0.629624128 -0.657456219 -0.413913995 0.46437639 -0.67249167 -0.576289415 0.896149755 -0.411152333 0.166941345 0.147648871 -0.124524303 -0.981169462 -0.570146203 0.0189772826 0.821323991 0.0723131448 0.0809534863 0.994091213 0.530184686 0.785101295 0.320187777 -0.55025357 0.825906336 0.122881077 0.89613694 0.367303401 -0.249051705 0.594514966 -0.749406219 -0.291448563 0.788676679 -0.610196292 -0.0751636773 0.92750293 -0.303103358 -0.218784437 -0.958776891 -0.0790289119 0.272949338 -0.927877188 -0.143056616 0.344352692 -0.914795637 0.402750045 0.0306805 -0.44452554 0.85730207 0.259673178 -0.760950208 0.466684163 0.450733453 -0.883768976 0.467633277 -0.0164789148 -0.213272288 0.946749449 0.24120611 0.0394869111 -0.994043171 0.101582028 0.451487839 -0.892075658 0.0189663358 0.0727373064 -0.985704243 0.151975051 -0.42954126 0.901930153 0.0449037179 -0.310567468 0.941950619 -0.127580732 0.029431235 0.999566793 0.000150546504 -0.0956832245 0.99512136 0.0240456015 0.471319407 -0.874486089 -0.114595339 -0.480858296 0.875388741 -0.0496974625 -0.944324434 -0.228440836 -0.236782923 -0.996050239 -0.0526230484 -0.0715176985 -0.797655761 -0.599389553 -0.0669139847 -0.963226199 -0.267666668 -0.0234484617 0.595607221 0.0300363693 -0.80271405 0.869409144 0.176397085 -0.461532056 0.615363955 0.136673123 -0.776303887 0.910975516 0.147466123 0.385197759 0.939718127 0.136774912 0.31340459 0.955121934 0.129488304 0.266410977 0.897368908 0.151653439 0.414403528 -0.542856634 0.831251562 -0.119697742 -0.960690081 -0.20110245 0.191395774 -0.747568965 -0.0975825787 -0.656976581 -0.752308905 -0.147900328 -0.641994417 -0.807427943 -0.448501438 0.383283913 0.404177457 0.890471458 -0.209048152 0.852134883 0.0299546756 -0.522464216 -0.807006299 -0.172022656 0.564932764 0.0860147998 0.985066056 -0.149152026 -0.647082865 0.758205473 -0.080051668 -0.975344598 -0.166555658 0.144783184 -0.918861568 0.354227006 -0.173829421 -0.996846437 0.0792794824 -0.00345997838 0.540180147 0.820987225 -0.184892848 -0.0284441803 -0.945511699 -0.324343234 0.941688538 -0.15248014 -0.299954206 -0.791949987 0.216177851 0.57103622 0.895196259 -0.304552406 -0.325379044 0.376078486 -0.911475718 -0.166664422 0.93438977 0.35209319 0.0542778261 0.891155362 0.255720735 -0.374765217 0.985244036 0.162473634 -0.0538187325 -0.623035669 0.680739045 -0.385254294 -0.201487333 -0.957788527 -0.205046207 0.950945675 0.284033537 0.122585885 -0.543701887 -0.794483721 0.270525277 -0.309055418 -0.932086706 0.188942179 -0.29239583 0.954988241 -0.0500208735 -0.0299650934 -0.992513597 0.118401088 0.444243193 0.845235288 -0.297027409 -0.0856150091 0.995856404 -0.0306618549 0.0535543598 0.99834466 0.0209740363 -0.270545363 0.9223665 0.275763035 0.508383155 -0.861092567 -0.00813714787 0.756487668 -0.642146587 0.123992324 0.462267786 -0.872503936 0.158257365 0.396484762 -0.914722025 0.0779967159 -0.15801622 -0.101399101 0.982216418 -0.00913019851 0.0951882079 -0.995417416 -0.817595541 -0.381407976 -0.431353033 0.870812356 0.406260252 0.276836604 0.567437112 -0.296850085 0.768046319 0.527396262 -0.237278685 0.81581372 0.146501899 0.118783437 0.982052803 -0.657914162 0.61658752 -0.432398856 -0.406540126 -0.909442365 -0.08740554 0.0149127273 -0.980181754 -0.197538257 -0.975134254 -0.212593794 -0.0625864565 0.979407609 -0.170574471 0.108005047 0.0572101846 0.997310162 0.0458189771 0.0157332029 0.997678876 0.0662515536 0.551959395 -0.342453361 -0.760306835 -0.0810466558 0.988200903 -0.12996307 -0.134822145 -0.990773141 -0.0138424672 -0.193298876 -0.981079698 0.0108717205 -0.0138094304 -0.985041559 0.17176272 0.615118802 -0.284610599 0.735272527 -0.0972071588 -0.68681848 -0.720299304 0.251736194 -0.0913240761 -0.963477433 -0.286841393 -0.196269199 -0.937656879 0.675726235 -0.1396292 -0.723807812 0.0153762605 -0.999616861 -0.0230162665 0.701365948 0.710152745 0.0613906272 0.936633408 -0.0537518933 -0.346162647 -0.998917043 -0.0456328914 0.00907575246 -0.874608278 -0.484742433 -0.00922428351 0.915830851 -0.0595282726 -0.397127509 0.74329716 -0.0968422294 -0.661914587 0.693859935 -0.13841635 0.706681848 0.652271807 -0.128472552 0.747018278 0.944802761 -0.20251596 0.257555902 0.16798456 -0.985782981 -0.00361601356 0.0121598942 -0.999923646 -0.00219537714 0.388683379 -0.920930505 -0.0284990165 0.889116228 -0.427314669 0.163934425 0.203063488 -0.979150295 -0.00546704372 -0.930648148 -0.273330063 -0.243279085 -0.643762648 -0.762101054 -0.0690768063 0.0454386771 0.996859193 -0.0648621693 0.0309754349 0.995457172 -0.0900308937 0.0124142021 0.992433608 -0.122153327 0.86920315 0.421111971 -0.259134263 0.151583776 0.920510471 0.360115021 -0.0725737885 0.992264986 0.100713603 0.114468545 0.933418214 -0.340040326 -0.960519373 0.109362222 -0.255817205 -0.634408116 -0.671830118 -0.382322758 -0.711392701 -0.517616928 -0.475387305 -0.501241267 -0.293719769 -0.813932359 0.371469527 -0.922909319 0.101236098 0.217264891 0.951193333 0.219151124 -0.4595716 -0.888061702 -0.0118469847 -0.104381621 -0.96107173 -0.255823493 -0.0307889134 -0.994392216 -0.101174213 0.256943285 0.953585446 -0.157018989 -0.252536595 -0.956849694 -0.14374958 -0.725374997 -0.351172328 -0.592038095 0.211723983 -0.95865047 -0.190163806 0.0238867756 0.987925231 -0.153078988 0.349103093 -0.85273236 -0.388554513 -0.504932404 -0.801953137 -0.319240421 -0.0609024987 0.98415035 0.166550308 -0.188319311 0.982080102 -0.00738593144 0.303739041 -0.837501705 -0.454239517 0.382136077 0.32880795 -0.863630295 0.19442749 0.473440498 -0.859099567 0.295958072 0.39961651 -0.867591739 0.121366695 0.520759821 -0.845032156 0.0608128421 -0.998118937 -0.00777235953 0.040427275 -0.997375011 -0.0600727871 0.0460599847 -0.997591794 -0.0518563613 -0.328032047 0.910314918 -0.252431601 -0.92381686 -0.382417679 0.0178639889 0.220454574 -0.869722366 -0.441568613 -0.71375668 -0.604254425 0.354158163 -0.656385422 0.0368329063 0.753526092 -0.435396135 -0.169743001 0.884091377 -0.673512638 0.0290085841 0.738606274 0.850362718 -0.182465509 -0.493547946 -0.723998189 0.267718971 0.635730445 -0.708341599 0.288969934 0.644009709 0.792420149 0.371067673 -0.484127194 0.690746725 0.631515682 -0.352217197 0.806793034 -0.0463872999 -0.589010417 0.789314985 -0.140277013 -0.597749293 0.000523735944 -0.250024229 0.968239427 0.000517895911 -0.250024796 0.968239307 0.280521303 -0.956116974 0.0845463499 0.857995391 0.301102459 0.41615054 0.0521778129 0.210573882 0.976184487 0.0877829343 0.996104002 -0.00842430815 -0.146026805 -0.981721461 0.122061864 0.124386884 0.991458297 -0.0392225273 0.174365401 -0.0187077299 0.984503269 -0.0774834678 0.984619617 0.156590164 -0.0787762776 -0.991902649 0.0996166691 -0.225180954 -0.942111075 0.248435512 0.776906252 0.609878063 0.156414196 -0.874132097 0.248929873 -0.417045504 0.743183851 -0.0962708443 -0.662125111 0.0655093268 -0.997364044 -0.0312010087 -0.0125349024 -0.996928751 -0.0773042142 0.0548659153 0.997320414 -0.0483913943 0.343114406 0.618731678 -0.706713259</float_array>
          <technique_common>
            <accessor source="#normals_array" count="247" stride="3">
              <param name="X" type="float" />
              <param name="Y" type="float" />
              <param name="Z" type="float" />
            </accessor>
          </technique_common>
        </source>
        <vertices id="vertices">
          <input semantic="POSITION" source="#positions" />
        </vertices>
        <triangles material="qmat_76551a3993c45b27" count="143">
          <input semantic="VERTEX" source="#vertices" offset="0" />
          <input semantic="NORMAL" source="#normals" offset="1" />
          <p>0 0 1 1 2 2 0 0 12 13 13 14 3 20 16 21 13 14 16 28 21 29 5 19 16 21 1 1 22 30 23 31 1 1 6 4 24 32 22 32 25 32 26 33 21 34 27 35 24 36 28 37 21 29 27 38 29 39 25 40 30 41 31 42 32 43 33 44 34 45 29 46 33 44 29 46 35 47 34 48 36 49 29 39 37 50 38 51 30 52 24 36 25 40 26 53 27 35 28 54 26 33 25 40 29 39 26 53 26 53 29 39 21 29 37 55 16 21 22 30 34 56 35 57 27 38 35 57 29 39 27 38 4 70 31 70 13 70 51 72 38 72 52 72 50 71 55 78 53 79 57 80 58 81 55 76 33 44 38 82 34 45 59 83 60 84 61 85 62 86 52 87 63 88 62 86 63 88 64 89 57 80 62 86 58 81 38 51 54 74 52 90 62 86 64 89 60 91 69 99 54 100 58 101 54 74 67 98 68 97 69 99 67 102 54 100 55 103 67 103 69 103 21 29 73 107 5 19 21 34 1 1 74 108 75 109 1 1 23 31 74 108 1 1 75 109 5 19 73 107 23 110 21 34 74 108 27 35 36 111 74 108 76 112 77 113 78 114 79 115 77 116 79 116 73 116 80 117 81 118 75 109 23 110 82 119 19 24 78 120 81 118 83 121 77 127 75 109 78 120 21 29 36 49 77 128 74 108 75 109 77 127 21 29 77 128 73 107 36 49 84 129 77 128 64 89 63 88 59 130 59 83 61 85 36 131 76 112 66 93 58 81 91 136 92 137 61 138 93 139 92 137 91 136 90 141 93 141 94 141 61 142 90 142 91 142 58 81 66 93 68 150 54 74 68 97 66 151 36 155 97 152 88 133 88 156 84 129 36 49 61 85 97 158 36 131 103 167 104 168 76 112 115 185 114 184 116 186 0 0 13 14 49 69 2 11 4 10 12 191 13 14 12 13 3 20 12 192 4 192 3 192 12 13 0 0 2 193 2 11 3 194 5 19 16 21 3 20 2 2 2 11 5 19 11 25 16 21 2 2 1 1 22 30 1 1 21 34 16 28 24 36 21 29 5 19 23 110 19 24 1 1 7 5 6 4 25 197 22 30 28 54 28 37 24 36 26 53 28 54 22 30 21 34 32 198 22 199 24 36 16 28 32 198 24 36 37 50 30 52 16 28 31 42 37 55 32 43 31 200 38 51 37 50 16 28 30 52 32 198 27 35 25 197 28 54 34 201 27 35 36 111 36 111 27 35 74 108 32 43 37 55 22 30 4 202 53 73 31 200 31 200 53 73 38 51 38 82 57 80 13 14 13 203 31 203 30 203 38 82 13 14 30 204 48 68 57 80 55 76 62 86 51 205 52 87 62 206 33 206 51 206 57 80 38 82 62 86 38 82 33 44 62 86 53 207 4 208 14 209 14 209 4 208 10 210 63 88 52 87 36 111 52 90 64 211 36 131 34 56 38 212 51 213 51 214 33 44 35 47 34 56 51 213 35 57 60 84 52 90 54 74 64 211 52 90 60 84 58 81 62 86 60 91 58 81 60 91 76 112 69 215 58 81 68 150 54 74 55 75 58 216 65 92 55 76 69 215 23 110 73 107 75 217 21 29 29 39 36 49 63 88 36 111 76 112 23 31 6 4 82 221 73 218 81 220 80 222 19 223 73 218 80 222 75 224 73 225 19 226 75 109 82 195 80 117 75 224 19 226 82 227 78 120 75 109 81 118 102 165 77 127 83 124 60 91 59 130 76 112 59 130 63 88 76 112 36 131 64 211 59 83 93 139 60 84 92 137 94 230 93 139 91 136 61 231 93 231 90 231 61 85 60 84 93 139 92 137 54 74 66 151 60 84 54 74 92 137 74 108 77 127 102 165 103 237 102 165 116 186 115 185 102 240 111 177 103 167 116 188 106 179 115 185 111 177 114 184</p>
        </triangles>
        <triangles material="qmat_d857164d36b11abb" count="132">
          <input semantic="VERTEX" source="#vertices" offset="0" />
          <input semantic="NORMAL" source="#normals" offset="1" />
          <p>3 3 4 3 5 3 6 4 7 5 8 6 9 7 10 8 11 9 4 10 2 11 10 12 14 15 9 7 15 16 4 17 13 18 5 19 7 5 17 22 18 23 5 19 19 24 11 25 20 26 9 7 19 27 9 7 11 9 19 27 9 7 20 26 15 16 8 6 18 23 39 58 7 5 18 23 8 6 40 59 41 60 18 23 18 23 42 61 39 58 18 23 41 60 42 61 41 60 43 62 44 63 44 63 45 64 46 65 42 61 46 66 39 58 47 67 39 58 46 65 42 61 44 63 46 66 13 14 48 68 49 69 14 15 15 16 50 71 38 51 53 73 54 74 54 74 53 73 55 75 55 76 56 77 48 68 14 15 50 71 53 79 55 76 65 92 56 77 66 93 65 94 67 95 65 96 68 97 67 98 41 60 70 104 43 62 41 60 56 77 70 104 56 77 71 105 70 104 71 105 72 106 70 104 84 122 79 123 83 124 83 125 79 115 78 114 85 126 86 126 87 126 79 132 88 133 89 134 50 71 89 134 90 135 94 140 66 93 90 135 90 135 89 134 91 143 50 71 90 135 66 93 89 144 61 145 66 146 91 147 89 147 66 147 66 93 95 148 65 94 65 94 95 148 96 149 89 134 97 152 84 153 98 154 95 148 83 121 61 157 84 129 88 156 84 159 61 145 89 144 46 65 45 64 99 160 47 67 46 65 99 160 98 154 100 161 96 162 80 163 8 6 98 154 98 154 8 6 100 161 96 162 100 161 71 105 71 105 47 67 72 106 47 67 99 160 45 64 95 148 101 164 83 121 102 165 83 124 101 166 101 164 95 148 104 168 74 108 102 165 76 112 102 165 101 166 105 169 105 169 101 166 106 170 101 171 107 172 108 173 105 174 109 175 110 176 111 177 102 178 105 174 105 174 110 176 111 177 104 168 106 179 112 180 106 181 108 182 113 183 114 184 111 177 110 176 114 184 117 187 116 186 116 188 117 189 110 190 7 5 0 0 49 69 2 11 11 25 10 12 1 1 0 0 7 5 7 5 49 69 17 22 9 7 14 15 10 8 18 23 17 22 40 59 82 195 6 196 80 117 6 4 8 6 80 163 79 132 15 16 20 26 5 19 13 18 16 28 42 61 41 60 44 63 57 80 48 68 13 14 40 59 17 22 48 68 49 69 48 68 17 22 89 134 50 71 15 16 55 78 66 93 67 95 65 92 69 215 68 150 41 60 40 59 56 77 48 68 56 77 40 59 44 63 43 62 45 64 56 77 65 92 71 105 70 104 45 64 43 62 70 104 72 106 45 64 79 132 20 26 19 27 73 218 79 219 81 220 79 132 19 27 80 163 79 132 80 163 98 154 83 121 81 118 98 154 81 118 79 132 98 154 77 127 84 122 83 124 89 134 15 16 79 132 50 71 66 93 55 78 94 140 91 228 66 229 61 145 92 232 66 146 98 154 96 149 95 148 97 152 79 233 84 153 89 134 88 133 97 152 61 157 88 156 79 234 97 152 61 235 79 233 76 112 104 168 66 93 100 161 8 6 47 67 47 67 8 6 39 58 71 105 100 161 47 67 72 106 47 67 45 64 65 92 96 162 71 105 66 93 104 168 95 148 107 172 101 171 104 236 103 237 76 112 102 165 102 165 115 185 116 186 107 238 104 239 112 180 104 168 103 167 106 179 116 188 109 241 106 179 109 242 105 169 106 170 107 238 112 180 108 243 108 243 112 180 113 244 106 181 101 245 108 182 117 187 114 184 110 246 112 180 106 179 113 244 109 241 116 188 110 190</p>
        </triangles>
      </mesh>
    </geometry>
  </library_geometries>
  <library_visual_scenes>
    <visual_scene id="scene">
      <node id="RL_thigh_dae">
        <instance_geometry url="#geometry">
          <bind_material>
            <technique_common>
              <instance_material symbol="qmat_76551a3993c45b27" target="#qmat_76551a3993c45b27" />
              <instance_material symbol="qmat_d857164d36b11abb" target="#qmat_d857164d36b11abb" />
            </technique_common>
          </bind_material>
        </instance_geometry>
      </node>
    </visual_scene>
  </library_visual_scenes>
  <scene>
    <instance_visual_scene url="#scene" />
  </scene>
</COLLADA>