<?xml version='1.0' encoding='utf-8'?>
<COLLADA xmlns="http://www.collada.org/2005/11/COLLADASchema" version="1.4.1">
  <asset>
    <created>2026-09-14T00:00:00Z</created>
    <modified>2026-09-14T00:00:00Z</modified>
    <unit name="metre" meter="1" />
    <up_axis>Z_UP</up_axis>
  </asset>
  <library_effects>
    <effect id="qmat_d857164d36b11abb_effect">
      <profile_COMMON>
        <technique sid="common">
          <lambert>
            <emission>
              <color sid="emission">0 0 0 1</color>
            </emission>
            <diffuse>
              <color sid="diffuse">0.85 0.85 0.85 1</color>
            </diffuse>
            <reflectivity>
              <float sid="specular">0.5</float>
            </reflectivity>
          </lambert>
        </technique>
      </profile_COMMON>
    </effect>
  </library_effects>
  <library_materials>
    <material id="qmat_d857164d36b11abb" name="qmat_d857164d36b11abb">
      <instance_effect url="#qmat_d857164d36b11abb_effect" />
    </material>
  </library_materials>
  <library_geometries>
    <geometry id="geometry" name="RR_hip_dae">
      <mesh>
        <source id="positions">
          <float_array id="positions_array" count="420">0.0445398688 0.0140713211 0.0306099504 0.064836517 0.014205033 0.0481485426 0.052701883 0.0141802086 0.010591629 0.0316887163 0.019255707 0.0537383519 0.0342591591 0.0145861153 0.0519125164 0.0124158561 0.0136387479 0.0631209612 0.0227097552 0.014228181 0.0486329906 0.0107507231 0.00983673614 0.0518911928 0.041464556 0.00587371225 0.0555937402 0.0155323455 0.0345779248 0.0524523817 0.0340597145 0.0140098976 0.0417181738 0.0389765278 0.0343974829 0.0371315666 0.0575507917 0.062043678 -0.010802255 0.057735838 0.0511171445 -0.00996164419 0.0577266812 0.0511585064 0.00980444159 0.0581099465 0.0365369059 0.037577007 0.0579498373 0.0474092588 0.0225383528 0.0652390197 0.0370420516 0.0360913761 0.0694696978 0.041667603 0.0334581174 0.0652437806 0.0502292737 0.0108296806 0.0687622726 0.0534072109 0.00880916603 0.0695912242 0.049658969 0.0198094416 0.0899979696 0.0513554625 0.0163170118 0.0899968967 0.0250093732 0.0476275086 0.0672946498 -0.00749019301 0.0528005473 0.0899370685 0.00328012346 0.0535647459 0.0899909586 0.0424136184 0.0328692198 0.0687316358 0.0261926427 0.0462077707 0.0548289716 0.0238202773 0.0474480949 0.0899936333 0.0509881936 -0.01974448 0.0899999663 -0.0206941906 0.0497721396 0.0653114542 0.014334444 -0.0474331267 0.0425851978 -0.0108757056 0.0543033704 0.0356876031 -0.0204854105 0.0526030362 0.0539059266 -0.0243599508 0.0470966808 0.065062508 -0.0143531822 0.047376506 0.0434200056 -0.0140459612 0.0330136716 0.0519550517 -0.0140552642 0.0171115361 0.0320534855 -0.0148049332 0.0525929108 0.0259040017 -0.0141569739 0.0476040207 0.0294737294 -0.0210323781 0.0457703918 0.0488449857 -0.0212816279 0.0234914236 -0.00414731028 -0.0213871449 0.0543545932 0.0116174566 -0.0146661904 0.0624354258 0.0106115164 -0.0139957098 0.0525449663 0.0652766377 -0.0258638263 0.0463741645 0.0538728833 -0.0213410854 -0.00790118147 0.0690158606 0.0171781536 0.0504792966 0.0655361488 -0.0452896915 0.0286891013 0.089964509 -0.0389050357 0.037071202 0.0425821617 0.0108757718 -0.0543043725 0.0428858064 -0.00726565998 -0.0549940579 0.0137439473 -0.00533524714 -0.0631209612 0.0321420506 0.0344586261 -0.0431490168 0.0368252471 0.0140961995 -0.0393495969 0.0237706248 0.0141647812 -0.0482414477 0.0355481058 0.0148951579 -0.0517066009 0.0322732329 0.0195808578 -0.0539471172 0.0119061563 0.0146546131 -0.0625787303 0.045268774 0.0343160927 -0.0290519763 0.0470701158 0.0140498746 -0.0266982932 0.000947345805 0.0343591981 -0.0541887842 0.0107154641 0.0112096239 -0.0526673496 0.0553741641 0.0244833659 -0.0467008837 0.0654157698 0.0478903204 -0.0185915288 0.0580760054 0.0473833457 -0.0215797778 0.0651637167 0.0364781916 -0.0357422791 0.0686724856 0.0527444184 -0.00957562402 0.0576937385 0.0626639053 0.0100595113 0.0684252754 0.0622951165 -0.0102119278 0.068529658 0.0443668403 -0.0300134867 0.0899999663 0.0310813505 -0.0434478261 0.0899968371 0.00614271639 -0.0539528728 0.0899902806 -0.0296805315 -0.0453032181 0.0682570115 0.0256315079 -0.0467474982 0.0683177337 0.0115887271 -0.0519355088 0.0676264986 -0.00482590683 -0.0530352034 0.0533784367 0.0344749428 -0.00873460528 0.051980406 0.0140340533 -0.0143572567 0.0654841587 0.0260681529 -0.0441486537 0.0579538047 0.0382951796 -0.0357801504 0.026382314 -0.0183247495 -0.0563354641 0.0117892884 -0.0146285575 -0.0627346784 0.0545494854 -0.0141224433 -0.00463601202 0.0433528014 -0.0140405316 -0.0335837342 0.0118699633 -0.021234734 -0.0527019128 0.0410867594 -0.0212192331 -0.0360475071 0.0342564918 -0.0145930033 -0.0519165657 0.0494397022 -0.0230769515 -0.0482793488 0.0651068911 -0.0142329298 -0.0480323806 0.0677701905 -0.0176187474 -0.0501101986 0.0899999663 -0.0507362075 -0.0179092418 0.0654633716 -0.0268777516 -0.0455117077 0.0899943188 -0.0496911518 0.0214171652 0.0655882657 -0.0533220433 0.00314013171 0.0665421411 -0.0404110998 -0.0347753763 0.065640606 -0.0485042445 -0.0213486813 0.0104637379 0.00574268121 0.0595828593 -0.0178099647 0.00797184277 0.0510503277 0.00919414125 -0.00326580578 0.0610047504 0.00981570408 -0.00535159605 0.0537947267 -0.0205346327 -0.00532934628 0.0502334833 -0.0284667052 -0.0032023103 0.0540842935 -0.0163810682 0.0345628075 0.050623361 -0.0485641435 0.034596622 -0.0210065171 -0.0377365872 0.0343943313 0.0375367887 -0.0532523505 0.0344602987 0.00737775536 -0.0428030528 0.0079271486 0.0314367786 -0.0509255975 0.00800701696 0.0148132928 -0.0480026118 0.00576697988 0.0371362194 -0.0519369766 -0.00338227861 0.0311074033 -0.0369969197 -0.00531620113 0.0388819687 -0.0303817131 -0.0210724119 0.0444270782 -0.0463461392 -0.0212789141 0.0265220441 -0.0599049889 -0.00333314389 -4.55415902e-05 -0.0491608046 -0.00557495793 0.021472821 -0.0535137951 -0.0211354457 -0.00408991054 -0.0194748342 -0.00527879177 -0.0512706339 -0.0188660342 -0.0211754479 -0.0503745526 -0.0196707752 0.00833373051 -0.049513083 0.0104775252 0.00573351094 -0.0595396236 -0.0120507842 0.00578611949 -0.0596094355 0.00884714443 -0.00337990862 -0.0611914061 0.0245239828 -0.0142906765 -0.0484256372 0.0104864361 -0.0138851497 -0.0528276674 0.00880481489 -0.00547170499 -0.0537447147 -0.0509019606 0.00782776531 -0.0147499293 -0.029801527 0.0344796851 -0.0441075303 -0.0405966975 0.0080556469 -0.0337927379 -0.0570813417 0.00585334236 -0.020485973 -0.0358478762 0.00580651825 -0.0489322916 -0.0476454049 -0.00342584634 -0.0375898443 -0.059662547 0.00568303466 0.0096996529 -0.0237398874 -0.00335188117 -0.0554784052 -0.0428895876 -0.00545633538 -0.0322802067 -0.0416392982 -0.0210362151 -0.0344158337 -0.0526667088 -0.00547708664 -0.0108162034 0.0515873991 0.034358725 0.0152951302 0.0683483556 0.0620278418 0.0106729027 -0.0224975664 0.00576069299 0.0575693622</float_array>
          <technique_common>
            <accessor source="#positions_array" count="140" stride="3">
              <param name="X" type="float" />
              <param name="Y" type="float" />
              <param name="Z" type="float" />
            </accessor>
          </technique_common>
        </source>
        <source id="normals">
          <float_array id="normals_array" count="813">-0.00637945486 0.99992007 -0.0109137204 0.00113046635 0.999962509 -0.00858796667 -0.00851690862 0.999963164 0.00104155741 -0.339798927 0.116670735 -0.93323344 -0.170218378 0.804552138 -0.568965375 -0.730699599 0.66727972 -0.144276902 0.191378057 0.538586557 0.820547998 -0.270654321 0.496266961 0.82490325 0.275639176 0.326703817 0.904039621 0.276470661 0.0769540071 0.957936347 0.184836715 0.118047073 0.975653768 0.246298417 0.00365136517 0.96918714 0.617642879 0.017475199 0.786264479 0.721350908 0.0472102948 0.690958738 -0.999922872 -0.0122448439 0.00206650794 -0.999855995 -0.0169654153 -0.000427676714 -0.999962449 -0.0072855521 0.00468656328 -0.101112783 -0.687605023 -0.719010115 -0.282648981 -0.858217597 -0.428453237 -0.710461199 -0.502127349 -0.49306491 -0.0610718764 0.690403998 0.720841587 -0.0399052128 0.766788602 0.64065814 -0.109922491 0.88928169 0.443953991 -0.10474813 -0.986474335 -0.126080006 -0.710752308 -0.691758096 -0.127679065 -0.0144499075 0.984181285 0.176574141 -0.167200461 0.944982708 0.281161308 -0.0409072489 0.908816457 0.415185779 0.03406642 0.961345673 0.273228735 -0.023877224 0.448725134 0.89335078 0.0416802056 -0.127248392 0.990994751 -0.0870078504 0.112685665 0.989813924 -0.0136690941 0.777889252 0.628252685 -0.0179834478 0.541606009 0.840440094 -0.260001063 -0.368664294 -0.892460704 -0.700729728 -0.228952095 -0.675691366 1 -6.36715413e-05 3.46182014e-06 1 5.18595261e-05 5.1496052e-05 0.999999106 -0.000334577286 0.00129571091 -0.999859273 0.0159485918 -0.00520309713 -0.00940735359 0.999769509 0.0192979034 0.999999881 0.000259784953 0.000437487033 0.182677835 -0.211457819 0.960163713 0.252147824 -0.341210067 0.90553695 0.0981579348 -0.357013792 0.928927422 -0.0104749687 -0.999796152 -0.0172610804 -0.00776297413 -0.999922931 -0.00969091523 -0.0201618988 -0.999796093 -0.00110975781 -0.36609304 -0.198773056 -0.909101307 -0.00783370994 0.485076398 -0.874436677 -0.349393934 -0.225147754 -0.909523129 -0.0248892531 -0.996697783 -0.0772919953 0.756290436 -0.183457464 0.627987325 0.534506738 -0.0093166735 0.84511286 0.895512223 -0.108288102 0.431661308 -0.0161620378 -0.994167626 -0.106627867 0.0172259584 -0.999509335 0.0261602346 -0.0010509768 -0.999989629 0.0044349134 0.00516471267 -0.999971807 0.00544896955 0.391912222 -0.0630464479 0.917839825 0.263920754 -0.0974705145 0.959606886 -0.0374778472 -0.997032523 -0.0672426894 -0.15666233 0.0827873051 -0.984176397 -0.132554576 0.152510002 -0.979372263 0.949926853 -0.189431727 0.248504639 0.949561894 -0.273942888 0.152602509 0.0501644388 0.263174653 0.9634431 0.001089119 -0.38117063 0.924504042 -0.999866009 -0.0162877887 0.00162195438 -0.99990052 -0.0140961707 -0.000551648787 -0.999796271 -0.0191529766 0.00636775931 -0.0272736512 -0.453500122 0.890838802 -0.0142887672 -0.705073118 0.708990633 0.184783354 0.195686817 -0.963100076 0.180416837 -0.137545824 -0.973925531 0.062816985 -0.032406915 -0.99749881 0.571334302 0.0378764234 -0.819842994 0.696603835 0.0264344327 -0.716968894 0.406441301 0.0488474593 -0.912370205 -0.100792967 0.980767071 -0.167142719 -0.22364457 0.71978724 0.657182992 -0.386583447 0.163788944 0.907593787 -0.202237979 0.884606361 0.420203984 0.835533023 0.010194473 -0.549345672 0.861974537 0.0335238911 -0.505841911 0.000670931709 0.0192777794 -0.999813914 0.0503904521 0.294567108 -0.954301298 0.266350985 0.35224542 -0.897206962 -0.0154181942 0.531525016 -0.846902251 -0.00490103103 0.999913573 0.0121991932 -0.00819781423 0.999945223 0.00651154993 -0.161630601 -0.922318637 0.351004034 -0.13161546 -0.879952788 0.456465185 -0.179855913 -0.720855355 0.669342577 0.0506197698 -0.0708651692 -0.996200681 0.051022023 -0.0703858361 -0.996214151 0.0464409627 -0.0758416951 -0.996037781 -0.239638537 -0.963780999 0.117045134 0.0346075036 0.999400973 0.000139159092 0.00246576616 0.999854386 -0.0168844853 -0.0215015858 0.999331653 -0.0295629613 -0.0259593464 0.975021482 -0.220588461 0.0241945852 0.935100496 -0.353555858 -0.0539425239 0.815283656 -0.576543808 0.999999762 -0.000368134119 0.000576507067 0.99999994 -0.000146858714 0.000285997347 1 5.71240307e-05 -3.14038625e-05 0.0200582538 0.591114759 -0.806338012 -0.00361172319 0.516793549 -0.856102407 0.021751456 0.0911556855 -0.995599091 0.0249730889 0.222270325 -0.974665225 0.0598958507 -0.100509495 -0.993131578 0.989225984 0.00583864003 -0.146279931 0.983500183 -0.0198103394 0.179819167 0.972515523 -0.00202595838 -0.232829258 -0.138270274 -0.457235456 0.878531218 -0.141935155 -0.264889598 0.953775585 -0.0525379591 0.711271167 -0.700951517 -0.178432465 -0.734696448 0.654509723 0.271831781 -0.237835929 -0.932492137 0.225528136 -0.102956422 -0.968781233 0.996024311 -0.0665941536 -0.0591676086 0.974164486 -0.0118113747 -0.225530654 0.827134013 -0.048064813 -0.559945643 0.000746528385 -0.999998987 -0.0012197881 0.207914472 -0.832540631 -0.513466358 0.552705944 -0.657172441 -0.51248467 -0.341645956 -0.186180219 0.921203017 -0.150651872 0.147818595 0.97747308 -0.123557396 0.191693127 0.973646402 0.0977463052 -0.369676322 -0.924004912 -0.417384446 -0.17517592 0.891685843 0.0501573868 -0.324351192 -0.944606006 -0.0151561536 -0.999884784 -0.000839448709 -0.00291833095 -0.999881864 0.015089415 -0.00242869044 -0.999937356 0.0109249977 0.0374940261 -0.542944849 -0.838930905 1 0.000190430903 -8.4562249e-05 -0.525533378 -0.441214502 -0.727423131 -0.999666035 -0.0254127532 -0.00469379826 0.0211071074 -0.942240655 0.334270984 0.0138932597 -0.998747528 0.0480663739 0.0435030162 -0.94783783 -0.315770388 -0.533169031 -0.644623399 -0.547897339 -0.99954772 -0.0253231972 -0.0162216742 -0.679601312 0.352811992 0.643168509 -0.534627795 0.0872643664 0.840570092 -0.335372895 -0.00497382134 0.942072332 -0.0803478956 -0.0177286994 0.996609211 -0.988874793 -0.147248551 0.0210828669 -0.986805975 -0.158050254 0.0351297446 -0.976662815 -0.196812078 0.0859925076 0.243365675 -0.256956905 0.935278714 0.030133808 0.00865811575 0.999508381 -0.0329863057 -0.9608441 0.275119156 0.0125318943 -0.173987865 0.984668076 -0.091810368 -0.943184793 0.3193326 -0.423565388 -0.551957846 0.718286097 -0.00294863479 0.99999404 0.00179672358 0.00244725845 0.99999702 -9.09365626e-05 0.000499721733 0.999999762 -0.000524065807 -0.0104475468 0.999930918 0.00538759073 -0.00384826958 0.999983907 0.00416709855 -0.798585057 0.00738071231 0.601836741 -0.989415228 0.0102772191 0.144747794 -0.964225769 -0.0103575969 0.264880002 -0.665370703 0.533033073 0.522644818 -0.78552115 -0.493633628 0.373205572 -0.367125213 -0.00681005931 0.930146635 -0.710703075 -0.00485444581 0.703475296 -0.574178278 -0.0465887487 0.817403734 -0.0246712547 -0.999133468 0.0335204788 -0.0018629285 -0.999997675 -0.00106410612 -0.829894066 -0.55791837 -0.001703716 -0.329317689 -0.938244224 0.106054932 -0.936765909 -0.0122513836 0.349742055 -0.998731375 -0.0122820493 -0.0488341786 -0.880376637 -0.0472163931 0.47191903 0.00187108258 0.999997795 -0.000922775536 0.000598230225 0.999997556 -0.00213296083 -0.151532441 0.963680923 0.219902307 -0.261075437 -0.656125605 -0.708052814 -0.0833727196 -0.0746436641 -0.993718922 -0.332875699 -0.0657733977 -0.940674007 -0.293099552 0.617015719 -0.7303316 -0.0500372797 0.544363201 -0.837355971 -0.154954433 0.525558054 -0.836527288 -0.364437252 0.154376939 -0.91834265 0.0982278511 0.160438493 -0.982146025 0.0313546956 -0.157808483 -0.986971796 -0.0262226146 -0.999565542 0.0134590287 -0.0320214629 -0.997665823 0.0603120551 -0.013122106 -0.999303877 0.0349217802 0.885008276 0.159112439 -0.437542737 0.464021862 -0.242676437 -0.851934195 -0.96968919 -0.226803124 -0.0909020305 -0.970119715 -0.223509178 -0.094400011 -0.971974611 -0.206514537 -0.112325862 0.97560358 0.181540877 -0.123452745 -0.913184941 0.0367335416 -0.405886501 -0.966491044 -0.0252772626 -0.255452693 0.003128018 0.999992013 -0.00248593348 -0.569353402 0.0333035104 -0.821417987 -0.764249682 -0.0113092465 -0.644821346 -0.837290347 0.464196563 -0.288905561 -0.518513918 0.521901846 -0.677319586 -0.690148592 -0.498201728 -0.524871409 -0.86837697 0.447003394 0.214731038 -0.257873714 0.964930236 -0.0490993746 -0.34130919 -0.549480736 -0.762613237 -0.804398954 0.0168492533 -0.593850553 -0.775389612 -0.0132325161 -0.631344497 -0.224536717 -0.960208237 -0.166082352 -0.979143381 -0.0140534518 -0.202683941 -0.430257082 -0.894645989 -0.120363824 0.0118473545 0.999914169 0.00559731526 -0.00281447475 0.999990165 -0.00342403399 0.957313538 0.027200995 0.2877689 0.840321243 0.00832717307 0.542024791 0.0104985666 0.999935687 0.00428830041 0.0307007954 0.44895038 0.893029153 -0.0491517037 0.997253358 -0.0554063842 -0.99997133 -0.00301677082 0.00694159698 -0.99998486 0.00549081154 0.00040993889 -0.99999696 -0.000277016748 -0.00243904977 0.0338901319 -0.112464942 0.993077576 -0.0587874725 -0.0222939458 0.998021543 0.0242345221 -0.103132769 0.994372308 0.129020274 -0.203624502 0.970510602 0.999495506 0.0316257514 -0.00293039321 0.998884082 0.047034651 0.00428088941 0.999139905 0.041432444 0.00165849249 0.0588419586 0.998182774 0.0129907075 0.999999762 9.96540548e-05 0.000698405085 0.999922156 0.000652078714 0.0124619724 -0.419315338 -0.269804418 -0.866821885 -0.0374940969 -0.997258663 -0.0637912229 0.982369959 -0.145290583 0.117643267 -0.0579267442 -0.839867532 0.539691627 0.999999523 -0.000792895211 0.000612013158 0.999960601 -0.00630481774 0.00624847831 0.00598659366 0.999981523 -0.00102823775 -0.221895069 -0.159643427 0.96191299 -0.100930035 0.907827079 -0.40701735 -0.129468232 0.942919612 -0.306823373 0.0555882156 -0.0649410263 -0.996339619 0.999658287 0.0254888628 -0.00580099411 -0.0291491374 0.999571502 -0.00267042057 -0.992936194 -0.0915309116 0.0754968897 -0.428714126 -0.150283575 0.890852988 -0.0323935859 -0.996981978 0.0705519393 -0.122988544 0.190677673 0.973917782 -0.0321048088 -0.926840842 -0.374079257 -0.999997795 0.000192209423 -0.00209980505 -0.292811453 0.499050736 0.815603971 -0.0339239463 0.89534539 0.444078624 -0.111737922 0.962666035 0.246553808 -0.994659483 -0.0826312453 -0.0618433394 -0.291378528 0.0310095884 0.956105113 -0.724094808 0.0176653955 0.689474225 -0.215869069 0.961922646 0.167646527 -0.300511122 0.949115098 0.0941994861 -0.240935773 -0.9371261 0.25247696 -0.0726206079 -0.619296372 -0.781791687 -0.00408253726 -0.999990642 -0.00144758786 -0.988388121 0.133656785 -0.0722824186 -0.95030278 0.0473584831 -0.307704031 -0.967252076 -0.242875263 -0.073722519 -0.274286598 0.937749982 -0.213053569 -0.00503478898 -0.999985635 -0.00182673498 -0.000565822644 -0.99999249 -0.00382867339</float_array>
          <technique_common>
            <accessor source="#normals_array" count="271" stride="3">
              <param name="X" type="float" />
              <param name="Y" type="float" />
              <param name="Z" type="float" />
            </accessor>
          </technique_common>
        </source>
        <vertices id="vertices">
          <input semantic="POSITION" source="#positions" />
        </vertices>
        <triangles material="qmat_d857164d36b11abb" count="276">
          <input semantic="VERTEX" source="#vertices" offset="0" />
          <input semantic="NORMAL" source="#normals" offset="1" />
          <p>0 0 1 1 2 2 3 3 4 4 5 5 4 4 6 6 7 7 3 8 5 9 8 10 4 4 1 1 0 0 9 11 6 6 10 12 11 13 9 11 10 12 12 14 13 15 14 16 15 17 16 18 17 19 15 20 18 21 16 22 16 18 14 23 19 24 16 22 20 25 14 26 21 27 20 25 16 22 21 27 22 28 20 25 21 27 18 21 22 28 23 29 24 30 25 31 26 32 27 33 23 29 28 34 1 35 3 3 29 36 22 37 30 38 18 21 15 20 27 33 17 19 31 39 1 35 17 19 1 35 28 34 1 1 31 40 2 2 22 37 26 41 30 38 32 42 33 43 34 44 35 45 36 46 37 47 8 10 32 42 24 30 38 48 34 49 33 50 35 45 39 51 36 46 36 52 40 53 41 54 38 55 39 51 35 45 40 56 42 57 41 58 39 59 40 53 36 52 5 9 43 60 32 42 32 42 43 60 33 43 38 55 44 61 39 51 35 62 45 63 38 48 37 64 41 54 46 65 47 66 8 10 24 30 25 31 24 30 30 67 38 48 45 63 34 49 35 68 48 69 45 70 45 71 49 72 30 67 50 73 51 74 52 75 53 76 54 77 55 78 55 79 31 40 56 80 57 81 58 82 56 80 59 83 60 84 53 76 61 85 55 78 62 86 57 87 63 88 50 73 54 89 60 90 31 40 64 91 65 92 66 93 12 94 67 95 13 96 19 24 13 97 64 91 68 98 69 99 12 100 67 101 29 102 70 103 20 25 29 102 67 101 71 104 29 36 72 105 29 36 73 106 72 105 70 103 71 107 74 108 74 108 72 109 75 110 74 108 75 110 50 73 50 73 75 110 76 111 77 112 2 113 78 114 63 88 74 108 50 73 79 115 56 80 31 116 70 103 74 108 80 117 66 93 80 118 79 115 52 75 81 119 82 120 83 121 46 122 84 123 46 124 85 125 86 126 87 127 88 128 89 129 51 74 88 130 81 119 87 127 81 131 88 128 51 74 90 132 88 130 76 111 90 132 51 74 83 133 84 134 89 135 29 36 30 38 73 106 76 111 73 136 90 132 30 38 91 137 73 106 75 110 72 109 76 111 90 132 92 138 88 130 89 139 92 138 48 69 93 140 94 141 91 142 92 138 73 136 95 143 48 69 92 138 96 144 6 6 9 11 7 7 5 5 97 145 43 146 5 5 7 7 97 145 9 11 98 147 7 7 39 59 42 148 40 53 99 149 44 150 43 151 44 152 100 153 42 148 100 154 99 155 101 156 99 155 102 157 101 156 103 158 9 159 104 160 105 161 104 160 106 162 107 163 106 164 108 165 109 166 110 167 102 157 101 168 111 169 112 170 112 171 113 172 42 57 110 167 114 173 115 174 115 175 116 176 113 177 9 159 53 178 61 179 62 180 56 80 58 82 117 181 85 182 118 183 119 184 120 185 121 186 58 187 52 75 82 120 120 185 82 188 122 189 121 186 120 185 122 189 123 190 124 191 87 192 85 125 124 193 123 194 125 195 82 196 124 197 125 198 124 193 85 125 61 85 62 86 119 184 106 164 104 199 126 200 104 160 9 159 127 201 104 199 127 202 128 203 127 202 119 184 128 203 129 204 130 205 131 206 132 207 126 208 129 204 117 181 131 206 133 209 134 210 117 181 135 211 134 212 131 206 117 181 130 205 133 209 131 206 117 181 118 183 135 211 134 210 135 211 136 213 136 214 131 206 134 212 129 204 131 206 114 173 136 213 135 211 116 176 9 159 137 215 77 216 137 217 0 218 2 113 137 217 11 13 0 218 9 159 11 219 137 215 3 3 1 35 4 4 28 220 3 8 8 10 10 221 4 4 0 0 11 13 10 12 0 218 6 6 4 4 10 221 20 25 22 28 29 102 18 21 26 32 22 28 68 222 12 14 14 16 17 19 79 223 31 39 79 223 19 24 64 224 17 19 16 18 19 24 17 19 19 24 79 223 16 22 18 21 21 27 138 225 68 226 14 227 19 24 14 23 13 97 20 228 138 225 14 227 69 229 138 230 20 231 68 98 138 232 69 99 26 32 18 21 27 33 23 29 47 66 24 30 23 29 27 33 47 66 27 33 8 10 47 66 27 33 28 220 8 10 30 38 23 233 25 234 77 112 137 217 2 113 30 38 26 41 23 233 17 19 28 34 15 17 15 20 28 220 27 33 37 64 36 52 41 54 8 10 5 9 32 42 41 58 42 57 46 124 43 235 38 48 33 50 38 55 43 236 44 61 83 121 37 237 46 122 24 30 32 42 34 44 24 30 34 44 45 71 35 45 37 47 83 133 30 67 24 30 45 71 49 72 45 71 48 238 48 238 94 141 93 140 49 72 48 238 93 140 91 137 30 38 93 239 93 239 30 38 49 240 51 74 50 73 76 111 9 159 59 241 53 178 55 79 54 89 31 40 58 187 50 73 52 75 62 180 55 79 56 80 9 159 77 216 59 241 53 76 60 84 54 77 63 242 57 81 56 80 59 83 77 112 78 114 58 187 57 87 50 73 61 85 53 76 55 78 59 83 78 114 60 84 66 93 65 92 80 118 65 243 70 103 80 117 13 244 67 101 65 243 65 243 67 101 70 103 64 91 13 97 65 92 12 94 69 245 67 95 69 229 20 231 67 246 70 103 29 102 71 107 74 108 71 107 72 109 2 2 31 40 78 247 60 90 78 247 31 40 64 224 66 248 79 223 79 115 63 242 56 80 80 117 74 108 63 88 79 115 80 118 63 242 85 125 123 194 86 126 86 126 84 123 46 122 89 135 84 134 87 192 87 127 82 249 81 131 87 192 124 191 82 250 52 75 51 74 81 119 84 134 123 190 87 192 84 123 86 126 123 194 76 111 72 109 73 136 89 129 88 128 92 251 35 45 83 133 89 135 35 68 89 139 48 69 90 132 73 136 92 138 91 142 96 252 95 143 91 142 94 141 96 252 95 143 73 136 91 142 96 144 92 138 95 143 94 253 48 69 96 144 5 5 4 4 7 7 43 146 97 145 99 155 97 145 139 254 99 155 139 254 97 145 7 255 98 256 139 254 7 255 39 59 44 152 42 148 99 149 100 257 44 150 139 254 102 157 99 155 100 153 101 168 42 148 9 11 103 258 98 147 42 148 101 168 112 170 103 258 105 259 98 147 105 161 103 158 104 160 98 147 105 259 107 163 105 259 106 164 107 163 109 166 107 260 108 261 110 167 109 166 114 173 132 207 109 166 108 261 109 166 132 207 114 173 139 254 109 166 102 157 109 166 98 256 107 260 109 166 139 254 98 256 101 156 102 157 111 262 111 262 102 157 110 167 111 262 110 167 115 174 111 169 115 175 113 177 111 169 113 177 112 170 115 175 136 213 116 176 115 174 114 173 136 214 125 263 117 181 122 189 117 181 133 209 122 189 85 125 42 57 118 264 117 181 125 263 85 182 62 265 58 187 120 266 119 184 62 86 120 185 120 266 58 187 82 120 46 124 42 57 85 125 125 195 122 267 82 196 127 202 61 85 119 184 127 201 9 159 61 179 130 205 121 186 133 209 130 205 119 184 121 186 133 209 121 186 122 189 126 200 104 199 128 203 132 207 108 261 126 208 108 165 106 164 126 200 130 205 128 268 119 184 129 204 128 268 130 205 129 204 126 208 128 268 132 207 129 204 114 173 42 57 135 269 118 264 42 57 113 172 116 270 42 57 116 270 135 269 136 214 114 173 131 206</p>
        </triangles>
      </mesh>
    </geometry>
  </library_geometries>
  <library_visual_scenes>
    <visual_scene id="scene">
      <node id="RR_hip_dae">
        <instance_geometry url="#geometry">
          <bind_material>
            <technique_common>
              <instance_material symbol="qmat_d857164d36b11abb" target="#qmat_d857164d36b11abb" />
            </technique_common>
          </bind_material>
        </instance_geometry>
      </node>
    </visual_scene>
  </library_visual_scenes>
  <scene>
    <instance_visual_scene url="#scene" />
  </scene>
</COLLADA>