<?xml version='1.0' encoding='utf-8'?>
<COLLADA xmlns="http://www.collada.org/2005/11/COLLADASchema" version="1.4.1">
  <asset>
    <created>2026-09-14T00:00:00Z</created>
    <modified>2026-09-14T00:00:00Z</modified>
    <unit name="metre" meter="1" />
    <up_axis>Z_UP</up_axis>
  </asset>
  <library_effects>
    <effect id="qmat_76551a3993c45b27_effect">
      <profile_COMMON>
        <technique sid="common">
          <lambert>
            <emission>
              <color sid="emission">0 0 0 1</color>
            </emission>
            <diffuse>
              <color sid="diffuse">0.6500053 0.68 0.6500053 1</color>
            </diffuse>
            <reflectivity>
              <float sid="specular">0.5</float>
            </reflectivity>
          </lambert>
        </technique>
      </profile_COMMON>
    </effect>
    <effect id="qmat_d857164d36b11abb_effect">
      <profile_COMMON>
        <technique sid="common">
          <lambert>
            <emission>
              <color sid="emission">0 0 0 1</color>
            </emission>
            <diffuse>
              <color sid="diffuse">0.85 0.85 0.85 1</color>
            </diffuse>
            <reflectivity>
              <float sid="specular">0.5</float>
            </reflectivity>
          </lambert>
        </technique>
      </profile_COMMON>
    </effect>
  </library_effects>
  <library_materials>
    <material id="qmat_76551a3993c45b27" name="qmat_76551a3993c45b27">
      <instance_effect url="#qmat_76551a3993c45b27_effect" />
    </material>
    <material id="qmat_d857164d36b11abb" name="qmat_d857164d36b11abb">
      <instance_effect url="#qmat_d857164d36b11abb_effect" />
    </material>
  </library_materials>
  <library_geometries>
    <geometry id="geometry" name="RR_thigh_dae">
      <mesh>
        <source id="positions">
          <float_array id="positions_array" count="360">0.038634412 0.0502581224 0.0497256704 -0.0328417495 0.0495120175 0.0542137697 0.00230660383 0.00928056613 0.0675032288 0.0207037479 0.0759986937 0.0555102676 0.0557703897 0.0757635087 0.0221030097 0.0468864553 0.09898635 0.032256376 0.0515372194 0.0989903808 -0.022618128 -0.0598865561 0.0989999771 0.00259439577 0.0522767305 0.075837858 -0.0274969935 0.0610159561 0.050697647 0.00615262892 0.0503713228 0.0499155968 -0.0363601409 0.0440133028 0.00363784749 0.0541853197 0.0338917822 0.00201039575 0.0548167638 0.0651339218 0.00906381104 0.0166111942 0.0455138236 -0.0181625783 0.0491242744 0.00364632765 -0.0248149708 0.0624037869 0.0641468316 -0.0144286864 0.032215625 0.0552010462 -0.0146055631 0.0256061275 -0.000573929923 -0.0250111483 0.000555673498 0.0560611859 -0.0150479767 -0.0249155909 0.00698240334 -0.00177739095 0.066638127 0.0199592672 -0.027831085 0.0449868105 -0.0299852937 -0.0254095774 0.05150396 0.00178610918 -0.0185735021 0.0552051887 0.0224922188 -0.0345180817 0.0156019181 -0.0109572383 -0.0345312208 0.0364776812 0.0123890573 -0.0349512137 0.0320937596 0.0481732935 -0.0290893987 0.0152339349 0.0610743165 -0.0225926004 -0.0211386085 0.0657837987 0.0146508301 -0.00107452681 0.0543035679 0.0168173276 -0.0340035483 0.0409502871 0.0135814985 -0.0462320484 0.0314515047 -0.0052300049 -0.0679938942 0.0635845512 -0.0198330544 -0.0139607023 0.000785981829 -0.0164214615 -0.0913496912 -0.0178763345 -0.0373709686 0.00212512491 -0.00574604701 -0.0360823721 -0.0157203786 0.0316606723 -0.0313353166 -0.0286841765 0.0155427074 -0.0357469358 -0.0075015733 -0.0464868061 0.075709343 0.0401068032 -0.0593557917 0.0507368594 0.0154829444 -0.00749621075 0.0989999771 0.0552846603 -0.0200057961 0.0758416429 -0.055031158 -0.0523551255 0.0756160244 -0.0324888192 -0.0470321886 0.0506961346 -0.0415613875 -0.058271341 0.0245629214 -0.0257777069 -0.0620264374 0.0158390626 0.00869497098 -0.0389015563 0.00443425821 0.0571752228 -0.035749834 0.00740740262 0.0543449484 -0.0546468012 -0.0146173993 0.0435931757 -0.0665297732 -0.0138724381 0.0104335947 -0.0627580807 -0.0153408749 0.0366217382 0.00306306314 -0.0373709686 0.0106112091 -0.0420328677 -0.0284316596 0.0150410933 -0.0437340848 -0.027915597 0.0152365807 -0.0267284382 -0.0361697637 0.0183793977 -0.0402432457 -0.0288420245 0.0191393197 -0.0462238267 -0.0291174166 0.00918593816 -0.0536001362 -0.0172225591 0.0232387017 0.013080663 -0.0296114851 -0.0478795618 -0.0188646354 -0.0320068821 -0.0429144874 -0.00651067961 -0.0354469828 -0.0330522396 -0.0361953303 -0.0312791541 -0.0151627036 -0.0450997166 -0.0310316775 -0.009027794 -0.0677883476 0.00296459533 -0.0323127322 -0.0652393401 0.00764294202 -0.0234050229 -0.066988945 -0.014183972 -0.0372636616 -0.0613278449 0.005447831 -0.0898532346 -0.0571427569 0.0156965833 -0.0790110379 -0.0618534423 0.00833845884 -0.0355703197 -0.062489517 -0.00173044158 0.0100123817 0.0303238928 0.0756732523 -0.0535680167 0.00969630852 0.0508363694 -0.0614568591 0.0095646698 0.0258570164 -0.066857934 -0.00784367789 0.0989734232 -0.0586329997 0.0391722359 0.0124140009 -0.0490585677 0.0389312916 0.0124210957 -0.0498050191 0.0391519889 0.0111586582 -0.0495425016 0.0150854867 0.00716241868 -0.0825220272 0.030890394 0.00260520307 -0.0643502995 0.0320815556 -0.00148514239 -0.0653723776 0.0190855525 0.00525621604 -0.0749807954 0.00680660224 0.000333899749 -0.118896984 0.00818133727 0.00557898544 -0.0919040442 0.0107221538 0.00527285226 -0.0854415372 0.00267061801 0.00579129485 -0.11224471 -0.0151705258 0.0196853187 -0.119027697 0.0133745847 0.00531529682 -0.0907481164 0.0210940205 -0.0166291222 -0.0808503032 0.0303915739 -0.0199789889 -0.0582196154 -0.00829073414 -0.0208434891 -0.133150622 -0.00181587657 -0.0171036385 -0.129072428 0.0030229371 0.000340370258 -0.200340077 -0.0421675071 -0.0290655755 -0.0253252536 -0.0565947145 -0.0148401819 -0.156402707 -0.0282520764 -0.023576349 -0.100690737 -0.0533583201 -0.0174931306 -0.0965999663 -0.0339370966 -0.0216181651 -0.109714836 -0.0285697822 -0.0234364346 -0.101760574 -0.0233902428 -0.022398077 -0.113963254 -0.0546756238 -0.0125504639 -0.100408152 -0.055178009 -0.0146544604 -0.101263627 -0.0559848733 -0.0137205077 -0.100239016 -0.00272989483 0.0158895869 -0.252189338 -0.0470801815 -0.0177308992 -0.242109448 -0.00602037692 0.0280620512 -0.251763165 -0.0527861901 0.017170269 -0.249602318 -0.000758050417 -0.0155773787 -0.25213328 -0.00274741813 -0.0288294852 -0.253171533 -0.0186025351 0.0286420118 -0.360119492 0.0227839779 0.0250530075 -0.361952901 0.0273913089 -0.0210475046 -0.359903812 -0.0520892069 0.0154874669 -0.309037805 -0.0587159395 0.00191305089 -0.242867157 -0.0516135581 -0.0158561878 -0.315724045 -0.0179163292 0.016529819 -0.365400583 -0.00838929228 -0.0154766962 -0.374010175 -0.0250202306 -0.0290867314 -0.353755176 -0.0547897182 -0.0296346191 -0.281801671 -0.0332520567 -0.0192376692 -0.104883656</float_array>
          <technique_common>
            <accessor source="#positions_array" count="120" stride="3">
              <param name="X" type="float" />
              <param name="Y" type="float" />
              <param name="Z" type="float" />
            </accessor>
          </technique_common>
        </source>
        <source id="normals">
          <float_array id="normals_array" count="729">0.58191812 0.147031128 0.799845695 -0.462819457 0.167559698 0.870472252 0.0339245573 0.0516737737 0.998087645 0.270990163 0.129332751 0.953853965 0.932574689 0.132884979 0.335627794 0.598843455 0.66980803 0.439025819 5.95440179e-05 1 -0.000117507821 -0.182078123 0.966491818 0.180945247 0.875142574 0.177590013 -0.450096935 0.877367318 0.184463724 -0.442944437 0.990339398 0.104627714 0.0909994245 0.814710736 0.0578202307 -0.57697767 0.61472398 -0.0442522541 0.787499964 -0.54193908 -0.0760420933 -0.836970508 -0.944154322 0.14763765 -0.294577152 -0.609266758 0.431366026 -0.665370107 0.0534253381 -0.642200768 0.764672458 0.844015002 -0.316606969 0.43289578 0.656237364 -0.671233416 0.34467119 0.0219394714 -0.999540985 0.0208916795 0.321303666 -0.946370244 -0.0338725857 -0.0425514616 0.448966622 -0.892534792 0.242826536 -0.896455169 0.370679587 -0.152044177 0.772527993 -0.616508782 0.303319305 0.561574459 -0.769825637 0.49601993 -0.537002325 0.682343602 -0.0146537293 -0.813702583 0.581096709 0.0621725209 -0.972011805 0.226555899 -0.248186424 -0.940809488 0.230826676 0.239484608 -0.917077005 0.318773985 -0.42210272 0.875399232 -0.235595912 -0.240201801 0.896444619 -0.372411311 -0.202553302 0.939473093 -0.276337564 -0.490061998 0.864304066 -0.113215134 -0.220022202 0.96090287 -0.168094933 0.536027312 -0.786114216 0.307732284 0.731972575 -0.665698051 -0.145128563 0.995280445 0.0946917683 -0.0212199204 0.864148974 0.0612236746 -0.49949801 0.509966731 -0.167849392 -0.843658984 -0.83336401 -0.391464978 0.390204608 -0.870221436 0.0754474923 0.486849338 -0.818057716 0.564449489 0.110355593 0.0725827813 -0.995838642 -0.055110462 -0.52571404 -0.744716108 -0.411123604 0.0640275255 -0.996357858 -0.0563158542 0.259131044 -0.95387882 -0.151546493 -0.737945557 0.495334059 -0.458345413 0.305284679 -0.946287096 0.106498592 0.356673598 -0.929260254 0.0962255597 -0.729553342 0.233948186 0.642666399 -0.967715263 0.125557378 0.21854648 -0.140598282 0.609068692 0.780555844 -0.563588917 0.554046154 -0.61269933 -0.399015933 0.120829739 -0.908948004 -0.811498106 0.314458668 -0.492530823 -0.911371708 -0.404842257 0.074191682 -0.715574265 -0.0336981714 -0.697723329 -0.897130311 0.364538282 -0.249537736 -0.969261646 0.150859311 0.1943537 -0.558379412 -0.0273921154 0.829133332 0.453518718 0.0453993604 -0.890089691 0.791896999 0.0493037589 -0.608661056 0.791555464 -0.534805179 -0.295674443 -0.782251239 -0.459926575 0.420179158 -0.0994645804 0.789719701 -0.605350792 0.306283683 0.951442719 -0.0307733174 -0.207534194 -0.941983819 0.263810575 -0.271018475 -0.950645328 0.151071131 -0.141425297 -0.917890251 0.370778054 0.400606751 0.801891744 0.443265021 0.527042687 0.832057357 -0.172935322 0.612117171 0.788475513 -0.0601571724 -0.541878879 -0.831767738 -0.12053901 -0.432697356 -0.901449502 0.0127198417 -0.597338617 -0.661261737 -0.453783512 0.580269277 -0.745439053 -0.328036845 -0.617111742 -0.683592737 0.389710337 -0.478963882 -0.802217543 0.356427521 -0.390942663 -0.858675063 0.331422597 0.47838974 0.873163879 0.0934240893 -0.642280221 -0.68078506 0.35214746 0.502213955 0.842298388 -0.195741057 -0.367306292 0.929582715 -0.0310165435 0.0190720577 0.999024749 0.0398218073 0.30581066 -0.90526557 0.294913739 -0.377372205 -0.778590977 -0.501384437 -0.17061469 -0.979056239 -0.111083522 -0.0366296992 0.993971944 -0.103334509 -0.349541128 -0.936814308 0.014141879 -0.978620112 0.200516075 0.0457819179 -0.944583774 0.319123656 0.0769516677 -0.955469251 0.29500106 0.00727131404 -0.875391781 -0.482976735 -0.02055973 -0.791751087 0.608808517 -0.0498233885 -0.829157352 0.510451674 -0.227897286 -0.560830772 -0.806759238 -0.186033413 -0.469304085 -0.860849023 -0.196704358 -0.962939501 -0.249578312 0.102265231 0.495685786 0.332563549 -0.802307367 0.114743568 0.126061261 -0.985364139 0.391088337 0.136113375 -0.910232425 -0.344011307 0.0347669013 -0.93832165 -0.946952164 -0.102187574 0.304695487 0.866346061 0.193376243 -0.460488975 0.728329897 0.25982511 -0.634055614 0.711335838 0.292102009 -0.639279127 0.6866768 0.203518301 -0.697893441 0.071008727 0.942384422 -0.326908886 -0.840057313 -0.175046682 0.513480663 -0.457106024 -0.330966771 0.825539231 -0.685178399 -0.37435016 0.624813974 0.670814395 0.00208150223 -0.741622388 0.749749482 0.20818904 -0.628118694 -0.237827092 -0.449434072 0.861073315 -0.418216586 -0.295534015 0.858926415 0.338680714 0.911877036 -0.23189579 0.81267792 0.496109635 -0.3056629 0.791503251 0.51260215 -0.332808733 -0.947896481 0.31828931 -0.0135720093 0.633381903 -0.274800599 -0.723403037 0.708350062 -0.491359144 -0.506760716 0.601607442 -0.778682232 -0.178108066 0.704397023 0.68270576 -0.194261745 0.238505855 0.967863977 -0.0797138587 0.239613444 0.962464452 0.127466217 0.327054679 0.92942214 0.170908421 0.638328433 0.756536245 -0.142090514 -0.728136718 -0.620681524 0.290811688 0.62355715 -0.0872810557 -0.776890278 0.876947343 -0.305408657 -0.371064484 0.820250452 -0.339520097 -0.460342556 -0.584689856 0.716931999 0.379665971 -0.667649686 -0.352423877 0.655775309 0.414152801 -0.899118364 -0.141646132 0.1104104 -0.988875031 -0.0996782109 -0.505397141 0.792364001 0.341662109 0.925032616 -0.375927985 0.0547061227 0.961444676 -0.227248594 -0.154861987 0.952433705 -0.278151274 0.124506839 0.774884224 0.631080091 -0.0359492563 0.999525011 -0.030806534 -0.000824199757 -0.0364097208 -0.993138433 -0.111132145 -0.694010317 -0.719115674 -0.0349615775 0.0517774597 0.98979032 0.132793754 -0.548787057 -0.827545106 0.118329383 0.458677053 0.886407673 0.0624246001 0.198384553 0.965787113 0.167029262 0.599428236 0.792180538 0.114611506 0.126862884 0.972569048 0.194974899 0.106233299 0.928232431 0.356509477 0.123909749 -0.935367644 0.33126092 0.118923008 -0.99134177 0.0556672812 0.0514488891 -0.951284289 0.303992212 0.143883318 -0.989562571 0.00797121972 -0.480053991 0.426350534 -0.76666379 0.797944725 0.50751847 -0.325129539 0.910532892 -0.257400185 -0.323535204 -0.498627007 -0.846521258 0.186474815 0.0510615744 -0.0211545769 0.998471439 0.693499565 -0.159156889 0.702657461 0.476439297 -0.679576993 0.557835698 0.860976636 -0.382663518 -0.335093915 -0.383404195 0.750551045 -0.538214087 -0.164807513 0.986023545 0.0244147647 0.075299345 0.975030482 -0.208915174 0.952522933 -0.163131133 0.257076353 -0.773270488 0.628144383 -0.0865295008 -0.615807295 0.787777603 -0.0137049658 -0.999497414 -0.0311206728 0.00603126921 0.755917072 0.122922488 -0.643023729 0.746055424 0.149730578 -0.648831308 0.939477742 0.245597795 0.238879144 0.0818264708 -0.994588852 -0.0640114769 0.107457787 -0.99382633 -0.0276061222 0.138444707 -0.99022615 0.0168902148 -0.448639244 0.335716635 -0.828261554 0.19575195 -0.975475192 0.100644775 0.0497206189 0.998760521 -0.00228813523 0.157310337 0.98750788 -0.00903407484 0.0949544609 0.995468438 -0.00512313563 0.0704416782 -0.853780329 -0.515846074 0.126286775 -0.972603202 -0.195178598 -0.488593757 -0.706405997 -0.51211983 -0.907687247 -0.330678314 -0.258371323 -0.693749607 -0.720014572 0.0170420781 -0.7998541 0.0955495983 -0.592540026 -1.48692834e-05 0.999999881 -0.000446388032 0.918776631 -0.279686183 0.278612852 0.0730559081 -0.576542914 0.813794255 0.319809228 -0.935726404 0.148789018 0.35436812 -0.907630742 0.22501041 -0.844625115 -0.127132416 -0.520043969 0.836519241 -0.271980166 0.475670397 -0.104738601 0.974760592 0.197158977 0.729130626 -0.514174342 0.451656103 -0.215272576 0.950303614 0.224901602 -0.306273341 0.948811471 -0.0771588758 0.615654886 0.70529294 0.351469785 -0.787799716 -0.245666772 -0.564818025 -0.444320351 0.877215326 -0.181858972 0.463110894 -0.18417497 -0.866953194 0.843636513 -0.29625389 -0.447784662 0.784736812 -0.280299038 -0.552829623 -0.496362865 -0.484176636 0.72055316 -0.346337855 -0.934236586 -0.0851591304 0.502031624 0.855726361 -0.125286266 0.546779037 0.822538555 -0.156406403 -0.133261397 -0.913951159 0.383320659 0.542939544 0.821095943 -0.176119611 -0.306136459 -0.901777089 0.305087835 0.182656959 0.92121613 -0.34350726 -0.368166149 -0.909218848 0.194357231 0.31657815 0.946765602 -0.0584226139 -0.38641572 -0.887693584 0.250365674 0.468661189 0.834240258 0.290516675 -0.999634802 0.0257277004 -0.00826616306 0.12999098 -0.0775450096 -0.988478184 0.988597453 -0.150340304 -0.00853508525 0.946086943 -0.291728407 0.14076224 0.752873421 -0.634956062 0.173241049 0.969876349 -0.22766383 0.0866547972 0.631190538 -0.764316916 0.131977931 0.54208082 0.514656842 -0.664286613 -0.735446751 0.452381879 0.504448891 0.912957013 -0.405338734 -0.0470111966 0.0763160884 0.990197301 -0.116983749 -0.634746671 -0.264860481 0.725910187 0.092869319 0.976500928 -0.194476843 -0.563510597 -0.805169702 0.184817463 -0.899290383 0.0154212238 0.437080115 0.362996548 -0.596977651 0.71543777 -0.984891176 0.0484277979 0.166265354 0.974404335 -0.223786384 0.0213516075 0.94854182 0.298154622 0.106640846 0.393193454 -0.510636508 -0.764623582 0.524082422 0.800565124 0.290573806 -0.416747183 -0.832674444 -0.364657521 -0.200315431 -0.978176892 0.0551691838 -0.501383185 -0.826174021 -0.257004678 -0.127932608 -0.986443341 -0.102775134 0.375635713 -0.245766357 -0.893586397 -0.00706861634 0.999974191 0.00126867986</float_array>
          <technique_common>
            <accessor source="#normals_array" count="243" stride="3">
              <param name="X" type="float" />
              <param name="Y" type="float" />
              <param name="Z" type="float" />
            </accessor>
          </technique_common>
        </source>
        <vertices id="vertices">
          <input semantic="POSITION" source="#positions" />
        </vertices>
        <triangles material="qmat_76551a3993c45b27" count="144">
          <input semantic="VERTEX" source="#vertices" offset="0" />
          <input semantic="NORMAL" source="#normals" offset="1" />
          <p>15 16 21 22 16 17 14 15 21 23 22 24 21 22 15 16 24 27 15 16 25 28 26 29 21 23 24 30 26 31 15 32 27 33 24 34 26 29 24 35 28 36 19 40 32 41 33 42 35 44 36 45 37 46 25 47 37 47 38 47 28 36 38 48 37 46 26 29 28 36 27 49 47 60 46 59 51 64 22 24 26 31 25 65 22 66 52 66 51 66 53 67 54 68 35 69 54 70 53 71 50 72 55 73 51 64 35 74 56 75 36 45 35 44 53 76 56 76 57 76 56 77 54 78 57 79 49 62 22 24 55 80 57 82 59 83 60 84 61 85 62 86 60 87 57 82 60 84 62 88 63 89 62 86 61 85 45 58 64 90 65 91 66 92 50 92 67 92 65 91 64 90 66 93 46 59 66 93 51 64 50 72 53 71 57 82 75 103 76 103 77 103 78 104 79 105 80 106 30 38 32 107 79 105 30 108 81 108 31 108 31 109 81 110 79 111 78 120 84 121 83 122 84 125 32 126 87 127 32 128 78 128 87 128 88 131 32 107 28 36 32 41 89 132 33 42 37 46 88 131 28 36 79 111 81 110 80 133 61 85 60 87 90 134 59 135 90 134 37 46 59 83 89 132 91 136 85 123 82 140 92 141 93 142 63 89 94 143 60 84 91 136 95 144 60 87 94 143 90 134 64 90 94 143 66 93 93 146 97 147 96 148 63 89 66 93 94 143 95 144 91 136 98 149 98 149 91 136 99 150 93 146 95 144 97 147 103 156 85 123 92 141 82 157 90 134 92 141 90 134 104 158 107 162 107 160 108 161 111 166 108 161 117 183 111 182 29 37 11 12 16 17 16 17 21 22 27 49 27 33 14 15 33 42 22 24 21 23 26 31 21 23 14 15 27 33 15 16 26 29 27 49 30 38 29 37 28 36 32 107 30 38 28 36 16 17 27 49 28 36 24 34 27 33 33 42 52 190 28 36 33 191 36 192 55 192 59 192 37 46 36 45 59 135 55 193 35 193 59 193 35 194 89 132 59 83 37 195 25 195 52 195 28 36 52 190 38 48 35 194 37 196 89 132 37 196 33 42 89 132 37 196 52 197 33 42 22 198 25 198 38 198 52 199 22 199 38 199 24 34 33 42 28 200 25 28 15 16 51 64 25 28 51 64 52 205 49 62 56 206 53 207 49 208 53 67 35 69 50 72 49 209 54 70 54 78 49 210 57 79 35 211 57 211 49 211 35 74 51 64 57 212 55 80 56 206 49 62 56 213 35 213 54 213 22 214 51 64 55 73 57 212 61 85 59 135 56 206 55 80 36 215 46 217 70 201 50 203 46 218 50 218 66 218 69 219 65 220 66 221 69 219 46 222 65 220 57 212 66 93 63 89 61 85 57 212 63 89 50 72 57 82 93 146 57 212 51 64 66 93 57 82 62 88 93 146 62 86 63 89 93 142 81 224 30 224 78 224 32 41 31 109 79 111 78 104 30 38 79 105 85 137 78 120 83 122 83 226 84 125 87 127 83 226 87 127 82 228 32 41 84 229 82 230 88 131 80 106 32 107 78 104 80 106 88 131 80 133 81 110 32 227 59 135 61 85 90 134 82 157 88 131 90 134 32 41 91 136 89 132 87 127 78 104 88 131 88 131 37 46 90 134 82 157 87 127 88 131 32 41 82 230 91 136 64 90 67 232 94 143 69 95 67 232 64 90 67 233 69 219 66 221 60 87 93 142 94 143 93 146 60 84 95 144 60 84 59 83 91 136 50 72 93 146 96 148 91 136 97 147 99 150 119 236 98 149 99 150 95 237 119 238 99 239 97 147 95 144 99 150 67 232 106 168 113 169 94 143 113 169 104 158 67 232 113 169 94 143 92 141 90 134 107 162 108 161 104 158 118 185 113 169 118 185 104 158 113 169 112 167 118 185 112 167 114 184 118 185 118 185 117 183 108 161</p>
        </triangles>
        <triangles material="qmat_d857164d36b11abb" count="130">
          <input semantic="VERTEX" source="#vertices" offset="0" />
          <input semantic="NORMAL" source="#normals" offset="1" />
          <p>0 0 1 1 2 2 3 3 4 4 5 5 3 3 0 0 4 4 5 5 6 6 7 7 6 8 4 4 8 9 8 9 9 10 10 11 9 10 0 0 11 12 12 13 13 14 14 15 11 12 15 16 16 17 17 18 18 19 19 20 0 0 2 2 11 12 20 21 12 13 14 15 20 21 14 15 22 24 11 12 2 2 15 16 12 25 23 26 17 18 23 26 18 19 17 18 9 10 29 37 30 38 10 11 30 38 31 39 29 37 16 17 28 36 13 14 19 40 33 42 19 20 18 19 34 43 39 50 40 51 1 1 41 52 39 50 3 3 3 3 39 50 1 1 41 52 7 7 39 50 7 53 42 54 43 55 7 56 43 55 39 50 40 51 44 57 45 58 40 51 45 58 46 59 1 1 47 60 2 2 48 61 49 62 50 63 1 1 46 59 47 60 40 51 46 59 1 1 2 2 47 60 15 16 23 26 58 81 18 19 68 94 69 95 45 58 69 96 68 97 70 98 42 54 71 99 72 100 10 11 72 100 71 99 72 100 31 39 73 101 44 57 72 100 73 101 74 102 71 99 42 54 73 101 19 112 34 113 31 39 19 112 73 101 73 114 34 115 81 110 73 116 81 117 78 118 82 119 34 119 83 119 73 116 85 123 86 124 73 116 78 118 85 123 78 120 32 129 34 130 85 137 34 138 91 139 68 94 96 145 70 98 70 98 96 145 58 81 96 145 95 151 34 43 34 152 97 153 91 154 100 155 101 155 102 155 94 143 104 158 90 134 105 159 106 159 103 159 107 160 104 158 108 161 109 163 105 164 110 165 112 167 106 168 109 163 106 168 112 167 113 169 103 156 107 162 114 170 112 171 103 156 114 170 105 172 103 172 110 172 103 173 112 174 110 175 109 163 110 165 115 176 112 174 115 177 110 175 107 178 111 179 116 180 116 181 111 182 117 183 109 163 115 176 112 167 114 184 117 183 118 185 114 184 116 186 117 183 9 10 4 4 0 0 5 5 41 52 3 3 7 7 6 6 74 187 71 99 8 9 10 11 8 9 4 4 9 10 6 8 5 5 4 4 13 188 12 25 17 18 9 10 11 12 29 37 14 15 13 14 33 42 12 25 20 189 23 26 19 40 31 109 32 41 10 11 9 10 30 38 13 188 17 18 19 20 3 3 1 1 0 0 7 7 41 52 5 5 7 53 74 102 42 54 43 55 44 57 40 51 39 50 43 55 40 51 70 201 48 202 50 203 48 204 70 98 58 81 47 60 51 64 15 16 49 62 20 21 22 24 49 62 48 61 20 21 20 189 48 204 23 26 23 26 48 204 58 81 18 19 96 145 34 43 45 58 69 95 64 90 46 59 45 58 65 91 69 96 70 98 46 216 18 19 58 81 96 145 74 223 6 8 8 9 74 223 8 9 71 99 72 100 10 11 31 39 44 57 42 54 72 100 45 58 44 57 73 101 43 55 42 54 44 57 85 137 83 122 34 138 82 225 84 121 34 130 84 121 78 120 34 130 34 115 32 227 81 110 82 231 85 137 91 139 68 94 45 58 86 124 68 94 67 232 96 145 45 58 73 116 86 124 96 148 67 234 50 72 98 235 34 43 95 151 96 240 119 238 95 237 34 152 119 238 97 153 119 241 34 43 98 235 119 238 96 240 97 153 103 156 86 124 85 123 68 94 106 168 67 232 68 94 86 124 106 168 103 156 92 141 107 162 86 124 103 156 106 168 106 168 105 164 109 163 114 242 107 178 116 180</p>
        </triangles>
      </mesh>
    </geometry>
  </library_geometries>
  <library_visual_scenes>
    <visual_scene id="scene">
      <node id="RR_thigh_dae">
        <instance_geometry url="#geometry">
          <bind_material>
            <technique_common>
              <instance_material symbol="qmat_76551a3993c45b27" target="#qmat_76551a3993c45b27" />
              <instance_material symbol="qmat_d857164d36b11abb" target="#qmat_d857164d36b11abb" />
            </technique_common>
          </bind_material>
        </instance_geometry>
      </node>
    </visual_scene>
  </library_visual_scenes>
  <scene>
    <instance_visual_scene url="#scene" />
  </scene>
</COLLADA>